M48
;GenerationSoftware,Autodesk,EAGLE,9.6.2*%
;CreationDate,2021-10-03T13:45:34Z*%
FMAT,2
ICI,OFF
METRIC,TZ,000.000
T4C0.200
T3C0.300
T2C0.350
T1C1.020
%
G90
M71
T1
X83820Y30861
X83820Y23241
T2
X21962Y15625
X48252Y45240
X59415Y45572
X37854Y46940
X37962Y48393
X43879Y28841
X43910Y27574
X35534Y30161
X48848Y17758
X54374Y11824
X43082Y9465
X45181Y9516
X42216Y1431
X67258Y30290
X25401Y15596
X49047Y43815
X52324Y39192
X52324Y40462
X60122Y46990
X49149Y16459
X56337Y10592
X39472Y1473
X68275Y30302
X32055Y25756
X33274Y25756
X48596Y14190
X75801Y7525
X20735Y38563
X20661Y37170
X20527Y35909
X20509Y34648
X20518Y33388
X20581Y32082
X20643Y30866
X20594Y29566
X20594Y28343
X20581Y27030
X20617Y25752
X20715Y24446
X20652Y23203
X20742Y21934
X20769Y20664
X20760Y19385
X20737Y18111
X20765Y16863
X20822Y15594
X20911Y14335
X22091Y14324
X41408Y48366
X41511Y46756
X44121Y45432
X45694Y45038
X45113Y43590
X33991Y46299
X35261Y46254
X32695Y46228
X31417Y46245
X31479Y34684
X32722Y36884
X36495Y37000
X46436Y39668
X50123Y36785
X52116Y36710
X52084Y44853
X50199Y44928
X34842Y26166
X33016Y21123
X32294Y4807
X35361Y3303
X61134Y10920
X64764Y27701
X64904Y29440
X78122Y17062
X80163Y17181
X71487Y13520
X44868Y14539
X59893Y43967
X69063Y17272
X60528Y22911
X51968Y9119
X23901Y9855
X29235Y7518
X24790Y5105
X40157Y8585
X46406Y12319
X54610Y24790
X49860Y29972
X53924Y33477
X58369Y30531
X65837Y15215
X65583Y2667
X84582Y15519
X58217Y39141
X54280Y50470
X46533Y49987
X28270Y40691
X24968Y45212
X38176Y40665
X30124Y26594
X48108Y41224
X42316Y45517
X59258Y43155
X46939Y14199
X50825Y10008
X61392Y13868
X36322Y2540
X32233Y6045
X60579Y24638
X69698Y15875
X70917Y12268
X68529Y26746
X68758Y25527
X75032Y27178
X75133Y25629
X34722Y25121
X84962Y31492
X84804Y30126
X84522Y28938
X84511Y27651
X84500Y26342
X84474Y25027
X84805Y23974
X84885Y22588
X65228Y39404
X65087Y37215
X68466Y40398
X75197Y40696
X74190Y39211
X68402Y41681
X78130Y45644
X83185Y37033
X66980Y48590
X76657Y37821
X79070Y22022
X69494Y41300
X79197Y46939
X48881Y20633
X60310Y20629
X50576Y19599
X58518Y19587
X83095Y28992
X83213Y27608
X39633Y30812
X32838Y32693
X22226Y37170
X40988Y31461
X42252Y31474
X33503Y33882
X22181Y38484
X35738Y33807
X36142Y26537
X38905Y21186
X22316Y29593
X22134Y28273
X42272Y22249
X33953Y28371
X22047Y32091
X21993Y18142
X82742Y31501
X83127Y26395
X83084Y25129
X82845Y23984
X82904Y22438
X22273Y27061
X74970Y45442
X43123Y22993
X33328Y29569
X22181Y33397
X21996Y19431
X22235Y24437
X22262Y23230
X22270Y21916
X22351Y20717
X41325Y21626
X32389Y27896
X22163Y30821
X42266Y27069
X33722Y31755
X22235Y35882
X43099Y25807
X32353Y30539
X22235Y34702
X57104Y12487
X44236Y17797
X68074Y12487
X21998Y16877
X82741Y30161
X22208Y25769
T3
X33654Y8972
T4
X87376Y23876
X81178Y32106
X87427Y22606
X80239Y26391
X87427Y25121
X87376Y26441
X87452Y27711
X80366Y22581
X79959Y23901
X87325Y29058
X87325Y30201
X87249Y31547
X24613Y14351
X32918Y20193
X18440Y38481
X18186Y37186
X18161Y35916
X34620Y23698
X17932Y34595
X17907Y33299
X17805Y32080
X17793Y30823
X17678Y29540
X17729Y28270
X17653Y26975
X17653Y25756
X17653Y24460
X17640Y23177
X17897Y14433
X36449Y22047
X17678Y21819
X17805Y20650
X17755Y19380
X17729Y18085
X25171Y16967
X17653Y16840
X80747Y30251
X34620Y22860
X17577Y15621
M30