M48
;GenerationSoftware,Autodesk,EAGLE,9.6.2*%
;CreationDate,2021-02-19T23:09:16Z*%
FMAT,2
ICI,OFF
METRIC,TZ,000.000
T2C0.350
T1C1.016
%
G90
M71
T1
X20010Y29753
X32710Y3253
X30170Y3253
X27630Y3253
X25090Y3253
X22550Y3253
X20010Y3253
X17470Y3253
X14930Y3253
X12390Y3253
X9850Y3253
X37790Y29753
X35250Y29753
X32710Y29753
X30170Y29753
X27630Y29753
X25090Y29753
X22550Y29753
X7310Y3253
X17470Y29753
X14930Y29753
X12390Y29753
X9850Y29753
X7310Y29753
X37790Y3253
X35250Y3253
T2
X17797Y15485
X20832Y18520
X17757Y18537
X20872Y17508
X17718Y17494
X23513Y13041
X23576Y11803
X27640Y20766
X27690Y19656
X26331Y25384
X20994Y15499
M30