G04 EAGLE Gerber RS-274X export*
G75*
%MOMM*%
%FSLAX34Y34*%
%LPD*%
%INBottom Copper*%
%IPPOS*%
%AMOC8*
5,1,8,0,0,1.08239X$1,22.5*%
G01*
%ADD10C,1.524000*%
%ADD11C,0.756400*%
%ADD12C,0.200000*%

G36*
X397904Y10170D02*
X397904Y10170D01*
X397968Y10169D01*
X398043Y10190D01*
X398119Y10201D01*
X398178Y10227D01*
X398240Y10244D01*
X398306Y10285D01*
X398376Y10317D01*
X398425Y10359D01*
X398480Y10392D01*
X398532Y10450D01*
X398590Y10500D01*
X398626Y10554D01*
X398669Y10602D01*
X398702Y10671D01*
X398745Y10736D01*
X398764Y10798D01*
X398792Y10855D01*
X398803Y10925D01*
X398827Y11006D01*
X398828Y11091D01*
X398839Y11160D01*
X398839Y318840D01*
X398830Y318904D01*
X398831Y318968D01*
X398810Y319043D01*
X398799Y319119D01*
X398773Y319178D01*
X398756Y319240D01*
X398715Y319306D01*
X398683Y319376D01*
X398641Y319425D01*
X398608Y319480D01*
X398550Y319532D01*
X398500Y319590D01*
X398446Y319626D01*
X398398Y319669D01*
X398329Y319702D01*
X398264Y319745D01*
X398202Y319764D01*
X398145Y319792D01*
X398075Y319803D01*
X397994Y319827D01*
X397909Y319828D01*
X397840Y319839D01*
X39170Y319839D01*
X39138Y319835D01*
X39106Y319837D01*
X38999Y319815D01*
X38890Y319799D01*
X38861Y319786D01*
X38830Y319780D01*
X38733Y319728D01*
X38634Y319683D01*
X38609Y319662D01*
X38581Y319647D01*
X38502Y319571D01*
X38419Y319500D01*
X38402Y319473D01*
X38379Y319450D01*
X38325Y319355D01*
X38265Y319264D01*
X38255Y319233D01*
X38239Y319205D01*
X38214Y319098D01*
X38182Y318994D01*
X38182Y318962D01*
X38175Y318931D01*
X38180Y318821D01*
X38179Y318712D01*
X38187Y318681D01*
X38189Y318649D01*
X38225Y318546D01*
X38254Y318440D01*
X38271Y318413D01*
X38281Y318382D01*
X38335Y318309D01*
X38402Y318200D01*
X38438Y318168D01*
X38463Y318133D01*
X42645Y313951D01*
X45715Y306541D01*
X45715Y298521D01*
X42645Y291111D01*
X36974Y285440D01*
X29564Y282370D01*
X21544Y282370D01*
X14134Y285440D01*
X11867Y287707D01*
X11841Y287726D01*
X11820Y287751D01*
X11728Y287811D01*
X11641Y287876D01*
X11611Y287887D01*
X11584Y287905D01*
X11479Y287937D01*
X11377Y287976D01*
X11345Y287978D01*
X11314Y287988D01*
X11205Y287989D01*
X11096Y287997D01*
X11064Y287991D01*
X11032Y287991D01*
X10927Y287962D01*
X10820Y287940D01*
X10791Y287925D01*
X10760Y287916D01*
X10667Y287859D01*
X10571Y287807D01*
X10548Y287785D01*
X10520Y287768D01*
X10447Y287687D01*
X10369Y287611D01*
X10353Y287583D01*
X10331Y287559D01*
X10284Y287460D01*
X10230Y287365D01*
X10222Y287334D01*
X10208Y287305D01*
X10194Y287216D01*
X10165Y287091D01*
X10167Y287042D01*
X10161Y287000D01*
X10161Y256160D01*
X10170Y256096D01*
X10169Y256032D01*
X10190Y255957D01*
X10201Y255881D01*
X10227Y255822D01*
X10244Y255760D01*
X10285Y255694D01*
X10317Y255624D01*
X10359Y255575D01*
X10392Y255520D01*
X10450Y255468D01*
X10500Y255410D01*
X10554Y255374D01*
X10602Y255331D01*
X10671Y255298D01*
X10736Y255255D01*
X10798Y255236D01*
X10855Y255208D01*
X10925Y255197D01*
X11006Y255173D01*
X11091Y255172D01*
X11160Y255161D01*
X102021Y255161D01*
X105756Y253614D01*
X108614Y250756D01*
X110161Y247021D01*
X110161Y82979D01*
X108614Y79244D01*
X105756Y76386D01*
X102021Y74839D01*
X11160Y74839D01*
X11096Y74830D01*
X11032Y74831D01*
X10957Y74810D01*
X10881Y74799D01*
X10822Y74773D01*
X10760Y74756D01*
X10694Y74715D01*
X10624Y74683D01*
X10575Y74641D01*
X10520Y74608D01*
X10468Y74550D01*
X10410Y74500D01*
X10374Y74446D01*
X10331Y74398D01*
X10298Y74329D01*
X10255Y74264D01*
X10236Y74202D01*
X10208Y74145D01*
X10197Y74075D01*
X10173Y73994D01*
X10172Y73909D01*
X10161Y73840D01*
X10161Y43062D01*
X10165Y43030D01*
X10163Y42998D01*
X10185Y42891D01*
X10201Y42782D01*
X10214Y42753D01*
X10220Y42722D01*
X10272Y42625D01*
X10317Y42526D01*
X10338Y42501D01*
X10353Y42473D01*
X10429Y42394D01*
X10500Y42311D01*
X10527Y42294D01*
X10550Y42271D01*
X10645Y42217D01*
X10736Y42157D01*
X10767Y42147D01*
X10795Y42131D01*
X10901Y42106D01*
X11006Y42074D01*
X11038Y42074D01*
X11069Y42067D01*
X11179Y42072D01*
X11288Y42071D01*
X11319Y42079D01*
X11351Y42081D01*
X11454Y42117D01*
X11560Y42146D01*
X11587Y42163D01*
X11618Y42173D01*
X11691Y42227D01*
X11800Y42294D01*
X11832Y42330D01*
X11867Y42355D01*
X14134Y44622D01*
X21544Y47692D01*
X29564Y47692D01*
X36974Y44622D01*
X42645Y38951D01*
X45715Y31541D01*
X45715Y23521D01*
X42645Y16111D01*
X38401Y11867D01*
X38382Y11841D01*
X38357Y11820D01*
X38297Y11728D01*
X38232Y11641D01*
X38220Y11611D01*
X38203Y11584D01*
X38171Y11479D01*
X38132Y11377D01*
X38130Y11345D01*
X38120Y11314D01*
X38119Y11205D01*
X38111Y11096D01*
X38117Y11064D01*
X38117Y11032D01*
X38146Y10927D01*
X38168Y10820D01*
X38183Y10791D01*
X38192Y10760D01*
X38249Y10667D01*
X38301Y10571D01*
X38323Y10548D01*
X38340Y10520D01*
X38421Y10447D01*
X38497Y10369D01*
X38525Y10353D01*
X38549Y10331D01*
X38648Y10284D01*
X38743Y10230D01*
X38774Y10222D01*
X38803Y10208D01*
X38892Y10194D01*
X39017Y10165D01*
X39066Y10167D01*
X39108Y10161D01*
X397840Y10161D01*
X397904Y10170D01*
G37*
%LPC*%
G36*
X262250Y248528D02*
X262250Y248528D01*
X260300Y249336D01*
X258748Y250888D01*
X258719Y250936D01*
X258712Y250943D01*
X258708Y250951D01*
X258610Y251039D01*
X258514Y251129D01*
X258505Y251133D01*
X258498Y251140D01*
X258379Y251197D01*
X258262Y251257D01*
X258253Y251259D01*
X258244Y251263D01*
X258168Y251275D01*
X257985Y251309D01*
X257961Y251307D01*
X257940Y251310D01*
X115748Y251310D01*
X82296Y284762D01*
X82245Y284800D01*
X82200Y284846D01*
X82133Y284885D01*
X82071Y284931D01*
X82011Y284954D01*
X81955Y284986D01*
X81879Y285003D01*
X81807Y285031D01*
X81743Y285036D01*
X81680Y285050D01*
X81603Y285047D01*
X81526Y285052D01*
X81463Y285039D01*
X81399Y285036D01*
X81325Y285011D01*
X81250Y284995D01*
X81193Y284965D01*
X81132Y284944D01*
X81075Y284902D01*
X81001Y284862D01*
X80940Y284803D01*
X80883Y284762D01*
X78279Y282157D01*
X74918Y280765D01*
X71280Y280765D01*
X67919Y282157D01*
X65346Y284730D01*
X63954Y288091D01*
X63954Y306969D01*
X65346Y310330D01*
X67919Y312903D01*
X71280Y314295D01*
X74918Y314295D01*
X78279Y312903D01*
X80851Y310330D01*
X82243Y306969D01*
X82243Y292370D01*
X82257Y292275D01*
X82262Y292179D01*
X82277Y292135D01*
X82283Y292090D01*
X82323Y292003D01*
X82354Y291912D01*
X82379Y291878D01*
X82399Y291834D01*
X82483Y291736D01*
X82536Y291663D01*
X88097Y286102D01*
X88166Y286050D01*
X88230Y285991D01*
X88278Y285966D01*
X88322Y285933D01*
X88404Y285902D01*
X88481Y285863D01*
X88535Y285853D01*
X88586Y285834D01*
X88673Y285827D01*
X88758Y285811D01*
X88813Y285816D01*
X88867Y285812D01*
X88952Y285829D01*
X89039Y285838D01*
X89090Y285858D01*
X89144Y285869D01*
X89220Y285910D01*
X89301Y285942D01*
X89344Y285976D01*
X89393Y286002D01*
X89455Y286062D01*
X89523Y286116D01*
X89555Y286160D01*
X89595Y286199D01*
X89637Y286274D01*
X89688Y286344D01*
X89707Y286396D01*
X89734Y286444D01*
X89754Y286528D01*
X89783Y286610D01*
X89786Y286665D01*
X89799Y286718D01*
X89794Y286805D01*
X89799Y286892D01*
X89787Y286941D01*
X89784Y287000D01*
X89747Y287108D01*
X89727Y287191D01*
X89354Y288091D01*
X89354Y306969D01*
X90746Y310330D01*
X93319Y312903D01*
X96680Y314295D01*
X100318Y314295D01*
X103679Y312903D01*
X106251Y310330D01*
X107643Y306969D01*
X107643Y288091D01*
X106251Y284730D01*
X103679Y282157D01*
X100318Y280765D01*
X96680Y280765D01*
X95780Y281138D01*
X95696Y281159D01*
X95615Y281190D01*
X95560Y281194D01*
X95507Y281208D01*
X95420Y281205D01*
X95334Y281212D01*
X95280Y281201D01*
X95225Y281199D01*
X95142Y281172D01*
X95057Y281154D01*
X95009Y281129D01*
X94957Y281112D01*
X94885Y281063D01*
X94808Y281022D01*
X94769Y280984D01*
X94724Y280953D01*
X94669Y280886D01*
X94606Y280825D01*
X94579Y280777D01*
X94544Y280735D01*
X94510Y280655D01*
X94467Y280580D01*
X94455Y280526D01*
X94433Y280476D01*
X94422Y280390D01*
X94402Y280305D01*
X94405Y280250D01*
X94399Y280196D01*
X94412Y280110D01*
X94417Y280024D01*
X94435Y279972D01*
X94444Y279918D01*
X94481Y279839D01*
X94509Y279757D01*
X94539Y279716D01*
X94565Y279663D01*
X94640Y279578D01*
X94691Y279508D01*
X117547Y256653D01*
X117623Y256595D01*
X117695Y256530D01*
X117736Y256511D01*
X117772Y256483D01*
X117862Y256449D01*
X117949Y256407D01*
X117991Y256401D01*
X118036Y256384D01*
X118164Y256374D01*
X118253Y256360D01*
X257940Y256360D01*
X257949Y256361D01*
X257959Y256360D01*
X258089Y256381D01*
X258219Y256400D01*
X258228Y256404D01*
X258237Y256405D01*
X258357Y256462D01*
X258476Y256516D01*
X258483Y256522D01*
X258492Y256526D01*
X258590Y256614D01*
X258690Y256699D01*
X258695Y256707D01*
X258703Y256714D01*
X258739Y256773D01*
X260300Y258334D01*
X262250Y259142D01*
X264361Y259142D01*
X266312Y258334D01*
X267804Y256841D01*
X268612Y254891D01*
X268612Y252780D01*
X267804Y250829D01*
X266312Y249336D01*
X264361Y248528D01*
X262250Y248528D01*
G37*
%LPD*%
%LPC*%
G36*
X350680Y280765D02*
X350680Y280765D01*
X347319Y282157D01*
X344746Y284730D01*
X343354Y288091D01*
X343354Y306969D01*
X344746Y310330D01*
X347319Y312903D01*
X350680Y314295D01*
X354318Y314295D01*
X357679Y312903D01*
X360251Y310330D01*
X361643Y306969D01*
X361643Y288091D01*
X360251Y284730D01*
X357679Y282157D01*
X354318Y280765D01*
X350680Y280765D01*
G37*
%LPD*%
%LPC*%
G36*
X274480Y280765D02*
X274480Y280765D01*
X271119Y282157D01*
X268546Y284730D01*
X267154Y288091D01*
X267154Y306969D01*
X268546Y310330D01*
X271119Y312903D01*
X274480Y314295D01*
X278118Y314295D01*
X281479Y312903D01*
X284051Y310330D01*
X285443Y306969D01*
X285443Y288091D01*
X284051Y284730D01*
X281479Y282157D01*
X278118Y280765D01*
X274480Y280765D01*
G37*
%LPD*%
%LPC*%
G36*
X299880Y280765D02*
X299880Y280765D01*
X296519Y282157D01*
X293946Y284730D01*
X292554Y288091D01*
X292554Y306969D01*
X293946Y310330D01*
X296519Y312903D01*
X299880Y314295D01*
X303518Y314295D01*
X306879Y312903D01*
X309451Y310330D01*
X310843Y306969D01*
X310843Y288091D01*
X309451Y284730D01*
X306879Y282157D01*
X303518Y280765D01*
X299880Y280765D01*
G37*
%LPD*%
%LPC*%
G36*
X325280Y280765D02*
X325280Y280765D01*
X321919Y282157D01*
X319346Y284730D01*
X317954Y288091D01*
X317954Y306969D01*
X319346Y310330D01*
X321919Y312903D01*
X325280Y314295D01*
X328918Y314295D01*
X332279Y312903D01*
X334851Y310330D01*
X336243Y306969D01*
X336243Y288091D01*
X334851Y284730D01*
X332279Y282157D01*
X328918Y280765D01*
X325280Y280765D01*
G37*
%LPD*%
%LPC*%
G36*
X376080Y280765D02*
X376080Y280765D01*
X372719Y282157D01*
X370146Y284730D01*
X368754Y288091D01*
X368754Y306969D01*
X370146Y310330D01*
X372719Y312903D01*
X376080Y314295D01*
X379718Y314295D01*
X383079Y312903D01*
X385651Y310330D01*
X387043Y306969D01*
X387043Y288091D01*
X385651Y284730D01*
X383079Y282157D01*
X379718Y280765D01*
X376080Y280765D01*
G37*
%LPD*%
%LPC*%
G36*
X223680Y280765D02*
X223680Y280765D01*
X220319Y282157D01*
X217746Y284730D01*
X216354Y288091D01*
X216354Y306969D01*
X217746Y310330D01*
X220319Y312903D01*
X223680Y314295D01*
X227318Y314295D01*
X230679Y312903D01*
X233251Y310330D01*
X234643Y306969D01*
X234643Y288091D01*
X233251Y284730D01*
X230679Y282157D01*
X227318Y280765D01*
X223680Y280765D01*
G37*
%LPD*%
%LPC*%
G36*
X172880Y280765D02*
X172880Y280765D01*
X169519Y282157D01*
X166946Y284730D01*
X165554Y288091D01*
X165554Y306969D01*
X166946Y310330D01*
X169519Y312903D01*
X172880Y314295D01*
X176518Y314295D01*
X179879Y312903D01*
X182451Y310330D01*
X183843Y306969D01*
X183843Y288091D01*
X182451Y284730D01*
X179879Y282157D01*
X176518Y280765D01*
X172880Y280765D01*
G37*
%LPD*%
%LPC*%
G36*
X147480Y280765D02*
X147480Y280765D01*
X144119Y282157D01*
X141546Y284730D01*
X140154Y288091D01*
X140154Y306969D01*
X141546Y310330D01*
X144119Y312903D01*
X147480Y314295D01*
X151118Y314295D01*
X154479Y312903D01*
X157051Y310330D01*
X158443Y306969D01*
X158443Y288091D01*
X157051Y284730D01*
X154479Y282157D01*
X151118Y280765D01*
X147480Y280765D01*
G37*
%LPD*%
%LPC*%
G36*
X122080Y280765D02*
X122080Y280765D01*
X118719Y282157D01*
X116146Y284730D01*
X114754Y288091D01*
X114754Y306969D01*
X116146Y310330D01*
X118719Y312903D01*
X122080Y314295D01*
X125718Y314295D01*
X129079Y312903D01*
X131651Y310330D01*
X133043Y306969D01*
X133043Y288091D01*
X131651Y284730D01*
X129079Y282157D01*
X125718Y280765D01*
X122080Y280765D01*
G37*
%LPD*%
%LPC*%
G36*
X96680Y15765D02*
X96680Y15765D01*
X93319Y17157D01*
X90746Y19730D01*
X89354Y23091D01*
X89354Y41969D01*
X90746Y45330D01*
X93319Y47902D01*
X96680Y49295D01*
X100318Y49295D01*
X103679Y47902D01*
X106251Y45330D01*
X107643Y41969D01*
X107643Y23091D01*
X106251Y19730D01*
X103679Y17157D01*
X100318Y15765D01*
X96680Y15765D01*
G37*
%LPD*%
%LPC*%
G36*
X71280Y15765D02*
X71280Y15765D01*
X67919Y17157D01*
X65346Y19730D01*
X63954Y23091D01*
X63954Y41969D01*
X65346Y45330D01*
X67919Y47902D01*
X71280Y49295D01*
X74918Y49295D01*
X78279Y47902D01*
X80851Y45330D01*
X82243Y41969D01*
X82243Y23091D01*
X80851Y19730D01*
X78279Y17157D01*
X74918Y15765D01*
X71280Y15765D01*
G37*
%LPD*%
%LPC*%
G36*
X376080Y15765D02*
X376080Y15765D01*
X372719Y17157D01*
X370146Y19730D01*
X368754Y23091D01*
X368754Y41969D01*
X370146Y45330D01*
X372719Y47902D01*
X376080Y49295D01*
X379718Y49295D01*
X383079Y47902D01*
X385651Y45330D01*
X387043Y41969D01*
X387043Y23091D01*
X385651Y19730D01*
X383079Y17157D01*
X379718Y15765D01*
X376080Y15765D01*
G37*
%LPD*%
%LPC*%
G36*
X325280Y15765D02*
X325280Y15765D01*
X321919Y17157D01*
X319346Y19730D01*
X317954Y23091D01*
X317954Y41969D01*
X319346Y45330D01*
X321919Y47902D01*
X325280Y49295D01*
X328918Y49295D01*
X332279Y47902D01*
X334851Y45330D01*
X336243Y41969D01*
X336243Y23091D01*
X334851Y19730D01*
X332279Y17157D01*
X328918Y15765D01*
X325280Y15765D01*
G37*
%LPD*%
%LPC*%
G36*
X299880Y15765D02*
X299880Y15765D01*
X296519Y17157D01*
X293946Y19730D01*
X292554Y23091D01*
X292554Y41969D01*
X293946Y45330D01*
X296519Y47902D01*
X299880Y49295D01*
X303518Y49295D01*
X306879Y47902D01*
X309451Y45330D01*
X310843Y41969D01*
X310843Y23091D01*
X309451Y19730D01*
X306879Y17157D01*
X303518Y15765D01*
X299880Y15765D01*
G37*
%LPD*%
%LPC*%
G36*
X274480Y15765D02*
X274480Y15765D01*
X271119Y17157D01*
X268546Y19730D01*
X267154Y23091D01*
X267154Y41969D01*
X268546Y45330D01*
X271119Y47902D01*
X274480Y49295D01*
X278118Y49295D01*
X281479Y47902D01*
X284051Y45330D01*
X285443Y41969D01*
X285443Y23091D01*
X284051Y19730D01*
X281479Y17157D01*
X278118Y15765D01*
X274480Y15765D01*
G37*
%LPD*%
%LPC*%
G36*
X249080Y15765D02*
X249080Y15765D01*
X245719Y17157D01*
X243146Y19730D01*
X241754Y23091D01*
X241754Y41969D01*
X243146Y45330D01*
X245719Y47902D01*
X249080Y49295D01*
X252718Y49295D01*
X256079Y47902D01*
X258651Y45330D01*
X260043Y41969D01*
X260043Y23091D01*
X258651Y19730D01*
X256079Y17157D01*
X252718Y15765D01*
X249080Y15765D01*
G37*
%LPD*%
%LPC*%
G36*
X223680Y15765D02*
X223680Y15765D01*
X220319Y17157D01*
X217746Y19730D01*
X216354Y23091D01*
X216354Y41969D01*
X217746Y45330D01*
X220319Y47902D01*
X223680Y49295D01*
X227318Y49295D01*
X230679Y47902D01*
X233251Y45330D01*
X234643Y41969D01*
X234643Y23091D01*
X233251Y19730D01*
X230679Y17157D01*
X227318Y15765D01*
X223680Y15765D01*
G37*
%LPD*%
%LPC*%
G36*
X198280Y15765D02*
X198280Y15765D01*
X194919Y17157D01*
X192346Y19730D01*
X190954Y23091D01*
X190954Y41969D01*
X192346Y45330D01*
X194919Y47902D01*
X198280Y49295D01*
X201918Y49295D01*
X205279Y47902D01*
X207851Y45330D01*
X209243Y41969D01*
X209243Y23091D01*
X207851Y19730D01*
X205279Y17157D01*
X201918Y15765D01*
X198280Y15765D01*
G37*
%LPD*%
%LPC*%
G36*
X172880Y15765D02*
X172880Y15765D01*
X169519Y17157D01*
X166946Y19730D01*
X165554Y23091D01*
X165554Y41969D01*
X166946Y45330D01*
X169519Y47902D01*
X172880Y49295D01*
X176518Y49295D01*
X179879Y47902D01*
X182451Y45330D01*
X183843Y41969D01*
X183843Y23091D01*
X182451Y19730D01*
X179879Y17157D01*
X176518Y15765D01*
X172880Y15765D01*
G37*
%LPD*%
%LPC*%
G36*
X147480Y15765D02*
X147480Y15765D01*
X144119Y17157D01*
X141546Y19730D01*
X140154Y23091D01*
X140154Y41969D01*
X141546Y45330D01*
X144119Y47902D01*
X147480Y49295D01*
X151118Y49295D01*
X154479Y47902D01*
X157051Y45330D01*
X158443Y41969D01*
X158443Y23091D01*
X157051Y19730D01*
X154479Y17157D01*
X151118Y15765D01*
X147480Y15765D01*
G37*
%LPD*%
%LPC*%
G36*
X122080Y15765D02*
X122080Y15765D01*
X118719Y17157D01*
X116146Y19730D01*
X114754Y23091D01*
X114754Y41969D01*
X116146Y45330D01*
X118719Y47902D01*
X122080Y49295D01*
X125718Y49295D01*
X129079Y47902D01*
X131651Y45330D01*
X133043Y41969D01*
X133043Y23091D01*
X131651Y19730D01*
X129079Y17157D01*
X125718Y15765D01*
X122080Y15765D01*
G37*
%LPD*%
D10*
X377899Y289910D02*
X377899Y305150D01*
X352499Y305150D02*
X352499Y289910D01*
X327099Y289910D02*
X327099Y305150D01*
X301699Y305150D02*
X301699Y289910D01*
X276299Y289910D02*
X276299Y305150D01*
X250899Y305150D02*
X250899Y289910D01*
X225499Y289910D02*
X225499Y305150D01*
X200099Y305150D02*
X200099Y289910D01*
X174699Y289910D02*
X174699Y305150D01*
X149299Y305150D02*
X149299Y289910D01*
X123899Y289910D02*
X123899Y305150D01*
X98499Y305150D02*
X98499Y289910D01*
X73099Y289910D02*
X73099Y305150D01*
X377899Y40150D02*
X377899Y24910D01*
X352499Y24910D02*
X352499Y40150D01*
X327099Y40150D02*
X327099Y24910D01*
X301699Y24910D02*
X301699Y40150D01*
X276299Y40150D02*
X276299Y24910D01*
X250899Y24910D02*
X250899Y40150D01*
X225499Y40150D02*
X225499Y24910D01*
X200099Y24910D02*
X200099Y40150D01*
X174699Y40150D02*
X174699Y24910D01*
X149299Y24910D02*
X149299Y40150D01*
X123899Y40150D02*
X123899Y24910D01*
X98499Y24910D02*
X98499Y40150D01*
X73099Y40150D02*
X73099Y24910D01*
D11*
X209937Y154994D03*
X177974Y154848D03*
X208316Y185198D03*
X177573Y185374D03*
X208724Y175081D03*
X177179Y174936D03*
X235128Y130406D03*
X235759Y118034D03*
X276398Y207665D03*
X276903Y196556D03*
X263306Y253835D03*
D12*
X116794Y253835D01*
X73099Y297530D01*
M02*
