G04 EAGLE Gerber RS-274X export*
G75*
%MOMM*%
%FSLAX34Y34*%
%LPD*%
%IN*%
%IPPOS*%
%AMOC8*
5,1,8,0,0,1.08239X$1,22.5*%
G01*
%ADD10C,0.254000*%


D10*
X0Y0D02*
X409000Y0D01*
X409000Y330000D01*
X0Y330000D01*
X0Y245000D01*
X100000Y245000D01*
X100000Y85000D01*
X0Y85000D01*
X0Y0D01*
X35554Y302094D02*
X35554Y302968D01*
X35478Y303838D01*
X35326Y304697D01*
X35100Y305541D01*
X34802Y306361D01*
X34433Y307153D01*
X33996Y307909D01*
X33495Y308624D01*
X32934Y309293D01*
X32316Y309911D01*
X31647Y310472D01*
X30932Y310973D01*
X30176Y311410D01*
X29384Y311779D01*
X28564Y312077D01*
X27720Y312303D01*
X26861Y312455D01*
X25991Y312531D01*
X25117Y312531D01*
X24248Y312455D01*
X23388Y312303D01*
X22544Y312077D01*
X21724Y311779D01*
X20932Y311410D01*
X20176Y310973D01*
X19461Y310472D01*
X18792Y309911D01*
X18174Y309293D01*
X17613Y308624D01*
X17112Y307909D01*
X16675Y307153D01*
X16306Y306361D01*
X16008Y305541D01*
X15782Y304697D01*
X15630Y303838D01*
X15554Y302968D01*
X15554Y302094D01*
X15630Y301225D01*
X15782Y300365D01*
X16008Y299521D01*
X16306Y298701D01*
X16675Y297909D01*
X17112Y297153D01*
X17613Y296438D01*
X18174Y295769D01*
X18792Y295151D01*
X19461Y294590D01*
X20176Y294089D01*
X20932Y293652D01*
X21724Y293283D01*
X22544Y292985D01*
X23388Y292759D01*
X24248Y292607D01*
X25117Y292531D01*
X25991Y292531D01*
X26861Y292607D01*
X27720Y292759D01*
X28564Y292985D01*
X29384Y293283D01*
X30176Y293652D01*
X30932Y294089D01*
X31647Y294590D01*
X32316Y295151D01*
X32934Y295769D01*
X33495Y296438D01*
X33996Y297153D01*
X34433Y297909D01*
X34802Y298701D01*
X35100Y299521D01*
X35326Y300365D01*
X35478Y301225D01*
X35554Y302094D01*
X35554Y27094D02*
X35554Y27968D01*
X35478Y28838D01*
X35326Y29697D01*
X35100Y30541D01*
X34802Y31361D01*
X34433Y32153D01*
X33996Y32909D01*
X33495Y33624D01*
X32934Y34293D01*
X32316Y34911D01*
X31647Y35472D01*
X30932Y35973D01*
X30176Y36410D01*
X29384Y36779D01*
X28564Y37077D01*
X27720Y37303D01*
X26861Y37455D01*
X25991Y37531D01*
X25117Y37531D01*
X24248Y37455D01*
X23388Y37303D01*
X22544Y37077D01*
X21724Y36779D01*
X20932Y36410D01*
X20176Y35973D01*
X19461Y35472D01*
X18792Y34911D01*
X18174Y34293D01*
X17613Y33624D01*
X17112Y32909D01*
X16675Y32153D01*
X16306Y31361D01*
X16008Y30541D01*
X15782Y29697D01*
X15630Y28838D01*
X15554Y27968D01*
X15554Y27094D01*
X15630Y26225D01*
X15782Y25365D01*
X16008Y24521D01*
X16306Y23701D01*
X16675Y22909D01*
X17112Y22153D01*
X17613Y21438D01*
X18174Y20769D01*
X18792Y20151D01*
X19461Y19590D01*
X20176Y19089D01*
X20932Y18652D01*
X21724Y18283D01*
X22544Y17985D01*
X23388Y17759D01*
X24248Y17607D01*
X25117Y17531D01*
X25991Y17531D01*
X26861Y17607D01*
X27720Y17759D01*
X28564Y17985D01*
X29384Y18283D01*
X30176Y18652D01*
X30932Y19089D01*
X31647Y19590D01*
X32316Y20151D01*
X32934Y20769D01*
X33495Y21438D01*
X33996Y22153D01*
X34433Y22909D01*
X34802Y23701D01*
X35100Y24521D01*
X35326Y25365D01*
X35478Y26225D01*
X35554Y27094D01*
M02*
