G04 EAGLE Gerber RS-274X export*
G75*
%MOMM*%
%FSLAX34Y34*%
%LPD*%
%INSilkscreen Top*%
%IPPOS*%
%AMOC8*
5,1,8,0,0,1.08239X$1,22.5*%
G01*
%ADD10C,0.100000*%
%ADD11C,0.100000*%
%ADD12C,0.101600*%
%ADD13C,0.150000*%
%ADD14C,0.500000*%
%ADD15C,0.076200*%


D10*
X205317Y145037D03*
D11*
X205319Y144993D01*
X205325Y144950D01*
X205334Y144908D01*
X205347Y144866D01*
X205364Y144826D01*
X205384Y144787D01*
X205407Y144750D01*
X205434Y144716D01*
X205463Y144683D01*
X205496Y144654D01*
X205530Y144627D01*
X205567Y144604D01*
X205606Y144584D01*
X205646Y144567D01*
X205688Y144554D01*
X205730Y144545D01*
X205773Y144539D01*
X205817Y144537D01*
X205861Y144539D01*
X205904Y144545D01*
X205946Y144554D01*
X205988Y144567D01*
X206028Y144584D01*
X206067Y144604D01*
X206104Y144627D01*
X206138Y144654D01*
X206171Y144683D01*
X206200Y144716D01*
X206227Y144750D01*
X206250Y144787D01*
X206270Y144826D01*
X206287Y144866D01*
X206300Y144908D01*
X206309Y144950D01*
X206315Y144993D01*
X206317Y145037D01*
D10*
X206317Y145037D03*
D11*
X206315Y145081D01*
X206309Y145124D01*
X206300Y145166D01*
X206287Y145208D01*
X206270Y145248D01*
X206250Y145287D01*
X206227Y145324D01*
X206200Y145358D01*
X206171Y145391D01*
X206138Y145420D01*
X206104Y145447D01*
X206067Y145470D01*
X206028Y145490D01*
X205988Y145507D01*
X205946Y145520D01*
X205904Y145529D01*
X205861Y145535D01*
X205817Y145537D01*
X205773Y145535D01*
X205730Y145529D01*
X205688Y145520D01*
X205646Y145507D01*
X205606Y145490D01*
X205567Y145470D01*
X205530Y145447D01*
X205496Y145420D01*
X205463Y145391D01*
X205434Y145358D01*
X205407Y145324D01*
X205384Y145287D01*
X205364Y145248D01*
X205347Y145208D01*
X205334Y145166D01*
X205325Y145124D01*
X205319Y145081D01*
X205317Y145037D01*
X186667Y128387D02*
X172817Y128387D01*
X186667Y128387D02*
X186667Y140037D01*
X186667Y190037D02*
X186667Y201687D01*
X172817Y201687D01*
X158967Y182537D02*
X158967Y147537D01*
D12*
X217033Y246526D02*
X228717Y246526D01*
X217033Y246526D02*
X217033Y249772D01*
X217035Y249885D01*
X217041Y249998D01*
X217051Y250111D01*
X217065Y250224D01*
X217082Y250336D01*
X217104Y250447D01*
X217129Y250557D01*
X217159Y250667D01*
X217192Y250775D01*
X217229Y250882D01*
X217269Y250988D01*
X217314Y251092D01*
X217362Y251195D01*
X217413Y251296D01*
X217468Y251395D01*
X217526Y251492D01*
X217588Y251587D01*
X217653Y251680D01*
X217721Y251770D01*
X217792Y251858D01*
X217867Y251944D01*
X217944Y252027D01*
X218024Y252107D01*
X218107Y252184D01*
X218193Y252259D01*
X218281Y252330D01*
X218371Y252398D01*
X218464Y252463D01*
X218559Y252525D01*
X218656Y252583D01*
X218755Y252638D01*
X218856Y252689D01*
X218959Y252737D01*
X219063Y252782D01*
X219169Y252822D01*
X219276Y252859D01*
X219384Y252892D01*
X219494Y252922D01*
X219604Y252947D01*
X219715Y252969D01*
X219827Y252986D01*
X219940Y253000D01*
X220053Y253010D01*
X220166Y253016D01*
X220279Y253018D01*
X220392Y253016D01*
X220505Y253010D01*
X220618Y253000D01*
X220731Y252986D01*
X220843Y252969D01*
X220954Y252947D01*
X221064Y252922D01*
X221174Y252892D01*
X221282Y252859D01*
X221389Y252822D01*
X221495Y252782D01*
X221599Y252737D01*
X221702Y252689D01*
X221803Y252638D01*
X221902Y252583D01*
X221999Y252525D01*
X222094Y252463D01*
X222187Y252398D01*
X222277Y252330D01*
X222365Y252259D01*
X222451Y252184D01*
X222534Y252107D01*
X222614Y252027D01*
X222691Y251944D01*
X222766Y251858D01*
X222837Y251770D01*
X222905Y251680D01*
X222970Y251587D01*
X223032Y251492D01*
X223090Y251395D01*
X223145Y251296D01*
X223196Y251195D01*
X223244Y251092D01*
X223289Y250988D01*
X223329Y250882D01*
X223366Y250775D01*
X223399Y250667D01*
X223429Y250557D01*
X223454Y250447D01*
X223476Y250336D01*
X223493Y250224D01*
X223507Y250111D01*
X223517Y249998D01*
X223523Y249885D01*
X223525Y249772D01*
X223525Y246526D01*
X223525Y250421D02*
X228717Y253018D01*
X219630Y257883D02*
X217033Y261128D01*
X228717Y261128D01*
X228717Y257883D02*
X228717Y264374D01*
X272880Y267278D02*
X272880Y278962D01*
X276125Y278962D01*
X276125Y278963D02*
X276238Y278961D01*
X276351Y278955D01*
X276464Y278945D01*
X276577Y278931D01*
X276689Y278914D01*
X276800Y278892D01*
X276910Y278867D01*
X277020Y278837D01*
X277128Y278804D01*
X277235Y278767D01*
X277341Y278727D01*
X277445Y278682D01*
X277548Y278634D01*
X277649Y278583D01*
X277748Y278528D01*
X277845Y278470D01*
X277940Y278408D01*
X278033Y278343D01*
X278123Y278275D01*
X278211Y278204D01*
X278297Y278129D01*
X278380Y278052D01*
X278460Y277972D01*
X278537Y277889D01*
X278612Y277803D01*
X278683Y277715D01*
X278751Y277625D01*
X278816Y277532D01*
X278878Y277437D01*
X278936Y277340D01*
X278991Y277241D01*
X279042Y277140D01*
X279090Y277037D01*
X279135Y276933D01*
X279175Y276827D01*
X279212Y276720D01*
X279245Y276612D01*
X279275Y276502D01*
X279300Y276392D01*
X279322Y276281D01*
X279339Y276169D01*
X279353Y276056D01*
X279363Y275943D01*
X279369Y275830D01*
X279371Y275717D01*
X279369Y275604D01*
X279363Y275491D01*
X279353Y275378D01*
X279339Y275265D01*
X279322Y275153D01*
X279300Y275042D01*
X279275Y274932D01*
X279245Y274822D01*
X279212Y274714D01*
X279175Y274607D01*
X279135Y274501D01*
X279090Y274397D01*
X279042Y274294D01*
X278991Y274193D01*
X278936Y274094D01*
X278878Y273997D01*
X278816Y273902D01*
X278751Y273809D01*
X278683Y273719D01*
X278612Y273631D01*
X278537Y273545D01*
X278460Y273462D01*
X278380Y273382D01*
X278297Y273305D01*
X278211Y273230D01*
X278123Y273159D01*
X278033Y273091D01*
X277940Y273026D01*
X277845Y272964D01*
X277748Y272906D01*
X277649Y272851D01*
X277548Y272800D01*
X277445Y272752D01*
X277341Y272707D01*
X277235Y272667D01*
X277128Y272630D01*
X277020Y272597D01*
X276910Y272567D01*
X276800Y272542D01*
X276689Y272520D01*
X276577Y272503D01*
X276464Y272489D01*
X276351Y272479D01*
X276238Y272473D01*
X276125Y272471D01*
X272880Y272471D01*
X276775Y272471D02*
X279371Y267278D01*
X290727Y276041D02*
X290725Y276148D01*
X290719Y276254D01*
X290709Y276360D01*
X290696Y276466D01*
X290678Y276572D01*
X290657Y276676D01*
X290632Y276780D01*
X290603Y276883D01*
X290571Y276984D01*
X290534Y277084D01*
X290494Y277183D01*
X290451Y277281D01*
X290404Y277377D01*
X290353Y277471D01*
X290299Y277563D01*
X290242Y277653D01*
X290182Y277741D01*
X290118Y277826D01*
X290051Y277909D01*
X289981Y277990D01*
X289909Y278068D01*
X289833Y278144D01*
X289755Y278216D01*
X289674Y278286D01*
X289591Y278353D01*
X289506Y278417D01*
X289418Y278477D01*
X289328Y278534D01*
X289236Y278588D01*
X289142Y278639D01*
X289046Y278686D01*
X288948Y278729D01*
X288849Y278769D01*
X288749Y278806D01*
X288648Y278838D01*
X288545Y278867D01*
X288441Y278892D01*
X288337Y278913D01*
X288231Y278931D01*
X288125Y278944D01*
X288019Y278954D01*
X287913Y278960D01*
X287806Y278962D01*
X287685Y278960D01*
X287564Y278954D01*
X287444Y278944D01*
X287323Y278931D01*
X287204Y278913D01*
X287084Y278892D01*
X286966Y278867D01*
X286849Y278838D01*
X286732Y278805D01*
X286617Y278769D01*
X286503Y278728D01*
X286390Y278685D01*
X286278Y278637D01*
X286169Y278586D01*
X286061Y278531D01*
X285954Y278473D01*
X285850Y278412D01*
X285748Y278347D01*
X285648Y278279D01*
X285550Y278208D01*
X285454Y278134D01*
X285361Y278057D01*
X285271Y277976D01*
X285183Y277893D01*
X285098Y277807D01*
X285015Y277718D01*
X284936Y277627D01*
X284859Y277533D01*
X284786Y277437D01*
X284716Y277339D01*
X284649Y277238D01*
X284585Y277135D01*
X284525Y277030D01*
X284468Y276923D01*
X284414Y276815D01*
X284364Y276705D01*
X284318Y276593D01*
X284275Y276480D01*
X284236Y276365D01*
X289754Y273769D02*
X289833Y273846D01*
X289909Y273927D01*
X289982Y274010D01*
X290052Y274095D01*
X290119Y274183D01*
X290183Y274273D01*
X290243Y274365D01*
X290300Y274460D01*
X290354Y274556D01*
X290405Y274654D01*
X290452Y274754D01*
X290496Y274856D01*
X290536Y274959D01*
X290572Y275063D01*
X290604Y275169D01*
X290633Y275275D01*
X290658Y275383D01*
X290680Y275491D01*
X290697Y275601D01*
X290711Y275710D01*
X290720Y275820D01*
X290726Y275931D01*
X290728Y276041D01*
X289754Y273769D02*
X284236Y267278D01*
X290727Y267278D01*
X276052Y153676D02*
X276052Y141992D01*
X276052Y153676D02*
X279297Y153676D01*
X279410Y153674D01*
X279523Y153668D01*
X279636Y153658D01*
X279749Y153644D01*
X279861Y153627D01*
X279972Y153605D01*
X280082Y153580D01*
X280192Y153550D01*
X280300Y153517D01*
X280407Y153480D01*
X280513Y153440D01*
X280617Y153395D01*
X280720Y153347D01*
X280821Y153296D01*
X280920Y153241D01*
X281017Y153183D01*
X281112Y153121D01*
X281205Y153056D01*
X281295Y152988D01*
X281383Y152917D01*
X281469Y152842D01*
X281552Y152765D01*
X281632Y152685D01*
X281709Y152602D01*
X281784Y152516D01*
X281855Y152428D01*
X281923Y152338D01*
X281988Y152245D01*
X282050Y152150D01*
X282108Y152053D01*
X282163Y151954D01*
X282214Y151853D01*
X282262Y151750D01*
X282307Y151646D01*
X282347Y151540D01*
X282384Y151433D01*
X282417Y151325D01*
X282447Y151215D01*
X282472Y151105D01*
X282494Y150994D01*
X282511Y150882D01*
X282525Y150769D01*
X282535Y150656D01*
X282541Y150543D01*
X282543Y150430D01*
X282541Y150317D01*
X282535Y150204D01*
X282525Y150091D01*
X282511Y149978D01*
X282494Y149866D01*
X282472Y149755D01*
X282447Y149645D01*
X282417Y149535D01*
X282384Y149427D01*
X282347Y149320D01*
X282307Y149214D01*
X282262Y149110D01*
X282214Y149007D01*
X282163Y148906D01*
X282108Y148807D01*
X282050Y148710D01*
X281988Y148615D01*
X281923Y148522D01*
X281855Y148432D01*
X281784Y148344D01*
X281709Y148258D01*
X281632Y148175D01*
X281552Y148095D01*
X281469Y148018D01*
X281383Y147943D01*
X281295Y147872D01*
X281205Y147804D01*
X281112Y147739D01*
X281017Y147677D01*
X280920Y147619D01*
X280821Y147564D01*
X280720Y147513D01*
X280617Y147465D01*
X280513Y147420D01*
X280407Y147380D01*
X280300Y147343D01*
X280192Y147310D01*
X280082Y147280D01*
X279972Y147255D01*
X279861Y147233D01*
X279749Y147216D01*
X279636Y147202D01*
X279523Y147192D01*
X279410Y147186D01*
X279297Y147184D01*
X276052Y147184D01*
X279946Y147184D02*
X282543Y141992D01*
X287408Y151079D02*
X290654Y153676D01*
X290654Y141992D01*
X293899Y141992D02*
X287408Y141992D01*
X298838Y141992D02*
X302733Y141992D01*
X302832Y141994D01*
X302932Y142000D01*
X303031Y142009D01*
X303129Y142022D01*
X303227Y142039D01*
X303325Y142060D01*
X303421Y142085D01*
X303516Y142113D01*
X303610Y142145D01*
X303703Y142180D01*
X303795Y142219D01*
X303885Y142262D01*
X303973Y142307D01*
X304060Y142357D01*
X304144Y142409D01*
X304227Y142465D01*
X304307Y142523D01*
X304385Y142585D01*
X304460Y142650D01*
X304533Y142718D01*
X304603Y142788D01*
X304671Y142861D01*
X304736Y142936D01*
X304798Y143014D01*
X304856Y143094D01*
X304912Y143177D01*
X304964Y143261D01*
X305014Y143348D01*
X305059Y143436D01*
X305102Y143526D01*
X305141Y143618D01*
X305176Y143711D01*
X305208Y143805D01*
X305236Y143900D01*
X305261Y143996D01*
X305282Y144094D01*
X305299Y144192D01*
X305312Y144290D01*
X305321Y144389D01*
X305327Y144489D01*
X305329Y144588D01*
X305329Y145886D01*
X305327Y145985D01*
X305321Y146085D01*
X305312Y146184D01*
X305299Y146282D01*
X305282Y146380D01*
X305261Y146478D01*
X305236Y146574D01*
X305208Y146669D01*
X305176Y146763D01*
X305141Y146856D01*
X305102Y146948D01*
X305059Y147038D01*
X305014Y147126D01*
X304964Y147213D01*
X304912Y147297D01*
X304856Y147380D01*
X304798Y147460D01*
X304736Y147538D01*
X304671Y147613D01*
X304603Y147686D01*
X304533Y147756D01*
X304460Y147824D01*
X304385Y147889D01*
X304307Y147951D01*
X304227Y148009D01*
X304144Y148065D01*
X304060Y148117D01*
X303973Y148167D01*
X303885Y148212D01*
X303795Y148255D01*
X303703Y148294D01*
X303610Y148329D01*
X303516Y148361D01*
X303421Y148389D01*
X303325Y148414D01*
X303227Y148435D01*
X303129Y148452D01*
X303031Y148465D01*
X302932Y148474D01*
X302832Y148480D01*
X302733Y148482D01*
X302733Y148483D02*
X298838Y148483D01*
X298838Y153676D01*
X305329Y153676D01*
D13*
X256156Y133238D02*
X254656Y133238D01*
X254656Y119738D02*
X256156Y119738D01*
D14*
X276156Y130238D03*
D15*
X245064Y115114D02*
X245064Y105876D01*
X249170Y105876D01*
X252864Y105876D02*
X256970Y105876D01*
X252864Y105876D02*
X252864Y115114D01*
X256970Y115114D01*
X255943Y111008D02*
X252864Y111008D01*
X260647Y115114D02*
X260647Y105876D01*
X260647Y115114D02*
X263213Y115114D01*
X263311Y115112D01*
X263409Y115106D01*
X263507Y115097D01*
X263605Y115084D01*
X263702Y115067D01*
X263798Y115047D01*
X263893Y115022D01*
X263987Y114994D01*
X264080Y114963D01*
X264172Y114928D01*
X264263Y114889D01*
X264352Y114848D01*
X264439Y114802D01*
X264524Y114754D01*
X264608Y114702D01*
X264689Y114647D01*
X264769Y114589D01*
X264846Y114528D01*
X264920Y114464D01*
X264992Y114397D01*
X265062Y114327D01*
X265129Y114255D01*
X265193Y114181D01*
X265254Y114104D01*
X265312Y114024D01*
X265367Y113943D01*
X265419Y113859D01*
X265467Y113774D01*
X265513Y113687D01*
X265554Y113598D01*
X265593Y113507D01*
X265628Y113415D01*
X265659Y113322D01*
X265687Y113228D01*
X265712Y113133D01*
X265732Y113037D01*
X265749Y112940D01*
X265762Y112842D01*
X265771Y112744D01*
X265777Y112646D01*
X265779Y112548D01*
X265779Y108442D01*
X265777Y108344D01*
X265771Y108246D01*
X265762Y108148D01*
X265749Y108050D01*
X265732Y107953D01*
X265712Y107857D01*
X265687Y107762D01*
X265659Y107668D01*
X265628Y107575D01*
X265593Y107483D01*
X265554Y107392D01*
X265513Y107303D01*
X265467Y107216D01*
X265419Y107131D01*
X265367Y107047D01*
X265312Y106966D01*
X265254Y106886D01*
X265193Y106809D01*
X265129Y106735D01*
X265062Y106663D01*
X264992Y106593D01*
X264920Y106526D01*
X264846Y106462D01*
X264769Y106401D01*
X264689Y106343D01*
X264608Y106288D01*
X264524Y106236D01*
X264439Y106188D01*
X264352Y106142D01*
X264263Y106101D01*
X264172Y106062D01*
X264080Y106027D01*
X263987Y105996D01*
X263893Y105968D01*
X263798Y105943D01*
X263702Y105923D01*
X263605Y105906D01*
X263507Y105893D01*
X263409Y105884D01*
X263311Y105878D01*
X263213Y105876D01*
X260647Y105876D01*
X269560Y104850D02*
X273666Y104850D01*
X276633Y105876D02*
X279713Y115114D01*
X282792Y105876D01*
X282022Y108186D02*
X277403Y108186D01*
X286577Y105876D02*
X286577Y115114D01*
X289143Y115114D01*
X289242Y115112D01*
X289342Y115106D01*
X289441Y115097D01*
X289539Y115083D01*
X289637Y115066D01*
X289735Y115045D01*
X289831Y115020D01*
X289926Y114991D01*
X290021Y114959D01*
X290113Y114923D01*
X290205Y114884D01*
X290295Y114841D01*
X290383Y114795D01*
X290469Y114745D01*
X290553Y114692D01*
X290635Y114636D01*
X290715Y114576D01*
X290792Y114514D01*
X290867Y114448D01*
X290940Y114380D01*
X291009Y114309D01*
X291076Y114235D01*
X291140Y114159D01*
X291201Y114080D01*
X291259Y113999D01*
X291314Y113916D01*
X291365Y113831D01*
X291413Y113744D01*
X291458Y113655D01*
X291499Y113564D01*
X291537Y113472D01*
X291571Y113379D01*
X291601Y113284D01*
X291628Y113188D01*
X291651Y113091D01*
X291670Y112994D01*
X291685Y112895D01*
X291697Y112796D01*
X291705Y112697D01*
X291709Y112598D01*
X291709Y112498D01*
X291705Y112399D01*
X291697Y112300D01*
X291685Y112201D01*
X291670Y112102D01*
X291651Y112005D01*
X291628Y111908D01*
X291601Y111812D01*
X291571Y111717D01*
X291537Y111624D01*
X291499Y111532D01*
X291458Y111441D01*
X291413Y111352D01*
X291365Y111265D01*
X291314Y111180D01*
X291259Y111097D01*
X291201Y111016D01*
X291140Y110937D01*
X291076Y110861D01*
X291009Y110787D01*
X290940Y110716D01*
X290867Y110648D01*
X290792Y110582D01*
X290715Y110520D01*
X290635Y110460D01*
X290553Y110404D01*
X290469Y110351D01*
X290383Y110301D01*
X290295Y110255D01*
X290205Y110212D01*
X290113Y110173D01*
X290021Y110137D01*
X289926Y110105D01*
X289831Y110076D01*
X289735Y110051D01*
X289637Y110030D01*
X289539Y110013D01*
X289441Y109999D01*
X289342Y109990D01*
X289242Y109984D01*
X289143Y109982D01*
X286577Y109982D01*
X295447Y108442D02*
X295447Y115114D01*
X295447Y108442D02*
X295449Y108343D01*
X295455Y108243D01*
X295464Y108144D01*
X295478Y108046D01*
X295495Y107948D01*
X295516Y107850D01*
X295541Y107754D01*
X295570Y107659D01*
X295602Y107564D01*
X295638Y107472D01*
X295677Y107380D01*
X295720Y107290D01*
X295766Y107202D01*
X295816Y107116D01*
X295869Y107032D01*
X295925Y106950D01*
X295985Y106870D01*
X296047Y106793D01*
X296113Y106718D01*
X296181Y106645D01*
X296252Y106576D01*
X296326Y106509D01*
X296402Y106445D01*
X296481Y106384D01*
X296562Y106326D01*
X296645Y106271D01*
X296730Y106220D01*
X296817Y106172D01*
X296906Y106127D01*
X296997Y106086D01*
X297089Y106048D01*
X297182Y106014D01*
X297277Y105984D01*
X297373Y105957D01*
X297470Y105934D01*
X297567Y105915D01*
X297666Y105900D01*
X297765Y105888D01*
X297864Y105880D01*
X297963Y105876D01*
X298063Y105876D01*
X298162Y105880D01*
X298261Y105888D01*
X298360Y105900D01*
X298459Y105915D01*
X298556Y105934D01*
X298653Y105957D01*
X298749Y105984D01*
X298844Y106014D01*
X298937Y106048D01*
X299029Y106086D01*
X299120Y106127D01*
X299209Y106172D01*
X299296Y106220D01*
X299381Y106271D01*
X299464Y106326D01*
X299545Y106384D01*
X299624Y106445D01*
X299700Y106509D01*
X299774Y106576D01*
X299845Y106645D01*
X299913Y106718D01*
X299979Y106793D01*
X300041Y106870D01*
X300101Y106950D01*
X300157Y107032D01*
X300210Y107116D01*
X300260Y107202D01*
X300306Y107290D01*
X300349Y107380D01*
X300388Y107472D01*
X300424Y107564D01*
X300456Y107659D01*
X300485Y107754D01*
X300510Y107850D01*
X300531Y107948D01*
X300548Y108046D01*
X300562Y108144D01*
X300571Y108243D01*
X300577Y108343D01*
X300579Y108442D01*
X300579Y115114D01*
X304360Y104850D02*
X308466Y104850D01*
X312303Y105876D02*
X312303Y115114D01*
X314869Y115114D01*
X314968Y115112D01*
X315068Y115106D01*
X315167Y115097D01*
X315265Y115083D01*
X315363Y115066D01*
X315461Y115045D01*
X315557Y115020D01*
X315652Y114991D01*
X315747Y114959D01*
X315839Y114923D01*
X315931Y114884D01*
X316021Y114841D01*
X316109Y114795D01*
X316195Y114745D01*
X316279Y114692D01*
X316361Y114636D01*
X316441Y114576D01*
X316518Y114514D01*
X316593Y114448D01*
X316666Y114380D01*
X316735Y114309D01*
X316802Y114235D01*
X316866Y114159D01*
X316927Y114080D01*
X316985Y113999D01*
X317040Y113916D01*
X317091Y113831D01*
X317139Y113744D01*
X317184Y113655D01*
X317225Y113564D01*
X317263Y113472D01*
X317297Y113379D01*
X317327Y113284D01*
X317354Y113188D01*
X317377Y113091D01*
X317396Y112994D01*
X317411Y112895D01*
X317423Y112796D01*
X317431Y112697D01*
X317435Y112598D01*
X317435Y112498D01*
X317431Y112399D01*
X317423Y112300D01*
X317411Y112201D01*
X317396Y112102D01*
X317377Y112005D01*
X317354Y111908D01*
X317327Y111812D01*
X317297Y111717D01*
X317263Y111624D01*
X317225Y111532D01*
X317184Y111441D01*
X317139Y111352D01*
X317091Y111265D01*
X317040Y111180D01*
X316985Y111097D01*
X316927Y111016D01*
X316866Y110937D01*
X316802Y110861D01*
X316735Y110787D01*
X316666Y110716D01*
X316593Y110648D01*
X316518Y110582D01*
X316441Y110520D01*
X316361Y110460D01*
X316279Y110404D01*
X316195Y110351D01*
X316109Y110301D01*
X316021Y110255D01*
X315931Y110212D01*
X315839Y110173D01*
X315747Y110137D01*
X315652Y110105D01*
X315557Y110076D01*
X315461Y110051D01*
X315363Y110030D01*
X315265Y110013D01*
X315167Y109999D01*
X315068Y109990D01*
X314968Y109984D01*
X314869Y109982D01*
X312303Y109982D01*
X315383Y109982D02*
X317435Y105876D01*
X321564Y105876D02*
X325670Y105876D01*
X321564Y105876D02*
X321564Y115114D01*
X325670Y115114D01*
X324643Y111008D02*
X321564Y111008D01*
X329347Y115114D02*
X329347Y105876D01*
X329347Y115114D02*
X331913Y115114D01*
X332011Y115112D01*
X332109Y115106D01*
X332207Y115097D01*
X332305Y115084D01*
X332402Y115067D01*
X332498Y115047D01*
X332593Y115022D01*
X332687Y114994D01*
X332780Y114963D01*
X332872Y114928D01*
X332963Y114889D01*
X333052Y114848D01*
X333139Y114802D01*
X333224Y114754D01*
X333308Y114702D01*
X333389Y114647D01*
X333469Y114589D01*
X333546Y114528D01*
X333620Y114464D01*
X333692Y114397D01*
X333762Y114327D01*
X333829Y114255D01*
X333893Y114181D01*
X333954Y114104D01*
X334012Y114024D01*
X334067Y113943D01*
X334119Y113859D01*
X334167Y113774D01*
X334213Y113687D01*
X334254Y113598D01*
X334293Y113507D01*
X334328Y113415D01*
X334359Y113322D01*
X334387Y113228D01*
X334412Y113133D01*
X334432Y113037D01*
X334449Y112940D01*
X334462Y112842D01*
X334471Y112744D01*
X334477Y112646D01*
X334479Y112548D01*
X334479Y108442D01*
X334477Y108344D01*
X334471Y108246D01*
X334462Y108148D01*
X334449Y108050D01*
X334432Y107953D01*
X334412Y107857D01*
X334387Y107762D01*
X334359Y107668D01*
X334328Y107575D01*
X334293Y107483D01*
X334254Y107392D01*
X334213Y107303D01*
X334167Y107216D01*
X334119Y107131D01*
X334067Y107047D01*
X334012Y106966D01*
X333954Y106886D01*
X333893Y106809D01*
X333829Y106735D01*
X333762Y106663D01*
X333692Y106593D01*
X333620Y106526D01*
X333546Y106462D01*
X333469Y106401D01*
X333389Y106343D01*
X333308Y106288D01*
X333224Y106236D01*
X333139Y106188D01*
X333052Y106142D01*
X332963Y106101D01*
X332872Y106062D01*
X332780Y106027D01*
X332687Y105996D01*
X332593Y105968D01*
X332498Y105943D01*
X332402Y105923D01*
X332305Y105906D01*
X332207Y105893D01*
X332109Y105884D01*
X332011Y105878D01*
X331913Y105876D01*
X329347Y105876D01*
D12*
X273295Y217813D02*
X273295Y229497D01*
X276540Y229497D01*
X276540Y229498D02*
X276653Y229496D01*
X276766Y229490D01*
X276879Y229480D01*
X276992Y229466D01*
X277104Y229449D01*
X277215Y229427D01*
X277325Y229402D01*
X277435Y229372D01*
X277543Y229339D01*
X277650Y229302D01*
X277756Y229262D01*
X277860Y229217D01*
X277963Y229169D01*
X278064Y229118D01*
X278163Y229063D01*
X278260Y229005D01*
X278355Y228943D01*
X278448Y228878D01*
X278538Y228810D01*
X278626Y228739D01*
X278712Y228664D01*
X278795Y228587D01*
X278875Y228507D01*
X278952Y228424D01*
X279027Y228338D01*
X279098Y228250D01*
X279166Y228160D01*
X279231Y228067D01*
X279293Y227972D01*
X279351Y227875D01*
X279406Y227776D01*
X279457Y227675D01*
X279505Y227572D01*
X279550Y227468D01*
X279590Y227362D01*
X279627Y227255D01*
X279660Y227147D01*
X279690Y227037D01*
X279715Y226927D01*
X279737Y226816D01*
X279754Y226704D01*
X279768Y226591D01*
X279778Y226478D01*
X279784Y226365D01*
X279786Y226252D01*
X279784Y226139D01*
X279778Y226026D01*
X279768Y225913D01*
X279754Y225800D01*
X279737Y225688D01*
X279715Y225577D01*
X279690Y225467D01*
X279660Y225357D01*
X279627Y225249D01*
X279590Y225142D01*
X279550Y225036D01*
X279505Y224932D01*
X279457Y224829D01*
X279406Y224728D01*
X279351Y224629D01*
X279293Y224532D01*
X279231Y224437D01*
X279166Y224344D01*
X279098Y224254D01*
X279027Y224166D01*
X278952Y224080D01*
X278875Y223997D01*
X278795Y223917D01*
X278712Y223840D01*
X278626Y223765D01*
X278538Y223694D01*
X278448Y223626D01*
X278355Y223561D01*
X278260Y223499D01*
X278163Y223441D01*
X278064Y223386D01*
X277963Y223335D01*
X277860Y223287D01*
X277756Y223242D01*
X277650Y223202D01*
X277543Y223165D01*
X277435Y223132D01*
X277325Y223102D01*
X277215Y223077D01*
X277104Y223055D01*
X276992Y223038D01*
X276879Y223024D01*
X276766Y223014D01*
X276653Y223008D01*
X276540Y223006D01*
X273295Y223006D01*
X277189Y223006D02*
X279786Y217813D01*
X284651Y217813D02*
X287896Y217813D01*
X288009Y217815D01*
X288122Y217821D01*
X288235Y217831D01*
X288348Y217845D01*
X288460Y217862D01*
X288571Y217884D01*
X288681Y217909D01*
X288791Y217939D01*
X288899Y217972D01*
X289006Y218009D01*
X289112Y218049D01*
X289216Y218094D01*
X289319Y218142D01*
X289420Y218193D01*
X289519Y218248D01*
X289616Y218306D01*
X289711Y218368D01*
X289804Y218433D01*
X289894Y218501D01*
X289982Y218572D01*
X290068Y218647D01*
X290151Y218724D01*
X290231Y218804D01*
X290308Y218887D01*
X290383Y218973D01*
X290454Y219061D01*
X290522Y219151D01*
X290587Y219244D01*
X290649Y219339D01*
X290707Y219436D01*
X290762Y219535D01*
X290813Y219636D01*
X290861Y219739D01*
X290906Y219843D01*
X290946Y219949D01*
X290983Y220056D01*
X291016Y220164D01*
X291046Y220274D01*
X291071Y220384D01*
X291093Y220495D01*
X291110Y220607D01*
X291124Y220720D01*
X291134Y220833D01*
X291140Y220946D01*
X291142Y221059D01*
X291140Y221172D01*
X291134Y221285D01*
X291124Y221398D01*
X291110Y221511D01*
X291093Y221623D01*
X291071Y221734D01*
X291046Y221844D01*
X291016Y221954D01*
X290983Y222062D01*
X290946Y222169D01*
X290906Y222275D01*
X290861Y222379D01*
X290813Y222482D01*
X290762Y222583D01*
X290707Y222682D01*
X290649Y222779D01*
X290587Y222874D01*
X290522Y222967D01*
X290454Y223057D01*
X290383Y223145D01*
X290308Y223231D01*
X290231Y223314D01*
X290151Y223394D01*
X290068Y223471D01*
X289982Y223546D01*
X289894Y223617D01*
X289804Y223685D01*
X289711Y223750D01*
X289616Y223812D01*
X289519Y223870D01*
X289420Y223925D01*
X289319Y223976D01*
X289216Y224024D01*
X289112Y224069D01*
X289006Y224109D01*
X288899Y224146D01*
X288791Y224179D01*
X288681Y224209D01*
X288571Y224234D01*
X288460Y224256D01*
X288348Y224273D01*
X288235Y224287D01*
X288122Y224297D01*
X288009Y224303D01*
X287896Y224305D01*
X288546Y229497D02*
X284651Y229497D01*
X288546Y229497D02*
X288647Y229495D01*
X288747Y229489D01*
X288847Y229479D01*
X288947Y229466D01*
X289046Y229448D01*
X289145Y229427D01*
X289242Y229402D01*
X289339Y229373D01*
X289434Y229340D01*
X289528Y229304D01*
X289620Y229264D01*
X289711Y229221D01*
X289800Y229174D01*
X289887Y229124D01*
X289973Y229070D01*
X290056Y229013D01*
X290136Y228953D01*
X290215Y228890D01*
X290291Y228823D01*
X290364Y228754D01*
X290434Y228682D01*
X290502Y228608D01*
X290567Y228531D01*
X290628Y228451D01*
X290687Y228369D01*
X290742Y228285D01*
X290794Y228199D01*
X290843Y228111D01*
X290888Y228021D01*
X290930Y227929D01*
X290968Y227836D01*
X291002Y227741D01*
X291033Y227646D01*
X291060Y227549D01*
X291083Y227451D01*
X291103Y227352D01*
X291118Y227252D01*
X291130Y227152D01*
X291138Y227052D01*
X291142Y226951D01*
X291142Y226851D01*
X291138Y226750D01*
X291130Y226650D01*
X291118Y226550D01*
X291103Y226450D01*
X291083Y226351D01*
X291060Y226253D01*
X291033Y226156D01*
X291002Y226061D01*
X290968Y225966D01*
X290930Y225873D01*
X290888Y225781D01*
X290843Y225691D01*
X290794Y225603D01*
X290742Y225517D01*
X290687Y225433D01*
X290628Y225351D01*
X290567Y225271D01*
X290502Y225194D01*
X290434Y225120D01*
X290364Y225048D01*
X290291Y224979D01*
X290215Y224912D01*
X290136Y224849D01*
X290056Y224789D01*
X289973Y224732D01*
X289887Y224678D01*
X289800Y224628D01*
X289711Y224581D01*
X289620Y224538D01*
X289528Y224498D01*
X289434Y224462D01*
X289339Y224429D01*
X289242Y224400D01*
X289145Y224375D01*
X289046Y224354D01*
X288947Y224336D01*
X288847Y224323D01*
X288747Y224313D01*
X288647Y224307D01*
X288546Y224305D01*
X285949Y224305D01*
D13*
X269713Y194281D02*
X252713Y194281D01*
X252713Y212281D02*
X269713Y212281D01*
D14*
X278463Y202281D03*
D15*
X237262Y188613D02*
X237262Y179375D01*
X241368Y179375D01*
X245062Y179375D02*
X249168Y179375D01*
X245062Y179375D02*
X245062Y188613D01*
X249168Y188613D01*
X248141Y184507D02*
X245062Y184507D01*
X252844Y188613D02*
X252844Y179375D01*
X252844Y188613D02*
X255410Y188613D01*
X255508Y188611D01*
X255606Y188605D01*
X255704Y188596D01*
X255802Y188583D01*
X255899Y188566D01*
X255995Y188546D01*
X256090Y188521D01*
X256184Y188493D01*
X256277Y188462D01*
X256369Y188427D01*
X256460Y188388D01*
X256549Y188347D01*
X256636Y188301D01*
X256721Y188253D01*
X256805Y188201D01*
X256886Y188146D01*
X256966Y188088D01*
X257043Y188027D01*
X257117Y187963D01*
X257189Y187896D01*
X257259Y187826D01*
X257326Y187754D01*
X257390Y187680D01*
X257451Y187603D01*
X257509Y187523D01*
X257564Y187442D01*
X257616Y187358D01*
X257664Y187273D01*
X257710Y187186D01*
X257751Y187097D01*
X257790Y187006D01*
X257825Y186914D01*
X257856Y186821D01*
X257884Y186727D01*
X257909Y186632D01*
X257929Y186536D01*
X257946Y186439D01*
X257959Y186341D01*
X257968Y186243D01*
X257974Y186145D01*
X257976Y186047D01*
X257977Y186047D02*
X257977Y181941D01*
X257976Y181941D02*
X257974Y181843D01*
X257968Y181745D01*
X257959Y181647D01*
X257946Y181549D01*
X257929Y181452D01*
X257909Y181356D01*
X257884Y181261D01*
X257856Y181167D01*
X257825Y181074D01*
X257790Y180982D01*
X257751Y180891D01*
X257710Y180802D01*
X257664Y180715D01*
X257616Y180630D01*
X257564Y180546D01*
X257509Y180465D01*
X257451Y180385D01*
X257390Y180308D01*
X257326Y180234D01*
X257259Y180162D01*
X257189Y180092D01*
X257117Y180025D01*
X257043Y179961D01*
X256966Y179900D01*
X256886Y179842D01*
X256805Y179787D01*
X256721Y179735D01*
X256636Y179687D01*
X256549Y179641D01*
X256460Y179600D01*
X256369Y179561D01*
X256277Y179526D01*
X256184Y179495D01*
X256090Y179467D01*
X255995Y179442D01*
X255899Y179422D01*
X255802Y179405D01*
X255704Y179392D01*
X255606Y179383D01*
X255508Y179377D01*
X255410Y179375D01*
X252844Y179375D01*
X261758Y178349D02*
X265863Y178349D01*
X268831Y179375D02*
X271910Y188613D01*
X274990Y179375D01*
X274220Y181685D02*
X269601Y181685D01*
X278774Y179375D02*
X278774Y188613D01*
X281341Y188613D01*
X281440Y188611D01*
X281540Y188605D01*
X281639Y188596D01*
X281737Y188582D01*
X281835Y188565D01*
X281933Y188544D01*
X282029Y188519D01*
X282124Y188490D01*
X282219Y188458D01*
X282311Y188422D01*
X282403Y188383D01*
X282493Y188340D01*
X282581Y188294D01*
X282667Y188244D01*
X282751Y188191D01*
X282833Y188135D01*
X282913Y188075D01*
X282990Y188013D01*
X283065Y187947D01*
X283138Y187879D01*
X283207Y187808D01*
X283274Y187734D01*
X283338Y187658D01*
X283399Y187579D01*
X283457Y187498D01*
X283512Y187415D01*
X283563Y187330D01*
X283611Y187243D01*
X283656Y187154D01*
X283697Y187063D01*
X283735Y186971D01*
X283769Y186878D01*
X283799Y186783D01*
X283826Y186687D01*
X283849Y186590D01*
X283868Y186493D01*
X283883Y186394D01*
X283895Y186295D01*
X283903Y186196D01*
X283907Y186097D01*
X283907Y185997D01*
X283903Y185898D01*
X283895Y185799D01*
X283883Y185700D01*
X283868Y185601D01*
X283849Y185504D01*
X283826Y185407D01*
X283799Y185311D01*
X283769Y185216D01*
X283735Y185123D01*
X283697Y185031D01*
X283656Y184940D01*
X283611Y184851D01*
X283563Y184764D01*
X283512Y184679D01*
X283457Y184596D01*
X283399Y184515D01*
X283338Y184436D01*
X283274Y184360D01*
X283207Y184286D01*
X283138Y184215D01*
X283065Y184147D01*
X282990Y184081D01*
X282913Y184019D01*
X282833Y183959D01*
X282751Y183903D01*
X282667Y183850D01*
X282581Y183800D01*
X282493Y183754D01*
X282403Y183711D01*
X282311Y183672D01*
X282219Y183636D01*
X282124Y183604D01*
X282029Y183575D01*
X281933Y183550D01*
X281835Y183529D01*
X281737Y183512D01*
X281639Y183498D01*
X281540Y183489D01*
X281440Y183483D01*
X281341Y183481D01*
X278774Y183481D01*
X287644Y181941D02*
X287644Y188613D01*
X287644Y181941D02*
X287646Y181842D01*
X287652Y181742D01*
X287661Y181643D01*
X287675Y181545D01*
X287692Y181447D01*
X287713Y181349D01*
X287738Y181253D01*
X287767Y181158D01*
X287799Y181063D01*
X287835Y180971D01*
X287874Y180879D01*
X287917Y180789D01*
X287963Y180701D01*
X288013Y180615D01*
X288066Y180531D01*
X288122Y180449D01*
X288182Y180369D01*
X288244Y180292D01*
X288310Y180217D01*
X288378Y180144D01*
X288449Y180075D01*
X288523Y180008D01*
X288599Y179944D01*
X288678Y179883D01*
X288759Y179825D01*
X288842Y179770D01*
X288927Y179719D01*
X289014Y179671D01*
X289103Y179626D01*
X289194Y179585D01*
X289286Y179547D01*
X289379Y179513D01*
X289474Y179483D01*
X289570Y179456D01*
X289667Y179433D01*
X289764Y179414D01*
X289863Y179399D01*
X289962Y179387D01*
X290061Y179379D01*
X290160Y179375D01*
X290260Y179375D01*
X290359Y179379D01*
X290458Y179387D01*
X290557Y179399D01*
X290656Y179414D01*
X290753Y179433D01*
X290850Y179456D01*
X290946Y179483D01*
X291041Y179513D01*
X291134Y179547D01*
X291226Y179585D01*
X291317Y179626D01*
X291406Y179671D01*
X291493Y179719D01*
X291578Y179770D01*
X291661Y179825D01*
X291742Y179883D01*
X291821Y179944D01*
X291897Y180008D01*
X291971Y180075D01*
X292042Y180144D01*
X292110Y180217D01*
X292176Y180292D01*
X292238Y180369D01*
X292298Y180449D01*
X292354Y180531D01*
X292407Y180615D01*
X292457Y180701D01*
X292503Y180789D01*
X292546Y180879D01*
X292585Y180971D01*
X292621Y181063D01*
X292653Y181158D01*
X292682Y181253D01*
X292707Y181349D01*
X292728Y181447D01*
X292745Y181545D01*
X292759Y181643D01*
X292768Y181742D01*
X292774Y181842D01*
X292776Y181941D01*
X292776Y188613D01*
X296557Y178349D02*
X300663Y178349D01*
X303631Y179375D02*
X306710Y188613D01*
X309790Y179375D01*
X309020Y181685D02*
X304401Y181685D01*
X313531Y179375D02*
X313531Y188613D01*
X316610Y183481D01*
X319690Y188613D01*
X319690Y179375D01*
X324374Y184507D02*
X326940Y184507D01*
X327039Y184505D01*
X327139Y184499D01*
X327238Y184490D01*
X327336Y184476D01*
X327434Y184459D01*
X327532Y184438D01*
X327628Y184413D01*
X327723Y184384D01*
X327818Y184352D01*
X327910Y184316D01*
X328002Y184277D01*
X328092Y184234D01*
X328180Y184188D01*
X328266Y184138D01*
X328350Y184085D01*
X328432Y184029D01*
X328512Y183969D01*
X328589Y183907D01*
X328664Y183841D01*
X328737Y183773D01*
X328806Y183702D01*
X328873Y183628D01*
X328937Y183552D01*
X328998Y183473D01*
X329056Y183392D01*
X329111Y183309D01*
X329162Y183224D01*
X329210Y183137D01*
X329255Y183048D01*
X329296Y182957D01*
X329334Y182865D01*
X329368Y182772D01*
X329398Y182677D01*
X329425Y182581D01*
X329448Y182484D01*
X329467Y182387D01*
X329482Y182288D01*
X329494Y182189D01*
X329502Y182090D01*
X329506Y181991D01*
X329506Y181891D01*
X329502Y181792D01*
X329494Y181693D01*
X329482Y181594D01*
X329467Y181495D01*
X329448Y181398D01*
X329425Y181301D01*
X329398Y181205D01*
X329368Y181110D01*
X329334Y181017D01*
X329296Y180925D01*
X329255Y180834D01*
X329210Y180745D01*
X329162Y180658D01*
X329111Y180573D01*
X329056Y180490D01*
X328998Y180409D01*
X328937Y180330D01*
X328873Y180254D01*
X328806Y180180D01*
X328737Y180109D01*
X328664Y180041D01*
X328589Y179975D01*
X328512Y179913D01*
X328432Y179853D01*
X328350Y179797D01*
X328266Y179744D01*
X328180Y179694D01*
X328092Y179648D01*
X328002Y179605D01*
X327910Y179566D01*
X327818Y179530D01*
X327723Y179498D01*
X327628Y179469D01*
X327532Y179444D01*
X327434Y179423D01*
X327336Y179406D01*
X327238Y179392D01*
X327139Y179383D01*
X327039Y179377D01*
X326940Y179375D01*
X324374Y179375D01*
X324374Y188613D01*
X326940Y188613D01*
X327030Y188611D01*
X327119Y188605D01*
X327208Y188595D01*
X327296Y188582D01*
X327384Y188564D01*
X327471Y188543D01*
X327557Y188518D01*
X327642Y188489D01*
X327726Y188457D01*
X327808Y188421D01*
X327888Y188381D01*
X327967Y188338D01*
X328043Y188291D01*
X328118Y188242D01*
X328190Y188189D01*
X328260Y188133D01*
X328327Y188074D01*
X328392Y188012D01*
X328454Y187947D01*
X328513Y187880D01*
X328569Y187810D01*
X328622Y187738D01*
X328671Y187663D01*
X328718Y187587D01*
X328761Y187508D01*
X328801Y187428D01*
X328837Y187346D01*
X328869Y187262D01*
X328898Y187177D01*
X328923Y187091D01*
X328944Y187004D01*
X328962Y186916D01*
X328975Y186828D01*
X328985Y186739D01*
X328991Y186650D01*
X328993Y186560D01*
X328991Y186470D01*
X328985Y186381D01*
X328975Y186292D01*
X328962Y186204D01*
X328944Y186116D01*
X328923Y186029D01*
X328898Y185943D01*
X328869Y185858D01*
X328837Y185774D01*
X328801Y185692D01*
X328761Y185612D01*
X328718Y185534D01*
X328671Y185457D01*
X328622Y185382D01*
X328569Y185310D01*
X328513Y185240D01*
X328454Y185173D01*
X328392Y185108D01*
X328327Y185046D01*
X328260Y184987D01*
X328190Y184931D01*
X328118Y184878D01*
X328043Y184829D01*
X327967Y184782D01*
X327888Y184739D01*
X327808Y184699D01*
X327726Y184663D01*
X327642Y184631D01*
X327557Y184602D01*
X327471Y184577D01*
X327384Y184556D01*
X327296Y184538D01*
X327208Y184525D01*
X327119Y184515D01*
X327030Y184509D01*
X326940Y184507D01*
X333262Y179375D02*
X337367Y179375D01*
X333262Y179375D02*
X333262Y188613D01*
X337367Y188613D01*
X336341Y184507D02*
X333262Y184507D01*
X341101Y188613D02*
X341101Y179375D01*
X341101Y188613D02*
X343667Y188613D01*
X343766Y188611D01*
X343866Y188605D01*
X343965Y188596D01*
X344063Y188582D01*
X344161Y188565D01*
X344259Y188544D01*
X344355Y188519D01*
X344450Y188490D01*
X344545Y188458D01*
X344637Y188422D01*
X344729Y188383D01*
X344819Y188340D01*
X344907Y188294D01*
X344993Y188244D01*
X345077Y188191D01*
X345159Y188135D01*
X345239Y188075D01*
X345316Y188013D01*
X345391Y187947D01*
X345464Y187879D01*
X345533Y187808D01*
X345600Y187734D01*
X345664Y187658D01*
X345725Y187579D01*
X345783Y187498D01*
X345838Y187415D01*
X345889Y187330D01*
X345937Y187243D01*
X345982Y187154D01*
X346023Y187063D01*
X346061Y186971D01*
X346095Y186878D01*
X346125Y186783D01*
X346152Y186687D01*
X346175Y186590D01*
X346194Y186493D01*
X346209Y186394D01*
X346221Y186295D01*
X346229Y186196D01*
X346233Y186097D01*
X346233Y185997D01*
X346229Y185898D01*
X346221Y185799D01*
X346209Y185700D01*
X346194Y185601D01*
X346175Y185504D01*
X346152Y185407D01*
X346125Y185311D01*
X346095Y185216D01*
X346061Y185123D01*
X346023Y185031D01*
X345982Y184940D01*
X345937Y184851D01*
X345889Y184764D01*
X345838Y184679D01*
X345783Y184596D01*
X345725Y184515D01*
X345664Y184436D01*
X345600Y184360D01*
X345533Y184286D01*
X345464Y184215D01*
X345391Y184147D01*
X345316Y184081D01*
X345239Y184019D01*
X345159Y183959D01*
X345077Y183903D01*
X344993Y183850D01*
X344907Y183800D01*
X344819Y183754D01*
X344729Y183711D01*
X344637Y183672D01*
X344545Y183636D01*
X344450Y183604D01*
X344355Y183575D01*
X344259Y183550D01*
X344161Y183529D01*
X344063Y183512D01*
X343965Y183498D01*
X343866Y183489D01*
X343766Y183483D01*
X343667Y183481D01*
X341101Y183481D01*
X344180Y183481D02*
X346233Y179375D01*
M02*
