G04 EAGLE Gerber RS-274X export*
G75*
%MOMM*%
%FSLAX34Y34*%
%LPD*%
%INSilkscreen Bottom*%
%IPPOS*%
%AMOC8*
5,1,8,0,0,1.08239X$1,22.5*%
G01*
%ADD10C,0.101600*%
%ADD11C,0.152400*%
%ADD12C,0.127000*%


D10*
X176339Y161102D02*
X167251Y161102D01*
X167152Y161100D01*
X167052Y161094D01*
X166953Y161085D01*
X166855Y161072D01*
X166757Y161055D01*
X166659Y161034D01*
X166563Y161009D01*
X166468Y160981D01*
X166374Y160949D01*
X166281Y160914D01*
X166189Y160875D01*
X166099Y160832D01*
X166011Y160787D01*
X165924Y160737D01*
X165840Y160685D01*
X165757Y160629D01*
X165677Y160571D01*
X165599Y160509D01*
X165524Y160444D01*
X165451Y160376D01*
X165381Y160306D01*
X165313Y160233D01*
X165248Y160158D01*
X165186Y160080D01*
X165128Y160000D01*
X165072Y159917D01*
X165020Y159833D01*
X164970Y159746D01*
X164925Y159658D01*
X164882Y159568D01*
X164843Y159476D01*
X164808Y159383D01*
X164776Y159289D01*
X164748Y159194D01*
X164723Y159098D01*
X164702Y159000D01*
X164685Y158902D01*
X164672Y158804D01*
X164663Y158705D01*
X164657Y158605D01*
X164655Y158506D01*
X164655Y157208D01*
X175040Y166376D02*
X176339Y166376D01*
X176339Y172867D01*
X164655Y169621D01*
D11*
X111199Y303880D02*
X104849Y310230D01*
X92149Y310230D01*
X85799Y303880D01*
X85799Y291180D01*
X92149Y284830D01*
X104849Y284830D01*
X111199Y291180D01*
X142949Y310230D02*
X155649Y310230D01*
X142949Y310230D02*
X136599Y303880D01*
X136599Y291180D01*
X142949Y284830D01*
X136599Y303880D02*
X130249Y310230D01*
X117549Y310230D01*
X111199Y303880D01*
X111199Y291180D01*
X117549Y284830D01*
X130249Y284830D01*
X136599Y291180D01*
X181049Y310230D02*
X187399Y303880D01*
X181049Y310230D02*
X168349Y310230D01*
X161999Y303880D01*
X161999Y291180D01*
X168349Y284830D01*
X181049Y284830D01*
X187399Y291180D01*
X161999Y303880D02*
X155649Y310230D01*
X161999Y291180D02*
X155649Y284830D01*
X142949Y284830D01*
X219149Y310230D02*
X231849Y310230D01*
X219149Y310230D02*
X212799Y303880D01*
X212799Y291180D01*
X219149Y284830D01*
X212799Y303880D02*
X206449Y310230D01*
X193749Y310230D01*
X187399Y303880D01*
X187399Y291180D01*
X193749Y284830D01*
X206449Y284830D01*
X212799Y291180D01*
X257249Y310230D02*
X263599Y303880D01*
X257249Y310230D02*
X244549Y310230D01*
X238199Y303880D01*
X238199Y291180D01*
X244549Y284830D01*
X257249Y284830D01*
X263599Y291180D01*
X238199Y303880D02*
X231849Y310230D01*
X238199Y291180D02*
X231849Y284830D01*
X219149Y284830D01*
X295349Y310230D02*
X308049Y310230D01*
X295349Y310230D02*
X288999Y303880D01*
X288999Y291180D01*
X295349Y284830D01*
X288999Y303880D02*
X282649Y310230D01*
X269949Y310230D01*
X263599Y303880D01*
X263599Y291180D01*
X269949Y284830D01*
X282649Y284830D01*
X288999Y291180D01*
X333449Y310230D02*
X339799Y303880D01*
X333449Y310230D02*
X320749Y310230D01*
X314399Y303880D01*
X314399Y291180D01*
X320749Y284830D01*
X333449Y284830D01*
X339799Y291180D01*
X314399Y303880D02*
X308049Y310230D01*
X314399Y291180D02*
X308049Y284830D01*
X295349Y284830D01*
X371549Y310230D02*
X384249Y310230D01*
X371549Y310230D02*
X365199Y303880D01*
X365199Y291180D01*
X371549Y284830D01*
X365199Y303880D02*
X358849Y310230D01*
X346149Y310230D01*
X339799Y303880D01*
X339799Y291180D01*
X346149Y284830D01*
X358849Y284830D01*
X365199Y291180D01*
X390599Y291180D02*
X390599Y303880D01*
X384249Y310230D01*
X390599Y291180D02*
X384249Y284830D01*
X371549Y284830D01*
X85799Y303880D02*
X79449Y310230D01*
X66749Y310230D01*
X60399Y303880D01*
X60399Y291180D01*
X66749Y284830D01*
X79449Y284830D01*
X85799Y291180D01*
D12*
X386916Y318993D02*
X386916Y327883D01*
X386916Y318993D02*
X386918Y318893D01*
X386924Y318794D01*
X386934Y318694D01*
X386947Y318596D01*
X386965Y318497D01*
X386986Y318400D01*
X387011Y318304D01*
X387040Y318208D01*
X387073Y318114D01*
X387109Y318021D01*
X387149Y317930D01*
X387193Y317840D01*
X387240Y317752D01*
X387290Y317666D01*
X387344Y317582D01*
X387401Y317500D01*
X387461Y317421D01*
X387525Y317343D01*
X387591Y317269D01*
X387660Y317197D01*
X387732Y317128D01*
X387806Y317062D01*
X387884Y316998D01*
X387963Y316938D01*
X388045Y316881D01*
X388129Y316827D01*
X388215Y316777D01*
X388303Y316730D01*
X388393Y316686D01*
X388484Y316646D01*
X388577Y316610D01*
X388671Y316577D01*
X388767Y316548D01*
X388863Y316523D01*
X388960Y316502D01*
X389059Y316484D01*
X389157Y316471D01*
X389257Y316461D01*
X389356Y316455D01*
X389456Y316453D01*
X390726Y316453D01*
X380935Y316453D02*
X380935Y327883D01*
X377760Y327883D01*
X377649Y327881D01*
X377539Y327875D01*
X377428Y327866D01*
X377318Y327852D01*
X377209Y327835D01*
X377100Y327814D01*
X376992Y327789D01*
X376885Y327760D01*
X376779Y327728D01*
X376674Y327692D01*
X376571Y327652D01*
X376469Y327609D01*
X376368Y327562D01*
X376269Y327511D01*
X376173Y327458D01*
X376078Y327401D01*
X375985Y327340D01*
X375894Y327277D01*
X375805Y327210D01*
X375719Y327140D01*
X375636Y327067D01*
X375554Y326992D01*
X375476Y326914D01*
X375401Y326832D01*
X375328Y326749D01*
X375258Y326663D01*
X375191Y326574D01*
X375128Y326483D01*
X375067Y326390D01*
X375010Y326296D01*
X374957Y326199D01*
X374906Y326100D01*
X374859Y325999D01*
X374816Y325897D01*
X374776Y325794D01*
X374740Y325689D01*
X374708Y325583D01*
X374679Y325476D01*
X374654Y325368D01*
X374633Y325259D01*
X374616Y325150D01*
X374602Y325040D01*
X374593Y324929D01*
X374587Y324819D01*
X374585Y324708D01*
X374587Y324597D01*
X374593Y324487D01*
X374602Y324376D01*
X374616Y324266D01*
X374633Y324157D01*
X374654Y324048D01*
X374679Y323940D01*
X374708Y323833D01*
X374740Y323727D01*
X374776Y323622D01*
X374816Y323519D01*
X374859Y323417D01*
X374906Y323316D01*
X374957Y323217D01*
X375010Y323121D01*
X375067Y323026D01*
X375128Y322933D01*
X375191Y322842D01*
X375258Y322753D01*
X375328Y322667D01*
X375401Y322584D01*
X375476Y322502D01*
X375554Y322424D01*
X375636Y322349D01*
X375719Y322276D01*
X375805Y322206D01*
X375894Y322139D01*
X375985Y322076D01*
X376078Y322015D01*
X376173Y321958D01*
X376269Y321905D01*
X376368Y321854D01*
X376469Y321807D01*
X376571Y321764D01*
X376674Y321724D01*
X376779Y321688D01*
X376885Y321656D01*
X376992Y321627D01*
X377100Y321602D01*
X377209Y321581D01*
X377318Y321564D01*
X377428Y321550D01*
X377539Y321541D01*
X377649Y321535D01*
X377760Y321533D01*
X380935Y321533D01*
X370077Y325343D02*
X366902Y327883D01*
X366902Y316453D01*
X370077Y316453D02*
X363727Y316453D01*
D11*
X104849Y45230D02*
X111199Y38880D01*
X104849Y45230D02*
X92149Y45230D01*
X85799Y38880D01*
X85799Y26180D01*
X92149Y19830D01*
X104849Y19830D01*
X111199Y26180D01*
X142949Y45230D02*
X155649Y45230D01*
X142949Y45230D02*
X136599Y38880D01*
X136599Y26180D01*
X142949Y19830D01*
X136599Y38880D02*
X130249Y45230D01*
X117549Y45230D01*
X111199Y38880D01*
X111199Y26180D01*
X117549Y19830D01*
X130249Y19830D01*
X136599Y26180D01*
X181049Y45230D02*
X187399Y38880D01*
X181049Y45230D02*
X168349Y45230D01*
X161999Y38880D01*
X161999Y26180D01*
X168349Y19830D01*
X181049Y19830D01*
X187399Y26180D01*
X161999Y38880D02*
X155649Y45230D01*
X161999Y26180D02*
X155649Y19830D01*
X142949Y19830D01*
X219149Y45230D02*
X231849Y45230D01*
X219149Y45230D02*
X212799Y38880D01*
X212799Y26180D01*
X219149Y19830D01*
X212799Y38880D02*
X206449Y45230D01*
X193749Y45230D01*
X187399Y38880D01*
X187399Y26180D01*
X193749Y19830D01*
X206449Y19830D01*
X212799Y26180D01*
X257249Y45230D02*
X263599Y38880D01*
X257249Y45230D02*
X244549Y45230D01*
X238199Y38880D01*
X238199Y26180D01*
X244549Y19830D01*
X257249Y19830D01*
X263599Y26180D01*
X238199Y38880D02*
X231849Y45230D01*
X238199Y26180D02*
X231849Y19830D01*
X219149Y19830D01*
X295349Y45230D02*
X308049Y45230D01*
X295349Y45230D02*
X288999Y38880D01*
X288999Y26180D01*
X295349Y19830D01*
X288999Y38880D02*
X282649Y45230D01*
X269949Y45230D01*
X263599Y38880D01*
X263599Y26180D01*
X269949Y19830D01*
X282649Y19830D01*
X288999Y26180D01*
X333449Y45230D02*
X339799Y38880D01*
X333449Y45230D02*
X320749Y45230D01*
X314399Y38880D01*
X314399Y26180D01*
X320749Y19830D01*
X333449Y19830D01*
X339799Y26180D01*
X314399Y38880D02*
X308049Y45230D01*
X314399Y26180D02*
X308049Y19830D01*
X295349Y19830D01*
X371549Y45230D02*
X384249Y45230D01*
X371549Y45230D02*
X365199Y38880D01*
X365199Y26180D01*
X371549Y19830D01*
X365199Y38880D02*
X358849Y45230D01*
X346149Y45230D01*
X339799Y38880D01*
X339799Y26180D01*
X346149Y19830D01*
X358849Y19830D01*
X365199Y26180D01*
X390599Y26180D02*
X390599Y38880D01*
X384249Y45230D01*
X390599Y26180D02*
X384249Y19830D01*
X371549Y19830D01*
X85799Y38880D02*
X79449Y45230D01*
X66749Y45230D01*
X60399Y38880D01*
X60399Y26180D01*
X66749Y19830D01*
X79449Y19830D01*
X85799Y26180D01*
D12*
X386916Y53993D02*
X386916Y62883D01*
X386916Y53993D02*
X386918Y53893D01*
X386924Y53794D01*
X386934Y53694D01*
X386947Y53596D01*
X386965Y53497D01*
X386986Y53400D01*
X387011Y53304D01*
X387040Y53208D01*
X387073Y53114D01*
X387109Y53021D01*
X387149Y52930D01*
X387193Y52840D01*
X387240Y52752D01*
X387290Y52666D01*
X387344Y52582D01*
X387401Y52500D01*
X387461Y52421D01*
X387525Y52343D01*
X387591Y52269D01*
X387660Y52197D01*
X387732Y52128D01*
X387806Y52062D01*
X387884Y51998D01*
X387963Y51938D01*
X388045Y51881D01*
X388129Y51827D01*
X388215Y51777D01*
X388303Y51730D01*
X388393Y51686D01*
X388484Y51646D01*
X388577Y51610D01*
X388671Y51577D01*
X388767Y51548D01*
X388863Y51523D01*
X388960Y51502D01*
X389059Y51484D01*
X389157Y51471D01*
X389257Y51461D01*
X389356Y51455D01*
X389456Y51453D01*
X390726Y51453D01*
X380935Y51453D02*
X380935Y62883D01*
X377760Y62883D01*
X377649Y62881D01*
X377539Y62875D01*
X377428Y62866D01*
X377318Y62852D01*
X377209Y62835D01*
X377100Y62814D01*
X376992Y62789D01*
X376885Y62760D01*
X376779Y62728D01*
X376674Y62692D01*
X376571Y62652D01*
X376469Y62609D01*
X376368Y62562D01*
X376269Y62511D01*
X376173Y62458D01*
X376078Y62401D01*
X375985Y62340D01*
X375894Y62277D01*
X375805Y62210D01*
X375719Y62140D01*
X375636Y62067D01*
X375554Y61992D01*
X375476Y61914D01*
X375401Y61832D01*
X375328Y61749D01*
X375258Y61663D01*
X375191Y61574D01*
X375128Y61483D01*
X375067Y61390D01*
X375010Y61295D01*
X374957Y61199D01*
X374906Y61100D01*
X374859Y60999D01*
X374816Y60897D01*
X374776Y60794D01*
X374740Y60689D01*
X374708Y60583D01*
X374679Y60476D01*
X374654Y60368D01*
X374633Y60259D01*
X374616Y60150D01*
X374602Y60040D01*
X374593Y59929D01*
X374587Y59819D01*
X374585Y59708D01*
X374587Y59597D01*
X374593Y59487D01*
X374602Y59376D01*
X374616Y59266D01*
X374633Y59157D01*
X374654Y59048D01*
X374679Y58940D01*
X374708Y58833D01*
X374740Y58727D01*
X374776Y58622D01*
X374816Y58519D01*
X374859Y58417D01*
X374906Y58316D01*
X374957Y58217D01*
X375010Y58120D01*
X375067Y58026D01*
X375128Y57933D01*
X375191Y57842D01*
X375258Y57753D01*
X375328Y57667D01*
X375401Y57584D01*
X375476Y57502D01*
X375554Y57424D01*
X375636Y57349D01*
X375719Y57276D01*
X375805Y57206D01*
X375894Y57139D01*
X375985Y57076D01*
X376078Y57015D01*
X376173Y56958D01*
X376269Y56905D01*
X376368Y56854D01*
X376469Y56807D01*
X376571Y56764D01*
X376674Y56724D01*
X376779Y56688D01*
X376885Y56656D01*
X376992Y56627D01*
X377100Y56602D01*
X377209Y56581D01*
X377318Y56564D01*
X377428Y56550D01*
X377539Y56541D01*
X377649Y56535D01*
X377760Y56533D01*
X380935Y56533D01*
X366584Y62883D02*
X366480Y62881D01*
X366375Y62875D01*
X366271Y62866D01*
X366168Y62853D01*
X366065Y62835D01*
X365963Y62815D01*
X365861Y62790D01*
X365761Y62762D01*
X365661Y62730D01*
X365563Y62694D01*
X365466Y62655D01*
X365371Y62613D01*
X365277Y62567D01*
X365185Y62517D01*
X365095Y62465D01*
X365007Y62409D01*
X364921Y62349D01*
X364837Y62287D01*
X364756Y62222D01*
X364677Y62154D01*
X364600Y62082D01*
X364527Y62009D01*
X364455Y61932D01*
X364387Y61853D01*
X364322Y61772D01*
X364260Y61688D01*
X364200Y61602D01*
X364144Y61514D01*
X364092Y61424D01*
X364042Y61332D01*
X363996Y61238D01*
X363954Y61143D01*
X363915Y61046D01*
X363879Y60948D01*
X363847Y60848D01*
X363819Y60748D01*
X363794Y60646D01*
X363774Y60544D01*
X363756Y60441D01*
X363743Y60338D01*
X363734Y60234D01*
X363728Y60129D01*
X363726Y60025D01*
X366584Y62883D02*
X366702Y62881D01*
X366821Y62875D01*
X366939Y62866D01*
X367056Y62853D01*
X367173Y62835D01*
X367290Y62815D01*
X367406Y62790D01*
X367521Y62762D01*
X367634Y62729D01*
X367747Y62694D01*
X367859Y62654D01*
X367969Y62612D01*
X368078Y62565D01*
X368186Y62515D01*
X368291Y62462D01*
X368395Y62405D01*
X368497Y62345D01*
X368597Y62282D01*
X368695Y62215D01*
X368791Y62146D01*
X368884Y62073D01*
X368975Y61997D01*
X369064Y61919D01*
X369150Y61837D01*
X369233Y61753D01*
X369314Y61667D01*
X369391Y61577D01*
X369466Y61486D01*
X369538Y61392D01*
X369607Y61295D01*
X369672Y61197D01*
X369735Y61096D01*
X369794Y60993D01*
X369850Y60889D01*
X369902Y60783D01*
X369951Y60675D01*
X369996Y60566D01*
X370038Y60455D01*
X370076Y60343D01*
X364679Y57803D02*
X364603Y57878D01*
X364528Y57957D01*
X364457Y58038D01*
X364388Y58122D01*
X364323Y58208D01*
X364261Y58296D01*
X364201Y58386D01*
X364145Y58478D01*
X364092Y58573D01*
X364043Y58669D01*
X363997Y58767D01*
X363954Y58866D01*
X363915Y58967D01*
X363880Y59069D01*
X363848Y59172D01*
X363820Y59276D01*
X363795Y59381D01*
X363774Y59488D01*
X363757Y59594D01*
X363744Y59701D01*
X363735Y59809D01*
X363729Y59917D01*
X363727Y60025D01*
X364679Y57803D02*
X370077Y51453D01*
X363727Y51453D01*
M02*
