G04 EAGLE Gerber RS-274X export*
G75*
%MOMM*%
%FSLAX34Y34*%
%LPD*%
%INSoldermask Top*%
%IPPOS*%
%AMOC8*
5,1,8,0,0,1.08239X$1,22.5*%
G01*
%ADD10R,2.233200X0.763200*%
%ADD11R,3.763200X2.183200*%
%ADD12C,1.727200*%
%ADD13R,1.303200X1.203200*%
%ADD14R,1.203200X1.303200*%
%ADD15R,1.403200X1.403200*%
%ADD16R,1.003200X1.003200*%
%ADD17C,0.959600*%


D10*
X193147Y145037D03*
X193147Y155037D03*
X193147Y165037D03*
X193147Y175037D03*
X193147Y185037D03*
D11*
X152487Y134437D03*
X152487Y195637D03*
D12*
X377899Y289910D02*
X377899Y305150D01*
X352499Y305150D02*
X352499Y289910D01*
X327099Y289910D02*
X327099Y305150D01*
X301699Y305150D02*
X301699Y289910D01*
X276299Y289910D02*
X276299Y305150D01*
X250899Y305150D02*
X250899Y289910D01*
X225499Y289910D02*
X225499Y305150D01*
X200099Y305150D02*
X200099Y289910D01*
X174699Y289910D02*
X174699Y305150D01*
X149299Y305150D02*
X149299Y289910D01*
X123899Y289910D02*
X123899Y305150D01*
X98499Y305150D02*
X98499Y289910D01*
X73099Y289910D02*
X73099Y305150D01*
X377899Y40150D02*
X377899Y24910D01*
X352499Y24910D02*
X352499Y40150D01*
X327099Y40150D02*
X327099Y24910D01*
X301699Y24910D02*
X301699Y40150D01*
X276299Y40150D02*
X276299Y24910D01*
X250899Y24910D02*
X250899Y40150D01*
X225499Y40150D02*
X225499Y24910D01*
X200099Y24910D02*
X200099Y40150D01*
X174699Y40150D02*
X174699Y24910D01*
X149299Y24910D02*
X149299Y40150D01*
X123899Y40150D02*
X123899Y24910D01*
X98499Y24910D02*
X98499Y40150D01*
X73099Y40150D02*
X73099Y24910D01*
D13*
X242343Y246407D03*
X242343Y263407D03*
D14*
X290262Y253798D03*
X273262Y253798D03*
X247424Y145390D03*
X264424Y145390D03*
D15*
X244906Y126488D03*
X265906Y126488D03*
D14*
X246538Y220912D03*
X263538Y220912D03*
D16*
X268713Y202281D03*
X253713Y202281D03*
D17*
X209937Y154994D03*
X177974Y154848D03*
X208316Y185198D03*
X177573Y185374D03*
X208724Y175081D03*
X177179Y174936D03*
X235128Y130406D03*
X235759Y118034D03*
X276398Y207665D03*
X276903Y196556D03*
X263306Y253835D03*
M02*
