G04 EAGLE Gerber RS-274X export*
G75*
%MOMM*%
%FSLAX34Y34*%
%LPD*%
%INSoldermask Bottom*%
%IPPOS*%
%AMOC8*
5,1,8,0,0,1.08239X$1,22.5*%
G01*
%ADD10C,1.727200*%
%ADD11C,0.959600*%


D10*
X377899Y289910D02*
X377899Y305150D01*
X352499Y305150D02*
X352499Y289910D01*
X327099Y289910D02*
X327099Y305150D01*
X301699Y305150D02*
X301699Y289910D01*
X276299Y289910D02*
X276299Y305150D01*
X250899Y305150D02*
X250899Y289910D01*
X225499Y289910D02*
X225499Y305150D01*
X200099Y305150D02*
X200099Y289910D01*
X174699Y289910D02*
X174699Y305150D01*
X149299Y305150D02*
X149299Y289910D01*
X123899Y289910D02*
X123899Y305150D01*
X98499Y305150D02*
X98499Y289910D01*
X73099Y289910D02*
X73099Y305150D01*
X377899Y40150D02*
X377899Y24910D01*
X352499Y24910D02*
X352499Y40150D01*
X327099Y40150D02*
X327099Y24910D01*
X301699Y24910D02*
X301699Y40150D01*
X276299Y40150D02*
X276299Y24910D01*
X250899Y24910D02*
X250899Y40150D01*
X225499Y40150D02*
X225499Y24910D01*
X200099Y24910D02*
X200099Y40150D01*
X174699Y40150D02*
X174699Y24910D01*
X149299Y24910D02*
X149299Y40150D01*
X123899Y40150D02*
X123899Y24910D01*
X98499Y24910D02*
X98499Y40150D01*
X73099Y40150D02*
X73099Y24910D01*
D11*
X209937Y154994D03*
X177974Y154848D03*
X208316Y185198D03*
X177573Y185374D03*
X208724Y175081D03*
X177179Y174936D03*
X235128Y130406D03*
X235759Y118034D03*
X276398Y207665D03*
X276903Y196556D03*
X263306Y253835D03*
M02*
