M48
;GenerationSoftware,Autodesk,EAGLE,9.6.2*%
;CreationDate,2021-02-19T23:04:07Z*%
FMAT,2
ICI,OFF
METRIC,TZ,000.000
T6C0.350
T5C0.650
T4C1.020
T3C1.100
T2C1.130
T1C1.520
%
G90
M71
T1
X70887Y13439
X60184Y19618
X60184Y7260
T2
X74552Y13439
X57892Y13439
T3
X37482Y47463
X53485Y45310
X53485Y47850
X44312Y23832
X41772Y23832
X34942Y47463
T4
X83820Y23241
X83820Y30861
T5
X21978Y16904
T6
X25654Y48417
X45101Y41054
X46083Y41040
X42428Y28030
X42349Y29626
X34092Y41514
X34057Y40604
X33819Y38461
X33819Y39383
X41701Y36919
X41820Y37866
X32090Y28747
X32090Y27232
X32101Y26258
X32112Y25100
X33430Y16964
X33598Y15372
X39884Y8742
X38482Y8664
X44962Y9794
X46222Y9781
X42312Y4051
X40674Y3946
X38254Y3825
X39832Y3810
X81324Y31994
X80222Y30334
X79891Y23788
X79969Y25043
X79813Y22532
X69164Y33842
X69780Y27424
X77296Y27519
X77296Y25778
X59808Y34956
X79545Y47525
X76925Y41111
X82675Y41913
X67610Y40382
X85456Y16291
X85626Y19123
X63898Y28938
X50798Y23471
X52036Y18952
X51235Y14578
X51162Y7070
X51648Y4108
X67319Y6487
X70885Y1312
X79691Y5976
X82893Y11007
X79982Y14210
X77144Y18660
X73869Y21940
X68774Y18733
X65208Y22669
X58804Y23471
X56548Y19608
X68625Y50054
X68571Y48990
X64557Y41622
X64603Y39953
X64621Y39079
X64584Y37518
X59294Y39950
X59219Y38666
X51898Y33982
X50420Y33932
X64830Y35696
X37680Y29615
X74939Y38056
X74932Y37098
X75014Y35599
X75079Y34592
X32272Y33110
X25778Y16045
X25733Y15061
X30056Y17534
X31040Y17567
X29195Y33536
X25080Y16917
X25785Y35357
X64767Y34784
X29162Y35313
X34798Y7735
X45606Y6029
X22881Y9610
X22234Y44547
X27700Y32986
X28468Y22839
X27924Y18925
X25618Y4228
X32095Y1822
X32168Y21430
X45995Y34842
X27233Y35009
M30