G04 EAGLE Gerber RS-274X export*
G75*
%MOMM*%
%FSLAX34Y34*%
%LPD*%
%INBottom Copper*%
%IPPOS*%
%AMOC8*
5,1,8,0,0,1.08239X$1,22.5*%
G01*
%ADD10C,1.730000*%
%ADD11R,2.790000X0.740000*%
%ADD12R,1.700000X1.700000*%
%ADD13C,1.700000*%
%ADD14C,0.610000*%
%ADD15C,0.406400*%
%ADD16C,0.400000*%
%ADD17C,0.975000*%
%ADD18C,1.000000*%

G36*
X777500Y4008D02*
X777500Y4008D01*
X777570Y4006D01*
X777698Y4028D01*
X777828Y4041D01*
X777895Y4061D01*
X777964Y4073D01*
X778085Y4120D01*
X778210Y4159D01*
X778271Y4192D01*
X778336Y4218D01*
X778445Y4288D01*
X778560Y4350D01*
X778614Y4396D01*
X778672Y4433D01*
X778842Y4588D01*
X778865Y4608D01*
X778870Y4614D01*
X778878Y4621D01*
X789447Y15722D01*
X789478Y15761D01*
X789544Y15832D01*
X812062Y43270D01*
X812094Y43317D01*
X812179Y43427D01*
X831899Y72941D01*
X831926Y72991D01*
X832000Y73109D01*
X848732Y104413D01*
X848754Y104465D01*
X848816Y104590D01*
X862399Y137383D01*
X862416Y137438D01*
X862465Y137568D01*
X872769Y171535D01*
X872780Y171590D01*
X872817Y171725D01*
X879742Y206538D01*
X879747Y206595D01*
X879770Y206732D01*
X883249Y242056D01*
X883249Y242113D01*
X883259Y242252D01*
X883259Y277748D01*
X883253Y277804D01*
X883249Y277944D01*
X879770Y313268D01*
X879759Y313323D01*
X879742Y313462D01*
X872817Y348275D01*
X872808Y348302D01*
X872805Y348328D01*
X872791Y348368D01*
X872769Y348465D01*
X862465Y382432D01*
X862444Y382484D01*
X862399Y382617D01*
X848816Y415410D01*
X848789Y415460D01*
X848732Y415587D01*
X832000Y446891D01*
X831968Y446939D01*
X831899Y447059D01*
X812179Y476572D01*
X812143Y476616D01*
X812062Y476730D01*
X789544Y504168D01*
X789508Y504204D01*
X789447Y504278D01*
X778878Y515379D01*
X778825Y515424D01*
X778779Y515476D01*
X778674Y515554D01*
X778576Y515639D01*
X778515Y515673D01*
X778458Y515715D01*
X778341Y515770D01*
X778227Y515834D01*
X778160Y515855D01*
X778097Y515885D01*
X777970Y515916D01*
X777846Y515956D01*
X777777Y515963D01*
X777709Y515980D01*
X777480Y515996D01*
X777449Y515999D01*
X777442Y515998D01*
X777431Y515999D01*
X490857Y515999D01*
X490826Y515996D01*
X490796Y515998D01*
X490628Y515976D01*
X490459Y515959D01*
X490430Y515950D01*
X490400Y515946D01*
X490240Y515891D01*
X490078Y515841D01*
X490051Y515827D01*
X490022Y515817D01*
X489876Y515731D01*
X489727Y515650D01*
X489704Y515630D01*
X489678Y515615D01*
X489551Y515502D01*
X489422Y515392D01*
X489403Y515369D01*
X489380Y515348D01*
X489279Y515212D01*
X489174Y515079D01*
X489160Y515052D01*
X489142Y515028D01*
X489070Y514875D01*
X488993Y514723D01*
X488985Y514694D01*
X488972Y514667D01*
X488931Y514501D01*
X488886Y514338D01*
X488884Y514308D01*
X488877Y514279D01*
X488857Y514000D01*
X488857Y36000D01*
X488860Y35970D01*
X488858Y35940D01*
X488880Y35771D01*
X488897Y35603D01*
X488906Y35574D01*
X488910Y35544D01*
X488965Y35383D01*
X489015Y35221D01*
X489030Y35194D01*
X489040Y35166D01*
X489125Y35020D01*
X489207Y34871D01*
X489226Y34847D01*
X489242Y34821D01*
X489355Y34695D01*
X489464Y34565D01*
X489488Y34546D01*
X489508Y34524D01*
X489644Y34423D01*
X489777Y34317D01*
X489804Y34303D01*
X489829Y34285D01*
X489982Y34213D01*
X490133Y34136D01*
X490163Y34128D01*
X490190Y34115D01*
X490355Y34075D01*
X490518Y34030D01*
X490549Y34027D01*
X490578Y34020D01*
X490857Y34001D01*
X701657Y34001D01*
X704001Y31657D01*
X704001Y6000D01*
X704004Y5970D01*
X704002Y5940D01*
X704024Y5771D01*
X704041Y5603D01*
X704050Y5574D01*
X704054Y5544D01*
X704109Y5383D01*
X704159Y5221D01*
X704173Y5194D01*
X704183Y5166D01*
X704269Y5020D01*
X704350Y4871D01*
X704370Y4847D01*
X704385Y4821D01*
X704498Y4695D01*
X704608Y4565D01*
X704631Y4546D01*
X704652Y4524D01*
X704788Y4423D01*
X704921Y4317D01*
X704948Y4303D01*
X704972Y4285D01*
X705125Y4213D01*
X705277Y4136D01*
X705306Y4128D01*
X705333Y4115D01*
X705499Y4075D01*
X705662Y4030D01*
X705692Y4027D01*
X705721Y4020D01*
X706000Y4001D01*
X777431Y4001D01*
X777500Y4008D01*
G37*
G36*
X334030Y4004D02*
X334030Y4004D01*
X334060Y4002D01*
X334229Y4024D01*
X334397Y4041D01*
X334426Y4050D01*
X334456Y4054D01*
X334617Y4109D01*
X334779Y4159D01*
X334806Y4173D01*
X334834Y4183D01*
X334980Y4269D01*
X335129Y4350D01*
X335153Y4370D01*
X335179Y4385D01*
X335305Y4498D01*
X335435Y4608D01*
X335454Y4631D01*
X335476Y4652D01*
X335577Y4788D01*
X335683Y4921D01*
X335697Y4948D01*
X335715Y4972D01*
X335787Y5125D01*
X335864Y5277D01*
X335872Y5306D01*
X335885Y5333D01*
X335925Y5499D01*
X335970Y5662D01*
X335973Y5692D01*
X335980Y5721D01*
X335999Y6000D01*
X335999Y31657D01*
X338343Y34001D01*
X471319Y34001D01*
X471349Y34004D01*
X471379Y34002D01*
X471547Y34024D01*
X471716Y34041D01*
X471745Y34050D01*
X471775Y34054D01*
X471935Y34109D01*
X472098Y34159D01*
X472124Y34173D01*
X472153Y34183D01*
X472299Y34269D01*
X472448Y34350D01*
X472471Y34370D01*
X472497Y34385D01*
X472624Y34498D01*
X472753Y34608D01*
X472772Y34631D01*
X472795Y34652D01*
X472896Y34788D01*
X473002Y34921D01*
X473015Y34948D01*
X473033Y34972D01*
X473106Y35125D01*
X473183Y35277D01*
X473191Y35306D01*
X473203Y35333D01*
X473244Y35499D01*
X473289Y35662D01*
X473291Y35692D01*
X473298Y35721D01*
X473318Y36000D01*
X473318Y514000D01*
X473315Y514030D01*
X473317Y514060D01*
X473295Y514229D01*
X473278Y514397D01*
X473269Y514426D01*
X473265Y514456D01*
X473210Y514617D01*
X473160Y514779D01*
X473145Y514806D01*
X473136Y514834D01*
X473050Y514980D01*
X472968Y515129D01*
X472949Y515153D01*
X472933Y515179D01*
X472820Y515305D01*
X472711Y515435D01*
X472687Y515454D01*
X472667Y515476D01*
X472531Y515577D01*
X472398Y515683D01*
X472371Y515697D01*
X472347Y515715D01*
X472193Y515787D01*
X472042Y515864D01*
X472013Y515872D01*
X471985Y515885D01*
X471820Y515925D01*
X471657Y515970D01*
X471627Y515973D01*
X471597Y515980D01*
X471319Y515999D01*
X262569Y515999D01*
X262500Y515992D01*
X262430Y515994D01*
X262302Y515972D01*
X262172Y515959D01*
X262105Y515939D01*
X262036Y515927D01*
X261915Y515880D01*
X261790Y515841D01*
X261729Y515808D01*
X261664Y515782D01*
X261554Y515712D01*
X261440Y515650D01*
X261387Y515605D01*
X261328Y515567D01*
X261158Y515412D01*
X261135Y515392D01*
X261130Y515386D01*
X261122Y515379D01*
X250553Y504278D01*
X250522Y504238D01*
X250456Y504168D01*
X227938Y476730D01*
X227906Y476683D01*
X227821Y476572D01*
X208101Y447059D01*
X208074Y447009D01*
X208000Y446891D01*
X191268Y415587D01*
X191246Y415535D01*
X191184Y415410D01*
X177601Y382617D01*
X177595Y382598D01*
X177587Y382582D01*
X177574Y382535D01*
X177535Y382432D01*
X167231Y348465D01*
X167220Y348410D01*
X167183Y348275D01*
X160258Y313462D01*
X160253Y313405D01*
X160230Y313268D01*
X156751Y277944D01*
X156751Y277887D01*
X156741Y277748D01*
X156741Y242252D01*
X156747Y242196D01*
X156751Y242056D01*
X160230Y206732D01*
X160241Y206677D01*
X160258Y206538D01*
X167183Y171725D01*
X167200Y171671D01*
X167231Y171535D01*
X177535Y137568D01*
X177556Y137516D01*
X177601Y137383D01*
X191184Y104590D01*
X191211Y104540D01*
X191268Y104413D01*
X208000Y73109D01*
X208032Y73061D01*
X208101Y72941D01*
X227821Y43428D01*
X227857Y43384D01*
X227938Y43270D01*
X250456Y15832D01*
X250492Y15796D01*
X250553Y15722D01*
X261122Y4621D01*
X261175Y4576D01*
X261221Y4524D01*
X261326Y4446D01*
X261424Y4361D01*
X261485Y4327D01*
X261542Y4285D01*
X261659Y4230D01*
X261773Y4166D01*
X261840Y4145D01*
X261903Y4115D01*
X262030Y4084D01*
X262154Y4044D01*
X262223Y4037D01*
X262291Y4020D01*
X262520Y4004D01*
X262551Y4001D01*
X262558Y4002D01*
X262569Y4001D01*
X334000Y4001D01*
X334030Y4004D01*
G37*
%LPC*%
G36*
X256219Y145019D02*
X256219Y145019D01*
X254164Y145870D01*
X252591Y147443D01*
X251832Y149275D01*
X251814Y149308D01*
X251802Y149344D01*
X251720Y149484D01*
X251643Y149627D01*
X251619Y149656D01*
X251600Y149689D01*
X251492Y149810D01*
X251388Y149934D01*
X251358Y149958D01*
X251333Y149986D01*
X251203Y150083D01*
X251077Y150185D01*
X251043Y150202D01*
X251013Y150225D01*
X250867Y150294D01*
X250722Y150368D01*
X250686Y150379D01*
X250651Y150395D01*
X250494Y150433D01*
X250338Y150478D01*
X250300Y150481D01*
X250263Y150490D01*
X249985Y150509D01*
X220201Y150509D01*
X219029Y151681D01*
X219029Y159984D01*
X219028Y159997D01*
X219028Y160003D01*
X219026Y160024D01*
X219028Y160059D01*
X219006Y160220D01*
X218989Y160381D01*
X218978Y160417D01*
X218973Y160455D01*
X218919Y160608D01*
X218871Y160763D01*
X218853Y160796D01*
X218841Y160832D01*
X218758Y160971D01*
X218680Y161113D01*
X218655Y161142D01*
X218636Y161175D01*
X218527Y161295D01*
X218422Y161419D01*
X218393Y161442D01*
X218367Y161470D01*
X218236Y161566D01*
X218109Y161667D01*
X218075Y161684D01*
X218045Y161706D01*
X217795Y161831D01*
X215576Y162750D01*
X213490Y164836D01*
X212361Y167562D01*
X212361Y170512D01*
X213490Y173238D01*
X215576Y175324D01*
X217795Y176243D01*
X217828Y176261D01*
X217864Y176273D01*
X218004Y176355D01*
X218147Y176432D01*
X218176Y176456D01*
X218209Y176475D01*
X218329Y176583D01*
X218454Y176687D01*
X218478Y176716D01*
X218506Y176742D01*
X218603Y176871D01*
X218705Y176998D01*
X218722Y177032D01*
X218745Y177062D01*
X218814Y177209D01*
X218888Y177353D01*
X218899Y177389D01*
X218915Y177423D01*
X218953Y177581D01*
X218998Y177737D01*
X219001Y177775D01*
X219010Y177811D01*
X219029Y178090D01*
X219029Y186139D01*
X219437Y186546D01*
X219456Y186570D01*
X219479Y186590D01*
X219582Y186724D01*
X219690Y186856D01*
X219704Y186882D01*
X219722Y186906D01*
X219797Y187059D01*
X219876Y187209D01*
X219884Y187238D01*
X219898Y187265D01*
X219940Y187429D01*
X219988Y187592D01*
X219991Y187622D01*
X219998Y187652D01*
X220008Y187820D01*
X220022Y187990D01*
X220019Y188020D01*
X220020Y188050D01*
X219996Y188218D01*
X219976Y188387D01*
X219967Y188416D01*
X219963Y188446D01*
X219905Y188606D01*
X219852Y188767D01*
X219838Y188793D01*
X219827Y188821D01*
X219739Y188967D01*
X219656Y189114D01*
X219636Y189137D01*
X219620Y189163D01*
X219437Y189374D01*
X219029Y189781D01*
X219029Y198839D01*
X219437Y199246D01*
X219456Y199270D01*
X219479Y199290D01*
X219582Y199424D01*
X219690Y199556D01*
X219704Y199582D01*
X219722Y199606D01*
X219797Y199759D01*
X219876Y199909D01*
X219884Y199938D01*
X219898Y199965D01*
X219940Y200129D01*
X219988Y200292D01*
X219991Y200322D01*
X219998Y200352D01*
X220008Y200520D01*
X220022Y200690D01*
X220019Y200720D01*
X220020Y200750D01*
X219996Y200918D01*
X219976Y201087D01*
X219967Y201116D01*
X219963Y201146D01*
X219905Y201306D01*
X219852Y201467D01*
X219838Y201493D01*
X219827Y201521D01*
X219739Y201667D01*
X219656Y201814D01*
X219636Y201837D01*
X219620Y201863D01*
X219437Y202074D01*
X219029Y202481D01*
X219029Y211539D01*
X219437Y211946D01*
X219456Y211970D01*
X219479Y211990D01*
X219582Y212124D01*
X219690Y212256D01*
X219704Y212282D01*
X219722Y212306D01*
X219797Y212459D01*
X219876Y212609D01*
X219884Y212638D01*
X219898Y212665D01*
X219940Y212829D01*
X219988Y212992D01*
X219991Y213022D01*
X219998Y213052D01*
X220008Y213220D01*
X220022Y213390D01*
X220019Y213420D01*
X220020Y213450D01*
X219996Y213618D01*
X219976Y213787D01*
X219967Y213816D01*
X219963Y213846D01*
X219905Y214006D01*
X219852Y214167D01*
X219838Y214193D01*
X219827Y214221D01*
X219739Y214367D01*
X219656Y214514D01*
X219636Y214537D01*
X219620Y214563D01*
X219437Y214774D01*
X219029Y215181D01*
X219029Y224239D01*
X219437Y224646D01*
X219456Y224670D01*
X219479Y224690D01*
X219582Y224824D01*
X219690Y224956D01*
X219704Y224982D01*
X219722Y225006D01*
X219797Y225159D01*
X219876Y225309D01*
X219884Y225338D01*
X219898Y225365D01*
X219940Y225529D01*
X219988Y225692D01*
X219991Y225722D01*
X219998Y225752D01*
X220008Y225920D01*
X220022Y226090D01*
X220019Y226120D01*
X220020Y226150D01*
X219996Y226318D01*
X219976Y226487D01*
X219967Y226516D01*
X219963Y226546D01*
X219905Y226706D01*
X219852Y226867D01*
X219838Y226893D01*
X219827Y226921D01*
X219739Y227067D01*
X219656Y227214D01*
X219636Y227237D01*
X219620Y227263D01*
X219437Y227474D01*
X219029Y227881D01*
X219029Y236939D01*
X219437Y237346D01*
X219456Y237370D01*
X219479Y237390D01*
X219582Y237524D01*
X219690Y237656D01*
X219704Y237682D01*
X219722Y237706D01*
X219797Y237859D01*
X219876Y238009D01*
X219884Y238038D01*
X219898Y238065D01*
X219940Y238229D01*
X219988Y238392D01*
X219991Y238422D01*
X219998Y238452D01*
X220008Y238620D01*
X220022Y238790D01*
X220019Y238820D01*
X220020Y238850D01*
X219996Y239018D01*
X219976Y239187D01*
X219967Y239216D01*
X219963Y239246D01*
X219905Y239406D01*
X219852Y239567D01*
X219838Y239593D01*
X219827Y239621D01*
X219739Y239767D01*
X219656Y239914D01*
X219636Y239937D01*
X219620Y239963D01*
X219437Y240174D01*
X219029Y240581D01*
X219029Y249639D01*
X219437Y250046D01*
X219456Y250070D01*
X219479Y250090D01*
X219582Y250224D01*
X219690Y250356D01*
X219704Y250382D01*
X219722Y250406D01*
X219797Y250559D01*
X219876Y250709D01*
X219884Y250738D01*
X219898Y250765D01*
X219940Y250929D01*
X219988Y251092D01*
X219991Y251122D01*
X219998Y251152D01*
X220008Y251320D01*
X220022Y251490D01*
X220019Y251520D01*
X220020Y251550D01*
X219996Y251718D01*
X219976Y251887D01*
X219967Y251916D01*
X219963Y251946D01*
X219905Y252106D01*
X219852Y252267D01*
X219838Y252293D01*
X219827Y252321D01*
X219739Y252467D01*
X219656Y252614D01*
X219636Y252637D01*
X219620Y252663D01*
X219437Y252874D01*
X219029Y253281D01*
X219029Y262339D01*
X219437Y262746D01*
X219456Y262770D01*
X219479Y262790D01*
X219582Y262924D01*
X219690Y263056D01*
X219704Y263082D01*
X219722Y263106D01*
X219797Y263259D01*
X219876Y263409D01*
X219884Y263438D01*
X219898Y263465D01*
X219940Y263629D01*
X219988Y263792D01*
X219991Y263822D01*
X219998Y263852D01*
X220008Y264020D01*
X220022Y264190D01*
X220019Y264220D01*
X220020Y264250D01*
X219996Y264418D01*
X219976Y264587D01*
X219967Y264616D01*
X219963Y264646D01*
X219905Y264806D01*
X219852Y264967D01*
X219838Y264993D01*
X219827Y265021D01*
X219739Y265167D01*
X219656Y265314D01*
X219636Y265337D01*
X219620Y265363D01*
X219437Y265574D01*
X219029Y265981D01*
X219029Y275039D01*
X219437Y275446D01*
X219456Y275470D01*
X219479Y275490D01*
X219582Y275624D01*
X219690Y275756D01*
X219704Y275782D01*
X219722Y275806D01*
X219797Y275959D01*
X219876Y276109D01*
X219884Y276138D01*
X219898Y276165D01*
X219940Y276329D01*
X219988Y276492D01*
X219991Y276522D01*
X219998Y276552D01*
X220008Y276720D01*
X220022Y276890D01*
X220019Y276920D01*
X220020Y276950D01*
X219996Y277118D01*
X219976Y277287D01*
X219967Y277316D01*
X219963Y277346D01*
X219905Y277506D01*
X219852Y277667D01*
X219838Y277693D01*
X219827Y277721D01*
X219739Y277867D01*
X219656Y278014D01*
X219636Y278037D01*
X219620Y278063D01*
X219437Y278274D01*
X219029Y278681D01*
X219029Y287739D01*
X219437Y288146D01*
X219456Y288170D01*
X219479Y288190D01*
X219582Y288324D01*
X219690Y288456D01*
X219704Y288482D01*
X219722Y288506D01*
X219797Y288659D01*
X219876Y288809D01*
X219884Y288838D01*
X219898Y288865D01*
X219940Y289029D01*
X219988Y289192D01*
X219991Y289222D01*
X219998Y289252D01*
X220008Y289420D01*
X220022Y289590D01*
X220019Y289620D01*
X220020Y289650D01*
X219996Y289818D01*
X219976Y289987D01*
X219967Y290016D01*
X219963Y290046D01*
X219905Y290206D01*
X219852Y290367D01*
X219838Y290393D01*
X219827Y290421D01*
X219739Y290567D01*
X219656Y290714D01*
X219636Y290737D01*
X219620Y290763D01*
X219437Y290974D01*
X219029Y291381D01*
X219029Y300439D01*
X219437Y300846D01*
X219456Y300870D01*
X219479Y300890D01*
X219582Y301024D01*
X219690Y301156D01*
X219704Y301182D01*
X219722Y301206D01*
X219797Y301359D01*
X219876Y301509D01*
X219884Y301538D01*
X219898Y301565D01*
X219940Y301729D01*
X219988Y301892D01*
X219991Y301922D01*
X219998Y301952D01*
X220008Y302120D01*
X220022Y302290D01*
X220019Y302320D01*
X220020Y302350D01*
X219996Y302518D01*
X219976Y302687D01*
X219967Y302716D01*
X219963Y302746D01*
X219905Y302906D01*
X219852Y303067D01*
X219838Y303093D01*
X219827Y303121D01*
X219739Y303267D01*
X219656Y303414D01*
X219636Y303437D01*
X219620Y303463D01*
X219437Y303674D01*
X219029Y304081D01*
X219029Y313139D01*
X219437Y313546D01*
X219456Y313570D01*
X219479Y313590D01*
X219582Y313724D01*
X219690Y313856D01*
X219704Y313882D01*
X219722Y313906D01*
X219797Y314059D01*
X219876Y314209D01*
X219884Y314238D01*
X219898Y314265D01*
X219940Y314429D01*
X219988Y314592D01*
X219991Y314622D01*
X219998Y314652D01*
X220008Y314820D01*
X220022Y314990D01*
X220019Y315020D01*
X220020Y315050D01*
X219996Y315218D01*
X219976Y315387D01*
X219967Y315416D01*
X219963Y315446D01*
X219905Y315606D01*
X219852Y315767D01*
X219838Y315793D01*
X219827Y315821D01*
X219739Y315967D01*
X219656Y316114D01*
X219636Y316137D01*
X219620Y316163D01*
X219437Y316374D01*
X219029Y316781D01*
X219029Y325839D01*
X219437Y326246D01*
X219456Y326270D01*
X219479Y326290D01*
X219582Y326424D01*
X219690Y326556D01*
X219704Y326582D01*
X219722Y326606D01*
X219797Y326759D01*
X219876Y326909D01*
X219884Y326938D01*
X219898Y326965D01*
X219940Y327129D01*
X219988Y327292D01*
X219991Y327322D01*
X219998Y327352D01*
X220008Y327520D01*
X220022Y327690D01*
X220019Y327720D01*
X220020Y327750D01*
X219996Y327918D01*
X219976Y328087D01*
X219967Y328116D01*
X219963Y328146D01*
X219905Y328306D01*
X219852Y328467D01*
X219838Y328493D01*
X219827Y328521D01*
X219739Y328667D01*
X219656Y328814D01*
X219636Y328837D01*
X219620Y328863D01*
X219437Y329074D01*
X219029Y329481D01*
X219029Y338539D01*
X219437Y338946D01*
X219456Y338970D01*
X219479Y338990D01*
X219582Y339124D01*
X219690Y339256D01*
X219704Y339282D01*
X219722Y339306D01*
X219797Y339459D01*
X219876Y339609D01*
X219884Y339638D01*
X219898Y339665D01*
X219940Y339829D01*
X219988Y339992D01*
X219991Y340022D01*
X219998Y340052D01*
X220008Y340220D01*
X220022Y340390D01*
X220019Y340420D01*
X220020Y340450D01*
X219996Y340618D01*
X219976Y340787D01*
X219967Y340816D01*
X219963Y340846D01*
X219905Y341006D01*
X219852Y341167D01*
X219838Y341193D01*
X219827Y341221D01*
X219739Y341367D01*
X219656Y341514D01*
X219636Y341537D01*
X219620Y341563D01*
X219437Y341774D01*
X219029Y342181D01*
X219029Y351239D01*
X219437Y351646D01*
X219456Y351670D01*
X219479Y351690D01*
X219582Y351824D01*
X219690Y351956D01*
X219704Y351982D01*
X219722Y352006D01*
X219797Y352159D01*
X219876Y352309D01*
X219884Y352338D01*
X219898Y352365D01*
X219940Y352529D01*
X219988Y352692D01*
X219991Y352722D01*
X219998Y352752D01*
X220008Y352920D01*
X220022Y353090D01*
X220019Y353120D01*
X220020Y353150D01*
X219996Y353318D01*
X219976Y353487D01*
X219967Y353516D01*
X219963Y353546D01*
X219905Y353706D01*
X219852Y353867D01*
X219838Y353893D01*
X219827Y353921D01*
X219739Y354067D01*
X219656Y354214D01*
X219636Y354237D01*
X219620Y354263D01*
X219437Y354474D01*
X219029Y354881D01*
X219029Y363939D01*
X219437Y364346D01*
X219456Y364370D01*
X219479Y364390D01*
X219582Y364524D01*
X219690Y364656D01*
X219704Y364682D01*
X219722Y364706D01*
X219797Y364859D01*
X219876Y365009D01*
X219884Y365038D01*
X219898Y365065D01*
X219940Y365229D01*
X219988Y365392D01*
X219991Y365422D01*
X219998Y365452D01*
X220008Y365620D01*
X220022Y365790D01*
X220019Y365820D01*
X220020Y365850D01*
X219996Y366018D01*
X219976Y366187D01*
X219967Y366216D01*
X219963Y366246D01*
X219905Y366406D01*
X219852Y366567D01*
X219838Y366593D01*
X219827Y366621D01*
X219739Y366767D01*
X219656Y366914D01*
X219636Y366937D01*
X219620Y366963D01*
X219437Y367174D01*
X219029Y367581D01*
X219029Y376639D01*
X219437Y377046D01*
X219456Y377070D01*
X219479Y377090D01*
X219582Y377224D01*
X219690Y377356D01*
X219704Y377382D01*
X219722Y377406D01*
X219797Y377559D01*
X219876Y377709D01*
X219884Y377738D01*
X219898Y377765D01*
X219940Y377929D01*
X219988Y378092D01*
X219991Y378122D01*
X219998Y378152D01*
X220008Y378320D01*
X220022Y378490D01*
X220019Y378520D01*
X220020Y378550D01*
X219996Y378718D01*
X219976Y378887D01*
X219967Y378916D01*
X219963Y378946D01*
X219905Y379106D01*
X219852Y379267D01*
X219838Y379293D01*
X219827Y379321D01*
X219739Y379467D01*
X219656Y379614D01*
X219636Y379637D01*
X219620Y379663D01*
X219437Y379874D01*
X219029Y380281D01*
X219029Y389339D01*
X220201Y390511D01*
X249759Y390511D01*
X250931Y389339D01*
X250931Y380281D01*
X250523Y379874D01*
X250504Y379850D01*
X250481Y379830D01*
X250378Y379696D01*
X250270Y379564D01*
X250256Y379538D01*
X250238Y379514D01*
X250163Y379361D01*
X250084Y379211D01*
X250076Y379182D01*
X250062Y379155D01*
X250019Y378990D01*
X249972Y378828D01*
X249969Y378798D01*
X249961Y378768D01*
X249952Y378599D01*
X249938Y378430D01*
X249941Y378400D01*
X249940Y378370D01*
X249964Y378202D01*
X249984Y378033D01*
X249993Y378004D01*
X249997Y377974D01*
X250055Y377815D01*
X250108Y377653D01*
X250122Y377627D01*
X250133Y377598D01*
X250221Y377453D01*
X250304Y377306D01*
X250324Y377283D01*
X250340Y377257D01*
X250523Y377046D01*
X250931Y376639D01*
X250931Y367581D01*
X250523Y367174D01*
X250504Y367150D01*
X250481Y367130D01*
X250378Y366996D01*
X250270Y366864D01*
X250256Y366838D01*
X250238Y366814D01*
X250163Y366661D01*
X250084Y366511D01*
X250076Y366482D01*
X250062Y366455D01*
X250019Y366290D01*
X249972Y366128D01*
X249969Y366098D01*
X249961Y366068D01*
X249952Y365899D01*
X249938Y365730D01*
X249941Y365700D01*
X249940Y365670D01*
X249964Y365502D01*
X249984Y365333D01*
X249993Y365304D01*
X249997Y365274D01*
X250055Y365115D01*
X250108Y364953D01*
X250122Y364927D01*
X250133Y364898D01*
X250221Y364753D01*
X250304Y364606D01*
X250324Y364583D01*
X250340Y364557D01*
X250523Y364346D01*
X251272Y363597D01*
X251280Y363583D01*
X251300Y363559D01*
X251315Y363533D01*
X251428Y363407D01*
X251538Y363277D01*
X251561Y363258D01*
X251582Y363236D01*
X251718Y363134D01*
X251851Y363029D01*
X251878Y363015D01*
X251902Y362997D01*
X252055Y362925D01*
X252207Y362848D01*
X252236Y362840D01*
X252263Y362827D01*
X252429Y362787D01*
X252592Y362742D01*
X252622Y362739D01*
X252651Y362732D01*
X252930Y362713D01*
X253379Y362713D01*
X256342Y359750D01*
X256377Y359721D01*
X256407Y359687D01*
X256531Y359595D01*
X256651Y359497D01*
X256691Y359476D01*
X256727Y359449D01*
X256867Y359383D01*
X257004Y359311D01*
X257048Y359298D01*
X257089Y359279D01*
X257239Y359242D01*
X257387Y359198D01*
X257433Y359194D01*
X257477Y359184D01*
X257755Y359164D01*
X258959Y359164D01*
X261014Y358313D01*
X262587Y356740D01*
X263438Y354685D01*
X263438Y353274D01*
X263439Y353267D01*
X263438Y353259D01*
X263459Y353068D01*
X263478Y352877D01*
X263480Y352869D01*
X263481Y352862D01*
X263539Y352680D01*
X263596Y352495D01*
X263600Y352488D01*
X263602Y352481D01*
X263694Y352315D01*
X263787Y352145D01*
X263792Y352139D01*
X263796Y352132D01*
X263922Y351985D01*
X264045Y351839D01*
X264051Y351835D01*
X264056Y351829D01*
X264208Y351710D01*
X264358Y351591D01*
X264365Y351588D01*
X264371Y351583D01*
X264542Y351498D01*
X264714Y351410D01*
X264721Y351408D01*
X264728Y351405D01*
X264913Y351355D01*
X265099Y351304D01*
X265107Y351303D01*
X265114Y351301D01*
X265304Y351289D01*
X265497Y351276D01*
X265505Y351277D01*
X265513Y351276D01*
X265702Y351303D01*
X265893Y351328D01*
X265901Y351330D01*
X265908Y351331D01*
X266089Y351395D01*
X266271Y351457D01*
X266278Y351461D01*
X266285Y351464D01*
X266449Y351562D01*
X266616Y351659D01*
X266621Y351664D01*
X266628Y351668D01*
X266770Y351797D01*
X266913Y351926D01*
X266918Y351932D01*
X266923Y351937D01*
X267036Y352091D01*
X267152Y352246D01*
X267155Y352253D01*
X267160Y352259D01*
X267284Y352509D01*
X267595Y353259D01*
X269167Y354831D01*
X271222Y355682D01*
X273446Y355682D01*
X275501Y354831D01*
X277074Y353258D01*
X277925Y351204D01*
X277925Y348980D01*
X277074Y346925D01*
X275501Y345352D01*
X273446Y344501D01*
X272242Y344501D01*
X272197Y344496D01*
X272152Y344499D01*
X271999Y344476D01*
X271845Y344461D01*
X271802Y344448D01*
X271757Y344441D01*
X271611Y344389D01*
X271463Y344343D01*
X271423Y344321D01*
X271381Y344306D01*
X271249Y344226D01*
X271113Y344151D01*
X271078Y344122D01*
X271039Y344098D01*
X270829Y343915D01*
X265503Y338590D01*
X252930Y338590D01*
X252900Y338587D01*
X252870Y338589D01*
X252701Y338567D01*
X252533Y338550D01*
X252504Y338541D01*
X252474Y338537D01*
X252313Y338482D01*
X252151Y338432D01*
X252124Y338417D01*
X252096Y338407D01*
X251950Y338322D01*
X251801Y338240D01*
X251777Y338221D01*
X251751Y338205D01*
X251625Y338092D01*
X251495Y337983D01*
X251476Y337959D01*
X251454Y337939D01*
X251353Y337803D01*
X251247Y337670D01*
X251233Y337643D01*
X251215Y337618D01*
X251143Y337465D01*
X251066Y337314D01*
X251058Y337284D01*
X251045Y337257D01*
X251005Y337092D01*
X250960Y336929D01*
X250957Y336898D01*
X250950Y336869D01*
X250931Y336590D01*
X250931Y329481D01*
X250523Y329074D01*
X250504Y329050D01*
X250481Y329030D01*
X250378Y328896D01*
X250270Y328764D01*
X250256Y328738D01*
X250238Y328714D01*
X250163Y328561D01*
X250084Y328411D01*
X250076Y328382D01*
X250062Y328355D01*
X250019Y328190D01*
X249972Y328028D01*
X249969Y327998D01*
X249961Y327968D01*
X249952Y327799D01*
X249938Y327630D01*
X249941Y327600D01*
X249940Y327570D01*
X249964Y327402D01*
X249984Y327233D01*
X249993Y327204D01*
X249997Y327174D01*
X250055Y327015D01*
X250108Y326853D01*
X250122Y326827D01*
X250133Y326798D01*
X250221Y326653D01*
X250304Y326506D01*
X250324Y326483D01*
X250340Y326457D01*
X250523Y326246D01*
X250931Y325839D01*
X250931Y316781D01*
X250523Y316374D01*
X250504Y316350D01*
X250481Y316330D01*
X250378Y316196D01*
X250270Y316064D01*
X250256Y316038D01*
X250238Y316014D01*
X250163Y315861D01*
X250084Y315711D01*
X250076Y315682D01*
X250062Y315655D01*
X250019Y315490D01*
X249972Y315328D01*
X249969Y315298D01*
X249961Y315268D01*
X249952Y315099D01*
X249938Y314930D01*
X249941Y314900D01*
X249940Y314870D01*
X249964Y314702D01*
X249984Y314533D01*
X249993Y314504D01*
X249997Y314474D01*
X250055Y314315D01*
X250108Y314153D01*
X250122Y314127D01*
X250133Y314098D01*
X250221Y313953D01*
X250304Y313806D01*
X250324Y313783D01*
X250340Y313757D01*
X250523Y313546D01*
X250931Y313139D01*
X250931Y304081D01*
X250523Y303674D01*
X250504Y303650D01*
X250481Y303630D01*
X250378Y303496D01*
X250270Y303364D01*
X250256Y303338D01*
X250238Y303314D01*
X250163Y303161D01*
X250084Y303011D01*
X250076Y302982D01*
X250062Y302955D01*
X250019Y302790D01*
X249972Y302628D01*
X249969Y302598D01*
X249961Y302568D01*
X249952Y302399D01*
X249938Y302230D01*
X249941Y302200D01*
X249940Y302170D01*
X249964Y302002D01*
X249984Y301833D01*
X249993Y301804D01*
X249997Y301774D01*
X250055Y301615D01*
X250108Y301453D01*
X250122Y301427D01*
X250133Y301398D01*
X250221Y301253D01*
X250304Y301106D01*
X250324Y301083D01*
X250340Y301057D01*
X250523Y300846D01*
X250931Y300439D01*
X250931Y291381D01*
X250523Y290974D01*
X250504Y290950D01*
X250481Y290930D01*
X250378Y290796D01*
X250270Y290664D01*
X250256Y290638D01*
X250238Y290614D01*
X250163Y290461D01*
X250084Y290311D01*
X250076Y290282D01*
X250062Y290255D01*
X250019Y290090D01*
X249972Y289928D01*
X249969Y289898D01*
X249961Y289868D01*
X249952Y289699D01*
X249938Y289530D01*
X249941Y289500D01*
X249940Y289470D01*
X249964Y289302D01*
X249984Y289133D01*
X249993Y289104D01*
X249997Y289074D01*
X250055Y288915D01*
X250108Y288753D01*
X250122Y288727D01*
X250133Y288698D01*
X250221Y288553D01*
X250304Y288406D01*
X250324Y288383D01*
X250340Y288357D01*
X250523Y288146D01*
X250931Y287739D01*
X250931Y278681D01*
X250523Y278274D01*
X250504Y278250D01*
X250481Y278230D01*
X250378Y278096D01*
X250270Y277964D01*
X250256Y277938D01*
X250238Y277914D01*
X250163Y277761D01*
X250084Y277611D01*
X250076Y277582D01*
X250062Y277555D01*
X250019Y277390D01*
X249972Y277228D01*
X249969Y277198D01*
X249961Y277168D01*
X249952Y276999D01*
X249938Y276830D01*
X249941Y276800D01*
X249940Y276770D01*
X249964Y276602D01*
X249984Y276433D01*
X249993Y276404D01*
X249997Y276374D01*
X250055Y276215D01*
X250108Y276053D01*
X250122Y276027D01*
X250133Y275998D01*
X250221Y275853D01*
X250304Y275706D01*
X250324Y275683D01*
X250340Y275657D01*
X250523Y275446D01*
X250931Y275039D01*
X250931Y265981D01*
X250523Y265574D01*
X250504Y265550D01*
X250481Y265530D01*
X250378Y265396D01*
X250270Y265264D01*
X250256Y265238D01*
X250238Y265214D01*
X250163Y265061D01*
X250084Y264911D01*
X250076Y264882D01*
X250062Y264855D01*
X250019Y264690D01*
X249972Y264528D01*
X249969Y264498D01*
X249961Y264468D01*
X249952Y264299D01*
X249938Y264130D01*
X249941Y264100D01*
X249940Y264070D01*
X249964Y263902D01*
X249984Y263733D01*
X249993Y263704D01*
X249997Y263674D01*
X250055Y263515D01*
X250108Y263353D01*
X250122Y263327D01*
X250133Y263298D01*
X250221Y263153D01*
X250304Y263006D01*
X250324Y262983D01*
X250340Y262957D01*
X250523Y262746D01*
X250931Y262339D01*
X250931Y253281D01*
X250523Y252874D01*
X250504Y252850D01*
X250481Y252830D01*
X250378Y252696D01*
X250270Y252564D01*
X250256Y252538D01*
X250238Y252514D01*
X250163Y252361D01*
X250084Y252211D01*
X250076Y252182D01*
X250062Y252155D01*
X250019Y251990D01*
X249972Y251828D01*
X249969Y251798D01*
X249961Y251768D01*
X249952Y251599D01*
X249938Y251430D01*
X249941Y251400D01*
X249940Y251370D01*
X249964Y251202D01*
X249984Y251033D01*
X249993Y251004D01*
X249997Y250974D01*
X250055Y250815D01*
X250108Y250653D01*
X250122Y250627D01*
X250133Y250598D01*
X250221Y250453D01*
X250304Y250306D01*
X250324Y250283D01*
X250340Y250257D01*
X250523Y250046D01*
X250931Y249639D01*
X250931Y240581D01*
X250523Y240174D01*
X250504Y240150D01*
X250481Y240130D01*
X250378Y239996D01*
X250270Y239864D01*
X250256Y239838D01*
X250238Y239814D01*
X250163Y239661D01*
X250084Y239511D01*
X250076Y239482D01*
X250062Y239455D01*
X250019Y239290D01*
X249972Y239128D01*
X249969Y239098D01*
X249961Y239068D01*
X249952Y238899D01*
X249938Y238730D01*
X249941Y238700D01*
X249940Y238670D01*
X249964Y238502D01*
X249984Y238333D01*
X249993Y238304D01*
X249997Y238274D01*
X250055Y238115D01*
X250108Y237953D01*
X250122Y237927D01*
X250133Y237898D01*
X250221Y237753D01*
X250304Y237606D01*
X250324Y237583D01*
X250340Y237557D01*
X250523Y237346D01*
X250931Y236939D01*
X250931Y227881D01*
X250523Y227474D01*
X250504Y227450D01*
X250481Y227430D01*
X250377Y227295D01*
X250270Y227164D01*
X250256Y227138D01*
X250238Y227114D01*
X250163Y226961D01*
X250084Y226811D01*
X250076Y226782D01*
X250062Y226755D01*
X250019Y226590D01*
X249972Y226428D01*
X249969Y226398D01*
X249961Y226368D01*
X249952Y226199D01*
X249938Y226030D01*
X249941Y226000D01*
X249940Y225970D01*
X249964Y225802D01*
X249984Y225633D01*
X249993Y225604D01*
X249997Y225574D01*
X250055Y225415D01*
X250108Y225253D01*
X250122Y225227D01*
X250133Y225198D01*
X250221Y225053D01*
X250304Y224906D01*
X250324Y224883D01*
X250340Y224857D01*
X250523Y224646D01*
X250931Y224239D01*
X250931Y215181D01*
X250523Y214774D01*
X250504Y214750D01*
X250481Y214730D01*
X250378Y214596D01*
X250270Y214464D01*
X250256Y214438D01*
X250238Y214414D01*
X250163Y214261D01*
X250084Y214111D01*
X250076Y214082D01*
X250062Y214055D01*
X250019Y213890D01*
X249972Y213728D01*
X249969Y213698D01*
X249961Y213668D01*
X249952Y213499D01*
X249938Y213330D01*
X249941Y213300D01*
X249940Y213270D01*
X249964Y213101D01*
X249984Y212933D01*
X249993Y212904D01*
X249997Y212874D01*
X250055Y212715D01*
X250108Y212553D01*
X250122Y212527D01*
X250133Y212498D01*
X250221Y212353D01*
X250304Y212206D01*
X250324Y212183D01*
X250340Y212157D01*
X250523Y211946D01*
X250931Y211539D01*
X250931Y202481D01*
X250523Y202074D01*
X250504Y202050D01*
X250481Y202030D01*
X250378Y201896D01*
X250270Y201764D01*
X250256Y201738D01*
X250238Y201714D01*
X250163Y201561D01*
X250084Y201411D01*
X250076Y201382D01*
X250062Y201355D01*
X250019Y201190D01*
X249972Y201028D01*
X249969Y200998D01*
X249961Y200968D01*
X249952Y200799D01*
X249938Y200630D01*
X249941Y200600D01*
X249940Y200570D01*
X249964Y200402D01*
X249984Y200233D01*
X249993Y200204D01*
X249997Y200174D01*
X250055Y200015D01*
X250108Y199853D01*
X250122Y199827D01*
X250133Y199798D01*
X250221Y199653D01*
X250304Y199506D01*
X250324Y199483D01*
X250340Y199457D01*
X250523Y199246D01*
X250931Y198839D01*
X250931Y189781D01*
X250523Y189374D01*
X250504Y189350D01*
X250481Y189330D01*
X250378Y189196D01*
X250270Y189064D01*
X250256Y189038D01*
X250238Y189014D01*
X250163Y188861D01*
X250084Y188711D01*
X250076Y188682D01*
X250062Y188655D01*
X250019Y188490D01*
X249972Y188328D01*
X249969Y188298D01*
X249961Y188268D01*
X249952Y188099D01*
X249938Y187930D01*
X249941Y187900D01*
X249940Y187870D01*
X249964Y187702D01*
X249984Y187533D01*
X249993Y187504D01*
X249997Y187474D01*
X250055Y187315D01*
X250108Y187153D01*
X250122Y187127D01*
X250133Y187098D01*
X250221Y186953D01*
X250304Y186806D01*
X250324Y186783D01*
X250340Y186757D01*
X250523Y186546D01*
X250931Y186139D01*
X250931Y178033D01*
X250935Y177996D01*
X250932Y177958D01*
X250954Y177797D01*
X250971Y177636D01*
X250982Y177600D01*
X250987Y177562D01*
X251041Y177409D01*
X251089Y177254D01*
X251107Y177221D01*
X251119Y177185D01*
X251202Y177046D01*
X251280Y176904D01*
X251305Y176875D01*
X251324Y176842D01*
X251433Y176723D01*
X251538Y176598D01*
X251567Y176575D01*
X251593Y176547D01*
X251724Y176451D01*
X251851Y176350D01*
X251884Y176333D01*
X251915Y176311D01*
X252165Y176186D01*
X254768Y175108D01*
X256737Y173139D01*
X257803Y170566D01*
X257803Y167833D01*
X257807Y167796D01*
X257804Y167758D01*
X257827Y167597D01*
X257843Y167436D01*
X257854Y167400D01*
X257859Y167362D01*
X257913Y167209D01*
X257961Y167054D01*
X257979Y167021D01*
X257991Y166985D01*
X258074Y166846D01*
X258152Y166704D01*
X258177Y166675D01*
X258196Y166642D01*
X258305Y166522D01*
X258410Y166398D01*
X258440Y166375D01*
X258465Y166347D01*
X258596Y166251D01*
X258723Y166150D01*
X258757Y166133D01*
X258787Y166111D01*
X259037Y165986D01*
X260948Y165194D01*
X262521Y163622D01*
X263372Y161567D01*
X263372Y159343D01*
X262521Y157288D01*
X261954Y156720D01*
X261934Y156697D01*
X261912Y156677D01*
X261808Y156542D01*
X261701Y156411D01*
X261687Y156384D01*
X261668Y156360D01*
X261594Y156208D01*
X261515Y156058D01*
X261506Y156029D01*
X261493Y156002D01*
X261450Y155838D01*
X261402Y155675D01*
X261400Y155644D01*
X261392Y155615D01*
X261383Y155446D01*
X261368Y155277D01*
X261372Y155246D01*
X261370Y155216D01*
X261395Y155048D01*
X261414Y154880D01*
X261424Y154851D01*
X261428Y154821D01*
X261486Y154661D01*
X261538Y154500D01*
X261553Y154474D01*
X261563Y154445D01*
X261651Y154300D01*
X261735Y154153D01*
X261755Y154130D01*
X261770Y154104D01*
X261954Y153893D01*
X262070Y153776D01*
X262921Y151722D01*
X262921Y149497D01*
X262070Y147443D01*
X260498Y145870D01*
X258443Y145019D01*
X256219Y145019D01*
G37*
%LPD*%
%LPC*%
G36*
X797017Y219729D02*
X797017Y219729D01*
X794962Y220581D01*
X793390Y222153D01*
X792539Y224208D01*
X792539Y226432D01*
X793390Y228487D01*
X794964Y230061D01*
X794967Y230062D01*
X795121Y230150D01*
X795278Y230233D01*
X795295Y230248D01*
X795315Y230259D01*
X795448Y230375D01*
X795585Y230489D01*
X795599Y230506D01*
X795616Y230521D01*
X795724Y230661D01*
X795835Y230800D01*
X795846Y230820D01*
X795860Y230838D01*
X795937Y230997D01*
X796019Y231154D01*
X796025Y231176D01*
X796035Y231197D01*
X796080Y231367D01*
X796129Y231539D01*
X796130Y231561D01*
X796136Y231583D01*
X796146Y231759D01*
X796159Y231937D01*
X796157Y231959D01*
X796158Y231982D01*
X796132Y232156D01*
X796111Y232333D01*
X796103Y232355D01*
X796100Y232377D01*
X796040Y232543D01*
X795984Y232712D01*
X795972Y232732D01*
X795965Y232753D01*
X795873Y232904D01*
X795784Y233058D01*
X795769Y233075D01*
X795758Y233095D01*
X795574Y233305D01*
X794170Y234710D01*
X793318Y236765D01*
X793318Y238989D01*
X794170Y241044D01*
X795744Y242618D01*
X795747Y242619D01*
X795902Y242707D01*
X796058Y242790D01*
X796075Y242805D01*
X796095Y242816D01*
X796228Y242932D01*
X796365Y243046D01*
X796379Y243063D01*
X796396Y243078D01*
X796504Y243218D01*
X796615Y243357D01*
X796626Y243377D01*
X796640Y243395D01*
X796717Y243554D01*
X796799Y243711D01*
X796805Y243733D01*
X796815Y243754D01*
X796860Y243924D01*
X796908Y244095D01*
X796910Y244118D01*
X796916Y244140D01*
X796926Y244316D01*
X796939Y244494D01*
X796937Y244516D01*
X796938Y244539D01*
X796912Y244714D01*
X796890Y244890D01*
X796883Y244912D01*
X796880Y244934D01*
X796820Y245100D01*
X796764Y245269D01*
X796752Y245289D01*
X796745Y245310D01*
X796653Y245461D01*
X796564Y245615D01*
X796549Y245632D01*
X796537Y245651D01*
X796354Y245862D01*
X794950Y247267D01*
X794098Y249322D01*
X794098Y251546D01*
X794949Y253601D01*
X796522Y255173D01*
X798577Y256025D01*
X800679Y256025D01*
X800694Y256026D01*
X800710Y256025D01*
X800894Y256046D01*
X801077Y256064D01*
X801091Y256069D01*
X801106Y256071D01*
X801282Y256128D01*
X801458Y256183D01*
X801472Y256190D01*
X801486Y256195D01*
X801647Y256286D01*
X801809Y256374D01*
X801820Y256384D01*
X801834Y256391D01*
X801973Y256513D01*
X802114Y256632D01*
X802124Y256643D01*
X802135Y256653D01*
X802248Y256800D01*
X802362Y256945D01*
X802369Y256958D01*
X802378Y256970D01*
X802459Y257135D01*
X802543Y257301D01*
X802547Y257315D01*
X802554Y257329D01*
X802601Y257509D01*
X802650Y257686D01*
X802651Y257701D01*
X802655Y257715D01*
X802665Y257900D01*
X802678Y258084D01*
X802676Y258099D01*
X802677Y258114D01*
X802650Y258296D01*
X802626Y258480D01*
X802621Y258495D01*
X802619Y258510D01*
X802556Y258683D01*
X802496Y258858D01*
X802489Y258871D01*
X802483Y258885D01*
X802388Y259043D01*
X802294Y259203D01*
X802284Y259214D01*
X802276Y259227D01*
X802093Y259438D01*
X801899Y259631D01*
X801899Y268689D01*
X802307Y269096D01*
X802326Y269120D01*
X802349Y269140D01*
X802452Y269274D01*
X802560Y269406D01*
X802574Y269432D01*
X802592Y269456D01*
X802667Y269609D01*
X802746Y269759D01*
X802754Y269788D01*
X802768Y269815D01*
X802810Y269979D01*
X802858Y270142D01*
X802861Y270172D01*
X802868Y270202D01*
X802878Y270370D01*
X802892Y270540D01*
X802889Y270570D01*
X802890Y270600D01*
X802866Y270768D01*
X802846Y270937D01*
X802837Y270966D01*
X802833Y270996D01*
X802775Y271156D01*
X802722Y271317D01*
X802708Y271343D01*
X802697Y271371D01*
X802609Y271517D01*
X802526Y271664D01*
X802506Y271687D01*
X802490Y271713D01*
X802307Y271924D01*
X801899Y272331D01*
X801899Y281389D01*
X802307Y281796D01*
X802326Y281820D01*
X802349Y281840D01*
X802452Y281974D01*
X802560Y282106D01*
X802574Y282132D01*
X802592Y282156D01*
X802667Y282309D01*
X802746Y282459D01*
X802754Y282488D01*
X802768Y282515D01*
X802810Y282679D01*
X802858Y282842D01*
X802861Y282872D01*
X802868Y282902D01*
X802878Y283070D01*
X802892Y283240D01*
X802889Y283270D01*
X802890Y283300D01*
X802866Y283468D01*
X802846Y283637D01*
X802837Y283666D01*
X802833Y283696D01*
X802775Y283856D01*
X802722Y284017D01*
X802708Y284043D01*
X802697Y284071D01*
X802609Y284217D01*
X802526Y284364D01*
X802506Y284387D01*
X802490Y284413D01*
X802307Y284624D01*
X801899Y285031D01*
X801899Y294089D01*
X802150Y294339D01*
X802160Y294351D01*
X802171Y294361D01*
X802286Y294506D01*
X802403Y294649D01*
X802410Y294662D01*
X802419Y294674D01*
X802503Y294839D01*
X802589Y295002D01*
X802593Y295017D01*
X802600Y295030D01*
X802649Y295207D01*
X802701Y295385D01*
X802703Y295401D01*
X802707Y295415D01*
X802720Y295598D01*
X802735Y295783D01*
X802734Y295798D01*
X802735Y295813D01*
X802711Y295997D01*
X802689Y296180D01*
X802685Y296194D01*
X802683Y296209D01*
X802623Y296384D01*
X802566Y296560D01*
X802558Y296573D01*
X802553Y296587D01*
X802460Y296746D01*
X802369Y296907D01*
X802359Y296919D01*
X802351Y296932D01*
X802228Y297070D01*
X802107Y297209D01*
X802095Y297218D01*
X802085Y297229D01*
X801936Y297340D01*
X801790Y297452D01*
X801776Y297459D01*
X801764Y297468D01*
X801597Y297546D01*
X801431Y297628D01*
X801417Y297632D01*
X801403Y297638D01*
X801347Y297652D01*
X799049Y298604D01*
X797476Y300176D01*
X796625Y302231D01*
X796625Y304455D01*
X797476Y306510D01*
X799049Y308083D01*
X800665Y308752D01*
X800698Y308770D01*
X800734Y308782D01*
X800874Y308864D01*
X801017Y308941D01*
X801046Y308965D01*
X801079Y308984D01*
X801200Y309093D01*
X801324Y309196D01*
X801348Y309226D01*
X801376Y309251D01*
X801473Y309381D01*
X801575Y309507D01*
X801592Y309541D01*
X801615Y309571D01*
X801684Y309718D01*
X801758Y309862D01*
X801769Y309898D01*
X801785Y309933D01*
X801823Y310090D01*
X801868Y310246D01*
X801871Y310284D01*
X801880Y310321D01*
X801899Y310599D01*
X801899Y319489D01*
X803071Y320661D01*
X806153Y320661D01*
X806191Y320665D01*
X806229Y320662D01*
X806389Y320684D01*
X806551Y320701D01*
X806587Y320712D01*
X806624Y320717D01*
X806777Y320771D01*
X806932Y320819D01*
X806965Y320837D01*
X807001Y320849D01*
X807140Y320932D01*
X807283Y321010D01*
X807312Y321035D01*
X807344Y321054D01*
X807464Y321163D01*
X807588Y321268D01*
X807612Y321297D01*
X807639Y321323D01*
X807735Y321453D01*
X807836Y321581D01*
X807853Y321615D01*
X807876Y321645D01*
X808000Y321895D01*
X808503Y323108D01*
X810075Y324680D01*
X812130Y325531D01*
X814354Y325531D01*
X816409Y324680D01*
X817982Y323108D01*
X818484Y321895D01*
X818502Y321862D01*
X818514Y321826D01*
X818596Y321686D01*
X818673Y321543D01*
X818697Y321514D01*
X818716Y321481D01*
X818824Y321361D01*
X818928Y321236D01*
X818958Y321212D01*
X818983Y321184D01*
X819113Y321087D01*
X819239Y320985D01*
X819273Y320968D01*
X819303Y320945D01*
X819450Y320876D01*
X819594Y320802D01*
X819630Y320791D01*
X819665Y320775D01*
X819822Y320737D01*
X819978Y320692D01*
X820016Y320689D01*
X820053Y320680D01*
X820331Y320661D01*
X832629Y320661D01*
X833815Y319475D01*
X833823Y319409D01*
X833841Y319233D01*
X833847Y319211D01*
X833850Y319189D01*
X833906Y319020D01*
X833959Y318851D01*
X833970Y318831D01*
X833977Y318810D01*
X834065Y318657D01*
X834150Y318501D01*
X834165Y318483D01*
X834176Y318464D01*
X834294Y318331D01*
X834408Y318196D01*
X834426Y318181D01*
X834441Y318164D01*
X834582Y318058D01*
X834721Y317947D01*
X834741Y317937D01*
X834759Y317923D01*
X834919Y317847D01*
X835077Y317766D01*
X835099Y317760D01*
X835119Y317751D01*
X835292Y317707D01*
X835462Y317660D01*
X835485Y317658D01*
X835507Y317653D01*
X835683Y317644D01*
X835860Y317632D01*
X835883Y317635D01*
X835906Y317634D01*
X836081Y317661D01*
X836256Y317684D01*
X836278Y317691D01*
X836300Y317695D01*
X836348Y317711D01*
X840010Y317711D01*
X843355Y316325D01*
X845915Y313765D01*
X847301Y310420D01*
X847301Y306800D01*
X845915Y303455D01*
X843355Y300895D01*
X840010Y299509D01*
X836324Y299509D01*
X836183Y299552D01*
X836160Y299554D01*
X836138Y299560D01*
X835962Y299572D01*
X835785Y299589D01*
X835762Y299586D01*
X835740Y299588D01*
X835564Y299565D01*
X835388Y299546D01*
X835366Y299539D01*
X835344Y299536D01*
X835176Y299479D01*
X835007Y299425D01*
X834987Y299414D01*
X834966Y299407D01*
X834813Y299317D01*
X834658Y299231D01*
X834641Y299216D01*
X834621Y299204D01*
X834490Y299086D01*
X834355Y298971D01*
X834341Y298953D01*
X834324Y298938D01*
X834218Y298796D01*
X834109Y298656D01*
X834099Y298636D01*
X834085Y298618D01*
X834010Y298457D01*
X833931Y298299D01*
X833925Y298277D01*
X833915Y298256D01*
X833873Y298084D01*
X833827Y297913D01*
X833826Y297890D01*
X833820Y297868D01*
X833811Y297742D01*
X833393Y297324D01*
X833374Y297300D01*
X833351Y297280D01*
X833247Y297145D01*
X833140Y297014D01*
X833126Y296988D01*
X833108Y296964D01*
X833033Y296811D01*
X832954Y296661D01*
X832946Y296632D01*
X832932Y296605D01*
X832889Y296440D01*
X832842Y296278D01*
X832839Y296248D01*
X832831Y296218D01*
X832822Y296049D01*
X832808Y295880D01*
X832811Y295850D01*
X832810Y295820D01*
X832834Y295652D01*
X832854Y295483D01*
X832863Y295454D01*
X832867Y295424D01*
X832925Y295265D01*
X832978Y295103D01*
X832992Y295077D01*
X833003Y295048D01*
X833091Y294903D01*
X833174Y294756D01*
X833194Y294733D01*
X833210Y294707D01*
X833393Y294496D01*
X833801Y294089D01*
X833801Y285031D01*
X833393Y284624D01*
X833374Y284600D01*
X833351Y284580D01*
X833248Y284446D01*
X833140Y284314D01*
X833126Y284288D01*
X833108Y284264D01*
X833033Y284111D01*
X832954Y283961D01*
X832946Y283932D01*
X832932Y283905D01*
X832889Y283740D01*
X832842Y283578D01*
X832839Y283548D01*
X832831Y283518D01*
X832822Y283349D01*
X832808Y283180D01*
X832811Y283150D01*
X832810Y283120D01*
X832834Y282952D01*
X832854Y282783D01*
X832863Y282754D01*
X832867Y282724D01*
X832925Y282565D01*
X832978Y282403D01*
X832992Y282377D01*
X833003Y282348D01*
X833091Y282203D01*
X833174Y282056D01*
X833194Y282033D01*
X833210Y282007D01*
X833393Y281796D01*
X833801Y281389D01*
X833801Y272331D01*
X833393Y271924D01*
X833374Y271900D01*
X833351Y271880D01*
X833248Y271746D01*
X833140Y271614D01*
X833126Y271588D01*
X833108Y271564D01*
X833033Y271411D01*
X832954Y271261D01*
X832946Y271232D01*
X832932Y271205D01*
X832889Y271040D01*
X832842Y270878D01*
X832839Y270848D01*
X832831Y270818D01*
X832822Y270649D01*
X832808Y270480D01*
X832811Y270450D01*
X832810Y270420D01*
X832834Y270252D01*
X832854Y270083D01*
X832863Y270054D01*
X832867Y270024D01*
X832925Y269865D01*
X832978Y269703D01*
X832992Y269677D01*
X833003Y269648D01*
X833091Y269503D01*
X833174Y269356D01*
X833194Y269333D01*
X833210Y269307D01*
X833393Y269096D01*
X833801Y268689D01*
X833801Y259631D01*
X833393Y259224D01*
X833374Y259200D01*
X833351Y259180D01*
X833248Y259046D01*
X833140Y258914D01*
X833126Y258888D01*
X833108Y258864D01*
X833033Y258711D01*
X832954Y258561D01*
X832946Y258532D01*
X832932Y258505D01*
X832889Y258340D01*
X832842Y258178D01*
X832839Y258148D01*
X832831Y258118D01*
X832822Y257949D01*
X832808Y257780D01*
X832811Y257750D01*
X832810Y257720D01*
X832834Y257552D01*
X832854Y257383D01*
X832863Y257354D01*
X832867Y257324D01*
X832925Y257165D01*
X832978Y257003D01*
X832992Y256977D01*
X833003Y256948D01*
X833091Y256803D01*
X833174Y256656D01*
X833194Y256633D01*
X833210Y256607D01*
X833393Y256396D01*
X833801Y255989D01*
X833801Y246931D01*
X833393Y246524D01*
X833374Y246500D01*
X833351Y246480D01*
X833248Y246346D01*
X833140Y246214D01*
X833126Y246188D01*
X833108Y246164D01*
X833033Y246011D01*
X832954Y245861D01*
X832946Y245832D01*
X832932Y245805D01*
X832889Y245640D01*
X832842Y245478D01*
X832839Y245448D01*
X832831Y245418D01*
X832822Y245249D01*
X832808Y245080D01*
X832811Y245050D01*
X832810Y245020D01*
X832834Y244852D01*
X832854Y244683D01*
X832863Y244654D01*
X832867Y244624D01*
X832925Y244465D01*
X832978Y244303D01*
X832992Y244277D01*
X833003Y244248D01*
X833091Y244103D01*
X833174Y243956D01*
X833194Y243933D01*
X833210Y243907D01*
X833393Y243696D01*
X833815Y243275D01*
X833823Y243209D01*
X833841Y243033D01*
X833847Y243011D01*
X833850Y242989D01*
X833906Y242820D01*
X833959Y242651D01*
X833970Y242631D01*
X833977Y242610D01*
X834065Y242457D01*
X834150Y242301D01*
X834165Y242283D01*
X834176Y242264D01*
X834294Y242131D01*
X834408Y241996D01*
X834426Y241981D01*
X834441Y241964D01*
X834582Y241858D01*
X834721Y241747D01*
X834741Y241737D01*
X834759Y241723D01*
X834919Y241647D01*
X835077Y241566D01*
X835099Y241560D01*
X835119Y241551D01*
X835292Y241507D01*
X835462Y241460D01*
X835485Y241458D01*
X835507Y241453D01*
X835683Y241444D01*
X835860Y241432D01*
X835883Y241435D01*
X835906Y241434D01*
X836081Y241461D01*
X836256Y241484D01*
X836278Y241491D01*
X836300Y241495D01*
X836348Y241511D01*
X840010Y241511D01*
X843355Y240125D01*
X845915Y237565D01*
X847301Y234220D01*
X847301Y230600D01*
X845915Y227255D01*
X843355Y224695D01*
X840010Y223309D01*
X836324Y223309D01*
X836183Y223352D01*
X836160Y223354D01*
X836138Y223360D01*
X835962Y223372D01*
X835785Y223389D01*
X835762Y223386D01*
X835740Y223388D01*
X835564Y223365D01*
X835388Y223346D01*
X835366Y223339D01*
X835344Y223336D01*
X835176Y223279D01*
X835007Y223225D01*
X834987Y223214D01*
X834966Y223207D01*
X834813Y223117D01*
X834658Y223031D01*
X834641Y223016D01*
X834621Y223004D01*
X834490Y222886D01*
X834355Y222771D01*
X834341Y222753D01*
X834324Y222738D01*
X834218Y222596D01*
X834109Y222456D01*
X834099Y222436D01*
X834085Y222418D01*
X834010Y222257D01*
X833931Y222099D01*
X833925Y222077D01*
X833915Y222056D01*
X833873Y221884D01*
X833827Y221713D01*
X833826Y221690D01*
X833820Y221668D01*
X833811Y221542D01*
X832629Y220359D01*
X803001Y220359D01*
X802997Y220362D01*
X802967Y220384D01*
X802820Y220455D01*
X802677Y220530D01*
X802641Y220541D01*
X802606Y220557D01*
X802449Y220597D01*
X802294Y220643D01*
X802256Y220646D01*
X802219Y220655D01*
X802057Y220663D01*
X801896Y220676D01*
X801858Y220672D01*
X801820Y220674D01*
X801660Y220649D01*
X801499Y220631D01*
X801463Y220619D01*
X801425Y220613D01*
X801161Y220524D01*
X799241Y219729D01*
X797017Y219729D01*
G37*
%LPD*%
%LPC*%
G36*
X299443Y169752D02*
X299443Y169752D01*
X297388Y170603D01*
X295816Y172176D01*
X294964Y174230D01*
X294964Y176454D01*
X295816Y178509D01*
X295969Y178663D01*
X295998Y178698D01*
X296031Y178728D01*
X296124Y178852D01*
X296222Y178972D01*
X296243Y179012D01*
X296270Y179048D01*
X296336Y179188D01*
X296408Y179325D01*
X296421Y179369D01*
X296440Y179410D01*
X296477Y179560D01*
X296520Y179708D01*
X296524Y179754D01*
X296535Y179798D01*
X296554Y180076D01*
X296554Y188948D01*
X300948Y193342D01*
X300977Y193377D01*
X301011Y193407D01*
X301103Y193531D01*
X301201Y193651D01*
X301222Y193691D01*
X301250Y193728D01*
X301315Y193868D01*
X301388Y194005D01*
X301400Y194048D01*
X301420Y194089D01*
X301456Y194240D01*
X301500Y194388D01*
X301504Y194433D01*
X301515Y194477D01*
X301534Y194756D01*
X301534Y315571D01*
X304463Y318500D01*
X316540Y330577D01*
X316569Y330612D01*
X316603Y330642D01*
X316695Y330766D01*
X316793Y330886D01*
X316814Y330926D01*
X316841Y330963D01*
X316907Y331103D01*
X316979Y331240D01*
X316992Y331283D01*
X317011Y331324D01*
X317048Y331475D01*
X317091Y331623D01*
X317095Y331668D01*
X317106Y331712D01*
X317126Y331991D01*
X317126Y332207D01*
X317977Y334262D01*
X319549Y335835D01*
X321604Y336686D01*
X323828Y336686D01*
X325883Y335835D01*
X327456Y334262D01*
X328307Y332207D01*
X328307Y329983D01*
X327456Y327929D01*
X325883Y326356D01*
X323828Y325505D01*
X323612Y325505D01*
X323566Y325500D01*
X323521Y325503D01*
X323368Y325480D01*
X323214Y325465D01*
X323171Y325451D01*
X323126Y325445D01*
X322980Y325392D01*
X322833Y325347D01*
X322793Y325325D01*
X322750Y325310D01*
X322618Y325229D01*
X322482Y325155D01*
X322447Y325126D01*
X322409Y325102D01*
X322198Y324919D01*
X310121Y312842D01*
X310092Y312807D01*
X310059Y312777D01*
X309966Y312653D01*
X309868Y312533D01*
X309847Y312493D01*
X309820Y312456D01*
X309754Y312317D01*
X309682Y312180D01*
X309669Y312136D01*
X309650Y312095D01*
X309613Y311945D01*
X309570Y311796D01*
X309566Y311751D01*
X309555Y311707D01*
X309535Y311429D01*
X309535Y194682D01*
X309540Y194637D01*
X309538Y194592D01*
X309560Y194439D01*
X309575Y194285D01*
X309589Y194242D01*
X309595Y194197D01*
X309648Y194051D01*
X309693Y193903D01*
X309715Y193864D01*
X309731Y193821D01*
X309811Y193689D01*
X309885Y193553D01*
X309914Y193518D01*
X309938Y193480D01*
X310121Y193269D01*
X314405Y188985D01*
X314405Y180401D01*
X314409Y180356D01*
X314407Y180311D01*
X314429Y180158D01*
X314445Y180004D01*
X314458Y179960D01*
X314465Y179915D01*
X314517Y179770D01*
X314563Y179622D01*
X314585Y179582D01*
X314600Y179540D01*
X314680Y179407D01*
X314754Y179272D01*
X314784Y179237D01*
X314807Y179198D01*
X314990Y178987D01*
X315144Y178834D01*
X315995Y176779D01*
X315995Y174555D01*
X315144Y172500D01*
X313571Y170928D01*
X311516Y170076D01*
X309292Y170076D01*
X307237Y170928D01*
X307056Y171109D01*
X307032Y171128D01*
X307012Y171151D01*
X306878Y171254D01*
X306746Y171362D01*
X306720Y171376D01*
X306696Y171394D01*
X306543Y171469D01*
X306393Y171548D01*
X306364Y171557D01*
X306337Y171570D01*
X306172Y171613D01*
X306010Y171661D01*
X305980Y171663D01*
X305950Y171671D01*
X305781Y171680D01*
X305612Y171694D01*
X305582Y171691D01*
X305551Y171693D01*
X305384Y171668D01*
X305215Y171649D01*
X305186Y171639D01*
X305156Y171635D01*
X304997Y171577D01*
X304835Y171525D01*
X304809Y171510D01*
X304780Y171499D01*
X304635Y171411D01*
X304488Y171328D01*
X304465Y171308D01*
X304439Y171292D01*
X304228Y171109D01*
X303722Y170603D01*
X301667Y169752D01*
X299443Y169752D01*
G37*
%LPD*%
%LPC*%
G36*
X286411Y470809D02*
X286411Y470809D01*
X279427Y473702D01*
X274082Y479047D01*
X271189Y486031D01*
X271189Y493589D01*
X274082Y500573D01*
X279427Y505918D01*
X286411Y508811D01*
X293969Y508811D01*
X300953Y505918D01*
X306298Y500573D01*
X309191Y493589D01*
X309191Y486031D01*
X306298Y479047D01*
X300953Y473702D01*
X293969Y470809D01*
X286411Y470809D01*
G37*
%LPD*%
%LPC*%
G36*
X746031Y470809D02*
X746031Y470809D01*
X739047Y473702D01*
X733702Y479047D01*
X730809Y486031D01*
X730809Y493589D01*
X733702Y500573D01*
X739047Y505918D01*
X746031Y508811D01*
X753589Y508811D01*
X760573Y505918D01*
X765918Y500573D01*
X768811Y493589D01*
X768811Y486031D01*
X765918Y479047D01*
X760573Y473702D01*
X753589Y470809D01*
X746031Y470809D01*
G37*
%LPD*%
%LPC*%
G36*
X286411Y11189D02*
X286411Y11189D01*
X279427Y14082D01*
X274082Y19427D01*
X271189Y26411D01*
X271189Y33969D01*
X274082Y40953D01*
X279427Y46298D01*
X286411Y49191D01*
X293969Y49191D01*
X300953Y46298D01*
X306298Y40953D01*
X309191Y33969D01*
X309191Y26411D01*
X306298Y19427D01*
X300953Y14082D01*
X293969Y11189D01*
X286411Y11189D01*
G37*
%LPD*%
%LPC*%
G36*
X746031Y11189D02*
X746031Y11189D01*
X739047Y14082D01*
X733702Y19427D01*
X730809Y26411D01*
X730809Y33969D01*
X733702Y40953D01*
X739047Y46298D01*
X746031Y49191D01*
X753589Y49191D01*
X760573Y46298D01*
X765918Y40953D01*
X768811Y33969D01*
X768811Y26411D01*
X765918Y19427D01*
X760573Y14082D01*
X753589Y11189D01*
X746031Y11189D01*
G37*
%LPD*%
%LPC*%
G36*
X525525Y442596D02*
X525525Y442596D01*
X524353Y443768D01*
X524353Y462426D01*
X525525Y463598D01*
X544183Y463598D01*
X545355Y462426D01*
X545355Y443768D01*
X544183Y442596D01*
X525525Y442596D01*
G37*
%LPD*%
%LPC*%
G36*
X599535Y184576D02*
X599535Y184576D01*
X595271Y186342D01*
X592008Y189606D01*
X590242Y193869D01*
X590242Y198484D01*
X592008Y202748D01*
X595271Y206012D01*
X599535Y207778D01*
X604150Y207778D01*
X608414Y206012D01*
X611677Y202748D01*
X613443Y198484D01*
X613443Y193869D01*
X611677Y189606D01*
X608414Y186342D01*
X604150Y184576D01*
X599535Y184576D01*
G37*
%LPD*%
%LPC*%
G36*
X706560Y122785D02*
X706560Y122785D01*
X702296Y124551D01*
X699033Y127815D01*
X697267Y132079D01*
X697267Y136694D01*
X699033Y140957D01*
X702296Y144221D01*
X706560Y145987D01*
X711175Y145987D01*
X715439Y144221D01*
X718702Y140957D01*
X720468Y136694D01*
X720468Y132079D01*
X718702Y127815D01*
X715439Y124551D01*
X711175Y122785D01*
X706560Y122785D01*
G37*
%LPD*%
%LPC*%
G36*
X599535Y60994D02*
X599535Y60994D01*
X595271Y62760D01*
X592008Y66024D01*
X590242Y70288D01*
X590242Y74903D01*
X592008Y79166D01*
X595271Y82430D01*
X599535Y84196D01*
X604150Y84196D01*
X608414Y82430D01*
X611677Y79166D01*
X613443Y74903D01*
X613443Y70288D01*
X611677Y66024D01*
X608414Y62760D01*
X604150Y60994D01*
X599535Y60994D01*
G37*
%LPD*%
%LPC*%
G36*
X743399Y123735D02*
X743399Y123735D01*
X739484Y125357D01*
X736488Y128353D01*
X734867Y132267D01*
X734867Y136505D01*
X736488Y140419D01*
X739484Y143415D01*
X743399Y145037D01*
X747636Y145037D01*
X751551Y143415D01*
X754547Y140419D01*
X756168Y136505D01*
X756168Y132267D01*
X754547Y128353D01*
X751551Y125357D01*
X747636Y123735D01*
X743399Y123735D01*
G37*
%LPD*%
%LPC*%
G36*
X372731Y464127D02*
X372731Y464127D01*
X368872Y465725D01*
X365918Y468679D01*
X364319Y472539D01*
X364319Y476716D01*
X365918Y480576D01*
X368872Y483529D01*
X372731Y485128D01*
X376909Y485128D01*
X380768Y483529D01*
X383722Y480576D01*
X385321Y476716D01*
X385321Y472539D01*
X383722Y468679D01*
X380768Y465725D01*
X376909Y464127D01*
X372731Y464127D01*
G37*
%LPD*%
%LPC*%
G36*
X415633Y227819D02*
X415633Y227819D01*
X411774Y229417D01*
X408820Y232371D01*
X407221Y236231D01*
X407221Y240408D01*
X408820Y244267D01*
X411774Y247221D01*
X415633Y248820D01*
X419811Y248820D01*
X423670Y247221D01*
X426624Y244267D01*
X428223Y240408D01*
X428223Y236231D01*
X426624Y232371D01*
X423670Y229417D01*
X419811Y227819D01*
X415633Y227819D01*
G37*
%LPD*%
D10*
X745518Y134386D03*
X578918Y134386D03*
D11*
X817850Y226060D03*
X858550Y226060D03*
X817850Y238760D03*
X858550Y238760D03*
X817850Y251460D03*
X858550Y251460D03*
X817850Y264160D03*
X858550Y264160D03*
X817850Y276860D03*
X858550Y276860D03*
X817850Y289560D03*
X858550Y289560D03*
X817850Y302260D03*
X858550Y302260D03*
X817850Y314960D03*
X858550Y314960D03*
X194280Y143510D03*
X234980Y143510D03*
X194280Y156210D03*
X234980Y156210D03*
X194280Y168910D03*
X234980Y168910D03*
X194280Y181610D03*
X234980Y181610D03*
X194280Y194310D03*
X234980Y194310D03*
X194280Y207010D03*
X234980Y207010D03*
X194280Y219710D03*
X234980Y219710D03*
X194280Y232410D03*
X234980Y232410D03*
X194280Y245110D03*
X234980Y245110D03*
X194280Y257810D03*
X234980Y257810D03*
X194280Y270510D03*
X234980Y270510D03*
X194280Y283210D03*
X234980Y283210D03*
X194280Y295910D03*
X234980Y295910D03*
X194280Y308610D03*
X234980Y308610D03*
X194280Y321310D03*
X234980Y321310D03*
X194280Y334010D03*
X234980Y334010D03*
X194280Y346710D03*
X234980Y346710D03*
X194280Y359410D03*
X234980Y359410D03*
X194280Y372110D03*
X234980Y372110D03*
X194280Y384810D03*
X234980Y384810D03*
D12*
X534854Y453097D03*
D13*
X534854Y478497D03*
D12*
X443122Y238319D03*
D13*
X417722Y238319D03*
D12*
X349420Y474627D03*
D13*
X374820Y474627D03*
D14*
X376800Y296153D03*
X291947Y335357D03*
X291618Y353129D03*
X347983Y77352D03*
X456058Y60286D03*
X228810Y96103D03*
X222337Y445469D03*
X277004Y329858D03*
X284678Y228391D03*
X279242Y189249D03*
X256176Y42277D03*
X320947Y18223D03*
X321675Y214301D03*
X459952Y348422D03*
X256540Y484166D03*
X451005Y410539D03*
X460834Y410404D03*
X424284Y280303D03*
X423495Y296264D03*
X340919Y415135D03*
X340572Y406036D03*
X338192Y384611D03*
X338192Y393833D03*
X417011Y369193D03*
X418203Y378661D03*
X320902Y287475D03*
X320902Y272322D03*
X321011Y262581D03*
X321119Y250999D03*
X334296Y169639D03*
X335984Y153719D03*
X398843Y87417D03*
X384817Y86638D03*
X449624Y97939D03*
X462221Y97809D03*
X423122Y40508D03*
X406739Y39456D03*
X382539Y38254D03*
X398321Y38103D03*
X813242Y319941D03*
D15*
X817850Y315208D02*
X817850Y314960D01*
X817850Y315208D02*
X813242Y319815D01*
X813242Y319941D01*
D14*
X802216Y303343D03*
D15*
X816767Y303343D01*
X817850Y302260D01*
D14*
X798909Y237877D03*
D15*
X816967Y237877D01*
X817850Y238760D01*
D14*
X799689Y250434D03*
D15*
X800715Y251460D01*
X817850Y251460D01*
D14*
X798129Y225320D03*
D15*
X817110Y225320D01*
X817850Y226060D01*
X817850Y236994D01*
X816967Y237877D01*
X817850Y238760D02*
X817850Y251460D01*
D14*
X691637Y338419D03*
X697800Y274242D03*
X772963Y275187D03*
X772963Y257779D03*
X598079Y349563D03*
X795455Y475254D03*
X769255Y411109D03*
X826749Y419127D03*
X676100Y403820D03*
X854562Y162909D03*
X856259Y191228D03*
X638984Y289380D03*
X507985Y234711D03*
X520357Y189518D03*
X512351Y145783D03*
X511624Y70705D03*
X516481Y41083D03*
X673189Y64874D03*
X708850Y13121D03*
X796910Y59756D03*
X828932Y110066D03*
X799821Y142103D03*
X771438Y186603D03*
X738688Y219404D03*
X687744Y187332D03*
X652083Y226693D03*
X588040Y234711D03*
X565479Y196079D03*
X686250Y500545D03*
X685709Y489902D03*
X645574Y416219D03*
X646025Y399534D03*
X646206Y390786D03*
X645845Y375183D03*
X592943Y399503D03*
X592192Y386665D03*
X518982Y339819D03*
X504202Y339318D03*
X648299Y356963D03*
X647672Y347845D03*
X749386Y380558D03*
X749321Y370985D03*
X750143Y355988D03*
X750793Y345922D03*
X322716Y331095D03*
D16*
X305535Y313914D01*
X253537Y156210D02*
X234980Y156210D01*
X253537Y156210D02*
X257782Y160455D01*
D14*
X257782Y160455D03*
D16*
X251730Y156210D02*
X234980Y156210D01*
X251730Y156210D02*
X257331Y150610D01*
D14*
X257331Y150610D03*
X300555Y175342D03*
X310404Y175667D03*
D16*
X300555Y175342D02*
X300555Y187291D01*
X305498Y192234D01*
X310404Y187328D02*
X310404Y175667D01*
X310404Y187328D02*
X305498Y192234D01*
X305535Y192270D01*
X305535Y313914D01*
D17*
X219776Y169037D03*
D18*
X234980Y168910D02*
X250539Y168910D01*
X250802Y169173D01*
D14*
X250802Y169173D03*
X257847Y353573D03*
D15*
X252011Y359410D01*
X234980Y359410D01*
X234980Y346710D02*
X249660Y346710D01*
X254478Y341892D01*
X264135Y341892D01*
X272334Y350092D01*
D14*
X272334Y350092D03*
M02*
