G04 EAGLE Gerber RS-274X export*
G75*
%MOMM*%
%FSLAX34Y34*%
%LPD*%
%IN*%
%IPPOS*%
%AMOC8*
5,1,8,0,0,1.08239X$1,22.5*%
G01*
%ADD10C,0.254000*%


D10*
X260000Y0D02*
X340000Y0D01*
X340000Y30000D01*
X700000Y30000D01*
X700000Y0D01*
X780000Y0D01*
X801671Y23650D01*
X821199Y49099D01*
X838434Y76152D01*
X853245Y104605D01*
X865521Y134241D01*
X875167Y164833D01*
X882109Y196150D01*
X886296Y227953D01*
X887696Y260000D01*
X886296Y292047D01*
X882109Y323850D01*
X875167Y355167D01*
X865521Y385759D01*
X853245Y415395D01*
X838434Y443848D01*
X821199Y470902D01*
X801671Y496350D01*
X780000Y520000D01*
X260000Y520000D01*
X238329Y496350D01*
X218801Y470902D01*
X201566Y443848D01*
X186755Y415395D01*
X174479Y385759D01*
X164833Y355167D01*
X157891Y323850D01*
X153704Y292047D01*
X152304Y260000D01*
X153704Y227953D01*
X157891Y196150D01*
X164833Y164833D01*
X174479Y134241D01*
X186755Y104605D01*
X201566Y76152D01*
X218801Y49099D01*
X238329Y23650D01*
X260000Y0D01*
X764810Y489274D02*
X764810Y490346D01*
X764734Y491414D01*
X764581Y492475D01*
X764353Y493522D01*
X764051Y494550D01*
X763677Y495554D01*
X763232Y496529D01*
X762718Y497469D01*
X762139Y498370D01*
X761497Y499228D01*
X760795Y500038D01*
X760038Y500795D01*
X759228Y501497D01*
X758370Y502139D01*
X757469Y502718D01*
X756529Y503232D01*
X755554Y503677D01*
X754550Y504051D01*
X753522Y504353D01*
X752475Y504581D01*
X751414Y504734D01*
X750346Y504810D01*
X749274Y504810D01*
X748206Y504734D01*
X747145Y504581D01*
X746098Y504353D01*
X745070Y504051D01*
X744066Y503677D01*
X743091Y503232D01*
X742151Y502718D01*
X741250Y502139D01*
X740392Y501497D01*
X739582Y500795D01*
X738825Y500038D01*
X738123Y499228D01*
X737481Y498370D01*
X736902Y497469D01*
X736388Y496529D01*
X735943Y495554D01*
X735569Y494550D01*
X735267Y493522D01*
X735039Y492475D01*
X734886Y491414D01*
X734810Y490346D01*
X734810Y489274D01*
X734886Y488206D01*
X735039Y487145D01*
X735267Y486098D01*
X735569Y485070D01*
X735943Y484066D01*
X736388Y483091D01*
X736902Y482151D01*
X737481Y481250D01*
X738123Y480392D01*
X738825Y479582D01*
X739582Y478825D01*
X740392Y478123D01*
X741250Y477481D01*
X742151Y476902D01*
X743091Y476388D01*
X744066Y475943D01*
X745070Y475569D01*
X746098Y475267D01*
X747145Y475039D01*
X748206Y474886D01*
X749274Y474810D01*
X750346Y474810D01*
X751414Y474886D01*
X752475Y475039D01*
X753522Y475267D01*
X754550Y475569D01*
X755554Y475943D01*
X756529Y476388D01*
X757469Y476902D01*
X758370Y477481D01*
X759228Y478123D01*
X760038Y478825D01*
X760795Y479582D01*
X761497Y480392D01*
X762139Y481250D01*
X762718Y482151D01*
X763232Y483091D01*
X763677Y484066D01*
X764051Y485070D01*
X764353Y486098D01*
X764581Y487145D01*
X764734Y488206D01*
X764810Y489274D01*
X305190Y29654D02*
X305190Y30726D01*
X305114Y31794D01*
X304961Y32855D01*
X304733Y33902D01*
X304431Y34930D01*
X304057Y35934D01*
X303612Y36909D01*
X303098Y37849D01*
X302519Y38750D01*
X301877Y39608D01*
X301175Y40418D01*
X300418Y41175D01*
X299608Y41877D01*
X298750Y42519D01*
X297849Y43098D01*
X296909Y43612D01*
X295934Y44057D01*
X294930Y44431D01*
X293902Y44733D01*
X292855Y44961D01*
X291794Y45114D01*
X290726Y45190D01*
X289654Y45190D01*
X288586Y45114D01*
X287525Y44961D01*
X286478Y44733D01*
X285450Y44431D01*
X284446Y44057D01*
X283471Y43612D01*
X282531Y43098D01*
X281630Y42519D01*
X280772Y41877D01*
X279962Y41175D01*
X279205Y40418D01*
X278503Y39608D01*
X277861Y38750D01*
X277282Y37849D01*
X276768Y36909D01*
X276323Y35934D01*
X275949Y34930D01*
X275647Y33902D01*
X275419Y32855D01*
X275266Y31794D01*
X275190Y30726D01*
X275190Y29654D01*
X275266Y28586D01*
X275419Y27525D01*
X275647Y26478D01*
X275949Y25450D01*
X276323Y24446D01*
X276768Y23471D01*
X277282Y22531D01*
X277861Y21630D01*
X278503Y20772D01*
X279205Y19962D01*
X279962Y19205D01*
X280772Y18503D01*
X281630Y17861D01*
X282531Y17282D01*
X283471Y16768D01*
X284446Y16323D01*
X285450Y15949D01*
X286478Y15647D01*
X287525Y15419D01*
X288586Y15266D01*
X289654Y15190D01*
X290726Y15190D01*
X291794Y15266D01*
X292855Y15419D01*
X293902Y15647D01*
X294930Y15949D01*
X295934Y16323D01*
X296909Y16768D01*
X297849Y17282D01*
X298750Y17861D01*
X299608Y18503D01*
X300418Y19205D01*
X301175Y19962D01*
X301877Y20772D01*
X302519Y21630D01*
X303098Y22531D01*
X303612Y23471D01*
X304057Y24446D01*
X304431Y25450D01*
X304733Y26478D01*
X304961Y27525D01*
X305114Y28586D01*
X305190Y29654D01*
X305190Y489274D02*
X305190Y490346D01*
X305114Y491414D01*
X304961Y492475D01*
X304733Y493522D01*
X304431Y494550D01*
X304057Y495554D01*
X303612Y496529D01*
X303098Y497469D01*
X302519Y498370D01*
X301877Y499228D01*
X301175Y500038D01*
X300418Y500795D01*
X299608Y501497D01*
X298750Y502139D01*
X297849Y502718D01*
X296909Y503232D01*
X295934Y503677D01*
X294930Y504051D01*
X293902Y504353D01*
X292855Y504581D01*
X291794Y504734D01*
X290726Y504810D01*
X289654Y504810D01*
X288586Y504734D01*
X287525Y504581D01*
X286478Y504353D01*
X285450Y504051D01*
X284446Y503677D01*
X283471Y503232D01*
X282531Y502718D01*
X281630Y502139D01*
X280772Y501497D01*
X279962Y500795D01*
X279205Y500038D01*
X278503Y499228D01*
X277861Y498370D01*
X277282Y497469D01*
X276768Y496529D01*
X276323Y495554D01*
X275949Y494550D01*
X275647Y493522D01*
X275419Y492475D01*
X275266Y491414D01*
X275190Y490346D01*
X275190Y489274D01*
X275266Y488206D01*
X275419Y487145D01*
X275647Y486098D01*
X275949Y485070D01*
X276323Y484066D01*
X276768Y483091D01*
X277282Y482151D01*
X277861Y481250D01*
X278503Y480392D01*
X279205Y479582D01*
X279962Y478825D01*
X280772Y478123D01*
X281630Y477481D01*
X282531Y476902D01*
X283471Y476388D01*
X284446Y475943D01*
X285450Y475569D01*
X286478Y475267D01*
X287525Y475039D01*
X288586Y474886D01*
X289654Y474810D01*
X290726Y474810D01*
X291794Y474886D01*
X292855Y475039D01*
X293902Y475267D01*
X294930Y475569D01*
X295934Y475943D01*
X296909Y476388D01*
X297849Y476902D01*
X298750Y477481D01*
X299608Y478123D01*
X300418Y478825D01*
X301175Y479582D01*
X301877Y480392D01*
X302519Y481250D01*
X303098Y482151D01*
X303612Y483091D01*
X304057Y484066D01*
X304431Y485070D01*
X304733Y486098D01*
X304961Y487145D01*
X305114Y488206D01*
X305190Y489274D01*
X764810Y29654D02*
X764810Y30726D01*
X764734Y31794D01*
X764581Y32855D01*
X764353Y33902D01*
X764051Y34930D01*
X763677Y35934D01*
X763232Y36909D01*
X762718Y37849D01*
X762139Y38750D01*
X761497Y39608D01*
X760795Y40418D01*
X760038Y41175D01*
X759228Y41877D01*
X758370Y42519D01*
X757469Y43098D01*
X756529Y43612D01*
X755554Y44057D01*
X754550Y44431D01*
X753522Y44733D01*
X752475Y44961D01*
X751414Y45114D01*
X750346Y45190D01*
X749274Y45190D01*
X748206Y45114D01*
X747145Y44961D01*
X746098Y44733D01*
X745070Y44431D01*
X744066Y44057D01*
X743091Y43612D01*
X742151Y43098D01*
X741250Y42519D01*
X740392Y41877D01*
X739582Y41175D01*
X738825Y40418D01*
X738123Y39608D01*
X737481Y38750D01*
X736902Y37849D01*
X736388Y36909D01*
X735943Y35934D01*
X735569Y34930D01*
X735267Y33902D01*
X735039Y32855D01*
X734886Y31794D01*
X734810Y30726D01*
X734810Y29654D01*
X734886Y28586D01*
X735039Y27525D01*
X735267Y26478D01*
X735569Y25450D01*
X735943Y24446D01*
X736388Y23471D01*
X736902Y22531D01*
X737481Y21630D01*
X738123Y20772D01*
X738825Y19962D01*
X739582Y19205D01*
X740392Y18503D01*
X741250Y17861D01*
X742151Y17282D01*
X743091Y16768D01*
X744066Y16323D01*
X745070Y15949D01*
X746098Y15647D01*
X747145Y15419D01*
X748206Y15266D01*
X749274Y15190D01*
X750346Y15190D01*
X751414Y15266D01*
X752475Y15419D01*
X753522Y15647D01*
X754550Y15949D01*
X755554Y16323D01*
X756529Y16768D01*
X757469Y17282D01*
X758370Y17861D01*
X759228Y18503D01*
X760038Y19205D01*
X760795Y19962D01*
X761497Y20772D01*
X762139Y21630D01*
X762718Y22531D01*
X763232Y23471D01*
X763677Y24446D01*
X764051Y25450D01*
X764353Y26478D01*
X764581Y27525D01*
X764734Y28586D01*
X764810Y29654D01*
X709241Y141986D02*
X709984Y141913D01*
X710717Y141767D01*
X711431Y141550D01*
X712121Y141265D01*
X712780Y140913D01*
X713400Y140498D01*
X713978Y140024D01*
X714506Y139496D01*
X714979Y138919D01*
X715394Y138298D01*
X715746Y137639D01*
X716032Y136949D01*
X716249Y136235D01*
X716394Y135503D01*
X716468Y134759D01*
X716468Y134013D01*
X716394Y133270D01*
X716249Y132537D01*
X716032Y131823D01*
X715746Y131133D01*
X715394Y130474D01*
X714979Y129853D01*
X714506Y129276D01*
X713978Y128748D01*
X713400Y128274D01*
X712780Y127859D01*
X712121Y127507D01*
X711431Y127222D01*
X710717Y127005D01*
X709984Y126859D01*
X709241Y126786D01*
X708494Y126786D01*
X707751Y126859D01*
X707019Y127005D01*
X706304Y127222D01*
X705614Y127507D01*
X704956Y127859D01*
X704335Y128274D01*
X703758Y128748D01*
X703230Y129276D01*
X702756Y129853D01*
X702341Y130474D01*
X701989Y131133D01*
X701703Y131823D01*
X701487Y132537D01*
X701341Y133270D01*
X701268Y134013D01*
X701268Y134759D01*
X701341Y135503D01*
X701487Y136235D01*
X701703Y136949D01*
X701989Y137639D01*
X702341Y138298D01*
X702756Y138919D01*
X703230Y139496D01*
X703758Y140024D01*
X704335Y140498D01*
X704956Y140913D01*
X705614Y141265D01*
X706304Y141550D01*
X707019Y141767D01*
X707751Y141913D01*
X708494Y141986D01*
X709241Y141986D01*
X602216Y203777D02*
X602959Y203704D01*
X603692Y203558D01*
X604406Y203341D01*
X605096Y203056D01*
X605755Y202704D01*
X606375Y202289D01*
X606953Y201815D01*
X607481Y201287D01*
X607954Y200710D01*
X608369Y200089D01*
X608721Y199430D01*
X609007Y198740D01*
X609224Y198026D01*
X609369Y197293D01*
X609443Y196550D01*
X609443Y195804D01*
X609369Y195060D01*
X609224Y194328D01*
X609007Y193614D01*
X608721Y192924D01*
X608369Y192265D01*
X607954Y191644D01*
X607481Y191067D01*
X606953Y190539D01*
X606375Y190065D01*
X605755Y189650D01*
X605096Y189298D01*
X604406Y189013D01*
X603692Y188796D01*
X602959Y188650D01*
X602216Y188577D01*
X601469Y188577D01*
X600726Y188650D01*
X599994Y188796D01*
X599279Y189013D01*
X598589Y189298D01*
X597931Y189650D01*
X597310Y190065D01*
X596733Y190539D01*
X596205Y191067D01*
X595731Y191644D01*
X595316Y192265D01*
X594964Y192924D01*
X594678Y193614D01*
X594462Y194328D01*
X594316Y195060D01*
X594243Y195804D01*
X594243Y196550D01*
X594316Y197293D01*
X594462Y198026D01*
X594678Y198740D01*
X594964Y199430D01*
X595316Y200089D01*
X595731Y200710D01*
X596205Y201287D01*
X596733Y201815D01*
X597310Y202289D01*
X597931Y202704D01*
X598589Y203056D01*
X599279Y203341D01*
X599994Y203558D01*
X600726Y203704D01*
X601469Y203777D01*
X602216Y203777D01*
X602216Y80195D02*
X602959Y80122D01*
X603692Y79976D01*
X604406Y79760D01*
X605096Y79474D01*
X605755Y79122D01*
X606375Y78707D01*
X606953Y78233D01*
X607481Y77705D01*
X607954Y77128D01*
X608369Y76507D01*
X608721Y75848D01*
X609007Y75159D01*
X609224Y74444D01*
X609369Y73712D01*
X609443Y72969D01*
X609443Y72222D01*
X609369Y71479D01*
X609224Y70746D01*
X609007Y70032D01*
X608721Y69342D01*
X608369Y68683D01*
X607954Y68062D01*
X607481Y67485D01*
X606953Y66957D01*
X606375Y66483D01*
X605755Y66069D01*
X605096Y65717D01*
X604406Y65431D01*
X603692Y65214D01*
X602959Y65068D01*
X602216Y64995D01*
X601469Y64995D01*
X600726Y65068D01*
X599994Y65214D01*
X599279Y65431D01*
X598589Y65717D01*
X597931Y66069D01*
X597310Y66483D01*
X596733Y66957D01*
X596205Y67485D01*
X595731Y68062D01*
X595316Y68683D01*
X594964Y69342D01*
X594678Y70032D01*
X594462Y70746D01*
X594316Y71479D01*
X594243Y72222D01*
X594243Y72969D01*
X594316Y73712D01*
X594462Y74444D01*
X594678Y75159D01*
X594964Y75848D01*
X595316Y76507D01*
X595731Y77128D01*
X596205Y77705D01*
X596733Y78233D01*
X597310Y78707D01*
X597931Y79122D01*
X598589Y79474D01*
X599279Y79760D01*
X599994Y79976D01*
X600726Y80122D01*
X601469Y80195D01*
X602216Y80195D01*
X837914Y237510D02*
X837344Y237446D01*
X836786Y237318D01*
X836245Y237129D01*
X835729Y236881D01*
X835244Y236576D01*
X834796Y236219D01*
X834391Y235814D01*
X834034Y235366D01*
X833729Y234881D01*
X833481Y234365D01*
X833292Y233824D01*
X833164Y233266D01*
X833100Y232696D01*
X833100Y232124D01*
X833164Y231554D01*
X833292Y230996D01*
X833481Y230455D01*
X833729Y229939D01*
X834034Y229454D01*
X834391Y229006D01*
X834796Y228601D01*
X835244Y228244D01*
X835729Y227939D01*
X836245Y227691D01*
X836786Y227502D01*
X837344Y227374D01*
X837914Y227310D01*
X838486Y227310D01*
X839056Y227374D01*
X839614Y227502D01*
X840155Y227691D01*
X840671Y227939D01*
X841156Y228244D01*
X841604Y228601D01*
X842009Y229006D01*
X842366Y229454D01*
X842671Y229939D01*
X842919Y230455D01*
X843108Y230996D01*
X843236Y231554D01*
X843300Y232124D01*
X843300Y232696D01*
X843236Y233266D01*
X843108Y233824D01*
X842919Y234365D01*
X842671Y234881D01*
X842366Y235366D01*
X842009Y235814D01*
X841604Y236219D01*
X841156Y236576D01*
X840671Y236881D01*
X840155Y237129D01*
X839614Y237318D01*
X839056Y237446D01*
X838486Y237510D01*
X837914Y237510D01*
X837914Y313710D02*
X837344Y313646D01*
X836786Y313518D01*
X836245Y313329D01*
X835729Y313081D01*
X835244Y312776D01*
X834796Y312419D01*
X834391Y312014D01*
X834034Y311566D01*
X833729Y311081D01*
X833481Y310565D01*
X833292Y310024D01*
X833164Y309466D01*
X833100Y308896D01*
X833100Y308324D01*
X833164Y307754D01*
X833292Y307196D01*
X833481Y306655D01*
X833729Y306139D01*
X834034Y305654D01*
X834391Y305206D01*
X834796Y304801D01*
X835244Y304444D01*
X835729Y304139D01*
X836245Y303891D01*
X836786Y303702D01*
X837344Y303574D01*
X837914Y303510D01*
X838486Y303510D01*
X839056Y303574D01*
X839614Y303702D01*
X840155Y303891D01*
X840671Y304139D01*
X841156Y304444D01*
X841604Y304801D01*
X842009Y305206D01*
X842366Y305654D01*
X842671Y306139D01*
X842919Y306655D01*
X843108Y307196D01*
X843236Y307754D01*
X843300Y308324D01*
X843300Y308896D01*
X843236Y309466D01*
X843108Y310024D01*
X842919Y310565D01*
X842671Y311081D01*
X842366Y311566D01*
X842009Y312014D01*
X841604Y312419D01*
X841156Y312776D01*
X840671Y313081D01*
X840155Y313329D01*
X839614Y313518D01*
X839056Y313646D01*
X838486Y313710D01*
X837914Y313710D01*
M02*
