G04 EAGLE Gerber RS-274X export*
G75*
%MOMM*%
%FSLAX34Y34*%
%LPD*%
%INSilkscreen Bottom*%
%IPPOS*%
%AMOC8*
5,1,8,0,0,1.08239X$1,22.5*%
G01*
%ADD10R,0.076200X0.076200*%
%ADD11R,0.152400X0.076200*%
%ADD12R,0.228600X0.076200*%
%ADD13R,0.304800X0.076200*%
%ADD14R,9.982200X0.076200*%
%ADD15R,20.802600X0.076200*%
%ADD16R,30.556200X0.076200*%
%ADD17R,30.632400X0.076200*%
%ADD18R,26.593800X0.076200*%
%ADD19R,1.143000X0.076200*%
%ADD20R,11.049000X0.076200*%
%ADD21R,2.514600X0.076200*%
%ADD22R,0.685800X0.076200*%
%ADD23R,3.200400X0.076200*%
%ADD24R,3.962400X0.076200*%
%ADD25R,3.581400X0.076200*%
%ADD26R,2.286000X0.076200*%
%ADD27R,1.600200X0.076200*%
%ADD28R,2.438400X0.076200*%
%ADD29R,0.533400X0.076200*%
%ADD30R,2.895600X0.076200*%
%ADD31R,3.505200X0.076200*%
%ADD32R,1.219200X0.076200*%
%ADD33R,2.971800X0.076200*%
%ADD34R,2.362200X0.076200*%
%ADD35R,1.447800X0.076200*%
%ADD36R,2.819400X0.076200*%
%ADD37R,3.429000X0.076200*%
%ADD38R,1.371600X0.076200*%
%ADD39R,0.457200X0.076200*%
%ADD40R,2.743200X0.076200*%
%ADD41R,2.590800X0.076200*%
%ADD42R,1.295400X0.076200*%
%ADD43R,0.381000X0.076200*%
%ADD44R,3.048000X0.076200*%
%ADD45R,1.066800X0.076200*%
%ADD46R,0.914400X0.076200*%
%ADD47R,2.667000X0.076200*%
%ADD48R,2.133600X0.076200*%
%ADD49R,0.838200X0.076200*%
%ADD50R,2.057400X0.076200*%
%ADD51R,0.609600X0.076200*%
%ADD52R,1.981200X0.076200*%
%ADD53R,0.990600X0.076200*%
%ADD54R,1.524000X0.076200*%
%ADD55R,1.905000X0.076200*%
%ADD56R,3.276600X0.076200*%
%ADD57R,1.828800X0.076200*%
%ADD58R,0.762000X0.076200*%
%ADD59R,1.676400X0.076200*%
%ADD60R,3.657600X0.076200*%
%ADD61R,1.752600X0.076200*%
%ADD62R,3.124200X0.076200*%
%ADD63R,3.352800X0.076200*%
%ADD64R,3.733800X0.076200*%
%ADD65R,3.886200X0.076200*%
%ADD66R,3.810000X0.076200*%
%ADD67R,4.038600X0.076200*%
%ADD68R,4.114800X0.076200*%
%ADD69R,2.209800X0.076200*%
%ADD70R,4.419600X0.076200*%
%ADD71R,5.029200X0.076200*%
%ADD72R,9.220200X0.076200*%
%ADD73R,20.497800X0.076200*%
%ADD74R,28.651200X0.076200*%
%ADD75R,25.603200X0.076200*%
%ADD76R,14.630400X0.076200*%
%ADD77R,4.572000X0.076200*%
%ADD78R,4.724400X0.076200*%
%ADD79R,4.648200X0.076200*%
%ADD80R,5.410200X0.076200*%
%ADD81R,4.800600X0.076200*%
%ADD82R,5.486400X0.076200*%
%ADD83R,4.876800X0.076200*%
%ADD84R,4.953000X0.076200*%
%ADD85R,5.562600X0.076200*%
%ADD86R,5.105400X0.076200*%
%ADD87R,5.181600X0.076200*%
%ADD88R,5.257800X0.076200*%
%ADD89R,6.553200X0.076200*%
%ADD90R,5.334000X0.076200*%
%ADD91R,6.629400X0.076200*%
%ADD92R,6.477000X0.076200*%
%ADD93R,6.400800X0.076200*%
%ADD94R,4.191000X0.076200*%
%ADD95R,4.267200X0.076200*%
%ADD96R,5.943600X0.076200*%
%ADD97R,6.934200X0.076200*%
%ADD98R,7.391400X0.076200*%
%ADD99R,7.848600X0.076200*%
%ADD100R,8.229600X0.076200*%
%ADD101R,8.610600X0.076200*%
%ADD102R,8.991600X0.076200*%
%ADD103R,9.372600X0.076200*%
%ADD104R,9.601200X0.076200*%
%ADD105R,9.906000X0.076200*%
%ADD106R,10.134600X0.076200*%
%ADD107R,8.763000X0.076200*%
%ADD108R,8.001000X0.076200*%
%ADD109R,7.924800X0.076200*%
%ADD110R,7.772400X0.076200*%
%ADD111R,7.467600X0.076200*%
%ADD112R,7.620000X0.076200*%
%ADD113R,7.543800X0.076200*%
%ADD114R,7.162800X0.076200*%
%ADD115R,6.096000X0.076200*%
%ADD116R,5.638800X0.076200*%
%ADD117R,4.343400X0.076200*%
%ADD118R,5.867400X0.076200*%
%ADD119R,6.172200X0.076200*%
%ADD120R,6.248400X0.076200*%
%ADD121R,6.858000X0.076200*%
%ADD122R,7.086600X0.076200*%
%ADD123R,7.315200X0.076200*%
%ADD124R,8.382000X0.076200*%
%ADD125R,8.915400X0.076200*%
%ADD126R,9.144000X0.076200*%
%ADD127R,9.448800X0.076200*%
%ADD128R,10.058400X0.076200*%
%ADD129R,7.010400X0.076200*%
%ADD130R,6.324600X0.076200*%
%ADD131R,6.019800X0.076200*%
%ADD132R,5.715000X0.076200*%
%ADD133R,5.791200X0.076200*%
%ADD134R,4.495800X0.076200*%
%ADD135R,16.687800X0.076200*%
%ADD136R,27.584400X0.076200*%
%ADD137R,37.719000X0.076200*%
%ADD138R,37.871400X0.076200*%
%ADD139R,38.023800X0.076200*%
%ADD140R,38.100000X0.076200*%
%ADD141R,38.328600X0.076200*%
%ADD142R,38.481000X0.076200*%
%ADD143R,38.557200X0.076200*%
%ADD144R,38.785800X0.076200*%
%ADD145R,34.290000X0.076200*%
%ADD146R,23.164800X0.076200*%
%ADD147R,12.496800X0.076200*%
%ADD148R,6.705600X0.076200*%
%ADD149R,18.516600X0.076200*%
%ADD150R,29.489400X0.076200*%
%ADD151R,40.462200X0.076200*%
%ADD152R,42.138600X0.076200*%
%ADD153R,31.775400X0.076200*%
%ADD154R,20.726400X0.076200*%
%ADD155R,10.210800X0.076200*%
%ADD156C,0.100000*%
%ADD157C,0.200000*%
%ADD158C,0.101600*%


D10*
X646938Y73152D03*
X649224Y73152D03*
X651510Y73152D03*
X653796Y73152D03*
X655320Y73152D03*
X656844Y73152D03*
X658368Y73152D03*
X659892Y73152D03*
X661416Y73152D03*
X662940Y73152D03*
X664464Y73152D03*
X665988Y73152D03*
X667512Y73152D03*
X669036Y73152D03*
D11*
X670941Y73152D03*
X673227Y73152D03*
D10*
X675132Y73152D03*
X535686Y73914D03*
X538734Y73914D03*
X541020Y73914D03*
X543306Y73914D03*
X544830Y73914D03*
X546354Y73914D03*
X547878Y73914D03*
X549402Y73914D03*
X550926Y73914D03*
X552450Y73914D03*
X553974Y73914D03*
X555498Y73914D03*
X557022Y73914D03*
X558546Y73914D03*
D11*
X560451Y73914D03*
X562737Y73914D03*
X565023Y73914D03*
X567309Y73914D03*
D12*
X569976Y73914D03*
D13*
X573405Y73914D03*
D14*
X625602Y73914D03*
D10*
X426720Y74676D03*
X429768Y74676D03*
X432054Y74676D03*
X434340Y74676D03*
X435864Y74676D03*
X437388Y74676D03*
X438912Y74676D03*
X440436Y74676D03*
X441960Y74676D03*
X443484Y74676D03*
X445008Y74676D03*
X446532Y74676D03*
X448056Y74676D03*
X449580Y74676D03*
X451104Y74676D03*
D11*
X453009Y74676D03*
X455295Y74676D03*
X457581Y74676D03*
X459867Y74676D03*
D12*
X462534Y74676D03*
X465582Y74676D03*
D15*
X571500Y74676D03*
D16*
X522732Y75438D03*
X522732Y76200D03*
D17*
X522351Y76962D03*
D16*
X522732Y77724D03*
D17*
X522351Y78486D03*
D16*
X522732Y79248D03*
D17*
X522351Y80010D03*
D16*
X522732Y80772D03*
D17*
X522351Y81534D03*
D16*
X522732Y82296D03*
D18*
X502158Y83058D03*
D10*
X636270Y83058D03*
X638556Y83058D03*
X640842Y83058D03*
X643128Y83058D03*
X645414Y83058D03*
X648462Y83058D03*
X656082Y83058D03*
X659892Y83058D03*
D19*
X669798Y83058D03*
D20*
X425196Y83820D03*
D21*
X493776Y83820D03*
D10*
X507492Y83820D03*
X509016Y83820D03*
X510540Y83820D03*
X512064Y83820D03*
X513588Y83820D03*
D22*
X518160Y83820D03*
D10*
X522732Y83820D03*
X525780Y83820D03*
X528828Y83820D03*
X532638Y83820D03*
X536448Y83820D03*
X540258Y83820D03*
X543306Y83820D03*
D23*
X561213Y83820D03*
D10*
X578358Y83820D03*
X589788Y83820D03*
X591312Y83820D03*
D24*
X612267Y83820D03*
D19*
X669798Y83820D03*
D25*
X387096Y84582D03*
D10*
X406146Y84582D03*
X407670Y84582D03*
X409956Y84582D03*
X413004Y84582D03*
X416052Y84582D03*
X418338Y84582D03*
D26*
X432435Y84582D03*
D10*
X446532Y84582D03*
D27*
X463296Y84582D03*
D28*
X493395Y84582D03*
D29*
X518160Y84582D03*
D30*
X559689Y84582D03*
D10*
X593598Y84582D03*
D31*
X612267Y84582D03*
D10*
X630936Y84582D03*
D32*
X669417Y84582D03*
D33*
X384810Y85344D03*
D10*
X400812Y85344D03*
D34*
X433578Y85344D03*
D35*
X464058Y85344D03*
D21*
X493776Y85344D03*
D29*
X518160Y85344D03*
D36*
X558546Y85344D03*
D37*
X612648Y85344D03*
D32*
X669417Y85344D03*
D36*
X383286Y86106D03*
D10*
X398526Y86106D03*
D28*
X433197Y86106D03*
D38*
X463677Y86106D03*
D21*
X493776Y86106D03*
D39*
X517779Y86106D03*
D40*
X557403Y86106D03*
D23*
X613029Y86106D03*
D32*
X669417Y86106D03*
D41*
X382905Y86868D03*
X433959Y86868D03*
D42*
X464820Y86868D03*
D41*
X493395Y86868D03*
D43*
X517398Y86868D03*
D40*
X556641Y86868D03*
D44*
X613029Y86868D03*
D42*
X669036Y86868D03*
D28*
X381381Y87630D03*
D10*
X394716Y87630D03*
D41*
X433959Y87630D03*
D19*
X464058Y87630D03*
D41*
X493395Y87630D03*
D13*
X517017Y87630D03*
D41*
X555879Y87630D03*
D33*
X612648Y87630D03*
D42*
X669036Y87630D03*
D34*
X381762Y88392D03*
D36*
X434340Y88392D03*
D45*
X465201Y88392D03*
D41*
X493395Y88392D03*
D12*
X517398Y88392D03*
D41*
X555117Y88392D03*
D36*
X613410Y88392D03*
D38*
X669417Y88392D03*
D26*
X380619Y89154D03*
D36*
X434340Y89154D03*
D46*
X465201Y89154D03*
D47*
X493014Y89154D03*
D11*
X516255Y89154D03*
D41*
X554355Y89154D03*
D40*
X613029Y89154D03*
D38*
X668655Y89154D03*
D48*
X380619Y89916D03*
D44*
X434721Y89916D03*
D49*
X465582Y89916D03*
D40*
X493395Y89916D03*
D41*
X553593Y89916D03*
D10*
X585216Y89916D03*
D40*
X613029Y89916D03*
D10*
X640842Y89916D03*
X642366Y89916D03*
X643890Y89916D03*
X645414Y89916D03*
X646938Y89916D03*
X648462Y89916D03*
D11*
X650367Y89916D03*
D38*
X668655Y89916D03*
D50*
X379476Y90678D03*
D44*
X434721Y90678D03*
D49*
X465582Y90678D03*
D40*
X493395Y90678D03*
D10*
X518160Y90678D03*
X519684Y90678D03*
X521208Y90678D03*
X522732Y90678D03*
X524256Y90678D03*
X525780Y90678D03*
X527304Y90678D03*
X528828Y90678D03*
D41*
X552831Y90678D03*
D51*
X582549Y90678D03*
D40*
X613029Y90678D03*
D42*
X644652Y90678D03*
D38*
X668655Y90678D03*
D52*
X379857Y91440D03*
D10*
X407670Y91440D03*
D23*
X435483Y91440D03*
D29*
X466344Y91440D03*
D36*
X493014Y91440D03*
D32*
X522351Y91440D03*
D21*
X552450Y91440D03*
D53*
X582930Y91440D03*
D41*
X613029Y91440D03*
D38*
X644271Y91440D03*
D54*
X668655Y91440D03*
D55*
X378714Y92202D03*
D29*
X406146Y92202D03*
D56*
X435102Y92202D03*
D29*
X466344Y92202D03*
D36*
X493014Y92202D03*
D32*
X522351Y92202D03*
D41*
X552069Y92202D03*
D19*
X582168Y92202D03*
D21*
X612648Y92202D03*
D35*
X643890Y92202D03*
X668274Y92202D03*
D57*
X379095Y92964D03*
D22*
X405384Y92964D03*
D37*
X435864Y92964D03*
D39*
X466725Y92964D03*
D36*
X493014Y92964D03*
D19*
X521970Y92964D03*
D41*
X551307Y92964D03*
D42*
X582168Y92964D03*
D41*
X613029Y92964D03*
D38*
X643509Y92964D03*
D54*
X667893Y92964D03*
D57*
X378333Y93726D03*
D58*
X404241Y93726D03*
D37*
X435864Y93726D03*
D12*
X466344Y93726D03*
D30*
X492633Y93726D03*
D45*
X521589Y93726D03*
D47*
X550926Y93726D03*
D35*
X582168Y93726D03*
D21*
X612648Y93726D03*
D35*
X643128Y93726D03*
D54*
X667893Y93726D03*
D59*
X378333Y94488D03*
D46*
X403479Y94488D03*
D60*
X436245Y94488D03*
D11*
X467487Y94488D03*
D33*
X493014Y94488D03*
D53*
X521970Y94488D03*
D41*
X550545Y94488D03*
D27*
X582168Y94488D03*
D41*
X613029Y94488D03*
D10*
X636270Y94488D03*
D12*
X638556Y94488D03*
D11*
X641223Y94488D03*
D10*
X643128Y94488D03*
X644652Y94488D03*
X646176Y94488D03*
X647700Y94488D03*
X649224Y94488D03*
D27*
X668274Y94488D03*
D59*
X377571Y95250D03*
D53*
X403098Y95250D03*
D25*
X435864Y95250D03*
D44*
X492633Y95250D03*
D46*
X521589Y95250D03*
D47*
X550164Y95250D03*
D27*
X581406Y95250D03*
D21*
X612648Y95250D03*
D27*
X667512Y95250D03*
X377952Y96012D03*
D45*
X401955Y96012D03*
D37*
X435102Y96012D03*
D10*
X453390Y96012D03*
D44*
X492633Y96012D03*
D49*
X521208Y96012D03*
D47*
X549402Y96012D03*
D61*
X581406Y96012D03*
D47*
X613410Y96012D03*
D10*
X648462Y96012D03*
D27*
X667512Y96012D03*
X377190Y96774D03*
D19*
X401574Y96774D03*
D44*
X432435Y96774D03*
D10*
X448818Y96774D03*
D44*
X492633Y96774D03*
D58*
X520827Y96774D03*
D47*
X548640Y96774D03*
D61*
X581406Y96774D03*
D40*
X613029Y96774D03*
D10*
X647700Y96774D03*
D27*
X667512Y96774D03*
D35*
X377190Y97536D03*
D32*
X401193Y97536D03*
D30*
X431673Y97536D03*
D10*
X466344Y97536D03*
D62*
X492252Y97536D03*
D58*
X520827Y97536D03*
D40*
X549021Y97536D03*
D61*
X581406Y97536D03*
D47*
X613410Y97536D03*
D12*
X648462Y97536D03*
D61*
X667512Y97536D03*
D35*
X376428Y98298D03*
D32*
X400431Y98298D03*
D40*
X430911Y98298D03*
D10*
X465582Y98298D03*
D62*
X492252Y98298D03*
D22*
X520446Y98298D03*
D36*
X548640Y98298D03*
D57*
X581025Y98298D03*
D47*
X612648Y98298D03*
D12*
X646938Y98298D03*
D59*
X667131Y98298D03*
D38*
X376809Y99060D03*
D42*
X400050Y99060D03*
D47*
X429768Y99060D03*
D12*
X465582Y99060D03*
D23*
X492633Y99060D03*
D29*
X520446Y99060D03*
D36*
X547878Y99060D03*
D61*
X580644Y99060D03*
D41*
X612267Y99060D03*
D13*
X647319Y99060D03*
D59*
X667131Y99060D03*
D38*
X376047Y99822D03*
D42*
X400050Y99822D03*
D41*
X429387Y99822D03*
D12*
X464820Y99822D03*
D56*
X492252Y99822D03*
D39*
X520065Y99822D03*
D30*
X547497Y99822D03*
D61*
X580644Y99822D03*
D21*
X611886Y99822D03*
D43*
X646176Y99822D03*
D57*
X667131Y99822D03*
D42*
X376428Y100584D03*
X399288Y100584D03*
D41*
X428625Y100584D03*
D13*
X464439Y100584D03*
D56*
X492252Y100584D03*
D39*
X520065Y100584D03*
D33*
X547116Y100584D03*
D59*
X580263Y100584D03*
D21*
X611124Y100584D03*
D39*
X645795Y100584D03*
D61*
X666750Y100584D03*
D42*
X375666Y101346D03*
D32*
X398907Y101346D03*
D41*
X428625Y101346D03*
D43*
X464058Y101346D03*
D56*
X492252Y101346D03*
D43*
X519684Y101346D03*
D33*
X547116Y101346D03*
D59*
X580263Y101346D03*
D21*
X611124Y101346D03*
D35*
X640842Y101346D03*
D61*
X666750Y101346D03*
D32*
X376047Y102108D03*
D38*
X398907Y102108D03*
D21*
X428244Y102108D03*
D10*
X452628Y102108D03*
X454152Y102108D03*
X455676Y102108D03*
X457200Y102108D03*
X458724Y102108D03*
X460248Y102108D03*
D43*
X463296Y102108D03*
D63*
X491871Y102108D03*
D12*
X519684Y102108D03*
D44*
X546735Y102108D03*
D27*
X579882Y102108D03*
D21*
X610362Y102108D03*
D38*
X640461Y102108D03*
D55*
X666750Y102108D03*
D32*
X375285Y102870D03*
D42*
X398526Y102870D03*
D41*
X427863Y102870D03*
D42*
X457962Y102870D03*
D37*
X491490Y102870D03*
D12*
X518922Y102870D03*
D44*
X545973Y102870D03*
D54*
X579501Y102870D03*
D21*
X610362Y102870D03*
D35*
X640080Y102870D03*
D55*
X665988Y102870D03*
D19*
X375666Y103632D03*
D42*
X398526Y103632D03*
D21*
X427482Y103632D03*
D35*
X457962Y103632D03*
D37*
X492252Y103632D03*
D12*
X518922Y103632D03*
D23*
X545973Y103632D03*
D38*
X579501Y103632D03*
D41*
X609981Y103632D03*
D35*
X640080Y103632D03*
D57*
X666369Y103632D03*
D19*
X374904Y104394D03*
D42*
X397764Y104394D03*
D41*
X427863Y104394D03*
D35*
X457200Y104394D03*
D37*
X491490Y104394D03*
D56*
X545592Y104394D03*
D42*
X579120Y104394D03*
D21*
X609600Y104394D03*
D42*
X639318Y104394D03*
D52*
X666369Y104394D03*
D19*
X375666Y105156D03*
D32*
X398145Y105156D03*
D41*
X427101Y105156D03*
D38*
X457581Y105156D03*
D31*
X491871Y105156D03*
D56*
X545592Y105156D03*
D53*
X579120Y105156D03*
D47*
X609600Y105156D03*
D32*
X640461Y105156D03*
D55*
X665988Y105156D03*
D19*
X375666Y105918D03*
D42*
X397764Y105918D03*
D41*
X427101Y105918D03*
D38*
X456819Y105918D03*
D25*
X491490Y105918D03*
D63*
X545211Y105918D03*
D10*
X575310Y105918D03*
X576834Y105918D03*
X578358Y105918D03*
X579882Y105918D03*
X581406Y105918D03*
X582930Y105918D03*
D47*
X608838Y105918D03*
D50*
X665988Y105918D03*
D45*
X375285Y106680D03*
X398145Y106680D03*
D47*
X427482Y106680D03*
D11*
X452247Y106680D03*
X454533Y106680D03*
X456819Y106680D03*
X459105Y106680D03*
X461391Y106680D03*
D10*
X463296Y106680D03*
D25*
X491490Y106680D03*
D31*
X545211Y106680D03*
D36*
X608838Y106680D03*
D52*
X665607Y106680D03*
D19*
X374904Y107442D03*
D10*
X394716Y107442D03*
D47*
X426720Y107442D03*
D25*
X491490Y107442D03*
X544830Y107442D03*
D30*
X608457Y107442D03*
D50*
X665988Y107442D03*
D19*
X375666Y108204D03*
D40*
X427101Y108204D03*
D64*
X491490Y108204D03*
D25*
X544830Y108204D03*
D33*
X608076Y108204D03*
D50*
X665226Y108204D03*
D19*
X374904Y108966D03*
D40*
X427101Y108966D03*
D64*
X491490Y108966D03*
X544830Y108966D03*
D44*
X607695Y108966D03*
D48*
X665607Y108966D03*
D45*
X375285Y109728D03*
D30*
X427101Y109728D03*
D64*
X491490Y109728D03*
D65*
X544830Y109728D03*
D23*
X607695Y109728D03*
D50*
X665226Y109728D03*
D19*
X375666Y110490D03*
D36*
X426720Y110490D03*
D66*
X491109Y110490D03*
D67*
X544830Y110490D03*
D63*
X606933Y110490D03*
D48*
X664845Y110490D03*
D19*
X375666Y111252D03*
D33*
X426720Y111252D03*
D65*
X491490Y111252D03*
D68*
X545211Y111252D03*
D10*
X566928Y111252D03*
D60*
X606933Y111252D03*
D69*
X665226Y111252D03*
D42*
X375666Y112014D03*
D44*
X427101Y112014D03*
D65*
X491490Y112014D03*
D70*
X545973Y112014D03*
D10*
X586740Y112014D03*
D64*
X606552Y112014D03*
D69*
X664464Y112014D03*
D32*
X376047Y112776D03*
D62*
X427482Y112776D03*
D67*
X491490Y112776D03*
D71*
X547497Y112776D03*
D10*
X573786Y112776D03*
X575310Y112776D03*
X576834Y112776D03*
X578358Y112776D03*
X579882Y112776D03*
X581406Y112776D03*
X582930Y112776D03*
D72*
X630174Y112776D03*
D38*
X376809Y113538D03*
D56*
X427482Y113538D03*
D10*
X445008Y113538D03*
X447294Y113538D03*
X449580Y113538D03*
X451104Y113538D03*
X452628Y113538D03*
X454152Y113538D03*
X455676Y113538D03*
X457200Y113538D03*
X458724Y113538D03*
X460248Y113538D03*
X461772Y113538D03*
X463296Y113538D03*
X464820Y113538D03*
X466344Y113538D03*
X467868Y113538D03*
X469392Y113538D03*
D73*
X573024Y113538D03*
D17*
X523113Y114300D03*
X522351Y115062D03*
X523113Y115824D03*
D16*
X522732Y116586D03*
D17*
X523113Y117348D03*
X522351Y118110D03*
X523113Y118872D03*
D16*
X522732Y119634D03*
D17*
X523113Y120396D03*
X522351Y121158D03*
D74*
X513207Y121920D03*
D55*
X666750Y121920D03*
D75*
X497967Y122682D03*
D11*
X627507Y122682D03*
X629793Y122682D03*
X632079Y122682D03*
X634365Y122682D03*
D10*
X636270Y122682D03*
D11*
X638175Y122682D03*
D10*
X640080Y122682D03*
D11*
X641985Y122682D03*
X644271Y122682D03*
X646557Y122682D03*
D13*
X649605Y122682D03*
D46*
X656463Y122682D03*
D11*
X662559Y122682D03*
X664845Y122682D03*
D10*
X666750Y122682D03*
X668274Y122682D03*
X669798Y122682D03*
X671322Y122682D03*
X672846Y122682D03*
X674370Y122682D03*
D76*
X443103Y123444D03*
D12*
X518160Y123444D03*
D11*
X520827Y123444D03*
X523113Y123444D03*
X525399Y123444D03*
X527685Y123444D03*
D10*
X529590Y123444D03*
D11*
X531495Y123444D03*
D10*
X533400Y123444D03*
X534924Y123444D03*
X536448Y123444D03*
X537972Y123444D03*
X539496Y123444D03*
X541020Y123444D03*
X542544Y123444D03*
X544068Y123444D03*
X545592Y123444D03*
X547116Y123444D03*
X548640Y123444D03*
X550164Y123444D03*
X551688Y123444D03*
X553212Y123444D03*
X554736Y123444D03*
X556260Y123444D03*
X557784Y123444D03*
X559308Y123444D03*
X560832Y123444D03*
X562356Y123444D03*
X563880Y123444D03*
X565404Y123444D03*
X566928Y123444D03*
X568452Y123444D03*
X569976Y123444D03*
X571500Y123444D03*
X573024Y123444D03*
X574548Y123444D03*
X576072Y123444D03*
X577596Y123444D03*
X579120Y123444D03*
X580644Y123444D03*
X582168Y123444D03*
X583692Y123444D03*
X585216Y123444D03*
X587502Y123444D03*
X589026Y123444D03*
X591312Y123444D03*
X593598Y123444D03*
X595884Y123444D03*
X598170Y123444D03*
X600456Y123444D03*
X603504Y123444D03*
X606552Y123444D03*
D64*
X388620Y124206D03*
D11*
X408813Y124206D03*
X411099Y124206D03*
X413385Y124206D03*
X415671Y124206D03*
X417957Y124206D03*
D10*
X419862Y124206D03*
D11*
X421767Y124206D03*
D10*
X423672Y124206D03*
X425196Y124206D03*
D11*
X427101Y124206D03*
X429387Y124206D03*
D12*
X432054Y124206D03*
D39*
X436245Y124206D03*
D12*
X440436Y124206D03*
D11*
X443103Y124206D03*
X445389Y124206D03*
D10*
X447294Y124206D03*
X448818Y124206D03*
X450342Y124206D03*
X451866Y124206D03*
X453390Y124206D03*
X454914Y124206D03*
X456438Y124206D03*
X457962Y124206D03*
X459486Y124206D03*
X461010Y124206D03*
X462534Y124206D03*
X464058Y124206D03*
X465582Y124206D03*
X467106Y124206D03*
X468630Y124206D03*
X470154Y124206D03*
X471678Y124206D03*
X473202Y124206D03*
X474726Y124206D03*
X477012Y124206D03*
X478536Y124206D03*
X480822Y124206D03*
X483108Y124206D03*
X485394Y124206D03*
X487680Y124206D03*
X489966Y124206D03*
X493014Y124206D03*
X496062Y124206D03*
X371094Y124968D03*
X373380Y124968D03*
X375666Y124968D03*
X377952Y124968D03*
X380238Y124968D03*
X382524Y124968D03*
X385572Y124968D03*
X388620Y124968D03*
X669036Y131064D03*
X672084Y131064D03*
X674370Y131064D03*
X676656Y131064D03*
X678942Y131064D03*
X681228Y131064D03*
X682752Y131064D03*
X684276Y131064D03*
X685800Y131064D03*
X687324Y131064D03*
X688848Y131064D03*
X690372Y131064D03*
X691896Y131064D03*
X693420Y131064D03*
X694944Y131064D03*
X558546Y131826D03*
X561594Y131826D03*
X563880Y131826D03*
X566166Y131826D03*
X568452Y131826D03*
X570738Y131826D03*
X572262Y131826D03*
X573786Y131826D03*
X575310Y131826D03*
X576834Y131826D03*
X578358Y131826D03*
X579882Y131826D03*
X581406Y131826D03*
X582930Y131826D03*
X584454Y131826D03*
X585978Y131826D03*
X587502Y131826D03*
X589026Y131826D03*
X590550Y131826D03*
X592074Y131826D03*
X593598Y131826D03*
X595122Y131826D03*
X596646Y131826D03*
D11*
X598551Y131826D03*
D10*
X600456Y131826D03*
X601980Y131826D03*
D13*
X622173Y131826D03*
D39*
X626745Y131826D03*
D49*
X633984Y131826D03*
D10*
X639318Y131826D03*
D77*
X673989Y131826D03*
D10*
X448056Y132588D03*
X451866Y132588D03*
X477774Y132588D03*
X479298Y132588D03*
X480822Y132588D03*
X482346Y132588D03*
X483870Y132588D03*
X485394Y132588D03*
X486918Y132588D03*
X488442Y132588D03*
D11*
X490347Y132588D03*
X492633Y132588D03*
X494919Y132588D03*
X497205Y132588D03*
X499491Y132588D03*
X501777Y132588D03*
D12*
X504444Y132588D03*
D13*
X507873Y132588D03*
X511683Y132588D03*
X515493Y132588D03*
D43*
X519684Y132588D03*
D46*
X526923Y132588D03*
D78*
X578739Y132588D03*
D52*
X629793Y132588D03*
D79*
X672846Y132588D03*
D10*
X370332Y133350D03*
X371856Y133350D03*
X373380Y133350D03*
X374904Y133350D03*
X376428Y133350D03*
X377952Y133350D03*
D11*
X379857Y133350D03*
X382143Y133350D03*
X384429Y133350D03*
X386715Y133350D03*
D10*
X388620Y133350D03*
X390144Y133350D03*
D43*
X409194Y133350D03*
D12*
X413004Y133350D03*
D10*
X415290Y133350D03*
D50*
X441960Y133350D03*
D80*
X503682Y133350D03*
D81*
X578358Y133350D03*
D52*
X629793Y133350D03*
D79*
X672846Y133350D03*
D48*
X379857Y134112D03*
D49*
X410718Y134112D03*
D50*
X441960Y134112D03*
D82*
X503301Y134112D03*
D81*
X577596Y134112D03*
D55*
X630174Y134112D03*
D78*
X671703Y134112D03*
D50*
X379476Y134874D03*
D46*
X410337Y134874D03*
D48*
X441579Y134874D03*
D82*
X502539Y134874D03*
D83*
X577215Y134874D03*
D52*
X629793Y134874D03*
D78*
X670941Y134874D03*
D50*
X379476Y135636D03*
D45*
X410337Y135636D03*
D48*
X441579Y135636D03*
D82*
X501777Y135636D03*
D84*
X576834Y135636D03*
D55*
X630174Y135636D03*
D79*
X670560Y135636D03*
D48*
X379095Y136398D03*
D19*
X409956Y136398D03*
D50*
X441198Y136398D03*
D85*
X501396Y136398D03*
D84*
X576072Y136398D03*
D52*
X630555Y136398D03*
D78*
X670179Y136398D03*
D50*
X378714Y137160D03*
D19*
X409956Y137160D03*
D48*
X440817Y137160D03*
D85*
X500634Y137160D03*
D71*
X575691Y137160D03*
D52*
X630555Y137160D03*
D78*
X669417Y137160D03*
D50*
X378714Y137922D03*
D42*
X409194Y137922D03*
D50*
X440436Y137922D03*
D85*
X499872Y137922D03*
D10*
X549402Y137922D03*
D71*
X575691Y137922D03*
D52*
X630555Y137922D03*
D78*
X668655Y137922D03*
D48*
X378333Y138684D03*
D42*
X409194Y138684D03*
D50*
X440436Y138684D03*
D85*
X499110Y138684D03*
D71*
X574929Y138684D03*
D55*
X630936Y138684D03*
D78*
X667893Y138684D03*
D48*
X377571Y139446D03*
D35*
X409194Y139446D03*
D48*
X440055Y139446D03*
D85*
X498348Y139446D03*
D86*
X574548Y139446D03*
D52*
X630555Y139446D03*
D79*
X667512Y139446D03*
D50*
X377952Y140208D03*
D54*
X408813Y140208D03*
D50*
X439674Y140208D03*
D85*
X498348Y140208D03*
D87*
X574167Y140208D03*
D52*
X631317Y140208D03*
D78*
X667131Y140208D03*
D50*
X377190Y140970D03*
D27*
X408432Y140970D03*
D50*
X439674Y140970D03*
D85*
X497586Y140970D03*
D87*
X573405Y140970D03*
D52*
X631317Y140970D03*
D78*
X666369Y140970D03*
D50*
X377190Y141732D03*
D59*
X408051Y141732D03*
D48*
X439293Y141732D03*
D85*
X496824Y141732D03*
D88*
X573024Y141732D03*
D52*
X631317Y141732D03*
D78*
X665607Y141732D03*
D48*
X376809Y142494D03*
D61*
X407670Y142494D03*
D48*
X438531Y142494D03*
D85*
X496062Y142494D03*
D88*
X572262Y142494D03*
D52*
X631317Y142494D03*
D79*
X665226Y142494D03*
D50*
X376428Y143256D03*
D55*
X407670Y143256D03*
D50*
X438912Y143256D03*
D82*
X495681Y143256D03*
D88*
X572262Y143256D03*
D89*
X654939Y143256D03*
D50*
X376428Y144018D03*
D52*
X407289Y144018D03*
D48*
X438531Y144018D03*
D82*
X494919Y144018D03*
D90*
X571881Y144018D03*
D91*
X654558Y144018D03*
D48*
X376047Y144780D03*
D52*
X407289Y144780D03*
D50*
X438150Y144780D03*
D82*
X494157Y144780D03*
D90*
X571119Y144780D03*
D92*
X654558Y144780D03*
D50*
X375666Y145542D03*
D48*
X406527Y145542D03*
D50*
X438150Y145542D03*
D80*
X493776Y145542D03*
X570738Y145542D03*
D93*
X654177Y145542D03*
D50*
X375666Y146304D03*
D69*
X406908Y146304D03*
D50*
X437388Y146304D03*
D80*
X493014Y146304D03*
X570738Y146304D03*
D50*
X632460Y146304D03*
D10*
X644652Y146304D03*
X646938Y146304D03*
X649224Y146304D03*
X651510Y146304D03*
X653796Y146304D03*
X656082Y146304D03*
X658368Y146304D03*
X660654Y146304D03*
D34*
X674370Y146304D03*
D48*
X375285Y147066D03*
D69*
X406146Y147066D03*
D48*
X437007Y147066D03*
D94*
X486918Y147066D03*
D49*
X512826Y147066D03*
D10*
X518160Y147066D03*
X544068Y147066D03*
X546354Y147066D03*
X548640Y147066D03*
X550926Y147066D03*
X553212Y147066D03*
X555498Y147066D03*
X557784Y147066D03*
X560070Y147066D03*
X562356Y147066D03*
X564642Y147066D03*
X566928Y147066D03*
X569214Y147066D03*
X571500Y147066D03*
X573786Y147066D03*
X575310Y147066D03*
D50*
X586740Y147066D03*
D52*
X632079Y147066D03*
D69*
X673608Y147066D03*
D50*
X374904Y147828D03*
D34*
X406146Y147828D03*
D50*
X437388Y147828D03*
D10*
X467106Y147828D03*
X470154Y147828D03*
X473202Y147828D03*
X477012Y147828D03*
X480822Y147828D03*
X483108Y147828D03*
D48*
X495681Y147828D03*
D50*
X586740Y147828D03*
D55*
X632460Y147828D03*
D26*
X673227Y147828D03*
D50*
X374904Y148590D03*
D28*
X405765Y148590D03*
D50*
X436626Y148590D03*
X495300Y148590D03*
X586740Y148590D03*
D52*
X632079Y148590D03*
D26*
X672465Y148590D03*
D48*
X374523Y149352D03*
D21*
X405384Y149352D03*
D50*
X436626Y149352D03*
X495300Y149352D03*
X585978Y149352D03*
D55*
X632460Y149352D03*
D69*
X672084Y149352D03*
D48*
X373761Y150114D03*
D41*
X405003Y150114D03*
D48*
X436245Y150114D03*
D50*
X494538Y150114D03*
D48*
X585597Y150114D03*
D55*
X632460Y150114D03*
D69*
X671322Y150114D03*
D50*
X374142Y150876D03*
D47*
X404622Y150876D03*
D50*
X435864Y150876D03*
X494538Y150876D03*
D52*
X585597Y150876D03*
D55*
X632460Y150876D03*
D26*
X670941Y150876D03*
D50*
X373380Y151638D03*
D36*
X404622Y151638D03*
D50*
X435864Y151638D03*
X494538Y151638D03*
X585216Y151638D03*
D52*
X632841Y151638D03*
D26*
X670179Y151638D03*
D50*
X373380Y152400D03*
D36*
X404622Y152400D03*
D48*
X435483Y152400D03*
D50*
X493776Y152400D03*
X585216Y152400D03*
D55*
X633222Y152400D03*
D69*
X669798Y152400D03*
D50*
X373380Y153162D03*
D30*
X404241Y153162D03*
D50*
X435102Y153162D03*
D48*
X493395Y153162D03*
D50*
X584454Y153162D03*
D52*
X632841Y153162D03*
D69*
X669036Y153162D03*
D50*
X372618Y153924D03*
D33*
X403860Y153924D03*
D50*
X435102Y153924D03*
X493776Y153924D03*
X584454Y153924D03*
D55*
X633222Y153924D03*
D26*
X668655Y153924D03*
D48*
X372237Y154686D03*
D44*
X403479Y154686D03*
D50*
X434340Y154686D03*
X493014Y154686D03*
X584454Y154686D03*
D55*
X633222Y154686D03*
D69*
X668274Y154686D03*
D50*
X372618Y155448D03*
D23*
X403479Y155448D03*
D50*
X434340Y155448D03*
X493014Y155448D03*
X583692Y155448D03*
D55*
X633222Y155448D03*
D69*
X667512Y155448D03*
D50*
X371856Y156210D03*
D56*
X403098Y156210D03*
D50*
X434340Y156210D03*
D48*
X492633Y156210D03*
D50*
X583692Y156210D03*
D55*
X633222Y156210D03*
D69*
X666750Y156210D03*
D50*
X371856Y156972D03*
D63*
X402717Y156972D03*
D50*
X433578Y156972D03*
X492252Y156972D03*
X583692Y156972D03*
D55*
X633984Y156972D03*
D26*
X666369Y156972D03*
D48*
X371475Y157734D03*
D37*
X402336Y157734D03*
D50*
X433578Y157734D03*
X492252Y157734D03*
X582930Y157734D03*
D52*
X633603Y157734D03*
D69*
X665988Y157734D03*
D50*
X371094Y158496D03*
D25*
X402336Y158496D03*
D50*
X433578Y158496D03*
X491490Y158496D03*
X582930Y158496D03*
D55*
X633984Y158496D03*
D69*
X665226Y158496D03*
D50*
X371094Y159258D03*
D25*
X401574Y159258D03*
D50*
X432816Y159258D03*
X491490Y159258D03*
X582930Y159258D03*
D55*
X633984Y159258D03*
D69*
X664464Y159258D03*
D48*
X370713Y160020D03*
D60*
X401955Y160020D03*
D50*
X432816Y160020D03*
X491490Y160020D03*
X582168Y160020D03*
D55*
X633984Y160020D03*
D48*
X664083Y160020D03*
D50*
X370332Y160782D03*
D64*
X401574Y160782D03*
D50*
X432816Y160782D03*
X490728Y160782D03*
X582168Y160782D03*
D55*
X633984Y160782D03*
D69*
X663702Y160782D03*
D50*
X370332Y161544D03*
D66*
X401193Y161544D03*
D50*
X432054Y161544D03*
X490728Y161544D03*
D52*
X581787Y161544D03*
D55*
X634746Y161544D03*
D69*
X662940Y161544D03*
D50*
X369570Y162306D03*
D55*
X390906Y162306D03*
X410718Y162306D03*
D48*
X431673Y162306D03*
D50*
X490728Y162306D03*
X581406Y162306D03*
D55*
X634746Y162306D03*
D69*
X662178Y162306D03*
D50*
X369570Y163068D03*
D55*
X390144Y163068D03*
X410718Y163068D03*
D50*
X432054Y163068D03*
X489966Y163068D03*
X581406Y163068D03*
D55*
X634746Y163068D03*
D48*
X661797Y163068D03*
D67*
X379476Y163830D03*
X421386Y163830D03*
D50*
X489966Y163830D03*
D52*
X581025Y163830D03*
D55*
X634746Y163830D03*
D69*
X661416Y163830D03*
D24*
X378333Y164592D03*
X421767Y164592D03*
D50*
X489966Y164592D03*
X580644Y164592D03*
D55*
X634746Y164592D03*
D69*
X660654Y164592D03*
D24*
X378333Y165354D03*
D65*
X421386Y165354D03*
D50*
X489204Y165354D03*
X580644Y165354D03*
D55*
X634746Y165354D03*
D69*
X659892Y165354D03*
D24*
X377571Y166116D03*
D65*
X421386Y166116D03*
D50*
X489204Y166116D03*
X579882Y166116D03*
D57*
X635127Y166116D03*
D48*
X659511Y166116D03*
D65*
X377190Y166878D03*
X421386Y166878D03*
D50*
X489204Y166878D03*
X579882Y166878D03*
D55*
X635508Y166878D03*
D48*
X658749Y166878D03*
D66*
X376809Y167640D03*
X421005Y167640D03*
D50*
X488442Y167640D03*
X579882Y167640D03*
D55*
X635508Y167640D03*
D69*
X658368Y167640D03*
D64*
X376428Y168402D03*
D66*
X421005Y168402D03*
D50*
X488442Y168402D03*
X579120Y168402D03*
D55*
X635508Y168402D03*
D69*
X657606Y168402D03*
D64*
X375666Y169164D03*
X421386Y169164D03*
D50*
X487680Y169164D03*
X579120Y169164D03*
D55*
X635508Y169164D03*
D48*
X657225Y169164D03*
D60*
X375285Y169926D03*
X421005Y169926D03*
D50*
X487680Y169926D03*
X579120Y169926D03*
D68*
X646557Y169926D03*
D64*
X374904Y170688D03*
D60*
X421005Y170688D03*
D50*
X487680Y170688D03*
X578358Y170688D03*
D68*
X646557Y170688D03*
D25*
X374142Y171450D03*
D60*
X421005Y171450D03*
D48*
X487299Y171450D03*
D50*
X578358Y171450D03*
D24*
X646557Y171450D03*
D25*
X374142Y172212D03*
D31*
X421005Y172212D03*
D50*
X486918Y172212D03*
D52*
X577977Y172212D03*
D65*
X646176Y172212D03*
D25*
X373380Y172974D03*
D31*
X421005Y172974D03*
D50*
X486918Y172974D03*
X577596Y172974D03*
D66*
X645795Y172974D03*
D31*
X372999Y173736D03*
X421005Y173736D03*
D50*
X486156Y173736D03*
X577596Y173736D03*
D66*
X645795Y173736D03*
D37*
X372618Y174498D03*
X420624Y174498D03*
D48*
X485775Y174498D03*
D10*
X497586Y174498D03*
X499872Y174498D03*
X502158Y174498D03*
X504444Y174498D03*
X506730Y174498D03*
X509016Y174498D03*
X510540Y174498D03*
D39*
X513969Y174498D03*
D48*
X577215Y174498D03*
D64*
X645414Y174498D03*
D37*
X371856Y175260D03*
X420624Y175260D03*
D80*
X489204Y175260D03*
D50*
X576834Y175260D03*
D60*
X645033Y175260D03*
D63*
X371475Y176022D03*
D37*
X420624Y176022D03*
D82*
X488061Y176022D03*
D50*
X576834Y176022D03*
D25*
X644652Y176022D03*
D63*
X371475Y176784D03*
D56*
X420624Y176784D03*
D85*
X487680Y176784D03*
D50*
X576072Y176784D03*
D37*
X644652Y176784D03*
D56*
X370332Y177546D03*
X420624Y177546D03*
D85*
X486918Y177546D03*
D50*
X576072Y177546D03*
D37*
X644652Y177546D03*
D56*
X370332Y178308D03*
D23*
X420243Y178308D03*
D85*
X486156Y178308D03*
D50*
X576072Y178308D03*
D63*
X644271Y178308D03*
D23*
X369189Y179070D03*
X420243Y179070D03*
D85*
X485394Y179070D03*
D50*
X575310Y179070D03*
D56*
X643890Y179070D03*
D23*
X369189Y179832D03*
X420243Y179832D03*
D85*
X485394Y179832D03*
D50*
X575310Y179832D03*
D62*
X643890Y179832D03*
D23*
X368427Y180594D03*
D62*
X420624Y180594D03*
D85*
X484632Y180594D03*
D50*
X575310Y180594D03*
D62*
X643890Y180594D03*
X368046Y181356D03*
D44*
X420243Y181356D03*
D85*
X483870Y181356D03*
D50*
X574548Y181356D03*
D44*
X643509Y181356D03*
X367665Y182118D03*
X420243Y182118D03*
D85*
X483108Y182118D03*
D50*
X574548Y182118D03*
D33*
X643128Y182118D03*
D44*
X366903Y182880D03*
D33*
X419862Y182880D03*
D85*
X482346Y182880D03*
D50*
X574548Y182880D03*
D30*
X643509Y182880D03*
D33*
X366522Y183642D03*
X419862Y183642D03*
D82*
X481965Y183642D03*
D50*
X573786Y183642D03*
D40*
X642747Y183642D03*
D30*
X366141Y184404D03*
X420243Y184404D03*
D85*
X481584Y184404D03*
D50*
X573786Y184404D03*
D40*
X642747Y184404D03*
D30*
X365379Y185166D03*
D36*
X419862Y185166D03*
D82*
X480441Y185166D03*
D48*
X573405Y185166D03*
D21*
X642366Y185166D03*
D30*
X365379Y185928D03*
D36*
X419862Y185928D03*
D85*
X480060Y185928D03*
D50*
X573024Y185928D03*
D28*
X642747Y185928D03*
D40*
X364617Y186690D03*
X419481Y186690D03*
D82*
X479679Y186690D03*
D50*
X573024Y186690D03*
D26*
X641985Y186690D03*
D36*
X364236Y187452D03*
X419862Y187452D03*
D82*
X478917Y187452D03*
D48*
X572643Y187452D03*
X641985Y187452D03*
D47*
X363474Y188214D03*
D41*
X419481Y188214D03*
D80*
X477774Y188214D03*
D50*
X572262Y188214D03*
D12*
X633222Y188214D03*
X636270Y188214D03*
X639318Y188214D03*
X642366Y188214D03*
D11*
X645033Y188214D03*
X647319Y188214D03*
X649605Y188214D03*
D10*
X651510Y188214D03*
D47*
X363474Y188976D03*
X419862Y188976D03*
D80*
X477774Y188976D03*
D10*
X563118Y188976D03*
X564642Y188976D03*
X566166Y188976D03*
X567690Y188976D03*
X569214Y188976D03*
X570738Y188976D03*
X572262Y188976D03*
X573786Y188976D03*
X575310Y188976D03*
X576834Y188976D03*
X578358Y188976D03*
X579882Y188976D03*
X581406Y188976D03*
D41*
X362331Y189738D03*
D10*
X376428Y189738D03*
D51*
X409575Y189738D03*
D13*
X414909Y189738D03*
D12*
X418338Y189738D03*
X421386Y189738D03*
X424434Y189738D03*
D11*
X427101Y189738D03*
X429387Y189738D03*
X431673Y189738D03*
D10*
X451104Y189738D03*
X452628Y189738D03*
X454152Y189738D03*
X455676Y189738D03*
X457200Y189738D03*
X458724Y189738D03*
X460248Y189738D03*
X461772Y189738D03*
X463296Y189738D03*
X464820Y189738D03*
X466344Y189738D03*
X467868Y189738D03*
X469392Y189738D03*
X470916Y189738D03*
X472440Y189738D03*
X473964Y189738D03*
X475488Y189738D03*
X477012Y189738D03*
X478536Y189738D03*
X480060Y189738D03*
X481584Y189738D03*
X483108Y189738D03*
X484632Y189738D03*
X486156Y189738D03*
X487680Y189738D03*
X489966Y189738D03*
X492252Y189738D03*
X494538Y189738D03*
X496824Y189738D03*
X499110Y189738D03*
X502158Y189738D03*
X350520Y190500D03*
X352044Y190500D03*
X353568Y190500D03*
X355092Y190500D03*
X356616Y190500D03*
X358140Y190500D03*
X359664Y190500D03*
X361188Y190500D03*
X362712Y190500D03*
X364236Y190500D03*
X365760Y190500D03*
X367284Y190500D03*
X368808Y190500D03*
X370332Y190500D03*
X371856Y190500D03*
X373380Y190500D03*
X374904Y190500D03*
X526542Y211074D03*
D11*
X525399Y211836D03*
D43*
X525780Y212598D03*
D39*
X526161Y213360D03*
D51*
X525399Y214122D03*
D22*
X525780Y214884D03*
D49*
X525780Y215646D03*
D53*
X525780Y216408D03*
D19*
X525780Y217170D03*
D51*
X522351Y217932D03*
X529209Y217932D03*
X521589Y218694D03*
D29*
X529590Y218694D03*
D51*
X521589Y219456D03*
D39*
X529971Y219456D03*
D10*
X533400Y219456D03*
D29*
X520446Y220218D03*
D22*
X530352Y220218D03*
D51*
X520065Y220980D03*
X531495Y220980D03*
X519303Y221742D03*
D29*
X531876Y221742D03*
X518922Y222504D03*
D51*
X533019Y222504D03*
X517779Y223266D03*
X533019Y223266D03*
X517779Y224028D03*
X533781Y224028D03*
D29*
X516636Y224790D03*
D12*
X525780Y224790D03*
D51*
X534543Y224790D03*
D22*
X516636Y225552D03*
D43*
X525780Y225552D03*
D51*
X535305Y225552D03*
X515493Y226314D03*
D39*
X525399Y226314D03*
D51*
X536067Y226314D03*
D29*
X515112Y227076D03*
D51*
X526161Y227076D03*
X536829Y227076D03*
X513969Y227838D03*
D22*
X525780Y227838D03*
D51*
X536829Y227838D03*
X513969Y228600D03*
D49*
X525780Y228600D03*
D29*
X537972Y228600D03*
D51*
X513207Y229362D03*
D46*
X525399Y229362D03*
D51*
X538353Y229362D03*
X512445Y230124D03*
D19*
X525780Y230124D03*
D51*
X539115Y230124D03*
X511683Y230886D03*
D19*
X525780Y230886D03*
D22*
X539496Y230886D03*
D51*
X510921Y231648D03*
D35*
X525780Y231648D03*
D51*
X540639Y231648D03*
D29*
X510540Y232410D03*
D35*
X525780Y232410D03*
D51*
X540639Y232410D03*
X510159Y233172D03*
D54*
X525399Y233172D03*
D51*
X542163Y233172D03*
X509397Y233934D03*
D61*
X525780Y233934D03*
D51*
X542163Y233934D03*
X508635Y234696D03*
D57*
X526161Y234696D03*
D51*
X542925Y234696D03*
X507873Y235458D03*
D52*
X525399Y235458D03*
D29*
X543306Y235458D03*
D51*
X507873Y236220D03*
D48*
X526161Y236220D03*
D51*
X544449Y236220D03*
D29*
X506730Y236982D03*
D69*
X525780Y236982D03*
D51*
X544449Y236982D03*
X506349Y237744D03*
D34*
X525780Y237744D03*
D29*
X545592Y237744D03*
D51*
X505587Y238506D03*
D28*
X525399Y238506D03*
D51*
X545973Y238506D03*
X504825Y239268D03*
D47*
X525780Y239268D03*
D51*
X546735Y239268D03*
D29*
X504444Y240030D03*
D40*
X525399Y240030D03*
D51*
X547497Y240030D03*
X503301Y240792D03*
D36*
X525780Y240792D03*
D51*
X548259Y240792D03*
D29*
X502920Y241554D03*
D33*
X525780Y241554D03*
D51*
X548259Y241554D03*
X502539Y242316D03*
D62*
X525780Y242316D03*
D29*
X549402Y242316D03*
X501396Y243078D03*
D56*
X525780Y243078D03*
D51*
X549783Y243078D03*
X501015Y243840D03*
D63*
X526161Y243840D03*
D51*
X550545Y243840D03*
D10*
X496824Y244602D03*
D29*
X500634Y244602D03*
D31*
X525399Y244602D03*
D51*
X550545Y244602D03*
X500253Y245364D03*
D25*
X525780Y245364D03*
D51*
X552069Y245364D03*
D29*
X499110Y246126D03*
D64*
X525780Y246126D03*
D51*
X552069Y246126D03*
X498729Y246888D03*
D55*
X515874Y246888D03*
X535686Y246888D03*
D51*
X552831Y246888D03*
X497967Y247650D03*
D55*
X515112Y247650D03*
X536448Y247650D03*
D51*
X553593Y247650D03*
X497205Y248412D03*
D55*
X514350Y248412D03*
X537210Y248412D03*
D51*
X554355Y248412D03*
X496443Y249174D03*
D55*
X513588Y249174D03*
X537210Y249174D03*
D51*
X555117Y249174D03*
D29*
X496062Y249936D03*
D57*
X513207Y249936D03*
D52*
X538353Y249936D03*
D51*
X555879Y249936D03*
D29*
X495300Y250698D03*
D57*
X512445Y250698D03*
D55*
X538734Y250698D03*
D51*
X555879Y250698D03*
X494919Y251460D03*
D55*
X512064Y251460D03*
X539496Y251460D03*
D51*
X556641Y251460D03*
X494157Y252222D03*
D57*
X510921Y252222D03*
D55*
X540258Y252222D03*
D29*
X557022Y252222D03*
D51*
X493395Y252984D03*
D55*
X510540Y252984D03*
X541020Y252984D03*
D51*
X558165Y252984D03*
D29*
X493014Y253746D03*
D57*
X510159Y253746D03*
D55*
X541020Y253746D03*
D22*
X558546Y253746D03*
D29*
X492252Y254508D03*
D57*
X509397Y254508D03*
D55*
X542544Y254508D03*
D29*
X559308Y254508D03*
D51*
X491871Y255270D03*
D55*
X509016Y255270D03*
X542544Y255270D03*
D51*
X559689Y255270D03*
X491109Y256032D03*
D57*
X507873Y256032D03*
D55*
X543306Y256032D03*
D22*
X560832Y256032D03*
X490728Y256794D03*
D55*
X507492Y256794D03*
D57*
X543687Y256794D03*
D51*
X561213Y256794D03*
D29*
X489966Y257556D03*
D57*
X507111Y257556D03*
D55*
X544830Y257556D03*
D51*
X561975Y257556D03*
X488823Y258318D03*
D57*
X506349Y258318D03*
D55*
X544830Y258318D03*
D29*
X562356Y258318D03*
D51*
X488823Y259080D03*
D57*
X505587Y259080D03*
X545973Y259080D03*
D51*
X563499Y259080D03*
X488061Y259842D03*
D57*
X504825Y259842D03*
D55*
X546354Y259842D03*
D51*
X563499Y259842D03*
X487299Y260604D03*
D55*
X504444Y260604D03*
X547116Y260604D03*
D51*
X564261Y260604D03*
X486537Y261366D03*
D57*
X504063Y261366D03*
D55*
X547878Y261366D03*
D51*
X565023Y261366D03*
D29*
X486156Y262128D03*
D55*
X502920Y262128D03*
X548640Y262128D03*
D29*
X566166Y262128D03*
D51*
X485013Y262890D03*
D55*
X502158Y262890D03*
X548640Y262890D03*
D29*
X566166Y262890D03*
D51*
X485013Y263652D03*
D57*
X501777Y263652D03*
D55*
X549402Y263652D03*
D51*
X567309Y263652D03*
X484251Y264414D03*
D55*
X501396Y264414D03*
X550164Y264414D03*
D51*
X567309Y264414D03*
X483489Y265176D03*
D57*
X501015Y265176D03*
D55*
X550926Y265176D03*
D51*
X568071Y265176D03*
X482727Y265938D03*
D55*
X499872Y265938D03*
X551688Y265938D03*
D51*
X568833Y265938D03*
D29*
X482346Y266700D03*
D57*
X499491Y266700D03*
D55*
X552450Y266700D03*
D51*
X569595Y266700D03*
D29*
X481584Y267462D03*
D57*
X498729Y267462D03*
D55*
X552450Y267462D03*
D29*
X569976Y267462D03*
D51*
X481203Y268224D03*
D57*
X497967Y268224D03*
X553593Y268224D03*
D51*
X571119Y268224D03*
X480441Y268986D03*
D55*
X497586Y268986D03*
X553974Y268986D03*
D51*
X571119Y268986D03*
X479679Y269748D03*
D55*
X496824Y269748D03*
D57*
X554355Y269748D03*
D29*
X572262Y269748D03*
D51*
X478917Y270510D03*
D55*
X496062Y270510D03*
X555498Y270510D03*
D51*
X572643Y270510D03*
D29*
X478536Y271272D03*
D57*
X495681Y271272D03*
D55*
X556260Y271272D03*
D51*
X573405Y271272D03*
D29*
X477774Y272034D03*
D57*
X494919Y272034D03*
X556641Y272034D03*
D29*
X573786Y272034D03*
D51*
X477393Y272796D03*
D55*
X494538Y272796D03*
X557022Y272796D03*
D51*
X574929Y272796D03*
X476631Y273558D03*
D57*
X493395Y273558D03*
D55*
X557784Y273558D03*
D29*
X575310Y273558D03*
D51*
X475869Y274320D03*
D55*
X493014Y274320D03*
D57*
X558165Y274320D03*
D51*
X575691Y274320D03*
D29*
X475488Y275082D03*
D55*
X492252Y275082D03*
X559308Y275082D03*
D51*
X576453Y275082D03*
D29*
X474726Y275844D03*
D57*
X491871Y275844D03*
D55*
X560070Y275844D03*
D51*
X577215Y275844D03*
D29*
X473964Y276606D03*
D57*
X491109Y276606D03*
X560451Y276606D03*
D29*
X577596Y276606D03*
D51*
X473583Y277368D03*
D57*
X490347Y277368D03*
D55*
X560832Y277368D03*
D51*
X578739Y277368D03*
X472821Y278130D03*
D55*
X489966Y278130D03*
D57*
X561975Y278130D03*
D51*
X578739Y278130D03*
D29*
X472440Y278892D03*
D57*
X489585Y278892D03*
D55*
X562356Y278892D03*
D51*
X579501Y278892D03*
X471297Y279654D03*
D55*
X488442Y279654D03*
X563118Y279654D03*
D51*
X580263Y279654D03*
X471297Y280416D03*
D57*
X488061Y280416D03*
D55*
X563880Y280416D03*
D51*
X581025Y280416D03*
X470535Y281178D03*
D57*
X487299Y281178D03*
D55*
X563880Y281178D03*
D29*
X581406Y281178D03*
D51*
X469773Y281940D03*
D55*
X486918Y281940D03*
D10*
X518160Y281940D03*
D46*
X523875Y281940D03*
D10*
X529590Y281940D03*
X531876Y281940D03*
D55*
X565404Y281940D03*
D51*
X582549Y281940D03*
X469011Y282702D03*
D55*
X486156Y282702D03*
D61*
X523494Y282702D03*
D55*
X565404Y282702D03*
D51*
X582549Y282702D03*
X468249Y283464D03*
D57*
X485775Y283464D03*
D26*
X523875Y283464D03*
D10*
X536448Y283464D03*
D55*
X566166Y283464D03*
D29*
X583692Y283464D03*
D51*
X468249Y284226D03*
D57*
X485013Y284226D03*
D41*
X523875Y284226D03*
D55*
X566928Y284226D03*
D51*
X584073Y284226D03*
D29*
X467106Y284988D03*
D57*
X484251Y284988D03*
D30*
X523875Y284988D03*
D52*
X567309Y284988D03*
D51*
X584835Y284988D03*
X466725Y285750D03*
D55*
X483870Y285750D03*
D23*
X523875Y285750D03*
D57*
X568071Y285750D03*
D29*
X585216Y285750D03*
D51*
X465963Y286512D03*
D55*
X483108Y286512D03*
D31*
X523875Y286512D03*
D55*
X568452Y286512D03*
D51*
X586359Y286512D03*
X465201Y287274D03*
D55*
X482346Y287274D03*
D60*
X523875Y287274D03*
D55*
X569214Y287274D03*
D51*
X586359Y287274D03*
X465201Y288036D03*
D55*
X481584Y288036D03*
D65*
X524256Y288036D03*
D55*
X569976Y288036D03*
D51*
X587121Y288036D03*
X463677Y288798D03*
D57*
X481203Y288798D03*
D68*
X523875Y288798D03*
D55*
X570738Y288798D03*
D51*
X587883Y288798D03*
X463677Y289560D03*
D55*
X480822Y289560D03*
D94*
X523494Y289560D03*
D10*
X545592Y289560D03*
D55*
X571500Y289560D03*
D51*
X588645Y289560D03*
X462915Y290322D03*
D57*
X479679Y290322D03*
D70*
X523875Y290322D03*
D55*
X571500Y290322D03*
D29*
X589026Y290322D03*
D51*
X462153Y291084D03*
D55*
X479298Y291084D03*
D77*
X523875Y291084D03*
D55*
X573024Y291084D03*
D51*
X590169Y291084D03*
X461391Y291846D03*
D55*
X478536Y291846D03*
D78*
X523875Y291846D03*
D55*
X573024Y291846D03*
D51*
X590169Y291846D03*
D29*
X461010Y292608D03*
D57*
X478155Y292608D03*
D83*
X523875Y292608D03*
D55*
X573786Y292608D03*
D51*
X590931Y292608D03*
X459867Y293370D03*
D57*
X477393Y293370D03*
D71*
X523875Y293370D03*
D57*
X574167Y293370D03*
D51*
X591693Y293370D03*
X459867Y294132D03*
D55*
X477012Y294132D03*
D86*
X524256Y294132D03*
D55*
X575310Y294132D03*
D51*
X592455Y294132D03*
X459105Y294894D03*
D55*
X476250Y294894D03*
D87*
X523875Y294894D03*
D55*
X575310Y294894D03*
D51*
X593217Y294894D03*
X458343Y295656D03*
D55*
X475488Y295656D03*
D28*
X509397Y295656D03*
D10*
X522732Y295656D03*
X525780Y295656D03*
D34*
X538734Y295656D03*
D55*
X576072Y295656D03*
D29*
X593598Y295656D03*
D51*
X457581Y296418D03*
D55*
X474726Y296418D03*
D48*
X507873Y296418D03*
D69*
X540258Y296418D03*
D55*
X576834Y296418D03*
D51*
X593979Y296418D03*
D22*
X457200Y297180D03*
D55*
X474726Y297180D03*
D48*
X507111Y297180D03*
X541401Y297180D03*
D55*
X577596Y297180D03*
D29*
X595122Y297180D03*
X456438Y297942D03*
D55*
X473202Y297942D03*
D50*
X505968Y297942D03*
D52*
X541401Y297942D03*
D55*
X578358Y297942D03*
D51*
X595503Y297942D03*
X456057Y298704D03*
D55*
X473202Y298704D03*
D52*
X505587Y298704D03*
D50*
X542544Y298704D03*
D55*
X579120Y298704D03*
D51*
X596265Y298704D03*
X455295Y299466D03*
D55*
X472440Y299466D03*
D52*
X504825Y299466D03*
X542925Y299466D03*
D55*
X579120Y299466D03*
D51*
X596265Y299466D03*
X454533Y300228D03*
D55*
X471678Y300228D03*
D52*
X504825Y300228D03*
X543687Y300228D03*
D55*
X579882Y300228D03*
D51*
X597789Y300228D03*
X453771Y300990D03*
D55*
X470916Y300990D03*
D52*
X504063Y300990D03*
D55*
X544068Y300990D03*
X580644Y300990D03*
D51*
X597789Y300990D03*
D10*
X451104Y301752D03*
D39*
X454533Y301752D03*
D57*
X470535Y301752D03*
D55*
X503682Y301752D03*
D52*
X544449Y301752D03*
D55*
X581406Y301752D03*
D29*
X598932Y301752D03*
D10*
X412242Y302514D03*
X413766Y302514D03*
X416052Y302514D03*
X417576Y302514D03*
X419100Y302514D03*
X421386Y302514D03*
X422910Y302514D03*
X450342Y302514D03*
D43*
X453390Y302514D03*
D52*
X469773Y302514D03*
X503301Y302514D03*
D55*
X544830Y302514D03*
X581406Y302514D03*
D51*
X599313Y302514D03*
D10*
X406908Y303276D03*
D26*
X419481Y303276D03*
D10*
X432054Y303276D03*
X433578Y303276D03*
X436626Y303276D03*
D57*
X469773Y303276D03*
D55*
X502920Y303276D03*
X544830Y303276D03*
X582930Y303276D03*
D51*
X600075Y303276D03*
D10*
X400050Y304038D03*
D56*
X420624Y304038D03*
D11*
X438531Y304038D03*
D10*
X441198Y304038D03*
X460248Y304038D03*
D59*
X469773Y304038D03*
D57*
X502539Y304038D03*
D55*
X545592Y304038D03*
X582930Y304038D03*
D22*
X600456Y304038D03*
D95*
X424053Y304800D03*
D10*
X446532Y304800D03*
D11*
X465963Y304800D03*
D12*
X468630Y304800D03*
D22*
X473964Y304800D03*
D52*
X502539Y304800D03*
D55*
X545592Y304800D03*
D57*
X584073Y304800D03*
D51*
X601599Y304800D03*
D83*
X425577Y305562D03*
D10*
X451104Y305562D03*
X468630Y305562D03*
D22*
X473202Y305562D03*
D57*
X501777Y305562D03*
D55*
X545592Y305562D03*
X584454Y305562D03*
D51*
X601599Y305562D03*
D82*
X428625Y306324D03*
D10*
X457200Y306324D03*
X473202Y306324D03*
X474726Y306324D03*
X476250Y306324D03*
D55*
X502158Y306324D03*
X546354Y306324D03*
X585216Y306324D03*
D29*
X602742Y306324D03*
D96*
X430149Y307086D03*
D10*
X461010Y307086D03*
D55*
X502158Y307086D03*
X546354Y307086D03*
D52*
X585597Y307086D03*
D51*
X603123Y307086D03*
D89*
X432435Y307848D03*
D10*
X466344Y307848D03*
D55*
X501396Y307848D03*
D52*
X546735Y307848D03*
D55*
X586740Y307848D03*
D51*
X603885Y307848D03*
D97*
X434340Y308610D03*
D10*
X470154Y308610D03*
D55*
X500634Y308610D03*
D57*
X546735Y308610D03*
D55*
X586740Y308610D03*
D51*
X603885Y308610D03*
D98*
X436626Y309372D03*
D10*
X474726Y309372D03*
D57*
X501777Y309372D03*
D55*
X547116Y309372D03*
D52*
X587883Y309372D03*
D51*
X605409Y309372D03*
D99*
X438150Y310134D03*
D10*
X478536Y310134D03*
X493014Y310134D03*
D59*
X502539Y310134D03*
D55*
X547116Y310134D03*
X588264Y310134D03*
D51*
X605409Y310134D03*
D100*
X441579Y310896D03*
D10*
X496824Y310896D03*
X498348Y310896D03*
D11*
X500253Y310896D03*
D49*
X505968Y310896D03*
D52*
X547497Y310896D03*
D55*
X589026Y310896D03*
D29*
X606552Y310896D03*
D101*
X442722Y311658D03*
D10*
X499872Y311658D03*
D46*
X505587Y311658D03*
D55*
X547116Y311658D03*
D52*
X589407Y311658D03*
D51*
X606933Y311658D03*
D102*
X445389Y312420D03*
D11*
X505587Y312420D03*
D13*
X508635Y312420D03*
D55*
X547878Y312420D03*
X590550Y312420D03*
D51*
X607695Y312420D03*
D103*
X446532Y313182D03*
D10*
X507492Y313182D03*
X509016Y313182D03*
D55*
X547878Y313182D03*
X590550Y313182D03*
D51*
X607695Y313182D03*
D104*
X449961Y313944D03*
D55*
X547878Y313944D03*
D57*
X591693Y313944D03*
D51*
X609219Y313944D03*
D105*
X450723Y314706D03*
D10*
X501396Y314706D03*
D55*
X547878Y314706D03*
D52*
X591693Y314706D03*
D51*
X609219Y314706D03*
D106*
X453390Y315468D03*
D10*
X505206Y315468D03*
D55*
X547878Y315468D03*
D10*
X583692Y315468D03*
D61*
X593598Y315468D03*
D51*
X609981Y315468D03*
D59*
X411099Y316230D03*
D107*
X464058Y316230D03*
D55*
X547878Y316230D03*
D57*
X593979Y316230D03*
D51*
X610743Y316230D03*
D42*
X409956Y316992D03*
D10*
X425958Y316992D03*
X427482Y316992D03*
D100*
X469773Y316992D03*
D10*
X512064Y316992D03*
D55*
X548640Y316992D03*
D11*
X587883Y316992D03*
D35*
X596646Y316992D03*
D51*
X611505Y316992D03*
D32*
X410337Y317754D03*
D10*
X431292Y317754D03*
D100*
X473583Y317754D03*
D10*
X515874Y317754D03*
D52*
X548259Y317754D03*
D54*
X596265Y317754D03*
D29*
X611886Y317754D03*
D42*
X411480Y318516D03*
D10*
X436626Y318516D03*
D108*
X477774Y318516D03*
D10*
X518922Y318516D03*
D55*
X548640Y318516D03*
D10*
X582168Y318516D03*
D11*
X591693Y318516D03*
D19*
X598932Y318516D03*
D22*
X612648Y318516D03*
D32*
X411861Y319278D03*
D10*
X441198Y319278D03*
D109*
X481965Y319278D03*
D10*
X522732Y319278D03*
D52*
X548259Y319278D03*
D12*
X582168Y319278D03*
D10*
X584454Y319278D03*
D42*
X598932Y319278D03*
D51*
X613029Y319278D03*
D42*
X413766Y320040D03*
D10*
X445008Y320040D03*
D99*
X485394Y320040D03*
D10*
X525780Y320040D03*
D57*
X549021Y320040D03*
D39*
X582549Y320040D03*
D10*
X585978Y320040D03*
X595122Y320040D03*
X596646Y320040D03*
D49*
X601980Y320040D03*
D29*
X614172Y320040D03*
D42*
X413766Y320802D03*
D10*
X448818Y320802D03*
D99*
X489204Y320802D03*
D10*
X529590Y320802D03*
X542544Y320802D03*
D35*
X550926Y320802D03*
D51*
X584073Y320802D03*
D10*
X588264Y320802D03*
D45*
X601599Y320802D03*
D29*
X614172Y320802D03*
D38*
X415671Y321564D03*
D10*
X435102Y321564D03*
X436626Y321564D03*
X452628Y321564D03*
D110*
X492633Y321564D03*
D10*
X532638Y321564D03*
X545592Y321564D03*
D19*
X552450Y321564D03*
D46*
X584835Y321564D03*
D10*
X590550Y321564D03*
X598932Y321564D03*
D58*
X603885Y321564D03*
D51*
X615315Y321564D03*
D35*
X416052Y322326D03*
D51*
X436245Y322326D03*
D10*
X456438Y322326D03*
D110*
X496443Y322326D03*
D46*
X553593Y322326D03*
D53*
X585978Y322326D03*
D10*
X600456Y322326D03*
D51*
X604647Y322326D03*
D22*
X615696Y322326D03*
D54*
X417957Y323088D03*
D29*
X435864Y323088D03*
D10*
X445008Y323088D03*
D13*
X462153Y323088D03*
D111*
X501777Y323088D03*
D10*
X551688Y323088D03*
D11*
X553593Y323088D03*
D43*
X557022Y323088D03*
D38*
X587121Y323088D03*
D10*
X602742Y323088D03*
D29*
X606552Y323088D03*
D51*
X616077Y323088D03*
D54*
X418719Y323850D03*
D22*
X435102Y323850D03*
D39*
X445389Y323850D03*
D10*
X448818Y323850D03*
D99*
X502920Y323850D03*
D10*
X544068Y323850D03*
D13*
X556641Y323850D03*
D54*
X587883Y323850D03*
D29*
X606552Y323850D03*
D51*
X616839Y323850D03*
D54*
X420243Y324612D03*
D29*
X434340Y324612D03*
D46*
X446913Y324612D03*
D10*
X452628Y324612D03*
X467106Y324612D03*
D112*
X506349Y324612D03*
D10*
X545592Y324612D03*
X547116Y324612D03*
D61*
X589026Y324612D03*
D43*
X607314Y324612D03*
D51*
X617601Y324612D03*
D35*
X419862Y325374D03*
D51*
X433959Y325374D03*
D38*
X448437Y325374D03*
D10*
X456438Y325374D03*
X470916Y325374D03*
D112*
X510159Y325374D03*
D10*
X549402Y325374D03*
D55*
X589788Y325374D03*
D10*
X600456Y325374D03*
D29*
X608076Y325374D03*
D51*
X618363Y325374D03*
D32*
X420243Y326136D03*
D51*
X433197Y326136D03*
D57*
X449961Y326136D03*
D10*
X473964Y326136D03*
D112*
X513207Y326136D03*
D10*
X552450Y326136D03*
D50*
X590550Y326136D03*
D10*
X601980Y326136D03*
D39*
X609219Y326136D03*
D51*
X619125Y326136D03*
D45*
X420243Y326898D03*
D51*
X432435Y326898D03*
D57*
X449199Y326898D03*
D10*
X477774Y326898D03*
D112*
X517017Y326898D03*
D10*
X556260Y326898D03*
D26*
X590931Y326898D03*
D10*
X603504Y326898D03*
D29*
X608838Y326898D03*
X619506Y326898D03*
D49*
X420624Y327660D03*
D29*
X432054Y327660D03*
D52*
X449199Y327660D03*
D10*
X480822Y327660D03*
X482346Y327660D03*
D112*
X521589Y327660D03*
D26*
X591693Y327660D03*
D29*
X609600Y327660D03*
D51*
X620649Y327660D03*
D22*
X420624Y328422D03*
D51*
X430911Y328422D03*
D57*
X448437Y328422D03*
D10*
X483870Y328422D03*
D11*
X485775Y328422D03*
D111*
X524637Y328422D03*
D10*
X563118Y328422D03*
D34*
X592074Y328422D03*
D51*
X609981Y328422D03*
X620649Y328422D03*
X421005Y329184D03*
X430911Y329184D03*
D55*
X448056Y329184D03*
D10*
X486918Y329184D03*
X488442Y329184D03*
D112*
X527685Y329184D03*
D10*
X567690Y329184D03*
D21*
X592074Y329184D03*
D29*
X610362Y329184D03*
D51*
X621411Y329184D03*
D43*
X421386Y329946D03*
D51*
X430149Y329946D03*
D55*
X447294Y329946D03*
D10*
X490728Y329946D03*
D11*
X492633Y329946D03*
D98*
X531114Y329946D03*
D34*
X592074Y329946D03*
D58*
X610743Y329946D03*
D51*
X622173Y329946D03*
D12*
X421386Y330708D03*
D51*
X429387Y330708D03*
D55*
X446532Y330708D03*
D10*
X493776Y330708D03*
D113*
X532638Y330708D03*
D10*
X574548Y330708D03*
X576072Y330708D03*
D21*
X592074Y330708D03*
D22*
X611886Y330708D03*
D29*
X622554Y330708D03*
D22*
X428244Y331470D03*
D57*
X446151Y331470D03*
D10*
X497586Y331470D03*
D114*
X534543Y331470D03*
D43*
X576072Y331470D03*
D10*
X579120Y331470D03*
D28*
X592455Y331470D03*
D58*
X611505Y331470D03*
D51*
X623697Y331470D03*
X428625Y332232D03*
D52*
X445389Y332232D03*
D10*
X499872Y332232D03*
X501396Y332232D03*
X502920Y332232D03*
D89*
X536829Y332232D03*
D23*
X589407Y332232D03*
D58*
X613029Y332232D03*
D29*
X624078Y332232D03*
X427482Y332994D03*
D57*
X444627Y332994D03*
D10*
X489966Y332994D03*
X502920Y332994D03*
D92*
X536448Y332994D03*
D23*
X588645Y332994D03*
D49*
X612648Y332994D03*
D51*
X624459Y332994D03*
X427101Y333756D03*
D55*
X444246Y333756D03*
D13*
X491871Y333756D03*
D10*
X507492Y333756D03*
D115*
X539115Y333756D03*
D56*
X589788Y333756D03*
D49*
X613410Y333756D03*
D51*
X625221Y333756D03*
D29*
X425958Y334518D03*
D55*
X443484Y334518D03*
D29*
X493014Y334518D03*
D10*
X496824Y334518D03*
X510540Y334518D03*
D116*
X539877Y334518D03*
D63*
X589407Y334518D03*
D49*
X613410Y334518D03*
D51*
X625983Y334518D03*
X425577Y335280D03*
D55*
X442722Y335280D03*
D53*
X494538Y335280D03*
D80*
X541782Y335280D03*
D63*
X589407Y335280D03*
D46*
X614553Y335280D03*
D51*
X626745Y335280D03*
X424815Y336042D03*
D55*
X441960Y336042D03*
D42*
X496062Y336042D03*
D10*
X517398Y336042D03*
D84*
X543306Y336042D03*
D37*
X589026Y336042D03*
D46*
X614553Y336042D03*
D51*
X626745Y336042D03*
X424815Y336804D03*
D57*
X441579Y336804D03*
D35*
X497586Y336804D03*
D10*
X505968Y336804D03*
X520446Y336804D03*
D79*
X544830Y336804D03*
D31*
X589407Y336804D03*
D10*
X611124Y336804D03*
D58*
X616077Y336804D03*
D29*
X627888Y336804D03*
D51*
X423291Y337566D03*
D57*
X440817Y337566D03*
D55*
X499110Y337566D03*
D117*
X545592Y337566D03*
D60*
X589407Y337566D03*
D10*
X612648Y337566D03*
D22*
X617220Y337566D03*
D51*
X628269Y337566D03*
X423291Y338328D03*
D55*
X440436Y338328D03*
X499872Y338328D03*
D10*
X526542Y338328D03*
D24*
X547497Y338328D03*
D25*
X589026Y338328D03*
D29*
X617982Y338328D03*
D51*
X629031Y338328D03*
X422529Y339090D03*
D55*
X439674Y339090D03*
X499110Y339090D03*
D60*
X548259Y339090D03*
D64*
X589788Y339090D03*
D10*
X617220Y339090D03*
D43*
X620268Y339090D03*
D51*
X629793Y339090D03*
X421767Y339852D03*
D55*
X438912Y339852D03*
X499872Y339852D03*
D10*
X532638Y339852D03*
D56*
X550164Y339852D03*
D24*
X590169Y339852D03*
D10*
X611124Y339852D03*
X618744Y339852D03*
D11*
X620649Y339852D03*
D10*
X622554Y339852D03*
D51*
X630555Y339852D03*
X421005Y340614D03*
D55*
X438150Y340614D03*
X499110Y340614D03*
D10*
X535686Y340614D03*
D33*
X551688Y340614D03*
D94*
X590550Y340614D03*
D12*
X621792Y340614D03*
D29*
X630936Y340614D03*
X420624Y341376D03*
D55*
X438150Y341376D03*
X499872Y341376D03*
D47*
X552450Y341376D03*
D70*
X592455Y341376D03*
D22*
X631698Y341376D03*
X419862Y342138D03*
D55*
X436626Y342138D03*
X499872Y342138D03*
D28*
X553593Y342138D03*
D79*
X592074Y342138D03*
D10*
X616458Y342138D03*
D29*
X632460Y342138D03*
D51*
X419481Y342900D03*
D55*
X436626Y342900D03*
X499872Y342900D03*
D11*
X545973Y342900D03*
D61*
X556260Y342900D03*
D83*
X593979Y342900D03*
D51*
X632841Y342900D03*
X418719Y343662D03*
D55*
X435864Y343662D03*
X499872Y343662D03*
D59*
X555879Y343662D03*
D86*
X594360Y343662D03*
D51*
X633603Y343662D03*
D29*
X418338Y344424D03*
D57*
X435483Y344424D03*
D55*
X499872Y344424D03*
D10*
X550164Y344424D03*
D38*
X558165Y344424D03*
D90*
X595503Y344424D03*
D29*
X634746Y344424D03*
D51*
X417195Y345186D03*
D55*
X434340Y345186D03*
X499872Y345186D03*
D10*
X540258Y345186D03*
X553212Y345186D03*
D53*
X559308Y345186D03*
D85*
X595884Y345186D03*
D51*
X634365Y345186D03*
D29*
X416814Y345948D03*
D55*
X434340Y345948D03*
D57*
X500253Y345948D03*
D13*
X540639Y345948D03*
D10*
X543306Y345948D03*
D58*
X560451Y345948D03*
D118*
X597408Y345948D03*
D51*
X635889Y345948D03*
D29*
X416052Y346710D03*
D57*
X433197Y346710D03*
D55*
X499872Y346710D03*
D22*
X541782Y346710D03*
D10*
X546354Y346710D03*
X560070Y346710D03*
D12*
X562356Y346710D03*
D118*
X597408Y346710D03*
D51*
X635889Y346710D03*
X415671Y347472D03*
D55*
X432816Y347472D03*
X500634Y347472D03*
D53*
X544068Y347472D03*
D10*
X550164Y347472D03*
X562356Y347472D03*
D115*
X597789Y347472D03*
D51*
X636651Y347472D03*
X414909Y348234D03*
D55*
X432054Y348234D03*
D57*
X500253Y348234D03*
D42*
X544830Y348234D03*
D10*
X552450Y348234D03*
D119*
X597408Y348234D03*
D51*
X637413Y348234D03*
D29*
X414528Y348996D03*
D57*
X431673Y348996D03*
D55*
X500634Y348996D03*
D59*
X547497Y348996D03*
D10*
X557022Y348996D03*
D119*
X598170Y348996D03*
D29*
X638556Y348996D03*
D51*
X413385Y349758D03*
D55*
X430530Y349758D03*
X500634Y349758D03*
X547878Y349758D03*
D120*
X597789Y349758D03*
D29*
X638556Y349758D03*
D51*
X413385Y350520D03*
D57*
X430149Y350520D03*
X501015Y350520D03*
D55*
X547878Y350520D03*
D119*
X598170Y350520D03*
D13*
X640461Y350520D03*
D51*
X412623Y351282D03*
D57*
X429387Y351282D03*
D55*
X500634Y351282D03*
D52*
X547497Y351282D03*
D10*
X568452Y351282D03*
D115*
X600075Y351282D03*
D10*
X640080Y351282D03*
D11*
X641985Y351282D03*
D51*
X411861Y352044D03*
D55*
X429006Y352044D03*
X501396Y352044D03*
X547878Y352044D03*
D10*
X569976Y352044D03*
D119*
X601980Y352044D03*
D10*
X641604Y352044D03*
X643128Y352044D03*
D22*
X410718Y352806D03*
D55*
X428244Y352806D03*
D57*
X501015Y352806D03*
X547497Y352806D03*
D120*
X602361Y352806D03*
D29*
X410718Y353568D03*
D57*
X427863Y353568D03*
X501777Y353568D03*
D55*
X547116Y353568D03*
D89*
X603123Y353568D03*
D29*
X409956Y354330D03*
D55*
X426720Y354330D03*
X501396Y354330D03*
X547116Y354330D03*
D121*
X603885Y354330D03*
D29*
X409194Y355092D03*
D57*
X426339Y355092D03*
X501777Y355092D03*
D55*
X547116Y355092D03*
D122*
X605028Y355092D03*
D51*
X408813Y355854D03*
D55*
X425958Y355854D03*
D57*
X501777Y355854D03*
D55*
X547116Y355854D03*
D123*
X605409Y355854D03*
D51*
X408051Y356616D03*
D55*
X425196Y356616D03*
X502158Y356616D03*
X546354Y356616D03*
D112*
X606171Y356616D03*
D10*
X645414Y356616D03*
D51*
X407289Y357378D03*
D55*
X424434Y357378D03*
D57*
X502539Y357378D03*
D55*
X546354Y357378D03*
D99*
X606552Y357378D03*
D29*
X406908Y358140D03*
D57*
X424053Y358140D03*
D55*
X502920Y358140D03*
X546354Y358140D03*
D100*
X607695Y358140D03*
D29*
X406146Y358902D03*
D57*
X423291Y358902D03*
D55*
X502920Y358902D03*
X545592Y358902D03*
D124*
X607695Y358902D03*
D10*
X650748Y358902D03*
D51*
X405765Y359664D03*
D55*
X422910Y359664D03*
D57*
X503301Y359664D03*
D55*
X545592Y359664D03*
D101*
X608838Y359664D03*
D10*
X653034Y359664D03*
D51*
X405003Y360426D03*
D57*
X421767Y360426D03*
D55*
X503682Y360426D03*
X545592Y360426D03*
D125*
X609600Y360426D03*
D10*
X656082Y360426D03*
D51*
X404241Y361188D03*
D55*
X421386Y361188D03*
D57*
X504063Y361188D03*
D55*
X544830Y361188D03*
D126*
X609981Y361188D03*
D10*
X656844Y361188D03*
D51*
X403479Y361950D03*
D57*
X421005Y361950D03*
D55*
X504444Y361950D03*
D52*
X544449Y361950D03*
D127*
X610743Y361950D03*
D10*
X659130Y361950D03*
D29*
X403098Y362712D03*
D57*
X420243Y362712D03*
D55*
X505206Y362712D03*
D52*
X544449Y362712D03*
D104*
X611505Y362712D03*
D10*
X660654Y362712D03*
D29*
X402336Y363474D03*
D57*
X419481Y363474D03*
D52*
X504825Y363474D03*
X543687Y363474D03*
D105*
X613029Y363474D03*
D51*
X401955Y364236D03*
D55*
X419100Y364236D03*
X505968Y364236D03*
D50*
X543306Y364236D03*
D128*
X614553Y364236D03*
D51*
X401193Y364998D03*
D55*
X418338Y364998D03*
D52*
X506349Y364998D03*
D50*
X542544Y364998D03*
D128*
X616839Y364998D03*
D10*
X668274Y364998D03*
D51*
X400431Y365760D03*
D57*
X417957Y365760D03*
D50*
X507492Y365760D03*
D48*
X542163Y365760D03*
D10*
X569214Y365760D03*
D47*
X583692Y365760D03*
D129*
X632841Y365760D03*
D10*
X669036Y365760D03*
D51*
X399669Y366522D03*
D57*
X417195Y366522D03*
D48*
X507873Y366522D03*
D69*
X541020Y366522D03*
D28*
X582549Y366522D03*
D10*
X595884Y366522D03*
X598170Y366522D03*
D114*
X635127Y366522D03*
D29*
X399288Y367284D03*
D57*
X416433Y367284D03*
D69*
X509016Y367284D03*
D10*
X521208Y367284D03*
X527304Y367284D03*
D26*
X539877Y367284D03*
D10*
X572262Y367284D03*
D52*
X583311Y367284D03*
D10*
X594360Y367284D03*
X601218Y367284D03*
D129*
X637413Y367284D03*
D10*
X673608Y367284D03*
D29*
X398526Y368046D03*
D57*
X415671Y368046D03*
D90*
X524637Y368046D03*
D10*
X574548Y368046D03*
D59*
X584073Y368046D03*
D10*
X602742Y368046D03*
D122*
X639318Y368046D03*
D51*
X398145Y368808D03*
D55*
X415290Y368808D03*
D87*
X524637Y368808D03*
D10*
X576072Y368808D03*
D38*
X584073Y368808D03*
D10*
X604266Y368808D03*
D114*
X641223Y368808D03*
D10*
X678180Y368808D03*
D51*
X397383Y369570D03*
D55*
X414528Y369570D03*
D71*
X524637Y369570D03*
D10*
X578358Y369570D03*
D46*
X584073Y369570D03*
D10*
X589788Y369570D03*
X601980Y369570D03*
X607314Y369570D03*
D129*
X643509Y369570D03*
D51*
X396621Y370332D03*
D55*
X413766Y370332D03*
D84*
X525018Y370332D03*
D10*
X579882Y370332D03*
D22*
X584454Y370332D03*
D10*
X608838Y370332D03*
D122*
X645414Y370332D03*
D51*
X395859Y371094D03*
D57*
X413385Y371094D03*
D83*
X524637Y371094D03*
D11*
X583311Y371094D03*
X585597Y371094D03*
D10*
X611124Y371094D03*
D122*
X647700Y371094D03*
D10*
X684276Y371094D03*
D29*
X395478Y371856D03*
D57*
X412623Y371856D03*
D79*
X525018Y371856D03*
D10*
X584454Y371856D03*
X612648Y371856D03*
D129*
X648843Y371856D03*
D10*
X685038Y371856D03*
D29*
X394716Y372618D03*
D57*
X411861Y372618D03*
D77*
X524637Y372618D03*
D43*
X617220Y372618D03*
D89*
X654177Y372618D03*
D51*
X394335Y373380D03*
D55*
X411480Y373380D03*
D117*
X525018Y373380D03*
D10*
X617220Y373380D03*
D93*
X656463Y373380D03*
D10*
X689610Y373380D03*
D51*
X393573Y374142D03*
D55*
X410718Y374142D03*
D95*
X524637Y374142D03*
D92*
X658368Y374142D03*
D51*
X392811Y374904D03*
D57*
X410337Y374904D03*
D67*
X525018Y374904D03*
D93*
X660273Y374904D03*
D10*
X693420Y374904D03*
D29*
X392430Y375666D03*
D57*
X409575Y375666D03*
D65*
X525018Y375666D03*
D93*
X662559Y375666D03*
D29*
X391668Y376428D03*
D57*
X408813Y376428D03*
D60*
X524637Y376428D03*
D92*
X664464Y376428D03*
D51*
X391287Y377190D03*
D57*
X408051Y377190D03*
D63*
X524637Y377190D03*
D130*
X665988Y377190D03*
D10*
X698754Y377190D03*
D51*
X390525Y377952D03*
D55*
X407670Y377952D03*
D62*
X525018Y377952D03*
D120*
X667131Y377952D03*
D10*
X699516Y377952D03*
D29*
X390144Y378714D03*
D55*
X406908Y378714D03*
D36*
X524256Y378714D03*
D120*
X669417Y378714D03*
D51*
X389001Y379476D03*
D57*
X406527Y379476D03*
D21*
X525018Y379476D03*
D10*
X640080Y379476D03*
D131*
X671322Y379476D03*
D10*
X702564Y379476D03*
D51*
X388239Y380238D03*
D57*
X405765Y380238D03*
D10*
X514350Y380238D03*
D55*
X525018Y380238D03*
D119*
X672084Y380238D03*
D29*
X387858Y381000D03*
D57*
X405003Y381000D03*
D10*
X517398Y381000D03*
D32*
X524637Y381000D03*
D10*
X531876Y381000D03*
D131*
X674370Y381000D03*
D29*
X387096Y381762D03*
D57*
X404241Y381762D03*
D96*
X675513Y381762D03*
D29*
X386334Y382524D03*
D55*
X403860Y382524D03*
D10*
X648462Y382524D03*
D132*
X678180Y382524D03*
D51*
X385953Y383286D03*
D57*
X403479Y383286D03*
D10*
X640080Y383286D03*
D133*
X678561Y383286D03*
D51*
X385191Y384048D03*
D55*
X402336Y384048D03*
D12*
X641604Y384048D03*
D85*
X680466Y384048D03*
D29*
X384810Y384810D03*
D57*
X401955Y384810D03*
D43*
X643128Y384810D03*
D82*
X681609Y384810D03*
D29*
X384048Y385572D03*
D57*
X401193Y385572D03*
D43*
X643890Y385572D03*
D10*
X646938Y385572D03*
X656082Y385572D03*
D90*
X683895Y385572D03*
D29*
X383286Y386334D03*
D57*
X400431Y386334D03*
D22*
X645414Y386334D03*
D10*
X657606Y386334D03*
D88*
X685038Y386334D03*
D51*
X382905Y387096D03*
D55*
X400050Y387096D03*
D58*
X646557Y387096D03*
D10*
X651510Y387096D03*
D86*
X686562Y387096D03*
D51*
X382143Y387858D03*
D55*
X399288Y387858D03*
D46*
X648081Y387858D03*
D10*
X653796Y387858D03*
D84*
X687324Y387858D03*
D51*
X382143Y388620D03*
D57*
X398907Y388620D03*
D53*
X649224Y388620D03*
D10*
X655320Y388620D03*
X665226Y388620D03*
D78*
X689991Y388620D03*
D29*
X381000Y389382D03*
D57*
X398145Y389382D03*
D19*
X650748Y389382D03*
D10*
X657606Y389382D03*
D78*
X689991Y389382D03*
D51*
X380619Y390144D03*
D55*
X397764Y390144D03*
D38*
X651891Y390144D03*
D10*
X659892Y390144D03*
X669036Y390144D03*
D134*
X692658Y390144D03*
D51*
X379857Y390906D03*
D55*
X397002Y390906D03*
D35*
X653796Y390906D03*
D10*
X662178Y390906D03*
D134*
X692658Y390906D03*
D51*
X379095Y391668D03*
D55*
X396240Y391668D03*
D27*
X654558Y391668D03*
D10*
X663702Y391668D03*
D117*
X694944Y391668D03*
D51*
X378333Y392430D03*
D55*
X395478Y392430D03*
D61*
X656082Y392430D03*
D10*
X665988Y392430D03*
X674370Y392430D03*
D68*
X696087Y392430D03*
D29*
X377952Y393192D03*
D57*
X395097Y393192D03*
D55*
X657606Y393192D03*
D67*
X697230Y393192D03*
D51*
X376809Y393954D03*
D55*
X394716Y393954D03*
D57*
X657987Y393954D03*
D65*
X697992Y393954D03*
D51*
X376809Y394716D03*
D57*
X393573Y394716D03*
D55*
X659130Y394716D03*
D66*
X699897Y394716D03*
D51*
X376047Y395478D03*
D57*
X392811Y395478D03*
D55*
X659130Y395478D03*
D10*
X675132Y395478D03*
X682752Y395478D03*
D31*
X701421Y395478D03*
D51*
X375285Y396240D03*
D57*
X392811Y396240D03*
D55*
X659892Y396240D03*
D10*
X675894Y396240D03*
X684276Y396240D03*
D31*
X702945Y396240D03*
D51*
X374523Y397002D03*
D55*
X391668Y397002D03*
X660654Y397002D03*
D11*
X675513Y397002D03*
D10*
X677418Y397002D03*
X678942Y397002D03*
X686562Y397002D03*
D23*
X703707Y397002D03*
D51*
X374523Y397764D03*
D57*
X391287Y397764D03*
D55*
X661416Y397764D03*
D13*
X677037Y397764D03*
D10*
X679704Y397764D03*
D33*
X704850Y397764D03*
D29*
X373380Y398526D03*
D57*
X390525Y398526D03*
D55*
X661416Y398526D03*
D39*
X678561Y398526D03*
D10*
X681990Y398526D03*
X692658Y398526D03*
D26*
X705231Y398526D03*
D51*
X372999Y399288D03*
D55*
X390144Y399288D03*
X662940Y399288D03*
D51*
X680085Y399288D03*
D10*
X696468Y399288D03*
X697992Y399288D03*
D29*
X701802Y399288D03*
X707898Y399288D03*
D10*
X711708Y399288D03*
X713232Y399288D03*
D51*
X372237Y400050D03*
D55*
X389382Y400050D03*
X662940Y400050D03*
D51*
X680085Y400050D03*
D10*
X705612Y400050D03*
D51*
X371475Y400812D03*
D57*
X389001Y400812D03*
D55*
X663702Y400812D03*
D29*
X681228Y400812D03*
D51*
X370713Y401574D03*
D55*
X387858Y401574D03*
X664464Y401574D03*
D51*
X681609Y401574D03*
X370713Y402336D03*
D55*
X387858Y402336D03*
X665226Y402336D03*
D51*
X682371Y402336D03*
X369951Y403098D03*
D57*
X386715Y403098D03*
D10*
X643890Y403098D03*
X646176Y403098D03*
X648462Y403098D03*
D55*
X665226Y403098D03*
D51*
X683133Y403098D03*
X369189Y403860D03*
D55*
X386334Y403860D03*
D10*
X537972Y403860D03*
X540258Y403860D03*
X542544Y403860D03*
X544068Y403860D03*
X545592Y403860D03*
D11*
X560451Y403860D03*
X562737Y403860D03*
X565023Y403860D03*
D10*
X566928Y403860D03*
X568452Y403860D03*
X573024Y403860D03*
D12*
X575310Y403860D03*
D39*
X579501Y403860D03*
D48*
X597789Y403860D03*
D53*
X617220Y403860D03*
D39*
X631317Y403860D03*
D45*
X645795Y403860D03*
D55*
X666750Y403860D03*
D51*
X683895Y403860D03*
X368427Y404622D03*
D55*
X385572Y404622D03*
D10*
X439674Y404622D03*
X441198Y404622D03*
X442722Y404622D03*
X444246Y404622D03*
X445770Y404622D03*
X447294Y404622D03*
X448818Y404622D03*
X450342Y404622D03*
X451866Y404622D03*
X454152Y404622D03*
X463296Y404622D03*
D13*
X465963Y404622D03*
D43*
X470154Y404622D03*
D10*
X473202Y404622D03*
D50*
X487680Y404622D03*
D40*
X518541Y404622D03*
D19*
X540258Y404622D03*
D53*
X563880Y404622D03*
X577596Y404622D03*
D26*
X597027Y404622D03*
D53*
X616458Y404622D03*
D51*
X631317Y404622D03*
D45*
X645795Y404622D03*
D55*
X666750Y404622D03*
D51*
X683895Y404622D03*
X367665Y405384D03*
D55*
X384810Y405384D03*
D53*
X414528Y405384D03*
D10*
X436626Y405384D03*
D59*
X446151Y405384D03*
D10*
X455676Y405384D03*
D46*
X468249Y405384D03*
D26*
X488061Y405384D03*
D36*
X518160Y405384D03*
D32*
X541401Y405384D03*
D45*
X563499Y405384D03*
D53*
X577596Y405384D03*
D69*
X596646Y405384D03*
D45*
X616839Y405384D03*
D51*
X630555Y405384D03*
D53*
X645414Y405384D03*
D55*
X667512Y405384D03*
D39*
X684657Y405384D03*
D10*
X688086Y405384D03*
D22*
X367284Y406146D03*
D57*
X384429Y406146D03*
D53*
X413766Y406146D03*
D48*
X446151Y406146D03*
D46*
X468249Y406146D03*
D26*
X487299Y406146D03*
D30*
X517017Y406146D03*
D19*
X541782Y406146D03*
D45*
X563499Y406146D03*
D53*
X577596Y406146D03*
D69*
X595884Y406146D03*
D53*
X616458Y406146D03*
D58*
X630555Y406146D03*
D45*
X645033Y406146D03*
D55*
X668274Y406146D03*
D51*
X685419Y406146D03*
X366903Y406908D03*
D55*
X384048Y406908D03*
D45*
X414147Y406908D03*
D34*
X446532Y406908D03*
D53*
X468630Y406908D03*
D26*
X486537Y406908D03*
D36*
X516636Y406908D03*
D32*
X542925Y406908D03*
D53*
X563118Y406908D03*
X577596Y406908D03*
D26*
X595503Y406908D03*
D45*
X616077Y406908D03*
D58*
X630555Y406908D03*
D53*
X644652Y406908D03*
D55*
X669036Y406908D03*
D51*
X686181Y406908D03*
D29*
X365760Y407670D03*
D57*
X382905Y407670D03*
D53*
X413766Y407670D03*
D41*
X446151Y407670D03*
D46*
X468249Y407670D03*
D26*
X485775Y407670D03*
D36*
X515874Y407670D03*
D32*
X543687Y407670D03*
D45*
X562737Y407670D03*
D46*
X577977Y407670D03*
D26*
X594741Y407670D03*
D53*
X615696Y407670D03*
D49*
X630174Y407670D03*
D53*
X644652Y407670D03*
D55*
X669036Y407670D03*
D51*
X686943Y407670D03*
X365379Y408432D03*
D55*
X382524Y408432D03*
D45*
X413385Y408432D03*
D47*
X446532Y408432D03*
D53*
X468630Y408432D03*
D69*
X485394Y408432D03*
D30*
X515493Y408432D03*
D32*
X544449Y408432D03*
D53*
X562356Y408432D03*
D23*
X589407Y408432D03*
D45*
X615315Y408432D03*
D53*
X630174Y408432D03*
D45*
X644271Y408432D03*
D55*
X670560Y408432D03*
D51*
X687705Y408432D03*
D29*
X364236Y409194D03*
D10*
X368046Y409194D03*
D55*
X381762Y409194D03*
D53*
X413004Y409194D03*
D47*
X445770Y409194D03*
D23*
X480441Y409194D03*
D36*
X515112Y409194D03*
D32*
X545211Y409194D03*
D53*
X562356Y409194D03*
D62*
X589026Y409194D03*
D45*
X615315Y409194D03*
D53*
X629412Y409194D03*
X643890Y409194D03*
D55*
X670560Y409194D03*
D51*
X687705Y409194D03*
D22*
X364236Y409956D03*
D55*
X381000Y409956D03*
D53*
X413004Y409956D03*
D30*
X446151Y409956D03*
D23*
X479679Y409956D03*
D36*
X514350Y409956D03*
D42*
X546354Y409956D03*
D45*
X561975Y409956D03*
D62*
X589026Y409956D03*
D53*
X614934Y409956D03*
D19*
X629412Y409956D03*
D45*
X643509Y409956D03*
D55*
X671322Y409956D03*
D29*
X688848Y409956D03*
D51*
X363855Y410718D03*
D55*
X380238Y410718D03*
D45*
X412623Y410718D03*
D30*
X445389Y410718D03*
D33*
X479298Y410718D03*
D40*
X513969Y410718D03*
D32*
X546735Y410718D03*
D53*
X561594Y410718D03*
X578358Y410718D03*
D22*
X587502Y410718D03*
D32*
X597789Y410718D03*
D53*
X614172Y410718D03*
D32*
X629031Y410718D03*
D45*
X643509Y410718D03*
D52*
X671703Y410718D03*
D51*
X689229Y410718D03*
X362331Y411480D03*
D55*
X380238Y411480D03*
D53*
X412242Y411480D03*
D30*
X445389Y411480D03*
D44*
X479679Y411480D03*
D19*
X505206Y411480D03*
D10*
X512064Y411480D03*
X513588Y411480D03*
X515112Y411480D03*
X516636Y411480D03*
X518160Y411480D03*
X519684Y411480D03*
X521970Y411480D03*
X525018Y411480D03*
D42*
X547878Y411480D03*
D45*
X561213Y411480D03*
D53*
X579120Y411480D03*
D19*
X597408Y411480D03*
D45*
X614553Y411480D03*
D42*
X628650Y411480D03*
D53*
X643128Y411480D03*
D52*
X673227Y411480D03*
D51*
X689991Y411480D03*
X362331Y412242D03*
D55*
X379476Y412242D03*
D45*
X411861Y412242D03*
D42*
X436626Y412242D03*
D10*
X445008Y412242D03*
D42*
X453390Y412242D03*
D53*
X469392Y412242D03*
D45*
X488061Y412242D03*
D46*
X504825Y412242D03*
D32*
X548259Y412242D03*
D53*
X560832Y412242D03*
X578358Y412242D03*
D45*
X596265Y412242D03*
D53*
X614172Y412242D03*
D38*
X628269Y412242D03*
D53*
X642366Y412242D03*
D55*
X672846Y412242D03*
D51*
X690753Y412242D03*
X361569Y413004D03*
D55*
X378714Y413004D03*
D45*
X411861Y413004D03*
D19*
X435864Y413004D03*
X454914Y413004D03*
D53*
X469392Y413004D03*
D19*
X487680Y413004D03*
D45*
X504825Y413004D03*
D34*
X554736Y413004D03*
D53*
X579120Y413004D03*
D19*
X596646Y413004D03*
D45*
X613791Y413004D03*
D54*
X628269Y413004D03*
D45*
X642747Y413004D03*
D55*
X674370Y413004D03*
D22*
X691896Y413004D03*
D51*
X360807Y413766D03*
D55*
X377952Y413766D03*
D53*
X411480Y413766D03*
D45*
X434721Y413766D03*
X454533Y413766D03*
D46*
X469773Y413766D03*
D19*
X486918Y413766D03*
D45*
X504825Y413766D03*
D10*
X511302Y413766D03*
X512826Y413766D03*
X514350Y413766D03*
X515874Y413766D03*
X517398Y413766D03*
X518922Y413766D03*
D69*
X553974Y413766D03*
D46*
X578739Y413766D03*
D19*
X595884Y413766D03*
D53*
X613410Y413766D03*
D54*
X627507Y413766D03*
D53*
X642366Y413766D03*
D55*
X674370Y413766D03*
D51*
X691515Y413766D03*
D29*
X360426Y414528D03*
D57*
X377571Y414528D03*
D45*
X411099Y414528D03*
X434721Y414528D03*
X454533Y414528D03*
D53*
X469392Y414528D03*
D45*
X486537Y414528D03*
D69*
X511302Y414528D03*
D41*
X552831Y414528D03*
D53*
X579120Y414528D03*
D19*
X595122Y414528D03*
D53*
X613410Y414528D03*
D59*
X627507Y414528D03*
D45*
X641985Y414528D03*
D55*
X675132Y414528D03*
D29*
X692658Y414528D03*
D51*
X359283Y415290D03*
D55*
X376428Y415290D03*
D45*
X411099Y415290D03*
X433959Y415290D03*
D53*
X454152Y415290D03*
D46*
X469773Y415290D03*
D45*
X485775Y415290D03*
D34*
X512064Y415290D03*
D10*
X536448Y415290D03*
D40*
X551307Y415290D03*
D53*
X579120Y415290D03*
D19*
X594360Y415290D03*
D45*
X613029Y415290D03*
D59*
X627507Y415290D03*
D45*
X641985Y415290D03*
D55*
X675894Y415290D03*
D51*
X693039Y415290D03*
X359283Y416052D03*
D55*
X376428Y416052D03*
D53*
X410718Y416052D03*
D45*
X433959Y416052D03*
X454533Y416052D03*
D53*
X470154Y416052D03*
D19*
X485394Y416052D03*
D28*
X512445Y416052D03*
D30*
X550545Y416052D03*
D46*
X579501Y416052D03*
D45*
X593979Y416052D03*
D53*
X612648Y416052D03*
D61*
X627126Y416052D03*
D53*
X641604Y416052D03*
D55*
X676656Y416052D03*
D51*
X693801Y416052D03*
X358521Y416814D03*
D55*
X375666Y416814D03*
D53*
X409956Y416814D03*
D46*
X433197Y416814D03*
D45*
X454533Y416814D03*
D53*
X470154Y416814D03*
D19*
X484632Y416814D03*
D28*
X512445Y416814D03*
D44*
X549783Y416814D03*
D53*
X579120Y416814D03*
D19*
X593598Y416814D03*
D66*
X626745Y416814D03*
D52*
X677037Y416814D03*
D51*
X694563Y416814D03*
X357759Y417576D03*
D55*
X374904Y417576D03*
D45*
X410337Y417576D03*
X433197Y417576D03*
D53*
X454152Y417576D03*
X470154Y417576D03*
D45*
X484251Y417576D03*
D21*
X513588Y417576D03*
D55*
X543306Y417576D03*
D45*
X558927Y417576D03*
D53*
X579882Y417576D03*
D19*
X592836Y417576D03*
D55*
X616458Y417576D03*
D52*
X636651Y417576D03*
D55*
X678180Y417576D03*
D51*
X695325Y417576D03*
X356997Y418338D03*
D55*
X374142Y418338D03*
D53*
X409956Y418338D03*
X432816Y418338D03*
D45*
X453771Y418338D03*
D53*
X470154Y418338D03*
D45*
X483489Y418338D03*
D21*
X513588Y418338D03*
D44*
X548259Y418338D03*
D46*
X579501Y418338D03*
D19*
X592074Y418338D03*
D55*
X616458Y418338D03*
X636270Y418338D03*
X678180Y418338D03*
D51*
X695325Y418338D03*
D22*
X356616Y419100D03*
D52*
X373761Y419100D03*
D45*
X409575Y419100D03*
X432435Y419100D03*
X453771Y419100D03*
D46*
X470535Y419100D03*
D19*
X483108Y419100D03*
D28*
X513969Y419100D03*
D52*
X542163Y419100D03*
D45*
X558927Y419100D03*
D53*
X579882Y419100D03*
D45*
X591693Y419100D03*
D55*
X615696Y419100D03*
X636270Y419100D03*
D52*
X679323Y419100D03*
D51*
X696849Y419100D03*
D22*
X355854Y419862D03*
D57*
X372999Y419862D03*
D53*
X409194Y419862D03*
D45*
X432435Y419862D03*
D53*
X453390Y419862D03*
X470154Y419862D03*
D19*
X482346Y419862D03*
D34*
X514350Y419862D03*
D55*
X541782Y419862D03*
D45*
X558165Y419862D03*
D46*
X579501Y419862D03*
D45*
X590931Y419862D03*
D57*
X615315Y419862D03*
X635889Y419862D03*
D52*
X679323Y419862D03*
D51*
X696849Y419862D03*
X355473Y420624D03*
D55*
X372618Y420624D03*
D45*
X408813Y420624D03*
D53*
X432054Y420624D03*
D45*
X453009Y420624D03*
D46*
X470535Y420624D03*
D45*
X481965Y420624D03*
D26*
X515493Y420624D03*
D55*
X541782Y420624D03*
D45*
X558165Y420624D03*
D48*
X585597Y420624D03*
D61*
X614934Y420624D03*
X636270Y420624D03*
D55*
X680466Y420624D03*
D51*
X697611Y420624D03*
X354711Y421386D03*
D55*
X371856Y421386D03*
D45*
X408813Y421386D03*
X431673Y421386D03*
D53*
X452628Y421386D03*
D50*
X476250Y421386D03*
D45*
X521589Y421386D03*
X536829Y421386D03*
D53*
X557784Y421386D03*
D50*
X585216Y421386D03*
D61*
X614172Y421386D03*
X636270Y421386D03*
D55*
X680466Y421386D03*
D51*
X697611Y421386D03*
X353949Y422148D03*
D55*
X371094Y422148D03*
D53*
X408432Y422148D03*
X431292Y422148D03*
D45*
X453009Y422148D03*
D50*
X476250Y422148D03*
D45*
X521589Y422148D03*
X536829Y422148D03*
X557403Y422148D03*
D55*
X585216Y422148D03*
D61*
X614172Y422148D03*
D59*
X635889Y422148D03*
D55*
X681990Y422148D03*
D51*
X699135Y422148D03*
X353187Y422910D03*
D57*
X370713Y422910D03*
D45*
X408051Y422910D03*
D53*
X431292Y422910D03*
D45*
X452247Y422910D03*
D52*
X475869Y422910D03*
D53*
X521208Y422910D03*
D45*
X536829Y422910D03*
X557403Y422910D03*
D57*
X584835Y422910D03*
D27*
X613410Y422910D03*
X635508Y422910D03*
D55*
X681990Y422910D03*
D22*
X699516Y422910D03*
D29*
X352806Y423672D03*
D52*
X369951Y423672D03*
D53*
X407670Y423672D03*
D10*
X420624Y423672D03*
D45*
X430911Y423672D03*
X452247Y423672D03*
D57*
X475869Y423672D03*
D10*
X499110Y423672D03*
D47*
X513588Y423672D03*
D44*
X546735Y423672D03*
D57*
X584835Y423672D03*
D59*
X613029Y423672D03*
X635889Y423672D03*
D52*
X683133Y423672D03*
D29*
X700278Y423672D03*
D51*
X351663Y424434D03*
D57*
X369189Y424434D03*
D10*
X396240Y424434D03*
D43*
X399288Y424434D03*
D55*
X411480Y424434D03*
D53*
X430530Y424434D03*
X451866Y424434D03*
D57*
X475107Y424434D03*
D40*
X511683Y424434D03*
D44*
X546735Y424434D03*
D61*
X584454Y424434D03*
D54*
X612267Y424434D03*
X635889Y424434D03*
D52*
X683133Y424434D03*
D22*
X700278Y424434D03*
D51*
X351663Y425196D03*
D55*
X368808Y425196D03*
D41*
X408813Y425196D03*
D53*
X430530Y425196D03*
D45*
X451485Y425196D03*
D59*
X475107Y425196D03*
D36*
X512064Y425196D03*
D44*
X546735Y425196D03*
D59*
X584073Y425196D03*
D54*
X612267Y425196D03*
X635889Y425196D03*
D55*
X684276Y425196D03*
D51*
X701421Y425196D03*
X350901Y425958D03*
D55*
X368046Y425958D03*
D47*
X407670Y425958D03*
D45*
X430149Y425958D03*
X451485Y425958D03*
D59*
X475107Y425958D03*
D30*
X510921Y425958D03*
X546735Y425958D03*
D54*
X584073Y425958D03*
X611505Y425958D03*
X635889Y425958D03*
D55*
X684276Y425958D03*
D51*
X702183Y425958D03*
X350139Y426720D03*
D55*
X367284Y426720D03*
D47*
X407670Y426720D03*
D53*
X429768Y426720D03*
X451104Y426720D03*
D27*
X474726Y426720D03*
D36*
X510540Y426720D03*
D30*
X546735Y426720D03*
D54*
X584073Y426720D03*
D35*
X611124Y426720D03*
X635508Y426720D03*
D55*
X685800Y426720D03*
D51*
X702945Y426720D03*
D29*
X349758Y427482D03*
D55*
X366522Y427482D03*
D41*
X406527Y427482D03*
D45*
X429387Y427482D03*
X450723Y427482D03*
D54*
X474345Y427482D03*
D36*
X509778Y427482D03*
D30*
X546735Y427482D03*
D35*
X583692Y427482D03*
X610362Y427482D03*
D38*
X635127Y427482D03*
D55*
X685800Y427482D03*
D51*
X702945Y427482D03*
X348615Y428244D03*
D57*
X366141Y428244D03*
D47*
X406146Y428244D03*
D45*
X429387Y428244D03*
X450723Y428244D03*
D38*
X474345Y428244D03*
D30*
X509397Y428244D03*
D40*
X546735Y428244D03*
D38*
X583311Y428244D03*
D42*
X610362Y428244D03*
D38*
X635889Y428244D03*
D55*
X686562Y428244D03*
D51*
X703707Y428244D03*
D29*
X348234Y429006D03*
D55*
X365760Y429006D03*
D47*
X405384Y429006D03*
D53*
X429006Y429006D03*
X450342Y429006D03*
D42*
X473964Y429006D03*
D30*
X508635Y429006D03*
D41*
X546735Y429006D03*
D32*
X583311Y429006D03*
D38*
X609219Y429006D03*
D42*
X635508Y429006D03*
D52*
X686943Y429006D03*
D51*
X704469Y429006D03*
X347853Y429768D03*
D55*
X364998Y429768D03*
D41*
X405003Y429768D03*
D45*
X428625Y429768D03*
X449961Y429768D03*
D32*
X474345Y429768D03*
D36*
X507492Y429768D03*
D41*
X547497Y429768D03*
D45*
X583311Y429768D03*
D32*
X609219Y429768D03*
D10*
X629412Y429768D03*
D12*
X631698Y429768D03*
X634746Y429768D03*
X637794Y429768D03*
D11*
X640461Y429768D03*
D55*
X688086Y429768D03*
D51*
X705231Y429768D03*
D29*
X346710Y430530D03*
D10*
X350520Y430530D03*
D55*
X364236Y430530D03*
D47*
X403860Y430530D03*
D53*
X428244Y430530D03*
X449580Y430530D03*
D45*
X473583Y430530D03*
D10*
X493776Y430530D03*
D28*
X507111Y430530D03*
D10*
X520446Y430530D03*
D11*
X536829Y430530D03*
X539115Y430530D03*
X541401Y430530D03*
X543687Y430530D03*
X545973Y430530D03*
D10*
X547878Y430530D03*
D11*
X549783Y430530D03*
D10*
X551688Y430530D03*
D11*
X553593Y430530D03*
D10*
X555498Y430530D03*
D11*
X557403Y430530D03*
D10*
X559308Y430530D03*
X579120Y430530D03*
X580644Y430530D03*
X582168Y430530D03*
X583692Y430530D03*
X585216Y430530D03*
X586740Y430530D03*
X604266Y430530D03*
X606552Y430530D03*
X609600Y430530D03*
D55*
X688086Y430530D03*
D22*
X705612Y430530D03*
X346710Y431292D03*
D57*
X363855Y431292D03*
D50*
X401574Y431292D03*
D12*
X413766Y431292D03*
D10*
X416052Y431292D03*
X424434Y431292D03*
D11*
X426339Y431292D03*
X428625Y431292D03*
X430911Y431292D03*
D10*
X432816Y431292D03*
X445770Y431292D03*
D11*
X447675Y431292D03*
X449961Y431292D03*
X452247Y431292D03*
D10*
X454152Y431292D03*
X470154Y431292D03*
X471678Y431292D03*
X473202Y431292D03*
X474726Y431292D03*
X476250Y431292D03*
X477774Y431292D03*
X494538Y431292D03*
X496824Y431292D03*
X499872Y431292D03*
X502920Y431292D03*
D55*
X689610Y431292D03*
D51*
X706755Y431292D03*
D29*
X345948Y432054D03*
D55*
X362712Y432054D03*
D10*
X393954Y432054D03*
D55*
X689610Y432054D03*
D51*
X706755Y432054D03*
D22*
X345186Y432816D03*
D55*
X362712Y432816D03*
X690372Y432816D03*
D51*
X707517Y432816D03*
X344805Y433578D03*
D57*
X361569Y433578D03*
D52*
X690753Y433578D03*
D51*
X708279Y433578D03*
X344043Y434340D03*
D55*
X361188Y434340D03*
X691896Y434340D03*
D51*
X709041Y434340D03*
X343281Y435102D03*
D55*
X360426Y435102D03*
X691896Y435102D03*
D29*
X709422Y435102D03*
D51*
X342519Y435864D03*
D57*
X360045Y435864D03*
D52*
X693039Y435864D03*
D51*
X710565Y435864D03*
X341757Y436626D03*
D55*
X358902Y436626D03*
X693420Y436626D03*
D51*
X710565Y436626D03*
X341757Y437388D03*
D55*
X358902Y437388D03*
X694182Y437388D03*
D51*
X712089Y437388D03*
X340995Y438150D03*
D55*
X358140Y438150D03*
X694182Y438150D03*
D51*
X712089Y438150D03*
X340233Y438912D03*
D55*
X357378Y438912D03*
X695706Y438912D03*
D29*
X712470Y438912D03*
X339090Y439674D03*
D55*
X356616Y439674D03*
X695706Y439674D03*
D22*
X713232Y439674D03*
X339090Y440436D03*
D55*
X355854Y440436D03*
X697230Y440436D03*
D51*
X714375Y440436D03*
D22*
X338328Y441198D03*
D55*
X355092Y441198D03*
D52*
X696849Y441198D03*
D29*
X714756Y441198D03*
X337566Y441960D03*
D55*
X355092Y441960D03*
X697992Y441960D03*
D10*
X711708Y441960D03*
D29*
X715518Y441960D03*
D51*
X337185Y442722D03*
D57*
X353949Y442722D03*
D55*
X698754Y442722D03*
D51*
X715899Y442722D03*
X336423Y443484D03*
D52*
X353949Y443484D03*
D55*
X699516Y443484D03*
D51*
X716661Y443484D03*
X335661Y444246D03*
D52*
X352425Y444246D03*
D50*
X699516Y444246D03*
D51*
X717423Y444246D03*
X334899Y445008D03*
D55*
X352806Y445008D03*
D52*
X700659Y445008D03*
D22*
X717804Y445008D03*
D51*
X334137Y445770D03*
D57*
X351663Y445770D03*
D55*
X701040Y445770D03*
D51*
X718185Y445770D03*
X334137Y446532D03*
D52*
X351663Y446532D03*
D57*
X702183Y446532D03*
D29*
X719328Y446532D03*
D51*
X333375Y447294D03*
D57*
X350139Y447294D03*
D52*
X702183Y447294D03*
D51*
X719709Y447294D03*
X332613Y448056D03*
D52*
X350139Y448056D03*
X702945Y448056D03*
D51*
X720471Y448056D03*
X331851Y448818D03*
D55*
X348996Y448818D03*
D10*
X587502Y448818D03*
X591312Y448818D03*
X594360Y448818D03*
X596646Y448818D03*
X598932Y448818D03*
X601218Y448818D03*
X603504Y448818D03*
X605790Y448818D03*
X607314Y448818D03*
X608838Y448818D03*
X610362Y448818D03*
X611886Y448818D03*
X613410Y448818D03*
X614934Y448818D03*
X616458Y448818D03*
X617982Y448818D03*
X619506Y448818D03*
X621030Y448818D03*
X622554Y448818D03*
X624078Y448818D03*
X625602Y448818D03*
X627126Y448818D03*
X628650Y448818D03*
X630174Y448818D03*
X631698Y448818D03*
X633222Y448818D03*
X634746Y448818D03*
X636270Y448818D03*
D11*
X638175Y448818D03*
X640461Y448818D03*
X642747Y448818D03*
X645033Y448818D03*
X647319Y448818D03*
D12*
X649986Y448818D03*
X653034Y448818D03*
D133*
X683895Y448818D03*
D51*
X721233Y448818D03*
X331089Y449580D03*
D52*
X348615Y449580D03*
D10*
X480822Y449580D03*
X483870Y449580D03*
X486918Y449580D03*
X489204Y449580D03*
X491490Y449580D03*
X493776Y449580D03*
X496062Y449580D03*
X498348Y449580D03*
X499872Y449580D03*
X501396Y449580D03*
X502920Y449580D03*
X504444Y449580D03*
X505968Y449580D03*
X507492Y449580D03*
X509016Y449580D03*
X510540Y449580D03*
X512064Y449580D03*
X513588Y449580D03*
X515112Y449580D03*
X516636Y449580D03*
X518160Y449580D03*
X519684Y449580D03*
X521208Y449580D03*
X522732Y449580D03*
X524256Y449580D03*
X525780Y449580D03*
X527304Y449580D03*
X528828Y449580D03*
D11*
X530733Y449580D03*
X533019Y449580D03*
X535305Y449580D03*
X537591Y449580D03*
X539877Y449580D03*
D12*
X542544Y449580D03*
X545592Y449580D03*
D135*
X630936Y449580D03*
D51*
X721995Y449580D03*
X330327Y450342D03*
D52*
X347853Y450342D03*
D10*
X370332Y450342D03*
X373380Y450342D03*
X376428Y450342D03*
X378714Y450342D03*
X381000Y450342D03*
X383286Y450342D03*
X385572Y450342D03*
X387858Y450342D03*
X389382Y450342D03*
X390906Y450342D03*
X392430Y450342D03*
X393954Y450342D03*
X395478Y450342D03*
X397002Y450342D03*
X398526Y450342D03*
X400050Y450342D03*
X401574Y450342D03*
X403098Y450342D03*
X404622Y450342D03*
X406146Y450342D03*
X407670Y450342D03*
X409194Y450342D03*
X410718Y450342D03*
X412242Y450342D03*
X413766Y450342D03*
X415290Y450342D03*
X416814Y450342D03*
D11*
X418719Y450342D03*
X421005Y450342D03*
X423291Y450342D03*
X425577Y450342D03*
X427863Y450342D03*
X430149Y450342D03*
D12*
X432816Y450342D03*
D13*
X436245Y450342D03*
D136*
X576453Y450342D03*
D29*
X722376Y450342D03*
D51*
X330327Y451104D03*
D137*
X526542Y451104D03*
D51*
X722757Y451104D03*
X329565Y451866D03*
D138*
X526542Y451866D03*
D51*
X723519Y451866D03*
X328803Y452628D03*
D139*
X526542Y452628D03*
D51*
X724281Y452628D03*
X328041Y453390D03*
D140*
X526161Y453390D03*
D29*
X724662Y453390D03*
D22*
X327660Y454152D03*
D141*
X526542Y454152D03*
D51*
X725805Y454152D03*
D29*
X326898Y454914D03*
D141*
X526542Y454914D03*
D51*
X725805Y454914D03*
X326517Y455676D03*
D142*
X526542Y455676D03*
D51*
X726567Y455676D03*
X325755Y456438D03*
D143*
X526161Y456438D03*
D51*
X727329Y456438D03*
X324993Y457200D03*
D144*
X526542Y457200D03*
D29*
X727710Y457200D03*
D51*
X324231Y457962D03*
D145*
X503301Y457962D03*
D13*
X677037Y457962D03*
X680847Y457962D03*
D12*
X684276Y457962D03*
D13*
X687705Y457962D03*
D12*
X691134Y457962D03*
X694182Y457962D03*
X697230Y457962D03*
D48*
X709803Y457962D03*
D51*
X728853Y457962D03*
X324231Y458724D03*
D146*
X447675Y458724D03*
D12*
X565404Y458724D03*
D13*
X568833Y458724D03*
X572643Y458724D03*
D12*
X576072Y458724D03*
D13*
X579501Y458724D03*
X583311Y458724D03*
D12*
X586740Y458724D03*
D97*
X623316Y458724D03*
D13*
X660273Y458724D03*
D12*
X663702Y458724D03*
X666750Y458724D03*
D13*
X670179Y458724D03*
D30*
X686943Y458724D03*
D11*
X702945Y458724D03*
D10*
X704850Y458724D03*
X706374Y458724D03*
X707898Y458724D03*
X709422Y458724D03*
X710946Y458724D03*
X712470Y458724D03*
X713994Y458724D03*
X715518Y458724D03*
X717042Y458724D03*
X719328Y458724D03*
D51*
X729615Y458724D03*
D22*
X323088Y459486D03*
D147*
X393573Y459486D03*
D13*
X458343Y459486D03*
X462153Y459486D03*
D12*
X465582Y459486D03*
D13*
X469011Y459486D03*
X472821Y459486D03*
D12*
X476250Y459486D03*
D11*
X478917Y459486D03*
X481203Y459486D03*
X483489Y459486D03*
D148*
X518541Y459486D03*
D12*
X553974Y459486D03*
X557022Y459486D03*
D23*
X574929Y459486D03*
D11*
X592455Y459486D03*
D10*
X594360Y459486D03*
X595884Y459486D03*
X597408Y459486D03*
X598932Y459486D03*
X600456Y459486D03*
X601980Y459486D03*
X603504Y459486D03*
X605028Y459486D03*
X606552Y459486D03*
X608076Y459486D03*
X610362Y459486D03*
X612648Y459486D03*
X614934Y459486D03*
D51*
X729615Y459486D03*
X322707Y460248D03*
D42*
X336804Y460248D03*
D13*
X345567Y460248D03*
X349377Y460248D03*
X353187Y460248D03*
X356997Y460248D03*
X360807Y460248D03*
X364617Y460248D03*
D12*
X368046Y460248D03*
D123*
X406527Y460248D03*
D12*
X445008Y460248D03*
X448056Y460248D03*
D13*
X451485Y460248D03*
D56*
X470154Y460248D03*
D10*
X487680Y460248D03*
X489204Y460248D03*
X490728Y460248D03*
X492252Y460248D03*
X493776Y460248D03*
X495300Y460248D03*
X496824Y460248D03*
X498348Y460248D03*
X499872Y460248D03*
X501396Y460248D03*
X503682Y460248D03*
X505968Y460248D03*
X509016Y460248D03*
D29*
X730758Y460248D03*
X321564Y461010D03*
D10*
X329946Y461010D03*
D13*
X332613Y461010D03*
D12*
X336042Y461010D03*
X339090Y461010D03*
D62*
X356616Y461010D03*
D11*
X373761Y461010D03*
D10*
X375666Y461010D03*
X377190Y461010D03*
X378714Y461010D03*
X380238Y461010D03*
X381762Y461010D03*
X383286Y461010D03*
X384810Y461010D03*
X386334Y461010D03*
X387858Y461010D03*
X389382Y461010D03*
X390906Y461010D03*
X393192Y461010D03*
X395478Y461010D03*
X398526Y461010D03*
D51*
X731139Y461010D03*
X321183Y461772D03*
D10*
X704850Y461772D03*
X707898Y461772D03*
X710184Y461772D03*
X712470Y461772D03*
X714756Y461772D03*
X717042Y461772D03*
X719328Y461772D03*
X720852Y461772D03*
X723138Y461772D03*
X724662Y461772D03*
X726186Y461772D03*
X727710Y461772D03*
D51*
X731901Y461772D03*
D29*
X320802Y462534D03*
D10*
X595122Y462534D03*
X598932Y462534D03*
X601218Y462534D03*
X603504Y462534D03*
X605790Y462534D03*
X608076Y462534D03*
X610362Y462534D03*
X611886Y462534D03*
X613410Y462534D03*
X614934Y462534D03*
X616458Y462534D03*
X617982Y462534D03*
X619506Y462534D03*
X621030Y462534D03*
X622554Y462534D03*
X624078Y462534D03*
X625602Y462534D03*
X627126Y462534D03*
X628650Y462534D03*
X630174Y462534D03*
X631698Y462534D03*
X633222Y462534D03*
X634746Y462534D03*
X636270Y462534D03*
X637794Y462534D03*
X639318Y462534D03*
D11*
X641223Y462534D03*
X643509Y462534D03*
X645795Y462534D03*
X648081Y462534D03*
X650367Y462534D03*
X652653Y462534D03*
D12*
X655320Y462534D03*
D110*
X696087Y462534D03*
D22*
X320040Y463296D03*
D10*
X489204Y463296D03*
X492252Y463296D03*
X494538Y463296D03*
X496824Y463296D03*
X499110Y463296D03*
X501396Y463296D03*
X503682Y463296D03*
X505206Y463296D03*
X507492Y463296D03*
X509016Y463296D03*
X510540Y463296D03*
X512064Y463296D03*
X513588Y463296D03*
X515112Y463296D03*
X516636Y463296D03*
X518160Y463296D03*
X519684Y463296D03*
X521208Y463296D03*
X522732Y463296D03*
X524256Y463296D03*
X525780Y463296D03*
X527304Y463296D03*
X528828Y463296D03*
X530352Y463296D03*
X531876Y463296D03*
D11*
X533781Y463296D03*
X536067Y463296D03*
X538353Y463296D03*
X540639Y463296D03*
X542925Y463296D03*
D12*
X545592Y463296D03*
D13*
X549021Y463296D03*
D149*
X643890Y463296D03*
D51*
X318897Y464058D03*
D10*
X376428Y464058D03*
X380238Y464058D03*
X382524Y464058D03*
X384810Y464058D03*
X387096Y464058D03*
X389382Y464058D03*
X391668Y464058D03*
X393954Y464058D03*
X395478Y464058D03*
X397002Y464058D03*
X398526Y464058D03*
X400050Y464058D03*
X401574Y464058D03*
X403098Y464058D03*
X404622Y464058D03*
X406146Y464058D03*
X407670Y464058D03*
X409194Y464058D03*
X410718Y464058D03*
X412242Y464058D03*
X413766Y464058D03*
X415290Y464058D03*
X416814Y464058D03*
X418338Y464058D03*
X419862Y464058D03*
D11*
X421767Y464058D03*
X424053Y464058D03*
X426339Y464058D03*
X428625Y464058D03*
X430911Y464058D03*
X433197Y464058D03*
D12*
X435864Y464058D03*
D13*
X439293Y464058D03*
D150*
X589026Y464058D03*
D58*
X319659Y464820D03*
D11*
X324993Y464820D03*
D12*
X327660Y464820D03*
X330708Y464820D03*
D151*
X534924Y464820D03*
D152*
X526542Y465582D03*
D153*
X473202Y466344D03*
D12*
X633984Y466344D03*
X637032Y466344D03*
X640080Y466344D03*
D11*
X642747Y466344D03*
X645033Y466344D03*
X647319Y466344D03*
X649605Y466344D03*
X651891Y466344D03*
X654177Y466344D03*
X656463Y466344D03*
X658749Y466344D03*
X661035Y466344D03*
X663321Y466344D03*
D10*
X665226Y466344D03*
D11*
X667131Y466344D03*
D10*
X669036Y466344D03*
X670560Y466344D03*
X672084Y466344D03*
X673608Y466344D03*
X675132Y466344D03*
X676656Y466344D03*
X678180Y466344D03*
X679704Y466344D03*
X681228Y466344D03*
X682752Y466344D03*
X684276Y466344D03*
X685800Y466344D03*
X687324Y466344D03*
X688848Y466344D03*
X690372Y466344D03*
X691896Y466344D03*
X693420Y466344D03*
X694944Y466344D03*
X696468Y466344D03*
X697992Y466344D03*
X699516Y466344D03*
X701040Y466344D03*
X702564Y466344D03*
X704088Y466344D03*
X705612Y466344D03*
X707898Y466344D03*
X709422Y466344D03*
X711708Y466344D03*
X713994Y466344D03*
X716280Y466344D03*
X719328Y466344D03*
X722376Y466344D03*
D154*
X417957Y467106D03*
D12*
X523494Y467106D03*
X526542Y467106D03*
X529590Y467106D03*
D11*
X532257Y467106D03*
X534543Y467106D03*
X536829Y467106D03*
X539115Y467106D03*
X541401Y467106D03*
X543687Y467106D03*
X545973Y467106D03*
X548259Y467106D03*
X550545Y467106D03*
X552831Y467106D03*
D10*
X554736Y467106D03*
D11*
X556641Y467106D03*
D10*
X558546Y467106D03*
X560070Y467106D03*
X561594Y467106D03*
X563118Y467106D03*
X564642Y467106D03*
X566166Y467106D03*
X567690Y467106D03*
X569214Y467106D03*
X570738Y467106D03*
X572262Y467106D03*
X573786Y467106D03*
X575310Y467106D03*
X576834Y467106D03*
X578358Y467106D03*
X579882Y467106D03*
X581406Y467106D03*
X582930Y467106D03*
X584454Y467106D03*
X585978Y467106D03*
X587502Y467106D03*
X589026Y467106D03*
X590550Y467106D03*
X592074Y467106D03*
X593598Y467106D03*
X595122Y467106D03*
X596646Y467106D03*
X598932Y467106D03*
X601218Y467106D03*
X603504Y467106D03*
X605790Y467106D03*
X608076Y467106D03*
X611124Y467106D03*
D155*
X363855Y467868D03*
D12*
X416814Y467868D03*
X419862Y467868D03*
D11*
X422529Y467868D03*
X424815Y467868D03*
X427101Y467868D03*
X429387Y467868D03*
X431673Y467868D03*
X433959Y467868D03*
X436245Y467868D03*
X438531Y467868D03*
X440817Y467868D03*
X443103Y467868D03*
X445389Y467868D03*
X447675Y467868D03*
D10*
X449580Y467868D03*
X451104Y467868D03*
X452628Y467868D03*
X454152Y467868D03*
X455676Y467868D03*
X457200Y467868D03*
X458724Y467868D03*
X460248Y467868D03*
X461772Y467868D03*
X463296Y467868D03*
X464820Y467868D03*
X466344Y467868D03*
X467868Y467868D03*
X469392Y467868D03*
X470916Y467868D03*
X472440Y467868D03*
X473964Y467868D03*
X475488Y467868D03*
X477012Y467868D03*
X478536Y467868D03*
X480060Y467868D03*
X481584Y467868D03*
X483108Y467868D03*
X484632Y467868D03*
X486156Y467868D03*
X487680Y467868D03*
X489204Y467868D03*
X491490Y467868D03*
X493776Y467868D03*
X496062Y467868D03*
X498348Y467868D03*
X501396Y467868D03*
X504444Y467868D03*
X313182Y468630D03*
D11*
X315087Y468630D03*
X317373Y468630D03*
X319659Y468630D03*
X321945Y468630D03*
X324231Y468630D03*
X326517Y468630D03*
X328803Y468630D03*
X331089Y468630D03*
X333375Y468630D03*
X335661Y468630D03*
D10*
X337566Y468630D03*
D11*
X339471Y468630D03*
D10*
X341376Y468630D03*
X342900Y468630D03*
X344424Y468630D03*
X345948Y468630D03*
X347472Y468630D03*
X348996Y468630D03*
X350520Y468630D03*
X352044Y468630D03*
X353568Y468630D03*
X355092Y468630D03*
X356616Y468630D03*
X358140Y468630D03*
X359664Y468630D03*
X361188Y468630D03*
X362712Y468630D03*
X364236Y468630D03*
X365760Y468630D03*
X367284Y468630D03*
X368808Y468630D03*
X370332Y468630D03*
X371856Y468630D03*
X373380Y468630D03*
X374904Y468630D03*
X376428Y468630D03*
X377952Y468630D03*
X380238Y468630D03*
X382524Y468630D03*
X384810Y468630D03*
X387096Y468630D03*
X389382Y468630D03*
X392430Y468630D03*
D156*
X821050Y321310D02*
X855350Y321310D01*
X855350Y219710D02*
X821050Y219710D01*
D157*
X799850Y225560D02*
X799852Y225604D01*
X799858Y225648D01*
X799868Y225691D01*
X799881Y225733D01*
X799898Y225774D01*
X799919Y225813D01*
X799943Y225850D01*
X799970Y225885D01*
X800000Y225917D01*
X800033Y225947D01*
X800069Y225973D01*
X800106Y225997D01*
X800146Y226016D01*
X800187Y226033D01*
X800230Y226045D01*
X800273Y226054D01*
X800317Y226059D01*
X800361Y226060D01*
X800405Y226057D01*
X800449Y226050D01*
X800492Y226039D01*
X800534Y226025D01*
X800574Y226007D01*
X800613Y225985D01*
X800649Y225961D01*
X800683Y225933D01*
X800715Y225902D01*
X800744Y225868D01*
X800770Y225832D01*
X800792Y225794D01*
X800811Y225754D01*
X800826Y225712D01*
X800838Y225670D01*
X800846Y225626D01*
X800850Y225582D01*
X800850Y225538D01*
X800846Y225494D01*
X800838Y225450D01*
X800826Y225408D01*
X800811Y225366D01*
X800792Y225326D01*
X800770Y225288D01*
X800744Y225252D01*
X800715Y225218D01*
X800683Y225187D01*
X800649Y225159D01*
X800613Y225135D01*
X800574Y225113D01*
X800534Y225095D01*
X800492Y225081D01*
X800449Y225070D01*
X800405Y225063D01*
X800361Y225060D01*
X800317Y225061D01*
X800273Y225066D01*
X800230Y225075D01*
X800187Y225087D01*
X800146Y225104D01*
X800106Y225123D01*
X800069Y225147D01*
X800033Y225173D01*
X800000Y225203D01*
X799970Y225235D01*
X799943Y225270D01*
X799919Y225307D01*
X799898Y225346D01*
X799881Y225387D01*
X799868Y225429D01*
X799858Y225472D01*
X799852Y225516D01*
X799850Y225560D01*
D158*
X836033Y192610D02*
X845120Y192610D01*
X836033Y192609D02*
X835934Y192607D01*
X835834Y192601D01*
X835735Y192592D01*
X835637Y192579D01*
X835539Y192562D01*
X835441Y192541D01*
X835345Y192516D01*
X835250Y192488D01*
X835156Y192456D01*
X835063Y192421D01*
X834971Y192382D01*
X834881Y192339D01*
X834793Y192294D01*
X834706Y192244D01*
X834622Y192192D01*
X834539Y192136D01*
X834459Y192078D01*
X834381Y192016D01*
X834306Y191951D01*
X834233Y191883D01*
X834163Y191813D01*
X834095Y191740D01*
X834030Y191665D01*
X833968Y191587D01*
X833910Y191507D01*
X833854Y191424D01*
X833802Y191340D01*
X833752Y191253D01*
X833707Y191165D01*
X833664Y191075D01*
X833625Y190983D01*
X833590Y190890D01*
X833558Y190796D01*
X833530Y190701D01*
X833505Y190605D01*
X833484Y190507D01*
X833467Y190409D01*
X833454Y190311D01*
X833445Y190212D01*
X833439Y190112D01*
X833437Y190013D01*
X833436Y190013D02*
X833436Y188715D01*
X836033Y197883D02*
X845120Y200479D01*
X836033Y197883D02*
X836033Y204374D01*
X838629Y202427D02*
X833436Y202427D01*
D156*
X231780Y391160D02*
X197480Y391160D01*
X197480Y137160D02*
X231780Y137160D01*
D157*
X176280Y143010D02*
X176282Y143054D01*
X176288Y143098D01*
X176298Y143141D01*
X176311Y143183D01*
X176328Y143224D01*
X176349Y143263D01*
X176373Y143300D01*
X176400Y143335D01*
X176430Y143367D01*
X176463Y143397D01*
X176499Y143423D01*
X176536Y143447D01*
X176576Y143466D01*
X176617Y143483D01*
X176660Y143495D01*
X176703Y143504D01*
X176747Y143509D01*
X176791Y143510D01*
X176835Y143507D01*
X176879Y143500D01*
X176922Y143489D01*
X176964Y143475D01*
X177004Y143457D01*
X177043Y143435D01*
X177079Y143411D01*
X177113Y143383D01*
X177145Y143352D01*
X177174Y143318D01*
X177200Y143282D01*
X177222Y143244D01*
X177241Y143204D01*
X177256Y143162D01*
X177268Y143120D01*
X177276Y143076D01*
X177280Y143032D01*
X177280Y142988D01*
X177276Y142944D01*
X177268Y142900D01*
X177256Y142858D01*
X177241Y142816D01*
X177222Y142776D01*
X177200Y142738D01*
X177174Y142702D01*
X177145Y142668D01*
X177113Y142637D01*
X177079Y142609D01*
X177043Y142585D01*
X177004Y142563D01*
X176964Y142545D01*
X176922Y142531D01*
X176879Y142520D01*
X176835Y142513D01*
X176791Y142510D01*
X176747Y142511D01*
X176703Y142516D01*
X176660Y142525D01*
X176617Y142537D01*
X176576Y142554D01*
X176536Y142573D01*
X176499Y142597D01*
X176463Y142623D01*
X176430Y142653D01*
X176400Y142685D01*
X176373Y142720D01*
X176349Y142757D01*
X176328Y142796D01*
X176311Y142837D01*
X176298Y142879D01*
X176288Y142922D01*
X176282Y142966D01*
X176280Y143010D01*
D158*
X173929Y255619D02*
X164841Y255619D01*
X164742Y255617D01*
X164642Y255611D01*
X164543Y255602D01*
X164445Y255589D01*
X164347Y255572D01*
X164249Y255551D01*
X164153Y255526D01*
X164058Y255498D01*
X163964Y255466D01*
X163871Y255431D01*
X163779Y255392D01*
X163689Y255349D01*
X163601Y255304D01*
X163514Y255254D01*
X163430Y255202D01*
X163347Y255146D01*
X163267Y255088D01*
X163189Y255026D01*
X163114Y254961D01*
X163041Y254893D01*
X162971Y254823D01*
X162903Y254750D01*
X162838Y254675D01*
X162776Y254597D01*
X162718Y254517D01*
X162662Y254434D01*
X162610Y254350D01*
X162560Y254263D01*
X162515Y254175D01*
X162472Y254085D01*
X162433Y253993D01*
X162398Y253900D01*
X162366Y253806D01*
X162338Y253711D01*
X162313Y253615D01*
X162292Y253517D01*
X162275Y253419D01*
X162262Y253321D01*
X162253Y253222D01*
X162247Y253122D01*
X162245Y253023D01*
X162245Y251725D01*
X162245Y260893D02*
X162245Y264138D01*
X162244Y264138D02*
X162246Y264251D01*
X162252Y264364D01*
X162262Y264477D01*
X162276Y264590D01*
X162293Y264702D01*
X162315Y264813D01*
X162340Y264923D01*
X162370Y265033D01*
X162403Y265141D01*
X162440Y265248D01*
X162480Y265354D01*
X162525Y265458D01*
X162573Y265561D01*
X162624Y265662D01*
X162679Y265761D01*
X162737Y265858D01*
X162799Y265953D01*
X162864Y266046D01*
X162932Y266136D01*
X163003Y266224D01*
X163078Y266310D01*
X163155Y266393D01*
X163235Y266473D01*
X163318Y266550D01*
X163404Y266625D01*
X163492Y266696D01*
X163582Y266764D01*
X163675Y266829D01*
X163770Y266891D01*
X163867Y266949D01*
X163966Y267004D01*
X164067Y267055D01*
X164170Y267103D01*
X164274Y267148D01*
X164380Y267188D01*
X164487Y267225D01*
X164595Y267258D01*
X164705Y267288D01*
X164815Y267313D01*
X164926Y267335D01*
X165038Y267352D01*
X165151Y267366D01*
X165264Y267376D01*
X165377Y267382D01*
X165490Y267384D01*
X165603Y267382D01*
X165716Y267376D01*
X165829Y267366D01*
X165942Y267352D01*
X166054Y267335D01*
X166165Y267313D01*
X166275Y267288D01*
X166385Y267258D01*
X166493Y267225D01*
X166600Y267188D01*
X166706Y267148D01*
X166810Y267103D01*
X166913Y267055D01*
X167014Y267004D01*
X167113Y266949D01*
X167210Y266891D01*
X167305Y266829D01*
X167398Y266764D01*
X167488Y266696D01*
X167576Y266625D01*
X167662Y266550D01*
X167745Y266473D01*
X167825Y266393D01*
X167902Y266310D01*
X167977Y266224D01*
X168048Y266136D01*
X168116Y266046D01*
X168181Y265953D01*
X168243Y265858D01*
X168301Y265761D01*
X168356Y265662D01*
X168407Y265561D01*
X168455Y265458D01*
X168500Y265354D01*
X168540Y265248D01*
X168577Y265141D01*
X168610Y265033D01*
X168640Y264923D01*
X168665Y264813D01*
X168687Y264702D01*
X168704Y264590D01*
X168718Y264477D01*
X168728Y264364D01*
X168734Y264251D01*
X168736Y264138D01*
X173929Y264787D02*
X173929Y260893D01*
X173928Y264787D02*
X173926Y264888D01*
X173920Y264988D01*
X173910Y265088D01*
X173897Y265188D01*
X173879Y265287D01*
X173858Y265386D01*
X173833Y265483D01*
X173804Y265580D01*
X173771Y265675D01*
X173735Y265769D01*
X173695Y265861D01*
X173652Y265952D01*
X173605Y266041D01*
X173555Y266128D01*
X173501Y266214D01*
X173444Y266297D01*
X173384Y266377D01*
X173321Y266456D01*
X173254Y266532D01*
X173185Y266605D01*
X173113Y266675D01*
X173039Y266743D01*
X172962Y266808D01*
X172882Y266869D01*
X172800Y266928D01*
X172716Y266983D01*
X172630Y267035D01*
X172542Y267084D01*
X172452Y267129D01*
X172360Y267171D01*
X172267Y267209D01*
X172172Y267243D01*
X172077Y267274D01*
X171980Y267301D01*
X171882Y267324D01*
X171783Y267344D01*
X171683Y267359D01*
X171583Y267371D01*
X171483Y267379D01*
X171382Y267383D01*
X171282Y267383D01*
X171181Y267379D01*
X171081Y267371D01*
X170981Y267359D01*
X170881Y267344D01*
X170782Y267324D01*
X170684Y267301D01*
X170587Y267274D01*
X170492Y267243D01*
X170397Y267209D01*
X170304Y267171D01*
X170212Y267129D01*
X170122Y267084D01*
X170034Y267035D01*
X169948Y266983D01*
X169864Y266928D01*
X169782Y266869D01*
X169702Y266808D01*
X169625Y266743D01*
X169551Y266675D01*
X169479Y266605D01*
X169410Y266532D01*
X169343Y266456D01*
X169280Y266377D01*
X169220Y266297D01*
X169163Y266214D01*
X169109Y266128D01*
X169059Y266041D01*
X169012Y265952D01*
X168969Y265861D01*
X168929Y265769D01*
X168893Y265675D01*
X168860Y265580D01*
X168831Y265483D01*
X168806Y265386D01*
X168785Y265287D01*
X168767Y265188D01*
X168754Y265088D01*
X168744Y264988D01*
X168738Y264888D01*
X168736Y264787D01*
X168736Y262191D01*
M02*
