G04 EAGLE Gerber RS-274X export*
G75*
%MOMM*%
%FSLAX34Y34*%
%LPD*%
%INSoldermask Top*%
%IPPOS*%
%AMOC8*
5,1,8,0,0,1.08239X$1,22.5*%
G01*
%ADD10C,1.933200*%
%ADD11C,1.723200*%
%ADD12R,1.503200X1.703200*%
%ADD13R,1.703200X1.503200*%
%ADD14R,2.053200X4.303200*%
%ADD15R,4.303200X2.053200*%
%ADD16R,1.303200X1.203200*%
%ADD17R,1.203200X1.303200*%
%ADD18R,0.803200X1.753200*%
%ADD19C,0.349006*%
%ADD20C,1.223200*%
%ADD21R,1.473200X0.813200*%
%ADD22R,1.903200X1.903200*%
%ADD23C,1.903200*%
%ADD24R,0.813200X1.473200*%
%ADD25C,0.813200*%
%ADD26C,1.178200*%

G36*
X586688Y443238D02*
X586688Y443238D01*
X586687Y443238D01*
X586688Y443239D01*
X586688Y445774D01*
X621733Y445774D01*
X621738Y445778D01*
X621737Y445778D01*
X621738Y445779D01*
X621738Y484899D01*
X621733Y484904D01*
X621733Y484903D01*
X621733Y484904D01*
X586688Y484904D01*
X586688Y487439D01*
X586683Y487444D01*
X586683Y487443D01*
X586683Y487444D01*
X576523Y487444D01*
X576518Y487439D01*
X576518Y481339D01*
X576522Y481334D01*
X576523Y481334D01*
X583628Y481334D01*
X583628Y474744D01*
X576523Y474744D01*
X576518Y474739D01*
X576518Y468639D01*
X576522Y468634D01*
X576523Y468634D01*
X583628Y468634D01*
X583628Y462044D01*
X576523Y462044D01*
X576518Y462039D01*
X576518Y455939D01*
X576522Y455934D01*
X576523Y455934D01*
X583628Y455934D01*
X583628Y449344D01*
X576523Y449344D01*
X576518Y449339D01*
X576518Y443239D01*
X576522Y443234D01*
X576523Y443234D01*
X586683Y443234D01*
X586688Y443238D01*
G37*
G36*
X448309Y463812D02*
X448309Y463812D01*
X448309Y463813D01*
X448309Y498858D01*
X450844Y498858D01*
X450849Y498862D01*
X450849Y498863D01*
X450849Y509023D01*
X450845Y509028D01*
X450844Y509028D01*
X444744Y509028D01*
X444739Y509024D01*
X444739Y509023D01*
X444739Y501918D01*
X438149Y501918D01*
X438149Y509023D01*
X438145Y509028D01*
X438144Y509028D01*
X432044Y509028D01*
X432039Y509024D01*
X432039Y509023D01*
X432039Y501918D01*
X425449Y501918D01*
X425449Y509023D01*
X425445Y509028D01*
X425444Y509028D01*
X419344Y509028D01*
X419339Y509024D01*
X419339Y509023D01*
X419339Y501918D01*
X412749Y501918D01*
X412749Y509023D01*
X412745Y509028D01*
X412744Y509028D01*
X406644Y509028D01*
X406639Y509024D01*
X406639Y509023D01*
X406639Y498863D01*
X406643Y498858D01*
X406644Y498858D01*
X409179Y498858D01*
X409179Y463813D01*
X409183Y463808D01*
X409184Y463808D01*
X448304Y463808D01*
X448309Y463812D01*
G37*
G36*
X449534Y155935D02*
X449534Y155935D01*
X449533Y155935D01*
X449534Y155935D01*
X449534Y190981D01*
X452069Y190981D01*
X452074Y190985D01*
X452073Y190985D01*
X452074Y190985D01*
X452074Y201145D01*
X452069Y201150D01*
X445969Y201150D01*
X445964Y201146D01*
X445964Y201145D01*
X445964Y194040D01*
X439374Y194040D01*
X439374Y201145D01*
X439369Y201150D01*
X433269Y201150D01*
X433264Y201146D01*
X433264Y201145D01*
X433264Y194040D01*
X426674Y194040D01*
X426674Y201145D01*
X426669Y201150D01*
X420569Y201150D01*
X420564Y201146D01*
X420564Y201145D01*
X420564Y194040D01*
X413974Y194040D01*
X413974Y201145D01*
X413969Y201150D01*
X407869Y201150D01*
X407864Y201146D01*
X407864Y201145D01*
X407864Y190985D01*
X407868Y190981D01*
X407869Y190981D01*
X410404Y190981D01*
X410404Y155935D01*
X410408Y155931D01*
X410409Y155931D01*
X449529Y155931D01*
X449534Y155935D01*
G37*
D10*
X745518Y134386D03*
X578918Y134386D03*
D11*
X708868Y134386D03*
X601843Y196177D03*
X601843Y72595D03*
D12*
X613097Y383672D03*
X632097Y383672D03*
X613097Y407181D03*
X632097Y407181D03*
D13*
X542948Y369576D03*
X542948Y350576D03*
X511764Y307533D03*
X511764Y326533D03*
D12*
X746393Y266591D03*
X765393Y266591D03*
X720891Y351798D03*
X739891Y351798D03*
X318508Y344472D03*
X299508Y344472D03*
X368141Y389730D03*
X349141Y389730D03*
X351369Y279510D03*
X332369Y279510D03*
D13*
X413991Y68828D03*
X413991Y49828D03*
X391448Y68432D03*
X391448Y49432D03*
D12*
X366998Y131881D03*
X347998Y131881D03*
X305654Y160378D03*
X324654Y160378D03*
D14*
X597857Y307964D03*
X561357Y307964D03*
D15*
X304304Y78902D03*
X304304Y115402D03*
D16*
X535192Y324870D03*
X535192Y307870D03*
D17*
X582559Y393319D03*
X565559Y393319D03*
X657615Y352899D03*
X674615Y352899D03*
X737417Y376586D03*
X720417Y376586D03*
D16*
X673881Y317054D03*
X673881Y334054D03*
X720113Y411600D03*
X720113Y394600D03*
X750767Y322138D03*
X750767Y305138D03*
X786657Y321022D03*
X786657Y304022D03*
X395027Y354303D03*
X395027Y337303D03*
X386466Y426563D03*
X386466Y409563D03*
D17*
X351091Y411360D03*
X368091Y411360D03*
X413760Y287672D03*
X396760Y287672D03*
X332962Y257626D03*
X349962Y257626D03*
D16*
X395364Y322560D03*
X395364Y305560D03*
X349532Y222543D03*
X349532Y239543D03*
D17*
X408268Y372863D03*
X391268Y372863D03*
X325080Y387112D03*
X308080Y387112D03*
X321884Y314303D03*
X304884Y314303D03*
D16*
X271749Y396446D03*
X271749Y379446D03*
X274673Y302223D03*
X274673Y285223D03*
D17*
X323242Y139174D03*
X306242Y139174D03*
D16*
X391824Y95597D03*
X391824Y112597D03*
D18*
X730010Y328242D03*
X717310Y328242D03*
X704610Y328242D03*
X691910Y328242D03*
X730010Y274242D03*
X717310Y274242D03*
X704610Y274242D03*
X691910Y274242D03*
X338661Y306453D03*
X351361Y306453D03*
X364061Y306453D03*
X376761Y306453D03*
X338661Y360453D03*
X351361Y360453D03*
X364061Y360453D03*
X376761Y360453D03*
D19*
X581991Y357705D02*
X595033Y357705D01*
X595033Y353263D01*
X581991Y353263D01*
X581991Y357705D01*
X581991Y356578D02*
X595033Y356578D01*
X595033Y367205D02*
X581991Y367205D01*
X595033Y367205D02*
X595033Y362763D01*
X581991Y362763D01*
X581991Y367205D01*
X581991Y366078D02*
X595033Y366078D01*
X595033Y376705D02*
X581991Y376705D01*
X595033Y376705D02*
X595033Y372263D01*
X581991Y372263D01*
X581991Y376705D01*
X581991Y375578D02*
X595033Y375578D01*
X571933Y376705D02*
X558891Y376705D01*
X571933Y376705D02*
X571933Y372263D01*
X558891Y372263D01*
X558891Y376705D01*
X558891Y375578D02*
X571933Y375578D01*
X571933Y367205D02*
X558891Y367205D01*
X571933Y367205D02*
X571933Y362763D01*
X558891Y362763D01*
X558891Y367205D01*
X558891Y366078D02*
X571933Y366078D01*
X571933Y357705D02*
X558891Y357705D01*
X571933Y357705D02*
X571933Y353263D01*
X558891Y353263D01*
X558891Y357705D01*
X558891Y356578D02*
X571933Y356578D01*
X354784Y93123D02*
X354784Y80081D01*
X350342Y80081D01*
X350342Y93123D01*
X354784Y93123D01*
X354784Y83396D02*
X350342Y83396D01*
X350342Y86711D02*
X354784Y86711D01*
X354784Y90026D02*
X350342Y90026D01*
X364284Y93123D02*
X364284Y80081D01*
X359842Y80081D01*
X359842Y93123D01*
X364284Y93123D01*
X364284Y83396D02*
X359842Y83396D01*
X359842Y86711D02*
X364284Y86711D01*
X364284Y90026D02*
X359842Y90026D01*
X373784Y93123D02*
X373784Y80081D01*
X369342Y80081D01*
X369342Y93123D01*
X373784Y93123D01*
X373784Y83396D02*
X369342Y83396D01*
X369342Y86711D02*
X373784Y86711D01*
X373784Y90026D02*
X369342Y90026D01*
X373784Y103181D02*
X373784Y116223D01*
X373784Y103181D02*
X369342Y103181D01*
X369342Y116223D01*
X373784Y116223D01*
X373784Y106496D02*
X369342Y106496D01*
X369342Y109811D02*
X373784Y109811D01*
X373784Y113126D02*
X369342Y113126D01*
X364284Y116223D02*
X364284Y103181D01*
X359842Y103181D01*
X359842Y116223D01*
X364284Y116223D01*
X364284Y106496D02*
X359842Y106496D01*
X359842Y109811D02*
X364284Y109811D01*
X364284Y113126D02*
X359842Y113126D01*
X354784Y116223D02*
X354784Y103181D01*
X350342Y103181D01*
X350342Y116223D01*
X354784Y116223D01*
X354784Y106496D02*
X350342Y106496D01*
X350342Y109811D02*
X354784Y109811D01*
X354784Y113126D02*
X350342Y113126D01*
D20*
X838200Y232410D03*
X838200Y308610D03*
D21*
X636243Y446289D03*
X636243Y458989D03*
X636243Y471689D03*
X636243Y484389D03*
D22*
X534854Y453097D03*
D23*
X534854Y478497D03*
D17*
X674756Y495255D03*
X657756Y495255D03*
D24*
X410919Y141425D03*
X423619Y141425D03*
X436319Y141425D03*
X449019Y141425D03*
D16*
X455824Y108100D03*
X455824Y125100D03*
D24*
X409694Y449303D03*
X422394Y449303D03*
X435094Y449303D03*
X447794Y449303D03*
D16*
X455972Y415678D03*
X455972Y432678D03*
D22*
X443122Y238319D03*
D23*
X417722Y238319D03*
D22*
X349420Y474627D03*
D23*
X374820Y474627D03*
D25*
X376800Y296153D03*
X291947Y335357D03*
X291618Y353129D03*
X347983Y77352D03*
X456058Y60286D03*
X228810Y96103D03*
X222337Y445469D03*
X277004Y329858D03*
X284678Y228391D03*
X279242Y189249D03*
X256176Y42277D03*
X320947Y18223D03*
X321675Y214301D03*
X459952Y348422D03*
X256540Y484166D03*
X451005Y410539D03*
X460834Y410404D03*
X424284Y280303D03*
X423495Y296264D03*
X340919Y415135D03*
X340572Y406036D03*
X338192Y384611D03*
X338192Y393833D03*
X417011Y369193D03*
X418203Y378661D03*
X320902Y287475D03*
X320902Y272322D03*
X321011Y262581D03*
X321119Y250999D03*
X334296Y169639D03*
X335984Y153719D03*
X398843Y87417D03*
X384817Y86638D03*
X449624Y97939D03*
X462221Y97809D03*
X423122Y40508D03*
X406739Y39456D03*
X382539Y38254D03*
X398321Y38103D03*
X813242Y319941D03*
X802216Y303343D03*
X798909Y237877D03*
X799689Y250434D03*
X798129Y225320D03*
X691637Y338419D03*
X697800Y274242D03*
X772963Y275187D03*
X772963Y257779D03*
X598079Y349563D03*
X795455Y475254D03*
X769255Y411109D03*
X826749Y419127D03*
X676100Y403820D03*
X854562Y162909D03*
X856259Y191228D03*
X638984Y289380D03*
X507985Y234711D03*
X520357Y189518D03*
X512351Y145783D03*
X511624Y70705D03*
X516481Y41083D03*
X673189Y64874D03*
X708850Y13121D03*
X796910Y59756D03*
X828932Y110066D03*
X799821Y142103D03*
X771438Y186603D03*
X738688Y219404D03*
X687744Y187332D03*
X652083Y226693D03*
X588040Y234711D03*
X565479Y196079D03*
X686250Y500545D03*
X685709Y489902D03*
X645574Y416219D03*
X646025Y399534D03*
X646206Y390786D03*
X645845Y375183D03*
X592943Y399503D03*
X592192Y386665D03*
X518982Y339819D03*
X504202Y339318D03*
X648299Y356963D03*
X647672Y347845D03*
X749386Y380558D03*
X749321Y370985D03*
X750143Y355988D03*
X750793Y345922D03*
X322716Y331095D03*
X257782Y160455D03*
X257331Y150610D03*
X300555Y175342D03*
X310404Y175667D03*
D26*
X219776Y169037D03*
D25*
X250802Y169173D03*
X257847Y353573D03*
X272334Y350092D03*
M02*
