G04 EAGLE Gerber RS-274X export*
G75*
%MOMM*%
%FSLAX34Y34*%
%LPD*%
%INSolderpaste Top*%
%IPPOS*%
%AMOC8*
5,1,8,0,0,1.08239X$1,22.5*%
G01*
%ADD10R,1.300000X1.500000*%
%ADD11R,1.500000X1.300000*%
%ADD12R,1.850000X4.100000*%
%ADD13R,4.100000X1.850000*%
%ADD14R,1.100000X1.000000*%
%ADD15R,1.000000X1.100000*%
%ADD16R,0.600000X1.550000*%
%ADD17C,0.147500*%
%ADD18R,1.270000X0.610000*%
%ADD19R,0.610000X1.270000*%

G36*
X586688Y443238D02*
X586688Y443238D01*
X586687Y443238D01*
X586688Y443239D01*
X586688Y445774D01*
X621733Y445774D01*
X621738Y445778D01*
X621737Y445778D01*
X621738Y445779D01*
X621738Y484899D01*
X621733Y484904D01*
X621733Y484903D01*
X621733Y484904D01*
X586688Y484904D01*
X586688Y487439D01*
X586683Y487444D01*
X586683Y487443D01*
X586683Y487444D01*
X576523Y487444D01*
X576518Y487439D01*
X576518Y481339D01*
X576522Y481334D01*
X576523Y481334D01*
X583628Y481334D01*
X583628Y474744D01*
X576523Y474744D01*
X576518Y474739D01*
X576518Y468639D01*
X576522Y468634D01*
X576523Y468634D01*
X583628Y468634D01*
X583628Y462044D01*
X576523Y462044D01*
X576518Y462039D01*
X576518Y455939D01*
X576522Y455934D01*
X576523Y455934D01*
X583628Y455934D01*
X583628Y449344D01*
X576523Y449344D01*
X576518Y449339D01*
X576518Y443239D01*
X576522Y443234D01*
X576523Y443234D01*
X586683Y443234D01*
X586688Y443238D01*
G37*
G36*
X448309Y463812D02*
X448309Y463812D01*
X448309Y463813D01*
X448309Y498858D01*
X450844Y498858D01*
X450849Y498862D01*
X450849Y498863D01*
X450849Y509023D01*
X450845Y509028D01*
X450844Y509028D01*
X444744Y509028D01*
X444739Y509024D01*
X444739Y509023D01*
X444739Y501918D01*
X438149Y501918D01*
X438149Y509023D01*
X438145Y509028D01*
X438144Y509028D01*
X432044Y509028D01*
X432039Y509024D01*
X432039Y509023D01*
X432039Y501918D01*
X425449Y501918D01*
X425449Y509023D01*
X425445Y509028D01*
X425444Y509028D01*
X419344Y509028D01*
X419339Y509024D01*
X419339Y509023D01*
X419339Y501918D01*
X412749Y501918D01*
X412749Y509023D01*
X412745Y509028D01*
X412744Y509028D01*
X406644Y509028D01*
X406639Y509024D01*
X406639Y509023D01*
X406639Y498863D01*
X406643Y498858D01*
X406644Y498858D01*
X409179Y498858D01*
X409179Y463813D01*
X409183Y463808D01*
X409184Y463808D01*
X448304Y463808D01*
X448309Y463812D01*
G37*
G36*
X449534Y155935D02*
X449534Y155935D01*
X449533Y155935D01*
X449534Y155935D01*
X449534Y190981D01*
X452069Y190981D01*
X452074Y190985D01*
X452073Y190985D01*
X452074Y190985D01*
X452074Y201145D01*
X452069Y201150D01*
X445969Y201150D01*
X445964Y201146D01*
X445964Y201145D01*
X445964Y194040D01*
X439374Y194040D01*
X439374Y201145D01*
X439369Y201150D01*
X433269Y201150D01*
X433264Y201146D01*
X433264Y201145D01*
X433264Y194040D01*
X426674Y194040D01*
X426674Y201145D01*
X426669Y201150D01*
X420569Y201150D01*
X420564Y201146D01*
X420564Y201145D01*
X420564Y194040D01*
X413974Y194040D01*
X413974Y201145D01*
X413969Y201150D01*
X407869Y201150D01*
X407864Y201146D01*
X407864Y201145D01*
X407864Y190985D01*
X407868Y190981D01*
X407869Y190981D01*
X410404Y190981D01*
X410404Y155935D01*
X410408Y155931D01*
X410409Y155931D01*
X449529Y155931D01*
X449534Y155935D01*
G37*
D10*
X613097Y383672D03*
X632097Y383672D03*
X613097Y407181D03*
X632097Y407181D03*
D11*
X542948Y369576D03*
X542948Y350576D03*
X511764Y307533D03*
X511764Y326533D03*
D10*
X746393Y266591D03*
X765393Y266591D03*
X720891Y351798D03*
X739891Y351798D03*
X318508Y344472D03*
X299508Y344472D03*
X368141Y389730D03*
X349141Y389730D03*
X351369Y279510D03*
X332369Y279510D03*
D11*
X413991Y68828D03*
X413991Y49828D03*
X391448Y68432D03*
X391448Y49432D03*
D10*
X366998Y131881D03*
X347998Y131881D03*
X305654Y160378D03*
X324654Y160378D03*
D12*
X597857Y307964D03*
X561357Y307964D03*
D13*
X304304Y78902D03*
X304304Y115402D03*
D14*
X535192Y324870D03*
X535192Y307870D03*
D15*
X582559Y393319D03*
X565559Y393319D03*
X657615Y352899D03*
X674615Y352899D03*
X737417Y376586D03*
X720417Y376586D03*
D14*
X673881Y317054D03*
X673881Y334054D03*
X720113Y411600D03*
X720113Y394600D03*
X750767Y322138D03*
X750767Y305138D03*
X786657Y321022D03*
X786657Y304022D03*
X395027Y354303D03*
X395027Y337303D03*
X386466Y426563D03*
X386466Y409563D03*
D15*
X351091Y411360D03*
X368091Y411360D03*
X413760Y287672D03*
X396760Y287672D03*
X332962Y257626D03*
X349962Y257626D03*
D14*
X395364Y322560D03*
X395364Y305560D03*
X349532Y222543D03*
X349532Y239543D03*
D15*
X408268Y372863D03*
X391268Y372863D03*
X325080Y387112D03*
X308080Y387112D03*
X321884Y314303D03*
X304884Y314303D03*
D14*
X271749Y396446D03*
X271749Y379446D03*
X274673Y302223D03*
X274673Y285223D03*
D15*
X323242Y139174D03*
X306242Y139174D03*
D14*
X391824Y95597D03*
X391824Y112597D03*
D16*
X730010Y328242D03*
X717310Y328242D03*
X704610Y328242D03*
X691910Y328242D03*
X730010Y274242D03*
X717310Y274242D03*
X704610Y274242D03*
X691910Y274242D03*
X338661Y306453D03*
X351361Y306453D03*
X364061Y306453D03*
X376761Y306453D03*
X338661Y360453D03*
X351361Y360453D03*
X364061Y360453D03*
X376761Y360453D03*
D17*
X581999Y357697D02*
X595025Y357697D01*
X595025Y353271D01*
X581999Y353271D01*
X581999Y357697D01*
X581999Y354672D02*
X595025Y354672D01*
X595025Y356073D02*
X581999Y356073D01*
X581999Y357474D02*
X595025Y357474D01*
X595025Y367197D02*
X581999Y367197D01*
X595025Y367197D02*
X595025Y362771D01*
X581999Y362771D01*
X581999Y367197D01*
X581999Y364172D02*
X595025Y364172D01*
X595025Y365573D02*
X581999Y365573D01*
X581999Y366974D02*
X595025Y366974D01*
X595025Y376697D02*
X581999Y376697D01*
X595025Y376697D02*
X595025Y372271D01*
X581999Y372271D01*
X581999Y376697D01*
X581999Y373672D02*
X595025Y373672D01*
X595025Y375073D02*
X581999Y375073D01*
X581999Y376474D02*
X595025Y376474D01*
X571925Y376697D02*
X558899Y376697D01*
X571925Y376697D02*
X571925Y372271D01*
X558899Y372271D01*
X558899Y376697D01*
X558899Y373672D02*
X571925Y373672D01*
X571925Y375073D02*
X558899Y375073D01*
X558899Y376474D02*
X571925Y376474D01*
X571925Y367197D02*
X558899Y367197D01*
X571925Y367197D02*
X571925Y362771D01*
X558899Y362771D01*
X558899Y367197D01*
X558899Y364172D02*
X571925Y364172D01*
X571925Y365573D02*
X558899Y365573D01*
X558899Y366974D02*
X571925Y366974D01*
X571925Y357697D02*
X558899Y357697D01*
X571925Y357697D02*
X571925Y353271D01*
X558899Y353271D01*
X558899Y357697D01*
X558899Y354672D02*
X571925Y354672D01*
X571925Y356073D02*
X558899Y356073D01*
X558899Y357474D02*
X571925Y357474D01*
X354776Y93115D02*
X354776Y80089D01*
X350350Y80089D01*
X350350Y93115D01*
X354776Y93115D01*
X354776Y81490D02*
X350350Y81490D01*
X350350Y82891D02*
X354776Y82891D01*
X354776Y84292D02*
X350350Y84292D01*
X350350Y85693D02*
X354776Y85693D01*
X354776Y87094D02*
X350350Y87094D01*
X350350Y88495D02*
X354776Y88495D01*
X354776Y89896D02*
X350350Y89896D01*
X350350Y91297D02*
X354776Y91297D01*
X354776Y92698D02*
X350350Y92698D01*
X364276Y93115D02*
X364276Y80089D01*
X359850Y80089D01*
X359850Y93115D01*
X364276Y93115D01*
X364276Y81490D02*
X359850Y81490D01*
X359850Y82891D02*
X364276Y82891D01*
X364276Y84292D02*
X359850Y84292D01*
X359850Y85693D02*
X364276Y85693D01*
X364276Y87094D02*
X359850Y87094D01*
X359850Y88495D02*
X364276Y88495D01*
X364276Y89896D02*
X359850Y89896D01*
X359850Y91297D02*
X364276Y91297D01*
X364276Y92698D02*
X359850Y92698D01*
X373776Y93115D02*
X373776Y80089D01*
X369350Y80089D01*
X369350Y93115D01*
X373776Y93115D01*
X373776Y81490D02*
X369350Y81490D01*
X369350Y82891D02*
X373776Y82891D01*
X373776Y84292D02*
X369350Y84292D01*
X369350Y85693D02*
X373776Y85693D01*
X373776Y87094D02*
X369350Y87094D01*
X369350Y88495D02*
X373776Y88495D01*
X373776Y89896D02*
X369350Y89896D01*
X369350Y91297D02*
X373776Y91297D01*
X373776Y92698D02*
X369350Y92698D01*
X373776Y103189D02*
X373776Y116215D01*
X373776Y103189D02*
X369350Y103189D01*
X369350Y116215D01*
X373776Y116215D01*
X373776Y104590D02*
X369350Y104590D01*
X369350Y105991D02*
X373776Y105991D01*
X373776Y107392D02*
X369350Y107392D01*
X369350Y108793D02*
X373776Y108793D01*
X373776Y110194D02*
X369350Y110194D01*
X369350Y111595D02*
X373776Y111595D01*
X373776Y112996D02*
X369350Y112996D01*
X369350Y114397D02*
X373776Y114397D01*
X373776Y115798D02*
X369350Y115798D01*
X364276Y116215D02*
X364276Y103189D01*
X359850Y103189D01*
X359850Y116215D01*
X364276Y116215D01*
X364276Y104590D02*
X359850Y104590D01*
X359850Y105991D02*
X364276Y105991D01*
X364276Y107392D02*
X359850Y107392D01*
X359850Y108793D02*
X364276Y108793D01*
X364276Y110194D02*
X359850Y110194D01*
X359850Y111595D02*
X364276Y111595D01*
X364276Y112996D02*
X359850Y112996D01*
X359850Y114397D02*
X364276Y114397D01*
X364276Y115798D02*
X359850Y115798D01*
X354776Y116215D02*
X354776Y103189D01*
X350350Y103189D01*
X350350Y116215D01*
X354776Y116215D01*
X354776Y104590D02*
X350350Y104590D01*
X350350Y105991D02*
X354776Y105991D01*
X354776Y107392D02*
X350350Y107392D01*
X350350Y108793D02*
X354776Y108793D01*
X354776Y110194D02*
X350350Y110194D01*
X350350Y111595D02*
X354776Y111595D01*
X354776Y112996D02*
X350350Y112996D01*
X350350Y114397D02*
X354776Y114397D01*
X354776Y115798D02*
X350350Y115798D01*
D18*
X636243Y446289D03*
X636243Y458989D03*
X636243Y471689D03*
X636243Y484389D03*
D15*
X674756Y495255D03*
X657756Y495255D03*
D19*
X410919Y141425D03*
X423619Y141425D03*
X436319Y141425D03*
X449019Y141425D03*
D14*
X455824Y108100D03*
X455824Y125100D03*
D19*
X409694Y449303D03*
X422394Y449303D03*
X435094Y449303D03*
X447794Y449303D03*
D14*
X455972Y415678D03*
X455972Y432678D03*
M02*
