G04 EAGLE Gerber RS-274X export*
G75*
%MOMM*%
%FSLAX34Y34*%
%LPD*%
%INBottom Copper*%
%IPPOS*%
%AMOC8*
5,1,8,0,0,1.08239X$1,22.5*%
G01*
%ADD10C,1.616000*%
%ADD11R,1.000000X1.100000*%
%ADD12R,2.200000X2.800000*%
%ADD13R,1.200000X1.200000*%
%ADD14R,0.800000X0.800000*%
%ADD15C,0.610000*%
%ADD16C,0.200000*%
%ADD17C,0.400000*%

G36*
X424684Y4010D02*
X424684Y4010D01*
X424748Y4009D01*
X424823Y4030D01*
X424899Y4041D01*
X424958Y4067D01*
X425020Y4084D01*
X425086Y4125D01*
X425156Y4157D01*
X425205Y4199D01*
X425260Y4232D01*
X425312Y4290D01*
X425370Y4340D01*
X425406Y4394D01*
X425449Y4442D01*
X425482Y4511D01*
X425525Y4576D01*
X425544Y4638D01*
X425572Y4695D01*
X425583Y4765D01*
X425607Y4846D01*
X425608Y4931D01*
X425619Y5000D01*
X425619Y417000D01*
X425610Y417064D01*
X425611Y417128D01*
X425590Y417203D01*
X425579Y417279D01*
X425553Y417338D01*
X425536Y417400D01*
X425495Y417466D01*
X425463Y417536D01*
X425421Y417585D01*
X425388Y417640D01*
X425330Y417692D01*
X425280Y417750D01*
X425226Y417786D01*
X425178Y417829D01*
X425109Y417862D01*
X425044Y417905D01*
X424982Y417924D01*
X424925Y417952D01*
X424855Y417963D01*
X424774Y417987D01*
X424689Y417988D01*
X424620Y417999D01*
X145545Y417999D01*
X145459Y417987D01*
X145372Y417984D01*
X145320Y417967D01*
X145266Y417959D01*
X145187Y417924D01*
X145104Y417897D01*
X145059Y417866D01*
X145009Y417843D01*
X144943Y417787D01*
X144871Y417738D01*
X144836Y417695D01*
X144794Y417660D01*
X144747Y417587D01*
X144692Y417520D01*
X144670Y417470D01*
X144640Y417424D01*
X144615Y417341D01*
X144580Y417261D01*
X144574Y417207D01*
X144558Y417154D01*
X144556Y417067D01*
X144546Y416981D01*
X144555Y416927D01*
X144554Y416872D01*
X144577Y416788D01*
X144591Y416703D01*
X144614Y416653D01*
X144629Y416600D01*
X144675Y416526D01*
X144712Y416448D01*
X144748Y416407D01*
X144777Y416360D01*
X144842Y416302D01*
X144899Y416237D01*
X144943Y416211D01*
X144987Y416171D01*
X145089Y416122D01*
X145163Y416077D01*
X146254Y415625D01*
X147827Y414052D01*
X148678Y411997D01*
X148678Y409773D01*
X147827Y407718D01*
X146254Y406146D01*
X144196Y405293D01*
X144142Y405285D01*
X144078Y405286D01*
X144003Y405266D01*
X143926Y405255D01*
X143868Y405228D01*
X143806Y405211D01*
X143740Y405170D01*
X143669Y405138D01*
X143620Y405097D01*
X143566Y405063D01*
X143514Y405005D01*
X143455Y404955D01*
X143420Y404901D01*
X143377Y404854D01*
X143343Y404784D01*
X143300Y404719D01*
X143282Y404658D01*
X143254Y404600D01*
X143243Y404530D01*
X143218Y404449D01*
X143217Y404365D01*
X143206Y404295D01*
X143206Y381696D01*
X142034Y380524D01*
X118377Y380524D01*
X117205Y381696D01*
X117205Y403411D01*
X117196Y403475D01*
X117196Y403539D01*
X117176Y403614D01*
X117165Y403690D01*
X117138Y403749D01*
X117121Y403811D01*
X117081Y403877D01*
X117049Y403947D01*
X117007Y403996D01*
X116973Y404051D01*
X116916Y404103D01*
X116865Y404162D01*
X116811Y404197D01*
X116764Y404240D01*
X116694Y404274D01*
X116629Y404316D01*
X116568Y404335D01*
X116510Y404363D01*
X116441Y404374D01*
X116360Y404399D01*
X116275Y404400D01*
X116205Y404411D01*
X115788Y404411D01*
X113734Y405262D01*
X112161Y406834D01*
X111310Y408889D01*
X111310Y411113D01*
X112161Y413168D01*
X113734Y414741D01*
X115788Y415592D01*
X118013Y415592D01*
X120067Y414741D01*
X121640Y413168D01*
X121651Y413143D01*
X121655Y413135D01*
X121658Y413125D01*
X121727Y413013D01*
X121794Y412900D01*
X121801Y412894D01*
X121806Y412886D01*
X121904Y412797D01*
X122000Y412707D01*
X122008Y412703D01*
X122015Y412696D01*
X122134Y412639D01*
X122251Y412579D01*
X122261Y412578D01*
X122269Y412573D01*
X122346Y412562D01*
X122528Y412527D01*
X122552Y412529D01*
X122574Y412526D01*
X137048Y412526D01*
X137057Y412527D01*
X137066Y412526D01*
X137196Y412547D01*
X137327Y412566D01*
X137335Y412570D01*
X137345Y412571D01*
X137464Y412628D01*
X137584Y412682D01*
X137591Y412688D01*
X137600Y412692D01*
X137698Y412780D01*
X137798Y412865D01*
X137803Y412873D01*
X137810Y412880D01*
X137850Y412945D01*
X137953Y413101D01*
X137960Y413124D01*
X137971Y413143D01*
X138347Y414052D01*
X139920Y415625D01*
X141012Y416077D01*
X141086Y416121D01*
X141165Y416157D01*
X141207Y416192D01*
X141254Y416220D01*
X141314Y416284D01*
X141380Y416340D01*
X141410Y416386D01*
X141447Y416426D01*
X141487Y416503D01*
X141534Y416576D01*
X141550Y416629D01*
X141575Y416678D01*
X141591Y416763D01*
X141617Y416846D01*
X141617Y416901D01*
X141627Y416955D01*
X141619Y417041D01*
X141620Y417128D01*
X141606Y417181D01*
X141600Y417235D01*
X141568Y417316D01*
X141545Y417400D01*
X141516Y417446D01*
X141496Y417497D01*
X141442Y417566D01*
X141397Y417640D01*
X141356Y417676D01*
X141322Y417720D01*
X141252Y417771D01*
X141188Y417829D01*
X141138Y417853D01*
X141094Y417885D01*
X141012Y417914D01*
X140934Y417952D01*
X140883Y417960D01*
X140828Y417979D01*
X140714Y417986D01*
X140629Y417999D01*
X70780Y417999D01*
X70694Y417987D01*
X70607Y417984D01*
X70555Y417967D01*
X70501Y417959D01*
X70421Y417924D01*
X70339Y417897D01*
X70294Y417866D01*
X70244Y417843D01*
X70178Y417787D01*
X70106Y417738D01*
X70071Y417696D01*
X70029Y417660D01*
X69982Y417587D01*
X69927Y417520D01*
X69905Y417470D01*
X69875Y417424D01*
X69849Y417341D01*
X69815Y417261D01*
X69808Y417207D01*
X69792Y417154D01*
X69791Y417067D01*
X69781Y416981D01*
X69789Y416927D01*
X69789Y416872D01*
X69812Y416788D01*
X69826Y416703D01*
X69849Y416653D01*
X69864Y416600D01*
X69910Y416526D01*
X69947Y416448D01*
X69983Y416407D01*
X70012Y416360D01*
X70076Y416302D01*
X70134Y416237D01*
X70178Y416211D01*
X70221Y416171D01*
X70324Y416122D01*
X70397Y416077D01*
X72556Y415183D01*
X74129Y413610D01*
X74188Y413467D01*
X74193Y413459D01*
X74195Y413450D01*
X74264Y413337D01*
X74331Y413224D01*
X74338Y413218D01*
X74343Y413210D01*
X74441Y413121D01*
X74537Y413031D01*
X74546Y413027D01*
X74553Y413021D01*
X74671Y412963D01*
X74788Y412904D01*
X74798Y412902D01*
X74806Y412898D01*
X74883Y412886D01*
X75066Y412851D01*
X75090Y412853D01*
X75111Y412850D01*
X90546Y412850D01*
X90641Y412864D01*
X90737Y412869D01*
X90780Y412883D01*
X90825Y412890D01*
X90913Y412930D01*
X91004Y412961D01*
X91038Y412986D01*
X91082Y413006D01*
X91179Y413089D01*
X91253Y413143D01*
X92961Y414851D01*
X95016Y415702D01*
X97240Y415702D01*
X99295Y414851D01*
X100868Y413279D01*
X101719Y411224D01*
X101719Y409000D01*
X100868Y406945D01*
X99295Y405372D01*
X97240Y404521D01*
X96739Y404521D01*
X96676Y404512D01*
X96611Y404513D01*
X96537Y404492D01*
X96460Y404481D01*
X96402Y404455D01*
X96340Y404438D01*
X96274Y404397D01*
X96203Y404365D01*
X96154Y404323D01*
X96100Y404289D01*
X96048Y404232D01*
X95989Y404182D01*
X95954Y404128D01*
X95911Y404080D01*
X95877Y404011D01*
X95834Y403946D01*
X95816Y403884D01*
X95788Y403826D01*
X95777Y403757D01*
X95752Y403676D01*
X95751Y403591D01*
X95740Y403522D01*
X95740Y382021D01*
X94568Y380849D01*
X70910Y380849D01*
X69739Y382021D01*
X69739Y403778D01*
X69725Y403873D01*
X69720Y403969D01*
X69705Y404013D01*
X69699Y404058D01*
X69659Y404145D01*
X69628Y404236D01*
X69602Y404270D01*
X69582Y404314D01*
X69499Y404412D01*
X69446Y404485D01*
X69371Y404560D01*
X69294Y404617D01*
X69223Y404682D01*
X69182Y404702D01*
X69145Y404729D01*
X69055Y404763D01*
X68969Y404805D01*
X68927Y404811D01*
X68882Y404829D01*
X68754Y404838D01*
X68664Y404852D01*
X68277Y404852D01*
X66222Y405704D01*
X64649Y407276D01*
X63798Y409331D01*
X63798Y411555D01*
X64649Y413610D01*
X66222Y415183D01*
X68381Y416077D01*
X68455Y416121D01*
X68534Y416157D01*
X68576Y416192D01*
X68623Y416220D01*
X68683Y416284D01*
X68749Y416340D01*
X68779Y416386D01*
X68816Y416426D01*
X68855Y416503D01*
X68903Y416576D01*
X68919Y416629D01*
X68944Y416678D01*
X68960Y416763D01*
X68985Y416846D01*
X68986Y416901D01*
X68996Y416955D01*
X68988Y417041D01*
X68989Y417128D01*
X68975Y417181D01*
X68969Y417235D01*
X68937Y417316D01*
X68914Y417400D01*
X68885Y417446D01*
X68865Y417497D01*
X68811Y417566D01*
X68766Y417640D01*
X68725Y417676D01*
X68691Y417720D01*
X68621Y417771D01*
X68557Y417829D01*
X68507Y417853D01*
X68463Y417885D01*
X68381Y417914D01*
X68303Y417952D01*
X68252Y417960D01*
X68197Y417979D01*
X68083Y417986D01*
X67998Y417999D01*
X5000Y417999D01*
X4936Y417990D01*
X4872Y417991D01*
X4797Y417970D01*
X4721Y417959D01*
X4662Y417933D01*
X4600Y417916D01*
X4534Y417875D01*
X4464Y417843D01*
X4415Y417801D01*
X4360Y417768D01*
X4308Y417710D01*
X4250Y417660D01*
X4214Y417606D01*
X4171Y417558D01*
X4138Y417489D01*
X4095Y417424D01*
X4076Y417362D01*
X4048Y417305D01*
X4037Y417235D01*
X4013Y417154D01*
X4012Y417069D01*
X4001Y417000D01*
X4001Y5000D01*
X4010Y4936D01*
X4009Y4872D01*
X4030Y4797D01*
X4041Y4721D01*
X4067Y4662D01*
X4084Y4600D01*
X4125Y4534D01*
X4157Y4464D01*
X4199Y4415D01*
X4232Y4360D01*
X4290Y4308D01*
X4340Y4250D01*
X4394Y4214D01*
X4442Y4171D01*
X4511Y4138D01*
X4576Y4095D01*
X4638Y4076D01*
X4695Y4048D01*
X4765Y4037D01*
X4846Y4013D01*
X4931Y4012D01*
X5000Y4001D01*
X424620Y4001D01*
X424684Y4010D01*
G37*
%LPC*%
G36*
X187509Y46883D02*
X187509Y46883D01*
X185454Y47734D01*
X183881Y49306D01*
X183030Y51361D01*
X183030Y53585D01*
X183881Y55640D01*
X185454Y57213D01*
X187509Y58064D01*
X189733Y58064D01*
X191788Y57213D01*
X193234Y55767D01*
X193311Y55709D01*
X193382Y55645D01*
X193423Y55625D01*
X193460Y55597D01*
X193550Y55564D01*
X193636Y55522D01*
X193678Y55515D01*
X193724Y55498D01*
X193851Y55488D01*
X193941Y55474D01*
X195845Y55474D01*
X195930Y55486D01*
X196017Y55489D01*
X196070Y55506D01*
X196124Y55514D01*
X196203Y55550D01*
X196285Y55577D01*
X196331Y55608D01*
X196381Y55630D01*
X196447Y55686D01*
X196518Y55735D01*
X196553Y55778D01*
X196595Y55814D01*
X196643Y55886D01*
X196698Y55953D01*
X196719Y56004D01*
X196750Y56049D01*
X196775Y56133D01*
X196809Y56212D01*
X196816Y56267D01*
X196832Y56319D01*
X196833Y56406D01*
X196844Y56492D01*
X196835Y56546D01*
X196836Y56601D01*
X196813Y56685D01*
X196799Y56771D01*
X196775Y56820D01*
X196760Y56873D01*
X196715Y56947D01*
X196678Y57025D01*
X196641Y57066D01*
X196612Y57113D01*
X196548Y57171D01*
X196490Y57236D01*
X196447Y57263D01*
X196403Y57302D01*
X196301Y57352D01*
X196227Y57397D01*
X195767Y57587D01*
X194195Y59159D01*
X193344Y61214D01*
X193344Y63438D01*
X194195Y65493D01*
X195767Y67066D01*
X197822Y67917D01*
X200046Y67917D01*
X202101Y67066D01*
X203548Y65620D01*
X203624Y65562D01*
X203696Y65498D01*
X203737Y65478D01*
X203773Y65451D01*
X203863Y65417D01*
X203949Y65375D01*
X203992Y65368D01*
X204037Y65351D01*
X204165Y65341D01*
X204254Y65327D01*
X204435Y65327D01*
X204467Y65332D01*
X204499Y65329D01*
X204606Y65352D01*
X204714Y65367D01*
X204743Y65380D01*
X204775Y65387D01*
X204871Y65438D01*
X204971Y65483D01*
X204995Y65504D01*
X205024Y65519D01*
X205102Y65596D01*
X205185Y65667D01*
X205203Y65694D01*
X205226Y65716D01*
X205280Y65811D01*
X205340Y65903D01*
X205349Y65933D01*
X205365Y65961D01*
X205390Y66068D01*
X205422Y66172D01*
X205422Y66204D01*
X205430Y66236D01*
X205424Y66345D01*
X205426Y66454D01*
X205417Y66485D01*
X205415Y66518D01*
X205380Y66621D01*
X205350Y66726D01*
X205333Y66754D01*
X205323Y66784D01*
X205270Y66857D01*
X205202Y66966D01*
X205166Y66999D01*
X205141Y67033D01*
X204256Y67919D01*
X203404Y69973D01*
X203404Y72198D01*
X204256Y74252D01*
X205828Y75825D01*
X207883Y76676D01*
X210107Y76676D01*
X212162Y75825D01*
X213735Y74252D01*
X213807Y74079D01*
X213812Y74070D01*
X213814Y74061D01*
X213883Y73949D01*
X213950Y73836D01*
X213957Y73829D01*
X213962Y73821D01*
X214060Y73733D01*
X214156Y73643D01*
X214165Y73639D01*
X214172Y73632D01*
X214290Y73575D01*
X214408Y73515D01*
X214417Y73513D01*
X214425Y73509D01*
X214501Y73497D01*
X214685Y73463D01*
X214709Y73465D01*
X214730Y73462D01*
X263625Y73462D01*
X263634Y73463D01*
X263644Y73462D01*
X263774Y73483D01*
X263904Y73501D01*
X263913Y73505D01*
X263922Y73507D01*
X264041Y73563D01*
X264161Y73618D01*
X264168Y73624D01*
X264177Y73628D01*
X264276Y73716D01*
X264375Y73801D01*
X264381Y73809D01*
X264388Y73815D01*
X264428Y73881D01*
X264498Y73988D01*
X266092Y75582D01*
X268147Y76434D01*
X270371Y76434D01*
X272426Y75582D01*
X273999Y74010D01*
X274850Y71955D01*
X274850Y69731D01*
X273999Y67676D01*
X272426Y66103D01*
X270371Y65252D01*
X268147Y65252D01*
X266092Y66103D01*
X265028Y67168D01*
X264951Y67225D01*
X264880Y67290D01*
X264839Y67309D01*
X264803Y67337D01*
X264713Y67371D01*
X264626Y67413D01*
X264584Y67419D01*
X264539Y67436D01*
X264411Y67446D01*
X264322Y67460D01*
X262104Y67460D01*
X262072Y67456D01*
X262040Y67458D01*
X261933Y67436D01*
X261825Y67420D01*
X261795Y67407D01*
X261764Y67401D01*
X261667Y67349D01*
X261568Y67304D01*
X261543Y67283D01*
X261515Y67268D01*
X261436Y67192D01*
X261353Y67121D01*
X261336Y67094D01*
X261313Y67071D01*
X261259Y66976D01*
X261199Y66885D01*
X261190Y66854D01*
X261174Y66826D01*
X261148Y66720D01*
X261117Y66615D01*
X261116Y66583D01*
X261109Y66551D01*
X261114Y66442D01*
X261113Y66333D01*
X261121Y66302D01*
X261123Y66270D01*
X261159Y66167D01*
X261188Y66061D01*
X261205Y66034D01*
X261216Y66003D01*
X261269Y65930D01*
X261336Y65821D01*
X261372Y65789D01*
X261397Y65754D01*
X261888Y65264D01*
X262739Y63209D01*
X262739Y60985D01*
X261888Y58930D01*
X260315Y57358D01*
X258260Y56507D01*
X256036Y56507D01*
X253981Y57358D01*
X252306Y59033D01*
X252229Y59091D01*
X252157Y59155D01*
X252117Y59175D01*
X252080Y59202D01*
X251990Y59236D01*
X251904Y59278D01*
X251862Y59285D01*
X251816Y59302D01*
X251689Y59312D01*
X251599Y59326D01*
X249695Y59326D01*
X249609Y59313D01*
X249522Y59311D01*
X249470Y59294D01*
X249416Y59286D01*
X249337Y59250D01*
X249254Y59223D01*
X249209Y59192D01*
X249159Y59170D01*
X249093Y59113D01*
X249021Y59064D01*
X248986Y59022D01*
X248945Y58986D01*
X248897Y58914D01*
X248842Y58847D01*
X248820Y58796D01*
X248790Y58750D01*
X248765Y58667D01*
X248731Y58588D01*
X248724Y58533D01*
X248708Y58481D01*
X248707Y58394D01*
X248696Y58308D01*
X248705Y58253D01*
X248704Y58199D01*
X248727Y58115D01*
X248741Y58029D01*
X248765Y57980D01*
X248779Y57927D01*
X248825Y57853D01*
X248862Y57774D01*
X248899Y57733D01*
X248927Y57687D01*
X248992Y57629D01*
X249050Y57564D01*
X249093Y57537D01*
X249137Y57498D01*
X249239Y57448D01*
X249313Y57403D01*
X249772Y57213D01*
X251345Y55640D01*
X252196Y53585D01*
X252196Y51361D01*
X251345Y49306D01*
X249772Y47734D01*
X247717Y46883D01*
X245493Y46883D01*
X243438Y47734D01*
X241992Y49180D01*
X241915Y49238D01*
X241844Y49302D01*
X241803Y49322D01*
X241767Y49349D01*
X241677Y49383D01*
X241590Y49425D01*
X241548Y49432D01*
X241503Y49449D01*
X241375Y49459D01*
X241286Y49473D01*
X193941Y49473D01*
X193846Y49459D01*
X193749Y49454D01*
X193706Y49439D01*
X193661Y49433D01*
X193574Y49393D01*
X193483Y49362D01*
X193449Y49337D01*
X193404Y49317D01*
X193307Y49233D01*
X193234Y49180D01*
X191788Y47734D01*
X189733Y46883D01*
X187509Y46883D01*
G37*
%LPD*%
%LPC*%
G36*
X122649Y300542D02*
X122649Y300542D01*
X120594Y301393D01*
X119021Y302966D01*
X118170Y305021D01*
X118170Y307245D01*
X119021Y309300D01*
X119878Y310156D01*
X119935Y310233D01*
X120000Y310304D01*
X120020Y310345D01*
X120047Y310382D01*
X120081Y310472D01*
X120123Y310558D01*
X120130Y310600D01*
X120147Y310646D01*
X120157Y310773D01*
X120171Y310863D01*
X120171Y312010D01*
X120161Y312074D01*
X120162Y312138D01*
X120142Y312213D01*
X120131Y312290D01*
X120104Y312348D01*
X120087Y312410D01*
X120046Y312476D01*
X120014Y312546D01*
X119973Y312595D01*
X119939Y312650D01*
X119881Y312702D01*
X119831Y312761D01*
X119777Y312796D01*
X119730Y312839D01*
X119660Y312873D01*
X119595Y312915D01*
X119534Y312934D01*
X119476Y312962D01*
X119406Y312973D01*
X119325Y312998D01*
X119241Y312999D01*
X119171Y313010D01*
X117342Y313010D01*
X116171Y314182D01*
X116171Y326839D01*
X117342Y328011D01*
X118171Y328011D01*
X118235Y328020D01*
X118299Y328019D01*
X118374Y328040D01*
X118450Y328051D01*
X118509Y328077D01*
X118571Y328094D01*
X118637Y328135D01*
X118707Y328167D01*
X118756Y328209D01*
X118811Y328243D01*
X118863Y328300D01*
X118922Y328350D01*
X118957Y328404D01*
X119000Y328452D01*
X119034Y328522D01*
X119076Y328586D01*
X119095Y328648D01*
X119123Y328706D01*
X119134Y328775D01*
X119159Y328856D01*
X119160Y328941D01*
X119171Y329010D01*
X119171Y331525D01*
X119161Y331589D01*
X119162Y331653D01*
X119142Y331728D01*
X119131Y331804D01*
X119104Y331863D01*
X119087Y331925D01*
X119046Y331991D01*
X119014Y332061D01*
X118973Y332110D01*
X118939Y332165D01*
X118881Y332217D01*
X118831Y332276D01*
X118777Y332311D01*
X118730Y332354D01*
X118660Y332388D01*
X118595Y332430D01*
X118534Y332449D01*
X118476Y332477D01*
X118415Y332486D01*
X117205Y333696D01*
X117205Y363354D01*
X118377Y364526D01*
X142034Y364526D01*
X143206Y363354D01*
X143206Y333696D01*
X142034Y332524D01*
X128171Y332524D01*
X128108Y332515D01*
X128043Y332516D01*
X127969Y332496D01*
X127892Y332485D01*
X127834Y332458D01*
X127772Y332441D01*
X127706Y332400D01*
X127635Y332368D01*
X127586Y332327D01*
X127532Y332293D01*
X127480Y332235D01*
X127421Y332185D01*
X127386Y332131D01*
X127343Y332084D01*
X127309Y332014D01*
X127266Y331949D01*
X127248Y331888D01*
X127220Y331830D01*
X127209Y331760D01*
X127184Y331679D01*
X127183Y331595D01*
X127172Y331525D01*
X127172Y329010D01*
X127181Y328947D01*
X127180Y328882D01*
X127201Y328808D01*
X127212Y328731D01*
X127238Y328673D01*
X127255Y328611D01*
X127296Y328545D01*
X127328Y328474D01*
X127370Y328425D01*
X127404Y328371D01*
X127461Y328319D01*
X127511Y328260D01*
X127565Y328225D01*
X127613Y328182D01*
X127682Y328148D01*
X127747Y328105D01*
X127809Y328087D01*
X127867Y328059D01*
X127936Y328048D01*
X128017Y328023D01*
X128102Y328022D01*
X128171Y328011D01*
X129000Y328011D01*
X130172Y326839D01*
X130172Y314182D01*
X129000Y313010D01*
X127171Y313010D01*
X127108Y313000D01*
X127043Y313001D01*
X126969Y312981D01*
X126892Y312970D01*
X126834Y312943D01*
X126772Y312926D01*
X126706Y312885D01*
X126635Y312854D01*
X126586Y312812D01*
X126532Y312778D01*
X126480Y312720D01*
X126421Y312670D01*
X126386Y312616D01*
X126343Y312569D01*
X126309Y312499D01*
X126266Y312434D01*
X126248Y312373D01*
X126220Y312315D01*
X126209Y312245D01*
X126184Y312164D01*
X126183Y312080D01*
X126172Y312010D01*
X126172Y311853D01*
X126173Y311844D01*
X126172Y311834D01*
X126193Y311703D01*
X126212Y311574D01*
X126216Y311565D01*
X126217Y311556D01*
X126274Y311436D01*
X126328Y311317D01*
X126334Y311310D01*
X126338Y311301D01*
X126426Y311203D01*
X126511Y311103D01*
X126519Y311097D01*
X126526Y311090D01*
X126591Y311050D01*
X126747Y310948D01*
X126770Y310941D01*
X126789Y310930D01*
X126928Y310872D01*
X128501Y309300D01*
X129352Y307245D01*
X129352Y305021D01*
X128501Y302966D01*
X126928Y301393D01*
X124873Y300542D01*
X122649Y300542D01*
G37*
%LPD*%
%LPC*%
G36*
X84833Y300771D02*
X84833Y300771D01*
X82778Y301622D01*
X81206Y303195D01*
X80354Y305250D01*
X80354Y307474D01*
X81206Y309529D01*
X82652Y310975D01*
X82709Y311052D01*
X82774Y311123D01*
X82794Y311164D01*
X82821Y311201D01*
X82855Y311291D01*
X82897Y311377D01*
X82903Y311419D01*
X82921Y311464D01*
X82930Y311592D01*
X82944Y311682D01*
X82944Y312633D01*
X82935Y312697D01*
X82936Y312761D01*
X82916Y312836D01*
X82905Y312913D01*
X82878Y312971D01*
X82861Y313033D01*
X82820Y313099D01*
X82788Y313170D01*
X82747Y313218D01*
X82713Y313273D01*
X82655Y313325D01*
X82605Y313384D01*
X82551Y313419D01*
X82504Y313462D01*
X82434Y313496D01*
X82369Y313538D01*
X82308Y313557D01*
X82250Y313585D01*
X82180Y313596D01*
X82099Y313621D01*
X82015Y313622D01*
X81945Y313633D01*
X80764Y313633D01*
X79592Y314805D01*
X79592Y327462D01*
X80764Y328634D01*
X81593Y328634D01*
X81656Y328643D01*
X81721Y328642D01*
X81795Y328663D01*
X81872Y328674D01*
X81930Y328700D01*
X81992Y328718D01*
X82058Y328758D01*
X82129Y328790D01*
X82178Y328832D01*
X82232Y328866D01*
X82284Y328923D01*
X82343Y328974D01*
X82378Y329027D01*
X82421Y329075D01*
X82455Y329145D01*
X82498Y329210D01*
X82516Y329271D01*
X82544Y329329D01*
X82555Y329398D01*
X82580Y329479D01*
X82581Y329564D01*
X82592Y329633D01*
X82592Y331849D01*
X82583Y331913D01*
X82584Y331977D01*
X82563Y332052D01*
X82552Y332129D01*
X82526Y332187D01*
X82509Y332249D01*
X82468Y332315D01*
X82436Y332386D01*
X82394Y332434D01*
X82360Y332489D01*
X82303Y332541D01*
X82253Y332600D01*
X82199Y332635D01*
X82151Y332678D01*
X82081Y332712D01*
X82017Y332754D01*
X81955Y332773D01*
X81897Y332801D01*
X81828Y332812D01*
X81747Y332837D01*
X81662Y332838D01*
X81593Y332849D01*
X70910Y332849D01*
X69739Y334021D01*
X69739Y363678D01*
X70910Y364850D01*
X94568Y364850D01*
X95740Y363678D01*
X95740Y334021D01*
X94568Y332849D01*
X91593Y332849D01*
X91529Y332840D01*
X91465Y332840D01*
X91390Y332820D01*
X91313Y332809D01*
X91255Y332782D01*
X91193Y332765D01*
X91127Y332724D01*
X91057Y332693D01*
X91008Y332651D01*
X90953Y332617D01*
X90901Y332560D01*
X90842Y332509D01*
X90807Y332455D01*
X90764Y332408D01*
X90730Y332338D01*
X90688Y332273D01*
X90669Y332212D01*
X90641Y332154D01*
X90630Y332085D01*
X90605Y332004D01*
X90604Y331919D01*
X90593Y331849D01*
X90593Y329633D01*
X90602Y329570D01*
X90602Y329506D01*
X90622Y329431D01*
X90633Y329354D01*
X90660Y329296D01*
X90677Y329234D01*
X90718Y329168D01*
X90749Y329097D01*
X90791Y329049D01*
X90825Y328994D01*
X90882Y328942D01*
X90933Y328883D01*
X90987Y328848D01*
X91034Y328805D01*
X91104Y328771D01*
X91169Y328729D01*
X91230Y328710D01*
X91288Y328682D01*
X91357Y328671D01*
X91439Y328646D01*
X91523Y328645D01*
X91593Y328634D01*
X92421Y328634D01*
X93593Y327462D01*
X93593Y314805D01*
X92421Y313633D01*
X89945Y313633D01*
X89882Y313624D01*
X89817Y313625D01*
X89743Y313604D01*
X89666Y313593D01*
X89607Y313566D01*
X89545Y313549D01*
X89479Y313509D01*
X89409Y313477D01*
X89360Y313435D01*
X89305Y313401D01*
X89254Y313344D01*
X89195Y313293D01*
X89159Y313240D01*
X89116Y313192D01*
X89083Y313122D01*
X89040Y313057D01*
X89021Y312996D01*
X88993Y312938D01*
X88983Y312869D01*
X88958Y312788D01*
X88957Y312703D01*
X88946Y312633D01*
X88946Y311682D01*
X88959Y311586D01*
X88964Y311490D01*
X88979Y311447D01*
X88986Y311402D01*
X89025Y311315D01*
X89057Y311224D01*
X89082Y311190D01*
X89102Y311145D01*
X89185Y311048D01*
X89239Y310975D01*
X90685Y309529D01*
X91536Y307474D01*
X91536Y305250D01*
X90685Y303195D01*
X89112Y301622D01*
X87057Y300771D01*
X84833Y300771D01*
G37*
%LPD*%
%LPC*%
G36*
X27792Y301340D02*
X27792Y301340D01*
X25737Y302191D01*
X24165Y303764D01*
X23313Y305818D01*
X23313Y308043D01*
X24165Y310097D01*
X25524Y311456D01*
X25543Y311482D01*
X25567Y311503D01*
X25627Y311595D01*
X25693Y311682D01*
X25704Y311712D01*
X25722Y311739D01*
X25754Y311844D01*
X25792Y311946D01*
X25795Y311978D01*
X25804Y312009D01*
X25806Y312118D01*
X25814Y312227D01*
X25808Y312259D01*
X25808Y312291D01*
X25779Y312396D01*
X25757Y312503D01*
X25741Y312532D01*
X25733Y312563D01*
X25675Y312656D01*
X25624Y312752D01*
X25602Y312775D01*
X25585Y312803D01*
X25504Y312876D01*
X25427Y312954D01*
X25399Y312970D01*
X25375Y312992D01*
X25277Y313039D01*
X25182Y313093D01*
X25151Y313101D01*
X25122Y313115D01*
X25032Y313129D01*
X24908Y313158D01*
X24859Y313156D01*
X24817Y313162D01*
X23365Y313162D01*
X22193Y314334D01*
X22193Y326992D01*
X23365Y328164D01*
X26957Y328164D01*
X27020Y328173D01*
X27085Y328172D01*
X27159Y328193D01*
X27236Y328204D01*
X27295Y328230D01*
X27357Y328247D01*
X27423Y328288D01*
X27493Y328320D01*
X27542Y328362D01*
X27597Y328395D01*
X27648Y328453D01*
X27707Y328503D01*
X27743Y328557D01*
X27786Y328605D01*
X27819Y328674D01*
X27862Y328739D01*
X27881Y328801D01*
X27909Y328858D01*
X27919Y328928D01*
X27944Y329009D01*
X27945Y329094D01*
X27956Y329163D01*
X27956Y332056D01*
X27947Y332120D01*
X27948Y332184D01*
X27927Y332259D01*
X27916Y332335D01*
X27890Y332394D01*
X27873Y332456D01*
X27832Y332522D01*
X27800Y332592D01*
X27758Y332641D01*
X27725Y332696D01*
X27667Y332748D01*
X27617Y332807D01*
X27563Y332842D01*
X27515Y332885D01*
X27446Y332919D01*
X27381Y332961D01*
X27319Y332980D01*
X27261Y333008D01*
X27192Y333019D01*
X27111Y333043D01*
X27026Y333045D01*
X26957Y333055D01*
X20128Y333055D01*
X18956Y334227D01*
X18956Y363885D01*
X20128Y365057D01*
X43786Y365057D01*
X44958Y363885D01*
X44958Y334227D01*
X43786Y333055D01*
X36957Y333055D01*
X36893Y333046D01*
X36829Y333047D01*
X36754Y333027D01*
X36678Y333016D01*
X36619Y332989D01*
X36557Y332972D01*
X36491Y332931D01*
X36421Y332899D01*
X36372Y332858D01*
X36317Y332824D01*
X36265Y332766D01*
X36206Y332716D01*
X36171Y332662D01*
X36128Y332615D01*
X36094Y332545D01*
X36052Y332480D01*
X36033Y332419D01*
X36005Y332361D01*
X35994Y332291D01*
X35970Y332210D01*
X35968Y332126D01*
X35958Y332056D01*
X35958Y327642D01*
X35971Y327547D01*
X35976Y327451D01*
X35991Y327408D01*
X35997Y327363D01*
X36037Y327276D01*
X36069Y327185D01*
X36094Y327150D01*
X36114Y327106D01*
X36194Y327012D01*
X36194Y314334D01*
X35022Y313162D01*
X32991Y313162D01*
X32959Y313158D01*
X32927Y313160D01*
X32820Y313138D01*
X32712Y313122D01*
X32683Y313109D01*
X32651Y313103D01*
X32555Y313051D01*
X32455Y313006D01*
X32431Y312985D01*
X32402Y312970D01*
X32324Y312894D01*
X32241Y312823D01*
X32223Y312796D01*
X32200Y312773D01*
X32146Y312678D01*
X32086Y312587D01*
X32077Y312556D01*
X32061Y312528D01*
X32036Y312422D01*
X32004Y312317D01*
X32004Y312285D01*
X31996Y312254D01*
X32002Y312144D01*
X32000Y312035D01*
X32009Y312004D01*
X32010Y311972D01*
X32046Y311869D01*
X32075Y311763D01*
X32092Y311736D01*
X32103Y311705D01*
X32156Y311632D01*
X32224Y311523D01*
X32260Y311491D01*
X32285Y311456D01*
X33644Y310097D01*
X34495Y308043D01*
X34495Y305818D01*
X33644Y303764D01*
X32071Y302191D01*
X30016Y301340D01*
X27792Y301340D01*
G37*
%LPD*%
%LPC*%
G36*
X20128Y381055D02*
X20128Y381055D01*
X18956Y382227D01*
X18956Y403743D01*
X18948Y403803D01*
X18948Y403829D01*
X18947Y403831D01*
X18948Y403871D01*
X18927Y403945D01*
X18916Y404022D01*
X18890Y404080D01*
X18873Y404142D01*
X18832Y404208D01*
X18800Y404279D01*
X18758Y404328D01*
X18725Y404382D01*
X18667Y404434D01*
X18617Y404493D01*
X18563Y404528D01*
X18515Y404571D01*
X18446Y404605D01*
X18381Y404648D01*
X18319Y404666D01*
X18261Y404694D01*
X18192Y404705D01*
X18111Y404730D01*
X18026Y404731D01*
X17957Y404742D01*
X16898Y404742D01*
X14843Y405593D01*
X13271Y407166D01*
X12419Y409221D01*
X12419Y411445D01*
X13271Y413500D01*
X14843Y415072D01*
X16898Y415923D01*
X19122Y415923D01*
X21177Y415072D01*
X22890Y413359D01*
X22928Y413331D01*
X22930Y413329D01*
X23026Y413239D01*
X23035Y413234D01*
X23042Y413227D01*
X23108Y413196D01*
X23116Y413190D01*
X23136Y413182D01*
X23160Y413170D01*
X23277Y413111D01*
X23287Y413109D01*
X23296Y413104D01*
X23374Y413092D01*
X23375Y413092D01*
X23380Y413090D01*
X23388Y413090D01*
X23554Y413058D01*
X23579Y413060D01*
X23601Y413057D01*
X39926Y413057D01*
X40021Y413070D01*
X40118Y413075D01*
X40161Y413090D01*
X40206Y413097D01*
X40293Y413136D01*
X40384Y413168D01*
X40418Y413193D01*
X40463Y413213D01*
X40560Y413296D01*
X40633Y413350D01*
X41914Y414630D01*
X43969Y415482D01*
X46193Y415482D01*
X48248Y414630D01*
X49820Y413058D01*
X50671Y411003D01*
X50671Y408779D01*
X49820Y406724D01*
X48248Y405151D01*
X46193Y404300D01*
X45957Y404300D01*
X45893Y404291D01*
X45829Y404292D01*
X45754Y404271D01*
X45678Y404260D01*
X45619Y404234D01*
X45557Y404217D01*
X45491Y404176D01*
X45421Y404144D01*
X45372Y404102D01*
X45317Y404068D01*
X45265Y404011D01*
X45206Y403961D01*
X45171Y403907D01*
X45128Y403859D01*
X45094Y403790D01*
X45052Y403725D01*
X45033Y403663D01*
X45005Y403605D01*
X44994Y403536D01*
X44970Y403455D01*
X44968Y403370D01*
X44958Y403301D01*
X44958Y382227D01*
X43786Y381055D01*
X20128Y381055D01*
G37*
%LPD*%
%LPC*%
G36*
X252200Y7239D02*
X252200Y7239D01*
X248495Y8774D01*
X245659Y11610D01*
X244125Y15315D01*
X244125Y35485D01*
X245659Y39190D01*
X248495Y42026D01*
X252200Y43561D01*
X256211Y43561D01*
X259916Y42026D01*
X262751Y39190D01*
X264286Y35485D01*
X264286Y15315D01*
X262751Y11610D01*
X259916Y8774D01*
X256211Y7239D01*
X252200Y7239D01*
G37*
%LPD*%
%LPC*%
G36*
X201400Y7239D02*
X201400Y7239D01*
X197695Y8774D01*
X194859Y11610D01*
X193325Y15315D01*
X193325Y35485D01*
X194859Y39190D01*
X197695Y42026D01*
X201400Y43561D01*
X205411Y43561D01*
X209116Y42026D01*
X211951Y39190D01*
X213486Y35485D01*
X213486Y15315D01*
X211951Y11610D01*
X209116Y8774D01*
X205411Y7239D01*
X201400Y7239D01*
G37*
%LPD*%
%LPC*%
G36*
X176000Y7239D02*
X176000Y7239D01*
X172295Y8774D01*
X169459Y11610D01*
X167925Y15315D01*
X167925Y35485D01*
X169459Y39190D01*
X172295Y42026D01*
X176000Y43561D01*
X180011Y43561D01*
X183716Y42026D01*
X186551Y39190D01*
X188086Y35485D01*
X188086Y15315D01*
X186551Y11610D01*
X183716Y8774D01*
X180011Y7239D01*
X176000Y7239D01*
G37*
%LPD*%
%LPC*%
G36*
X188476Y365973D02*
X188476Y365973D01*
X187304Y367145D01*
X187304Y380802D01*
X188476Y381974D01*
X192246Y381974D01*
X192310Y381984D01*
X192374Y381983D01*
X192449Y382003D01*
X192525Y382014D01*
X192584Y382041D01*
X192646Y382058D01*
X192712Y382099D01*
X192782Y382130D01*
X192831Y382172D01*
X192886Y382206D01*
X192938Y382264D01*
X192997Y382314D01*
X193032Y382368D01*
X193075Y382415D01*
X193109Y382485D01*
X193151Y382550D01*
X193170Y382611D01*
X193198Y382669D01*
X193209Y382739D01*
X193233Y382820D01*
X193234Y382904D01*
X193245Y382974D01*
X193245Y387737D01*
X193237Y387799D01*
X193237Y387841D01*
X193237Y387842D01*
X193237Y387865D01*
X193216Y387940D01*
X193206Y388017D01*
X193179Y388075D01*
X193162Y388137D01*
X193121Y388203D01*
X193089Y388274D01*
X193048Y388322D01*
X193014Y388377D01*
X192956Y388429D01*
X192906Y388488D01*
X192852Y388523D01*
X192804Y388566D01*
X192735Y388600D01*
X192670Y388642D01*
X192608Y388661D01*
X192551Y388689D01*
X192481Y388700D01*
X192400Y388725D01*
X192316Y388726D01*
X192246Y388737D01*
X191417Y388737D01*
X190245Y389909D01*
X190245Y402566D01*
X191417Y403738D01*
X203075Y403738D01*
X204247Y402566D01*
X204247Y389909D01*
X203075Y388737D01*
X202246Y388737D01*
X202182Y388728D01*
X202118Y388728D01*
X202043Y388708D01*
X201967Y388697D01*
X201908Y388670D01*
X201846Y388653D01*
X201780Y388613D01*
X201710Y388581D01*
X201661Y388539D01*
X201606Y388505D01*
X201554Y388448D01*
X201496Y388397D01*
X201460Y388343D01*
X201417Y388296D01*
X201384Y388226D01*
X201341Y388161D01*
X201322Y388100D01*
X201294Y388042D01*
X201284Y387973D01*
X201259Y387892D01*
X201258Y387807D01*
X201247Y387737D01*
X201247Y382974D01*
X201256Y382910D01*
X201255Y382846D01*
X201276Y382771D01*
X201287Y382694D01*
X201313Y382636D01*
X201330Y382574D01*
X201371Y382508D01*
X201403Y382438D01*
X201445Y382389D01*
X201478Y382334D01*
X201536Y382282D01*
X201586Y382223D01*
X201640Y382188D01*
X201688Y382145D01*
X201757Y382111D01*
X201822Y382069D01*
X201884Y382050D01*
X201941Y382022D01*
X202011Y382011D01*
X202092Y381986D01*
X202122Y381986D01*
X203305Y380802D01*
X203305Y367145D01*
X202133Y365973D01*
X188476Y365973D01*
G37*
%LPD*%
%LPC*%
G36*
X291911Y366594D02*
X291911Y366594D01*
X290739Y367766D01*
X290739Y381423D01*
X291911Y382595D01*
X296275Y382595D01*
X296339Y382604D01*
X296403Y382603D01*
X296478Y382624D01*
X296554Y382635D01*
X296613Y382661D01*
X296675Y382679D01*
X296741Y382719D01*
X296811Y382751D01*
X296860Y382793D01*
X296915Y382827D01*
X296967Y382884D01*
X297025Y382935D01*
X297061Y382988D01*
X297104Y383036D01*
X297137Y383106D01*
X297180Y383171D01*
X297199Y383232D01*
X297227Y383290D01*
X297238Y383359D01*
X297262Y383440D01*
X297263Y383525D01*
X297274Y383594D01*
X297274Y387488D01*
X297265Y387551D01*
X297266Y387615D01*
X297245Y387690D01*
X297234Y387767D01*
X297208Y387825D01*
X297191Y387887D01*
X297150Y387953D01*
X297118Y388024D01*
X297076Y388072D01*
X297043Y388127D01*
X296985Y388179D01*
X296935Y388238D01*
X296881Y388273D01*
X296833Y388316D01*
X296764Y388350D01*
X296699Y388392D01*
X296637Y388411D01*
X296580Y388439D01*
X296510Y388450D01*
X296429Y388475D01*
X296344Y388476D01*
X296275Y388487D01*
X295446Y388487D01*
X294274Y389659D01*
X294274Y402316D01*
X295446Y403488D01*
X307104Y403488D01*
X308276Y402316D01*
X308276Y389659D01*
X307104Y388487D01*
X306275Y388487D01*
X306211Y388478D01*
X306147Y388479D01*
X306072Y388458D01*
X305996Y388447D01*
X305937Y388421D01*
X305875Y388403D01*
X305809Y388363D01*
X305739Y388331D01*
X305690Y388289D01*
X305635Y388255D01*
X305583Y388198D01*
X305525Y388147D01*
X305489Y388094D01*
X305446Y388046D01*
X305413Y387976D01*
X305370Y387911D01*
X305351Y387850D01*
X305323Y387792D01*
X305312Y387723D01*
X305288Y387642D01*
X305287Y387557D01*
X305276Y387488D01*
X305276Y383302D01*
X305289Y383207D01*
X305294Y383111D01*
X305309Y383068D01*
X305316Y383023D01*
X305355Y382935D01*
X305387Y382844D01*
X305412Y382810D01*
X305432Y382766D01*
X305515Y382669D01*
X305568Y382595D01*
X306741Y381423D01*
X306741Y367766D01*
X305569Y366594D01*
X291911Y366594D01*
G37*
%LPD*%
%LPC*%
G36*
X359303Y367540D02*
X359303Y367540D01*
X358131Y368712D01*
X358131Y382370D01*
X359303Y383542D01*
X364984Y383542D01*
X365048Y383551D01*
X365112Y383550D01*
X365187Y383571D01*
X365263Y383582D01*
X365322Y383608D01*
X365384Y383625D01*
X365450Y383666D01*
X365520Y383698D01*
X365569Y383740D01*
X365624Y383773D01*
X365676Y383831D01*
X365735Y383881D01*
X365770Y383935D01*
X365813Y383983D01*
X365847Y384052D01*
X365889Y384117D01*
X365908Y384179D01*
X365936Y384237D01*
X365947Y384306D01*
X365971Y384387D01*
X365973Y384472D01*
X365983Y384541D01*
X365983Y388271D01*
X365974Y388334D01*
X365975Y388399D01*
X365955Y388473D01*
X365944Y388550D01*
X365917Y388608D01*
X365900Y388670D01*
X365859Y388736D01*
X365827Y388807D01*
X365786Y388856D01*
X365752Y388910D01*
X365694Y388962D01*
X365644Y389021D01*
X365590Y389056D01*
X365543Y389099D01*
X365473Y389133D01*
X365408Y389176D01*
X365347Y389194D01*
X365289Y389222D01*
X365219Y389233D01*
X365138Y389258D01*
X365054Y389259D01*
X364984Y389270D01*
X364155Y389270D01*
X362983Y390442D01*
X362983Y403099D01*
X364155Y404271D01*
X375813Y404271D01*
X376985Y403099D01*
X376985Y390442D01*
X375813Y389270D01*
X374984Y389270D01*
X374921Y389261D01*
X374856Y389262D01*
X374782Y389241D01*
X374705Y389230D01*
X374647Y389204D01*
X374584Y389187D01*
X374518Y389146D01*
X374448Y389114D01*
X374399Y389072D01*
X374345Y389038D01*
X374293Y388981D01*
X374234Y388931D01*
X374199Y388877D01*
X374155Y388829D01*
X374122Y388759D01*
X374079Y388695D01*
X374060Y388633D01*
X374032Y388575D01*
X374022Y388506D01*
X373997Y388425D01*
X373996Y388340D01*
X373985Y388271D01*
X373985Y382931D01*
X373998Y382836D01*
X374003Y382740D01*
X374018Y382697D01*
X374025Y382652D01*
X374064Y382564D01*
X374096Y382473D01*
X374121Y382439D01*
X374132Y382414D01*
X374132Y368712D01*
X372960Y367540D01*
X359303Y367540D01*
G37*
%LPD*%
%LPC*%
G36*
X373677Y317129D02*
X373677Y317129D01*
X371622Y317980D01*
X370049Y319553D01*
X369198Y321608D01*
X369198Y323832D01*
X370049Y325887D01*
X371495Y327333D01*
X371553Y327410D01*
X371617Y327481D01*
X371637Y327522D01*
X371665Y327559D01*
X371698Y327648D01*
X371740Y327735D01*
X371747Y327777D01*
X371764Y327822D01*
X371774Y327950D01*
X371788Y328040D01*
X371788Y344227D01*
X371774Y344322D01*
X371769Y344418D01*
X371755Y344461D01*
X371748Y344506D01*
X371709Y344594D01*
X371677Y344685D01*
X371652Y344719D01*
X371632Y344763D01*
X371549Y344860D01*
X371495Y344934D01*
X370181Y346248D01*
X370104Y346305D01*
X370033Y346370D01*
X369992Y346390D01*
X369956Y346417D01*
X369866Y346451D01*
X369779Y346493D01*
X369737Y346499D01*
X369692Y346517D01*
X369564Y346526D01*
X369475Y346540D01*
X359303Y346540D01*
X358131Y347712D01*
X358131Y361370D01*
X359303Y362542D01*
X372960Y362542D01*
X374132Y361370D01*
X374132Y351198D01*
X374146Y351103D01*
X374151Y351007D01*
X374166Y350964D01*
X374172Y350919D01*
X374212Y350831D01*
X374243Y350740D01*
X374268Y350706D01*
X374288Y350662D01*
X374371Y350565D01*
X374425Y350491D01*
X377789Y347127D01*
X377789Y328040D01*
X377803Y327944D01*
X377808Y327848D01*
X377823Y327805D01*
X377829Y327760D01*
X377869Y327673D01*
X377900Y327582D01*
X377925Y327548D01*
X377945Y327503D01*
X378029Y327406D01*
X378082Y327333D01*
X379528Y325887D01*
X380379Y323832D01*
X380379Y321608D01*
X379528Y319553D01*
X377956Y317980D01*
X375901Y317129D01*
X373677Y317129D01*
G37*
%LPD*%
%LPC*%
G36*
X313199Y363674D02*
X313199Y363674D01*
X312027Y364846D01*
X312027Y374504D01*
X313199Y375675D01*
X314028Y375675D01*
X314092Y375685D01*
X314156Y375684D01*
X314231Y375704D01*
X314307Y375715D01*
X314366Y375742D01*
X314428Y375759D01*
X314494Y375800D01*
X314564Y375832D01*
X314613Y375873D01*
X314668Y375907D01*
X314720Y375965D01*
X314779Y376015D01*
X314814Y376069D01*
X314857Y376116D01*
X314891Y376186D01*
X314933Y376251D01*
X314952Y376312D01*
X314980Y376370D01*
X314991Y376440D01*
X315015Y376521D01*
X315016Y376605D01*
X315027Y376675D01*
X315027Y388379D01*
X315018Y388442D01*
X315019Y388507D01*
X314998Y388581D01*
X314988Y388658D01*
X314961Y388716D01*
X314944Y388779D01*
X314903Y388845D01*
X314871Y388915D01*
X314830Y388964D01*
X314796Y389018D01*
X314738Y389070D01*
X314688Y389129D01*
X314634Y389164D01*
X314586Y389208D01*
X314517Y389241D01*
X314452Y389284D01*
X314390Y389303D01*
X314333Y389331D01*
X314263Y389341D01*
X314182Y389366D01*
X314098Y389367D01*
X314028Y389378D01*
X312698Y389378D01*
X311526Y390550D01*
X311526Y403208D01*
X312698Y404380D01*
X324355Y404380D01*
X325527Y403208D01*
X325527Y390550D01*
X324355Y389378D01*
X322028Y389378D01*
X321964Y389369D01*
X321900Y389370D01*
X321825Y389349D01*
X321749Y389338D01*
X321690Y389312D01*
X321628Y389295D01*
X321562Y389254D01*
X321492Y389222D01*
X321443Y389180D01*
X321388Y389147D01*
X321336Y389089D01*
X321278Y389039D01*
X321242Y388985D01*
X321199Y388937D01*
X321166Y388868D01*
X321123Y388803D01*
X321104Y388741D01*
X321076Y388683D01*
X321066Y388614D01*
X321041Y388533D01*
X321040Y388448D01*
X321029Y388379D01*
X321029Y376675D01*
X321037Y376615D01*
X321037Y376593D01*
X321038Y376591D01*
X321037Y376547D01*
X321058Y376472D01*
X321069Y376396D01*
X321095Y376337D01*
X321112Y376275D01*
X321153Y376209D01*
X321185Y376139D01*
X321227Y376090D01*
X321260Y376035D01*
X321318Y375983D01*
X321368Y375924D01*
X321422Y375889D01*
X321470Y375846D01*
X321539Y375812D01*
X321604Y375770D01*
X321666Y375751D01*
X321723Y375723D01*
X321793Y375712D01*
X321874Y375687D01*
X321959Y375686D01*
X322028Y375675D01*
X322857Y375675D01*
X324029Y374504D01*
X324029Y364846D01*
X322857Y363674D01*
X313199Y363674D01*
G37*
%LPD*%
%LPC*%
G36*
X210215Y364540D02*
X210215Y364540D01*
X209043Y365712D01*
X209043Y375370D01*
X210215Y376542D01*
X211044Y376542D01*
X211108Y376551D01*
X211172Y376550D01*
X211247Y376571D01*
X211323Y376582D01*
X211382Y376608D01*
X211444Y376625D01*
X211510Y376666D01*
X211580Y376698D01*
X211629Y376740D01*
X211684Y376773D01*
X211736Y376831D01*
X211794Y376881D01*
X211830Y376935D01*
X211873Y376983D01*
X211906Y377052D01*
X211949Y377117D01*
X211968Y377179D01*
X211996Y377237D01*
X212007Y377306D01*
X212031Y377387D01*
X212032Y377472D01*
X212043Y377541D01*
X212043Y387768D01*
X212035Y387827D01*
X212035Y387841D01*
X212034Y387843D01*
X212035Y387896D01*
X212014Y387970D01*
X212003Y388047D01*
X211977Y388106D01*
X211960Y388168D01*
X211919Y388234D01*
X211887Y388304D01*
X211846Y388353D01*
X211812Y388408D01*
X211754Y388459D01*
X211704Y388518D01*
X211650Y388554D01*
X211602Y388597D01*
X211533Y388630D01*
X211468Y388673D01*
X211406Y388692D01*
X211349Y388720D01*
X211279Y388730D01*
X211198Y388755D01*
X211113Y388756D01*
X211044Y388767D01*
X207908Y388767D01*
X206736Y389939D01*
X206736Y402597D01*
X207908Y403769D01*
X219566Y403769D01*
X220738Y402597D01*
X220738Y389939D01*
X219566Y388767D01*
X219044Y388767D01*
X218980Y388758D01*
X218916Y388759D01*
X218841Y388738D01*
X218765Y388727D01*
X218706Y388701D01*
X218644Y388684D01*
X218578Y388643D01*
X218508Y388611D01*
X218459Y388569D01*
X218404Y388536D01*
X218352Y388478D01*
X218294Y388428D01*
X218258Y388374D01*
X218215Y388326D01*
X218182Y388257D01*
X218139Y388192D01*
X218120Y388130D01*
X218092Y388072D01*
X218081Y388003D01*
X218057Y387922D01*
X218056Y387837D01*
X218045Y387768D01*
X218045Y377541D01*
X218054Y377477D01*
X218053Y377413D01*
X218074Y377339D01*
X218085Y377262D01*
X218111Y377203D01*
X218128Y377141D01*
X218169Y377075D01*
X218201Y377005D01*
X218243Y376956D01*
X218276Y376901D01*
X218334Y376850D01*
X218384Y376791D01*
X218438Y376755D01*
X218486Y376712D01*
X218555Y376679D01*
X218620Y376636D01*
X218682Y376617D01*
X218739Y376589D01*
X218809Y376579D01*
X218890Y376554D01*
X218975Y376553D01*
X219044Y376542D01*
X219873Y376542D01*
X221045Y375370D01*
X221045Y365712D01*
X219873Y364540D01*
X210215Y364540D01*
G37*
%LPD*%
%LPC*%
G36*
X244668Y364239D02*
X244668Y364239D01*
X243496Y365411D01*
X243496Y375068D01*
X244668Y376240D01*
X245497Y376240D01*
X245561Y376249D01*
X245625Y376249D01*
X245700Y376269D01*
X245776Y376280D01*
X245835Y376307D01*
X245897Y376324D01*
X245963Y376364D01*
X246033Y376396D01*
X246082Y376438D01*
X246137Y376472D01*
X246189Y376529D01*
X246248Y376580D01*
X246283Y376634D01*
X246326Y376681D01*
X246360Y376751D01*
X246402Y376816D01*
X246421Y376877D01*
X246449Y376935D01*
X246460Y377004D01*
X246484Y377085D01*
X246486Y377170D01*
X246496Y377240D01*
X246496Y387147D01*
X246487Y387211D01*
X246488Y387275D01*
X246468Y387350D01*
X246457Y387426D01*
X246430Y387485D01*
X246413Y387547D01*
X246372Y387613D01*
X246340Y387683D01*
X246299Y387732D01*
X246265Y387787D01*
X246207Y387839D01*
X246157Y387898D01*
X246103Y387933D01*
X246056Y387976D01*
X245986Y388010D01*
X245921Y388052D01*
X245860Y388071D01*
X245802Y388099D01*
X245732Y388110D01*
X245651Y388134D01*
X245567Y388135D01*
X245497Y388146D01*
X243493Y388146D01*
X242321Y389318D01*
X242321Y401976D01*
X243493Y403148D01*
X255150Y403148D01*
X256322Y401976D01*
X256322Y389318D01*
X255150Y388146D01*
X253497Y388146D01*
X253434Y388137D01*
X253369Y388138D01*
X253295Y388117D01*
X253218Y388107D01*
X253160Y388080D01*
X253097Y388063D01*
X253031Y388022D01*
X252961Y387990D01*
X252912Y387949D01*
X252858Y387915D01*
X252806Y387857D01*
X252747Y387807D01*
X252712Y387753D01*
X252668Y387705D01*
X252635Y387636D01*
X252592Y387571D01*
X252573Y387509D01*
X252545Y387452D01*
X252535Y387382D01*
X252510Y387301D01*
X252509Y387217D01*
X252498Y387147D01*
X252498Y377240D01*
X252507Y377176D01*
X252506Y377112D01*
X252527Y377037D01*
X252538Y376960D01*
X252564Y376902D01*
X252581Y376840D01*
X252622Y376774D01*
X252654Y376703D01*
X252696Y376655D01*
X252729Y376600D01*
X252787Y376548D01*
X252837Y376489D01*
X252891Y376454D01*
X252939Y376411D01*
X253008Y376377D01*
X253073Y376335D01*
X253135Y376316D01*
X253193Y376288D01*
X253262Y376277D01*
X253343Y376252D01*
X253428Y376251D01*
X253497Y376240D01*
X254326Y376240D01*
X255498Y375068D01*
X255498Y365411D01*
X254326Y364239D01*
X244668Y364239D01*
G37*
%LPD*%
%LPC*%
G36*
X381096Y368331D02*
X381096Y368331D01*
X379924Y369503D01*
X379924Y379160D01*
X381096Y380332D01*
X381924Y380332D01*
X381988Y380341D01*
X382052Y380341D01*
X382127Y380361D01*
X382204Y380372D01*
X382262Y380399D01*
X382324Y380416D01*
X382390Y380456D01*
X382460Y380488D01*
X382509Y380530D01*
X382564Y380564D01*
X382616Y380621D01*
X382675Y380672D01*
X382710Y380726D01*
X382753Y380773D01*
X382787Y380843D01*
X382829Y380908D01*
X382848Y380969D01*
X382876Y381027D01*
X382887Y381096D01*
X382912Y381177D01*
X382913Y381262D01*
X382924Y381332D01*
X382924Y388842D01*
X382914Y388906D01*
X382915Y388970D01*
X382895Y389045D01*
X382884Y389122D01*
X382857Y389180D01*
X382840Y389242D01*
X382799Y389308D01*
X382768Y389379D01*
X382726Y389427D01*
X382692Y389482D01*
X382634Y389534D01*
X382584Y389593D01*
X382530Y389628D01*
X382483Y389671D01*
X382413Y389705D01*
X382348Y389747D01*
X382287Y389766D01*
X382229Y389794D01*
X382159Y389805D01*
X382078Y389830D01*
X381994Y389831D01*
X381924Y389842D01*
X381549Y389842D01*
X380377Y391014D01*
X380377Y403671D01*
X381549Y404843D01*
X393207Y404843D01*
X394378Y403671D01*
X394378Y391014D01*
X393207Y389842D01*
X389924Y389842D01*
X389861Y389833D01*
X389796Y389833D01*
X389722Y389813D01*
X389645Y389802D01*
X389587Y389775D01*
X389525Y389758D01*
X389459Y389717D01*
X389388Y389686D01*
X389339Y389644D01*
X389285Y389610D01*
X389233Y389553D01*
X389174Y389502D01*
X389139Y389448D01*
X389096Y389401D01*
X389062Y389331D01*
X389019Y389266D01*
X389001Y389205D01*
X388973Y389147D01*
X388962Y389078D01*
X388937Y388997D01*
X388936Y388912D01*
X388925Y388842D01*
X388925Y381332D01*
X388934Y381268D01*
X388933Y381204D01*
X388954Y381129D01*
X388965Y381052D01*
X388991Y380994D01*
X389008Y380932D01*
X389049Y380866D01*
X389081Y380795D01*
X389123Y380747D01*
X389157Y380692D01*
X389214Y380640D01*
X389264Y380581D01*
X389318Y380546D01*
X389366Y380503D01*
X389436Y380469D01*
X389500Y380427D01*
X389562Y380408D01*
X389620Y380380D01*
X389689Y380369D01*
X389770Y380344D01*
X389855Y380343D01*
X389924Y380332D01*
X390753Y380332D01*
X391925Y379160D01*
X391925Y369503D01*
X390753Y368331D01*
X381096Y368331D01*
G37*
%LPD*%
%LPC*%
G36*
X266375Y203486D02*
X266375Y203486D01*
X264320Y204338D01*
X262747Y205910D01*
X261896Y207965D01*
X261896Y210189D01*
X262747Y212244D01*
X264320Y213817D01*
X266375Y214668D01*
X268420Y214668D01*
X268515Y214681D01*
X268611Y214686D01*
X268654Y214701D01*
X268699Y214708D01*
X268787Y214747D01*
X268877Y214779D01*
X268912Y214804D01*
X268956Y214824D01*
X269053Y214907D01*
X269126Y214961D01*
X281536Y227370D01*
X293178Y227370D01*
X293273Y227383D01*
X293370Y227388D01*
X293413Y227403D01*
X293458Y227410D01*
X293545Y227449D01*
X293636Y227481D01*
X293670Y227506D01*
X293715Y227526D01*
X293812Y227609D01*
X293885Y227662D01*
X295331Y229109D01*
X297386Y229960D01*
X299610Y229960D01*
X301665Y229109D01*
X303238Y227536D01*
X304089Y225481D01*
X304089Y223257D01*
X303238Y221202D01*
X301665Y219629D01*
X299610Y218778D01*
X297386Y218778D01*
X295331Y219629D01*
X293885Y221076D01*
X293808Y221133D01*
X293737Y221198D01*
X293696Y221218D01*
X293659Y221245D01*
X293569Y221279D01*
X293483Y221321D01*
X293441Y221327D01*
X293396Y221344D01*
X293268Y221354D01*
X293178Y221368D01*
X284435Y221368D01*
X284340Y221355D01*
X284244Y221350D01*
X284201Y221335D01*
X284156Y221328D01*
X284069Y221289D01*
X283978Y221257D01*
X283943Y221232D01*
X283899Y221212D01*
X283802Y221129D01*
X283729Y221076D01*
X273370Y210717D01*
X273313Y210640D01*
X273248Y210569D01*
X273228Y210528D01*
X273201Y210491D01*
X273167Y210401D01*
X273125Y210315D01*
X273118Y210273D01*
X273101Y210227D01*
X273091Y210100D01*
X273077Y210010D01*
X273077Y207965D01*
X272226Y205910D01*
X270654Y204338D01*
X268599Y203486D01*
X266375Y203486D01*
G37*
%LPD*%
%LPC*%
G36*
X195390Y335257D02*
X195390Y335257D01*
X193335Y336108D01*
X191762Y337681D01*
X190911Y339736D01*
X190911Y341960D01*
X191587Y343591D01*
X191616Y343706D01*
X191651Y343820D01*
X191652Y343842D01*
X191657Y343865D01*
X191653Y343983D01*
X191655Y344102D01*
X191649Y344124D01*
X191648Y344146D01*
X191611Y344259D01*
X191580Y344373D01*
X191568Y344393D01*
X191561Y344415D01*
X191494Y344512D01*
X191432Y344613D01*
X191415Y344629D01*
X191402Y344648D01*
X191310Y344723D01*
X191222Y344802D01*
X191202Y344812D01*
X191184Y344827D01*
X191075Y344874D01*
X190969Y344925D01*
X190947Y344929D01*
X190925Y344938D01*
X190740Y344961D01*
X190664Y344973D01*
X188476Y344973D01*
X187304Y346145D01*
X187304Y359802D01*
X188476Y360974D01*
X202133Y360974D01*
X203305Y359802D01*
X203305Y346145D01*
X202105Y344945D01*
X202083Y344936D01*
X202061Y344933D01*
X201953Y344884D01*
X201843Y344840D01*
X201825Y344826D01*
X201804Y344817D01*
X201714Y344740D01*
X201620Y344667D01*
X201607Y344648D01*
X201590Y344634D01*
X201525Y344534D01*
X201455Y344438D01*
X201448Y344417D01*
X201435Y344398D01*
X201401Y344284D01*
X201361Y344172D01*
X201359Y344150D01*
X201353Y344128D01*
X201351Y344009D01*
X201344Y343891D01*
X201349Y343870D01*
X201349Y343846D01*
X201399Y343666D01*
X201417Y343591D01*
X202093Y341960D01*
X202093Y339736D01*
X201242Y337681D01*
X199669Y336108D01*
X197614Y335257D01*
X195390Y335257D01*
G37*
%LPD*%
%LPC*%
G36*
X287757Y345260D02*
X287757Y345260D01*
X285702Y346111D01*
X284129Y347684D01*
X283278Y349739D01*
X283278Y351963D01*
X284129Y354018D01*
X285702Y355590D01*
X287757Y356442D01*
X289740Y356442D01*
X289804Y356451D01*
X289868Y356450D01*
X289943Y356470D01*
X290019Y356481D01*
X290078Y356508D01*
X290140Y356525D01*
X290206Y356566D01*
X290276Y356598D01*
X290325Y356639D01*
X290380Y356673D01*
X290432Y356731D01*
X290490Y356781D01*
X290526Y356835D01*
X290569Y356882D01*
X290602Y356952D01*
X290645Y357017D01*
X290664Y357078D01*
X290692Y357136D01*
X290703Y357206D01*
X290727Y357287D01*
X290728Y357371D01*
X290739Y357441D01*
X290739Y360423D01*
X291911Y361595D01*
X305569Y361595D01*
X306741Y360423D01*
X306741Y346766D01*
X305569Y345594D01*
X291864Y345594D01*
X291828Y345620D01*
X291819Y345624D01*
X291812Y345629D01*
X291688Y345673D01*
X291565Y345720D01*
X291555Y345721D01*
X291546Y345724D01*
X291414Y345732D01*
X291283Y345742D01*
X291274Y345740D01*
X291265Y345740D01*
X291189Y345722D01*
X291007Y345684D01*
X290986Y345673D01*
X290965Y345668D01*
X289981Y345260D01*
X287757Y345260D01*
G37*
%LPD*%
%LPC*%
G36*
X86264Y157277D02*
X86264Y157277D01*
X84210Y158128D01*
X82637Y159701D01*
X81786Y161756D01*
X81786Y163980D01*
X82637Y166035D01*
X84210Y167607D01*
X84295Y167643D01*
X84323Y167659D01*
X84354Y167669D01*
X84444Y167731D01*
X84538Y167786D01*
X84560Y167810D01*
X84587Y167828D01*
X84656Y167913D01*
X84731Y167992D01*
X84746Y168021D01*
X84766Y168046D01*
X84809Y168146D01*
X84859Y168244D01*
X84865Y168275D01*
X84878Y168305D01*
X84891Y168413D01*
X84911Y168521D01*
X84908Y168553D01*
X84912Y168585D01*
X84895Y168693D01*
X84884Y168801D01*
X84872Y168831D01*
X84867Y168863D01*
X84820Y168962D01*
X84780Y169063D01*
X84760Y169089D01*
X84746Y169118D01*
X84673Y169200D01*
X84606Y169286D01*
X84580Y169305D01*
X84559Y169329D01*
X84481Y169376D01*
X84378Y169451D01*
X84332Y169467D01*
X84295Y169489D01*
X83779Y169703D01*
X82206Y171276D01*
X81355Y173331D01*
X81355Y175634D01*
X81351Y175666D01*
X81353Y175698D01*
X81331Y175805D01*
X81315Y175913D01*
X81302Y175942D01*
X81296Y175974D01*
X81244Y176071D01*
X81199Y176170D01*
X81178Y176195D01*
X81163Y176223D01*
X81087Y176301D01*
X81016Y176384D01*
X80989Y176402D01*
X80966Y176425D01*
X80871Y176479D01*
X80780Y176539D01*
X80749Y176548D01*
X80721Y176564D01*
X80615Y176589D01*
X80510Y176621D01*
X80478Y176622D01*
X80446Y176629D01*
X80337Y176624D01*
X80228Y176625D01*
X80197Y176616D01*
X80165Y176615D01*
X80062Y176579D01*
X79956Y176550D01*
X79929Y176533D01*
X79898Y176522D01*
X79825Y176469D01*
X79716Y176402D01*
X79684Y176366D01*
X79649Y176340D01*
X79442Y176133D01*
X77387Y175282D01*
X75163Y175282D01*
X73108Y176133D01*
X71536Y177706D01*
X70684Y179761D01*
X70684Y181985D01*
X71536Y184040D01*
X73108Y185612D01*
X75163Y186463D01*
X77387Y186463D01*
X79442Y185612D01*
X81015Y184040D01*
X81866Y181985D01*
X81866Y179682D01*
X81870Y179650D01*
X81868Y179617D01*
X81890Y179510D01*
X81906Y179402D01*
X81919Y179373D01*
X81926Y179341D01*
X81977Y179245D01*
X82022Y179145D01*
X82043Y179121D01*
X82058Y179092D01*
X82134Y179014D01*
X82205Y178931D01*
X82232Y178913D01*
X82255Y178890D01*
X82350Y178837D01*
X82441Y178777D01*
X82472Y178767D01*
X82500Y178751D01*
X82607Y178726D01*
X82711Y178694D01*
X82743Y178694D01*
X82775Y178686D01*
X82884Y178692D01*
X82993Y178691D01*
X83024Y178699D01*
X83056Y178701D01*
X83159Y178737D01*
X83265Y178766D01*
X83292Y178783D01*
X83323Y178793D01*
X83396Y178847D01*
X83505Y178914D01*
X83537Y178950D01*
X83572Y178975D01*
X83779Y179182D01*
X85834Y180033D01*
X88058Y180033D01*
X90113Y179182D01*
X91686Y177610D01*
X92537Y175555D01*
X92537Y173331D01*
X91686Y171276D01*
X90113Y169703D01*
X90027Y169668D01*
X89999Y169651D01*
X89969Y169641D01*
X89878Y169580D01*
X89784Y169524D01*
X89762Y169500D01*
X89736Y169482D01*
X89666Y169398D01*
X89591Y169318D01*
X89577Y169289D01*
X89556Y169265D01*
X89513Y169164D01*
X89464Y169067D01*
X89458Y169035D01*
X89445Y169006D01*
X89432Y168897D01*
X89411Y168790D01*
X89414Y168758D01*
X89410Y168726D01*
X89428Y168618D01*
X89438Y168509D01*
X89450Y168479D01*
X89455Y168447D01*
X89502Y168348D01*
X89543Y168247D01*
X89563Y168222D01*
X89576Y168192D01*
X89649Y168111D01*
X89716Y168025D01*
X89742Y168006D01*
X89764Y167982D01*
X89841Y167935D01*
X89945Y167860D01*
X89991Y167843D01*
X90027Y167821D01*
X90543Y167607D01*
X92116Y166035D01*
X92967Y163980D01*
X92967Y161756D01*
X92116Y159701D01*
X90543Y158128D01*
X88489Y157277D01*
X86264Y157277D01*
G37*
%LPD*%
%LPC*%
G36*
X386052Y341214D02*
X386052Y341214D01*
X383997Y342066D01*
X382424Y343638D01*
X381573Y345693D01*
X381573Y347917D01*
X382424Y349972D01*
X383870Y351418D01*
X383928Y351495D01*
X383992Y351566D01*
X384012Y351607D01*
X384040Y351644D01*
X384074Y351734D01*
X384115Y351820D01*
X384122Y351862D01*
X384139Y351908D01*
X384149Y352035D01*
X384163Y352125D01*
X384163Y352332D01*
X384154Y352395D01*
X384155Y352459D01*
X384134Y352534D01*
X384123Y352611D01*
X384097Y352669D01*
X384080Y352731D01*
X384039Y352797D01*
X384007Y352868D01*
X383965Y352917D01*
X383931Y352971D01*
X383874Y353023D01*
X383824Y353082D01*
X383770Y353117D01*
X383722Y353160D01*
X383653Y353194D01*
X383588Y353237D01*
X383526Y353255D01*
X383468Y353283D01*
X383399Y353294D01*
X383318Y353319D01*
X383233Y353320D01*
X383164Y353331D01*
X381096Y353331D01*
X379924Y354503D01*
X379924Y364160D01*
X381096Y365332D01*
X390753Y365332D01*
X391925Y364160D01*
X391925Y354503D01*
X390460Y353038D01*
X390447Y353020D01*
X390413Y352991D01*
X390378Y352938D01*
X390335Y352890D01*
X390309Y352837D01*
X390291Y352813D01*
X390284Y352794D01*
X390259Y352755D01*
X390240Y352694D01*
X390212Y352636D01*
X390203Y352580D01*
X390192Y352549D01*
X390190Y352531D01*
X390176Y352486D01*
X390175Y352401D01*
X390164Y352332D01*
X390164Y352125D01*
X390178Y352030D01*
X390183Y351934D01*
X390198Y351891D01*
X390204Y351846D01*
X390244Y351758D01*
X390275Y351667D01*
X390301Y351633D01*
X390321Y351589D01*
X390404Y351491D01*
X390457Y351418D01*
X391903Y349972D01*
X392754Y347917D01*
X392754Y345693D01*
X391903Y343638D01*
X390331Y342066D01*
X388276Y341214D01*
X386052Y341214D01*
G37*
%LPD*%
%LPC*%
G36*
X213969Y338466D02*
X213969Y338466D01*
X211914Y339317D01*
X210341Y340890D01*
X209490Y342945D01*
X209490Y345169D01*
X210341Y347224D01*
X210952Y347835D01*
X210971Y347860D01*
X210996Y347881D01*
X211056Y347973D01*
X211121Y348060D01*
X211132Y348090D01*
X211150Y348117D01*
X211182Y348222D01*
X211221Y348324D01*
X211223Y348356D01*
X211232Y348387D01*
X211234Y348496D01*
X211242Y348605D01*
X211236Y348637D01*
X211236Y348669D01*
X211207Y348774D01*
X211185Y348881D01*
X211170Y348910D01*
X211161Y348941D01*
X211104Y349034D01*
X211052Y349130D01*
X211030Y349153D01*
X211013Y349181D01*
X210932Y349254D01*
X210856Y349332D01*
X210828Y349348D01*
X210804Y349370D01*
X210705Y349417D01*
X210610Y349471D01*
X210579Y349479D01*
X210550Y349493D01*
X210460Y349507D01*
X210336Y349536D01*
X210287Y349534D01*
X210245Y349540D01*
X210215Y349540D01*
X209043Y350712D01*
X209043Y360370D01*
X210215Y361542D01*
X219873Y361542D01*
X221045Y360370D01*
X221045Y350712D01*
X219869Y349537D01*
X219852Y349538D01*
X219745Y349516D01*
X219637Y349501D01*
X219608Y349487D01*
X219576Y349481D01*
X219480Y349429D01*
X219380Y349384D01*
X219356Y349363D01*
X219327Y349348D01*
X219249Y349272D01*
X219166Y349201D01*
X219148Y349174D01*
X219125Y349151D01*
X219071Y349057D01*
X219011Y348965D01*
X219002Y348934D01*
X218986Y348906D01*
X218961Y348800D01*
X218929Y348695D01*
X218929Y348663D01*
X218921Y348632D01*
X218927Y348522D01*
X218925Y348413D01*
X218934Y348382D01*
X218935Y348350D01*
X218971Y348247D01*
X219000Y348141D01*
X219017Y348114D01*
X219028Y348084D01*
X219081Y348010D01*
X219149Y347901D01*
X219185Y347869D01*
X219210Y347835D01*
X219820Y347224D01*
X220671Y345169D01*
X220671Y342945D01*
X219820Y340890D01*
X218248Y339317D01*
X216193Y338466D01*
X213969Y338466D01*
G37*
%LPD*%
%LPC*%
G36*
X315893Y338282D02*
X315893Y338282D01*
X313838Y339133D01*
X312265Y340706D01*
X311414Y342761D01*
X311414Y344985D01*
X312265Y347040D01*
X312843Y347617D01*
X312881Y347669D01*
X312927Y347714D01*
X312966Y347781D01*
X313012Y347843D01*
X313035Y347903D01*
X313066Y347959D01*
X313084Y348034D01*
X313112Y348107D01*
X313117Y348171D01*
X313131Y348233D01*
X313127Y348311D01*
X313133Y348388D01*
X313120Y348451D01*
X313117Y348515D01*
X313092Y348588D01*
X313076Y348664D01*
X313046Y348721D01*
X313024Y348782D01*
X312983Y348838D01*
X312943Y348913D01*
X312884Y348974D01*
X312843Y349031D01*
X312027Y349846D01*
X312027Y359504D01*
X313199Y360675D01*
X322857Y360675D01*
X324029Y359504D01*
X324029Y349846D01*
X322857Y348674D01*
X322522Y348674D01*
X322490Y348669D01*
X322458Y348672D01*
X322351Y348650D01*
X322243Y348634D01*
X322214Y348621D01*
X322182Y348614D01*
X322086Y348563D01*
X321986Y348518D01*
X321962Y348497D01*
X321933Y348482D01*
X321855Y348406D01*
X321772Y348335D01*
X321754Y348308D01*
X321731Y348285D01*
X321677Y348190D01*
X321617Y348099D01*
X321608Y348068D01*
X321592Y348040D01*
X321567Y347933D01*
X321535Y347829D01*
X321535Y347797D01*
X321527Y347765D01*
X321533Y347656D01*
X321531Y347547D01*
X321540Y347516D01*
X321542Y347483D01*
X321577Y347380D01*
X321607Y347275D01*
X321624Y347248D01*
X321634Y347217D01*
X321687Y347144D01*
X321729Y347077D01*
X322595Y344985D01*
X322595Y342761D01*
X321744Y340706D01*
X320172Y339133D01*
X318117Y338282D01*
X315893Y338282D01*
G37*
%LPD*%
%LPC*%
G36*
X240198Y342043D02*
X240198Y342043D01*
X238143Y342894D01*
X236570Y344467D01*
X235719Y346522D01*
X235719Y348746D01*
X236570Y350801D01*
X238143Y352373D01*
X240198Y353224D01*
X242243Y353224D01*
X242338Y353238D01*
X242434Y353243D01*
X242477Y353258D01*
X242522Y353264D01*
X242610Y353304D01*
X242700Y353335D01*
X242735Y353360D01*
X242779Y353380D01*
X242876Y353464D01*
X242949Y353517D01*
X243204Y353771D01*
X243261Y353848D01*
X243326Y353920D01*
X243346Y353960D01*
X243373Y353997D01*
X243407Y354087D01*
X243449Y354173D01*
X243455Y354215D01*
X243473Y354261D01*
X243482Y354388D01*
X243496Y354478D01*
X243496Y360068D01*
X244668Y361240D01*
X254326Y361240D01*
X255498Y360068D01*
X255498Y350411D01*
X254326Y349239D01*
X247900Y349239D01*
X247836Y349230D01*
X247772Y349231D01*
X247697Y349210D01*
X247621Y349199D01*
X247562Y349173D01*
X247500Y349155D01*
X247434Y349115D01*
X247364Y349083D01*
X247315Y349041D01*
X247260Y349007D01*
X247208Y348950D01*
X247149Y348899D01*
X247114Y348846D01*
X247071Y348798D01*
X247037Y348728D01*
X246995Y348663D01*
X246976Y348602D01*
X246948Y348544D01*
X246937Y348475D01*
X246912Y348394D01*
X246911Y348309D01*
X246901Y348240D01*
X246901Y346522D01*
X246049Y344467D01*
X244477Y342894D01*
X242422Y342043D01*
X240198Y342043D01*
G37*
%LPD*%
%LPC*%
G36*
X249509Y244649D02*
X249509Y244649D01*
X247454Y245500D01*
X245881Y247073D01*
X245613Y247720D01*
X245597Y247748D01*
X245587Y247778D01*
X245525Y247869D01*
X245469Y247963D01*
X245446Y247985D01*
X245428Y248011D01*
X245343Y248081D01*
X245264Y248156D01*
X245235Y248170D01*
X245210Y248191D01*
X245110Y248234D01*
X245012Y248283D01*
X244980Y248289D01*
X244951Y248302D01*
X244843Y248316D01*
X244735Y248336D01*
X244703Y248333D01*
X244671Y248337D01*
X244563Y248319D01*
X244454Y248309D01*
X244424Y248297D01*
X244393Y248292D01*
X244294Y248245D01*
X244192Y248204D01*
X244167Y248184D01*
X244138Y248171D01*
X244056Y248098D01*
X243970Y248031D01*
X243951Y248005D01*
X243927Y247983D01*
X243880Y247906D01*
X243805Y247802D01*
X243789Y247756D01*
X243767Y247720D01*
X243575Y247257D01*
X242002Y245685D01*
X239947Y244833D01*
X237723Y244833D01*
X235668Y245685D01*
X234096Y247257D01*
X233245Y249312D01*
X233245Y251536D01*
X234096Y253591D01*
X235668Y255164D01*
X237723Y256015D01*
X239947Y256015D01*
X242002Y255164D01*
X243575Y253591D01*
X243843Y252944D01*
X243859Y252916D01*
X243869Y252886D01*
X243931Y252795D01*
X243987Y252701D01*
X244010Y252679D01*
X244028Y252653D01*
X244113Y252583D01*
X244192Y252508D01*
X244221Y252494D01*
X244246Y252473D01*
X244346Y252430D01*
X244444Y252381D01*
X244475Y252375D01*
X244505Y252362D01*
X244613Y252349D01*
X244721Y252328D01*
X244753Y252331D01*
X244785Y252327D01*
X244893Y252345D01*
X245002Y252355D01*
X245031Y252367D01*
X245063Y252372D01*
X245162Y252419D01*
X245263Y252460D01*
X245289Y252480D01*
X245318Y252494D01*
X245400Y252566D01*
X245486Y252633D01*
X245505Y252659D01*
X245529Y252681D01*
X245576Y252758D01*
X245651Y252862D01*
X245667Y252908D01*
X245689Y252944D01*
X245881Y253407D01*
X247454Y254980D01*
X249509Y255831D01*
X251733Y255831D01*
X253788Y254980D01*
X255360Y253407D01*
X256211Y251352D01*
X256211Y249128D01*
X255360Y247073D01*
X253788Y245500D01*
X251733Y244649D01*
X249509Y244649D01*
G37*
%LPD*%
%LPC*%
G36*
X147032Y157369D02*
X147032Y157369D01*
X144977Y158220D01*
X143405Y159793D01*
X142553Y161848D01*
X142553Y164072D01*
X143405Y166127D01*
X144977Y167699D01*
X145812Y168045D01*
X145914Y168105D01*
X146019Y168161D01*
X146035Y168177D01*
X146055Y168189D01*
X146136Y168275D01*
X146221Y168358D01*
X146232Y168378D01*
X146247Y168394D01*
X146301Y168500D01*
X146360Y168603D01*
X146365Y168625D01*
X146375Y168646D01*
X146397Y168762D01*
X146425Y168878D01*
X146423Y168901D01*
X146428Y168923D01*
X146416Y169041D01*
X146410Y169159D01*
X146403Y169181D01*
X146401Y169204D01*
X146357Y169314D01*
X146318Y169426D01*
X146305Y169443D01*
X146296Y169466D01*
X146182Y169613D01*
X146136Y169675D01*
X144786Y171025D01*
X143935Y173080D01*
X143935Y175304D01*
X144786Y177359D01*
X146358Y178932D01*
X148413Y179783D01*
X150637Y179783D01*
X152692Y178932D01*
X154265Y177359D01*
X155116Y175304D01*
X155116Y173080D01*
X154265Y171025D01*
X152692Y169452D01*
X151858Y169107D01*
X151756Y169046D01*
X151651Y168991D01*
X151635Y168975D01*
X151615Y168963D01*
X151534Y168877D01*
X151449Y168794D01*
X151438Y168774D01*
X151422Y168758D01*
X151368Y168652D01*
X151310Y168549D01*
X151305Y168526D01*
X151294Y168506D01*
X151272Y168390D01*
X151245Y168274D01*
X151246Y168251D01*
X151242Y168229D01*
X151253Y168111D01*
X151259Y167992D01*
X151267Y167971D01*
X151269Y167948D01*
X151313Y167838D01*
X151352Y167726D01*
X151365Y167709D01*
X151373Y167686D01*
X151488Y167539D01*
X151533Y167477D01*
X152884Y166127D01*
X153735Y164072D01*
X153735Y161848D01*
X152884Y159793D01*
X151311Y158220D01*
X149256Y157369D01*
X147032Y157369D01*
G37*
%LPD*%
%LPC*%
G36*
X157198Y309260D02*
X157198Y309260D01*
X155143Y310111D01*
X153570Y311684D01*
X152719Y313739D01*
X152719Y315963D01*
X153570Y318018D01*
X155143Y319590D01*
X156364Y320096D01*
X156467Y320157D01*
X156571Y320212D01*
X156588Y320228D01*
X156607Y320240D01*
X156688Y320326D01*
X156773Y320409D01*
X156785Y320429D01*
X156800Y320446D01*
X156854Y320551D01*
X156912Y320654D01*
X156918Y320677D01*
X156928Y320697D01*
X156950Y320813D01*
X156977Y320929D01*
X156976Y320952D01*
X156980Y320974D01*
X156969Y321092D01*
X156963Y321211D01*
X156955Y321232D01*
X156953Y321255D01*
X156909Y321365D01*
X156870Y321477D01*
X156858Y321494D01*
X156849Y321517D01*
X156734Y321664D01*
X156689Y321726D01*
X155692Y322723D01*
X154840Y324778D01*
X154840Y327002D01*
X155692Y329057D01*
X157264Y330630D01*
X159319Y331481D01*
X161543Y331481D01*
X163598Y330630D01*
X165171Y329057D01*
X166022Y327002D01*
X166022Y324778D01*
X165171Y322723D01*
X163598Y321150D01*
X162377Y320644D01*
X162274Y320584D01*
X162170Y320528D01*
X162153Y320512D01*
X162134Y320501D01*
X162053Y320414D01*
X161968Y320332D01*
X161957Y320312D01*
X161941Y320295D01*
X161887Y320189D01*
X161829Y320086D01*
X161823Y320064D01*
X161813Y320044D01*
X161791Y319927D01*
X161764Y319812D01*
X161765Y319789D01*
X161761Y319767D01*
X161772Y319648D01*
X161778Y319530D01*
X161786Y319509D01*
X161788Y319486D01*
X161832Y319375D01*
X161871Y319264D01*
X161883Y319246D01*
X161892Y319224D01*
X162007Y319077D01*
X162052Y319015D01*
X163049Y318018D01*
X163901Y315963D01*
X163901Y313739D01*
X163049Y311684D01*
X161477Y310111D01*
X159422Y309260D01*
X157198Y309260D01*
G37*
%LPD*%
%LPC*%
G36*
X239150Y261268D02*
X239150Y261268D01*
X237096Y262119D01*
X235523Y263691D01*
X234672Y265746D01*
X234672Y267970D01*
X235523Y270025D01*
X237096Y271598D01*
X239150Y272449D01*
X241375Y272449D01*
X243429Y271598D01*
X244344Y270684D01*
X244395Y270645D01*
X244440Y270599D01*
X244507Y270561D01*
X244569Y270514D01*
X244629Y270492D01*
X244685Y270460D01*
X244761Y270442D01*
X244833Y270415D01*
X244897Y270410D01*
X244960Y270395D01*
X245037Y270399D01*
X245114Y270393D01*
X245177Y270406D01*
X245241Y270409D01*
X245314Y270435D01*
X245390Y270451D01*
X245447Y270481D01*
X245508Y270502D01*
X245564Y270543D01*
X245639Y270583D01*
X245700Y270642D01*
X245757Y270684D01*
X246901Y271828D01*
X248956Y272679D01*
X251180Y272679D01*
X253235Y271828D01*
X254808Y270255D01*
X255659Y268200D01*
X255659Y265976D01*
X254808Y263921D01*
X253235Y262349D01*
X251180Y261498D01*
X248956Y261498D01*
X246901Y262349D01*
X245987Y263263D01*
X245936Y263302D01*
X245891Y263348D01*
X245823Y263386D01*
X245761Y263432D01*
X245701Y263455D01*
X245645Y263487D01*
X245570Y263505D01*
X245498Y263532D01*
X245434Y263537D01*
X245371Y263552D01*
X245293Y263548D01*
X245216Y263554D01*
X245153Y263541D01*
X245089Y263537D01*
X245016Y263512D01*
X244940Y263496D01*
X244883Y263466D01*
X244823Y263445D01*
X244766Y263404D01*
X244691Y263364D01*
X244630Y263304D01*
X244574Y263263D01*
X243429Y262119D01*
X241375Y261268D01*
X239150Y261268D01*
G37*
%LPD*%
%LPC*%
G36*
X344628Y321186D02*
X344628Y321186D01*
X342573Y322037D01*
X341000Y323610D01*
X340149Y325664D01*
X340149Y327889D01*
X341000Y329943D01*
X342573Y331516D01*
X344628Y332367D01*
X346852Y332367D01*
X348907Y331516D01*
X350479Y329943D01*
X351330Y327889D01*
X351330Y325664D01*
X350479Y323610D01*
X348907Y322037D01*
X346852Y321186D01*
X344628Y321186D01*
G37*
%LPD*%
%LPC*%
G36*
X111237Y244849D02*
X111237Y244849D01*
X109182Y245700D01*
X107609Y247272D01*
X106758Y249327D01*
X106758Y251551D01*
X107609Y253606D01*
X109182Y255179D01*
X111237Y256030D01*
X113461Y256030D01*
X115516Y255179D01*
X117088Y253606D01*
X117939Y251551D01*
X117939Y249327D01*
X117088Y247272D01*
X115516Y245700D01*
X113461Y244849D01*
X111237Y244849D01*
G37*
%LPD*%
%LPC*%
G36*
X272264Y372561D02*
X272264Y372561D01*
X270209Y373412D01*
X268636Y374985D01*
X267785Y377040D01*
X267785Y379264D01*
X268636Y381319D01*
X270209Y382891D01*
X272264Y383743D01*
X274488Y383743D01*
X276543Y382891D01*
X278115Y381319D01*
X278966Y379264D01*
X278966Y377040D01*
X278115Y374985D01*
X276543Y373412D01*
X274488Y372561D01*
X272264Y372561D01*
G37*
%LPD*%
%LPC*%
G36*
X170086Y349980D02*
X170086Y349980D01*
X168031Y350831D01*
X166458Y352403D01*
X165607Y354458D01*
X165607Y356682D01*
X166458Y358737D01*
X168031Y360310D01*
X170086Y361161D01*
X172310Y361161D01*
X174365Y360310D01*
X175938Y358737D01*
X176789Y356682D01*
X176789Y354458D01*
X175938Y352403D01*
X174365Y350831D01*
X172310Y349980D01*
X170086Y349980D01*
G37*
%LPD*%
%LPC*%
G36*
X135523Y191802D02*
X135523Y191802D01*
X133468Y192654D01*
X131896Y194226D01*
X131044Y196281D01*
X131044Y198505D01*
X131896Y200560D01*
X133468Y202133D01*
X135523Y202984D01*
X137747Y202984D01*
X139802Y202133D01*
X141375Y200560D01*
X142226Y198505D01*
X142226Y196281D01*
X141375Y194226D01*
X139802Y192654D01*
X137747Y191802D01*
X135523Y191802D01*
G37*
%LPD*%
%LPC*%
G36*
X75829Y191176D02*
X75829Y191176D01*
X73774Y192027D01*
X72202Y193600D01*
X71350Y195655D01*
X71350Y197879D01*
X72202Y199934D01*
X73774Y201506D01*
X75829Y202358D01*
X78053Y202358D01*
X80108Y201506D01*
X81681Y199934D01*
X82532Y197879D01*
X82532Y195655D01*
X81681Y193600D01*
X80108Y192027D01*
X78053Y191176D01*
X75829Y191176D01*
G37*
%LPD*%
%LPC*%
G36*
X10780Y190559D02*
X10780Y190559D01*
X8725Y191410D01*
X7153Y192983D01*
X6301Y195038D01*
X6301Y197262D01*
X7153Y199317D01*
X8725Y200889D01*
X10780Y201740D01*
X13004Y201740D01*
X15059Y200889D01*
X16632Y199317D01*
X17483Y197262D01*
X17483Y195038D01*
X16632Y192983D01*
X15059Y191410D01*
X13004Y190559D01*
X10780Y190559D01*
G37*
%LPD*%
%LPC*%
G36*
X135983Y176887D02*
X135983Y176887D01*
X133929Y177739D01*
X132356Y179311D01*
X131505Y181366D01*
X131505Y183590D01*
X132356Y185645D01*
X133929Y187218D01*
X135983Y188069D01*
X138208Y188069D01*
X140262Y187218D01*
X141835Y185645D01*
X142686Y183590D01*
X142686Y181366D01*
X141835Y179311D01*
X140262Y177739D01*
X138208Y176887D01*
X135983Y176887D01*
G37*
%LPD*%
%LPC*%
G36*
X196224Y176011D02*
X196224Y176011D01*
X194169Y176862D01*
X192597Y178435D01*
X191745Y180489D01*
X191745Y182714D01*
X192597Y184769D01*
X194169Y186341D01*
X196224Y187192D01*
X198448Y187192D01*
X200503Y186341D01*
X202076Y184769D01*
X202927Y182714D01*
X202927Y180489D01*
X202076Y178435D01*
X200503Y176862D01*
X198448Y176011D01*
X196224Y176011D01*
G37*
%LPD*%
%LPC*%
G36*
X285778Y330561D02*
X285778Y330561D01*
X283723Y331412D01*
X282151Y332984D01*
X281300Y335039D01*
X281300Y337263D01*
X282151Y339318D01*
X283723Y340891D01*
X285778Y341742D01*
X288002Y341742D01*
X290057Y340891D01*
X291630Y339318D01*
X292481Y337263D01*
X292481Y335039D01*
X291630Y332984D01*
X290057Y331412D01*
X288002Y330561D01*
X285778Y330561D01*
G37*
%LPD*%
%LPC*%
G36*
X210418Y173709D02*
X210418Y173709D01*
X208363Y174560D01*
X206791Y176133D01*
X205940Y178188D01*
X205940Y180412D01*
X206791Y182467D01*
X208363Y184039D01*
X210418Y184891D01*
X212642Y184891D01*
X214697Y184039D01*
X216270Y182467D01*
X217121Y180412D01*
X217121Y178188D01*
X216270Y176133D01*
X214697Y174560D01*
X212642Y173709D01*
X210418Y173709D01*
G37*
%LPD*%
%LPC*%
G36*
X12123Y173552D02*
X12123Y173552D01*
X10068Y174404D01*
X8495Y175976D01*
X7644Y178031D01*
X7644Y180255D01*
X8495Y182310D01*
X10068Y183883D01*
X12123Y184734D01*
X14347Y184734D01*
X16402Y183883D01*
X17974Y182310D01*
X18825Y180255D01*
X18825Y178031D01*
X17974Y175976D01*
X16402Y174404D01*
X14347Y173552D01*
X12123Y173552D01*
G37*
%LPD*%
%LPC*%
G36*
X275289Y320697D02*
X275289Y320697D01*
X273234Y321548D01*
X271661Y323121D01*
X270810Y325176D01*
X270810Y327400D01*
X271661Y329455D01*
X273234Y331028D01*
X275289Y331879D01*
X277513Y331879D01*
X279568Y331028D01*
X281140Y329455D01*
X281992Y327400D01*
X281992Y325176D01*
X281140Y323121D01*
X279568Y321548D01*
X277513Y320697D01*
X275289Y320697D01*
G37*
%LPD*%
%LPC*%
G36*
X164192Y165922D02*
X164192Y165922D01*
X162137Y166773D01*
X160564Y168346D01*
X159713Y170401D01*
X159713Y172625D01*
X160564Y174680D01*
X162137Y176252D01*
X164192Y177103D01*
X166416Y177103D01*
X168471Y176252D01*
X170043Y174680D01*
X170894Y172625D01*
X170894Y170401D01*
X170043Y168346D01*
X168471Y166773D01*
X166416Y165922D01*
X164192Y165922D01*
G37*
%LPD*%
%LPC*%
G36*
X102697Y163352D02*
X102697Y163352D01*
X100642Y164203D01*
X99069Y165775D01*
X98218Y167830D01*
X98218Y170054D01*
X99069Y172109D01*
X100642Y173682D01*
X102697Y174533D01*
X104921Y174533D01*
X106976Y173682D01*
X108548Y172109D01*
X109399Y170054D01*
X109399Y167830D01*
X108548Y165775D01*
X106976Y164203D01*
X104921Y163352D01*
X102697Y163352D01*
G37*
%LPD*%
%LPC*%
G36*
X40781Y162249D02*
X40781Y162249D01*
X38726Y163100D01*
X37153Y164672D01*
X36302Y166727D01*
X36302Y168951D01*
X37153Y171006D01*
X38726Y172579D01*
X40781Y173430D01*
X43005Y173430D01*
X45060Y172579D01*
X46632Y171006D01*
X47484Y168951D01*
X47484Y166727D01*
X46632Y164672D01*
X45060Y163100D01*
X43005Y162249D01*
X40781Y162249D01*
G37*
%LPD*%
%LPC*%
G36*
X14269Y136370D02*
X14269Y136370D01*
X12214Y137221D01*
X10641Y138793D01*
X9790Y140848D01*
X9790Y143072D01*
X10641Y145127D01*
X12214Y146700D01*
X14269Y147551D01*
X16493Y147551D01*
X18548Y146700D01*
X20121Y145127D01*
X20972Y143072D01*
X20972Y140848D01*
X20121Y138793D01*
X18548Y137221D01*
X16493Y136370D01*
X14269Y136370D01*
G37*
%LPD*%
%LPC*%
G36*
X297764Y135256D02*
X297764Y135256D01*
X295709Y136107D01*
X294136Y137680D01*
X293285Y139735D01*
X293285Y141959D01*
X294136Y144014D01*
X295709Y145586D01*
X297764Y146437D01*
X299988Y146437D01*
X302043Y145586D01*
X303615Y144014D01*
X304466Y141959D01*
X304466Y139735D01*
X303615Y137680D01*
X302043Y136107D01*
X299988Y135256D01*
X297764Y135256D01*
G37*
%LPD*%
%LPC*%
G36*
X336710Y135147D02*
X336710Y135147D01*
X334655Y135998D01*
X333082Y137571D01*
X332231Y139626D01*
X332231Y141850D01*
X333082Y143905D01*
X334655Y145478D01*
X336710Y146329D01*
X338934Y146329D01*
X340989Y145478D01*
X342561Y143905D01*
X343412Y141850D01*
X343412Y139626D01*
X342561Y137571D01*
X340989Y135998D01*
X338934Y135147D01*
X336710Y135147D01*
G37*
%LPD*%
%LPC*%
G36*
X316509Y134836D02*
X316509Y134836D01*
X314454Y135688D01*
X312881Y137260D01*
X312030Y139315D01*
X312030Y141539D01*
X312881Y143594D01*
X314454Y145167D01*
X316509Y146018D01*
X318733Y146018D01*
X320788Y145167D01*
X322360Y143594D01*
X323211Y141539D01*
X323211Y139315D01*
X322360Y137260D01*
X320788Y135688D01*
X318733Y134836D01*
X316509Y134836D01*
G37*
%LPD*%
%LPC*%
G36*
X356220Y134076D02*
X356220Y134076D01*
X354165Y134927D01*
X352593Y136500D01*
X351742Y138555D01*
X351742Y140779D01*
X352593Y142834D01*
X354165Y144406D01*
X356220Y145257D01*
X358444Y145257D01*
X360499Y144406D01*
X362072Y142834D01*
X362923Y140779D01*
X362923Y138555D01*
X362072Y136500D01*
X360499Y134927D01*
X358444Y134076D01*
X356220Y134076D01*
G37*
%LPD*%
%LPC*%
G36*
X224254Y103558D02*
X224254Y103558D01*
X222199Y104409D01*
X220627Y105982D01*
X219775Y108037D01*
X219775Y110261D01*
X220627Y112316D01*
X222199Y113888D01*
X224254Y114739D01*
X226478Y114739D01*
X228533Y113888D01*
X230106Y112316D01*
X230957Y110261D01*
X230957Y108037D01*
X230106Y105982D01*
X228533Y104409D01*
X226478Y103558D01*
X224254Y103558D01*
G37*
%LPD*%
%LPC*%
G36*
X177442Y76103D02*
X177442Y76103D01*
X175387Y76955D01*
X173815Y78527D01*
X172963Y80582D01*
X172963Y82806D01*
X173815Y84861D01*
X175387Y86434D01*
X177442Y87285D01*
X179666Y87285D01*
X181721Y86434D01*
X183294Y84861D01*
X184145Y82806D01*
X184145Y80582D01*
X183294Y78527D01*
X181721Y76955D01*
X179666Y76103D01*
X177442Y76103D01*
G37*
%LPD*%
%LPC*%
G36*
X259176Y279359D02*
X259176Y279359D01*
X257121Y280210D01*
X255549Y281783D01*
X254697Y283837D01*
X254697Y286062D01*
X255549Y288116D01*
X257121Y289689D01*
X259176Y290540D01*
X261400Y290540D01*
X263455Y289689D01*
X265028Y288116D01*
X265879Y286062D01*
X265879Y283837D01*
X265028Y281783D01*
X263455Y280210D01*
X261400Y279359D01*
X259176Y279359D01*
G37*
%LPD*%
%LPC*%
G36*
X127955Y65389D02*
X127955Y65389D01*
X125900Y66241D01*
X124328Y67813D01*
X123477Y69868D01*
X123477Y72092D01*
X124328Y74147D01*
X125900Y75720D01*
X127955Y76571D01*
X130179Y76571D01*
X132234Y75720D01*
X133807Y74147D01*
X134658Y72092D01*
X134658Y69868D01*
X133807Y67813D01*
X132234Y66241D01*
X130179Y65389D01*
X127955Y65389D01*
G37*
%LPD*%
%LPC*%
G36*
X384083Y41283D02*
X384083Y41283D01*
X382029Y42134D01*
X380456Y43707D01*
X379605Y45762D01*
X379605Y47986D01*
X380456Y50041D01*
X382029Y51613D01*
X384083Y52464D01*
X386308Y52464D01*
X388362Y51613D01*
X389935Y50041D01*
X390786Y47986D01*
X390786Y45762D01*
X389935Y43707D01*
X388362Y42134D01*
X386308Y41283D01*
X384083Y41283D01*
G37*
%LPD*%
%LPC*%
G36*
X364690Y265607D02*
X364690Y265607D01*
X362635Y266458D01*
X361062Y268031D01*
X360211Y270086D01*
X360211Y272310D01*
X361062Y274365D01*
X362635Y275937D01*
X364690Y276788D01*
X366914Y276788D01*
X368969Y275937D01*
X370542Y274365D01*
X371393Y272310D01*
X371393Y270086D01*
X370542Y268031D01*
X368969Y266458D01*
X366914Y265607D01*
X364690Y265607D01*
G37*
%LPD*%
%LPC*%
G36*
X50381Y262928D02*
X50381Y262928D01*
X48326Y263780D01*
X46754Y265352D01*
X45902Y267407D01*
X45902Y269631D01*
X46754Y271686D01*
X48326Y273259D01*
X50381Y274110D01*
X52605Y274110D01*
X54660Y273259D01*
X56233Y271686D01*
X57084Y269631D01*
X57084Y267407D01*
X56233Y265352D01*
X54660Y263780D01*
X52605Y262928D01*
X50381Y262928D01*
G37*
%LPD*%
%LPC*%
G36*
X155374Y261589D02*
X155374Y261589D01*
X153319Y262440D01*
X151746Y264013D01*
X150895Y266068D01*
X150895Y268292D01*
X151746Y270347D01*
X153319Y271920D01*
X155374Y272771D01*
X157598Y272771D01*
X159653Y271920D01*
X161225Y270347D01*
X162076Y268292D01*
X162076Y266068D01*
X161225Y264013D01*
X159653Y262440D01*
X157598Y261589D01*
X155374Y261589D01*
G37*
%LPD*%
%LPC*%
G36*
X53725Y27221D02*
X53725Y27221D01*
X51670Y28072D01*
X50097Y29645D01*
X49246Y31699D01*
X49246Y33924D01*
X50097Y35979D01*
X51670Y37551D01*
X53725Y38402D01*
X55949Y38402D01*
X58004Y37551D01*
X59576Y35979D01*
X60428Y33924D01*
X60428Y31699D01*
X59576Y29645D01*
X58004Y28072D01*
X55949Y27221D01*
X53725Y27221D01*
G37*
%LPD*%
D10*
X254205Y17320D02*
X254205Y33480D01*
X228805Y33480D02*
X228805Y17320D01*
X203405Y17320D02*
X203405Y33480D01*
X178005Y33480D02*
X178005Y17320D01*
D11*
X352984Y396771D03*
X369984Y396771D03*
X404378Y397342D03*
X387378Y397342D03*
X284275Y395988D03*
X301275Y395988D03*
X335527Y396879D03*
X318527Y396879D03*
X180246Y396237D03*
X197246Y396237D03*
X230737Y396268D03*
X213737Y396268D03*
X266322Y395647D03*
X249322Y395647D03*
D12*
X130205Y396525D03*
X130205Y348525D03*
D11*
X123171Y320510D03*
X140171Y320510D03*
D12*
X82739Y396849D03*
X82739Y348849D03*
D11*
X86593Y321133D03*
X69593Y321133D03*
D12*
X31957Y397056D03*
X31957Y349056D03*
D11*
X29193Y320663D03*
X46193Y320663D03*
D13*
X366131Y354541D03*
X366131Y375541D03*
X298740Y353594D03*
X298740Y374594D03*
X195305Y352974D03*
X195305Y373974D03*
D14*
X385924Y359332D03*
X385924Y374332D03*
X318028Y354675D03*
X318028Y369675D03*
X215044Y355541D03*
X215044Y370541D03*
X249497Y355240D03*
X249497Y370240D03*
D15*
X374789Y322720D03*
D16*
X374789Y345884D01*
X366131Y354541D01*
D15*
X387164Y346805D03*
D16*
X387164Y358092D01*
X385924Y359332D01*
D15*
X288869Y350851D03*
D16*
X295996Y350851D01*
X298740Y353594D01*
D15*
X317005Y343873D03*
D16*
X318028Y344896D01*
X318028Y354675D01*
D15*
X196502Y340848D03*
D16*
X196502Y351776D01*
X195305Y352974D01*
D15*
X215081Y344057D03*
D16*
X215044Y344094D01*
X215044Y355541D01*
D17*
X369984Y379394D02*
X369984Y396771D01*
X369984Y379394D02*
X366131Y375541D01*
D16*
X385924Y374332D02*
X385924Y395889D01*
X387378Y397342D01*
D17*
X301275Y395988D02*
X301275Y377129D01*
X298740Y374594D01*
D16*
X318028Y369675D02*
X318028Y396380D01*
X318527Y396879D01*
D17*
X197246Y396237D02*
X197246Y375915D01*
X195305Y373974D01*
D16*
X215044Y370541D02*
X215044Y394961D01*
X213737Y396268D01*
D15*
X284135Y263590D03*
X283767Y252266D03*
X294263Y264511D03*
X303602Y263628D03*
X206702Y249503D03*
X86088Y140679D03*
X72093Y139851D03*
X146855Y142153D03*
X133873Y141600D03*
X209725Y144158D03*
X197154Y143204D03*
X70451Y131490D03*
X69320Y122155D03*
X132923Y132535D03*
X131516Y122945D03*
X195069Y134389D03*
X194046Y124799D03*
X287776Y140463D03*
X281741Y132578D03*
X157851Y303751D03*
X158010Y292613D03*
X206066Y265326D03*
D17*
X31957Y397056D02*
X18680Y410333D01*
X18010Y410333D01*
D15*
X18010Y410333D03*
D17*
X31957Y397056D02*
X44791Y409891D01*
X45081Y409891D01*
D15*
X45081Y409891D03*
D17*
X70936Y408653D02*
X82739Y396849D01*
X70936Y408653D02*
X70936Y410443D01*
X69389Y410443D01*
D15*
X69389Y410443D03*
D17*
X82739Y396849D02*
X96002Y410112D01*
D15*
X96128Y410112D03*
D17*
X96002Y410112D01*
X116900Y409830D02*
X130205Y396525D01*
X116900Y409830D02*
X116900Y410001D01*
D15*
X116900Y410001D03*
D17*
X130205Y397782D02*
X130205Y396525D01*
X130205Y397782D02*
X143198Y410775D01*
X143198Y410775D01*
X143087Y410885D01*
D15*
X143087Y410885D03*
X276401Y326288D03*
X260288Y284950D03*
X250068Y267088D03*
X250621Y250240D03*
X240262Y266858D03*
X238835Y250424D03*
X11892Y196150D03*
X13235Y179143D03*
X76941Y196767D03*
X76275Y180873D03*
X86946Y174443D03*
X87377Y162868D03*
X148144Y162960D03*
X149525Y174192D03*
X137096Y182478D03*
X136635Y197393D03*
X103809Y168942D03*
X41893Y167839D03*
X165304Y171513D03*
X211530Y179300D03*
X197336Y181602D03*
X298876Y140847D03*
X317621Y140427D03*
X337822Y140738D03*
X357332Y139667D03*
X160431Y325890D03*
X158310Y314851D03*
X225366Y109149D03*
X385196Y46874D03*
X129067Y70980D03*
X178554Y81694D03*
X54837Y32812D03*
X15381Y141960D03*
X51493Y268519D03*
X112349Y250439D03*
X156486Y267180D03*
X171198Y355570D03*
X273376Y378152D03*
X345740Y326777D03*
X286890Y336151D03*
X365802Y271198D03*
D16*
X249497Y370240D02*
X249497Y395472D01*
X249322Y395647D01*
D15*
X241310Y347634D03*
D16*
X248916Y355240D01*
X249497Y355240D01*
D15*
X267487Y209077D03*
D16*
X282779Y224369D01*
X298498Y224369D01*
D15*
X298498Y224369D03*
X123761Y306133D03*
D16*
X123171Y306723D01*
X123171Y320510D01*
D17*
X123171Y341491D01*
X130205Y348525D01*
D15*
X85945Y306362D03*
D16*
X85945Y320486D01*
X86593Y321133D01*
D17*
X86593Y344996D01*
X82739Y348849D01*
D15*
X28904Y306931D03*
D16*
X28904Y320374D01*
X29193Y320663D01*
D17*
X31957Y323426D02*
X31957Y349056D01*
X31957Y323426D02*
X29193Y320663D01*
D15*
X208995Y71086D03*
D16*
X209620Y70461D01*
X269259Y70461D01*
X269259Y70843D01*
D15*
X269259Y70843D03*
X198934Y62326D03*
D16*
X256919Y62326D01*
X257148Y62097D01*
D15*
X257148Y62097D03*
X188621Y52473D03*
D16*
X246605Y52473D01*
D15*
X246605Y52473D03*
M02*
