G04 EAGLE Gerber RS-274X export*
G75*
%MOMM*%
%FSLAX34Y34*%
%LPD*%
%INSilkscreen Bottom*%
%IPPOS*%
%AMOC8*
5,1,8,0,0,1.08239X$1,22.5*%
G01*
%ADD10R,8.128000X0.020319*%
%ADD11R,8.168638X0.020319*%
%ADD12R,8.148319X0.020319*%
%ADD13R,0.914400X0.020319*%
%ADD14R,0.589281X0.020319*%
%ADD15R,0.426719X0.020319*%
%ADD16R,0.629919X0.020319*%
%ADD17R,0.182875X0.020319*%
%ADD18R,0.853438X0.020319*%
%ADD19R,1.239519X0.020319*%
%ADD20R,0.304800X0.020319*%
%ADD21R,0.792475X0.020319*%
%ADD22R,0.609600X0.020319*%
%ADD23R,0.406400X0.020319*%
%ADD24R,0.650238X0.020319*%
%ADD25R,0.142238X0.020319*%
%ADD26R,0.772156X0.020319*%
%ADD27R,1.016000X0.020319*%
%ADD28R,0.711200X0.020319*%
%ADD29R,0.365762X0.020319*%
%ADD30R,0.121919X0.020319*%
%ADD31R,0.751838X0.020319*%
%ADD32R,0.934719X0.020319*%
%ADD33R,0.325119X0.020319*%
%ADD34R,0.670556X0.020319*%
%ADD35R,0.345438X0.020319*%
%ADD36R,0.101600X0.020319*%
%ADD37R,0.731519X0.020319*%
%ADD38R,0.873756X0.020319*%
%ADD39R,0.690881X0.020319*%
%ADD40R,0.081281X0.020319*%
%ADD41R,0.833119X0.020319*%
%ADD42R,0.589275X0.020319*%
%ADD43R,0.284475X0.020319*%
%ADD44R,0.690875X0.020319*%
%ADD45R,0.792481X0.020319*%
%ADD46R,0.568956X0.020319*%
%ADD47R,0.264156X0.020319*%
%ADD48R,0.040638X0.020319*%
%ADD49R,0.548638X0.020319*%
%ADD50R,0.223519X0.020319*%
%ADD51R,0.020319X0.020319*%
%ADD52R,0.508000X0.020319*%
%ADD53R,0.182881X0.020319*%
%ADD54R,0.365756X0.020319*%
%ADD55R,0.487675X0.020319*%
%ADD56R,0.812800X0.020319*%
%ADD57R,0.162556X0.020319*%
%ADD58R,0.670563X0.020319*%
%ADD59R,0.203200X0.020319*%
%ADD60R,0.467356X0.020319*%
%ADD61R,0.873762X0.020319*%
%ADD62R,0.386075X0.020319*%
%ADD63R,0.447038X0.020319*%
%ADD64R,0.894081X0.020319*%
%ADD65R,0.081275X0.020319*%
%ADD66R,0.386081X0.020319*%
%ADD67R,0.955038X0.020319*%
%ADD68R,0.243838X0.020319*%
%ADD69R,0.284481X0.020319*%
%ADD70R,0.060956X0.020319*%
%ADD71R,0.060963X0.020319*%
%ADD72R,0.528319X0.020319*%
%ADD73R,0.975356X0.020319*%
%ADD74R,0.995681X0.020319*%
%ADD75R,1.056638X0.020319*%
%ADD76R,1.097275X0.020319*%
%ADD77R,1.036319X0.020319*%
%ADD78R,1.158238X0.020319*%
%ADD79R,1.259838X0.020319*%
%ADD80R,1.422400X0.020319*%
%ADD81R,1.442719X0.020319*%
%ADD82R,1.463037X0.020319*%
%ADD83R,0.264163X0.020319*%
%ADD84R,1.483356X0.020319*%
%ADD85R,0.568963X0.020319*%
%ADD86R,1.483363X0.020319*%
%ADD87R,1.686556X0.020319*%
%ADD88R,1.706881X0.020319*%
%ADD89R,1.686563X0.020319*%
%ADD90R,1.117600X0.020319*%
%ADD91R,1.076956X0.020319*%
%ADD92R,0.995675X0.020319*%
%ADD93R,0.975363X0.020319*%
%ADD94R,0.894075X0.020319*%
%ADD95R,0.162562X0.020319*%
%ADD96R,0.772163X0.020319*%
%ADD97R,0.487681X0.020319*%
%ADD98R,0.467363X0.020319*%
%ADD99R,1.198875X0.020319*%
%ADD100R,1.280156X0.020319*%
%ADD101R,1.320800X0.020319*%
%ADD102R,1.341119X0.020319*%
%ADD103R,1.381756X0.020319*%
%ADD104R,1.402081X0.020319*%
%ADD105R,1.564638X0.020319*%
%ADD106R,1.808475X0.020319*%
%ADD107R,1.889756X0.020319*%
%ADD108R,2.011675X0.020319*%
%ADD109R,2.113275X0.020319*%
%ADD110R,2.235200X0.020319*%
%ADD111R,2.316475X0.020319*%
%ADD112R,2.397756X0.020319*%
%ADD113R,2.458719X0.020319*%
%ADD114R,2.540000X0.020319*%
%ADD115R,2.621281X0.020319*%
%ADD116R,2.214875X0.020319*%
%ADD117R,2.133600X0.020319*%
%ADD118R,2.092956X0.020319*%
%ADD119R,2.052319X0.020319*%
%ADD120R,2.072637X0.020319*%
%ADD121R,2.032000X0.020319*%
%ADD122R,2.011681X0.020319*%
%ADD123R,1.991356X0.020319*%
%ADD124R,1.971037X0.020319*%
%ADD125R,1.950719X0.020319*%
%ADD126R,1.869438X0.020319*%
%ADD127R,1.767838X0.020319*%
%ADD128R,1.605275X0.020319*%
%ADD129R,1.503681X0.020319*%
%ADD130R,1.137919X0.020319*%
%ADD131R,1.178556X0.020319*%
%ADD132R,1.300481X0.020319*%
%ADD133R,1.361438X0.020319*%
%ADD134R,1.544319X0.020319*%
%ADD135R,1.584956X0.020319*%
%ADD136R,1.625600X0.020319*%
%ADD137R,1.645919X0.020319*%
%ADD138R,1.747519X0.020319*%
%ADD139R,1.828800X0.020319*%
%ADD140R,2.174238X0.020319*%
%ADD141R,2.296163X0.020319*%
%ADD142R,2.377438X0.020319*%
%ADD143R,2.438400X0.020319*%
%ADD144R,2.519681X0.020319*%
%ADD145R,2.560319X0.020319*%
%ADD146R,2.600956X0.020319*%
%ADD147R,1.849119X0.020319*%
%ADD148R,1.280163X0.020319*%
%ADD149R,1.198881X0.020319*%
%ADD150R,1.076963X0.020319*%
%ADD151R,1.666238X0.020319*%
%ADD152R,1.503675X0.020319*%
%ADD153R,1.219200X0.020319*%
%ADD154R,10.017762X0.020319*%
%ADD155R,10.058400X0.020319*%
%ADD156R,10.099037X0.020319*%
%ADD157R,10.119356X0.020319*%
%ADD158R,10.160000X0.020319*%
%ADD159R,10.180319X0.020319*%
%ADD160R,10.220963X0.020319*%
%ADD161R,10.261600X0.020319*%
%ADD162R,10.302238X0.020319*%
%ADD163R,10.322556X0.020319*%
%ADD164R,10.342881X0.020319*%
%ADD165R,10.383519X0.020319*%
%ADD166R,10.403837X0.020319*%
%ADD167R,11.196319X0.020319*%
%ADD168R,11.216638X0.020319*%
%ADD169R,11.257281X0.020319*%
%ADD170R,11.297919X0.020319*%
%ADD171C,0.152400*%
%ADD172C,0.127000*%
%ADD173C,0.101600*%
%ADD174C,0.076200*%
%ADD175C,0.150000*%
%ADD176C,0.500000*%


D10*
X359562Y117653D03*
D11*
X359562Y117450D03*
D12*
X359461Y117246D03*
X359461Y117043D03*
X359461Y116840D03*
X359461Y116637D03*
X359461Y116434D03*
X359461Y116230D03*
X359461Y116027D03*
X359461Y115824D03*
X359461Y115621D03*
X359461Y115418D03*
D13*
X395630Y115214D03*
D14*
X383438Y115214D03*
D15*
X375310Y115214D03*
D16*
X367182Y115214D03*
D17*
X360680Y115214D03*
D18*
X349199Y115214D03*
D19*
X335686Y115214D03*
D20*
X320243Y115214D03*
D21*
X396240Y115011D03*
D22*
X383337Y115011D03*
D23*
X375209Y115011D03*
D24*
X367284Y115011D03*
D25*
X360680Y115011D03*
D26*
X349606Y115011D03*
D27*
X335585Y115011D03*
D20*
X320243Y115011D03*
D28*
X396646Y114808D03*
D24*
X383337Y114808D03*
D29*
X375209Y114808D03*
D24*
X367284Y114808D03*
D30*
X360782Y114808D03*
D31*
X349910Y114808D03*
D32*
X335585Y114808D03*
D33*
X320345Y114808D03*
D34*
X396850Y114605D03*
D24*
X383337Y114605D03*
D35*
X375107Y114605D03*
D24*
X367284Y114605D03*
D36*
X360883Y114605D03*
D37*
X350215Y114605D03*
D38*
X335483Y114605D03*
D33*
X320345Y114605D03*
D16*
X397053Y114402D03*
D39*
X383337Y114402D03*
D33*
X375006Y114402D03*
D34*
X367386Y114402D03*
D40*
X360985Y114402D03*
D28*
X350520Y114402D03*
D41*
X335483Y114402D03*
D33*
X320345Y114402D03*
D42*
X397256Y114198D03*
D28*
X383235Y114198D03*
D43*
X375006Y114198D03*
D44*
X367284Y114198D03*
D40*
X360985Y114198D03*
D44*
X350622Y114198D03*
D45*
X335483Y114198D03*
D35*
X320446Y114198D03*
D46*
X397358Y113995D03*
D37*
X383134Y113995D03*
D47*
X374904Y113995D03*
D28*
X367386Y113995D03*
D48*
X360985Y113995D03*
D39*
X350825Y113995D03*
D26*
X335382Y113995D03*
D35*
X320446Y113995D03*
D49*
X397459Y113792D03*
D26*
X383134Y113792D03*
D50*
X374904Y113792D03*
D28*
X367386Y113792D03*
D51*
X361086Y113792D03*
D44*
X351028Y113792D03*
D37*
X335382Y113792D03*
D35*
X320446Y113792D03*
D52*
X397662Y113589D03*
D21*
X383032Y113589D03*
D53*
X374701Y113589D03*
D28*
X367386Y113589D03*
D39*
X351231Y113589D03*
D37*
X335382Y113589D03*
D54*
X320548Y113589D03*
D55*
X397764Y113386D03*
D56*
X382930Y113386D03*
D57*
X374599Y113386D03*
D37*
X367487Y113386D03*
D58*
X351333Y113386D03*
D28*
X335483Y113386D03*
D54*
X320548Y113386D03*
D55*
X397764Y113182D03*
D30*
X390652Y113182D03*
D18*
X382930Y113182D03*
D30*
X374599Y113182D03*
D37*
X367487Y113182D03*
D33*
X359562Y113182D03*
D34*
X351536Y113182D03*
D59*
X343510Y113182D03*
D28*
X335483Y113182D03*
D35*
X326949Y113182D03*
D54*
X320548Y113182D03*
D60*
X397866Y112979D03*
D57*
X390855Y112979D03*
D61*
X382829Y112979D03*
D36*
X374498Y112979D03*
D37*
X367487Y112979D03*
D20*
X359664Y112979D03*
D34*
X351739Y112979D03*
D47*
X343611Y112979D03*
D34*
X335483Y112979D03*
D54*
X327050Y112979D03*
D62*
X320650Y112979D03*
D63*
X397967Y112776D03*
D59*
X391058Y112776D03*
D64*
X382727Y112776D03*
D65*
X374396Y112776D03*
D26*
X367487Y112776D03*
D43*
X359766Y112776D03*
D39*
X351841Y112776D03*
D20*
X343611Y112776D03*
D34*
X335483Y112776D03*
D54*
X327254Y112776D03*
D62*
X320650Y112776D03*
D15*
X398069Y112573D03*
D50*
X391363Y112573D03*
D32*
X382727Y112573D03*
D48*
X374396Y112573D03*
D26*
X367487Y112573D03*
D43*
X359766Y112573D03*
D44*
X352044Y112573D03*
D35*
X343611Y112573D03*
D34*
X335483Y112573D03*
D66*
X327355Y112573D03*
D23*
X320751Y112573D03*
X398170Y112370D03*
D47*
X391566Y112370D03*
D67*
X382626Y112370D03*
D26*
X367487Y112370D03*
D68*
X359766Y112370D03*
D44*
X352044Y112370D03*
D66*
X343814Y112370D03*
D34*
X335483Y112370D03*
D29*
X327457Y112370D03*
D23*
X320751Y112370D03*
X398170Y112166D03*
D43*
X391668Y112166D03*
D67*
X382829Y112166D03*
D45*
X367589Y112166D03*
D50*
X359867Y112166D03*
D39*
X352247Y112166D03*
D15*
X343814Y112166D03*
D34*
X335483Y112166D03*
D23*
X320751Y112166D03*
D62*
X398272Y111963D03*
D69*
X391871Y111963D03*
D56*
X383540Y111963D03*
D45*
X367589Y111963D03*
D59*
X359969Y111963D03*
D28*
X352349Y111963D03*
D15*
X343814Y111963D03*
D34*
X335483Y111963D03*
D15*
X320853Y111963D03*
D54*
X398374Y111760D03*
D20*
X391973Y111760D03*
D31*
X383845Y111760D03*
D56*
X367690Y111760D03*
D59*
X359969Y111760D03*
D28*
X352552Y111760D03*
D63*
X343916Y111760D03*
D44*
X335382Y111760D03*
D15*
X320853Y111760D03*
D54*
X398374Y111557D03*
D33*
X392074Y111557D03*
D37*
X384150Y111557D03*
D51*
X374701Y111557D03*
D41*
X367589Y111557D03*
D53*
X360070Y111557D03*
D28*
X352552Y111557D03*
D63*
X343916Y111557D03*
D28*
X335483Y111557D03*
D51*
X325933Y111557D03*
D15*
X320853Y111557D03*
D35*
X398475Y111354D03*
D33*
X392278Y111354D03*
D28*
X384251Y111354D03*
D48*
X374802Y111354D03*
D41*
X367589Y111354D03*
D57*
X360172Y111354D03*
D37*
X352654Y111354D03*
D60*
X344018Y111354D03*
D37*
X335382Y111354D03*
D48*
X326034Y111354D03*
D63*
X320954Y111354D03*
D33*
X398577Y111150D03*
X392278Y111150D03*
D39*
X384353Y111150D03*
D70*
X374904Y111150D03*
D18*
X367690Y111150D03*
D25*
X360274Y111150D03*
D31*
X352755Y111150D03*
D60*
X344018Y111150D03*
D39*
X335585Y111150D03*
D48*
X326238Y111150D03*
D63*
X320954Y111150D03*
D33*
X398577Y110947D03*
X392481Y110947D03*
D44*
X384556Y110947D03*
D70*
X375107Y110947D03*
D18*
X367690Y110947D03*
D30*
X360172Y110947D03*
D31*
X352958Y110947D03*
D63*
X344119Y110947D03*
D34*
X335686Y110947D03*
D40*
X326441Y110947D03*
D63*
X320954Y110947D03*
D20*
X398678Y110744D03*
D35*
X392582Y110744D03*
D34*
X384658Y110744D03*
D40*
X375209Y110744D03*
D18*
X367690Y110744D03*
D36*
X360274Y110744D03*
D26*
X353060Y110744D03*
D63*
X344119Y110744D03*
D34*
X335890Y110744D03*
D36*
X326542Y110744D03*
D60*
X321056Y110744D03*
D20*
X398678Y110541D03*
D35*
X392582Y110541D03*
D24*
X384759Y110541D03*
D36*
X375310Y110541D03*
D38*
X367792Y110541D03*
D40*
X360375Y110541D03*
D26*
X353060Y110541D03*
D15*
X344221Y110541D03*
D34*
X335890Y110541D03*
D36*
X326746Y110541D03*
D60*
X321056Y110541D03*
D20*
X398678Y110338D03*
D33*
X392684Y110338D03*
D58*
X384861Y110338D03*
D35*
X376733Y110338D03*
D38*
X367792Y110338D03*
D71*
X360477Y110338D03*
D21*
X353162Y110338D03*
D15*
X344221Y110338D03*
D24*
X335991Y110338D03*
D54*
X328066Y110338D03*
D55*
X321158Y110338D03*
D43*
X398780Y110134D03*
D35*
X392786Y110134D03*
D58*
X384861Y110134D03*
D54*
X376834Y110134D03*
D64*
X367690Y110134D03*
D71*
X360477Y110134D03*
D56*
X353263Y110134D03*
D23*
X344322Y110134D03*
D24*
X336194Y110134D03*
D54*
X328270Y110134D03*
D55*
X321158Y110134D03*
D43*
X398780Y109931D03*
D35*
X392786Y109931D03*
D39*
X384962Y109931D03*
D54*
X376834Y109931D03*
D13*
X367792Y109931D03*
D48*
X360578Y109931D03*
D41*
X353365Y109931D03*
D62*
X344424Y109931D03*
D24*
X336194Y109931D03*
D54*
X328270Y109931D03*
D55*
X321158Y109931D03*
D43*
X398780Y109728D03*
D33*
X392887Y109728D03*
D39*
X384962Y109728D03*
D54*
X377038Y109728D03*
D13*
X367792Y109728D03*
D18*
X353466Y109728D03*
D33*
X344526Y109728D03*
D34*
X336296Y109728D03*
D54*
X328270Y109728D03*
D52*
X321259Y109728D03*
D43*
X398780Y109525D03*
D20*
X392786Y109525D03*
D39*
X384962Y109525D03*
D54*
X377038Y109525D03*
D32*
X367894Y109525D03*
D18*
X353466Y109525D03*
D43*
X344526Y109525D03*
D44*
X336398Y109525D03*
D35*
X328371Y109525D03*
D52*
X321259Y109525D03*
D47*
X398882Y109322D03*
X392786Y109322D03*
D28*
X385064Y109322D03*
D33*
X377038Y109322D03*
D32*
X367894Y109322D03*
D38*
X353568Y109322D03*
D59*
X344526Y109322D03*
D44*
X336398Y109322D03*
D33*
X328270Y109322D03*
D52*
X321259Y109322D03*
D47*
X398882Y109118D03*
D28*
X385064Y109118D03*
D32*
X367894Y109118D03*
D13*
X353568Y109118D03*
D28*
X336499Y109118D03*
D72*
X321361Y109118D03*
D47*
X398882Y108915D03*
D28*
X385064Y108915D03*
D73*
X367894Y108915D03*
D32*
X353670Y108915D03*
D37*
X336601Y108915D03*
D72*
X321361Y108915D03*
D43*
X398780Y108712D03*
D37*
X385166Y108712D03*
D73*
X367894Y108712D03*
D32*
X353670Y108712D03*
D31*
X336702Y108712D03*
D72*
X321361Y108712D03*
D43*
X398780Y108509D03*
D37*
X385166Y108509D03*
D73*
X367894Y108509D03*
X353670Y108509D03*
D26*
X336804Y108509D03*
D49*
X321462Y108509D03*
D43*
X398780Y108306D03*
D31*
X385064Y108306D03*
D74*
X367995Y108306D03*
D27*
X353670Y108306D03*
D41*
X336906Y108306D03*
D49*
X321462Y108306D03*
D43*
X398780Y108102D03*
D26*
X385166Y108102D03*
D27*
X367894Y108102D03*
D75*
X353670Y108102D03*
D18*
X337007Y108102D03*
D46*
X321564Y108102D03*
D20*
X398678Y107899D03*
D21*
X385064Y107899D03*
D27*
X367894Y107899D03*
D76*
X353670Y107899D03*
D13*
X337109Y107899D03*
D46*
X321564Y107899D03*
D33*
X398577Y107696D03*
D41*
X385064Y107696D03*
D77*
X367995Y107696D03*
D78*
X353568Y107696D03*
D67*
X337312Y107696D03*
D46*
X321564Y107696D03*
D54*
X398374Y107493D03*
D18*
X384962Y107493D03*
D75*
X367894Y107493D03*
D79*
X353263Y107493D03*
D77*
X337312Y107493D03*
D42*
X321666Y107493D03*
D12*
X359461Y107290D03*
X359461Y107086D03*
X359461Y106883D03*
X359461Y106680D03*
X359461Y106477D03*
X359461Y106274D03*
X359461Y106070D03*
X359461Y105867D03*
X359461Y105664D03*
X359461Y105461D03*
X359461Y105258D03*
D11*
X359562Y105054D03*
D12*
X359461Y104851D03*
D10*
X359562Y104648D03*
D80*
X380289Y102210D03*
D49*
X365557Y102210D03*
D59*
X357327Y102210D03*
D72*
X348996Y102210D03*
X338633Y102210D03*
D49*
X327152Y102210D03*
D81*
X380390Y102006D03*
D49*
X365557Y102006D03*
D59*
X357327Y102006D03*
D49*
X349098Y102006D03*
X338734Y102006D03*
X327152Y102006D03*
D82*
X380695Y101803D03*
D49*
X365760Y101803D03*
D50*
X357429Y101803D03*
D49*
X349098Y101803D03*
X338734Y101803D03*
X327152Y101803D03*
D82*
X380898Y101600D03*
D49*
X365760Y101600D03*
D83*
X357429Y101600D03*
D72*
X349199Y101600D03*
X338836Y101600D03*
D49*
X327355Y101600D03*
D84*
X381000Y101397D03*
D72*
X365862Y101397D03*
D69*
X357530Y101397D03*
D49*
X349301Y101397D03*
X338938Y101397D03*
X327355Y101397D03*
D84*
X381203Y101194D03*
D49*
X365963Y101194D03*
D20*
X357632Y101194D03*
D49*
X349301Y101194D03*
X338938Y101194D03*
D85*
X327457Y101194D03*
D84*
X381406Y100990D03*
D49*
X365963Y100990D03*
D33*
X357734Y100990D03*
D72*
X349402Y100990D03*
X339039Y100990D03*
D49*
X327558Y100990D03*
D82*
X381508Y100787D03*
D49*
X366166Y100787D03*
D35*
X357835Y100787D03*
D49*
X349504Y100787D03*
X339141Y100787D03*
X327558Y100787D03*
D82*
X381711Y100584D03*
D49*
X366166Y100584D03*
D66*
X357835Y100584D03*
D49*
X349504Y100584D03*
D72*
X339242Y100584D03*
D46*
X327660Y100584D03*
D86*
X381813Y100381D03*
D49*
X366166Y100381D03*
D23*
X357937Y100381D03*
D49*
X349707Y100381D03*
D72*
X339242Y100381D03*
D49*
X327762Y100381D03*
D84*
X382016Y100178D03*
D49*
X366370Y100178D03*
D15*
X358038Y100178D03*
D49*
X349707Y100178D03*
X339344Y100178D03*
X327762Y100178D03*
D84*
X382219Y99974D03*
D49*
X366370Y99974D03*
D63*
X358140Y99974D03*
D49*
X349707Y99974D03*
D72*
X339446Y99974D03*
D49*
X327965Y99974D03*
D82*
X382321Y99771D03*
D72*
X366471Y99771D03*
D60*
X358242Y99771D03*
D49*
X349910Y99771D03*
X339547Y99771D03*
X327965Y99771D03*
D82*
X382524Y99568D03*
D49*
X366573Y99568D03*
D60*
X358242Y99568D03*
D49*
X349910Y99568D03*
X339547Y99568D03*
X327965Y99568D03*
D82*
X382727Y99365D03*
D49*
X366573Y99365D03*
D52*
X358242Y99365D03*
D72*
X350012Y99365D03*
X339649Y99365D03*
D49*
X328168Y99365D03*
D82*
X382930Y99162D03*
D72*
X366674Y99162D03*
X358343Y99162D03*
D49*
X350114Y99162D03*
X339750Y99162D03*
X328168Y99162D03*
D81*
X383032Y98958D03*
D49*
X366776Y98958D03*
X358445Y98958D03*
X350114Y98958D03*
X339750Y98958D03*
X328168Y98958D03*
D81*
X383235Y98755D03*
D49*
X366776Y98755D03*
D46*
X358546Y98755D03*
D72*
X350215Y98755D03*
X339852Y98755D03*
D49*
X328371Y98755D03*
D81*
X383438Y98552D03*
D49*
X366979Y98552D03*
D42*
X358648Y98552D03*
D49*
X350317Y98552D03*
X339954Y98552D03*
X328371Y98552D03*
D46*
X382524Y98349D03*
D49*
X366979Y98349D03*
D16*
X358648Y98349D03*
D49*
X350317Y98349D03*
D72*
X340055Y98349D03*
D49*
X328574Y98349D03*
X382626Y98146D03*
X366979Y98146D03*
D24*
X358750Y98146D03*
D49*
X350520Y98146D03*
D72*
X340055Y98146D03*
D49*
X328574Y98146D03*
D72*
X382727Y97942D03*
D49*
X367182Y97942D03*
D34*
X358851Y97942D03*
D49*
X350520Y97942D03*
X340157Y97942D03*
D72*
X328676Y97942D03*
D49*
X382829Y97739D03*
X367182Y97739D03*
D39*
X358953Y97739D03*
D49*
X350520Y97739D03*
D72*
X340258Y97739D03*
D49*
X328778Y97739D03*
X382829Y97536D03*
D72*
X367284Y97536D03*
D28*
X359054Y97536D03*
D49*
X350723Y97536D03*
X340360Y97536D03*
X328778Y97536D03*
X383032Y97333D03*
X367386Y97333D03*
D37*
X359156Y97333D03*
D49*
X350723Y97333D03*
X340360Y97333D03*
D72*
X328879Y97333D03*
D49*
X383032Y97130D03*
X367386Y97130D03*
D31*
X359054Y97130D03*
D72*
X350825Y97130D03*
X340462Y97130D03*
D49*
X328981Y97130D03*
X383032Y96926D03*
X367589Y96926D03*
D26*
X359156Y96926D03*
D49*
X350926Y96926D03*
X340563Y96926D03*
X328981Y96926D03*
X383235Y96723D03*
X367589Y96723D03*
D21*
X359258Y96723D03*
D49*
X350926Y96723D03*
D87*
X334874Y96723D03*
D49*
X383235Y96520D03*
X367589Y96520D03*
D56*
X359359Y96520D03*
D72*
X351028Y96520D03*
D87*
X334874Y96520D03*
D72*
X383337Y96317D03*
D49*
X367792Y96317D03*
D41*
X359461Y96317D03*
D49*
X351130Y96317D03*
D88*
X334975Y96317D03*
D49*
X383438Y96114D03*
X367792Y96114D03*
D61*
X359461Y96114D03*
D49*
X351130Y96114D03*
D89*
X335077Y96114D03*
D49*
X383438Y95910D03*
X367792Y95910D03*
D64*
X359562Y95910D03*
D49*
X351333Y95910D03*
D89*
X335077Y95910D03*
D49*
X383642Y95707D03*
X367995Y95707D03*
D13*
X359664Y95707D03*
D49*
X351333Y95707D03*
D87*
X335280Y95707D03*
D49*
X383642Y95504D03*
X367995Y95504D03*
D32*
X359766Y95504D03*
D49*
X351333Y95504D03*
D90*
X338125Y95504D03*
D49*
X329590Y95504D03*
X383642Y95301D03*
D72*
X368097Y95301D03*
D67*
X359867Y95301D03*
D49*
X351536Y95301D03*
D90*
X338328Y95301D03*
D49*
X329590Y95301D03*
X383845Y95098D03*
X368198Y95098D03*
D74*
X359867Y95098D03*
D49*
X351536Y95098D03*
D76*
X338430Y95098D03*
D72*
X329692Y95098D03*
D49*
X383845Y94894D03*
X368198Y94894D03*
D74*
X359867Y94894D03*
D72*
X351638Y94894D03*
D91*
X338531Y94894D03*
D49*
X329794Y94894D03*
X383845Y94691D03*
X368402Y94691D03*
D27*
X359969Y94691D03*
D49*
X351739Y94691D03*
D91*
X338734Y94691D03*
D49*
X329794Y94691D03*
X384048Y94488D03*
X368402Y94488D03*
D52*
X362712Y94488D03*
X357429Y94488D03*
D49*
X351739Y94488D03*
D75*
X338836Y94488D03*
D49*
X329997Y94488D03*
X384048Y94285D03*
X368402Y94285D03*
D52*
X362915Y94285D03*
X357429Y94285D03*
D72*
X351841Y94285D03*
D77*
X338938Y94285D03*
D49*
X329997Y94285D03*
D72*
X384150Y94082D03*
D91*
X365963Y94082D03*
X354584Y94082D03*
D77*
X339141Y94082D03*
D49*
X329997Y94082D03*
X384251Y93878D03*
D75*
X366065Y93878D03*
X354482Y93878D03*
D27*
X339242Y93878D03*
D49*
X330200Y93878D03*
X384251Y93675D03*
D77*
X366166Y93675D03*
X354584Y93675D03*
D92*
X339344Y93675D03*
D49*
X330200Y93675D03*
X384454Y93472D03*
D77*
X366370Y93472D03*
X354584Y93472D03*
D74*
X339547Y93472D03*
D72*
X330302Y93472D03*
D49*
X384454Y93269D03*
D77*
X366370Y93269D03*
X354584Y93269D03*
D93*
X339649Y93269D03*
D49*
X330403Y93269D03*
X384454Y93066D03*
D27*
X366471Y93066D03*
X354686Y93066D03*
D73*
X339852Y93066D03*
D49*
X330403Y93066D03*
X384658Y92862D03*
D27*
X366674Y92862D03*
D92*
X354584Y92862D03*
D49*
X341986Y92862D03*
D72*
X330505Y92862D03*
D49*
X384658Y92659D03*
D92*
X366776Y92659D03*
D73*
X354686Y92659D03*
D72*
X342087Y92659D03*
D49*
X330606Y92659D03*
X384658Y92456D03*
D74*
X366979Y92456D03*
D73*
X354686Y92456D03*
D49*
X342189Y92456D03*
X330606Y92456D03*
X384861Y92253D03*
D93*
X367081Y92253D03*
D73*
X354686Y92253D03*
D49*
X342189Y92253D03*
X330810Y92253D03*
X384861Y92050D03*
D67*
X367182Y92050D03*
X354787Y92050D03*
D72*
X342290Y92050D03*
D49*
X330810Y92050D03*
D72*
X384962Y91846D03*
D67*
X367386Y91846D03*
D32*
X354686Y91846D03*
D49*
X342392Y91846D03*
X330810Y91846D03*
X385064Y91643D03*
D32*
X367487Y91643D03*
X354686Y91643D03*
D72*
X342494Y91643D03*
D49*
X331013Y91643D03*
X385064Y91440D03*
D13*
X367589Y91440D03*
X354787Y91440D03*
D72*
X342494Y91440D03*
D49*
X331013Y91440D03*
X385267Y91237D03*
D13*
X367792Y91237D03*
X354787Y91237D03*
D49*
X342595Y91237D03*
D72*
X331114Y91237D03*
D46*
X385166Y91034D03*
D94*
X367894Y91034D03*
D13*
X354787Y91034D03*
D72*
X342697Y91034D03*
D49*
X331216Y91034D03*
D81*
X384454Y90830D03*
D38*
X367995Y90830D03*
D64*
X354889Y90830D03*
D49*
X342798Y90830D03*
X331216Y90830D03*
D82*
X384759Y90627D03*
D38*
X368198Y90627D03*
X354787Y90627D03*
D49*
X342798Y90627D03*
D72*
X331318Y90627D03*
D82*
X384962Y90424D03*
D38*
X368198Y90424D03*
D18*
X354889Y90424D03*
D72*
X342900Y90424D03*
D49*
X331419Y90424D03*
D84*
X385064Y90221D03*
D18*
X368300Y90221D03*
X354889Y90221D03*
D49*
X343002Y90221D03*
X331419Y90221D03*
D84*
X385267Y90018D03*
D18*
X368503Y90018D03*
X354889Y90018D03*
D49*
X343002Y90018D03*
X331622Y90018D03*
D84*
X385470Y89814D03*
D41*
X368605Y89814D03*
X354990Y89814D03*
D72*
X343103Y89814D03*
D49*
X331622Y89814D03*
D82*
X385572Y89611D03*
D41*
X368808Y89611D03*
D56*
X354889Y89611D03*
D49*
X343205Y89611D03*
X331622Y89611D03*
D82*
X385775Y89408D03*
D56*
X368910Y89408D03*
X354889Y89408D03*
D72*
X343306Y89408D03*
D49*
X331826Y89408D03*
D86*
X385877Y89205D03*
D45*
X369011Y89205D03*
X354990Y89205D03*
D72*
X343306Y89205D03*
D49*
X331826Y89205D03*
D84*
X386080Y89002D03*
D45*
X369214Y89002D03*
X354990Y89002D03*
D49*
X343408Y89002D03*
D72*
X331927Y89002D03*
D84*
X386283Y88798D03*
D26*
X369316Y88798D03*
D45*
X354990Y88798D03*
D72*
X343510Y88798D03*
D49*
X332029Y88798D03*
D84*
X386486Y88595D03*
D31*
X369418Y88595D03*
X354990Y88595D03*
D49*
X343611Y88595D03*
X332029Y88595D03*
D82*
X386588Y88392D03*
D31*
X369621Y88392D03*
X354990Y88392D03*
D49*
X343611Y88392D03*
D72*
X332130Y88392D03*
D82*
X386791Y88189D03*
D37*
X369722Y88189D03*
X355092Y88189D03*
D72*
X343713Y88189D03*
D49*
X332232Y88189D03*
D82*
X386994Y87986D03*
D37*
X369926Y87986D03*
X355092Y87986D03*
D49*
X343814Y87986D03*
X332232Y87986D03*
D82*
X387198Y87782D03*
D37*
X369926Y87782D03*
X355092Y87782D03*
D49*
X343814Y87782D03*
X332435Y87782D03*
D81*
X387299Y87579D03*
D28*
X370027Y87579D03*
D44*
X355092Y87579D03*
D72*
X343916Y87579D03*
D49*
X332435Y87579D03*
D81*
X387502Y87376D03*
D28*
X370230Y87376D03*
D44*
X355092Y87376D03*
D49*
X344018Y87376D03*
X332435Y87376D03*
D80*
X387604Y87173D03*
D44*
X370332Y87173D03*
D34*
X355194Y87173D03*
D72*
X344119Y87173D03*
X332537Y87173D03*
D48*
X358953Y81077D03*
D40*
X358953Y80874D03*
D30*
X358953Y80670D03*
D25*
X359054Y80467D03*
D53*
X359054Y80264D03*
D59*
X358953Y80061D03*
D68*
X358953Y79858D03*
D69*
X358953Y79654D03*
D25*
X359867Y79451D03*
X358038Y79451D03*
X360070Y79248D03*
D30*
X357937Y79248D03*
X360172Y79045D03*
D25*
X357835Y79045D03*
D30*
X360375Y78842D03*
D25*
X357632Y78842D03*
X360477Y78638D03*
X357429Y78638D03*
X360680Y78435D03*
X357226Y78435D03*
X360883Y78232D03*
X357022Y78232D03*
X361086Y78029D03*
X357022Y78029D03*
X361290Y77826D03*
X356819Y77826D03*
D57*
X361391Y77622D03*
D48*
X358953Y77622D03*
D25*
X356616Y77622D03*
X361493Y77419D03*
D40*
X358953Y77419D03*
D25*
X356413Y77419D03*
X361696Y77216D03*
D36*
X359054Y77216D03*
D25*
X356210Y77216D03*
X361899Y77013D03*
X359054Y77013D03*
D57*
X356108Y77013D03*
D25*
X362102Y76810D03*
D95*
X358953Y76810D03*
D25*
X356006Y76810D03*
D57*
X362204Y76606D03*
D59*
X358953Y76606D03*
D25*
X355803Y76606D03*
X362306Y76403D03*
D68*
X358953Y76403D03*
D25*
X355600Y76403D03*
X362509Y76200D03*
D47*
X359054Y76200D03*
D25*
X355397Y76200D03*
X362712Y75997D03*
D20*
X359054Y75997D03*
D57*
X355295Y75997D03*
D25*
X362915Y75794D03*
D29*
X358953Y75794D03*
D25*
X355194Y75794D03*
X363118Y75590D03*
D29*
X358953Y75590D03*
D25*
X354990Y75590D03*
X363322Y75387D03*
D23*
X358953Y75387D03*
D25*
X354787Y75387D03*
D57*
X363423Y75184D03*
D15*
X359054Y75184D03*
D25*
X354584Y75184D03*
X363525Y74981D03*
D60*
X359054Y74981D03*
D25*
X354381Y74981D03*
X363728Y74778D03*
D52*
X359054Y74778D03*
D30*
X354279Y74778D03*
D25*
X363931Y74574D03*
D85*
X358953Y74574D03*
D25*
X354178Y74574D03*
X364134Y74371D03*
D14*
X359054Y74371D03*
D25*
X353974Y74371D03*
X364338Y74168D03*
D22*
X358953Y74168D03*
D25*
X353771Y74168D03*
D57*
X364439Y73965D03*
D24*
X358953Y73965D03*
D25*
X353568Y73965D03*
X364541Y73762D03*
D34*
X359054Y73762D03*
D30*
X353466Y73762D03*
D25*
X364744Y73558D03*
D28*
X359054Y73558D03*
D25*
X353162Y73558D03*
X364947Y73355D03*
D31*
X359054Y73355D03*
D25*
X353162Y73355D03*
X365150Y73152D03*
D96*
X358953Y73152D03*
D25*
X352958Y73152D03*
X365354Y72949D03*
D56*
X358953Y72949D03*
D25*
X352755Y72949D03*
D30*
X365455Y72746D03*
D18*
X358953Y72746D03*
D30*
X352654Y72746D03*
D25*
X365557Y72542D03*
D64*
X358953Y72542D03*
D25*
X352349Y72542D03*
X365760Y72339D03*
D13*
X359054Y72339D03*
D25*
X352349Y72339D03*
X365963Y72136D03*
D67*
X359054Y72136D03*
D25*
X352146Y72136D03*
X366166Y71933D03*
D74*
X359054Y71933D03*
D25*
X351942Y71933D03*
X366370Y71730D03*
D97*
X361594Y71730D03*
D52*
X356413Y71730D03*
D25*
X351739Y71730D03*
D57*
X366471Y71526D03*
D55*
X361798Y71526D03*
D52*
X356210Y71526D03*
D57*
X351638Y71526D03*
X366674Y71323D03*
D97*
X362001Y71323D03*
D55*
X356108Y71323D03*
D25*
X351536Y71323D03*
X366776Y71120D03*
D55*
X362204Y71120D03*
D97*
X355905Y71120D03*
D25*
X351333Y71120D03*
X366979Y70917D03*
D97*
X362407Y70917D03*
D55*
X355702Y70917D03*
D25*
X351130Y70917D03*
X367182Y70714D03*
D97*
X362610Y70714D03*
D52*
X355600Y70714D03*
D25*
X350926Y70714D03*
D57*
X367284Y70510D03*
D97*
X362610Y70510D03*
X355295Y70510D03*
D95*
X350825Y70510D03*
D57*
X367487Y70307D03*
D55*
X362814Y70307D03*
D52*
X355194Y70307D03*
D25*
X350723Y70307D03*
X367589Y70104D03*
D97*
X363017Y70104D03*
D55*
X355092Y70104D03*
D25*
X350520Y70104D03*
X367792Y69901D03*
D55*
X363220Y69901D03*
D97*
X354889Y69901D03*
D25*
X350317Y69901D03*
X367995Y69698D03*
D97*
X363423Y69698D03*
D55*
X354686Y69698D03*
D25*
X350114Y69698D03*
X368198Y69494D03*
D98*
X363525Y69494D03*
D97*
X354482Y69494D03*
D57*
X350012Y69494D03*
X368300Y69291D03*
D60*
X363728Y69291D03*
D52*
X354381Y69291D03*
D95*
X349809Y69291D03*
D25*
X368402Y69088D03*
D55*
X363830Y69088D03*
D97*
X354279Y69088D03*
D57*
X349606Y69088D03*
D25*
X368605Y68885D03*
D97*
X364033Y68885D03*
D55*
X354076Y68885D03*
D25*
X349504Y68885D03*
X368808Y68682D03*
D55*
X364236Y68682D03*
D97*
X353873Y68682D03*
D25*
X349301Y68682D03*
X369011Y68478D03*
D97*
X364439Y68478D03*
D55*
X353670Y68478D03*
D25*
X349098Y68478D03*
X369214Y68275D03*
D97*
X364642Y68275D03*
D52*
X353568Y68275D03*
D25*
X348894Y68275D03*
X369418Y68072D03*
D97*
X364642Y68072D03*
D52*
X353365Y68072D03*
D95*
X348793Y68072D03*
D30*
X369519Y67869D03*
D55*
X364846Y67869D03*
D52*
X353162Y67869D03*
D57*
X348590Y67869D03*
X369722Y67666D03*
D97*
X365049Y67666D03*
D55*
X353060Y67666D03*
D25*
X348488Y67666D03*
X369824Y67462D03*
D55*
X365252Y67462D03*
D97*
X352857Y67462D03*
D25*
X348285Y67462D03*
X370027Y67259D03*
D97*
X365455Y67259D03*
D52*
X352755Y67259D03*
D25*
X348082Y67259D03*
X370230Y67056D03*
D97*
X365658Y67056D03*
D52*
X352552Y67056D03*
D25*
X347878Y67056D03*
X370434Y66853D03*
D97*
X365658Y66853D03*
D52*
X352349Y66853D03*
D95*
X347777Y66853D03*
D57*
X370535Y66650D03*
D55*
X365862Y66650D03*
D97*
X352247Y66650D03*
D25*
X347675Y66650D03*
X370637Y66446D03*
D97*
X366065Y66446D03*
D55*
X352044Y66446D03*
D25*
X347472Y66446D03*
X370840Y66243D03*
D55*
X366268Y66243D03*
D97*
X351841Y66243D03*
D25*
X347269Y66243D03*
X371043Y66040D03*
D97*
X366471Y66040D03*
D55*
X351638Y66040D03*
D25*
X347066Y66040D03*
X371246Y65837D03*
D52*
X366573Y65837D03*
X351536Y65837D03*
D57*
X346964Y65837D03*
D25*
X371450Y65634D03*
D55*
X366878Y65634D03*
D97*
X351434Y65634D03*
D25*
X346862Y65634D03*
X371653Y65430D03*
D55*
X366878Y65430D03*
D97*
X351231Y65430D03*
D25*
X346659Y65430D03*
D30*
X371754Y65227D03*
D97*
X367081Y65227D03*
D55*
X351028Y65227D03*
D25*
X346456Y65227D03*
D57*
X371958Y65024D03*
D55*
X367284Y65024D03*
D97*
X350825Y65024D03*
D25*
X346253Y65024D03*
X372059Y64821D03*
D97*
X367487Y64821D03*
D52*
X350723Y64821D03*
D25*
X346050Y64821D03*
X372262Y64618D03*
D97*
X367690Y64618D03*
D55*
X350622Y64618D03*
D30*
X345948Y64618D03*
D25*
X372466Y64414D03*
D55*
X367894Y64414D03*
D97*
X350418Y64414D03*
D95*
X345745Y64414D03*
D30*
X372567Y64211D03*
D55*
X367894Y64211D03*
D97*
X350215Y64211D03*
D25*
X345643Y64211D03*
X372872Y64008D03*
D97*
X368097Y64008D03*
D55*
X350012Y64008D03*
D25*
X345440Y64008D03*
X372872Y63805D03*
D55*
X368300Y63805D03*
D97*
X349809Y63805D03*
D25*
X345237Y63805D03*
X373075Y63602D03*
D97*
X368503Y63602D03*
D52*
X349707Y63602D03*
D30*
X345135Y63602D03*
D25*
X373278Y63398D03*
D97*
X368706Y63398D03*
D52*
X349504Y63398D03*
D57*
X344932Y63398D03*
D25*
X373482Y63195D03*
D97*
X368706Y63195D03*
X349402Y63195D03*
D25*
X344830Y63195D03*
X373685Y62992D03*
D60*
X369011Y62992D03*
D97*
X349199Y62992D03*
D25*
X344627Y62992D03*
D57*
X373786Y62789D03*
D97*
X369113Y62789D03*
D55*
X348996Y62789D03*
D25*
X344424Y62789D03*
X373888Y62586D03*
D55*
X369316Y62586D03*
D52*
X348894Y62586D03*
D25*
X344221Y62586D03*
X374091Y62382D03*
D97*
X369519Y62382D03*
D47*
X359664Y62382D03*
D52*
X348691Y62382D03*
D57*
X344119Y62382D03*
D25*
X374294Y62179D03*
D98*
X369621Y62179D03*
D60*
X359664Y62179D03*
D55*
X348590Y62179D03*
D25*
X344018Y62179D03*
X374498Y61976D03*
D60*
X369824Y61976D03*
D42*
X359664Y61976D03*
D97*
X348386Y61976D03*
D25*
X343814Y61976D03*
X374701Y61773D03*
D55*
X369926Y61773D03*
D39*
X359562Y61773D03*
D97*
X348183Y61773D03*
D25*
X343611Y61773D03*
D30*
X374802Y61570D03*
D97*
X370129Y61570D03*
D26*
X359562Y61570D03*
D52*
X348082Y61570D03*
D25*
X343408Y61570D03*
X374904Y61366D03*
D55*
X370332Y61366D03*
D41*
X359664Y61366D03*
D52*
X347878Y61366D03*
D25*
X343205Y61366D03*
X375107Y61163D03*
D97*
X370535Y61163D03*
D13*
X359664Y61163D03*
D52*
X347675Y61163D03*
D30*
X343103Y61163D03*
D25*
X375310Y60960D03*
D97*
X370738Y60960D03*
D73*
X359562Y60960D03*
D55*
X347574Y60960D03*
D25*
X343002Y60960D03*
X375514Y60757D03*
D55*
X370942Y60757D03*
D77*
X359664Y60757D03*
D97*
X347370Y60757D03*
D25*
X342798Y60757D03*
X375717Y60554D03*
D55*
X370942Y60554D03*
D91*
X359664Y60554D03*
D97*
X347167Y60554D03*
D25*
X342595Y60554D03*
D57*
X375818Y60350D03*
D97*
X371145Y60350D03*
D90*
X359664Y60350D03*
D55*
X346964Y60350D03*
D25*
X342392Y60350D03*
X375920Y60147D03*
D55*
X371348Y60147D03*
D78*
X359664Y60147D03*
D52*
X346862Y60147D03*
D30*
X342290Y60147D03*
D25*
X376123Y59944D03*
D97*
X371551Y59944D03*
D99*
X359664Y59944D03*
D97*
X346761Y59944D03*
D25*
X342189Y59944D03*
X376326Y59741D03*
D97*
X371754Y59741D03*
D19*
X359664Y59741D03*
D55*
X346558Y59741D03*
D57*
X341884Y59741D03*
D25*
X376530Y59538D03*
D52*
X371856Y59538D03*
D100*
X359664Y59538D03*
D97*
X346354Y59538D03*
D25*
X341782Y59538D03*
X376733Y59334D03*
D55*
X371958Y59334D03*
D101*
X359664Y59334D03*
D97*
X346151Y59334D03*
D25*
X341579Y59334D03*
D57*
X376834Y59131D03*
D97*
X372161Y59131D03*
D102*
X359562Y59131D03*
D52*
X346050Y59131D03*
D25*
X341376Y59131D03*
X376936Y58928D03*
D55*
X372364Y58928D03*
D103*
X359562Y58928D03*
D55*
X345948Y58928D03*
D57*
X341274Y58928D03*
D25*
X377139Y58725D03*
D97*
X372567Y58725D03*
D24*
X363423Y58725D03*
D16*
X355803Y58725D03*
D97*
X345745Y58725D03*
D25*
X341173Y58725D03*
X377342Y58522D03*
D97*
X372770Y58522D03*
D14*
X363931Y58522D03*
D46*
X355295Y58522D03*
D55*
X345542Y58522D03*
D25*
X340970Y58522D03*
X377546Y58318D03*
D55*
X372974Y58318D03*
D49*
X364134Y58318D03*
X354990Y58318D03*
D97*
X345338Y58318D03*
D25*
X340766Y58318D03*
X377749Y58115D03*
D97*
X373177Y58115D03*
D49*
X364338Y58115D03*
D72*
X354889Y58115D03*
D52*
X345237Y58115D03*
D25*
X340563Y58115D03*
X377952Y57912D03*
D97*
X373177Y57912D03*
D72*
X364439Y57912D03*
X354686Y57912D03*
D52*
X345034Y57912D03*
D57*
X340462Y57912D03*
X378054Y57709D03*
D55*
X373380Y57709D03*
D72*
X364642Y57709D03*
D52*
X354584Y57709D03*
D55*
X344932Y57709D03*
D25*
X340360Y57709D03*
D95*
X378257Y57506D03*
D97*
X373583Y57506D03*
D52*
X364744Y57506D03*
X354381Y57506D03*
D97*
X344729Y57506D03*
D25*
X340157Y57506D03*
X378358Y57302D03*
D97*
X373786Y57302D03*
D52*
X364947Y57302D03*
X354381Y57302D03*
D55*
X344526Y57302D03*
D25*
X339954Y57302D03*
D51*
X387909Y57099D03*
D36*
X378358Y57099D03*
D55*
X373990Y57099D03*
D52*
X364947Y57099D03*
X354178Y57099D03*
X344424Y57099D03*
D25*
X339750Y57099D03*
D22*
X387604Y56896D03*
D52*
X374091Y56896D03*
X365150Y56896D03*
D55*
X354076Y56896D03*
D52*
X344221Y56896D03*
D25*
X339547Y56896D03*
D38*
X387096Y56693D03*
D60*
X374091Y56693D03*
D52*
X365150Y56693D03*
X353974Y56693D03*
D97*
X344119Y56693D03*
D57*
X339446Y56693D03*
D75*
X386588Y56490D03*
D33*
X373583Y56490D03*
D55*
X365252Y56490D03*
D97*
X353873Y56490D03*
D55*
X343916Y56490D03*
D25*
X339344Y56490D03*
D19*
X385877Y56286D03*
D53*
X373075Y56286D03*
D52*
X365354Y56286D03*
D97*
X353873Y56286D03*
X343713Y56286D03*
D25*
X339141Y56286D03*
D104*
X385470Y56083D03*
D71*
X372669Y56083D03*
D97*
X365455Y56083D03*
D52*
X353771Y56083D03*
D55*
X343510Y56083D03*
D25*
X338938Y56083D03*
D105*
X384861Y55880D03*
D97*
X365455Y55880D03*
D55*
X353670Y55880D03*
D97*
X343306Y55880D03*
D25*
X338734Y55880D03*
D87*
X384251Y55677D03*
D52*
X365557Y55677D03*
D55*
X353670Y55677D03*
D52*
X343205Y55677D03*
D25*
X338531Y55677D03*
D106*
X383642Y55474D03*
D97*
X365658Y55474D03*
D52*
X353568Y55474D03*
X343002Y55474D03*
D25*
X338328Y55474D03*
D107*
X383235Y55270D03*
D97*
X365658Y55270D03*
X353466Y55270D03*
D55*
X342900Y55270D03*
D25*
X338328Y55270D03*
D108*
X382626Y55067D03*
D98*
X365557Y55067D03*
D97*
X353466Y55067D03*
X342697Y55067D03*
D25*
X338125Y55067D03*
D109*
X382118Y54864D03*
D29*
X365049Y54864D03*
D97*
X353466Y54864D03*
D55*
X342494Y54864D03*
D25*
X337922Y54864D03*
D110*
X381508Y54661D03*
D69*
X364642Y54661D03*
D52*
X353365Y54661D03*
X342392Y54661D03*
D25*
X337718Y54661D03*
D111*
X381102Y54458D03*
D57*
X364236Y54458D03*
D52*
X353365Y54458D03*
X342189Y54458D03*
D25*
X337515Y54458D03*
D112*
X380492Y54254D03*
D70*
X363728Y54254D03*
D97*
X353263Y54254D03*
X342087Y54254D03*
D25*
X337515Y54254D03*
D113*
X379984Y54051D03*
D97*
X353263Y54051D03*
D55*
X341884Y54051D03*
D25*
X337312Y54051D03*
D114*
X379374Y53848D03*
D97*
X353263Y53848D03*
X341681Y53848D03*
D25*
X337109Y53848D03*
D115*
X378765Y53645D03*
D97*
X353263Y53645D03*
D52*
X341579Y53645D03*
D25*
X336906Y53645D03*
D60*
X389534Y53442D03*
D116*
X375920Y53442D03*
D52*
X353162Y53442D03*
D97*
X341274Y53442D03*
D57*
X336804Y53442D03*
D33*
X390042Y53238D03*
D117*
X374498Y53238D03*
D52*
X353162Y53238D03*
D60*
X340970Y53238D03*
D25*
X336702Y53238D03*
D20*
X389941Y53035D03*
D118*
X373278Y53035D03*
D52*
X353162Y53035D03*
D15*
X340766Y53035D03*
D25*
X336499Y53035D03*
D20*
X389738Y52832D03*
D119*
X372262Y52832D03*
D52*
X353162Y52832D03*
D62*
X340360Y52832D03*
D25*
X336296Y52832D03*
D33*
X389433Y52629D03*
D120*
X371348Y52629D03*
D55*
X353060Y52629D03*
D54*
X340055Y52629D03*
D25*
X336093Y52629D03*
D33*
X389230Y52426D03*
D121*
X370332Y52426D03*
D55*
X353060Y52426D03*
D48*
X344119Y52426D03*
D33*
X339649Y52426D03*
D57*
X335991Y52426D03*
D35*
X388925Y52222D03*
D121*
X369316Y52222D03*
D55*
X353060Y52222D03*
D36*
X344018Y52222D03*
D20*
X339344Y52222D03*
D57*
X335788Y52222D03*
D54*
X388620Y52019D03*
D108*
X368402Y52019D03*
D62*
X352552Y52019D03*
D25*
X343814Y52019D03*
D68*
X339039Y52019D03*
D25*
X335686Y52019D03*
D54*
X388214Y51816D03*
D25*
X383032Y51816D03*
D122*
X367589Y51816D03*
D20*
X352146Y51816D03*
D59*
X343510Y51816D03*
X338633Y51816D03*
D25*
X335483Y51816D03*
D54*
X388010Y51613D03*
D25*
X383032Y51613D03*
D123*
X366674Y51613D03*
D68*
X351638Y51613D03*
X343306Y51613D03*
D17*
X338328Y51613D03*
D25*
X335280Y51613D03*
D23*
X387604Y51410D03*
D95*
X383337Y51410D03*
D40*
X380695Y51410D03*
D124*
X365760Y51410D03*
D25*
X351130Y51410D03*
D20*
X343002Y51410D03*
D57*
X338023Y51410D03*
X335178Y51410D03*
D66*
X387502Y51206D03*
D25*
X383438Y51206D03*
D59*
X380289Y51206D03*
D123*
X364846Y51206D03*
D40*
X350825Y51206D03*
D29*
X342697Y51206D03*
D30*
X337617Y51206D03*
D57*
X334975Y51206D03*
D35*
X387299Y51003D03*
D25*
X383642Y51003D03*
D33*
X379882Y51003D03*
D124*
X363931Y51003D03*
D23*
X342494Y51003D03*
D36*
X337515Y51003D03*
D25*
X334874Y51003D03*
D20*
X387299Y50800D03*
D25*
X383845Y50800D03*
D15*
X379578Y50800D03*
D124*
X363118Y50800D03*
D98*
X342189Y50800D03*
D36*
X337312Y50800D03*
D25*
X334670Y50800D03*
D47*
X387299Y50597D03*
D25*
X384048Y50597D03*
D60*
X379374Y50597D03*
D125*
X362204Y50597D03*
D52*
X341986Y50597D03*
D36*
X337109Y50597D03*
D25*
X334467Y50597D03*
D68*
X387198Y50394D03*
D25*
X384251Y50394D03*
D55*
X379476Y50394D03*
D124*
X361493Y50394D03*
D85*
X341681Y50394D03*
D30*
X337007Y50394D03*
D25*
X334264Y50394D03*
D17*
X387096Y50190D03*
D95*
X384353Y50190D03*
D97*
X379679Y50190D03*
D124*
X360477Y50190D03*
D22*
X341681Y50190D03*
D25*
X336906Y50190D03*
X334061Y50190D03*
X387096Y49987D03*
X384454Y49987D03*
D97*
X379882Y49987D03*
D124*
X359664Y49987D03*
D16*
X341579Y49987D03*
D30*
X336804Y49987D03*
D57*
X333959Y49987D03*
D40*
X386994Y49784D03*
D25*
X384658Y49784D03*
D55*
X380086Y49784D03*
D124*
X358851Y49784D03*
D16*
X341579Y49784D03*
D25*
X336702Y49784D03*
D57*
X333756Y49784D03*
D48*
X386994Y49581D03*
D25*
X384861Y49581D03*
D97*
X380289Y49581D03*
D125*
X357937Y49581D03*
D16*
X341579Y49581D03*
D95*
X336601Y49581D03*
D25*
X333654Y49581D03*
X385064Y49378D03*
D52*
X380390Y49378D03*
D124*
X357226Y49378D03*
D24*
X341478Y49378D03*
D57*
X336398Y49378D03*
D25*
X333451Y49378D03*
D57*
X385166Y49174D03*
D52*
X380594Y49174D03*
D126*
X356718Y49174D03*
D70*
X345846Y49174D03*
D24*
X341478Y49174D03*
D17*
X336296Y49174D03*
D25*
X333248Y49174D03*
D95*
X385369Y48971D03*
D97*
X380695Y48971D03*
D127*
X356413Y48971D03*
D25*
X345643Y48971D03*
D24*
X341478Y48971D03*
D53*
X336093Y48971D03*
D25*
X333045Y48971D03*
X385470Y48768D03*
D97*
X380898Y48768D03*
D87*
X356006Y48768D03*
D41*
X342189Y48768D03*
D59*
X335991Y48768D03*
D57*
X332943Y48768D03*
D25*
X385674Y48565D03*
D55*
X381102Y48565D03*
D36*
X368198Y48565D03*
D128*
X355600Y48565D03*
D18*
X342290Y48565D03*
D50*
X335890Y48565D03*
D25*
X332842Y48565D03*
X385877Y48362D03*
D97*
X381305Y48362D03*
D57*
X367894Y48362D03*
D129*
X355295Y48362D03*
D61*
X342189Y48362D03*
D59*
X335788Y48362D03*
D25*
X332638Y48362D03*
X386080Y48158D03*
D55*
X381508Y48158D03*
D47*
X367386Y48158D03*
D80*
X354889Y48158D03*
D61*
X342189Y48158D03*
D50*
X335686Y48158D03*
D25*
X332435Y48158D03*
D57*
X386182Y47955D03*
D55*
X381508Y47955D03*
D35*
X366979Y47955D03*
D101*
X354584Y47955D03*
D64*
X342290Y47955D03*
D68*
X335585Y47955D03*
D25*
X332232Y47955D03*
X386283Y47752D03*
D97*
X381711Y47752D03*
D15*
X366573Y47752D03*
D19*
X354178Y47752D03*
D13*
X342189Y47752D03*
D68*
X335382Y47752D03*
D57*
X332130Y47752D03*
X386588Y47549D03*
D97*
X381914Y47549D03*
D55*
X366268Y47549D03*
D130*
X353873Y47549D03*
D32*
X342290Y47549D03*
D59*
X335178Y47549D03*
D25*
X332029Y47549D03*
X386690Y47346D03*
D55*
X382118Y47346D03*
D52*
X366166Y47346D03*
D75*
X353466Y47346D03*
D32*
X342290Y47346D03*
D57*
X334772Y47346D03*
D25*
X331826Y47346D03*
X386893Y47142D03*
D97*
X382321Y47142D03*
D52*
X366166Y47142D03*
D73*
X353060Y47142D03*
X342290Y47142D03*
D25*
X334467Y47142D03*
X331622Y47142D03*
X387096Y46939D03*
D55*
X382524Y46939D03*
D52*
X366166Y46939D03*
D38*
X352755Y46939D03*
D74*
X342189Y46939D03*
D36*
X334061Y46939D03*
D25*
X331419Y46939D03*
X387299Y46736D03*
D52*
X382626Y46736D03*
X366166Y46736D03*
D56*
X352450Y46736D03*
D75*
X341884Y46736D03*
D65*
X333756Y46736D03*
D57*
X331318Y46736D03*
D95*
X387401Y46533D03*
D52*
X382829Y46533D03*
X366166Y46533D03*
D44*
X352044Y46533D03*
D90*
X341782Y46533D03*
D51*
X333451Y46533D03*
D25*
X331216Y46533D03*
X387502Y46330D03*
D97*
X382930Y46330D03*
X366065Y46330D03*
D22*
X351638Y46330D03*
D131*
X341478Y46330D03*
D57*
X330911Y46330D03*
D25*
X387706Y46126D03*
D55*
X383134Y46126D03*
D97*
X366065Y46126D03*
D72*
X351434Y46126D03*
D19*
X341376Y46126D03*
D25*
X330810Y46126D03*
X387909Y45923D03*
D97*
X383337Y45923D03*
X366065Y45923D03*
D63*
X351028Y45923D03*
D132*
X341071Y45923D03*
D25*
X330606Y45923D03*
X388112Y45720D03*
D52*
X383438Y45720D03*
D97*
X366065Y45720D03*
D66*
X350723Y45720D03*
D133*
X340766Y45720D03*
D25*
X330403Y45720D03*
X388315Y45517D03*
D52*
X383642Y45517D03*
D97*
X366065Y45517D03*
D69*
X350418Y45517D03*
D80*
X340665Y45517D03*
D25*
X330200Y45517D03*
D95*
X388417Y45314D03*
D52*
X383845Y45314D03*
D97*
X366065Y45314D03*
D40*
X355295Y45314D03*
D59*
X350012Y45314D03*
D84*
X340360Y45314D03*
D57*
X330098Y45314D03*
D25*
X388518Y45110D03*
D97*
X383946Y45110D03*
X366065Y45110D03*
D95*
X354889Y45110D03*
D65*
X349606Y45110D03*
D134*
X340258Y45110D03*
D57*
X329895Y45110D03*
D25*
X388722Y44907D03*
D55*
X384150Y44907D03*
D52*
X365963Y44907D03*
D68*
X354482Y44907D03*
D135*
X340055Y44907D03*
D25*
X329794Y44907D03*
X388925Y44704D03*
D97*
X384353Y44704D03*
D52*
X365963Y44704D03*
D33*
X354076Y44704D03*
D136*
X340055Y44704D03*
D25*
X329590Y44704D03*
X389128Y44501D03*
D55*
X384556Y44501D03*
X365862Y44501D03*
D66*
X353771Y44501D03*
D136*
X340055Y44501D03*
D25*
X329387Y44501D03*
D57*
X389230Y44298D03*
D97*
X384759Y44298D03*
D55*
X365862Y44298D03*
D97*
X353263Y44298D03*
D137*
X339954Y44298D03*
D25*
X329184Y44298D03*
X389331Y44094D03*
D52*
X384861Y44094D03*
D55*
X365862Y44094D03*
D97*
X353263Y44094D03*
D137*
X339954Y44094D03*
D30*
X329082Y44094D03*
D57*
X389636Y43891D03*
D97*
X384962Y43891D03*
D55*
X365862Y43891D03*
D52*
X353365Y43891D03*
D136*
X339649Y43891D03*
D65*
X328676Y43891D03*
D25*
X389738Y43688D03*
D55*
X385166Y43688D03*
X365862Y43688D03*
D52*
X353365Y43688D03*
D128*
X339344Y43688D03*
D70*
X328371Y43688D03*
D25*
X389941Y43485D03*
D97*
X385369Y43485D03*
X365658Y43485D03*
X353466Y43485D03*
D128*
X338938Y43485D03*
D25*
X390144Y43282D03*
D55*
X385572Y43282D03*
D97*
X365658Y43282D03*
X353466Y43282D03*
D87*
X338734Y43282D03*
D25*
X390347Y43078D03*
D52*
X385674Y43078D03*
D97*
X365658Y43078D03*
X353466Y43078D03*
D138*
X338633Y43078D03*
D25*
X390550Y42875D03*
D52*
X385877Y42875D03*
D97*
X365658Y42875D03*
D52*
X353568Y42875D03*
D139*
X338430Y42875D03*
D25*
X390550Y42672D03*
D52*
X386080Y42672D03*
D97*
X365455Y42672D03*
D52*
X353568Y42672D03*
D126*
X338226Y42672D03*
D25*
X390754Y42469D03*
D55*
X386182Y42469D03*
D97*
X365455Y42469D03*
D55*
X353670Y42469D03*
D125*
X338023Y42469D03*
D25*
X390957Y42266D03*
D97*
X386385Y42266D03*
X365455Y42266D03*
D55*
X353670Y42266D03*
D108*
X337922Y42266D03*
D25*
X391160Y42062D03*
D52*
X386486Y42062D03*
D55*
X365252Y42062D03*
D52*
X353771Y42062D03*
D118*
X337718Y42062D03*
D25*
X391363Y41859D03*
D52*
X386690Y41859D03*
D55*
X365252Y41859D03*
D97*
X353873Y41859D03*
D140*
X337515Y41859D03*
D95*
X391465Y41656D03*
D52*
X386893Y41656D03*
D55*
X365252Y41656D03*
D52*
X353974Y41656D03*
D110*
X337414Y41656D03*
D25*
X391566Y41453D03*
D97*
X386994Y41453D03*
X365049Y41453D03*
D52*
X353974Y41453D03*
D141*
X337109Y41453D03*
D25*
X391770Y41250D03*
D55*
X387198Y41250D03*
D97*
X365049Y41250D03*
D55*
X354076Y41250D03*
D142*
X336906Y41250D03*
D25*
X391973Y41046D03*
D97*
X387401Y41046D03*
D55*
X364846Y41046D03*
D52*
X354178Y41046D03*
D143*
X336804Y41046D03*
D25*
X392176Y40843D03*
D97*
X387401Y40843D03*
D52*
X364744Y40843D03*
D72*
X354279Y40843D03*
D144*
X336601Y40843D03*
D57*
X392278Y40640D03*
D52*
X387706Y40640D03*
D97*
X364642Y40640D03*
D52*
X354381Y40640D03*
D145*
X336398Y40640D03*
D95*
X392481Y40437D03*
D97*
X387807Y40437D03*
D52*
X364541Y40437D03*
D72*
X354482Y40437D03*
D146*
X335991Y40437D03*
D57*
X392684Y40234D03*
D97*
X388010Y40234D03*
D52*
X364338Y40234D03*
D72*
X354686Y40234D03*
D146*
X335382Y40234D03*
D57*
X392887Y40030D03*
D55*
X388214Y40030D03*
D49*
X364134Y40030D03*
D85*
X354889Y40030D03*
D146*
X334772Y40030D03*
D25*
X392989Y39827D03*
D97*
X388417Y39827D03*
D49*
X363931Y39827D03*
D46*
X355092Y39827D03*
D44*
X343916Y39827D03*
D147*
X330606Y39827D03*
D25*
X393192Y39624D03*
D55*
X388620Y39624D03*
D22*
X363626Y39624D03*
D16*
X355397Y39624D03*
D46*
X343916Y39624D03*
D147*
X329997Y39624D03*
D25*
X393395Y39421D03*
D52*
X388722Y39421D03*
D104*
X359461Y39421D03*
D52*
X343814Y39421D03*
D147*
X329590Y39421D03*
D95*
X393497Y39218D03*
D52*
X388925Y39218D03*
D133*
X359461Y39218D03*
D66*
X343814Y39218D03*
D147*
X328981Y39218D03*
D57*
X393700Y39014D03*
D52*
X389128Y39014D03*
D101*
X359461Y39014D03*
D20*
X343814Y39014D03*
D126*
X328473Y39014D03*
D25*
X393802Y38811D03*
D55*
X389230Y38811D03*
D101*
X359461Y38811D03*
D59*
X343713Y38811D03*
D147*
X327965Y38811D03*
D25*
X394005Y38608D03*
D97*
X389433Y38608D03*
D148*
X359461Y38608D03*
D36*
X343611Y38608D03*
D126*
X327457Y38608D03*
D25*
X394208Y38405D03*
D55*
X389636Y38405D03*
D19*
X359461Y38405D03*
D51*
X343611Y38405D03*
D147*
X326949Y38405D03*
D25*
X394411Y38202D03*
D52*
X389738Y38202D03*
D149*
X359461Y38202D03*
D147*
X326339Y38202D03*
D95*
X394513Y37998D03*
D52*
X389941Y37998D03*
D78*
X359461Y37998D03*
D65*
X334772Y37998D03*
D89*
X324917Y37998D03*
D25*
X394614Y37795D03*
D97*
X390042Y37795D03*
D90*
X359461Y37795D03*
D87*
X324510Y37795D03*
D25*
X394818Y37592D03*
D55*
X390246Y37592D03*
D150*
X359461Y37592D03*
D89*
X323901Y37592D03*
D25*
X395021Y37389D03*
D97*
X390449Y37389D03*
D27*
X359359Y37389D03*
D87*
X323494Y37389D03*
D25*
X395224Y37186D03*
D52*
X390550Y37186D03*
D67*
X359461Y37186D03*
D89*
X322885Y37186D03*
D57*
X395326Y36982D03*
D52*
X390754Y36982D03*
D13*
X359461Y36982D03*
D151*
X322377Y36982D03*
D95*
X395529Y36779D03*
D52*
X390957Y36779D03*
D41*
X359461Y36779D03*
D151*
X321970Y36779D03*
D57*
X395732Y36576D03*
D97*
X391058Y36576D03*
D31*
X359461Y36576D03*
D151*
X321564Y36576D03*
D57*
X395935Y36373D03*
D55*
X391262Y36373D03*
D16*
X359461Y36373D03*
D137*
X321056Y36373D03*
D25*
X396037Y36170D03*
D97*
X391465Y36170D03*
D52*
X359461Y36170D03*
D128*
X320650Y36170D03*
D25*
X396240Y35966D03*
D55*
X391668Y35966D03*
D35*
X359461Y35966D03*
D135*
X320142Y35966D03*
D25*
X396443Y35763D03*
D52*
X391770Y35763D03*
D135*
X319735Y35763D03*
D95*
X396545Y35560D03*
D52*
X391973Y35560D03*
D134*
X319329Y35560D03*
D57*
X396748Y35357D03*
D52*
X392176Y35357D03*
D134*
X318922Y35357D03*
D25*
X396850Y35154D03*
D55*
X392278Y35154D03*
D152*
X318516Y35154D03*
D25*
X397053Y34950D03*
D97*
X392481Y34950D03*
D70*
X328371Y34950D03*
D82*
X318110Y34950D03*
D25*
X397256Y34747D03*
D55*
X392684Y34747D03*
D40*
X328066Y34747D03*
D81*
X317805Y34747D03*
D25*
X397459Y34544D03*
D52*
X392786Y34544D03*
D30*
X327660Y34544D03*
D104*
X317398Y34544D03*
D95*
X397561Y34341D03*
D52*
X392989Y34341D03*
D95*
X327457Y34341D03*
D103*
X316890Y34341D03*
D57*
X397764Y34138D03*
D97*
X393090Y34138D03*
D59*
X327050Y34138D03*
D102*
X316484Y34138D03*
D25*
X397866Y33934D03*
D55*
X393294Y33934D03*
D68*
X326644Y33934D03*
D101*
X316179Y33934D03*
D25*
X398069Y33731D03*
D97*
X393497Y33731D03*
D47*
X326339Y33731D03*
D148*
X315773Y33731D03*
D25*
X398272Y33528D03*
D55*
X393700Y33528D03*
D20*
X325933Y33528D03*
D79*
X315468Y33528D03*
D25*
X398475Y33325D03*
D52*
X393802Y33325D03*
D35*
X325526Y33325D03*
D153*
X315062Y33325D03*
D25*
X398678Y33122D03*
D97*
X394106Y33122D03*
D54*
X325222Y33122D03*
D78*
X314757Y33122D03*
D25*
X398882Y32918D03*
D97*
X394106Y32918D03*
D15*
X324917Y32918D03*
D130*
X314452Y32918D03*
D57*
X398983Y32715D03*
D55*
X394310Y32715D03*
D60*
X324510Y32715D03*
D76*
X314046Y32715D03*
D25*
X399085Y32512D03*
D97*
X394513Y32512D03*
D55*
X324206Y32512D03*
D150*
X313741Y32512D03*
D25*
X399288Y32309D03*
D55*
X394716Y32309D03*
D97*
X324002Y32309D03*
D77*
X313334Y32309D03*
D25*
X399491Y32106D03*
D97*
X394919Y32106D03*
X323799Y32106D03*
D92*
X312928Y32106D03*
D25*
X399694Y31902D03*
D52*
X395021Y31902D03*
X323698Y31902D03*
D67*
X312725Y31902D03*
D57*
X399796Y31699D03*
D52*
X395224Y31699D03*
D55*
X323596Y31699D03*
D13*
X312318Y31699D03*
D25*
X399898Y31496D03*
D52*
X395427Y31496D03*
D97*
X323393Y31496D03*
D48*
X319329Y31496D03*
D38*
X311912Y31496D03*
D25*
X400101Y31293D03*
D97*
X395529Y31293D03*
D55*
X323190Y31293D03*
D40*
X318922Y31293D03*
D56*
X311607Y31293D03*
D25*
X400304Y31090D03*
D55*
X395732Y31090D03*
D97*
X322986Y31090D03*
D36*
X318618Y31090D03*
D28*
X311302Y31090D03*
D25*
X400507Y30886D03*
D52*
X395834Y30886D03*
X322885Y30886D03*
D30*
X318313Y30886D03*
D52*
X311302Y30886D03*
D95*
X400609Y30683D03*
D52*
X396037Y30683D03*
D97*
X322783Y30683D03*
D57*
X318110Y30683D03*
X400812Y30480D03*
D52*
X396240Y30480D03*
D55*
X322580Y30480D03*
D25*
X318008Y30480D03*
X400914Y30277D03*
D55*
X396342Y30277D03*
D97*
X322377Y30277D03*
D25*
X317805Y30277D03*
X401117Y30074D03*
D97*
X396545Y30074D03*
D55*
X322174Y30074D03*
D25*
X317602Y30074D03*
X401320Y29870D03*
D55*
X396748Y29870D03*
D52*
X322072Y29870D03*
D25*
X317398Y29870D03*
D57*
X401422Y29667D03*
D52*
X396850Y29667D03*
D83*
X388925Y29667D03*
D15*
X380594Y29667D03*
D68*
X374599Y29667D03*
D46*
X369316Y29667D03*
D37*
X361188Y29667D03*
D20*
X355397Y29667D03*
D47*
X349098Y29667D03*
D68*
X345542Y29667D03*
D46*
X340258Y29667D03*
D68*
X334975Y29667D03*
D30*
X331114Y29667D03*
D47*
X327355Y29667D03*
D52*
X321869Y29667D03*
D25*
X317195Y29667D03*
D95*
X401625Y29464D03*
D97*
X397154Y29464D03*
D47*
X389128Y29464D03*
D72*
X380492Y29464D03*
D68*
X374599Y29464D03*
D42*
X369418Y29464D03*
D37*
X361391Y29464D03*
D20*
X355194Y29464D03*
D69*
X349199Y29464D03*
D68*
X345542Y29464D03*
D42*
X340360Y29464D03*
D83*
X335077Y29464D03*
D25*
X331216Y29464D03*
D47*
X327355Y29464D03*
D97*
X321767Y29464D03*
D25*
X317195Y29464D03*
D57*
X401828Y29261D03*
D97*
X397154Y29261D03*
D47*
X389128Y29261D03*
D22*
X380492Y29261D03*
D68*
X374599Y29261D03*
D14*
X369621Y29261D03*
D31*
X361696Y29261D03*
D20*
X354990Y29261D03*
D83*
X349301Y29261D03*
D47*
X345440Y29261D03*
D14*
X340563Y29261D03*
D83*
X335077Y29261D03*
D57*
X331318Y29261D03*
D47*
X327355Y29261D03*
D55*
X321564Y29261D03*
D25*
X316992Y29261D03*
D57*
X402031Y29058D03*
D55*
X397358Y29058D03*
D47*
X389128Y29058D03*
D24*
X380492Y29058D03*
D68*
X374599Y29058D03*
D42*
X369824Y29058D03*
D26*
X361798Y29058D03*
D20*
X354787Y29058D03*
D83*
X349301Y29058D03*
D47*
X345440Y29058D03*
D14*
X340563Y29058D03*
D47*
X335280Y29058D03*
D53*
X331419Y29058D03*
D47*
X327558Y29058D03*
D97*
X321361Y29058D03*
D25*
X316789Y29058D03*
X402133Y28854D03*
D97*
X397561Y28854D03*
D47*
X389331Y28854D03*
D44*
X380492Y28854D03*
D68*
X374599Y28854D03*
D14*
X370027Y28854D03*
D31*
X361899Y28854D03*
D20*
X354584Y28854D03*
D47*
X349504Y28854D03*
D68*
X345338Y28854D03*
D14*
X340766Y28854D03*
D47*
X335280Y28854D03*
D53*
X331419Y28854D03*
D47*
X327558Y28854D03*
D52*
X321259Y28854D03*
D25*
X316586Y28854D03*
X402336Y28651D03*
D55*
X397764Y28651D03*
D47*
X389331Y28651D03*
D28*
X380594Y28651D03*
D47*
X374498Y28651D03*
D14*
X370027Y28651D03*
D31*
X362102Y28651D03*
D20*
X354381Y28651D03*
D47*
X349504Y28651D03*
D68*
X345338Y28651D03*
D42*
X340970Y28651D03*
D47*
X335280Y28651D03*
D50*
X331419Y28651D03*
D47*
X327558Y28651D03*
D52*
X321056Y28651D03*
D25*
X316382Y28651D03*
X402539Y28448D03*
D97*
X397967Y28448D03*
D47*
X389534Y28448D03*
D37*
X380695Y28448D03*
D18*
X371551Y28448D03*
D37*
X362204Y28448D03*
D20*
X354178Y28448D03*
D47*
X349504Y28448D03*
D41*
X342392Y28448D03*
D47*
X335483Y28448D03*
D68*
X331521Y28448D03*
D47*
X327762Y28448D03*
D52*
X320853Y28448D03*
D95*
X316281Y28448D03*
D25*
X402742Y28245D03*
D52*
X398069Y28245D03*
D47*
X389534Y28245D03*
D26*
X380695Y28245D03*
D56*
X371551Y28245D03*
D31*
X362306Y28245D03*
D20*
X353974Y28245D03*
D47*
X349707Y28245D03*
D56*
X342494Y28245D03*
D47*
X335483Y28245D03*
X331622Y28245D03*
X327762Y28245D03*
D97*
X320751Y28245D03*
D25*
X316179Y28245D03*
X402946Y28042D03*
D52*
X398272Y28042D03*
D47*
X389534Y28042D03*
D26*
X380695Y28042D03*
D45*
X371653Y28042D03*
D37*
X362407Y28042D03*
D20*
X353771Y28042D03*
D47*
X349707Y28042D03*
D56*
X342494Y28042D03*
D47*
X335483Y28042D03*
D43*
X331724Y28042D03*
D83*
X327965Y28042D03*
D55*
X320548Y28042D03*
D25*
X315976Y28042D03*
D57*
X403047Y27838D03*
D52*
X398475Y27838D03*
D47*
X389738Y27838D03*
D35*
X383032Y27838D03*
D33*
X378460Y27838D03*
D68*
X374396Y27838D03*
D43*
X369316Y27838D03*
D47*
X364947Y27838D03*
D33*
X353466Y27838D03*
D69*
X349809Y27838D03*
D83*
X345237Y27838D03*
D69*
X340055Y27838D03*
D47*
X335686Y27838D03*
D20*
X331826Y27838D03*
D83*
X327965Y27838D03*
D52*
X320446Y27838D03*
D25*
X315773Y27838D03*
X403149Y27635D03*
D97*
X398577Y27635D03*
D47*
X389738Y27635D03*
D69*
X383337Y27635D03*
D20*
X378358Y27635D03*
D68*
X374396Y27635D03*
D43*
X369316Y27635D03*
D47*
X364947Y27635D03*
D33*
X353263Y27635D03*
D47*
X349910Y27635D03*
D83*
X345237Y27635D03*
D69*
X340258Y27635D03*
D47*
X335686Y27635D03*
D35*
X331826Y27635D03*
D83*
X327965Y27635D03*
D52*
X320243Y27635D03*
D25*
X315570Y27635D03*
X403352Y27432D03*
D55*
X398780Y27432D03*
D47*
X389738Y27432D03*
D43*
X383540Y27432D03*
D69*
X378257Y27432D03*
D68*
X374396Y27432D03*
D69*
X369519Y27432D03*
D47*
X364947Y27432D03*
D33*
X353060Y27432D03*
D47*
X349910Y27432D03*
D68*
X345135Y27432D03*
D43*
X340462Y27432D03*
D47*
X335686Y27432D03*
D54*
X331927Y27432D03*
D47*
X328168Y27432D03*
D52*
X320040Y27432D03*
D57*
X315468Y27432D03*
D25*
X403555Y27229D03*
D97*
X398983Y27229D03*
D83*
X389941Y27229D03*
D47*
X383642Y27229D03*
D69*
X378257Y27229D03*
D47*
X374294Y27229D03*
D69*
X369722Y27229D03*
D47*
X364947Y27229D03*
D46*
X351638Y27229D03*
D68*
X345135Y27229D03*
D20*
X340563Y27229D03*
D47*
X335890Y27229D03*
D66*
X332029Y27229D03*
D47*
X328168Y27229D03*
D97*
X319938Y27229D03*
D95*
X315265Y27229D03*
D25*
X403758Y27026D03*
D52*
X399085Y27026D03*
D83*
X389941Y27026D03*
X383845Y27026D03*
D47*
X378358Y27026D03*
D68*
X374193Y27026D03*
D43*
X369926Y27026D03*
D22*
X363220Y27026D03*
D34*
X352146Y27026D03*
D68*
X345135Y27026D03*
D69*
X340665Y27026D03*
D47*
X335890Y27026D03*
D23*
X332130Y27026D03*
D47*
X328168Y27026D03*
D97*
X319735Y27026D03*
D57*
X315062Y27026D03*
X403860Y26822D03*
D52*
X399288Y26822D03*
D83*
X389941Y26822D03*
X383845Y26822D03*
D47*
X378358Y26822D03*
D68*
X374193Y26822D03*
D43*
X369926Y26822D03*
D22*
X363017Y26822D03*
D37*
X352450Y26822D03*
D68*
X345135Y26822D03*
D43*
X340868Y26822D03*
D83*
X336093Y26822D03*
D15*
X332232Y26822D03*
D47*
X328371Y26822D03*
D55*
X319532Y26822D03*
D25*
X314960Y26822D03*
X403962Y26619D03*
D52*
X399491Y26619D03*
D47*
X390144Y26619D03*
X384048Y26619D03*
X378358Y26619D03*
D68*
X374193Y26619D03*
D69*
X370129Y26619D03*
D16*
X362915Y26619D03*
D31*
X352755Y26619D03*
D68*
X345135Y26619D03*
D69*
X341071Y26619D03*
D83*
X336093Y26619D03*
D15*
X332232Y26619D03*
D47*
X328371Y26619D03*
D97*
X319329Y26619D03*
D25*
X314757Y26619D03*
X404165Y26416D03*
D97*
X399593Y26416D03*
D47*
X390144Y26416D03*
X384048Y26416D03*
X378358Y26416D03*
D68*
X374193Y26416D03*
D43*
X370332Y26416D03*
D24*
X362814Y26416D03*
D45*
X352958Y26416D03*
D47*
X345034Y26416D03*
D69*
X341274Y26416D03*
D83*
X336093Y26416D03*
D60*
X332232Y26416D03*
D47*
X328371Y26416D03*
D52*
X319227Y26416D03*
D25*
X314554Y26416D03*
X404368Y26213D03*
D55*
X399796Y26213D03*
D47*
X390347Y26213D03*
X384048Y26213D03*
X378562Y26213D03*
D68*
X374193Y26213D03*
D69*
X370535Y26213D03*
D24*
X362610Y26213D03*
D72*
X354482Y26213D03*
D83*
X350317Y26213D03*
D68*
X344932Y26213D03*
D69*
X341274Y26213D03*
D77*
X332435Y26213D03*
D52*
X319024Y26213D03*
D25*
X314350Y26213D03*
X404571Y26010D03*
D52*
X399898Y26010D03*
D47*
X390347Y26010D03*
X384251Y26010D03*
X378562Y26010D03*
D68*
X374193Y26010D03*
D83*
X370637Y26010D03*
D16*
X362509Y26010D03*
D72*
X354686Y26010D03*
D47*
X350520Y26010D03*
D68*
X344932Y26010D03*
D43*
X341478Y26010D03*
D52*
X335077Y26010D03*
X329794Y26010D03*
X318821Y26010D03*
D95*
X314249Y26010D03*
X404673Y25806D03*
D97*
X400202Y25806D03*
D47*
X390347Y25806D03*
X384251Y25806D03*
X378562Y25806D03*
X374091Y25806D03*
D69*
X370738Y25806D03*
D24*
X362407Y25806D03*
D72*
X354889Y25806D03*
D47*
X350520Y25806D03*
D68*
X344932Y25806D03*
D69*
X341681Y25806D03*
D97*
X335178Y25806D03*
X329895Y25806D03*
X318719Y25806D03*
D25*
X314147Y25806D03*
D57*
X404876Y25603D03*
D52*
X400304Y25603D03*
D47*
X390550Y25603D03*
X384251Y25603D03*
D83*
X378765Y25603D03*
D68*
X373990Y25603D03*
D43*
X370942Y25603D03*
D22*
X362204Y25603D03*
D52*
X354990Y25603D03*
D43*
X350622Y25603D03*
D68*
X344932Y25603D03*
D43*
X341884Y25603D03*
D55*
X335382Y25603D03*
D97*
X329895Y25603D03*
D55*
X318516Y25603D03*
D25*
X313944Y25603D03*
D57*
X405079Y25400D03*
D55*
X400406Y25400D03*
D47*
X390550Y25400D03*
X384454Y25400D03*
D83*
X378765Y25400D03*
D68*
X373990Y25400D03*
D69*
X371145Y25400D03*
D85*
X362001Y25400D03*
D52*
X355194Y25400D03*
D47*
X350723Y25400D03*
D68*
X344932Y25400D03*
D47*
X341986Y25400D03*
D60*
X335483Y25400D03*
D97*
X329895Y25400D03*
D52*
X318414Y25400D03*
D25*
X313741Y25400D03*
D57*
X405282Y25197D03*
D97*
X400609Y25197D03*
D47*
X390550Y25197D03*
X384454Y25197D03*
D83*
X378765Y25197D03*
D68*
X373990Y25197D03*
D47*
X371246Y25197D03*
D83*
X360477Y25197D03*
D69*
X356311Y25197D03*
D47*
X350723Y25197D03*
D68*
X344932Y25197D03*
D69*
X342087Y25197D03*
D63*
X335585Y25197D03*
X329895Y25197D03*
D52*
X318211Y25197D03*
D57*
X313639Y25197D03*
D25*
X405384Y24994D03*
D55*
X400812Y24994D03*
D47*
X390754Y24994D03*
D68*
X384556Y24994D03*
D47*
X378968Y24994D03*
D52*
X372669Y24994D03*
D83*
X360477Y24994D03*
X356413Y24994D03*
D47*
X350926Y24994D03*
D72*
X343510Y24994D03*
D63*
X335788Y24994D03*
X329895Y24994D03*
D52*
X318008Y24994D03*
D57*
X313436Y24994D03*
D25*
X405587Y24790D03*
D97*
X401015Y24790D03*
D47*
X390754Y24790D03*
X384658Y24790D03*
X378968Y24790D03*
D52*
X372669Y24790D03*
D83*
X360477Y24790D03*
X356413Y24790D03*
D47*
X350926Y24790D03*
D55*
X343510Y24790D03*
D63*
X335788Y24790D03*
X329895Y24790D03*
D97*
X317906Y24790D03*
D25*
X313334Y24790D03*
X405790Y24587D03*
D52*
X401117Y24587D03*
D24*
X390449Y24587D03*
D47*
X384658Y24587D03*
X378968Y24587D03*
D97*
X372770Y24587D03*
D37*
X362814Y24587D03*
D56*
X353670Y24587D03*
D60*
X343611Y24587D03*
D63*
X335991Y24587D03*
D15*
X329997Y24587D03*
D97*
X317703Y24587D03*
D25*
X313131Y24587D03*
X405994Y24384D03*
D52*
X401320Y24384D03*
D44*
X390652Y24384D03*
D83*
X384861Y24384D03*
D47*
X379171Y24384D03*
D63*
X372770Y24384D03*
D37*
X363017Y24384D03*
D45*
X353771Y24384D03*
D60*
X343611Y24384D03*
D15*
X336093Y24384D03*
X329997Y24384D03*
D52*
X317602Y24384D03*
D25*
X312928Y24384D03*
D57*
X406095Y24181D03*
D52*
X401523Y24181D03*
D39*
X390855Y24181D03*
D83*
X384861Y24181D03*
D47*
X379171Y24181D03*
D15*
X372872Y24181D03*
D31*
X363118Y24181D03*
D45*
X353771Y24181D03*
D63*
X343713Y24181D03*
D23*
X336194Y24181D03*
D15*
X329997Y24181D03*
D52*
X317398Y24181D03*
D57*
X312826Y24181D03*
D25*
X406197Y23978D03*
D97*
X401625Y23978D03*
D28*
X390957Y23978D03*
D83*
X384861Y23978D03*
D47*
X379171Y23978D03*
D15*
X372872Y23978D03*
D31*
X363322Y23978D03*
D26*
X353670Y23978D03*
D15*
X343814Y23978D03*
D23*
X336398Y23978D03*
D66*
X329997Y23978D03*
D52*
X317195Y23978D03*
D57*
X312623Y23978D03*
D25*
X406400Y23774D03*
D55*
X401828Y23774D03*
D39*
X391058Y23774D03*
D47*
X385064Y23774D03*
X379374Y23774D03*
D23*
X372974Y23774D03*
D31*
X363525Y23774D03*
X353771Y23774D03*
D66*
X343814Y23774D03*
X336499Y23774D03*
X329997Y23774D03*
D55*
X317094Y23774D03*
D25*
X312522Y23774D03*
X406603Y23571D03*
D97*
X402031Y23571D03*
D44*
X391262Y23571D03*
D47*
X385064Y23571D03*
X379374Y23571D03*
D66*
X373075Y23571D03*
D31*
X363525Y23571D03*
X353771Y23571D03*
D54*
X343916Y23571D03*
D29*
X336601Y23571D03*
D54*
X330098Y23571D03*
D97*
X316890Y23571D03*
D25*
X312318Y23571D03*
X406806Y23368D03*
D52*
X402133Y23368D03*
D39*
X391465Y23368D03*
D47*
X385064Y23368D03*
X379374Y23368D03*
D35*
X373075Y23368D03*
D31*
X363728Y23368D03*
D37*
X353670Y23368D03*
D54*
X343916Y23368D03*
X336804Y23368D03*
X330098Y23368D03*
D97*
X316687Y23368D03*
D25*
X312115Y23368D03*
D57*
X406908Y23165D03*
D52*
X402336Y23165D03*
D44*
X391668Y23165D03*
D47*
X385267Y23165D03*
X379578Y23165D03*
D33*
X373177Y23165D03*
D31*
X363931Y23165D03*
D44*
X353670Y23165D03*
D33*
X343916Y23165D03*
D35*
X336906Y23165D03*
D54*
X330098Y23165D03*
D55*
X316484Y23165D03*
D25*
X311912Y23165D03*
X407010Y22962D03*
D55*
X402438Y22962D03*
D34*
X391770Y22962D03*
D47*
X385267Y22962D03*
X379578Y22962D03*
D69*
X373177Y22962D03*
D37*
X364236Y22962D03*
D34*
X353568Y22962D03*
D20*
X344018Y22962D03*
D35*
X337109Y22962D03*
D33*
X330098Y22962D03*
D52*
X316382Y22962D03*
D57*
X311810Y22962D03*
D25*
X407213Y22758D03*
D97*
X402641Y22758D03*
D24*
X391871Y22758D03*
D68*
X385369Y22758D03*
X379679Y22758D03*
X373177Y22758D03*
D39*
X364439Y22758D03*
D22*
X353466Y22758D03*
D68*
X344119Y22758D03*
D20*
X337109Y22758D03*
D33*
X330098Y22758D03*
D97*
X316281Y22758D03*
D25*
X311709Y22758D03*
X407416Y22555D03*
D55*
X402844Y22555D03*
X316078Y22555D03*
D25*
X311506Y22555D03*
X407619Y22352D03*
D97*
X403047Y22352D03*
X315874Y22352D03*
D25*
X311302Y22352D03*
D95*
X407721Y22149D03*
D97*
X403250Y22149D03*
X315671Y22149D03*
D25*
X311099Y22149D03*
D57*
X407924Y21946D03*
D52*
X403352Y21946D03*
D55*
X315468Y21946D03*
D57*
X310998Y21946D03*
X408127Y21742D03*
D55*
X403454Y21742D03*
X315468Y21742D03*
D25*
X310896Y21742D03*
D57*
X408330Y21539D03*
D97*
X403657Y21539D03*
X315265Y21539D03*
D25*
X310693Y21539D03*
X408432Y21336D03*
D55*
X403860Y21336D03*
X315062Y21336D03*
D25*
X310490Y21336D03*
X408635Y21133D03*
D97*
X404063Y21133D03*
X314858Y21133D03*
D25*
X310286Y21133D03*
X408838Y20930D03*
D97*
X404266Y20930D03*
X314655Y20930D03*
D25*
X310083Y20930D03*
X409042Y20726D03*
D52*
X404368Y20726D03*
D97*
X314655Y20726D03*
D25*
X309880Y20726D03*
D57*
X409143Y20523D03*
D52*
X404571Y20523D03*
D55*
X314452Y20523D03*
D57*
X309778Y20523D03*
X409346Y20320D03*
D97*
X404673Y20320D03*
X314249Y20320D03*
D25*
X309677Y20320D03*
X409448Y20117D03*
D55*
X404876Y20117D03*
X314046Y20117D03*
D25*
X309474Y20117D03*
X409651Y19914D03*
D97*
X405079Y19914D03*
X313842Y19914D03*
D25*
X309270Y19914D03*
X409854Y19710D03*
D52*
X405181Y19710D03*
X313741Y19710D03*
D25*
X309067Y19710D03*
X410058Y19507D03*
D55*
X405486Y19507D03*
D52*
X313538Y19507D03*
D57*
X308966Y19507D03*
D25*
X410261Y19304D03*
D52*
X405587Y19304D03*
D55*
X313436Y19304D03*
D25*
X308864Y19304D03*
D57*
X410362Y19101D03*
D97*
X405689Y19101D03*
X313233Y19101D03*
D25*
X308661Y19101D03*
X410464Y18898D03*
D55*
X405892Y18898D03*
X313030Y18898D03*
D25*
X308458Y18898D03*
X410667Y18694D03*
D97*
X406095Y18694D03*
D52*
X312928Y18694D03*
D25*
X308254Y18694D03*
X410870Y18491D03*
D97*
X406298Y18491D03*
X312623Y18491D03*
D95*
X308153Y18491D03*
D25*
X411074Y18288D03*
D52*
X406400Y18288D03*
X312522Y18288D03*
D25*
X308051Y18288D03*
X411277Y18085D03*
D52*
X406603Y18085D03*
D55*
X312420Y18085D03*
D57*
X307746Y18085D03*
X411378Y17882D03*
D52*
X406806Y17882D03*
D97*
X312217Y17882D03*
D25*
X307645Y17882D03*
X411480Y17678D03*
D52*
X406806Y17678D03*
X312115Y17678D03*
D25*
X307442Y17678D03*
X411683Y17475D03*
D154*
X359461Y17475D03*
D25*
X307238Y17475D03*
X411886Y17272D03*
D155*
X359461Y17272D03*
D25*
X307035Y17272D03*
X412090Y17069D03*
D156*
X359461Y17069D03*
D57*
X306934Y17069D03*
X412191Y16866D03*
D157*
X359562Y16866D03*
D25*
X306832Y16866D03*
D57*
X412394Y16662D03*
D158*
X359562Y16662D03*
D25*
X306629Y16662D03*
X412496Y16459D03*
D159*
X359461Y16459D03*
D25*
X306426Y16459D03*
X412699Y16256D03*
D160*
X359461Y16256D03*
D25*
X306222Y16256D03*
X412902Y16053D03*
D161*
X359461Y16053D03*
D95*
X306121Y16053D03*
D25*
X413106Y15850D03*
D162*
X359461Y15850D03*
D57*
X305918Y15850D03*
X413207Y15646D03*
D163*
X359562Y15646D03*
D25*
X305816Y15646D03*
D57*
X413410Y15443D03*
D164*
X359461Y15443D03*
D25*
X305613Y15443D03*
D57*
X413614Y15240D03*
D165*
X359461Y15240D03*
D25*
X305410Y15240D03*
X413715Y15037D03*
D166*
X359562Y15037D03*
D25*
X305206Y15037D03*
X413918Y14834D03*
D95*
X305105Y14834D03*
D25*
X414122Y14630D03*
X305003Y14630D03*
X414325Y14427D03*
X304800Y14427D03*
D57*
X414426Y14224D03*
D25*
X304597Y14224D03*
X414528Y14021D03*
D57*
X304495Y14021D03*
D167*
X359461Y13818D03*
D168*
X359562Y13614D03*
D169*
X359562Y13411D03*
D170*
X359562Y13208D03*
X359562Y13005D03*
D171*
X216105Y31750D02*
X209755Y38100D01*
X197055Y38100D01*
X190705Y31750D01*
X190705Y19050D01*
X197055Y12700D01*
X209755Y12700D01*
X216105Y19050D01*
X247855Y38100D02*
X260555Y38100D01*
X247855Y38100D02*
X241505Y31750D01*
X241505Y19050D01*
X247855Y12700D01*
X241505Y31750D02*
X235155Y38100D01*
X222455Y38100D01*
X216105Y31750D01*
X216105Y19050D01*
X222455Y12700D01*
X235155Y12700D01*
X241505Y19050D01*
X266905Y19050D02*
X266905Y31750D01*
X260555Y38100D01*
X266905Y19050D02*
X260555Y12700D01*
X247855Y12700D01*
X184355Y38100D02*
X171655Y38100D01*
X165305Y31750D01*
X165305Y19050D01*
X171655Y12700D01*
X190705Y31750D02*
X184355Y38100D01*
X190705Y19050D02*
X184355Y12700D01*
X171655Y12700D01*
D172*
X147834Y27499D02*
X147834Y36389D01*
X147834Y27499D02*
X147836Y27399D01*
X147842Y27300D01*
X147852Y27200D01*
X147865Y27102D01*
X147883Y27003D01*
X147904Y26906D01*
X147929Y26810D01*
X147958Y26714D01*
X147991Y26620D01*
X148027Y26527D01*
X148067Y26436D01*
X148111Y26346D01*
X148158Y26258D01*
X148208Y26172D01*
X148262Y26088D01*
X148319Y26006D01*
X148379Y25927D01*
X148443Y25849D01*
X148509Y25775D01*
X148578Y25703D01*
X148650Y25634D01*
X148724Y25568D01*
X148802Y25504D01*
X148881Y25444D01*
X148963Y25387D01*
X149047Y25333D01*
X149133Y25283D01*
X149221Y25236D01*
X149311Y25192D01*
X149402Y25152D01*
X149495Y25116D01*
X149589Y25083D01*
X149685Y25054D01*
X149781Y25029D01*
X149878Y25008D01*
X149977Y24990D01*
X150075Y24977D01*
X150175Y24967D01*
X150274Y24961D01*
X150374Y24959D01*
X151644Y24959D01*
X141854Y24959D02*
X141854Y36389D01*
X138679Y36389D01*
X138568Y36387D01*
X138458Y36381D01*
X138347Y36372D01*
X138237Y36358D01*
X138128Y36341D01*
X138019Y36320D01*
X137911Y36295D01*
X137804Y36266D01*
X137698Y36234D01*
X137593Y36198D01*
X137490Y36158D01*
X137388Y36115D01*
X137287Y36068D01*
X137188Y36017D01*
X137092Y35964D01*
X136997Y35907D01*
X136904Y35846D01*
X136813Y35783D01*
X136724Y35716D01*
X136638Y35646D01*
X136555Y35573D01*
X136473Y35498D01*
X136395Y35420D01*
X136320Y35338D01*
X136247Y35255D01*
X136177Y35169D01*
X136110Y35080D01*
X136047Y34989D01*
X135986Y34896D01*
X135929Y34801D01*
X135876Y34705D01*
X135825Y34606D01*
X135778Y34505D01*
X135735Y34403D01*
X135695Y34300D01*
X135659Y34195D01*
X135627Y34089D01*
X135598Y33982D01*
X135573Y33874D01*
X135552Y33765D01*
X135535Y33656D01*
X135521Y33546D01*
X135512Y33435D01*
X135506Y33325D01*
X135504Y33214D01*
X135506Y33103D01*
X135512Y32993D01*
X135521Y32882D01*
X135535Y32772D01*
X135552Y32663D01*
X135573Y32554D01*
X135598Y32446D01*
X135627Y32339D01*
X135659Y32233D01*
X135695Y32128D01*
X135735Y32025D01*
X135778Y31923D01*
X135825Y31822D01*
X135876Y31723D01*
X135929Y31626D01*
X135986Y31532D01*
X136047Y31439D01*
X136110Y31348D01*
X136177Y31259D01*
X136247Y31173D01*
X136320Y31090D01*
X136395Y31008D01*
X136473Y30930D01*
X136555Y30855D01*
X136638Y30782D01*
X136724Y30712D01*
X136813Y30645D01*
X136904Y30582D01*
X136997Y30521D01*
X137092Y30464D01*
X137188Y30411D01*
X137287Y30360D01*
X137388Y30313D01*
X137490Y30270D01*
X137593Y30230D01*
X137698Y30194D01*
X137804Y30162D01*
X137911Y30133D01*
X138019Y30108D01*
X138128Y30087D01*
X138237Y30070D01*
X138347Y30056D01*
X138458Y30047D01*
X138568Y30041D01*
X138679Y30039D01*
X141854Y30039D01*
X130995Y33849D02*
X127820Y36389D01*
X127820Y24959D01*
X130995Y24959D02*
X124645Y24959D01*
D173*
X376686Y408648D02*
X376686Y420332D01*
X373440Y420332D01*
X373327Y420330D01*
X373214Y420324D01*
X373101Y420314D01*
X372988Y420300D01*
X372876Y420283D01*
X372765Y420261D01*
X372655Y420236D01*
X372545Y420206D01*
X372437Y420173D01*
X372330Y420136D01*
X372224Y420096D01*
X372120Y420051D01*
X372017Y420003D01*
X371916Y419952D01*
X371817Y419897D01*
X371720Y419839D01*
X371625Y419777D01*
X371532Y419712D01*
X371442Y419644D01*
X371354Y419573D01*
X371268Y419498D01*
X371185Y419421D01*
X371105Y419341D01*
X371028Y419258D01*
X370953Y419172D01*
X370882Y419084D01*
X370814Y418994D01*
X370749Y418901D01*
X370687Y418806D01*
X370629Y418709D01*
X370574Y418610D01*
X370523Y418509D01*
X370475Y418406D01*
X370430Y418302D01*
X370390Y418196D01*
X370353Y418089D01*
X370320Y417981D01*
X370290Y417871D01*
X370265Y417761D01*
X370243Y417650D01*
X370226Y417538D01*
X370212Y417425D01*
X370202Y417312D01*
X370196Y417199D01*
X370194Y417086D01*
X370196Y416973D01*
X370202Y416860D01*
X370212Y416747D01*
X370226Y416634D01*
X370243Y416522D01*
X370265Y416411D01*
X370290Y416301D01*
X370320Y416191D01*
X370353Y416083D01*
X370390Y415976D01*
X370430Y415870D01*
X370475Y415766D01*
X370523Y415663D01*
X370574Y415562D01*
X370629Y415463D01*
X370687Y415366D01*
X370749Y415271D01*
X370814Y415178D01*
X370882Y415088D01*
X370953Y415000D01*
X371028Y414914D01*
X371105Y414831D01*
X371185Y414751D01*
X371268Y414674D01*
X371354Y414599D01*
X371442Y414528D01*
X371532Y414460D01*
X371625Y414395D01*
X371720Y414333D01*
X371817Y414275D01*
X371916Y414220D01*
X372017Y414169D01*
X372120Y414121D01*
X372224Y414076D01*
X372330Y414036D01*
X372437Y413999D01*
X372545Y413966D01*
X372655Y413936D01*
X372765Y413911D01*
X372876Y413889D01*
X372988Y413872D01*
X373101Y413858D01*
X373214Y413848D01*
X373327Y413842D01*
X373440Y413840D01*
X373440Y413841D02*
X376686Y413841D01*
X372791Y413841D02*
X370194Y408648D01*
X365329Y417735D02*
X362084Y420332D01*
X362084Y408648D01*
X365329Y408648D02*
X358838Y408648D01*
X353899Y408648D02*
X350654Y408648D01*
X350654Y408647D02*
X350541Y408649D01*
X350428Y408655D01*
X350315Y408665D01*
X350202Y408679D01*
X350090Y408696D01*
X349979Y408718D01*
X349869Y408743D01*
X349759Y408773D01*
X349651Y408806D01*
X349544Y408843D01*
X349438Y408883D01*
X349334Y408928D01*
X349231Y408976D01*
X349130Y409027D01*
X349031Y409082D01*
X348934Y409140D01*
X348839Y409202D01*
X348746Y409267D01*
X348656Y409335D01*
X348568Y409406D01*
X348482Y409481D01*
X348399Y409558D01*
X348319Y409638D01*
X348242Y409721D01*
X348167Y409807D01*
X348096Y409895D01*
X348028Y409985D01*
X347963Y410078D01*
X347901Y410173D01*
X347843Y410270D01*
X347788Y410369D01*
X347737Y410470D01*
X347689Y410573D01*
X347644Y410677D01*
X347604Y410783D01*
X347567Y410890D01*
X347534Y410998D01*
X347504Y411108D01*
X347479Y411218D01*
X347457Y411329D01*
X347440Y411441D01*
X347426Y411554D01*
X347416Y411667D01*
X347410Y411780D01*
X347408Y411893D01*
X347410Y412006D01*
X347416Y412119D01*
X347426Y412232D01*
X347440Y412345D01*
X347457Y412457D01*
X347479Y412568D01*
X347504Y412678D01*
X347534Y412788D01*
X347567Y412896D01*
X347604Y413003D01*
X347644Y413109D01*
X347689Y413213D01*
X347737Y413316D01*
X347788Y413417D01*
X347843Y413516D01*
X347901Y413613D01*
X347963Y413708D01*
X348028Y413801D01*
X348096Y413891D01*
X348167Y413979D01*
X348242Y414065D01*
X348319Y414148D01*
X348399Y414228D01*
X348482Y414305D01*
X348568Y414380D01*
X348656Y414451D01*
X348746Y414519D01*
X348839Y414584D01*
X348934Y414646D01*
X349031Y414704D01*
X349130Y414759D01*
X349231Y414810D01*
X349334Y414858D01*
X349438Y414903D01*
X349544Y414943D01*
X349651Y414980D01*
X349759Y415013D01*
X349869Y415043D01*
X349979Y415068D01*
X350090Y415090D01*
X350202Y415107D01*
X350315Y415121D01*
X350428Y415131D01*
X350541Y415137D01*
X350654Y415139D01*
X350005Y420332D02*
X353899Y420332D01*
X350005Y420331D02*
X349904Y420329D01*
X349804Y420323D01*
X349704Y420313D01*
X349604Y420300D01*
X349505Y420282D01*
X349406Y420261D01*
X349309Y420236D01*
X349212Y420207D01*
X349117Y420174D01*
X349023Y420138D01*
X348931Y420098D01*
X348840Y420055D01*
X348751Y420008D01*
X348664Y419958D01*
X348578Y419904D01*
X348495Y419847D01*
X348415Y419787D01*
X348336Y419724D01*
X348260Y419657D01*
X348187Y419588D01*
X348117Y419516D01*
X348049Y419442D01*
X347984Y419365D01*
X347923Y419285D01*
X347864Y419203D01*
X347809Y419119D01*
X347757Y419033D01*
X347708Y418945D01*
X347663Y418855D01*
X347621Y418763D01*
X347583Y418670D01*
X347549Y418575D01*
X347518Y418480D01*
X347491Y418383D01*
X347468Y418285D01*
X347448Y418186D01*
X347433Y418086D01*
X347421Y417986D01*
X347413Y417886D01*
X347409Y417785D01*
X347409Y417685D01*
X347413Y417584D01*
X347421Y417484D01*
X347433Y417384D01*
X347448Y417284D01*
X347468Y417185D01*
X347491Y417087D01*
X347518Y416990D01*
X347549Y416895D01*
X347583Y416800D01*
X347621Y416707D01*
X347663Y416615D01*
X347708Y416525D01*
X347757Y416437D01*
X347809Y416351D01*
X347864Y416267D01*
X347923Y416185D01*
X347984Y416105D01*
X348049Y416028D01*
X348117Y415954D01*
X348187Y415882D01*
X348260Y415813D01*
X348336Y415746D01*
X348415Y415683D01*
X348495Y415623D01*
X348578Y415566D01*
X348664Y415512D01*
X348751Y415462D01*
X348840Y415415D01*
X348931Y415372D01*
X349023Y415332D01*
X349117Y415296D01*
X349212Y415263D01*
X349309Y415234D01*
X349406Y415209D01*
X349505Y415188D01*
X349604Y415170D01*
X349704Y415157D01*
X349804Y415147D01*
X349904Y415141D01*
X350005Y415139D01*
X352601Y415139D01*
X413438Y409587D02*
X413438Y421271D01*
X410192Y421271D01*
X410192Y421272D02*
X410079Y421270D01*
X409966Y421264D01*
X409853Y421254D01*
X409740Y421240D01*
X409628Y421223D01*
X409517Y421201D01*
X409407Y421176D01*
X409297Y421146D01*
X409189Y421113D01*
X409082Y421076D01*
X408976Y421036D01*
X408872Y420991D01*
X408769Y420943D01*
X408668Y420892D01*
X408569Y420837D01*
X408472Y420779D01*
X408377Y420717D01*
X408284Y420652D01*
X408194Y420584D01*
X408106Y420513D01*
X408020Y420438D01*
X407937Y420361D01*
X407857Y420281D01*
X407780Y420198D01*
X407705Y420112D01*
X407634Y420024D01*
X407566Y419934D01*
X407501Y419841D01*
X407439Y419746D01*
X407381Y419649D01*
X407326Y419550D01*
X407275Y419449D01*
X407227Y419346D01*
X407182Y419242D01*
X407142Y419136D01*
X407105Y419029D01*
X407072Y418921D01*
X407042Y418811D01*
X407017Y418701D01*
X406995Y418590D01*
X406978Y418478D01*
X406964Y418365D01*
X406954Y418252D01*
X406948Y418139D01*
X406946Y418026D01*
X406948Y417913D01*
X406954Y417800D01*
X406964Y417687D01*
X406978Y417574D01*
X406995Y417462D01*
X407017Y417351D01*
X407042Y417241D01*
X407072Y417131D01*
X407105Y417023D01*
X407142Y416916D01*
X407182Y416810D01*
X407227Y416706D01*
X407275Y416603D01*
X407326Y416502D01*
X407381Y416403D01*
X407439Y416306D01*
X407501Y416211D01*
X407566Y416118D01*
X407634Y416028D01*
X407705Y415940D01*
X407780Y415854D01*
X407857Y415771D01*
X407937Y415691D01*
X408020Y415614D01*
X408106Y415539D01*
X408194Y415468D01*
X408284Y415400D01*
X408377Y415335D01*
X408472Y415273D01*
X408569Y415215D01*
X408668Y415160D01*
X408769Y415109D01*
X408872Y415061D01*
X408976Y415016D01*
X409082Y414976D01*
X409189Y414939D01*
X409297Y414906D01*
X409407Y414876D01*
X409517Y414851D01*
X409628Y414829D01*
X409740Y414812D01*
X409853Y414798D01*
X409966Y414788D01*
X410079Y414782D01*
X410192Y414780D01*
X413438Y414780D01*
X409543Y414780D02*
X406946Y409587D01*
X402081Y418675D02*
X398836Y421271D01*
X398836Y409587D01*
X402081Y409587D02*
X395590Y409587D01*
X390651Y412184D02*
X388055Y421271D01*
X390651Y412184D02*
X384160Y412184D01*
X386107Y414780D02*
X386107Y409587D01*
X307026Y408181D02*
X307026Y419865D01*
X303781Y419865D01*
X303781Y419866D02*
X303668Y419864D01*
X303555Y419858D01*
X303442Y419848D01*
X303329Y419834D01*
X303217Y419817D01*
X303106Y419795D01*
X302996Y419770D01*
X302886Y419740D01*
X302778Y419707D01*
X302671Y419670D01*
X302565Y419630D01*
X302461Y419585D01*
X302358Y419537D01*
X302257Y419486D01*
X302158Y419431D01*
X302061Y419373D01*
X301966Y419311D01*
X301873Y419246D01*
X301783Y419178D01*
X301695Y419107D01*
X301609Y419032D01*
X301526Y418955D01*
X301446Y418875D01*
X301369Y418792D01*
X301294Y418706D01*
X301223Y418618D01*
X301155Y418528D01*
X301090Y418435D01*
X301028Y418340D01*
X300970Y418243D01*
X300915Y418144D01*
X300864Y418043D01*
X300816Y417940D01*
X300771Y417836D01*
X300731Y417730D01*
X300694Y417623D01*
X300661Y417515D01*
X300631Y417405D01*
X300606Y417295D01*
X300584Y417184D01*
X300567Y417072D01*
X300553Y416959D01*
X300543Y416846D01*
X300537Y416733D01*
X300535Y416620D01*
X300537Y416507D01*
X300543Y416394D01*
X300553Y416281D01*
X300567Y416168D01*
X300584Y416056D01*
X300606Y415945D01*
X300631Y415835D01*
X300661Y415725D01*
X300694Y415617D01*
X300731Y415510D01*
X300771Y415404D01*
X300816Y415300D01*
X300864Y415197D01*
X300915Y415096D01*
X300970Y414997D01*
X301028Y414900D01*
X301090Y414805D01*
X301155Y414712D01*
X301223Y414622D01*
X301294Y414534D01*
X301369Y414448D01*
X301446Y414365D01*
X301526Y414285D01*
X301609Y414208D01*
X301695Y414133D01*
X301783Y414062D01*
X301873Y413994D01*
X301966Y413929D01*
X302061Y413867D01*
X302158Y413809D01*
X302257Y413754D01*
X302358Y413703D01*
X302461Y413655D01*
X302565Y413610D01*
X302671Y413570D01*
X302778Y413533D01*
X302886Y413500D01*
X302996Y413470D01*
X303106Y413445D01*
X303217Y413423D01*
X303329Y413406D01*
X303442Y413392D01*
X303555Y413382D01*
X303668Y413376D01*
X303781Y413374D01*
X307026Y413374D01*
X303132Y413374D02*
X300535Y408181D01*
X295670Y417269D02*
X292424Y419865D01*
X292424Y408181D01*
X289179Y408181D02*
X295670Y408181D01*
X284240Y408181D02*
X280345Y408181D01*
X280345Y408182D02*
X280246Y408184D01*
X280146Y408190D01*
X280047Y408199D01*
X279949Y408212D01*
X279851Y408229D01*
X279753Y408250D01*
X279657Y408275D01*
X279562Y408303D01*
X279468Y408335D01*
X279375Y408370D01*
X279283Y408409D01*
X279193Y408452D01*
X279105Y408497D01*
X279018Y408547D01*
X278934Y408599D01*
X278851Y408655D01*
X278771Y408713D01*
X278693Y408775D01*
X278618Y408840D01*
X278545Y408908D01*
X278475Y408978D01*
X278407Y409051D01*
X278342Y409126D01*
X278280Y409204D01*
X278222Y409284D01*
X278166Y409367D01*
X278114Y409451D01*
X278064Y409538D01*
X278019Y409626D01*
X277976Y409716D01*
X277937Y409808D01*
X277902Y409901D01*
X277870Y409995D01*
X277842Y410090D01*
X277817Y410186D01*
X277796Y410284D01*
X277779Y410382D01*
X277766Y410480D01*
X277757Y410579D01*
X277751Y410679D01*
X277749Y410778D01*
X277749Y412076D01*
X277751Y412175D01*
X277757Y412275D01*
X277766Y412374D01*
X277779Y412472D01*
X277796Y412570D01*
X277817Y412668D01*
X277842Y412764D01*
X277870Y412859D01*
X277902Y412953D01*
X277937Y413046D01*
X277976Y413138D01*
X278019Y413228D01*
X278064Y413316D01*
X278114Y413403D01*
X278166Y413487D01*
X278222Y413570D01*
X278280Y413650D01*
X278342Y413728D01*
X278407Y413803D01*
X278475Y413876D01*
X278545Y413946D01*
X278618Y414014D01*
X278693Y414079D01*
X278771Y414141D01*
X278851Y414199D01*
X278934Y414255D01*
X279018Y414307D01*
X279105Y414357D01*
X279193Y414402D01*
X279283Y414445D01*
X279375Y414484D01*
X279468Y414519D01*
X279562Y414551D01*
X279657Y414579D01*
X279753Y414604D01*
X279851Y414625D01*
X279949Y414642D01*
X280047Y414655D01*
X280146Y414664D01*
X280246Y414670D01*
X280345Y414672D01*
X280345Y414673D02*
X284240Y414673D01*
X284240Y419865D01*
X277749Y419865D01*
X343003Y421124D02*
X343003Y409440D01*
X343003Y421124D02*
X339757Y421124D01*
X339757Y421125D02*
X339644Y421123D01*
X339531Y421117D01*
X339418Y421107D01*
X339305Y421093D01*
X339193Y421076D01*
X339082Y421054D01*
X338972Y421029D01*
X338862Y420999D01*
X338754Y420966D01*
X338647Y420929D01*
X338541Y420889D01*
X338437Y420844D01*
X338334Y420796D01*
X338233Y420745D01*
X338134Y420690D01*
X338037Y420632D01*
X337942Y420570D01*
X337849Y420505D01*
X337759Y420437D01*
X337671Y420366D01*
X337585Y420291D01*
X337502Y420214D01*
X337422Y420134D01*
X337345Y420051D01*
X337270Y419965D01*
X337199Y419877D01*
X337131Y419787D01*
X337066Y419694D01*
X337004Y419599D01*
X336946Y419502D01*
X336891Y419403D01*
X336840Y419302D01*
X336792Y419199D01*
X336747Y419095D01*
X336707Y418989D01*
X336670Y418882D01*
X336637Y418774D01*
X336607Y418664D01*
X336582Y418554D01*
X336560Y418443D01*
X336543Y418331D01*
X336529Y418218D01*
X336519Y418105D01*
X336513Y417992D01*
X336511Y417879D01*
X336513Y417766D01*
X336519Y417653D01*
X336529Y417540D01*
X336543Y417427D01*
X336560Y417315D01*
X336582Y417204D01*
X336607Y417094D01*
X336637Y416984D01*
X336670Y416876D01*
X336707Y416769D01*
X336747Y416663D01*
X336792Y416559D01*
X336840Y416456D01*
X336891Y416355D01*
X336946Y416256D01*
X337004Y416159D01*
X337066Y416064D01*
X337131Y415971D01*
X337199Y415881D01*
X337270Y415793D01*
X337345Y415707D01*
X337422Y415624D01*
X337502Y415544D01*
X337585Y415467D01*
X337671Y415392D01*
X337759Y415321D01*
X337849Y415253D01*
X337942Y415188D01*
X338037Y415126D01*
X338134Y415068D01*
X338233Y415013D01*
X338334Y414962D01*
X338437Y414914D01*
X338541Y414869D01*
X338647Y414829D01*
X338754Y414792D01*
X338862Y414759D01*
X338972Y414729D01*
X339082Y414704D01*
X339193Y414682D01*
X339305Y414665D01*
X339418Y414651D01*
X339531Y414641D01*
X339644Y414635D01*
X339757Y414633D01*
X343003Y414633D01*
X339108Y414633D02*
X336512Y409440D01*
X331647Y418528D02*
X328401Y421124D01*
X328401Y409440D01*
X325156Y409440D02*
X331647Y409440D01*
X320217Y415931D02*
X316322Y415931D01*
X316223Y415929D01*
X316123Y415923D01*
X316024Y415914D01*
X315926Y415901D01*
X315828Y415884D01*
X315730Y415863D01*
X315634Y415838D01*
X315539Y415810D01*
X315445Y415778D01*
X315352Y415743D01*
X315260Y415704D01*
X315170Y415661D01*
X315082Y415616D01*
X314995Y415566D01*
X314911Y415514D01*
X314828Y415458D01*
X314748Y415400D01*
X314670Y415338D01*
X314595Y415273D01*
X314522Y415205D01*
X314452Y415135D01*
X314384Y415062D01*
X314319Y414987D01*
X314257Y414909D01*
X314199Y414829D01*
X314143Y414746D01*
X314091Y414662D01*
X314041Y414575D01*
X313996Y414487D01*
X313953Y414397D01*
X313914Y414305D01*
X313879Y414212D01*
X313847Y414118D01*
X313819Y414023D01*
X313794Y413927D01*
X313773Y413829D01*
X313756Y413731D01*
X313743Y413633D01*
X313734Y413534D01*
X313728Y413434D01*
X313726Y413335D01*
X313726Y412686D01*
X313725Y412686D02*
X313727Y412573D01*
X313733Y412460D01*
X313743Y412347D01*
X313757Y412234D01*
X313774Y412122D01*
X313796Y412011D01*
X313821Y411901D01*
X313851Y411791D01*
X313884Y411683D01*
X313921Y411576D01*
X313961Y411470D01*
X314006Y411366D01*
X314054Y411263D01*
X314105Y411162D01*
X314160Y411063D01*
X314218Y410966D01*
X314280Y410871D01*
X314345Y410778D01*
X314413Y410688D01*
X314484Y410600D01*
X314559Y410514D01*
X314636Y410431D01*
X314716Y410351D01*
X314799Y410274D01*
X314885Y410199D01*
X314973Y410128D01*
X315063Y410060D01*
X315156Y409995D01*
X315251Y409933D01*
X315348Y409875D01*
X315447Y409820D01*
X315548Y409769D01*
X315651Y409721D01*
X315755Y409676D01*
X315861Y409636D01*
X315968Y409599D01*
X316076Y409566D01*
X316186Y409536D01*
X316296Y409511D01*
X316407Y409489D01*
X316519Y409472D01*
X316632Y409458D01*
X316745Y409448D01*
X316858Y409442D01*
X316971Y409440D01*
X317084Y409442D01*
X317197Y409448D01*
X317310Y409458D01*
X317423Y409472D01*
X317535Y409489D01*
X317646Y409511D01*
X317756Y409536D01*
X317866Y409566D01*
X317974Y409599D01*
X318081Y409636D01*
X318187Y409676D01*
X318291Y409721D01*
X318394Y409769D01*
X318495Y409820D01*
X318594Y409875D01*
X318691Y409933D01*
X318786Y409995D01*
X318879Y410060D01*
X318969Y410128D01*
X319057Y410199D01*
X319143Y410274D01*
X319226Y410351D01*
X319306Y410431D01*
X319383Y410514D01*
X319458Y410600D01*
X319529Y410688D01*
X319597Y410778D01*
X319662Y410871D01*
X319724Y410966D01*
X319782Y411063D01*
X319837Y411162D01*
X319888Y411263D01*
X319936Y411366D01*
X319981Y411470D01*
X320021Y411576D01*
X320058Y411683D01*
X320091Y411791D01*
X320121Y411901D01*
X320146Y412011D01*
X320168Y412122D01*
X320185Y412234D01*
X320199Y412347D01*
X320209Y412460D01*
X320215Y412573D01*
X320217Y412686D01*
X320217Y415931D01*
X320215Y416074D01*
X320209Y416217D01*
X320199Y416360D01*
X320185Y416502D01*
X320168Y416644D01*
X320146Y416786D01*
X320121Y416927D01*
X320091Y417067D01*
X320058Y417206D01*
X320021Y417344D01*
X319980Y417481D01*
X319936Y417617D01*
X319887Y417752D01*
X319835Y417885D01*
X319780Y418017D01*
X319720Y418147D01*
X319657Y418276D01*
X319591Y418403D01*
X319521Y418528D01*
X319448Y418650D01*
X319371Y418771D01*
X319291Y418890D01*
X319208Y419006D01*
X319122Y419121D01*
X319033Y419232D01*
X318940Y419342D01*
X318845Y419448D01*
X318746Y419552D01*
X318645Y419653D01*
X318541Y419752D01*
X318435Y419847D01*
X318325Y419940D01*
X318214Y420029D01*
X318099Y420115D01*
X317983Y420198D01*
X317864Y420278D01*
X317743Y420355D01*
X317621Y420428D01*
X317496Y420498D01*
X317369Y420564D01*
X317240Y420627D01*
X317110Y420687D01*
X316978Y420742D01*
X316845Y420794D01*
X316710Y420843D01*
X316574Y420887D01*
X316437Y420928D01*
X316299Y420965D01*
X316160Y420998D01*
X316020Y421028D01*
X315879Y421053D01*
X315737Y421075D01*
X315595Y421092D01*
X315453Y421106D01*
X315310Y421116D01*
X315167Y421122D01*
X315024Y421124D01*
X199280Y420489D02*
X199280Y408805D01*
X199280Y420489D02*
X196034Y420489D01*
X196034Y420490D02*
X195921Y420488D01*
X195808Y420482D01*
X195695Y420472D01*
X195582Y420458D01*
X195470Y420441D01*
X195359Y420419D01*
X195249Y420394D01*
X195139Y420364D01*
X195031Y420331D01*
X194924Y420294D01*
X194818Y420254D01*
X194714Y420209D01*
X194611Y420161D01*
X194510Y420110D01*
X194411Y420055D01*
X194314Y419997D01*
X194219Y419935D01*
X194126Y419870D01*
X194036Y419802D01*
X193948Y419731D01*
X193862Y419656D01*
X193779Y419579D01*
X193699Y419499D01*
X193622Y419416D01*
X193547Y419330D01*
X193476Y419242D01*
X193408Y419152D01*
X193343Y419059D01*
X193281Y418964D01*
X193223Y418867D01*
X193168Y418768D01*
X193117Y418667D01*
X193069Y418564D01*
X193024Y418460D01*
X192984Y418354D01*
X192947Y418247D01*
X192914Y418139D01*
X192884Y418029D01*
X192859Y417919D01*
X192837Y417808D01*
X192820Y417696D01*
X192806Y417583D01*
X192796Y417470D01*
X192790Y417357D01*
X192788Y417244D01*
X192790Y417131D01*
X192796Y417018D01*
X192806Y416905D01*
X192820Y416792D01*
X192837Y416680D01*
X192859Y416569D01*
X192884Y416459D01*
X192914Y416349D01*
X192947Y416241D01*
X192984Y416134D01*
X193024Y416028D01*
X193069Y415924D01*
X193117Y415821D01*
X193168Y415720D01*
X193223Y415621D01*
X193281Y415524D01*
X193343Y415429D01*
X193408Y415336D01*
X193476Y415246D01*
X193547Y415158D01*
X193622Y415072D01*
X193699Y414989D01*
X193779Y414909D01*
X193862Y414832D01*
X193948Y414757D01*
X194036Y414686D01*
X194126Y414618D01*
X194219Y414553D01*
X194314Y414491D01*
X194411Y414433D01*
X194510Y414378D01*
X194611Y414327D01*
X194714Y414279D01*
X194818Y414234D01*
X194924Y414194D01*
X195031Y414157D01*
X195139Y414124D01*
X195249Y414094D01*
X195359Y414069D01*
X195470Y414047D01*
X195582Y414030D01*
X195695Y414016D01*
X195808Y414006D01*
X195921Y414000D01*
X196034Y413998D01*
X199280Y413998D01*
X195385Y413998D02*
X192789Y408805D01*
X187923Y417893D02*
X184678Y420489D01*
X184678Y408805D01*
X187923Y408805D02*
X181432Y408805D01*
X176493Y419191D02*
X176493Y420489D01*
X170002Y420489D01*
X173248Y408805D01*
X236278Y408418D02*
X236278Y420102D01*
X233032Y420102D01*
X232919Y420100D01*
X232806Y420094D01*
X232693Y420084D01*
X232580Y420070D01*
X232468Y420053D01*
X232357Y420031D01*
X232247Y420006D01*
X232137Y419976D01*
X232029Y419943D01*
X231922Y419906D01*
X231816Y419866D01*
X231712Y419821D01*
X231609Y419773D01*
X231508Y419722D01*
X231409Y419667D01*
X231312Y419609D01*
X231217Y419547D01*
X231124Y419482D01*
X231034Y419414D01*
X230946Y419343D01*
X230860Y419268D01*
X230777Y419191D01*
X230697Y419111D01*
X230620Y419028D01*
X230545Y418942D01*
X230474Y418854D01*
X230406Y418764D01*
X230341Y418671D01*
X230279Y418576D01*
X230221Y418479D01*
X230166Y418380D01*
X230115Y418279D01*
X230067Y418176D01*
X230022Y418072D01*
X229982Y417966D01*
X229945Y417859D01*
X229912Y417751D01*
X229882Y417641D01*
X229857Y417531D01*
X229835Y417420D01*
X229818Y417308D01*
X229804Y417195D01*
X229794Y417082D01*
X229788Y416969D01*
X229786Y416856D01*
X229788Y416743D01*
X229794Y416630D01*
X229804Y416517D01*
X229818Y416404D01*
X229835Y416292D01*
X229857Y416181D01*
X229882Y416071D01*
X229912Y415961D01*
X229945Y415853D01*
X229982Y415746D01*
X230022Y415640D01*
X230067Y415536D01*
X230115Y415433D01*
X230166Y415332D01*
X230221Y415233D01*
X230279Y415136D01*
X230341Y415041D01*
X230406Y414948D01*
X230474Y414858D01*
X230545Y414770D01*
X230620Y414684D01*
X230697Y414601D01*
X230777Y414521D01*
X230860Y414444D01*
X230946Y414369D01*
X231034Y414298D01*
X231124Y414230D01*
X231217Y414165D01*
X231312Y414103D01*
X231409Y414045D01*
X231508Y413990D01*
X231609Y413939D01*
X231712Y413891D01*
X231816Y413846D01*
X231922Y413806D01*
X232029Y413769D01*
X232137Y413736D01*
X232247Y413706D01*
X232357Y413681D01*
X232468Y413659D01*
X232580Y413642D01*
X232693Y413628D01*
X232806Y413618D01*
X232919Y413612D01*
X233032Y413610D01*
X233032Y413611D02*
X236278Y413611D01*
X232383Y413611D02*
X229787Y408418D01*
X224922Y417505D02*
X221676Y420102D01*
X221676Y408418D01*
X224922Y408418D02*
X218430Y408418D01*
X213492Y411663D02*
X213490Y411776D01*
X213484Y411889D01*
X213474Y412002D01*
X213460Y412115D01*
X213443Y412227D01*
X213421Y412338D01*
X213396Y412448D01*
X213366Y412558D01*
X213333Y412666D01*
X213296Y412773D01*
X213256Y412879D01*
X213211Y412983D01*
X213163Y413086D01*
X213112Y413187D01*
X213057Y413286D01*
X212999Y413383D01*
X212937Y413478D01*
X212872Y413571D01*
X212804Y413661D01*
X212733Y413749D01*
X212658Y413835D01*
X212581Y413918D01*
X212501Y413998D01*
X212418Y414075D01*
X212332Y414150D01*
X212244Y414221D01*
X212154Y414289D01*
X212061Y414354D01*
X211966Y414416D01*
X211869Y414474D01*
X211770Y414529D01*
X211669Y414580D01*
X211566Y414628D01*
X211462Y414673D01*
X211356Y414713D01*
X211249Y414750D01*
X211141Y414783D01*
X211031Y414813D01*
X210921Y414838D01*
X210810Y414860D01*
X210698Y414877D01*
X210585Y414891D01*
X210472Y414901D01*
X210359Y414907D01*
X210246Y414909D01*
X210133Y414907D01*
X210020Y414901D01*
X209907Y414891D01*
X209794Y414877D01*
X209682Y414860D01*
X209571Y414838D01*
X209461Y414813D01*
X209351Y414783D01*
X209243Y414750D01*
X209136Y414713D01*
X209030Y414673D01*
X208926Y414628D01*
X208823Y414580D01*
X208722Y414529D01*
X208623Y414474D01*
X208526Y414416D01*
X208431Y414354D01*
X208338Y414289D01*
X208248Y414221D01*
X208160Y414150D01*
X208074Y414075D01*
X207991Y413998D01*
X207911Y413918D01*
X207834Y413835D01*
X207759Y413749D01*
X207688Y413661D01*
X207620Y413571D01*
X207555Y413478D01*
X207493Y413383D01*
X207435Y413286D01*
X207380Y413187D01*
X207329Y413086D01*
X207281Y412983D01*
X207236Y412879D01*
X207196Y412773D01*
X207159Y412666D01*
X207126Y412558D01*
X207096Y412448D01*
X207071Y412338D01*
X207049Y412227D01*
X207032Y412115D01*
X207018Y412002D01*
X207008Y411889D01*
X207002Y411776D01*
X207000Y411663D01*
X207002Y411550D01*
X207008Y411437D01*
X207018Y411324D01*
X207032Y411211D01*
X207049Y411099D01*
X207071Y410988D01*
X207096Y410878D01*
X207126Y410768D01*
X207159Y410660D01*
X207196Y410553D01*
X207236Y410447D01*
X207281Y410343D01*
X207329Y410240D01*
X207380Y410139D01*
X207435Y410040D01*
X207493Y409943D01*
X207555Y409848D01*
X207620Y409755D01*
X207688Y409665D01*
X207759Y409577D01*
X207834Y409491D01*
X207911Y409408D01*
X207991Y409328D01*
X208074Y409251D01*
X208160Y409176D01*
X208248Y409105D01*
X208338Y409037D01*
X208431Y408972D01*
X208526Y408910D01*
X208623Y408852D01*
X208722Y408797D01*
X208823Y408746D01*
X208926Y408698D01*
X209030Y408653D01*
X209136Y408613D01*
X209243Y408576D01*
X209351Y408543D01*
X209461Y408513D01*
X209571Y408488D01*
X209682Y408466D01*
X209794Y408449D01*
X209907Y408435D01*
X210020Y408425D01*
X210133Y408419D01*
X210246Y408417D01*
X210359Y408419D01*
X210472Y408425D01*
X210585Y408435D01*
X210698Y408449D01*
X210810Y408466D01*
X210921Y408488D01*
X211031Y408513D01*
X211141Y408543D01*
X211249Y408576D01*
X211356Y408613D01*
X211462Y408653D01*
X211566Y408698D01*
X211669Y408746D01*
X211770Y408797D01*
X211869Y408852D01*
X211966Y408910D01*
X212061Y408972D01*
X212154Y409037D01*
X212244Y409105D01*
X212332Y409176D01*
X212418Y409251D01*
X212501Y409328D01*
X212581Y409408D01*
X212658Y409491D01*
X212733Y409577D01*
X212804Y409665D01*
X212872Y409755D01*
X212937Y409848D01*
X212999Y409943D01*
X213057Y410040D01*
X213112Y410139D01*
X213163Y410240D01*
X213211Y410343D01*
X213256Y410447D01*
X213296Y410553D01*
X213333Y410660D01*
X213366Y410768D01*
X213396Y410878D01*
X213421Y410988D01*
X213443Y411099D01*
X213460Y411211D01*
X213474Y411324D01*
X213484Y411437D01*
X213490Y411550D01*
X213492Y411663D01*
X212842Y417505D02*
X212840Y417606D01*
X212834Y417706D01*
X212824Y417806D01*
X212811Y417906D01*
X212793Y418005D01*
X212772Y418104D01*
X212747Y418201D01*
X212718Y418298D01*
X212685Y418393D01*
X212649Y418487D01*
X212609Y418579D01*
X212566Y418670D01*
X212519Y418759D01*
X212469Y418846D01*
X212415Y418932D01*
X212358Y419015D01*
X212298Y419095D01*
X212235Y419174D01*
X212168Y419250D01*
X212099Y419323D01*
X212027Y419393D01*
X211953Y419461D01*
X211876Y419526D01*
X211796Y419587D01*
X211714Y419646D01*
X211630Y419701D01*
X211544Y419753D01*
X211456Y419802D01*
X211366Y419847D01*
X211274Y419889D01*
X211181Y419927D01*
X211086Y419961D01*
X210991Y419992D01*
X210894Y420019D01*
X210796Y420042D01*
X210697Y420062D01*
X210597Y420077D01*
X210497Y420089D01*
X210397Y420097D01*
X210296Y420101D01*
X210196Y420101D01*
X210095Y420097D01*
X209995Y420089D01*
X209895Y420077D01*
X209795Y420062D01*
X209696Y420042D01*
X209598Y420019D01*
X209501Y419992D01*
X209406Y419961D01*
X209311Y419927D01*
X209218Y419889D01*
X209126Y419847D01*
X209036Y419802D01*
X208948Y419753D01*
X208862Y419701D01*
X208778Y419646D01*
X208696Y419587D01*
X208616Y419526D01*
X208539Y419461D01*
X208465Y419393D01*
X208393Y419323D01*
X208324Y419250D01*
X208257Y419174D01*
X208194Y419095D01*
X208134Y419015D01*
X208077Y418932D01*
X208023Y418846D01*
X207973Y418759D01*
X207926Y418670D01*
X207883Y418579D01*
X207843Y418487D01*
X207807Y418393D01*
X207774Y418298D01*
X207745Y418201D01*
X207720Y418104D01*
X207699Y418005D01*
X207681Y417906D01*
X207668Y417806D01*
X207658Y417706D01*
X207652Y417606D01*
X207650Y417505D01*
X207652Y417404D01*
X207658Y417304D01*
X207668Y417204D01*
X207681Y417104D01*
X207699Y417005D01*
X207720Y416906D01*
X207745Y416809D01*
X207774Y416712D01*
X207807Y416617D01*
X207843Y416523D01*
X207883Y416431D01*
X207926Y416340D01*
X207973Y416251D01*
X208023Y416164D01*
X208077Y416078D01*
X208134Y415995D01*
X208194Y415915D01*
X208257Y415836D01*
X208324Y415760D01*
X208393Y415687D01*
X208465Y415617D01*
X208539Y415549D01*
X208616Y415484D01*
X208696Y415423D01*
X208778Y415364D01*
X208862Y415309D01*
X208948Y415257D01*
X209036Y415208D01*
X209126Y415163D01*
X209218Y415121D01*
X209311Y415083D01*
X209406Y415049D01*
X209501Y415018D01*
X209598Y414991D01*
X209696Y414968D01*
X209795Y414948D01*
X209895Y414933D01*
X209995Y414921D01*
X210095Y414913D01*
X210196Y414909D01*
X210296Y414909D01*
X210397Y414913D01*
X210497Y414921D01*
X210597Y414933D01*
X210697Y414948D01*
X210796Y414968D01*
X210894Y414991D01*
X210991Y415018D01*
X211086Y415049D01*
X211181Y415083D01*
X211274Y415121D01*
X211366Y415163D01*
X211456Y415208D01*
X211544Y415257D01*
X211630Y415309D01*
X211714Y415364D01*
X211796Y415423D01*
X211876Y415484D01*
X211953Y415549D01*
X212027Y415617D01*
X212099Y415687D01*
X212168Y415760D01*
X212235Y415836D01*
X212298Y415915D01*
X212358Y415995D01*
X212415Y416078D01*
X212469Y416164D01*
X212519Y416251D01*
X212566Y416340D01*
X212609Y416431D01*
X212649Y416523D01*
X212685Y416617D01*
X212718Y416712D01*
X212747Y416809D01*
X212772Y416906D01*
X212793Y417005D01*
X212811Y417104D01*
X212824Y417204D01*
X212834Y417304D01*
X212840Y417404D01*
X212842Y417505D01*
X268428Y419733D02*
X268428Y408049D01*
X268428Y419733D02*
X265182Y419733D01*
X265069Y419731D01*
X264956Y419725D01*
X264843Y419715D01*
X264730Y419701D01*
X264618Y419684D01*
X264507Y419662D01*
X264397Y419637D01*
X264287Y419607D01*
X264179Y419574D01*
X264072Y419537D01*
X263966Y419497D01*
X263862Y419452D01*
X263759Y419404D01*
X263658Y419353D01*
X263559Y419298D01*
X263462Y419240D01*
X263367Y419178D01*
X263274Y419113D01*
X263184Y419045D01*
X263096Y418974D01*
X263010Y418899D01*
X262927Y418822D01*
X262847Y418742D01*
X262770Y418659D01*
X262695Y418573D01*
X262624Y418485D01*
X262556Y418395D01*
X262491Y418302D01*
X262429Y418207D01*
X262371Y418110D01*
X262316Y418011D01*
X262265Y417910D01*
X262217Y417807D01*
X262172Y417703D01*
X262132Y417597D01*
X262095Y417490D01*
X262062Y417382D01*
X262032Y417272D01*
X262007Y417162D01*
X261985Y417051D01*
X261968Y416939D01*
X261954Y416826D01*
X261944Y416713D01*
X261938Y416600D01*
X261936Y416487D01*
X261938Y416374D01*
X261944Y416261D01*
X261954Y416148D01*
X261968Y416035D01*
X261985Y415923D01*
X262007Y415812D01*
X262032Y415702D01*
X262062Y415592D01*
X262095Y415484D01*
X262132Y415377D01*
X262172Y415271D01*
X262217Y415167D01*
X262265Y415064D01*
X262316Y414963D01*
X262371Y414864D01*
X262429Y414767D01*
X262491Y414672D01*
X262556Y414579D01*
X262624Y414489D01*
X262695Y414401D01*
X262770Y414315D01*
X262847Y414232D01*
X262927Y414152D01*
X263010Y414075D01*
X263096Y414000D01*
X263184Y413929D01*
X263274Y413861D01*
X263367Y413796D01*
X263462Y413734D01*
X263559Y413676D01*
X263658Y413621D01*
X263759Y413570D01*
X263862Y413522D01*
X263966Y413477D01*
X264072Y413437D01*
X264179Y413400D01*
X264287Y413367D01*
X264397Y413337D01*
X264507Y413312D01*
X264618Y413290D01*
X264730Y413273D01*
X264843Y413259D01*
X264956Y413249D01*
X265069Y413243D01*
X265182Y413241D01*
X265182Y413242D02*
X268428Y413242D01*
X264533Y413242D02*
X261937Y408049D01*
X257072Y417136D02*
X253826Y419733D01*
X253826Y408049D01*
X257072Y408049D02*
X250580Y408049D01*
D172*
X112705Y402525D02*
X112705Y342525D01*
X147705Y342525D02*
X147705Y402525D01*
D174*
X155167Y351344D02*
X155088Y351342D01*
X155009Y351336D01*
X154931Y351327D01*
X154853Y351313D01*
X154776Y351296D01*
X154699Y351275D01*
X154624Y351250D01*
X154551Y351221D01*
X154478Y351189D01*
X154408Y351154D01*
X154339Y351115D01*
X154272Y351073D01*
X154207Y351027D01*
X154145Y350978D01*
X154085Y350927D01*
X154028Y350872D01*
X153973Y350815D01*
X153922Y350755D01*
X153873Y350693D01*
X153828Y350628D01*
X153785Y350561D01*
X153746Y350492D01*
X153711Y350422D01*
X153679Y350350D01*
X153650Y350276D01*
X153625Y350201D01*
X153604Y350124D01*
X153587Y350047D01*
X153573Y349969D01*
X153564Y349891D01*
X153558Y349812D01*
X153556Y349733D01*
X153555Y349733D02*
X153557Y349621D01*
X153562Y349509D01*
X153572Y349398D01*
X153584Y349287D01*
X153601Y349176D01*
X153621Y349066D01*
X153645Y348956D01*
X153672Y348848D01*
X153703Y348740D01*
X153737Y348634D01*
X153775Y348528D01*
X153817Y348424D01*
X153862Y348322D01*
X153910Y348220D01*
X153961Y348121D01*
X154016Y348023D01*
X154073Y347927D01*
X154134Y347834D01*
X154198Y347742D01*
X154265Y347652D01*
X154335Y347565D01*
X154408Y347479D01*
X154484Y347397D01*
X154562Y347317D01*
X159194Y347518D02*
X159273Y347520D01*
X159352Y347526D01*
X159430Y347535D01*
X159508Y347549D01*
X159585Y347566D01*
X159662Y347587D01*
X159737Y347612D01*
X159810Y347641D01*
X159883Y347673D01*
X159953Y347708D01*
X160022Y347747D01*
X160089Y347789D01*
X160154Y347835D01*
X160216Y347884D01*
X160276Y347935D01*
X160333Y347990D01*
X160388Y348047D01*
X160439Y348107D01*
X160488Y348169D01*
X160533Y348234D01*
X160576Y348301D01*
X160615Y348370D01*
X160650Y348440D01*
X160682Y348512D01*
X160711Y348586D01*
X160736Y348661D01*
X160757Y348738D01*
X160774Y348815D01*
X160788Y348893D01*
X160797Y348971D01*
X160803Y349050D01*
X160805Y349129D01*
X160804Y349129D02*
X160802Y349237D01*
X160796Y349345D01*
X160787Y349452D01*
X160773Y349559D01*
X160756Y349666D01*
X160735Y349772D01*
X160710Y349877D01*
X160681Y349981D01*
X160649Y350084D01*
X160613Y350186D01*
X160573Y350286D01*
X160530Y350385D01*
X160484Y350483D01*
X160434Y350578D01*
X160380Y350672D01*
X160323Y350764D01*
X160263Y350854D01*
X160200Y350941D01*
X157785Y348323D02*
X157825Y348258D01*
X157869Y348194D01*
X157916Y348133D01*
X157965Y348074D01*
X158018Y348017D01*
X158073Y347963D01*
X158130Y347911D01*
X158190Y347862D01*
X158252Y347816D01*
X158316Y347773D01*
X158382Y347734D01*
X158450Y347697D01*
X158520Y347663D01*
X158591Y347633D01*
X158663Y347606D01*
X158737Y347583D01*
X158812Y347563D01*
X158887Y347547D01*
X158963Y347534D01*
X159040Y347525D01*
X159117Y347520D01*
X159194Y347518D01*
X156576Y350539D02*
X156536Y350604D01*
X156492Y350668D01*
X156445Y350729D01*
X156396Y350788D01*
X156343Y350845D01*
X156288Y350899D01*
X156231Y350951D01*
X156171Y351000D01*
X156109Y351046D01*
X156045Y351089D01*
X155979Y351128D01*
X155911Y351165D01*
X155841Y351199D01*
X155770Y351229D01*
X155698Y351256D01*
X155624Y351279D01*
X155549Y351299D01*
X155474Y351315D01*
X155398Y351328D01*
X155321Y351337D01*
X155244Y351342D01*
X155167Y351344D01*
X156576Y350538D02*
X157784Y348323D01*
X160804Y354039D02*
X153556Y355650D01*
X158388Y357261D01*
X153556Y358872D01*
X160804Y360482D01*
X159194Y363418D02*
X160804Y365432D01*
X153556Y365432D01*
X153556Y367445D02*
X153556Y363418D01*
D173*
X148417Y300634D02*
X148417Y288950D01*
X148417Y300634D02*
X145171Y300634D01*
X145171Y300635D02*
X145058Y300633D01*
X144945Y300627D01*
X144832Y300617D01*
X144719Y300603D01*
X144607Y300586D01*
X144496Y300564D01*
X144386Y300539D01*
X144276Y300509D01*
X144168Y300476D01*
X144061Y300439D01*
X143955Y300399D01*
X143851Y300354D01*
X143748Y300306D01*
X143647Y300255D01*
X143548Y300200D01*
X143451Y300142D01*
X143356Y300080D01*
X143263Y300015D01*
X143173Y299947D01*
X143085Y299876D01*
X142999Y299801D01*
X142916Y299724D01*
X142836Y299644D01*
X142759Y299561D01*
X142684Y299475D01*
X142613Y299387D01*
X142545Y299297D01*
X142480Y299204D01*
X142418Y299109D01*
X142360Y299012D01*
X142305Y298913D01*
X142254Y298812D01*
X142206Y298709D01*
X142161Y298605D01*
X142121Y298499D01*
X142084Y298392D01*
X142051Y298284D01*
X142021Y298174D01*
X141996Y298064D01*
X141974Y297953D01*
X141957Y297841D01*
X141943Y297728D01*
X141933Y297615D01*
X141927Y297502D01*
X141925Y297389D01*
X141927Y297276D01*
X141933Y297163D01*
X141943Y297050D01*
X141957Y296937D01*
X141974Y296825D01*
X141996Y296714D01*
X142021Y296604D01*
X142051Y296494D01*
X142084Y296386D01*
X142121Y296279D01*
X142161Y296173D01*
X142206Y296069D01*
X142254Y295966D01*
X142305Y295865D01*
X142360Y295766D01*
X142418Y295669D01*
X142480Y295574D01*
X142545Y295481D01*
X142613Y295391D01*
X142684Y295303D01*
X142759Y295217D01*
X142836Y295134D01*
X142916Y295054D01*
X142999Y294977D01*
X143085Y294902D01*
X143173Y294831D01*
X143263Y294763D01*
X143356Y294698D01*
X143451Y294636D01*
X143548Y294578D01*
X143647Y294523D01*
X143748Y294472D01*
X143851Y294424D01*
X143955Y294379D01*
X144061Y294339D01*
X144168Y294302D01*
X144276Y294269D01*
X144386Y294239D01*
X144496Y294214D01*
X144607Y294192D01*
X144719Y294175D01*
X144832Y294161D01*
X144945Y294151D01*
X145058Y294145D01*
X145171Y294143D01*
X148417Y294143D01*
X144522Y294143D02*
X141926Y288950D01*
X137060Y298038D02*
X133815Y300634D01*
X133815Y288950D01*
X137060Y288950D02*
X130569Y288950D01*
X123034Y294143D02*
X119139Y294143D01*
X123034Y294144D02*
X123133Y294146D01*
X123233Y294152D01*
X123332Y294161D01*
X123430Y294174D01*
X123528Y294191D01*
X123626Y294212D01*
X123722Y294237D01*
X123817Y294265D01*
X123911Y294297D01*
X124004Y294332D01*
X124096Y294371D01*
X124186Y294414D01*
X124274Y294459D01*
X124361Y294509D01*
X124445Y294561D01*
X124528Y294617D01*
X124608Y294675D01*
X124686Y294737D01*
X124761Y294802D01*
X124834Y294870D01*
X124904Y294940D01*
X124972Y295013D01*
X125037Y295088D01*
X125099Y295166D01*
X125157Y295246D01*
X125213Y295329D01*
X125265Y295413D01*
X125315Y295500D01*
X125360Y295588D01*
X125403Y295678D01*
X125442Y295770D01*
X125477Y295863D01*
X125509Y295957D01*
X125537Y296052D01*
X125562Y296148D01*
X125583Y296246D01*
X125600Y296344D01*
X125613Y296442D01*
X125622Y296541D01*
X125628Y296641D01*
X125630Y296740D01*
X125630Y297389D01*
X125631Y297389D02*
X125629Y297502D01*
X125623Y297615D01*
X125613Y297728D01*
X125599Y297841D01*
X125582Y297953D01*
X125560Y298064D01*
X125535Y298174D01*
X125505Y298284D01*
X125472Y298392D01*
X125435Y298499D01*
X125395Y298605D01*
X125350Y298709D01*
X125302Y298812D01*
X125251Y298913D01*
X125196Y299012D01*
X125138Y299109D01*
X125076Y299204D01*
X125011Y299297D01*
X124943Y299387D01*
X124872Y299475D01*
X124797Y299561D01*
X124720Y299644D01*
X124640Y299724D01*
X124557Y299801D01*
X124471Y299876D01*
X124383Y299947D01*
X124293Y300015D01*
X124200Y300080D01*
X124105Y300142D01*
X124008Y300200D01*
X123909Y300255D01*
X123808Y300306D01*
X123705Y300354D01*
X123601Y300399D01*
X123495Y300439D01*
X123388Y300476D01*
X123280Y300509D01*
X123170Y300539D01*
X123060Y300564D01*
X122949Y300586D01*
X122837Y300603D01*
X122724Y300617D01*
X122611Y300627D01*
X122498Y300633D01*
X122385Y300635D01*
X122272Y300633D01*
X122159Y300627D01*
X122046Y300617D01*
X121933Y300603D01*
X121821Y300586D01*
X121710Y300564D01*
X121600Y300539D01*
X121490Y300509D01*
X121382Y300476D01*
X121275Y300439D01*
X121169Y300399D01*
X121065Y300354D01*
X120962Y300306D01*
X120861Y300255D01*
X120762Y300200D01*
X120665Y300142D01*
X120570Y300080D01*
X120477Y300015D01*
X120387Y299947D01*
X120299Y299876D01*
X120213Y299801D01*
X120130Y299724D01*
X120050Y299644D01*
X119973Y299561D01*
X119898Y299475D01*
X119827Y299387D01*
X119759Y299297D01*
X119694Y299204D01*
X119632Y299109D01*
X119574Y299012D01*
X119519Y298913D01*
X119468Y298812D01*
X119420Y298709D01*
X119375Y298605D01*
X119335Y298499D01*
X119298Y298392D01*
X119265Y298284D01*
X119235Y298174D01*
X119210Y298064D01*
X119188Y297953D01*
X119171Y297841D01*
X119157Y297728D01*
X119147Y297615D01*
X119141Y297502D01*
X119139Y297389D01*
X119139Y294143D01*
X119141Y294000D01*
X119147Y293857D01*
X119157Y293714D01*
X119171Y293572D01*
X119188Y293430D01*
X119210Y293288D01*
X119235Y293147D01*
X119265Y293007D01*
X119298Y292868D01*
X119335Y292730D01*
X119376Y292593D01*
X119420Y292457D01*
X119469Y292322D01*
X119521Y292189D01*
X119576Y292057D01*
X119636Y291927D01*
X119699Y291798D01*
X119765Y291671D01*
X119835Y291547D01*
X119908Y291424D01*
X119985Y291303D01*
X120065Y291184D01*
X120148Y291068D01*
X120234Y290953D01*
X120323Y290842D01*
X120416Y290732D01*
X120511Y290626D01*
X120610Y290522D01*
X120711Y290421D01*
X120815Y290322D01*
X120921Y290227D01*
X121031Y290134D01*
X121142Y290045D01*
X121257Y289959D01*
X121373Y289876D01*
X121492Y289796D01*
X121613Y289719D01*
X121735Y289646D01*
X121860Y289576D01*
X121987Y289510D01*
X122116Y289447D01*
X122246Y289387D01*
X122378Y289332D01*
X122511Y289280D01*
X122646Y289231D01*
X122782Y289187D01*
X122919Y289146D01*
X123057Y289109D01*
X123196Y289076D01*
X123336Y289046D01*
X123477Y289021D01*
X123619Y288999D01*
X123761Y288982D01*
X123903Y288968D01*
X124046Y288958D01*
X124189Y288952D01*
X124332Y288950D01*
D172*
X65239Y342849D02*
X65239Y402849D01*
X100239Y402849D02*
X100239Y342849D01*
D174*
X55835Y351660D02*
X55756Y351658D01*
X55677Y351652D01*
X55599Y351643D01*
X55521Y351629D01*
X55444Y351612D01*
X55367Y351591D01*
X55292Y351566D01*
X55219Y351537D01*
X55146Y351505D01*
X55076Y351470D01*
X55007Y351431D01*
X54940Y351389D01*
X54875Y351343D01*
X54813Y351294D01*
X54753Y351243D01*
X54696Y351188D01*
X54641Y351131D01*
X54590Y351071D01*
X54541Y351009D01*
X54496Y350944D01*
X54453Y350877D01*
X54414Y350808D01*
X54379Y350738D01*
X54347Y350666D01*
X54318Y350592D01*
X54293Y350517D01*
X54272Y350440D01*
X54255Y350363D01*
X54241Y350285D01*
X54232Y350207D01*
X54226Y350128D01*
X54224Y350049D01*
X54226Y349937D01*
X54231Y349825D01*
X54241Y349714D01*
X54253Y349603D01*
X54270Y349492D01*
X54290Y349382D01*
X54314Y349272D01*
X54341Y349164D01*
X54372Y349056D01*
X54406Y348950D01*
X54444Y348844D01*
X54486Y348740D01*
X54531Y348638D01*
X54579Y348536D01*
X54630Y348437D01*
X54685Y348339D01*
X54742Y348243D01*
X54803Y348150D01*
X54867Y348058D01*
X54934Y347968D01*
X55004Y347881D01*
X55077Y347795D01*
X55153Y347713D01*
X55231Y347633D01*
X59863Y347834D02*
X59942Y347836D01*
X60021Y347842D01*
X60099Y347851D01*
X60177Y347865D01*
X60254Y347882D01*
X60331Y347903D01*
X60406Y347928D01*
X60479Y347957D01*
X60552Y347989D01*
X60622Y348024D01*
X60691Y348063D01*
X60758Y348105D01*
X60823Y348151D01*
X60885Y348200D01*
X60945Y348251D01*
X61002Y348306D01*
X61057Y348363D01*
X61108Y348423D01*
X61157Y348485D01*
X61202Y348550D01*
X61245Y348617D01*
X61284Y348686D01*
X61319Y348756D01*
X61351Y348828D01*
X61380Y348902D01*
X61405Y348977D01*
X61426Y349054D01*
X61443Y349131D01*
X61457Y349209D01*
X61466Y349287D01*
X61472Y349366D01*
X61474Y349445D01*
X61473Y349445D02*
X61471Y349553D01*
X61465Y349661D01*
X61456Y349768D01*
X61442Y349875D01*
X61425Y349982D01*
X61404Y350088D01*
X61379Y350193D01*
X61350Y350297D01*
X61318Y350400D01*
X61282Y350502D01*
X61242Y350602D01*
X61199Y350701D01*
X61153Y350799D01*
X61103Y350894D01*
X61049Y350988D01*
X60992Y351080D01*
X60932Y351170D01*
X60869Y351257D01*
X58454Y348639D02*
X58494Y348574D01*
X58538Y348510D01*
X58585Y348449D01*
X58634Y348390D01*
X58687Y348333D01*
X58742Y348279D01*
X58799Y348227D01*
X58859Y348178D01*
X58921Y348132D01*
X58985Y348089D01*
X59051Y348050D01*
X59119Y348013D01*
X59189Y347979D01*
X59260Y347949D01*
X59332Y347922D01*
X59406Y347899D01*
X59481Y347879D01*
X59556Y347863D01*
X59632Y347850D01*
X59709Y347841D01*
X59786Y347836D01*
X59863Y347834D01*
X57244Y350854D02*
X57204Y350919D01*
X57160Y350983D01*
X57113Y351044D01*
X57064Y351103D01*
X57011Y351160D01*
X56956Y351214D01*
X56899Y351266D01*
X56839Y351315D01*
X56777Y351361D01*
X56713Y351404D01*
X56647Y351443D01*
X56579Y351480D01*
X56509Y351514D01*
X56438Y351544D01*
X56366Y351571D01*
X56292Y351594D01*
X56217Y351614D01*
X56142Y351630D01*
X56066Y351643D01*
X55989Y351652D01*
X55912Y351657D01*
X55835Y351659D01*
X57245Y350854D02*
X58453Y348639D01*
X61473Y354355D02*
X54225Y355966D01*
X59057Y357577D01*
X54225Y359187D01*
X61473Y360798D01*
X61473Y365949D02*
X61471Y366033D01*
X61465Y366116D01*
X61456Y366199D01*
X61442Y366282D01*
X61425Y366364D01*
X61404Y366445D01*
X61379Y366525D01*
X61351Y366604D01*
X61319Y366681D01*
X61283Y366757D01*
X61244Y366831D01*
X61202Y366903D01*
X61156Y366973D01*
X61107Y367041D01*
X61055Y367107D01*
X61000Y367170D01*
X60942Y367230D01*
X60882Y367288D01*
X60819Y367343D01*
X60753Y367395D01*
X60685Y367444D01*
X60615Y367490D01*
X60543Y367532D01*
X60469Y367571D01*
X60393Y367607D01*
X60316Y367639D01*
X60237Y367667D01*
X60157Y367692D01*
X60076Y367713D01*
X59994Y367730D01*
X59911Y367744D01*
X59828Y367753D01*
X59745Y367759D01*
X59661Y367761D01*
X61473Y365949D02*
X61471Y365855D01*
X61465Y365760D01*
X61456Y365666D01*
X61442Y365573D01*
X61425Y365480D01*
X61404Y365388D01*
X61380Y365297D01*
X61351Y365207D01*
X61320Y365118D01*
X61284Y365030D01*
X61245Y364944D01*
X61203Y364860D01*
X61157Y364777D01*
X61108Y364697D01*
X61055Y364618D01*
X61000Y364542D01*
X60941Y364468D01*
X60879Y364396D01*
X60815Y364327D01*
X60748Y364261D01*
X60678Y364197D01*
X60606Y364136D01*
X60531Y364079D01*
X60454Y364024D01*
X60375Y363972D01*
X60294Y363924D01*
X60211Y363879D01*
X60126Y363838D01*
X60039Y363800D01*
X59951Y363765D01*
X59862Y363734D01*
X58252Y367157D02*
X58314Y367219D01*
X58378Y367278D01*
X58445Y367334D01*
X58515Y367388D01*
X58587Y367438D01*
X58661Y367484D01*
X58737Y367528D01*
X58815Y367567D01*
X58894Y367604D01*
X58976Y367636D01*
X59058Y367665D01*
X59142Y367691D01*
X59227Y367712D01*
X59313Y367730D01*
X59399Y367743D01*
X59486Y367753D01*
X59573Y367759D01*
X59661Y367761D01*
X58252Y367157D02*
X54225Y363734D01*
X54225Y367761D01*
D173*
X90855Y300012D02*
X90855Y288328D01*
X90855Y300012D02*
X87609Y300012D01*
X87496Y300010D01*
X87383Y300004D01*
X87270Y299994D01*
X87157Y299980D01*
X87045Y299963D01*
X86934Y299941D01*
X86824Y299916D01*
X86714Y299886D01*
X86606Y299853D01*
X86499Y299816D01*
X86393Y299776D01*
X86289Y299731D01*
X86186Y299683D01*
X86085Y299632D01*
X85986Y299577D01*
X85889Y299519D01*
X85794Y299457D01*
X85701Y299392D01*
X85611Y299324D01*
X85523Y299253D01*
X85437Y299178D01*
X85354Y299101D01*
X85274Y299021D01*
X85197Y298938D01*
X85122Y298852D01*
X85051Y298764D01*
X84983Y298674D01*
X84918Y298581D01*
X84856Y298486D01*
X84798Y298389D01*
X84743Y298290D01*
X84692Y298189D01*
X84644Y298086D01*
X84599Y297982D01*
X84559Y297876D01*
X84522Y297769D01*
X84489Y297661D01*
X84459Y297551D01*
X84434Y297441D01*
X84412Y297330D01*
X84395Y297218D01*
X84381Y297105D01*
X84371Y296992D01*
X84365Y296879D01*
X84363Y296766D01*
X84365Y296653D01*
X84371Y296540D01*
X84381Y296427D01*
X84395Y296314D01*
X84412Y296202D01*
X84434Y296091D01*
X84459Y295981D01*
X84489Y295871D01*
X84522Y295763D01*
X84559Y295656D01*
X84599Y295550D01*
X84644Y295446D01*
X84692Y295343D01*
X84743Y295242D01*
X84798Y295143D01*
X84856Y295046D01*
X84918Y294951D01*
X84983Y294858D01*
X85051Y294768D01*
X85122Y294680D01*
X85197Y294594D01*
X85274Y294511D01*
X85354Y294431D01*
X85437Y294354D01*
X85523Y294279D01*
X85611Y294208D01*
X85701Y294140D01*
X85794Y294075D01*
X85889Y294013D01*
X85986Y293955D01*
X86085Y293900D01*
X86186Y293849D01*
X86289Y293801D01*
X86393Y293756D01*
X86499Y293716D01*
X86606Y293679D01*
X86714Y293646D01*
X86824Y293616D01*
X86934Y293591D01*
X87045Y293569D01*
X87157Y293552D01*
X87270Y293538D01*
X87383Y293528D01*
X87496Y293522D01*
X87609Y293520D01*
X90855Y293520D01*
X86960Y293520D02*
X84364Y288328D01*
X79498Y294819D02*
X75604Y294819D01*
X75604Y294818D02*
X75505Y294816D01*
X75405Y294810D01*
X75306Y294801D01*
X75208Y294788D01*
X75110Y294771D01*
X75012Y294750D01*
X74916Y294725D01*
X74821Y294697D01*
X74727Y294665D01*
X74634Y294630D01*
X74542Y294591D01*
X74452Y294548D01*
X74364Y294503D01*
X74277Y294453D01*
X74193Y294401D01*
X74110Y294345D01*
X74030Y294287D01*
X73952Y294225D01*
X73877Y294160D01*
X73804Y294092D01*
X73734Y294022D01*
X73666Y293949D01*
X73601Y293874D01*
X73539Y293796D01*
X73481Y293716D01*
X73425Y293633D01*
X73373Y293549D01*
X73323Y293462D01*
X73278Y293374D01*
X73235Y293284D01*
X73196Y293192D01*
X73161Y293099D01*
X73129Y293005D01*
X73101Y292910D01*
X73076Y292814D01*
X73055Y292716D01*
X73038Y292618D01*
X73025Y292520D01*
X73016Y292421D01*
X73010Y292321D01*
X73008Y292222D01*
X73007Y292222D02*
X73007Y291573D01*
X73009Y291460D01*
X73015Y291347D01*
X73025Y291234D01*
X73039Y291121D01*
X73056Y291009D01*
X73078Y290898D01*
X73103Y290788D01*
X73133Y290678D01*
X73166Y290570D01*
X73203Y290463D01*
X73243Y290357D01*
X73288Y290253D01*
X73336Y290150D01*
X73387Y290049D01*
X73442Y289950D01*
X73500Y289853D01*
X73562Y289758D01*
X73627Y289665D01*
X73695Y289575D01*
X73766Y289487D01*
X73841Y289401D01*
X73918Y289318D01*
X73998Y289238D01*
X74081Y289161D01*
X74167Y289086D01*
X74255Y289015D01*
X74345Y288947D01*
X74438Y288882D01*
X74533Y288820D01*
X74630Y288762D01*
X74729Y288707D01*
X74830Y288656D01*
X74933Y288608D01*
X75037Y288563D01*
X75143Y288523D01*
X75250Y288486D01*
X75358Y288453D01*
X75468Y288423D01*
X75578Y288398D01*
X75689Y288376D01*
X75801Y288359D01*
X75914Y288345D01*
X76027Y288335D01*
X76140Y288329D01*
X76253Y288327D01*
X76366Y288329D01*
X76479Y288335D01*
X76592Y288345D01*
X76705Y288359D01*
X76817Y288376D01*
X76928Y288398D01*
X77038Y288423D01*
X77148Y288453D01*
X77256Y288486D01*
X77363Y288523D01*
X77469Y288563D01*
X77573Y288608D01*
X77676Y288656D01*
X77777Y288707D01*
X77876Y288762D01*
X77973Y288820D01*
X78068Y288882D01*
X78161Y288947D01*
X78251Y289015D01*
X78339Y289086D01*
X78425Y289161D01*
X78508Y289238D01*
X78588Y289318D01*
X78665Y289401D01*
X78740Y289487D01*
X78811Y289575D01*
X78879Y289665D01*
X78944Y289758D01*
X79006Y289853D01*
X79064Y289950D01*
X79119Y290049D01*
X79170Y290150D01*
X79218Y290253D01*
X79263Y290357D01*
X79303Y290463D01*
X79340Y290570D01*
X79373Y290678D01*
X79403Y290788D01*
X79428Y290898D01*
X79450Y291009D01*
X79467Y291121D01*
X79481Y291234D01*
X79491Y291347D01*
X79497Y291460D01*
X79499Y291573D01*
X79498Y291573D02*
X79498Y294819D01*
X79496Y294962D01*
X79490Y295105D01*
X79480Y295248D01*
X79466Y295390D01*
X79449Y295532D01*
X79427Y295674D01*
X79402Y295815D01*
X79372Y295955D01*
X79339Y296094D01*
X79302Y296232D01*
X79261Y296369D01*
X79217Y296505D01*
X79168Y296640D01*
X79116Y296773D01*
X79061Y296905D01*
X79001Y297035D01*
X78938Y297164D01*
X78872Y297291D01*
X78802Y297416D01*
X78729Y297538D01*
X78652Y297659D01*
X78572Y297778D01*
X78489Y297894D01*
X78403Y298009D01*
X78314Y298120D01*
X78221Y298230D01*
X78126Y298336D01*
X78027Y298440D01*
X77926Y298541D01*
X77822Y298640D01*
X77716Y298735D01*
X77606Y298828D01*
X77495Y298917D01*
X77380Y299003D01*
X77264Y299086D01*
X77145Y299166D01*
X77024Y299243D01*
X76902Y299316D01*
X76777Y299386D01*
X76650Y299452D01*
X76521Y299515D01*
X76391Y299575D01*
X76259Y299630D01*
X76126Y299682D01*
X75991Y299731D01*
X75855Y299775D01*
X75718Y299816D01*
X75580Y299853D01*
X75441Y299886D01*
X75301Y299916D01*
X75160Y299941D01*
X75018Y299963D01*
X74876Y299980D01*
X74734Y299994D01*
X74591Y300004D01*
X74448Y300010D01*
X74305Y300012D01*
D172*
X14457Y343056D02*
X14457Y403056D01*
X49457Y403056D02*
X49457Y343056D01*
D174*
X4029Y351244D02*
X3950Y351242D01*
X3871Y351236D01*
X3793Y351227D01*
X3715Y351213D01*
X3638Y351196D01*
X3561Y351175D01*
X3486Y351150D01*
X3413Y351121D01*
X3340Y351089D01*
X3270Y351054D01*
X3201Y351015D01*
X3134Y350973D01*
X3069Y350927D01*
X3007Y350878D01*
X2947Y350827D01*
X2890Y350772D01*
X2835Y350715D01*
X2784Y350655D01*
X2735Y350593D01*
X2690Y350528D01*
X2647Y350461D01*
X2608Y350392D01*
X2573Y350322D01*
X2541Y350250D01*
X2512Y350176D01*
X2487Y350101D01*
X2466Y350024D01*
X2449Y349947D01*
X2435Y349869D01*
X2426Y349791D01*
X2420Y349712D01*
X2418Y349633D01*
X2420Y349521D01*
X2425Y349409D01*
X2435Y349298D01*
X2447Y349187D01*
X2464Y349076D01*
X2484Y348966D01*
X2508Y348856D01*
X2535Y348748D01*
X2566Y348640D01*
X2600Y348534D01*
X2638Y348428D01*
X2680Y348324D01*
X2725Y348222D01*
X2773Y348120D01*
X2824Y348021D01*
X2879Y347923D01*
X2936Y347827D01*
X2997Y347734D01*
X3061Y347642D01*
X3128Y347552D01*
X3198Y347465D01*
X3271Y347379D01*
X3347Y347297D01*
X3425Y347217D01*
X8056Y347418D02*
X8135Y347420D01*
X8214Y347426D01*
X8292Y347435D01*
X8370Y347449D01*
X8447Y347466D01*
X8524Y347487D01*
X8599Y347512D01*
X8672Y347541D01*
X8745Y347573D01*
X8815Y347608D01*
X8884Y347647D01*
X8951Y347689D01*
X9016Y347735D01*
X9078Y347784D01*
X9138Y347835D01*
X9195Y347890D01*
X9250Y347947D01*
X9301Y348007D01*
X9350Y348069D01*
X9395Y348134D01*
X9438Y348201D01*
X9477Y348270D01*
X9512Y348340D01*
X9544Y348412D01*
X9573Y348486D01*
X9598Y348561D01*
X9619Y348638D01*
X9636Y348715D01*
X9650Y348793D01*
X9659Y348871D01*
X9665Y348950D01*
X9667Y349029D01*
X9665Y349137D01*
X9659Y349245D01*
X9650Y349352D01*
X9636Y349459D01*
X9619Y349566D01*
X9598Y349672D01*
X9573Y349777D01*
X9544Y349881D01*
X9512Y349984D01*
X9476Y350086D01*
X9436Y350186D01*
X9393Y350285D01*
X9347Y350383D01*
X9297Y350478D01*
X9243Y350572D01*
X9186Y350664D01*
X9126Y350754D01*
X9063Y350841D01*
X6647Y348223D02*
X6687Y348158D01*
X6731Y348094D01*
X6778Y348033D01*
X6827Y347974D01*
X6880Y347917D01*
X6935Y347863D01*
X6992Y347811D01*
X7052Y347762D01*
X7114Y347716D01*
X7178Y347673D01*
X7244Y347634D01*
X7312Y347597D01*
X7382Y347563D01*
X7453Y347533D01*
X7525Y347506D01*
X7599Y347483D01*
X7674Y347463D01*
X7749Y347447D01*
X7825Y347434D01*
X7902Y347425D01*
X7979Y347420D01*
X8056Y347418D01*
X5438Y350439D02*
X5398Y350504D01*
X5354Y350568D01*
X5307Y350629D01*
X5258Y350688D01*
X5205Y350745D01*
X5150Y350799D01*
X5093Y350851D01*
X5033Y350900D01*
X4971Y350946D01*
X4907Y350989D01*
X4841Y351028D01*
X4773Y351065D01*
X4703Y351099D01*
X4632Y351129D01*
X4560Y351156D01*
X4486Y351179D01*
X4411Y351199D01*
X4336Y351215D01*
X4260Y351228D01*
X4183Y351237D01*
X4106Y351242D01*
X4029Y351244D01*
X5438Y350439D02*
X6647Y348224D01*
X9667Y353939D02*
X2418Y355550D01*
X7251Y357161D01*
X2418Y358772D01*
X9667Y360383D01*
X2418Y363319D02*
X2418Y365332D01*
X2420Y365420D01*
X2426Y365508D01*
X2435Y365595D01*
X2449Y365682D01*
X2466Y365768D01*
X2487Y365853D01*
X2511Y365938D01*
X2539Y366021D01*
X2571Y366103D01*
X2607Y366183D01*
X2646Y366262D01*
X2688Y366339D01*
X2733Y366414D01*
X2782Y366487D01*
X2834Y366558D01*
X2889Y366627D01*
X2947Y366693D01*
X3008Y366756D01*
X3071Y366817D01*
X3137Y366875D01*
X3206Y366930D01*
X3277Y366982D01*
X3350Y367031D01*
X3425Y367076D01*
X3502Y367118D01*
X3581Y367157D01*
X3661Y367193D01*
X3743Y367225D01*
X3826Y367253D01*
X3911Y367277D01*
X3996Y367298D01*
X4082Y367315D01*
X4169Y367329D01*
X4256Y367338D01*
X4344Y367344D01*
X4432Y367346D01*
X4520Y367344D01*
X4608Y367338D01*
X4695Y367329D01*
X4782Y367315D01*
X4868Y367298D01*
X4953Y367277D01*
X5038Y367253D01*
X5121Y367225D01*
X5203Y367193D01*
X5283Y367157D01*
X5362Y367118D01*
X5439Y367076D01*
X5514Y367031D01*
X5587Y366982D01*
X5658Y366930D01*
X5727Y366875D01*
X5793Y366817D01*
X5856Y366756D01*
X5917Y366693D01*
X5975Y366627D01*
X6030Y366558D01*
X6082Y366487D01*
X6131Y366414D01*
X6176Y366339D01*
X6218Y366262D01*
X6257Y366183D01*
X6293Y366103D01*
X6325Y366021D01*
X6353Y365938D01*
X6377Y365853D01*
X6398Y365768D01*
X6415Y365682D01*
X6429Y365595D01*
X6438Y365508D01*
X6444Y365420D01*
X6446Y365332D01*
X9667Y365735D02*
X9667Y363319D01*
X9667Y365735D02*
X9665Y365814D01*
X9659Y365893D01*
X9650Y365971D01*
X9636Y366049D01*
X9619Y366126D01*
X9598Y366203D01*
X9573Y366278D01*
X9544Y366352D01*
X9512Y366424D01*
X9477Y366494D01*
X9438Y366563D01*
X9395Y366630D01*
X9350Y366695D01*
X9301Y366757D01*
X9250Y366817D01*
X9195Y366874D01*
X9138Y366929D01*
X9078Y366980D01*
X9016Y367029D01*
X8951Y367074D01*
X8884Y367117D01*
X8815Y367156D01*
X8745Y367191D01*
X8673Y367223D01*
X8599Y367252D01*
X8524Y367277D01*
X8447Y367298D01*
X8370Y367315D01*
X8292Y367329D01*
X8214Y367338D01*
X8135Y367344D01*
X8056Y367346D01*
X7977Y367344D01*
X7898Y367338D01*
X7820Y367329D01*
X7742Y367315D01*
X7665Y367298D01*
X7588Y367277D01*
X7513Y367252D01*
X7439Y367223D01*
X7367Y367191D01*
X7297Y367156D01*
X7228Y367117D01*
X7161Y367074D01*
X7096Y367029D01*
X7034Y366980D01*
X6974Y366929D01*
X6917Y366874D01*
X6862Y366817D01*
X6811Y366757D01*
X6762Y366695D01*
X6717Y366630D01*
X6674Y366563D01*
X6635Y366494D01*
X6600Y366424D01*
X6568Y366352D01*
X6539Y366278D01*
X6514Y366203D01*
X6493Y366126D01*
X6476Y366049D01*
X6462Y365971D01*
X6453Y365893D01*
X6447Y365814D01*
X6445Y365735D01*
X6445Y364124D01*
D173*
X44525Y300435D02*
X44525Y288751D01*
X44525Y300435D02*
X41279Y300435D01*
X41166Y300433D01*
X41053Y300427D01*
X40940Y300417D01*
X40827Y300403D01*
X40715Y300386D01*
X40604Y300364D01*
X40494Y300339D01*
X40384Y300309D01*
X40276Y300276D01*
X40169Y300239D01*
X40063Y300199D01*
X39959Y300154D01*
X39856Y300106D01*
X39755Y300055D01*
X39656Y300000D01*
X39559Y299942D01*
X39464Y299880D01*
X39371Y299815D01*
X39281Y299747D01*
X39193Y299676D01*
X39107Y299601D01*
X39024Y299524D01*
X38944Y299444D01*
X38867Y299361D01*
X38792Y299275D01*
X38721Y299187D01*
X38653Y299097D01*
X38588Y299004D01*
X38526Y298909D01*
X38468Y298812D01*
X38413Y298713D01*
X38362Y298612D01*
X38314Y298509D01*
X38269Y298405D01*
X38229Y298299D01*
X38192Y298192D01*
X38159Y298084D01*
X38129Y297974D01*
X38104Y297864D01*
X38082Y297753D01*
X38065Y297641D01*
X38051Y297528D01*
X38041Y297415D01*
X38035Y297302D01*
X38033Y297189D01*
X38035Y297076D01*
X38041Y296963D01*
X38051Y296850D01*
X38065Y296737D01*
X38082Y296625D01*
X38104Y296514D01*
X38129Y296404D01*
X38159Y296294D01*
X38192Y296186D01*
X38229Y296079D01*
X38269Y295973D01*
X38314Y295869D01*
X38362Y295766D01*
X38413Y295665D01*
X38468Y295566D01*
X38526Y295469D01*
X38588Y295374D01*
X38653Y295281D01*
X38721Y295191D01*
X38792Y295103D01*
X38867Y295017D01*
X38944Y294934D01*
X39024Y294854D01*
X39107Y294777D01*
X39193Y294702D01*
X39281Y294631D01*
X39371Y294563D01*
X39464Y294498D01*
X39559Y294436D01*
X39656Y294378D01*
X39755Y294323D01*
X39856Y294272D01*
X39959Y294224D01*
X40063Y294179D01*
X40169Y294139D01*
X40276Y294102D01*
X40384Y294069D01*
X40494Y294039D01*
X40604Y294014D01*
X40715Y293992D01*
X40827Y293975D01*
X40940Y293961D01*
X41053Y293951D01*
X41166Y293945D01*
X41279Y293943D01*
X41279Y293944D02*
X44525Y293944D01*
X40630Y293944D02*
X38034Y288751D01*
X33169Y291997D02*
X33167Y292110D01*
X33161Y292223D01*
X33151Y292336D01*
X33137Y292449D01*
X33120Y292561D01*
X33098Y292672D01*
X33073Y292782D01*
X33043Y292892D01*
X33010Y293000D01*
X32973Y293107D01*
X32933Y293213D01*
X32888Y293317D01*
X32840Y293420D01*
X32789Y293521D01*
X32734Y293620D01*
X32676Y293717D01*
X32614Y293812D01*
X32549Y293905D01*
X32481Y293995D01*
X32410Y294083D01*
X32335Y294169D01*
X32258Y294252D01*
X32178Y294332D01*
X32095Y294409D01*
X32009Y294484D01*
X31921Y294555D01*
X31831Y294623D01*
X31738Y294688D01*
X31643Y294750D01*
X31546Y294808D01*
X31447Y294863D01*
X31346Y294914D01*
X31243Y294962D01*
X31139Y295007D01*
X31033Y295047D01*
X30926Y295084D01*
X30818Y295117D01*
X30708Y295147D01*
X30598Y295172D01*
X30487Y295194D01*
X30375Y295211D01*
X30262Y295225D01*
X30149Y295235D01*
X30036Y295241D01*
X29923Y295243D01*
X29810Y295241D01*
X29697Y295235D01*
X29584Y295225D01*
X29471Y295211D01*
X29359Y295194D01*
X29248Y295172D01*
X29138Y295147D01*
X29028Y295117D01*
X28920Y295084D01*
X28813Y295047D01*
X28707Y295007D01*
X28603Y294962D01*
X28500Y294914D01*
X28399Y294863D01*
X28300Y294808D01*
X28203Y294750D01*
X28108Y294688D01*
X28015Y294623D01*
X27925Y294555D01*
X27837Y294484D01*
X27751Y294409D01*
X27668Y294332D01*
X27588Y294252D01*
X27511Y294169D01*
X27436Y294083D01*
X27365Y293995D01*
X27297Y293905D01*
X27232Y293812D01*
X27170Y293717D01*
X27112Y293620D01*
X27057Y293521D01*
X27006Y293420D01*
X26958Y293317D01*
X26913Y293213D01*
X26873Y293107D01*
X26836Y293000D01*
X26803Y292892D01*
X26773Y292782D01*
X26748Y292672D01*
X26726Y292561D01*
X26709Y292449D01*
X26695Y292336D01*
X26685Y292223D01*
X26679Y292110D01*
X26677Y291997D01*
X26679Y291884D01*
X26685Y291771D01*
X26695Y291658D01*
X26709Y291545D01*
X26726Y291433D01*
X26748Y291322D01*
X26773Y291212D01*
X26803Y291102D01*
X26836Y290994D01*
X26873Y290887D01*
X26913Y290781D01*
X26958Y290677D01*
X27006Y290574D01*
X27057Y290473D01*
X27112Y290374D01*
X27170Y290277D01*
X27232Y290182D01*
X27297Y290089D01*
X27365Y289999D01*
X27436Y289911D01*
X27511Y289825D01*
X27588Y289742D01*
X27668Y289662D01*
X27751Y289585D01*
X27837Y289510D01*
X27925Y289439D01*
X28015Y289371D01*
X28108Y289306D01*
X28203Y289244D01*
X28300Y289186D01*
X28399Y289131D01*
X28500Y289080D01*
X28603Y289032D01*
X28707Y288987D01*
X28813Y288947D01*
X28920Y288910D01*
X29028Y288877D01*
X29138Y288847D01*
X29248Y288822D01*
X29359Y288800D01*
X29471Y288783D01*
X29584Y288769D01*
X29697Y288759D01*
X29810Y288753D01*
X29923Y288751D01*
X30036Y288753D01*
X30149Y288759D01*
X30262Y288769D01*
X30375Y288783D01*
X30487Y288800D01*
X30598Y288822D01*
X30708Y288847D01*
X30818Y288877D01*
X30926Y288910D01*
X31033Y288947D01*
X31139Y288987D01*
X31243Y289032D01*
X31346Y289080D01*
X31447Y289131D01*
X31546Y289186D01*
X31643Y289244D01*
X31738Y289306D01*
X31831Y289371D01*
X31921Y289439D01*
X32009Y289510D01*
X32095Y289585D01*
X32178Y289662D01*
X32258Y289742D01*
X32335Y289825D01*
X32410Y289911D01*
X32481Y289999D01*
X32549Y290089D01*
X32614Y290182D01*
X32676Y290277D01*
X32734Y290374D01*
X32789Y290473D01*
X32840Y290574D01*
X32888Y290677D01*
X32933Y290781D01*
X32973Y290887D01*
X33010Y290994D01*
X33043Y291102D01*
X33073Y291212D01*
X33098Y291322D01*
X33120Y291433D01*
X33137Y291545D01*
X33151Y291658D01*
X33161Y291771D01*
X33167Y291884D01*
X33169Y291997D01*
X32519Y297839D02*
X32517Y297940D01*
X32511Y298040D01*
X32501Y298140D01*
X32488Y298240D01*
X32470Y298339D01*
X32449Y298438D01*
X32424Y298535D01*
X32395Y298632D01*
X32362Y298727D01*
X32326Y298821D01*
X32286Y298913D01*
X32243Y299004D01*
X32196Y299093D01*
X32146Y299180D01*
X32092Y299266D01*
X32035Y299349D01*
X31975Y299429D01*
X31912Y299508D01*
X31845Y299584D01*
X31776Y299657D01*
X31704Y299727D01*
X31630Y299795D01*
X31553Y299860D01*
X31473Y299921D01*
X31391Y299980D01*
X31307Y300035D01*
X31221Y300087D01*
X31133Y300136D01*
X31043Y300181D01*
X30951Y300223D01*
X30858Y300261D01*
X30763Y300295D01*
X30668Y300326D01*
X30571Y300353D01*
X30473Y300376D01*
X30374Y300396D01*
X30274Y300411D01*
X30174Y300423D01*
X30074Y300431D01*
X29973Y300435D01*
X29873Y300435D01*
X29772Y300431D01*
X29672Y300423D01*
X29572Y300411D01*
X29472Y300396D01*
X29373Y300376D01*
X29275Y300353D01*
X29178Y300326D01*
X29083Y300295D01*
X28988Y300261D01*
X28895Y300223D01*
X28803Y300181D01*
X28713Y300136D01*
X28625Y300087D01*
X28539Y300035D01*
X28455Y299980D01*
X28373Y299921D01*
X28293Y299860D01*
X28216Y299795D01*
X28142Y299727D01*
X28070Y299657D01*
X28001Y299584D01*
X27934Y299508D01*
X27871Y299429D01*
X27811Y299349D01*
X27754Y299266D01*
X27700Y299180D01*
X27650Y299093D01*
X27603Y299004D01*
X27560Y298913D01*
X27520Y298821D01*
X27484Y298727D01*
X27451Y298632D01*
X27422Y298535D01*
X27397Y298438D01*
X27376Y298339D01*
X27358Y298240D01*
X27345Y298140D01*
X27335Y298040D01*
X27329Y297940D01*
X27327Y297839D01*
X27329Y297738D01*
X27335Y297638D01*
X27345Y297538D01*
X27358Y297438D01*
X27376Y297339D01*
X27397Y297240D01*
X27422Y297143D01*
X27451Y297046D01*
X27484Y296951D01*
X27520Y296857D01*
X27560Y296765D01*
X27603Y296674D01*
X27650Y296585D01*
X27700Y296498D01*
X27754Y296412D01*
X27811Y296329D01*
X27871Y296249D01*
X27934Y296170D01*
X28001Y296094D01*
X28070Y296021D01*
X28142Y295951D01*
X28216Y295883D01*
X28293Y295818D01*
X28373Y295757D01*
X28455Y295698D01*
X28539Y295643D01*
X28625Y295591D01*
X28713Y295542D01*
X28803Y295497D01*
X28895Y295455D01*
X28988Y295417D01*
X29083Y295383D01*
X29178Y295352D01*
X29275Y295325D01*
X29373Y295302D01*
X29472Y295282D01*
X29572Y295267D01*
X29672Y295255D01*
X29772Y295247D01*
X29873Y295243D01*
X29973Y295243D01*
X30074Y295247D01*
X30174Y295255D01*
X30274Y295267D01*
X30374Y295282D01*
X30473Y295302D01*
X30571Y295325D01*
X30668Y295352D01*
X30763Y295383D01*
X30858Y295417D01*
X30951Y295455D01*
X31043Y295497D01*
X31133Y295542D01*
X31221Y295591D01*
X31307Y295643D01*
X31391Y295698D01*
X31473Y295757D01*
X31553Y295818D01*
X31630Y295883D01*
X31704Y295951D01*
X31776Y296021D01*
X31845Y296094D01*
X31912Y296170D01*
X31975Y296249D01*
X32035Y296329D01*
X32092Y296412D01*
X32146Y296498D01*
X32196Y296585D01*
X32243Y296674D01*
X32286Y296765D01*
X32326Y296857D01*
X32362Y296951D01*
X32395Y297046D01*
X32424Y297143D01*
X32449Y297240D01*
X32470Y297339D01*
X32488Y297438D01*
X32501Y297538D01*
X32511Y297638D01*
X32517Y297738D01*
X32519Y297839D01*
D175*
X372881Y364291D02*
X372881Y365791D01*
X359381Y365791D02*
X359381Y364291D01*
D176*
X369881Y385791D03*
D174*
X356114Y353376D02*
X346876Y353376D01*
X346876Y357482D01*
X346876Y360345D02*
X356114Y363424D01*
X346876Y366504D01*
X349186Y365734D02*
X349186Y361115D01*
X346876Y370215D02*
X356114Y370215D01*
X356114Y372781D01*
X356112Y372880D01*
X356106Y372980D01*
X356097Y373079D01*
X356083Y373177D01*
X356066Y373275D01*
X356045Y373373D01*
X356020Y373469D01*
X355991Y373564D01*
X355959Y373659D01*
X355923Y373751D01*
X355884Y373843D01*
X355841Y373933D01*
X355795Y374021D01*
X355745Y374107D01*
X355692Y374191D01*
X355636Y374273D01*
X355576Y374353D01*
X355514Y374430D01*
X355448Y374505D01*
X355380Y374578D01*
X355309Y374647D01*
X355235Y374714D01*
X355159Y374778D01*
X355080Y374839D01*
X354999Y374897D01*
X354916Y374952D01*
X354831Y375003D01*
X354744Y375051D01*
X354655Y375096D01*
X354564Y375137D01*
X354472Y375175D01*
X354379Y375209D01*
X354284Y375239D01*
X354188Y375266D01*
X354091Y375289D01*
X353994Y375308D01*
X353895Y375323D01*
X353796Y375335D01*
X353697Y375343D01*
X353598Y375347D01*
X353498Y375347D01*
X353399Y375343D01*
X353300Y375335D01*
X353201Y375323D01*
X353102Y375308D01*
X353005Y375289D01*
X352908Y375266D01*
X352812Y375239D01*
X352717Y375209D01*
X352624Y375175D01*
X352532Y375137D01*
X352441Y375096D01*
X352352Y375051D01*
X352265Y375003D01*
X352180Y374952D01*
X352097Y374897D01*
X352016Y374839D01*
X351937Y374778D01*
X351861Y374714D01*
X351787Y374647D01*
X351716Y374578D01*
X351648Y374505D01*
X351582Y374430D01*
X351520Y374353D01*
X351460Y374273D01*
X351404Y374191D01*
X351351Y374107D01*
X351301Y374021D01*
X351255Y373933D01*
X351212Y373843D01*
X351173Y373751D01*
X351137Y373659D01*
X351105Y373564D01*
X351076Y373469D01*
X351051Y373373D01*
X351030Y373275D01*
X351013Y373177D01*
X350999Y373079D01*
X350990Y372980D01*
X350984Y372880D01*
X350982Y372781D01*
X350982Y370215D01*
X350982Y373294D02*
X346876Y375347D01*
D175*
X305490Y364844D02*
X305490Y363344D01*
X291990Y363344D02*
X291990Y364844D01*
D176*
X302490Y384844D03*
D174*
X286506Y353696D02*
X277268Y353696D01*
X277268Y357802D01*
X277268Y363958D02*
X277270Y364048D01*
X277276Y364137D01*
X277286Y364226D01*
X277299Y364314D01*
X277317Y364402D01*
X277338Y364489D01*
X277363Y364575D01*
X277392Y364660D01*
X277424Y364744D01*
X277460Y364826D01*
X277500Y364906D01*
X277543Y364985D01*
X277590Y365061D01*
X277639Y365136D01*
X277692Y365208D01*
X277748Y365278D01*
X277807Y365345D01*
X277869Y365410D01*
X277934Y365472D01*
X278001Y365531D01*
X278071Y365587D01*
X278143Y365640D01*
X278218Y365689D01*
X278295Y365736D01*
X278373Y365779D01*
X278453Y365819D01*
X278535Y365855D01*
X278619Y365887D01*
X278704Y365916D01*
X278790Y365941D01*
X278877Y365962D01*
X278965Y365980D01*
X279053Y365993D01*
X279142Y366003D01*
X279231Y366009D01*
X279321Y366011D01*
X277268Y363958D02*
X277270Y363831D01*
X277275Y363704D01*
X277285Y363578D01*
X277298Y363452D01*
X277314Y363326D01*
X277335Y363201D01*
X277359Y363076D01*
X277386Y362953D01*
X277417Y362830D01*
X277452Y362708D01*
X277490Y362587D01*
X277532Y362467D01*
X277578Y362349D01*
X277626Y362232D01*
X277679Y362116D01*
X277734Y362002D01*
X277793Y361890D01*
X277855Y361779D01*
X277920Y361670D01*
X277989Y361564D01*
X278060Y361459D01*
X278135Y361356D01*
X278213Y361256D01*
X278293Y361158D01*
X278376Y361062D01*
X278462Y360969D01*
X278551Y360878D01*
X284453Y361135D02*
X284543Y361137D01*
X284632Y361143D01*
X284721Y361153D01*
X284810Y361166D01*
X284897Y361184D01*
X284984Y361205D01*
X285070Y361230D01*
X285155Y361259D01*
X285239Y361291D01*
X285321Y361327D01*
X285401Y361367D01*
X285480Y361410D01*
X285556Y361457D01*
X285631Y361506D01*
X285703Y361559D01*
X285773Y361615D01*
X285840Y361674D01*
X285905Y361736D01*
X285967Y361801D01*
X286026Y361868D01*
X286082Y361938D01*
X286135Y362010D01*
X286184Y362085D01*
X286231Y362162D01*
X286274Y362240D01*
X286314Y362320D01*
X286350Y362402D01*
X286382Y362486D01*
X286411Y362571D01*
X286436Y362657D01*
X286457Y362744D01*
X286475Y362832D01*
X286488Y362920D01*
X286498Y363009D01*
X286504Y363098D01*
X286506Y363188D01*
X286504Y363312D01*
X286498Y363436D01*
X286488Y363559D01*
X286474Y363682D01*
X286456Y363805D01*
X286434Y363926D01*
X286409Y364048D01*
X286379Y364168D01*
X286346Y364287D01*
X286308Y364405D01*
X286267Y364522D01*
X286223Y364637D01*
X286174Y364751D01*
X286122Y364864D01*
X286066Y364974D01*
X286007Y365083D01*
X285944Y365190D01*
X285878Y365295D01*
X285809Y365397D01*
X285736Y365497D01*
X282657Y362162D02*
X282704Y362086D01*
X282755Y362011D01*
X282809Y361939D01*
X282866Y361869D01*
X282926Y361802D01*
X282989Y361737D01*
X283054Y361675D01*
X283122Y361616D01*
X283193Y361560D01*
X283266Y361507D01*
X283341Y361457D01*
X283419Y361411D01*
X283498Y361368D01*
X283579Y361328D01*
X283662Y361292D01*
X283746Y361260D01*
X283831Y361231D01*
X283918Y361206D01*
X284006Y361185D01*
X284094Y361167D01*
X284183Y361154D01*
X284273Y361144D01*
X284363Y361138D01*
X284453Y361136D01*
X281117Y364984D02*
X281070Y365061D01*
X281019Y365136D01*
X280965Y365208D01*
X280908Y365278D01*
X280848Y365345D01*
X280785Y365410D01*
X280720Y365472D01*
X280652Y365531D01*
X280581Y365587D01*
X280508Y365640D01*
X280433Y365690D01*
X280355Y365736D01*
X280276Y365779D01*
X280195Y365819D01*
X280112Y365855D01*
X280028Y365887D01*
X279943Y365916D01*
X279856Y365941D01*
X279769Y365962D01*
X279680Y365980D01*
X279591Y365993D01*
X279501Y366003D01*
X279411Y366009D01*
X279321Y366011D01*
X281117Y364985D02*
X282657Y362162D01*
X286506Y369879D02*
X277268Y369879D01*
X286506Y369879D02*
X286506Y372445D01*
X286504Y372543D01*
X286498Y372641D01*
X286489Y372739D01*
X286476Y372837D01*
X286459Y372934D01*
X286439Y373030D01*
X286414Y373125D01*
X286386Y373219D01*
X286355Y373312D01*
X286320Y373404D01*
X286281Y373495D01*
X286240Y373584D01*
X286194Y373671D01*
X286146Y373756D01*
X286094Y373840D01*
X286039Y373921D01*
X285981Y374001D01*
X285920Y374078D01*
X285856Y374152D01*
X285789Y374224D01*
X285719Y374294D01*
X285647Y374361D01*
X285573Y374425D01*
X285496Y374486D01*
X285416Y374544D01*
X285335Y374599D01*
X285251Y374651D01*
X285166Y374699D01*
X285079Y374745D01*
X284990Y374786D01*
X284899Y374825D01*
X284807Y374860D01*
X284714Y374891D01*
X284620Y374919D01*
X284525Y374944D01*
X284429Y374964D01*
X284332Y374981D01*
X284234Y374994D01*
X284136Y375003D01*
X284038Y375009D01*
X283940Y375011D01*
X279834Y375011D01*
X279736Y375009D01*
X279638Y375003D01*
X279540Y374994D01*
X279442Y374981D01*
X279345Y374964D01*
X279249Y374944D01*
X279154Y374919D01*
X279060Y374891D01*
X278967Y374860D01*
X278875Y374825D01*
X278784Y374786D01*
X278695Y374745D01*
X278608Y374699D01*
X278523Y374651D01*
X278439Y374599D01*
X278358Y374544D01*
X278278Y374486D01*
X278201Y374425D01*
X278127Y374361D01*
X278055Y374294D01*
X277985Y374224D01*
X277918Y374152D01*
X277854Y374078D01*
X277793Y374001D01*
X277735Y373921D01*
X277680Y373840D01*
X277628Y373756D01*
X277580Y373671D01*
X277534Y373584D01*
X277493Y373495D01*
X277454Y373404D01*
X277419Y373312D01*
X277388Y373219D01*
X277360Y373125D01*
X277335Y373030D01*
X277315Y372934D01*
X277298Y372837D01*
X277285Y372739D01*
X277276Y372641D01*
X277270Y372543D01*
X277268Y372445D01*
X277268Y369879D01*
D175*
X202055Y364224D02*
X202055Y362724D01*
X188555Y362724D02*
X188555Y364224D01*
D176*
X199055Y384224D03*
D174*
X184171Y354295D02*
X174933Y354295D01*
X174933Y358401D01*
X174933Y362165D02*
X184171Y362165D01*
X179038Y365244D01*
X184171Y368323D01*
X174933Y368323D01*
X174933Y372934D02*
X184171Y372934D01*
X184171Y375501D01*
X184169Y375600D01*
X184163Y375700D01*
X184154Y375799D01*
X184140Y375897D01*
X184123Y375995D01*
X184102Y376093D01*
X184077Y376189D01*
X184048Y376284D01*
X184016Y376379D01*
X183980Y376471D01*
X183941Y376563D01*
X183898Y376653D01*
X183852Y376741D01*
X183802Y376827D01*
X183749Y376911D01*
X183693Y376993D01*
X183633Y377073D01*
X183571Y377150D01*
X183505Y377225D01*
X183437Y377298D01*
X183366Y377367D01*
X183292Y377434D01*
X183216Y377498D01*
X183137Y377559D01*
X183056Y377617D01*
X182973Y377672D01*
X182888Y377723D01*
X182801Y377771D01*
X182712Y377816D01*
X182621Y377857D01*
X182529Y377895D01*
X182436Y377929D01*
X182341Y377959D01*
X182245Y377986D01*
X182148Y378009D01*
X182051Y378028D01*
X181952Y378043D01*
X181853Y378055D01*
X181754Y378063D01*
X181655Y378067D01*
X181555Y378067D01*
X181456Y378063D01*
X181357Y378055D01*
X181258Y378043D01*
X181159Y378028D01*
X181062Y378009D01*
X180965Y377986D01*
X180869Y377959D01*
X180774Y377929D01*
X180681Y377895D01*
X180589Y377857D01*
X180498Y377816D01*
X180409Y377771D01*
X180322Y377723D01*
X180237Y377672D01*
X180154Y377617D01*
X180073Y377559D01*
X179994Y377498D01*
X179918Y377434D01*
X179844Y377367D01*
X179773Y377298D01*
X179705Y377225D01*
X179639Y377150D01*
X179577Y377073D01*
X179517Y376993D01*
X179461Y376911D01*
X179408Y376827D01*
X179358Y376741D01*
X179312Y376653D01*
X179269Y376563D01*
X179230Y376471D01*
X179194Y376379D01*
X179162Y376284D01*
X179133Y376189D01*
X179108Y376093D01*
X179087Y375995D01*
X179070Y375897D01*
X179056Y375799D01*
X179047Y375700D01*
X179041Y375600D01*
X179039Y375501D01*
X179038Y375501D02*
X179038Y372934D01*
X179038Y376014D02*
X174933Y378067D01*
D175*
X393924Y375332D02*
X393924Y358332D01*
X377924Y358332D02*
X377924Y375332D01*
D176*
X385924Y348832D03*
D174*
X398573Y351776D02*
X407811Y351776D01*
X398573Y351776D02*
X398573Y355882D01*
X398573Y358746D02*
X407811Y361825D01*
X398573Y364904D01*
X400883Y364134D02*
X400883Y359515D01*
X403706Y372151D02*
X403706Y373691D01*
X398573Y373691D01*
X398573Y370612D01*
X398575Y370522D01*
X398581Y370433D01*
X398591Y370344D01*
X398604Y370256D01*
X398622Y370168D01*
X398643Y370081D01*
X398668Y369995D01*
X398697Y369910D01*
X398729Y369826D01*
X398765Y369744D01*
X398805Y369664D01*
X398848Y369586D01*
X398895Y369509D01*
X398944Y369434D01*
X398997Y369362D01*
X399053Y369292D01*
X399112Y369225D01*
X399174Y369160D01*
X399239Y369098D01*
X399306Y369039D01*
X399376Y368983D01*
X399448Y368930D01*
X399523Y368881D01*
X399600Y368834D01*
X399678Y368791D01*
X399758Y368751D01*
X399840Y368715D01*
X399924Y368683D01*
X400009Y368654D01*
X400095Y368629D01*
X400182Y368608D01*
X400270Y368590D01*
X400358Y368577D01*
X400447Y368567D01*
X400536Y368561D01*
X400626Y368559D01*
X405759Y368559D01*
X405849Y368561D01*
X405938Y368567D01*
X406027Y368577D01*
X406115Y368590D01*
X406203Y368608D01*
X406290Y368629D01*
X406376Y368654D01*
X406461Y368683D01*
X406545Y368715D01*
X406627Y368751D01*
X406707Y368791D01*
X406785Y368834D01*
X406862Y368881D01*
X406937Y368930D01*
X407009Y368983D01*
X407079Y369039D01*
X407146Y369098D01*
X407211Y369160D01*
X407273Y369225D01*
X407332Y369292D01*
X407388Y369362D01*
X407441Y369434D01*
X407490Y369509D01*
X407537Y369585D01*
X407580Y369664D01*
X407620Y369744D01*
X407656Y369826D01*
X407688Y369910D01*
X407717Y369995D01*
X407742Y370081D01*
X407763Y370168D01*
X407781Y370255D01*
X407794Y370344D01*
X407804Y370433D01*
X407810Y370522D01*
X407812Y370612D01*
X407811Y370612D02*
X407811Y373691D01*
D175*
X326028Y370675D02*
X326028Y353675D01*
X310028Y353675D02*
X310028Y370675D01*
D176*
X318028Y344175D03*
D174*
X330044Y347436D02*
X339282Y347436D01*
X330044Y347436D02*
X330044Y351542D01*
X330044Y357698D02*
X330046Y357788D01*
X330052Y357877D01*
X330062Y357966D01*
X330075Y358054D01*
X330093Y358142D01*
X330114Y358229D01*
X330139Y358315D01*
X330168Y358400D01*
X330200Y358484D01*
X330236Y358566D01*
X330276Y358646D01*
X330319Y358725D01*
X330366Y358801D01*
X330415Y358876D01*
X330468Y358948D01*
X330524Y359018D01*
X330583Y359085D01*
X330645Y359150D01*
X330710Y359212D01*
X330777Y359271D01*
X330847Y359327D01*
X330919Y359380D01*
X330994Y359429D01*
X331071Y359476D01*
X331149Y359519D01*
X331229Y359559D01*
X331311Y359595D01*
X331395Y359627D01*
X331480Y359656D01*
X331566Y359681D01*
X331653Y359702D01*
X331741Y359720D01*
X331829Y359733D01*
X331918Y359743D01*
X332007Y359749D01*
X332097Y359751D01*
X330044Y357698D02*
X330046Y357571D01*
X330051Y357444D01*
X330061Y357318D01*
X330074Y357192D01*
X330090Y357066D01*
X330111Y356941D01*
X330135Y356816D01*
X330162Y356693D01*
X330193Y356570D01*
X330228Y356448D01*
X330266Y356327D01*
X330308Y356207D01*
X330354Y356089D01*
X330402Y355972D01*
X330455Y355856D01*
X330510Y355742D01*
X330569Y355630D01*
X330631Y355519D01*
X330696Y355410D01*
X330765Y355304D01*
X330836Y355199D01*
X330911Y355096D01*
X330989Y354996D01*
X331069Y354898D01*
X331152Y354802D01*
X331238Y354709D01*
X331327Y354618D01*
X337229Y354875D02*
X337319Y354877D01*
X337408Y354883D01*
X337497Y354893D01*
X337586Y354906D01*
X337673Y354924D01*
X337760Y354945D01*
X337846Y354970D01*
X337931Y354999D01*
X338015Y355031D01*
X338097Y355067D01*
X338177Y355107D01*
X338256Y355150D01*
X338332Y355197D01*
X338407Y355246D01*
X338479Y355299D01*
X338549Y355355D01*
X338616Y355414D01*
X338681Y355476D01*
X338743Y355541D01*
X338802Y355608D01*
X338858Y355678D01*
X338911Y355750D01*
X338960Y355825D01*
X339007Y355902D01*
X339050Y355980D01*
X339090Y356060D01*
X339126Y356142D01*
X339158Y356226D01*
X339187Y356311D01*
X339212Y356397D01*
X339233Y356484D01*
X339251Y356572D01*
X339264Y356660D01*
X339274Y356749D01*
X339280Y356838D01*
X339282Y356928D01*
X339281Y356928D02*
X339279Y357052D01*
X339273Y357176D01*
X339263Y357299D01*
X339249Y357422D01*
X339231Y357545D01*
X339209Y357666D01*
X339184Y357788D01*
X339154Y357908D01*
X339121Y358027D01*
X339083Y358145D01*
X339042Y358262D01*
X338998Y358377D01*
X338949Y358491D01*
X338897Y358604D01*
X338841Y358714D01*
X338782Y358823D01*
X338719Y358930D01*
X338653Y359035D01*
X338584Y359137D01*
X338511Y359237D01*
X335433Y355901D02*
X335480Y355825D01*
X335531Y355750D01*
X335585Y355678D01*
X335642Y355608D01*
X335702Y355541D01*
X335765Y355476D01*
X335830Y355414D01*
X335898Y355355D01*
X335969Y355299D01*
X336042Y355246D01*
X336117Y355196D01*
X336195Y355150D01*
X336274Y355107D01*
X336355Y355067D01*
X336438Y355031D01*
X336522Y354999D01*
X336607Y354970D01*
X336694Y354945D01*
X336782Y354924D01*
X336870Y354906D01*
X336959Y354893D01*
X337049Y354883D01*
X337139Y354877D01*
X337229Y354875D01*
X333893Y358724D02*
X333846Y358801D01*
X333795Y358876D01*
X333741Y358948D01*
X333684Y359018D01*
X333624Y359085D01*
X333561Y359150D01*
X333496Y359212D01*
X333428Y359271D01*
X333357Y359327D01*
X333284Y359380D01*
X333209Y359430D01*
X333131Y359476D01*
X333052Y359519D01*
X332971Y359559D01*
X332888Y359595D01*
X332804Y359627D01*
X332719Y359656D01*
X332632Y359681D01*
X332545Y359702D01*
X332456Y359720D01*
X332367Y359733D01*
X332277Y359743D01*
X332187Y359749D01*
X332097Y359751D01*
X333893Y358725D02*
X335433Y355902D01*
X335176Y367211D02*
X335176Y368751D01*
X330044Y368751D01*
X330044Y365672D01*
X330046Y365582D01*
X330052Y365493D01*
X330062Y365404D01*
X330075Y365316D01*
X330093Y365228D01*
X330114Y365141D01*
X330139Y365055D01*
X330168Y364970D01*
X330200Y364886D01*
X330236Y364804D01*
X330276Y364724D01*
X330319Y364646D01*
X330366Y364569D01*
X330415Y364494D01*
X330468Y364422D01*
X330524Y364352D01*
X330583Y364285D01*
X330645Y364220D01*
X330710Y364158D01*
X330777Y364099D01*
X330847Y364043D01*
X330919Y363990D01*
X330994Y363941D01*
X331071Y363894D01*
X331149Y363851D01*
X331229Y363811D01*
X331311Y363775D01*
X331395Y363743D01*
X331480Y363714D01*
X331566Y363689D01*
X331653Y363668D01*
X331741Y363650D01*
X331829Y363637D01*
X331918Y363627D01*
X332007Y363621D01*
X332097Y363619D01*
X337229Y363619D01*
X337319Y363621D01*
X337408Y363627D01*
X337497Y363637D01*
X337585Y363650D01*
X337673Y363668D01*
X337760Y363689D01*
X337846Y363714D01*
X337931Y363743D01*
X338015Y363775D01*
X338097Y363811D01*
X338177Y363851D01*
X338255Y363894D01*
X338332Y363941D01*
X338407Y363990D01*
X338479Y364043D01*
X338549Y364099D01*
X338616Y364158D01*
X338681Y364220D01*
X338743Y364285D01*
X338802Y364352D01*
X338858Y364422D01*
X338911Y364494D01*
X338960Y364569D01*
X339007Y364645D01*
X339050Y364724D01*
X339090Y364804D01*
X339126Y364886D01*
X339158Y364970D01*
X339187Y365055D01*
X339212Y365141D01*
X339233Y365228D01*
X339251Y365315D01*
X339264Y365404D01*
X339274Y365493D01*
X339280Y365582D01*
X339282Y365672D01*
X339282Y368751D01*
D175*
X223044Y371541D02*
X223044Y354541D01*
X207044Y354541D02*
X207044Y371541D01*
D176*
X215044Y345041D03*
D174*
X217558Y307716D02*
X208320Y307716D01*
X208320Y311822D01*
X208320Y315585D02*
X217558Y315585D01*
X212425Y318665D01*
X217558Y321744D01*
X208320Y321744D01*
X213452Y329891D02*
X213452Y331431D01*
X208320Y331431D01*
X208320Y328351D01*
X208319Y328351D02*
X208321Y328261D01*
X208327Y328172D01*
X208337Y328083D01*
X208350Y327995D01*
X208368Y327907D01*
X208389Y327820D01*
X208414Y327734D01*
X208443Y327649D01*
X208475Y327565D01*
X208511Y327483D01*
X208551Y327403D01*
X208594Y327325D01*
X208641Y327248D01*
X208690Y327173D01*
X208743Y327101D01*
X208799Y327031D01*
X208858Y326964D01*
X208920Y326899D01*
X208985Y326837D01*
X209052Y326778D01*
X209122Y326722D01*
X209194Y326669D01*
X209269Y326620D01*
X209346Y326573D01*
X209424Y326530D01*
X209504Y326490D01*
X209586Y326454D01*
X209670Y326422D01*
X209755Y326393D01*
X209841Y326368D01*
X209928Y326347D01*
X210016Y326329D01*
X210104Y326316D01*
X210193Y326306D01*
X210282Y326300D01*
X210372Y326298D01*
X215505Y326298D01*
X215595Y326300D01*
X215684Y326306D01*
X215773Y326316D01*
X215861Y326329D01*
X215949Y326347D01*
X216036Y326368D01*
X216122Y326393D01*
X216207Y326422D01*
X216291Y326454D01*
X216373Y326490D01*
X216453Y326530D01*
X216531Y326573D01*
X216608Y326620D01*
X216683Y326669D01*
X216755Y326722D01*
X216825Y326778D01*
X216892Y326837D01*
X216957Y326899D01*
X217019Y326964D01*
X217078Y327031D01*
X217134Y327101D01*
X217187Y327173D01*
X217236Y327248D01*
X217283Y327324D01*
X217326Y327403D01*
X217366Y327483D01*
X217402Y327565D01*
X217434Y327649D01*
X217463Y327734D01*
X217488Y327820D01*
X217509Y327907D01*
X217527Y327994D01*
X217540Y328083D01*
X217550Y328172D01*
X217556Y328261D01*
X217558Y328351D01*
X217558Y331431D01*
D175*
X257497Y354240D02*
X257497Y371240D01*
X239497Y371240D02*
X239497Y354240D01*
D176*
X249497Y345490D03*
D174*
X260630Y355757D02*
X269868Y355757D01*
X260630Y355757D02*
X260630Y359863D01*
X260630Y364006D02*
X269868Y364006D01*
X260630Y362979D02*
X260630Y365032D01*
X269868Y365032D02*
X269868Y362979D01*
X269868Y369070D02*
X260630Y369070D01*
X269868Y369070D02*
X269868Y371636D01*
X269867Y371636D02*
X269865Y371735D01*
X269859Y371835D01*
X269850Y371934D01*
X269836Y372032D01*
X269819Y372130D01*
X269798Y372228D01*
X269773Y372324D01*
X269744Y372419D01*
X269712Y372514D01*
X269676Y372606D01*
X269637Y372698D01*
X269594Y372788D01*
X269548Y372876D01*
X269498Y372962D01*
X269445Y373046D01*
X269389Y373128D01*
X269329Y373208D01*
X269267Y373285D01*
X269201Y373360D01*
X269133Y373433D01*
X269062Y373502D01*
X268988Y373569D01*
X268912Y373633D01*
X268833Y373694D01*
X268752Y373752D01*
X268669Y373807D01*
X268584Y373858D01*
X268497Y373906D01*
X268408Y373951D01*
X268317Y373992D01*
X268225Y374030D01*
X268132Y374064D01*
X268037Y374094D01*
X267941Y374121D01*
X267844Y374144D01*
X267747Y374163D01*
X267648Y374178D01*
X267549Y374190D01*
X267450Y374198D01*
X267351Y374202D01*
X267251Y374202D01*
X267152Y374198D01*
X267053Y374190D01*
X266954Y374178D01*
X266855Y374163D01*
X266758Y374144D01*
X266661Y374121D01*
X266565Y374094D01*
X266470Y374064D01*
X266377Y374030D01*
X266285Y373992D01*
X266194Y373951D01*
X266105Y373906D01*
X266018Y373858D01*
X265933Y373807D01*
X265850Y373752D01*
X265769Y373694D01*
X265690Y373633D01*
X265614Y373569D01*
X265540Y373502D01*
X265469Y373433D01*
X265401Y373360D01*
X265335Y373285D01*
X265273Y373208D01*
X265213Y373128D01*
X265157Y373046D01*
X265104Y372962D01*
X265054Y372876D01*
X265008Y372788D01*
X264965Y372698D01*
X264926Y372606D01*
X264890Y372514D01*
X264858Y372419D01*
X264829Y372324D01*
X264804Y372228D01*
X264783Y372130D01*
X264766Y372032D01*
X264752Y371934D01*
X264743Y371835D01*
X264737Y371735D01*
X264735Y371636D01*
X264735Y369070D01*
M02*
