G04 EAGLE Gerber RS-274X export*
G75*
%MOMM*%
%FSLAX34Y34*%
%LPD*%
%INSoldermask Top*%
%IPPOS*%
%AMOC8*
5,1,8,0,0,1.08239X$1,22.5*%
G01*
%ADD10R,0.763200X2.233200*%
%ADD11R,2.183200X3.763200*%
%ADD12C,1.819200*%
%ADD13R,1.678200X0.653200*%
%ADD14R,1.503200X1.703200*%
%ADD15R,1.303200X1.203200*%
%ADD16R,1.203200X1.303200*%
%ADD17R,1.503200X1.803200*%
%ADD18C,0.301600*%
%ADD19R,1.803200X1.503200*%
%ADD20C,0.813200*%


D10*
X287743Y126927D03*
X297743Y126927D03*
X307743Y126927D03*
X317743Y126927D03*
X327743Y126927D03*
X337743Y126927D03*
X347743Y126927D03*
X357743Y126927D03*
X367743Y126927D03*
X377743Y126927D03*
D11*
X277143Y167577D03*
X388343Y167577D03*
D12*
X254205Y33480D02*
X254205Y17320D01*
X228805Y17320D02*
X228805Y33480D01*
X203405Y33480D02*
X203405Y17320D01*
X178005Y17320D02*
X178005Y33480D01*
D13*
X273887Y276074D03*
X273887Y282574D03*
X273887Y289074D03*
X273887Y295574D03*
X273887Y302074D03*
X273887Y308574D03*
X273887Y315074D03*
X273887Y321574D03*
X215127Y321574D03*
X215127Y315074D03*
X215127Y308574D03*
X215127Y302074D03*
X215127Y295574D03*
X215127Y289074D03*
X215127Y282574D03*
X215127Y276074D03*
D14*
X275847Y258350D03*
X256847Y258350D03*
X213405Y258232D03*
X232405Y258232D03*
D15*
X284980Y207335D03*
X284980Y224335D03*
X306461Y207380D03*
X306461Y224380D03*
D16*
X182719Y298174D03*
X165719Y298174D03*
X183223Y319251D03*
X166223Y319251D03*
D15*
X298343Y287234D03*
X298343Y270234D03*
D17*
X164603Y189498D03*
X144603Y189498D03*
D18*
X183059Y176987D02*
X183059Y166071D01*
X183059Y176987D02*
X186075Y176987D01*
X186075Y166071D01*
X183059Y166071D01*
X183059Y168936D02*
X186075Y168936D01*
X186075Y171801D02*
X183059Y171801D01*
X183059Y174666D02*
X186075Y174666D01*
X176559Y176987D02*
X176559Y166071D01*
X176559Y176987D02*
X179575Y176987D01*
X179575Y166071D01*
X176559Y166071D01*
X176559Y168936D02*
X179575Y168936D01*
X179575Y171801D02*
X176559Y171801D01*
X176559Y174666D02*
X179575Y174666D01*
X170059Y176987D02*
X170059Y166071D01*
X170059Y176987D02*
X173075Y176987D01*
X173075Y166071D01*
X170059Y166071D01*
X170059Y168936D02*
X173075Y168936D01*
X173075Y171801D02*
X170059Y171801D01*
X170059Y174666D02*
X173075Y174666D01*
X170059Y157787D02*
X170059Y146871D01*
X170059Y157787D02*
X173075Y157787D01*
X173075Y146871D01*
X170059Y146871D01*
X170059Y149736D02*
X173075Y149736D01*
X173075Y152601D02*
X170059Y152601D01*
X170059Y155466D02*
X173075Y155466D01*
X183059Y157787D02*
X183059Y146871D01*
X183059Y157787D02*
X186075Y157787D01*
X186075Y146871D01*
X183059Y146871D01*
X183059Y149736D02*
X186075Y149736D01*
X186075Y152601D02*
X183059Y152601D01*
X183059Y155466D02*
X186075Y155466D01*
D19*
X202289Y152147D03*
X202289Y172147D03*
D15*
X183515Y206252D03*
X183515Y189252D03*
D16*
X169957Y132157D03*
X186957Y132157D03*
D17*
X103893Y188320D03*
X83893Y188320D03*
D18*
X121164Y174663D02*
X121164Y163747D01*
X121164Y174663D02*
X124180Y174663D01*
X124180Y163747D01*
X121164Y163747D01*
X121164Y166612D02*
X124180Y166612D01*
X124180Y169477D02*
X121164Y169477D01*
X121164Y172342D02*
X124180Y172342D01*
X114664Y174663D02*
X114664Y163747D01*
X114664Y174663D02*
X117680Y174663D01*
X117680Y163747D01*
X114664Y163747D01*
X114664Y166612D02*
X117680Y166612D01*
X117680Y169477D02*
X114664Y169477D01*
X114664Y172342D02*
X117680Y172342D01*
X108164Y174663D02*
X108164Y163747D01*
X108164Y174663D02*
X111180Y174663D01*
X111180Y163747D01*
X108164Y163747D01*
X108164Y166612D02*
X111180Y166612D01*
X111180Y169477D02*
X108164Y169477D01*
X108164Y172342D02*
X111180Y172342D01*
X108164Y155463D02*
X108164Y144547D01*
X108164Y155463D02*
X111180Y155463D01*
X111180Y144547D01*
X108164Y144547D01*
X108164Y147412D02*
X111180Y147412D01*
X111180Y150277D02*
X108164Y150277D01*
X108164Y153142D02*
X111180Y153142D01*
X121164Y155463D02*
X121164Y144547D01*
X121164Y155463D02*
X124180Y155463D01*
X124180Y144547D01*
X121164Y144547D01*
X121164Y147412D02*
X124180Y147412D01*
X124180Y150277D02*
X121164Y150277D01*
X121164Y153142D02*
X124180Y153142D01*
D19*
X139176Y150097D03*
X139176Y170097D03*
D15*
X122319Y202936D03*
X122319Y185936D03*
D16*
X107723Y129421D03*
X124723Y129421D03*
D17*
X40141Y187246D03*
X20141Y187246D03*
D18*
X59124Y173187D02*
X59124Y162271D01*
X59124Y173187D02*
X62140Y173187D01*
X62140Y162271D01*
X59124Y162271D01*
X59124Y165136D02*
X62140Y165136D01*
X62140Y168001D02*
X59124Y168001D01*
X59124Y170866D02*
X62140Y170866D01*
X52624Y173187D02*
X52624Y162271D01*
X52624Y173187D02*
X55640Y173187D01*
X55640Y162271D01*
X52624Y162271D01*
X52624Y165136D02*
X55640Y165136D01*
X55640Y168001D02*
X52624Y168001D01*
X52624Y170866D02*
X55640Y170866D01*
X46124Y173187D02*
X46124Y162271D01*
X46124Y173187D02*
X49140Y173187D01*
X49140Y162271D01*
X46124Y162271D01*
X46124Y165136D02*
X49140Y165136D01*
X49140Y168001D02*
X46124Y168001D01*
X46124Y170866D02*
X49140Y170866D01*
X46124Y153987D02*
X46124Y143071D01*
X46124Y153987D02*
X49140Y153987D01*
X49140Y143071D01*
X46124Y143071D01*
X46124Y145936D02*
X49140Y145936D01*
X49140Y148801D02*
X46124Y148801D01*
X46124Y151666D02*
X49140Y151666D01*
X59124Y153987D02*
X59124Y143071D01*
X59124Y153987D02*
X62140Y153987D01*
X62140Y143071D01*
X59124Y143071D01*
X59124Y145936D02*
X62140Y145936D01*
X62140Y148801D02*
X59124Y148801D01*
X59124Y151666D02*
X62140Y151666D01*
D19*
X77290Y148363D03*
X77290Y168363D03*
D15*
X58390Y201415D03*
X58390Y184415D03*
D16*
X45140Y127728D03*
X62140Y127728D03*
D20*
X374789Y322720D03*
X387164Y346805D03*
X288869Y350851D03*
X317005Y343873D03*
X196502Y340848D03*
X215081Y344057D03*
X284135Y263590D03*
X283767Y252266D03*
X294263Y264511D03*
X303602Y263628D03*
X206702Y249503D03*
X86088Y140679D03*
X72093Y139851D03*
X146855Y142153D03*
X133873Y141600D03*
X209725Y144158D03*
X197154Y143204D03*
X70451Y131490D03*
X69320Y122155D03*
X132923Y132535D03*
X131516Y122945D03*
X195069Y134389D03*
X194046Y124799D03*
X287776Y140463D03*
X281741Y132578D03*
X157851Y303751D03*
X158010Y292613D03*
X206066Y265326D03*
X18010Y410333D03*
X45081Y409891D03*
X69389Y410443D03*
X96128Y410112D03*
X116900Y410001D03*
X143087Y410885D03*
X276401Y326288D03*
X260288Y284950D03*
X250068Y267088D03*
X250621Y250240D03*
X240262Y266858D03*
X238835Y250424D03*
X11892Y196150D03*
X13235Y179143D03*
X76941Y196767D03*
X76275Y180873D03*
X86946Y174443D03*
X87377Y162868D03*
X148144Y162960D03*
X149525Y174192D03*
X137096Y182478D03*
X136635Y197393D03*
X103809Y168942D03*
X41893Y167839D03*
X165304Y171513D03*
X211530Y179300D03*
X197336Y181602D03*
X298876Y140847D03*
X317621Y140427D03*
X337822Y140738D03*
X357332Y139667D03*
X160431Y325890D03*
X158310Y314851D03*
X225366Y109149D03*
X385196Y46874D03*
X129067Y70980D03*
X178554Y81694D03*
X54837Y32812D03*
X15381Y141960D03*
X51493Y268519D03*
X112349Y250439D03*
X156486Y267180D03*
X171198Y355570D03*
X273376Y378152D03*
X345740Y326777D03*
X286890Y336151D03*
X365802Y271198D03*
X241310Y347634D03*
X267487Y209077D03*
X298498Y224369D03*
X123761Y306133D03*
X85945Y306362D03*
X28904Y306931D03*
X208995Y71086D03*
X269259Y70843D03*
X198934Y62326D03*
X257148Y62097D03*
X188621Y52473D03*
X246605Y52473D03*
M02*
