G04 EAGLE Gerber RS-274X export*
G75*
%MOMM*%
%FSLAX34Y34*%
%LPD*%
%INCopper Layer 2*%
%IPPOS*%
%AMOC8*
5,1,8,0,0,1.08239X$1,22.5*%
G01*
%ADD10C,0.610000*%

G36*
X777500Y4008D02*
X777500Y4008D01*
X777570Y4006D01*
X777698Y4028D01*
X777828Y4041D01*
X777895Y4061D01*
X777964Y4073D01*
X778085Y4120D01*
X778210Y4159D01*
X778271Y4192D01*
X778336Y4218D01*
X778445Y4288D01*
X778560Y4350D01*
X778614Y4396D01*
X778672Y4433D01*
X778842Y4588D01*
X778865Y4608D01*
X778870Y4614D01*
X778878Y4621D01*
X789447Y15722D01*
X789478Y15761D01*
X789544Y15832D01*
X812062Y43270D01*
X812094Y43317D01*
X812179Y43427D01*
X831899Y72941D01*
X831926Y72991D01*
X832000Y73109D01*
X848732Y104413D01*
X848754Y104465D01*
X848816Y104590D01*
X862399Y137383D01*
X862416Y137438D01*
X862465Y137568D01*
X872769Y171535D01*
X872780Y171590D01*
X872817Y171725D01*
X879742Y206538D01*
X879747Y206595D01*
X879770Y206732D01*
X883249Y242056D01*
X883249Y242113D01*
X883259Y242252D01*
X883259Y277748D01*
X883253Y277804D01*
X883249Y277944D01*
X879770Y313268D01*
X879759Y313323D01*
X879742Y313462D01*
X872817Y348275D01*
X872808Y348302D01*
X872805Y348328D01*
X872791Y348368D01*
X872769Y348465D01*
X862465Y382432D01*
X862444Y382484D01*
X862399Y382617D01*
X848816Y415410D01*
X848789Y415460D01*
X848732Y415587D01*
X832000Y446891D01*
X831968Y446939D01*
X831899Y447059D01*
X812179Y476572D01*
X812143Y476616D01*
X812062Y476730D01*
X789544Y504168D01*
X789508Y504204D01*
X789447Y504278D01*
X778878Y515379D01*
X778825Y515424D01*
X778779Y515476D01*
X778674Y515554D01*
X778576Y515639D01*
X778515Y515673D01*
X778458Y515715D01*
X778341Y515770D01*
X778227Y515834D01*
X778160Y515855D01*
X778097Y515885D01*
X777970Y515916D01*
X777846Y515956D01*
X777777Y515963D01*
X777709Y515980D01*
X777480Y515996D01*
X777449Y515999D01*
X777442Y515998D01*
X777431Y515999D01*
X262569Y515999D01*
X262500Y515992D01*
X262430Y515994D01*
X262302Y515972D01*
X262172Y515959D01*
X262105Y515939D01*
X262036Y515927D01*
X261915Y515880D01*
X261790Y515841D01*
X261729Y515808D01*
X261664Y515782D01*
X261554Y515712D01*
X261440Y515650D01*
X261387Y515605D01*
X261328Y515567D01*
X261158Y515412D01*
X261135Y515392D01*
X261130Y515386D01*
X261122Y515379D01*
X250553Y504278D01*
X250522Y504238D01*
X250456Y504168D01*
X227938Y476730D01*
X227906Y476683D01*
X227821Y476572D01*
X208101Y447059D01*
X208074Y447009D01*
X208000Y446891D01*
X197963Y428112D01*
X197914Y427995D01*
X197858Y427882D01*
X197839Y427811D01*
X197810Y427743D01*
X197786Y427619D01*
X197753Y427497D01*
X197749Y427423D01*
X197735Y427350D01*
X197736Y427224D01*
X197728Y427098D01*
X197738Y427025D01*
X197738Y426951D01*
X197765Y426828D01*
X197782Y426703D01*
X197806Y426633D01*
X197822Y426560D01*
X197872Y426445D01*
X197913Y426325D01*
X197951Y426262D01*
X197981Y426194D01*
X198053Y426091D01*
X198117Y425982D01*
X198167Y425927D01*
X198209Y425867D01*
X198301Y425780D01*
X198385Y425686D01*
X198445Y425642D01*
X198499Y425591D01*
X198605Y425524D01*
X198707Y425449D01*
X198774Y425418D01*
X198837Y425379D01*
X198955Y425334D01*
X199069Y425281D01*
X199141Y425264D01*
X199211Y425238D01*
X199335Y425218D01*
X199458Y425188D01*
X199555Y425182D01*
X199605Y425174D01*
X199652Y425176D01*
X199737Y425170D01*
X288484Y425652D01*
X290385Y425652D01*
X290385Y113345D01*
X289884Y112843D01*
X190758Y112843D01*
X190735Y112841D01*
X190712Y112843D01*
X190536Y112821D01*
X190360Y112803D01*
X190338Y112797D01*
X190316Y112794D01*
X190148Y112738D01*
X189979Y112685D01*
X189959Y112674D01*
X189937Y112667D01*
X189784Y112579D01*
X189628Y112494D01*
X189611Y112479D01*
X189591Y112468D01*
X189458Y112350D01*
X189323Y112236D01*
X189309Y112219D01*
X189292Y112203D01*
X189184Y112062D01*
X189075Y111923D01*
X189064Y111903D01*
X189051Y111885D01*
X188974Y111725D01*
X188894Y111567D01*
X188888Y111545D01*
X188878Y111525D01*
X188834Y111353D01*
X188787Y111182D01*
X188785Y111160D01*
X188780Y111138D01*
X188772Y110960D01*
X188759Y110784D01*
X188762Y110761D01*
X188761Y110739D01*
X188788Y110563D01*
X188811Y110388D01*
X188818Y110366D01*
X188822Y110344D01*
X188910Y110079D01*
X191184Y104590D01*
X191211Y104540D01*
X191268Y104413D01*
X208000Y73109D01*
X208032Y73061D01*
X208101Y72941D01*
X227821Y43428D01*
X227857Y43384D01*
X227938Y43270D01*
X250456Y15832D01*
X250492Y15796D01*
X250553Y15722D01*
X261122Y4621D01*
X261175Y4576D01*
X261221Y4524D01*
X261326Y4446D01*
X261424Y4361D01*
X261485Y4327D01*
X261542Y4285D01*
X261659Y4230D01*
X261773Y4166D01*
X261840Y4145D01*
X261903Y4115D01*
X262030Y4084D01*
X262154Y4044D01*
X262223Y4037D01*
X262291Y4020D01*
X262520Y4004D01*
X262551Y4001D01*
X262558Y4002D01*
X262569Y4001D01*
X777431Y4001D01*
X777500Y4008D01*
G37*
G36*
X277239Y122840D02*
X277239Y122840D01*
X277269Y122838D01*
X277437Y122860D01*
X277606Y122877D01*
X277635Y122886D01*
X277665Y122890D01*
X277825Y122945D01*
X277988Y122995D01*
X278014Y123009D01*
X278043Y123019D01*
X278189Y123105D01*
X278338Y123186D01*
X278361Y123206D01*
X278387Y123221D01*
X278514Y123334D01*
X278643Y123444D01*
X278662Y123468D01*
X278685Y123488D01*
X278786Y123624D01*
X278892Y123757D01*
X278905Y123784D01*
X278923Y123808D01*
X278996Y123961D01*
X279073Y124113D01*
X279081Y124142D01*
X279094Y124170D01*
X279134Y124335D01*
X279179Y124498D01*
X279181Y124528D01*
X279188Y124558D01*
X279208Y124836D01*
X279208Y410006D01*
X279206Y410021D01*
X279208Y410036D01*
X279186Y410220D01*
X279168Y410404D01*
X279164Y410418D01*
X279162Y410433D01*
X279105Y410608D01*
X279050Y410785D01*
X279043Y410798D01*
X279038Y410813D01*
X278947Y410973D01*
X278858Y411136D01*
X278848Y411147D01*
X278841Y411160D01*
X278720Y411300D01*
X278601Y411441D01*
X278589Y411450D01*
X278579Y411462D01*
X278432Y411575D01*
X278288Y411689D01*
X278274Y411696D01*
X278262Y411705D01*
X278097Y411786D01*
X277932Y411870D01*
X277917Y411874D01*
X277904Y411881D01*
X277725Y411927D01*
X277547Y411977D01*
X277532Y411978D01*
X277517Y411981D01*
X277333Y411992D01*
X277148Y412004D01*
X277133Y412003D01*
X277118Y412003D01*
X276936Y411977D01*
X276752Y411953D01*
X276738Y411948D01*
X276723Y411946D01*
X276607Y411904D01*
X191113Y412008D01*
X191075Y412004D01*
X191035Y412007D01*
X190876Y411985D01*
X190716Y411969D01*
X190678Y411957D01*
X190640Y411952D01*
X190488Y411898D01*
X190334Y411851D01*
X190300Y411832D01*
X190263Y411819D01*
X190125Y411737D01*
X189983Y411660D01*
X189953Y411635D01*
X189920Y411615D01*
X189801Y411507D01*
X189678Y411403D01*
X189653Y411372D01*
X189625Y411346D01*
X189530Y411216D01*
X189429Y411090D01*
X189411Y411055D01*
X189388Y411024D01*
X189264Y410774D01*
X177601Y382617D01*
X177584Y382562D01*
X177535Y382432D01*
X167231Y348465D01*
X167220Y348410D01*
X167183Y348275D01*
X160258Y313462D01*
X160253Y313405D01*
X160230Y313268D01*
X156751Y277944D01*
X156751Y277887D01*
X156741Y277748D01*
X156741Y242252D01*
X156747Y242196D01*
X156751Y242056D01*
X160230Y206732D01*
X160241Y206677D01*
X160258Y206538D01*
X167183Y171725D01*
X167200Y171671D01*
X167231Y171535D01*
X177535Y137568D01*
X177556Y137516D01*
X177601Y137383D01*
X183115Y124071D01*
X183133Y124038D01*
X183145Y124002D01*
X183227Y123862D01*
X183304Y123719D01*
X183328Y123690D01*
X183347Y123657D01*
X183455Y123537D01*
X183559Y123412D01*
X183588Y123388D01*
X183614Y123360D01*
X183744Y123263D01*
X183870Y123161D01*
X183904Y123144D01*
X183934Y123121D01*
X184080Y123052D01*
X184225Y122978D01*
X184261Y122967D01*
X184295Y122951D01*
X184453Y122913D01*
X184609Y122868D01*
X184647Y122865D01*
X184683Y122856D01*
X184962Y122837D01*
X277209Y122837D01*
X277239Y122840D01*
G37*
%LPC*%
G36*
X249950Y151182D02*
X249950Y151182D01*
X247896Y152033D01*
X246323Y153606D01*
X245472Y155661D01*
X245472Y157885D01*
X246323Y159940D01*
X247564Y161181D01*
X247583Y161204D01*
X247606Y161224D01*
X247710Y161359D01*
X247817Y161490D01*
X247831Y161517D01*
X247850Y161541D01*
X247924Y161693D01*
X248003Y161843D01*
X248012Y161873D01*
X248025Y161900D01*
X248068Y162063D01*
X248116Y162227D01*
X248118Y162257D01*
X248126Y162286D01*
X248135Y162455D01*
X248149Y162625D01*
X248146Y162655D01*
X248148Y162685D01*
X248123Y162853D01*
X248104Y163022D01*
X248094Y163050D01*
X248090Y163080D01*
X248032Y163240D01*
X247980Y163401D01*
X247965Y163428D01*
X247955Y163456D01*
X247867Y163601D01*
X247783Y163749D01*
X247763Y163772D01*
X247747Y163798D01*
X247564Y164008D01*
X246115Y165457D01*
X245264Y167512D01*
X245264Y169736D01*
X246115Y171791D01*
X247928Y173604D01*
X247947Y173628D01*
X247970Y173648D01*
X248073Y173782D01*
X248181Y173913D01*
X248195Y173940D01*
X248213Y173964D01*
X248288Y174117D01*
X248367Y174267D01*
X248376Y174296D01*
X248389Y174323D01*
X248432Y174487D01*
X248479Y174650D01*
X248482Y174680D01*
X248490Y174710D01*
X248499Y174878D01*
X248513Y175048D01*
X248510Y175078D01*
X248511Y175108D01*
X248487Y175276D01*
X248467Y175445D01*
X248458Y175474D01*
X248454Y175504D01*
X248396Y175664D01*
X248344Y175825D01*
X248329Y175851D01*
X248318Y175879D01*
X248230Y176024D01*
X248147Y176172D01*
X248127Y176195D01*
X248111Y176221D01*
X247928Y176432D01*
X246427Y177933D01*
X245576Y179988D01*
X245576Y182212D01*
X246427Y184267D01*
X248096Y185936D01*
X248115Y185959D01*
X248138Y185979D01*
X248241Y186113D01*
X248349Y186245D01*
X248363Y186272D01*
X248381Y186296D01*
X248456Y186448D01*
X248535Y186598D01*
X248544Y186627D01*
X248557Y186654D01*
X248600Y186818D01*
X248647Y186982D01*
X248650Y187012D01*
X248658Y187041D01*
X248667Y187210D01*
X248681Y187380D01*
X248678Y187410D01*
X248680Y187440D01*
X248655Y187607D01*
X248635Y187776D01*
X248626Y187805D01*
X248622Y187835D01*
X248564Y187994D01*
X248512Y188156D01*
X248497Y188182D01*
X248486Y188211D01*
X248399Y188356D01*
X248315Y188504D01*
X248295Y188526D01*
X248279Y188552D01*
X248096Y188763D01*
X246832Y190027D01*
X245981Y192082D01*
X245981Y194306D01*
X246832Y196361D01*
X248405Y197933D01*
X249052Y198201D01*
X249065Y198208D01*
X249080Y198213D01*
X249240Y198303D01*
X249404Y198390D01*
X249415Y198400D01*
X249429Y198407D01*
X249569Y198527D01*
X249711Y198645D01*
X249720Y198657D01*
X249732Y198667D01*
X249846Y198812D01*
X249961Y198956D01*
X249968Y198970D01*
X249978Y198982D01*
X250060Y199146D01*
X250145Y199311D01*
X250149Y199326D01*
X250156Y199339D01*
X250204Y199517D01*
X250255Y199695D01*
X250256Y199711D01*
X250260Y199725D01*
X250271Y199908D01*
X250285Y200094D01*
X250284Y200109D01*
X250284Y200124D01*
X250259Y200306D01*
X250237Y200490D01*
X250232Y200504D01*
X250230Y200519D01*
X250169Y200693D01*
X250110Y200869D01*
X250102Y200882D01*
X250097Y200896D01*
X250002Y201056D01*
X249910Y201215D01*
X249900Y201226D01*
X249893Y201239D01*
X249768Y201376D01*
X249646Y201514D01*
X249634Y201523D01*
X249624Y201535D01*
X249475Y201644D01*
X249328Y201755D01*
X249314Y201762D01*
X249302Y201771D01*
X249052Y201895D01*
X248665Y202056D01*
X247092Y203628D01*
X246241Y205683D01*
X246241Y207907D01*
X247092Y209962D01*
X248515Y211385D01*
X248530Y211403D01*
X248547Y211418D01*
X248656Y211558D01*
X248768Y211695D01*
X248779Y211715D01*
X248793Y211733D01*
X248872Y211891D01*
X248954Y212048D01*
X248961Y212070D01*
X248971Y212090D01*
X249017Y212261D01*
X249067Y212431D01*
X249069Y212454D01*
X249075Y212476D01*
X249086Y212653D01*
X249101Y212829D01*
X249098Y212852D01*
X249100Y212875D01*
X249075Y213050D01*
X249055Y213226D01*
X249048Y213248D01*
X249045Y213270D01*
X248986Y213438D01*
X248931Y213606D01*
X248920Y213626D01*
X248912Y213647D01*
X248821Y213799D01*
X248734Y213953D01*
X248719Y213971D01*
X248708Y213990D01*
X248589Y214121D01*
X248472Y214255D01*
X248454Y214269D01*
X248439Y214286D01*
X248296Y214390D01*
X248252Y214424D01*
X246572Y216104D01*
X245721Y218158D01*
X245721Y220383D01*
X246572Y222437D01*
X248145Y224010D01*
X248305Y224076D01*
X248318Y224083D01*
X248333Y224088D01*
X248494Y224178D01*
X248657Y224265D01*
X248669Y224275D01*
X248682Y224282D01*
X248821Y224402D01*
X248964Y224520D01*
X248974Y224532D01*
X248985Y224542D01*
X249098Y224687D01*
X249215Y224831D01*
X249222Y224845D01*
X249231Y224857D01*
X249313Y225023D01*
X249398Y225186D01*
X249402Y225201D01*
X249409Y225214D01*
X249457Y225393D01*
X249508Y225570D01*
X249509Y225585D01*
X249513Y225600D01*
X249524Y225784D01*
X249539Y225969D01*
X249537Y225984D01*
X249538Y225999D01*
X249512Y226181D01*
X249490Y226365D01*
X249485Y226379D01*
X249483Y226394D01*
X249421Y226569D01*
X249363Y226744D01*
X249355Y226757D01*
X249350Y226771D01*
X249255Y226931D01*
X249164Y227090D01*
X249154Y227101D01*
X249146Y227114D01*
X249021Y227252D01*
X248899Y227389D01*
X248887Y227398D01*
X248877Y227410D01*
X248728Y227519D01*
X248581Y227630D01*
X248567Y227637D01*
X248555Y227646D01*
X248305Y227770D01*
X248058Y227873D01*
X246486Y229445D01*
X245635Y231500D01*
X245635Y233724D01*
X246486Y235779D01*
X248186Y237479D01*
X248205Y237503D01*
X248228Y237523D01*
X248331Y237657D01*
X248439Y237789D01*
X248453Y237815D01*
X248471Y237839D01*
X248546Y237992D01*
X248625Y238142D01*
X248634Y238171D01*
X248647Y238198D01*
X248690Y238362D01*
X248738Y238525D01*
X248740Y238556D01*
X248748Y238585D01*
X248757Y238753D01*
X248771Y238923D01*
X248768Y238954D01*
X248770Y238984D01*
X248745Y239151D01*
X248726Y239320D01*
X248716Y239349D01*
X248712Y239379D01*
X248654Y239538D01*
X248602Y239700D01*
X248587Y239726D01*
X248576Y239755D01*
X248489Y239899D01*
X248405Y240047D01*
X248385Y240070D01*
X248369Y240096D01*
X248186Y240307D01*
X246659Y241834D01*
X245808Y243889D01*
X245808Y246113D01*
X246659Y248168D01*
X248489Y249998D01*
X248508Y250021D01*
X248531Y250041D01*
X248634Y250176D01*
X248742Y250307D01*
X248756Y250334D01*
X248775Y250358D01*
X248849Y250510D01*
X248928Y250661D01*
X248937Y250690D01*
X248950Y250717D01*
X248993Y250881D01*
X249041Y251044D01*
X249043Y251074D01*
X249051Y251103D01*
X249060Y251272D01*
X249075Y251442D01*
X249071Y251472D01*
X249073Y251502D01*
X249048Y251670D01*
X249029Y251839D01*
X249019Y251867D01*
X249015Y251897D01*
X248957Y252058D01*
X248905Y252218D01*
X248890Y252245D01*
X248880Y252273D01*
X248792Y252418D01*
X248708Y252566D01*
X248688Y252589D01*
X248672Y252615D01*
X248489Y252825D01*
X247352Y253963D01*
X246501Y256018D01*
X246501Y258242D01*
X247352Y260297D01*
X248977Y261921D01*
X249079Y261976D01*
X249091Y261986D01*
X249104Y261994D01*
X249244Y262113D01*
X249387Y262232D01*
X249396Y262243D01*
X249408Y262253D01*
X249521Y262398D01*
X249637Y262543D01*
X249644Y262556D01*
X249653Y262568D01*
X249735Y262733D01*
X249821Y262897D01*
X249825Y262912D01*
X249832Y262926D01*
X249880Y263104D01*
X249930Y263282D01*
X249931Y263297D01*
X249935Y263311D01*
X249947Y263495D01*
X249961Y263680D01*
X249959Y263695D01*
X249960Y263710D01*
X249935Y263892D01*
X249912Y264076D01*
X249907Y264091D01*
X249905Y264106D01*
X249844Y264279D01*
X249786Y264455D01*
X249778Y264468D01*
X249773Y264483D01*
X249679Y264641D01*
X249586Y264801D01*
X249576Y264813D01*
X249568Y264826D01*
X249445Y264961D01*
X249322Y265101D01*
X249310Y265110D01*
X249299Y265121D01*
X249151Y265230D01*
X249003Y265342D01*
X248990Y265348D01*
X248977Y265357D01*
X248755Y265468D01*
X247179Y267044D01*
X246328Y269099D01*
X246328Y271323D01*
X247179Y273378D01*
X248919Y275119D01*
X248938Y275142D01*
X248961Y275162D01*
X249064Y275296D01*
X249172Y275428D01*
X249186Y275455D01*
X249204Y275479D01*
X249279Y275631D01*
X249358Y275781D01*
X249367Y275810D01*
X249380Y275837D01*
X249423Y276001D01*
X249470Y276164D01*
X249473Y276195D01*
X249481Y276224D01*
X249490Y276393D01*
X249504Y276562D01*
X249501Y276593D01*
X249503Y276623D01*
X249478Y276791D01*
X249458Y276959D01*
X249449Y276988D01*
X249445Y277018D01*
X249387Y277178D01*
X249335Y277339D01*
X249320Y277365D01*
X249309Y277394D01*
X249222Y277539D01*
X249138Y277686D01*
X249118Y277709D01*
X249102Y277735D01*
X248919Y277946D01*
X247311Y279554D01*
X246459Y281609D01*
X246459Y283833D01*
X247311Y285888D01*
X248768Y287346D01*
X248782Y287363D01*
X248800Y287378D01*
X248909Y287518D01*
X249021Y287655D01*
X249031Y287675D01*
X249045Y287693D01*
X249125Y287852D01*
X249207Y288008D01*
X249213Y288030D01*
X249224Y288050D01*
X249270Y288221D01*
X249319Y288391D01*
X249321Y288414D01*
X249327Y288436D01*
X249338Y288613D01*
X249353Y288789D01*
X249351Y288812D01*
X249352Y288835D01*
X249328Y289011D01*
X249307Y289186D01*
X249300Y289208D01*
X249297Y289230D01*
X249238Y289398D01*
X249184Y289566D01*
X249172Y289586D01*
X249165Y289607D01*
X249074Y289759D01*
X248987Y289913D01*
X248972Y289931D01*
X248960Y289950D01*
X248841Y290081D01*
X248725Y290215D01*
X248707Y290229D01*
X248691Y290246D01*
X248549Y290350D01*
X248408Y290458D01*
X248388Y290468D01*
X248369Y290482D01*
X248119Y290606D01*
X248104Y290613D01*
X246531Y292186D01*
X245680Y294240D01*
X245680Y296465D01*
X246531Y298519D01*
X248103Y300092D01*
X248464Y300241D01*
X248477Y300249D01*
X248492Y300253D01*
X248653Y300343D01*
X248816Y300430D01*
X248827Y300440D01*
X248841Y300447D01*
X248981Y300567D01*
X249123Y300685D01*
X249133Y300697D01*
X249144Y300707D01*
X249258Y300852D01*
X249374Y300997D01*
X249381Y301010D01*
X249390Y301022D01*
X249472Y301188D01*
X249557Y301351D01*
X249561Y301366D01*
X249568Y301379D01*
X249616Y301558D01*
X249667Y301735D01*
X249668Y301751D01*
X249672Y301765D01*
X249683Y301948D01*
X249698Y302134D01*
X249696Y302149D01*
X249697Y302164D01*
X249671Y302346D01*
X249649Y302530D01*
X249644Y302544D01*
X249642Y302559D01*
X249581Y302734D01*
X249522Y302909D01*
X249514Y302922D01*
X249509Y302936D01*
X249414Y303095D01*
X249322Y303255D01*
X249312Y303266D01*
X249305Y303279D01*
X249180Y303416D01*
X249058Y303554D01*
X249046Y303563D01*
X249036Y303575D01*
X248887Y303684D01*
X248740Y303795D01*
X248726Y303802D01*
X248714Y303811D01*
X248464Y303935D01*
X248000Y304128D01*
X246427Y305701D01*
X245576Y307755D01*
X245576Y309979D01*
X246427Y312034D01*
X248188Y313795D01*
X248207Y313819D01*
X248230Y313839D01*
X248333Y313973D01*
X248441Y314105D01*
X248455Y314131D01*
X248473Y314155D01*
X248548Y314308D01*
X248627Y314458D01*
X248636Y314487D01*
X248649Y314514D01*
X248692Y314678D01*
X248739Y314841D01*
X248742Y314871D01*
X248750Y314901D01*
X248759Y315069D01*
X248773Y315239D01*
X248770Y315269D01*
X248771Y315299D01*
X248747Y315467D01*
X248727Y315636D01*
X248718Y315665D01*
X248714Y315695D01*
X248656Y315855D01*
X248604Y316016D01*
X248589Y316042D01*
X248578Y316071D01*
X248491Y316215D01*
X248407Y316363D01*
X248387Y316386D01*
X248371Y316412D01*
X248188Y316623D01*
X246427Y318384D01*
X245576Y320439D01*
X245576Y322663D01*
X246427Y324718D01*
X248188Y326479D01*
X248207Y326502D01*
X248230Y326522D01*
X248333Y326656D01*
X248441Y326788D01*
X248455Y326815D01*
X248473Y326839D01*
X248548Y326991D01*
X248627Y327141D01*
X248636Y327170D01*
X248649Y327197D01*
X248691Y327361D01*
X248739Y327524D01*
X248742Y327555D01*
X248750Y327584D01*
X248759Y327753D01*
X248773Y327922D01*
X248770Y327953D01*
X248771Y327983D01*
X248747Y328150D01*
X248727Y328319D01*
X248718Y328348D01*
X248714Y328378D01*
X248656Y328537D01*
X248603Y328699D01*
X248589Y328725D01*
X248578Y328754D01*
X248490Y328899D01*
X248407Y329046D01*
X248387Y329069D01*
X248371Y329095D01*
X248188Y329306D01*
X246947Y330547D01*
X246096Y332602D01*
X246096Y334826D01*
X246947Y336881D01*
X248712Y338647D01*
X248727Y338665D01*
X248745Y338680D01*
X248853Y338819D01*
X248965Y338956D01*
X248976Y338976D01*
X248990Y338995D01*
X249069Y339153D01*
X249151Y339309D01*
X249158Y339331D01*
X249168Y339352D01*
X249214Y339523D01*
X249264Y339692D01*
X249266Y339716D01*
X249272Y339738D01*
X249283Y339914D01*
X249298Y340090D01*
X249295Y340114D01*
X249296Y340137D01*
X249272Y340312D01*
X249252Y340487D01*
X249245Y340509D01*
X249241Y340532D01*
X249183Y340699D01*
X249128Y340867D01*
X249116Y340887D01*
X249109Y340909D01*
X249018Y341061D01*
X248931Y341214D01*
X248916Y341232D01*
X248904Y341252D01*
X248785Y341382D01*
X248669Y341516D01*
X248651Y341530D01*
X248635Y341547D01*
X248615Y341562D01*
X246843Y343334D01*
X245992Y345389D01*
X245992Y347613D01*
X246843Y349668D01*
X248516Y351342D01*
X248524Y351351D01*
X248533Y351358D01*
X248544Y351372D01*
X248558Y351385D01*
X248662Y351519D01*
X248769Y351651D01*
X248778Y351668D01*
X248781Y351671D01*
X248785Y351681D01*
X248802Y351702D01*
X248876Y351854D01*
X248955Y352004D01*
X248964Y352034D01*
X248977Y352061D01*
X249020Y352224D01*
X249068Y352388D01*
X249070Y352418D01*
X249078Y352447D01*
X249087Y352616D01*
X249102Y352786D01*
X249098Y352816D01*
X249100Y352846D01*
X249075Y353013D01*
X249056Y353182D01*
X249046Y353211D01*
X249042Y353241D01*
X248985Y353401D01*
X248932Y353562D01*
X248917Y353589D01*
X248907Y353617D01*
X248819Y353762D01*
X248735Y353910D01*
X248715Y353933D01*
X248700Y353958D01*
X248516Y354169D01*
X247153Y355533D01*
X246302Y357588D01*
X246302Y359812D01*
X247153Y361867D01*
X248935Y363649D01*
X248954Y363673D01*
X248977Y363692D01*
X249080Y363826D01*
X249188Y363958D01*
X249202Y363985D01*
X249221Y364009D01*
X249295Y364161D01*
X249374Y364312D01*
X249383Y364341D01*
X249396Y364368D01*
X249439Y364532D01*
X249487Y364695D01*
X249489Y364725D01*
X249497Y364754D01*
X249506Y364923D01*
X249521Y365093D01*
X249517Y365123D01*
X249519Y365153D01*
X249494Y365321D01*
X249475Y365490D01*
X249465Y365518D01*
X249461Y365548D01*
X249403Y365708D01*
X249351Y365869D01*
X249336Y365896D01*
X249326Y365924D01*
X249238Y366069D01*
X249154Y366217D01*
X249134Y366240D01*
X249118Y366266D01*
X248935Y366476D01*
X247153Y368259D01*
X246302Y370314D01*
X246302Y372538D01*
X247153Y374593D01*
X248725Y376165D01*
X249404Y376446D01*
X249424Y376457D01*
X249445Y376464D01*
X249600Y376552D01*
X249756Y376635D01*
X249773Y376650D01*
X249793Y376661D01*
X249926Y376777D01*
X250063Y376890D01*
X250077Y376908D01*
X250094Y376923D01*
X250202Y377063D01*
X250314Y377202D01*
X250324Y377222D01*
X250338Y377240D01*
X250415Y377399D01*
X250497Y377556D01*
X250503Y377578D01*
X250513Y377599D01*
X250558Y377769D01*
X250607Y377940D01*
X250608Y377963D01*
X250614Y377985D01*
X250624Y378161D01*
X250637Y378339D01*
X250635Y378361D01*
X250636Y378384D01*
X250610Y378559D01*
X250589Y378735D01*
X250581Y378756D01*
X250578Y378779D01*
X250518Y378946D01*
X250462Y379114D01*
X250450Y379134D01*
X250443Y379155D01*
X250351Y379306D01*
X250262Y379460D01*
X250247Y379477D01*
X250236Y379496D01*
X250052Y379707D01*
X248213Y381546D01*
X247362Y383601D01*
X247362Y385825D01*
X248213Y387880D01*
X249786Y389453D01*
X251841Y390304D01*
X254065Y390304D01*
X256120Y389453D01*
X257692Y387880D01*
X258544Y385825D01*
X258544Y383601D01*
X257692Y381546D01*
X256120Y379974D01*
X255441Y379693D01*
X255421Y379682D01*
X255400Y379675D01*
X255245Y379587D01*
X255089Y379504D01*
X255072Y379489D01*
X255052Y379478D01*
X254919Y379362D01*
X254782Y379249D01*
X254768Y379231D01*
X254751Y379216D01*
X254643Y379076D01*
X254532Y378937D01*
X254521Y378917D01*
X254507Y378899D01*
X254430Y378740D01*
X254348Y378583D01*
X254342Y378561D01*
X254332Y378540D01*
X254287Y378370D01*
X254239Y378199D01*
X254237Y378176D01*
X254231Y378154D01*
X254221Y377978D01*
X254208Y377800D01*
X254210Y377778D01*
X254209Y377755D01*
X254235Y377580D01*
X254257Y377404D01*
X254264Y377382D01*
X254267Y377360D01*
X254327Y377193D01*
X254383Y377025D01*
X254395Y377005D01*
X254402Y376984D01*
X254494Y376833D01*
X254583Y376679D01*
X254598Y376662D01*
X254610Y376643D01*
X254793Y376432D01*
X256632Y374593D01*
X257483Y372538D01*
X257483Y370314D01*
X256632Y368259D01*
X254849Y366476D01*
X254830Y366453D01*
X254807Y366433D01*
X254704Y366299D01*
X254597Y366167D01*
X254582Y366140D01*
X254564Y366116D01*
X254490Y365964D01*
X254410Y365814D01*
X254402Y365785D01*
X254389Y365758D01*
X254346Y365594D01*
X254298Y365431D01*
X254295Y365400D01*
X254288Y365371D01*
X254279Y365202D01*
X254264Y365033D01*
X254268Y365002D01*
X254266Y364972D01*
X254291Y364804D01*
X254310Y364636D01*
X254319Y364607D01*
X254324Y364577D01*
X254381Y364417D01*
X254434Y364256D01*
X254449Y364230D01*
X254459Y364201D01*
X254547Y364057D01*
X254631Y363909D01*
X254651Y363886D01*
X254666Y363860D01*
X254849Y363649D01*
X256632Y361867D01*
X257483Y359812D01*
X257483Y357588D01*
X256632Y355533D01*
X254958Y353859D01*
X254939Y353836D01*
X254916Y353816D01*
X254813Y353681D01*
X254705Y353550D01*
X254691Y353523D01*
X254673Y353499D01*
X254598Y353347D01*
X254519Y353197D01*
X254511Y353167D01*
X254497Y353140D01*
X254455Y352977D01*
X254407Y352813D01*
X254404Y352783D01*
X254397Y352754D01*
X254387Y352585D01*
X254373Y352415D01*
X254376Y352385D01*
X254375Y352355D01*
X254399Y352188D01*
X254419Y352019D01*
X254428Y351990D01*
X254433Y351960D01*
X254490Y351800D01*
X254543Y351639D01*
X254558Y351612D01*
X254568Y351584D01*
X254656Y351439D01*
X254739Y351291D01*
X254759Y351268D01*
X254775Y351243D01*
X254958Y351032D01*
X256322Y349668D01*
X257173Y347613D01*
X257173Y345389D01*
X256322Y343334D01*
X254556Y341569D01*
X254541Y341551D01*
X254524Y341535D01*
X254416Y341397D01*
X254303Y341259D01*
X254293Y341239D01*
X254278Y341220D01*
X254200Y341063D01*
X254117Y340906D01*
X254111Y340884D01*
X254100Y340863D01*
X254055Y340693D01*
X254005Y340523D01*
X254003Y340500D01*
X253997Y340477D01*
X253986Y340301D01*
X253971Y340125D01*
X253974Y340102D01*
X253972Y340078D01*
X253996Y339904D01*
X254017Y339728D01*
X254024Y339706D01*
X254027Y339683D01*
X254086Y339516D01*
X254141Y339348D01*
X254152Y339328D01*
X254160Y339306D01*
X254250Y339154D01*
X254337Y339001D01*
X254353Y338983D01*
X254365Y338963D01*
X254483Y338833D01*
X254600Y338699D01*
X254618Y338685D01*
X254634Y338668D01*
X254653Y338654D01*
X256426Y336881D01*
X257277Y334826D01*
X257277Y332602D01*
X256426Y330547D01*
X254665Y328786D01*
X254646Y328763D01*
X254623Y328743D01*
X254519Y328608D01*
X254412Y328477D01*
X254398Y328450D01*
X254379Y328426D01*
X254305Y328273D01*
X254226Y328124D01*
X254217Y328095D01*
X254204Y328067D01*
X254161Y327903D01*
X254113Y327740D01*
X254111Y327710D01*
X254103Y327681D01*
X254094Y327512D01*
X254079Y327342D01*
X254083Y327312D01*
X254081Y327282D01*
X254106Y327114D01*
X254125Y326946D01*
X254135Y326917D01*
X254139Y326887D01*
X254197Y326727D01*
X254249Y326566D01*
X254264Y326540D01*
X254274Y326511D01*
X254362Y326366D01*
X254446Y326218D01*
X254466Y326195D01*
X254482Y326170D01*
X254665Y325959D01*
X255906Y324718D01*
X256757Y322663D01*
X256757Y320439D01*
X255906Y318384D01*
X254145Y316623D01*
X254126Y316599D01*
X254103Y316579D01*
X254000Y316445D01*
X253892Y316313D01*
X253878Y316287D01*
X253860Y316263D01*
X253785Y316110D01*
X253706Y315960D01*
X253697Y315931D01*
X253684Y315904D01*
X253641Y315740D01*
X253594Y315577D01*
X253591Y315547D01*
X253583Y315517D01*
X253574Y315349D01*
X253560Y315179D01*
X253563Y315149D01*
X253562Y315119D01*
X253586Y314951D01*
X253606Y314782D01*
X253615Y314753D01*
X253619Y314723D01*
X253677Y314563D01*
X253729Y314402D01*
X253744Y314376D01*
X253755Y314348D01*
X253842Y314203D01*
X253926Y314055D01*
X253946Y314032D01*
X253962Y314006D01*
X254145Y313795D01*
X255906Y312034D01*
X256757Y309979D01*
X256757Y307755D01*
X255906Y305701D01*
X254333Y304128D01*
X253973Y303979D01*
X253960Y303971D01*
X253945Y303967D01*
X253783Y303877D01*
X253621Y303790D01*
X253610Y303780D01*
X253596Y303773D01*
X253456Y303652D01*
X253314Y303534D01*
X253304Y303523D01*
X253293Y303513D01*
X253179Y303367D01*
X253063Y303223D01*
X253056Y303210D01*
X253047Y303198D01*
X252964Y303032D01*
X252880Y302869D01*
X252876Y302854D01*
X252869Y302840D01*
X252821Y302662D01*
X252770Y302485D01*
X252769Y302469D01*
X252765Y302455D01*
X252754Y302272D01*
X252739Y302086D01*
X252741Y302071D01*
X252740Y302056D01*
X252765Y301874D01*
X252788Y301690D01*
X252793Y301675D01*
X252795Y301660D01*
X252856Y301486D01*
X252915Y301311D01*
X252922Y301298D01*
X252928Y301284D01*
X253022Y301125D01*
X253114Y300965D01*
X253124Y300954D01*
X253132Y300941D01*
X253257Y300804D01*
X253379Y300666D01*
X253391Y300656D01*
X253401Y300645D01*
X253550Y300536D01*
X253697Y300425D01*
X253711Y300418D01*
X253723Y300409D01*
X253973Y300284D01*
X254437Y300092D01*
X256010Y298519D01*
X256861Y296465D01*
X256861Y294240D01*
X256010Y292186D01*
X254553Y290728D01*
X254538Y290711D01*
X254521Y290696D01*
X254411Y290555D01*
X254300Y290419D01*
X254289Y290399D01*
X254275Y290381D01*
X254196Y290222D01*
X254113Y290066D01*
X254107Y290044D01*
X254097Y290024D01*
X254051Y289852D01*
X254001Y289682D01*
X253999Y289660D01*
X253993Y289638D01*
X253982Y289461D01*
X253967Y289284D01*
X253970Y289262D01*
X253968Y289239D01*
X253993Y289063D01*
X254013Y288888D01*
X254020Y288866D01*
X254023Y288844D01*
X254082Y288676D01*
X254137Y288508D01*
X254148Y288488D01*
X254156Y288467D01*
X254246Y288315D01*
X254334Y288160D01*
X254349Y288143D01*
X254360Y288124D01*
X254479Y287993D01*
X254596Y287859D01*
X254614Y287845D01*
X254629Y287828D01*
X254772Y287723D01*
X254913Y287615D01*
X254933Y287605D01*
X254951Y287592D01*
X255201Y287467D01*
X255217Y287461D01*
X256790Y285888D01*
X257641Y283833D01*
X257641Y281609D01*
X256790Y279554D01*
X255049Y277814D01*
X255030Y277791D01*
X255007Y277771D01*
X254904Y277636D01*
X254797Y277505D01*
X254783Y277478D01*
X254764Y277454D01*
X254689Y277301D01*
X254610Y277152D01*
X254602Y277123D01*
X254589Y277095D01*
X254546Y276931D01*
X254498Y276768D01*
X254495Y276738D01*
X254488Y276709D01*
X254479Y276540D01*
X254464Y276370D01*
X254468Y276340D01*
X254466Y276310D01*
X254490Y276142D01*
X254510Y275973D01*
X254519Y275945D01*
X254524Y275915D01*
X254581Y275755D01*
X254634Y275594D01*
X254649Y275568D01*
X254659Y275539D01*
X254747Y275394D01*
X254831Y275246D01*
X254851Y275223D01*
X254866Y275197D01*
X255049Y274987D01*
X256658Y273378D01*
X257509Y271323D01*
X257509Y269099D01*
X256658Y267044D01*
X255033Y265420D01*
X254931Y265365D01*
X254919Y265355D01*
X254906Y265347D01*
X254766Y265228D01*
X254623Y265109D01*
X254614Y265097D01*
X254602Y265088D01*
X254489Y264943D01*
X254373Y264798D01*
X254366Y264785D01*
X254356Y264773D01*
X254274Y264608D01*
X254189Y264444D01*
X254185Y264429D01*
X254178Y264415D01*
X254130Y264237D01*
X254080Y264059D01*
X254078Y264044D01*
X254075Y264030D01*
X254063Y263846D01*
X254049Y263661D01*
X254051Y263646D01*
X254050Y263631D01*
X254075Y263449D01*
X254098Y263265D01*
X254102Y263250D01*
X254105Y263235D01*
X254166Y263062D01*
X254224Y262886D01*
X254232Y262873D01*
X254237Y262858D01*
X254331Y262700D01*
X254424Y262540D01*
X254434Y262528D01*
X254442Y262515D01*
X254565Y262380D01*
X254688Y262240D01*
X254700Y262231D01*
X254710Y262220D01*
X254859Y262111D01*
X255007Y261999D01*
X255020Y261993D01*
X255033Y261984D01*
X255254Y261873D01*
X256831Y260297D01*
X257682Y258242D01*
X257682Y256018D01*
X256831Y253963D01*
X255001Y252132D01*
X254982Y252109D01*
X254959Y252089D01*
X254856Y251955D01*
X254748Y251823D01*
X254734Y251796D01*
X254715Y251772D01*
X254641Y251620D01*
X254562Y251470D01*
X254553Y251441D01*
X254540Y251414D01*
X254497Y251250D01*
X254449Y251087D01*
X254447Y251056D01*
X254439Y251027D01*
X254430Y250858D01*
X254415Y250689D01*
X254419Y250658D01*
X254417Y250628D01*
X254442Y250461D01*
X254461Y250292D01*
X254471Y250263D01*
X254475Y250233D01*
X254532Y250074D01*
X254585Y249912D01*
X254600Y249886D01*
X254610Y249857D01*
X254698Y249712D01*
X254782Y249564D01*
X254802Y249542D01*
X254818Y249516D01*
X255001Y249305D01*
X256138Y248168D01*
X256989Y246113D01*
X256989Y243889D01*
X256138Y241834D01*
X254438Y240134D01*
X254419Y240110D01*
X254396Y240090D01*
X254292Y239956D01*
X254185Y239824D01*
X254171Y239798D01*
X254152Y239774D01*
X254078Y239621D01*
X253999Y239471D01*
X253990Y239442D01*
X253977Y239415D01*
X253934Y239251D01*
X253886Y239088D01*
X253884Y239057D01*
X253876Y239028D01*
X253867Y238860D01*
X253852Y238690D01*
X253856Y238660D01*
X253854Y238629D01*
X253879Y238462D01*
X253898Y238293D01*
X253908Y238264D01*
X253912Y238234D01*
X253969Y238075D01*
X254022Y237913D01*
X254037Y237887D01*
X254047Y237858D01*
X254135Y237714D01*
X254219Y237566D01*
X254239Y237543D01*
X254255Y237517D01*
X254438Y237306D01*
X255965Y235779D01*
X256816Y233724D01*
X256816Y231500D01*
X255965Y229445D01*
X254392Y227873D01*
X254232Y227806D01*
X254219Y227799D01*
X254205Y227795D01*
X254043Y227705D01*
X253880Y227618D01*
X253869Y227608D01*
X253856Y227600D01*
X253716Y227481D01*
X253573Y227362D01*
X253564Y227351D01*
X253552Y227341D01*
X253439Y227195D01*
X253323Y227051D01*
X253316Y227038D01*
X253306Y227026D01*
X253223Y226859D01*
X253139Y226697D01*
X253135Y226682D01*
X253128Y226668D01*
X253080Y226489D01*
X253030Y226312D01*
X253028Y226297D01*
X253024Y226283D01*
X253013Y226099D01*
X252999Y225914D01*
X253001Y225899D01*
X253000Y225884D01*
X253025Y225702D01*
X253048Y225518D01*
X253052Y225503D01*
X253054Y225488D01*
X253116Y225314D01*
X253174Y225139D01*
X253182Y225126D01*
X253187Y225111D01*
X253282Y224952D01*
X253374Y224793D01*
X253384Y224782D01*
X253392Y224768D01*
X253517Y224631D01*
X253638Y224493D01*
X253650Y224484D01*
X253660Y224473D01*
X253810Y224363D01*
X253956Y224252D01*
X253970Y224246D01*
X253982Y224237D01*
X254232Y224112D01*
X254479Y224010D01*
X256052Y222437D01*
X256903Y220383D01*
X256903Y218158D01*
X256051Y216104D01*
X254628Y214680D01*
X254614Y214663D01*
X254597Y214648D01*
X254488Y214508D01*
X254375Y214371D01*
X254365Y214351D01*
X254351Y214333D01*
X254272Y214175D01*
X254189Y214018D01*
X254183Y213996D01*
X254173Y213976D01*
X254127Y213805D01*
X254077Y213635D01*
X254075Y213612D01*
X254069Y213590D01*
X254058Y213413D01*
X254043Y213237D01*
X254045Y213214D01*
X254044Y213191D01*
X254068Y213016D01*
X254089Y212840D01*
X254096Y212818D01*
X254099Y212796D01*
X254158Y212628D01*
X254213Y212460D01*
X254224Y212440D01*
X254231Y212419D01*
X254322Y212267D01*
X254409Y212113D01*
X254424Y212095D01*
X254436Y212076D01*
X254555Y211945D01*
X254671Y211811D01*
X254690Y211797D01*
X254705Y211780D01*
X254847Y211676D01*
X254891Y211642D01*
X256571Y209962D01*
X257422Y207907D01*
X257422Y205683D01*
X256571Y203628D01*
X254999Y202056D01*
X254352Y201788D01*
X254338Y201781D01*
X254324Y201776D01*
X254162Y201686D01*
X254000Y201599D01*
X253988Y201589D01*
X253975Y201582D01*
X253835Y201462D01*
X253692Y201344D01*
X253683Y201332D01*
X253671Y201322D01*
X253558Y201177D01*
X253442Y201033D01*
X253435Y201019D01*
X253426Y201007D01*
X253343Y200842D01*
X253258Y200678D01*
X253254Y200663D01*
X253247Y200650D01*
X253199Y200469D01*
X253149Y200294D01*
X253148Y200279D01*
X253144Y200264D01*
X253132Y200080D01*
X253118Y199895D01*
X253120Y199880D01*
X253119Y199865D01*
X253144Y199683D01*
X253167Y199499D01*
X253172Y199485D01*
X253174Y199470D01*
X253235Y199296D01*
X253294Y199120D01*
X253301Y199107D01*
X253306Y199093D01*
X253401Y198934D01*
X253493Y198774D01*
X253503Y198763D01*
X253511Y198750D01*
X253635Y198613D01*
X253757Y198475D01*
X253770Y198466D01*
X253780Y198454D01*
X253929Y198345D01*
X254076Y198234D01*
X254090Y198227D01*
X254102Y198218D01*
X254352Y198094D01*
X254739Y197933D01*
X256311Y196361D01*
X257163Y194306D01*
X257163Y192082D01*
X256311Y190027D01*
X254642Y188358D01*
X254623Y188334D01*
X254600Y188314D01*
X254497Y188180D01*
X254389Y188049D01*
X254375Y188022D01*
X254357Y187998D01*
X254282Y187845D01*
X254203Y187695D01*
X254195Y187666D01*
X254181Y187639D01*
X254139Y187475D01*
X254091Y187312D01*
X254088Y187282D01*
X254081Y187252D01*
X254071Y187084D01*
X254057Y186914D01*
X254060Y186884D01*
X254059Y186854D01*
X254083Y186686D01*
X254103Y186517D01*
X254112Y186488D01*
X254117Y186458D01*
X254174Y186298D01*
X254227Y186137D01*
X254242Y186111D01*
X254252Y186083D01*
X254340Y185938D01*
X254423Y185790D01*
X254443Y185767D01*
X254459Y185741D01*
X254642Y185530D01*
X255906Y184267D01*
X256757Y182212D01*
X256757Y179988D01*
X255906Y177933D01*
X254093Y176120D01*
X254074Y176096D01*
X254051Y176076D01*
X253948Y175942D01*
X253840Y175810D01*
X253826Y175784D01*
X253808Y175760D01*
X253733Y175607D01*
X253654Y175457D01*
X253645Y175428D01*
X253632Y175401D01*
X253589Y175237D01*
X253542Y175074D01*
X253539Y175044D01*
X253531Y175014D01*
X253522Y174846D01*
X253508Y174676D01*
X253511Y174646D01*
X253510Y174616D01*
X253534Y174448D01*
X253554Y174279D01*
X253563Y174250D01*
X253567Y174220D01*
X253625Y174061D01*
X253677Y173899D01*
X253692Y173873D01*
X253703Y173845D01*
X253791Y173700D01*
X253874Y173552D01*
X253894Y173529D01*
X253910Y173503D01*
X254093Y173292D01*
X255594Y171791D01*
X256445Y169736D01*
X256445Y167512D01*
X255594Y165457D01*
X254353Y164216D01*
X254351Y164214D01*
X254348Y164210D01*
X254334Y164193D01*
X254311Y164173D01*
X254207Y164038D01*
X254100Y163907D01*
X254086Y163880D01*
X254068Y163856D01*
X253993Y163704D01*
X253914Y163554D01*
X253905Y163525D01*
X253892Y163497D01*
X253849Y163334D01*
X253801Y163170D01*
X253799Y163140D01*
X253791Y163111D01*
X253782Y162942D01*
X253768Y162772D01*
X253771Y162742D01*
X253769Y162712D01*
X253794Y162545D01*
X253813Y162376D01*
X253823Y162347D01*
X253827Y162317D01*
X253885Y162157D01*
X253937Y161996D01*
X253952Y161970D01*
X253963Y161941D01*
X254050Y161796D01*
X254134Y161648D01*
X254154Y161625D01*
X254170Y161600D01*
X254353Y161389D01*
X255802Y159940D01*
X256653Y157885D01*
X256653Y155661D01*
X255802Y153606D01*
X254229Y152033D01*
X252175Y151182D01*
X249950Y151182D01*
G37*
%LPD*%
%LPC*%
G36*
X221951Y151529D02*
X221951Y151529D01*
X219896Y152381D01*
X218323Y153953D01*
X217472Y156008D01*
X217472Y158232D01*
X218323Y160287D01*
X218920Y160884D01*
X218939Y160907D01*
X218962Y160927D01*
X219065Y161061D01*
X219172Y161193D01*
X219186Y161220D01*
X219205Y161244D01*
X219279Y161396D01*
X219359Y161546D01*
X219367Y161575D01*
X219380Y161602D01*
X219423Y161766D01*
X219471Y161929D01*
X219474Y161960D01*
X219481Y161989D01*
X219490Y162158D01*
X219505Y162327D01*
X219501Y162358D01*
X219503Y162388D01*
X219479Y162555D01*
X219459Y162724D01*
X219450Y162753D01*
X219445Y162783D01*
X219388Y162942D01*
X219335Y163104D01*
X219320Y163130D01*
X219310Y163159D01*
X219222Y163304D01*
X219138Y163451D01*
X219118Y163474D01*
X219103Y163500D01*
X218920Y163711D01*
X217547Y165084D01*
X216696Y167139D01*
X216696Y169363D01*
X217547Y171418D01*
X219142Y173013D01*
X219213Y173052D01*
X219375Y173139D01*
X219387Y173149D01*
X219400Y173157D01*
X219541Y173277D01*
X219683Y173395D01*
X219692Y173406D01*
X219704Y173416D01*
X219818Y173563D01*
X219933Y173706D01*
X219940Y173719D01*
X219950Y173731D01*
X220032Y173897D01*
X220117Y174060D01*
X220121Y174075D01*
X220128Y174089D01*
X220176Y174267D01*
X220226Y174444D01*
X220228Y174460D01*
X220232Y174474D01*
X220243Y174659D01*
X220257Y174843D01*
X220256Y174858D01*
X220256Y174873D01*
X220231Y175056D01*
X220208Y175239D01*
X220204Y175253D01*
X220202Y175269D01*
X220140Y175443D01*
X220082Y175618D01*
X220074Y175631D01*
X220069Y175645D01*
X219975Y175804D01*
X219882Y175964D01*
X219872Y175975D01*
X219865Y175988D01*
X219739Y176126D01*
X219618Y176263D01*
X219606Y176273D01*
X219596Y176284D01*
X219446Y176393D01*
X219300Y176504D01*
X219286Y176511D01*
X219274Y176520D01*
X219024Y176645D01*
X218861Y176712D01*
X217288Y178285D01*
X216437Y180340D01*
X216437Y182564D01*
X217288Y184619D01*
X218861Y186191D01*
X218894Y186205D01*
X218908Y186213D01*
X218922Y186217D01*
X219082Y186306D01*
X219246Y186394D01*
X219258Y186404D01*
X219271Y186411D01*
X219410Y186530D01*
X219554Y186649D01*
X219563Y186661D01*
X219575Y186671D01*
X219687Y186816D01*
X219804Y186961D01*
X219811Y186974D01*
X219820Y186986D01*
X219903Y187151D01*
X219988Y187315D01*
X219992Y187330D01*
X219999Y187343D01*
X220046Y187521D01*
X220097Y187699D01*
X220098Y187715D01*
X220102Y187729D01*
X220113Y187910D01*
X220128Y188098D01*
X220126Y188113D01*
X220127Y188128D01*
X220102Y188310D01*
X220079Y188494D01*
X220074Y188508D01*
X220072Y188523D01*
X220011Y188698D01*
X219952Y188873D01*
X219945Y188886D01*
X219940Y188900D01*
X219845Y189059D01*
X219753Y189219D01*
X219743Y189230D01*
X219735Y189243D01*
X219610Y189381D01*
X219489Y189518D01*
X219477Y189527D01*
X219466Y189539D01*
X219316Y189649D01*
X219170Y189759D01*
X219157Y189766D01*
X219144Y189775D01*
X218894Y189900D01*
X218861Y189913D01*
X217288Y191486D01*
X216437Y193541D01*
X216437Y195765D01*
X217288Y197820D01*
X219014Y199546D01*
X219068Y199593D01*
X219204Y199705D01*
X219218Y199723D01*
X219236Y199739D01*
X219343Y199879D01*
X219454Y200016D01*
X219465Y200037D01*
X219479Y200055D01*
X219557Y200214D01*
X219638Y200371D01*
X219644Y200393D01*
X219655Y200414D01*
X219699Y200585D01*
X219748Y200755D01*
X219749Y200778D01*
X219755Y200801D01*
X219765Y200977D01*
X219779Y201153D01*
X219776Y201176D01*
X219777Y201199D01*
X219752Y201374D01*
X219730Y201550D01*
X219723Y201572D01*
X219719Y201595D01*
X219659Y201762D01*
X219603Y201928D01*
X219592Y201948D01*
X219584Y201970D01*
X219492Y202122D01*
X219404Y202275D01*
X219389Y202292D01*
X219377Y202312D01*
X219194Y202523D01*
X218064Y203652D01*
X217213Y205707D01*
X217213Y207931D01*
X218064Y209986D01*
X218935Y210856D01*
X218949Y210874D01*
X218967Y210889D01*
X219076Y211029D01*
X219188Y211165D01*
X219198Y211186D01*
X219212Y211204D01*
X219291Y211362D01*
X219374Y211519D01*
X219380Y211541D01*
X219391Y211561D01*
X219436Y211732D01*
X219486Y211902D01*
X219488Y211925D01*
X219494Y211947D01*
X219505Y212124D01*
X219520Y212300D01*
X219517Y212323D01*
X219519Y212346D01*
X219495Y212521D01*
X219474Y212697D01*
X219467Y212719D01*
X219464Y212741D01*
X219405Y212909D01*
X219350Y213077D01*
X219339Y213096D01*
X219331Y213118D01*
X219241Y213270D01*
X219154Y213424D01*
X219138Y213441D01*
X219127Y213461D01*
X219007Y213592D01*
X218892Y213726D01*
X218873Y213739D01*
X218858Y213757D01*
X218759Y213829D01*
X217029Y215559D01*
X216178Y217614D01*
X216178Y219838D01*
X217029Y221893D01*
X218755Y223618D01*
X218809Y223665D01*
X218945Y223778D01*
X218960Y223796D01*
X218977Y223811D01*
X219085Y223952D01*
X219196Y224089D01*
X219206Y224110D01*
X219220Y224128D01*
X219298Y224287D01*
X219379Y224444D01*
X219386Y224466D01*
X219396Y224487D01*
X219440Y224658D01*
X219489Y224828D01*
X219491Y224851D01*
X219497Y224873D01*
X219506Y225050D01*
X219520Y225226D01*
X219517Y225249D01*
X219518Y225272D01*
X219493Y225447D01*
X219471Y225623D01*
X219464Y225645D01*
X219461Y225667D01*
X219401Y225834D01*
X219345Y226002D01*
X219333Y226022D01*
X219325Y226043D01*
X219234Y226194D01*
X219145Y226348D01*
X219130Y226365D01*
X219118Y226385D01*
X218935Y226595D01*
X217288Y228242D01*
X216437Y230297D01*
X216437Y232521D01*
X217288Y234576D01*
X218861Y236149D01*
X220920Y237002D01*
X220934Y237009D01*
X220948Y237014D01*
X221110Y237104D01*
X221272Y237191D01*
X221284Y237201D01*
X221297Y237208D01*
X221438Y237328D01*
X221580Y237446D01*
X221589Y237458D01*
X221601Y237468D01*
X221714Y237613D01*
X221830Y237757D01*
X221837Y237771D01*
X221846Y237783D01*
X221929Y237947D01*
X222014Y238112D01*
X222018Y238127D01*
X222025Y238140D01*
X222072Y238318D01*
X222123Y238496D01*
X222124Y238511D01*
X222128Y238526D01*
X222140Y238709D01*
X222154Y238894D01*
X222152Y238910D01*
X222153Y238925D01*
X222128Y239107D01*
X222105Y239291D01*
X222100Y239305D01*
X222098Y239320D01*
X222037Y239495D01*
X221979Y239670D01*
X221971Y239683D01*
X221966Y239697D01*
X221871Y239856D01*
X221779Y240016D01*
X221769Y240027D01*
X221761Y240040D01*
X221637Y240177D01*
X221515Y240315D01*
X221503Y240324D01*
X221492Y240336D01*
X221344Y240445D01*
X221196Y240556D01*
X221183Y240563D01*
X221170Y240572D01*
X220920Y240696D01*
X220413Y240906D01*
X218841Y242479D01*
X217989Y244534D01*
X217989Y246758D01*
X218841Y248813D01*
X219308Y249280D01*
X219327Y249303D01*
X219350Y249323D01*
X219453Y249458D01*
X219561Y249589D01*
X219575Y249616D01*
X219593Y249640D01*
X219668Y249792D01*
X219747Y249942D01*
X219755Y249972D01*
X219769Y249999D01*
X219811Y250162D01*
X219859Y250326D01*
X219862Y250356D01*
X219869Y250385D01*
X219879Y250554D01*
X219893Y250724D01*
X219890Y250754D01*
X219891Y250784D01*
X219867Y250951D01*
X219847Y251121D01*
X219838Y251149D01*
X219833Y251179D01*
X219776Y251339D01*
X219723Y251500D01*
X219708Y251527D01*
X219698Y251555D01*
X219610Y251700D01*
X219526Y251848D01*
X219507Y251871D01*
X219491Y251897D01*
X219308Y252107D01*
X217547Y253868D01*
X216696Y255923D01*
X216696Y258147D01*
X217547Y260202D01*
X219119Y261775D01*
X219519Y261940D01*
X219533Y261947D01*
X219547Y261952D01*
X219709Y262042D01*
X219871Y262129D01*
X219883Y262139D01*
X219896Y262146D01*
X220036Y262266D01*
X220178Y262384D01*
X220188Y262396D01*
X220199Y262406D01*
X220313Y262551D01*
X220429Y262696D01*
X220436Y262709D01*
X220445Y262721D01*
X220528Y262886D01*
X220613Y263050D01*
X220617Y263065D01*
X220623Y263078D01*
X220671Y263257D01*
X220722Y263434D01*
X220723Y263450D01*
X220727Y263464D01*
X220739Y263647D01*
X220753Y263833D01*
X220751Y263848D01*
X220752Y263863D01*
X220727Y264044D01*
X220704Y264229D01*
X220699Y264243D01*
X220697Y264258D01*
X220636Y264432D01*
X220577Y264608D01*
X220570Y264621D01*
X220565Y264635D01*
X220470Y264794D01*
X220378Y264954D01*
X220368Y264965D01*
X220360Y264978D01*
X220236Y265115D01*
X220114Y265253D01*
X220101Y265263D01*
X220091Y265274D01*
X219942Y265383D01*
X219795Y265494D01*
X219781Y265501D01*
X219769Y265510D01*
X219519Y265634D01*
X218602Y266014D01*
X217029Y267587D01*
X216178Y269642D01*
X216178Y271866D01*
X217029Y273921D01*
X218273Y275164D01*
X218292Y275188D01*
X218315Y275208D01*
X218418Y275342D01*
X218525Y275474D01*
X218540Y275500D01*
X218558Y275524D01*
X218633Y275677D01*
X218712Y275827D01*
X218720Y275856D01*
X218734Y275883D01*
X218776Y276047D01*
X218824Y276210D01*
X218827Y276241D01*
X218834Y276270D01*
X218844Y276439D01*
X218858Y276608D01*
X218855Y276639D01*
X218856Y276669D01*
X218832Y276836D01*
X218812Y277005D01*
X218803Y277034D01*
X218798Y277064D01*
X218741Y277223D01*
X218688Y277385D01*
X218673Y277411D01*
X218663Y277440D01*
X218575Y277584D01*
X218491Y277732D01*
X218472Y277755D01*
X218456Y277781D01*
X218273Y277992D01*
X217029Y279235D01*
X216178Y281290D01*
X216178Y283514D01*
X217029Y285569D01*
X218602Y287142D01*
X219336Y287446D01*
X219349Y287453D01*
X219364Y287458D01*
X219525Y287547D01*
X219688Y287635D01*
X219700Y287645D01*
X219713Y287652D01*
X219853Y287771D01*
X219995Y287890D01*
X220005Y287902D01*
X220016Y287912D01*
X220129Y288057D01*
X220246Y288201D01*
X220253Y288215D01*
X220262Y288227D01*
X220344Y288391D01*
X220429Y288556D01*
X220434Y288571D01*
X220440Y288584D01*
X220488Y288761D01*
X220539Y288940D01*
X220540Y288955D01*
X220544Y288970D01*
X220555Y289153D01*
X220570Y289338D01*
X220568Y289353D01*
X220569Y289368D01*
X220543Y289551D01*
X220521Y289735D01*
X220516Y289749D01*
X220514Y289764D01*
X220453Y289939D01*
X220394Y290113D01*
X220387Y290127D01*
X220382Y290141D01*
X220287Y290299D01*
X220195Y290459D01*
X220185Y290471D01*
X220177Y290484D01*
X220052Y290621D01*
X219930Y290759D01*
X219918Y290768D01*
X219908Y290779D01*
X219758Y290889D01*
X219612Y291000D01*
X219598Y291006D01*
X219586Y291015D01*
X219385Y291116D01*
X217805Y292695D01*
X216954Y294750D01*
X216954Y296974D01*
X217805Y299029D01*
X219567Y300790D01*
X219586Y300814D01*
X219609Y300834D01*
X219712Y300968D01*
X219819Y301100D01*
X219834Y301126D01*
X219852Y301150D01*
X219927Y301303D01*
X220006Y301453D01*
X220014Y301482D01*
X220028Y301509D01*
X220070Y301673D01*
X220118Y301836D01*
X220121Y301866D01*
X220128Y301896D01*
X220138Y302064D01*
X220152Y302234D01*
X220149Y302264D01*
X220150Y302294D01*
X220126Y302462D01*
X220106Y302631D01*
X220097Y302660D01*
X220092Y302690D01*
X220035Y302850D01*
X219982Y303011D01*
X219967Y303037D01*
X219957Y303065D01*
X219869Y303210D01*
X219785Y303358D01*
X219765Y303381D01*
X219750Y303407D01*
X219567Y303618D01*
X217805Y305379D01*
X216954Y307434D01*
X216954Y309658D01*
X217805Y311713D01*
X219636Y313543D01*
X219650Y313560D01*
X219667Y313575D01*
X219776Y313714D01*
X219888Y313852D01*
X219899Y313872D01*
X219913Y313890D01*
X219992Y314048D01*
X220075Y314205D01*
X220081Y314227D01*
X220091Y314247D01*
X220137Y314418D01*
X220187Y314588D01*
X220189Y314611D01*
X220195Y314633D01*
X220206Y314809D01*
X220221Y314986D01*
X220218Y315009D01*
X220220Y315032D01*
X220195Y315207D01*
X220175Y315383D01*
X220168Y315405D01*
X220165Y315427D01*
X220106Y315595D01*
X220051Y315763D01*
X220040Y315783D01*
X220032Y315804D01*
X219942Y315956D01*
X219854Y316111D01*
X219839Y316128D01*
X219828Y316147D01*
X219709Y316278D01*
X219592Y316412D01*
X219574Y316426D01*
X219559Y316443D01*
X219416Y316547D01*
X219276Y316655D01*
X219255Y316665D01*
X219237Y316679D01*
X219142Y316726D01*
X217547Y318321D01*
X216696Y320376D01*
X216696Y322600D01*
X217547Y324655D01*
X219049Y326157D01*
X219068Y326181D01*
X219091Y326201D01*
X219195Y326336D01*
X219302Y326466D01*
X219316Y326493D01*
X219334Y326517D01*
X219409Y326670D01*
X219488Y326820D01*
X219497Y326849D01*
X219510Y326876D01*
X219553Y327040D01*
X219600Y327203D01*
X219603Y327233D01*
X219611Y327263D01*
X219620Y327431D01*
X219634Y327601D01*
X219631Y327631D01*
X219633Y327661D01*
X219608Y327829D01*
X219588Y327998D01*
X219579Y328027D01*
X219575Y328057D01*
X219517Y328216D01*
X219465Y328378D01*
X219450Y328404D01*
X219439Y328432D01*
X219351Y328578D01*
X219268Y328725D01*
X219248Y328748D01*
X219232Y328774D01*
X219049Y328985D01*
X218064Y329969D01*
X217213Y332024D01*
X217213Y334248D01*
X218064Y336303D01*
X219637Y337876D01*
X219724Y337912D01*
X219738Y337919D01*
X219752Y337924D01*
X219913Y338013D01*
X220076Y338101D01*
X220088Y338111D01*
X220101Y338118D01*
X220241Y338237D01*
X220383Y338356D01*
X220393Y338368D01*
X220405Y338378D01*
X220518Y338523D01*
X220634Y338667D01*
X220641Y338681D01*
X220650Y338693D01*
X220733Y338857D01*
X220818Y339022D01*
X220822Y339036D01*
X220829Y339050D01*
X220877Y339229D01*
X220927Y339406D01*
X220928Y339421D01*
X220932Y339436D01*
X220944Y339619D01*
X220958Y339804D01*
X220956Y339819D01*
X220957Y339834D01*
X220932Y340016D01*
X220909Y340201D01*
X220904Y340215D01*
X220902Y340230D01*
X220841Y340404D01*
X220782Y340579D01*
X220775Y340593D01*
X220770Y340607D01*
X220675Y340765D01*
X220583Y340925D01*
X220573Y340937D01*
X220565Y340950D01*
X220441Y341086D01*
X220319Y341225D01*
X220307Y341234D01*
X220296Y341245D01*
X220147Y341355D01*
X220000Y341466D01*
X219986Y341472D01*
X219974Y341482D01*
X219724Y341606D01*
X219119Y341857D01*
X217547Y343429D01*
X216696Y345484D01*
X216696Y347708D01*
X217547Y349763D01*
X219166Y351382D01*
X219296Y351452D01*
X219308Y351462D01*
X219321Y351469D01*
X219462Y351589D01*
X219604Y351707D01*
X219613Y351719D01*
X219625Y351729D01*
X219738Y351875D01*
X219854Y352018D01*
X219861Y352032D01*
X219871Y352044D01*
X219953Y352209D01*
X220038Y352373D01*
X220042Y352388D01*
X220049Y352401D01*
X220097Y352580D01*
X220147Y352757D01*
X220148Y352772D01*
X220152Y352787D01*
X220164Y352971D01*
X220178Y353155D01*
X220176Y353171D01*
X220177Y353186D01*
X220152Y353368D01*
X220129Y353552D01*
X220125Y353566D01*
X220122Y353581D01*
X220061Y353756D01*
X220003Y353931D01*
X219995Y353944D01*
X219990Y353958D01*
X219895Y354117D01*
X219803Y354277D01*
X219793Y354288D01*
X219785Y354301D01*
X219661Y354438D01*
X219539Y354576D01*
X219527Y354585D01*
X219517Y354597D01*
X219368Y354706D01*
X219221Y354817D01*
X219207Y354824D01*
X219194Y354833D01*
X218945Y354958D01*
X218174Y355276D01*
X216602Y356849D01*
X215751Y358904D01*
X215751Y361128D01*
X216602Y363183D01*
X217941Y364523D01*
X217960Y364546D01*
X217983Y364566D01*
X218087Y364700D01*
X218194Y364832D01*
X218208Y364858D01*
X218227Y364883D01*
X218301Y365035D01*
X218380Y365185D01*
X218389Y365214D01*
X218402Y365241D01*
X218445Y365405D01*
X218493Y365568D01*
X218495Y365599D01*
X218503Y365628D01*
X218512Y365797D01*
X218527Y365966D01*
X218523Y365997D01*
X218525Y366027D01*
X218500Y366194D01*
X218481Y366363D01*
X218471Y366392D01*
X218467Y366422D01*
X218410Y366581D01*
X218357Y366743D01*
X218342Y366769D01*
X218332Y366798D01*
X218244Y366942D01*
X218160Y367090D01*
X218140Y367113D01*
X218124Y367139D01*
X217941Y367350D01*
X216487Y368805D01*
X215635Y370860D01*
X215635Y373084D01*
X216486Y375138D01*
X218113Y376765D01*
X218206Y376815D01*
X218224Y376830D01*
X218244Y376841D01*
X218377Y376957D01*
X218514Y377070D01*
X218528Y377088D01*
X218545Y377103D01*
X218653Y377243D01*
X218764Y377381D01*
X218775Y377402D01*
X218788Y377420D01*
X218866Y377579D01*
X218948Y377736D01*
X218954Y377758D01*
X218964Y377779D01*
X219009Y377949D01*
X219057Y378120D01*
X219059Y378143D01*
X219065Y378165D01*
X219074Y378341D01*
X219088Y378518D01*
X219085Y378541D01*
X219087Y378564D01*
X219061Y378739D01*
X219039Y378915D01*
X219032Y378936D01*
X219029Y378959D01*
X218969Y379126D01*
X218913Y379294D01*
X218901Y379314D01*
X218894Y379335D01*
X218802Y379486D01*
X218713Y379640D01*
X218698Y379657D01*
X218686Y379676D01*
X218503Y379887D01*
X216902Y381488D01*
X216051Y383543D01*
X216051Y385767D01*
X216902Y387822D01*
X218475Y389394D01*
X220530Y390246D01*
X222754Y390246D01*
X224809Y389394D01*
X226382Y387822D01*
X227233Y385767D01*
X227233Y383543D01*
X226382Y381488D01*
X224755Y379861D01*
X224662Y379811D01*
X224644Y379797D01*
X224624Y379785D01*
X224491Y379669D01*
X224354Y379556D01*
X224340Y379538D01*
X224323Y379523D01*
X224215Y379383D01*
X224104Y379245D01*
X224093Y379225D01*
X224080Y379207D01*
X224002Y379048D01*
X223920Y378890D01*
X223914Y378868D01*
X223904Y378848D01*
X223859Y378677D01*
X223811Y378506D01*
X223809Y378483D01*
X223803Y378461D01*
X223794Y378285D01*
X223780Y378108D01*
X223783Y378085D01*
X223781Y378062D01*
X223807Y377887D01*
X223829Y377712D01*
X223836Y377690D01*
X223839Y377667D01*
X223899Y377500D01*
X223955Y377333D01*
X223967Y377313D01*
X223974Y377291D01*
X224066Y377140D01*
X224155Y376987D01*
X224170Y376970D01*
X224182Y376950D01*
X224365Y376739D01*
X225966Y375139D01*
X226817Y373084D01*
X226817Y370860D01*
X225966Y368805D01*
X224626Y367465D01*
X224607Y367442D01*
X224584Y367422D01*
X224481Y367287D01*
X224373Y367156D01*
X224359Y367129D01*
X224341Y367105D01*
X224266Y366953D01*
X224187Y366803D01*
X224178Y366773D01*
X224165Y366746D01*
X224123Y366583D01*
X224075Y366419D01*
X224072Y366389D01*
X224065Y366360D01*
X224055Y366191D01*
X224041Y366021D01*
X224044Y365991D01*
X224043Y365961D01*
X224067Y365793D01*
X224087Y365625D01*
X224096Y365596D01*
X224100Y365566D01*
X224158Y365406D01*
X224211Y365245D01*
X224225Y365218D01*
X224236Y365190D01*
X224324Y365045D01*
X224407Y364897D01*
X224427Y364874D01*
X224443Y364849D01*
X224626Y364638D01*
X226081Y363183D01*
X226932Y361128D01*
X226932Y358904D01*
X226081Y356849D01*
X224462Y355230D01*
X224331Y355160D01*
X224320Y355150D01*
X224306Y355143D01*
X224166Y355023D01*
X224024Y354905D01*
X224015Y354893D01*
X224003Y354883D01*
X223889Y354738D01*
X223774Y354594D01*
X223767Y354580D01*
X223757Y354568D01*
X223675Y354403D01*
X223590Y354239D01*
X223586Y354225D01*
X223579Y354211D01*
X223531Y354032D01*
X223480Y353855D01*
X223479Y353840D01*
X223475Y353825D01*
X223464Y353641D01*
X223449Y353457D01*
X223451Y353442D01*
X223450Y353426D01*
X223476Y353244D01*
X223498Y353060D01*
X223503Y353046D01*
X223505Y353031D01*
X223567Y352856D01*
X223625Y352682D01*
X223633Y352668D01*
X223638Y352654D01*
X223733Y352495D01*
X223824Y352336D01*
X223835Y352324D01*
X223842Y352311D01*
X223967Y352174D01*
X224089Y352036D01*
X224101Y352027D01*
X224111Y352016D01*
X224260Y351906D01*
X224407Y351795D01*
X224421Y351788D01*
X224433Y351779D01*
X224683Y351655D01*
X225453Y351336D01*
X227026Y349763D01*
X227877Y347708D01*
X227877Y345484D01*
X227026Y343429D01*
X225453Y341857D01*
X225366Y341821D01*
X225353Y341813D01*
X225338Y341809D01*
X225177Y341719D01*
X225014Y341632D01*
X225002Y341622D01*
X224989Y341614D01*
X224849Y341495D01*
X224707Y341376D01*
X224697Y341365D01*
X224686Y341355D01*
X224573Y341210D01*
X224456Y341065D01*
X224449Y341052D01*
X224440Y341040D01*
X224358Y340875D01*
X224273Y340711D01*
X224268Y340696D01*
X224262Y340682D01*
X224214Y340504D01*
X224163Y340326D01*
X224162Y340311D01*
X224158Y340297D01*
X224147Y340113D01*
X224132Y339928D01*
X224134Y339913D01*
X224133Y339898D01*
X224158Y339716D01*
X224181Y339532D01*
X224186Y339517D01*
X224188Y339502D01*
X224249Y339328D01*
X224308Y339153D01*
X224315Y339140D01*
X224320Y339126D01*
X224415Y338967D01*
X224507Y338807D01*
X224517Y338796D01*
X224525Y338783D01*
X224649Y338646D01*
X224772Y338507D01*
X224784Y338498D01*
X224794Y338487D01*
X224943Y338378D01*
X225090Y338267D01*
X225104Y338260D01*
X225116Y338251D01*
X225366Y338126D01*
X225971Y337876D01*
X227543Y336303D01*
X228395Y334248D01*
X228395Y332024D01*
X227543Y329969D01*
X226041Y328467D01*
X226022Y328444D01*
X225999Y328424D01*
X225895Y328289D01*
X225788Y328158D01*
X225774Y328131D01*
X225756Y328107D01*
X225681Y327955D01*
X225602Y327805D01*
X225594Y327775D01*
X225580Y327748D01*
X225537Y327584D01*
X225490Y327421D01*
X225487Y327391D01*
X225480Y327362D01*
X225470Y327193D01*
X225456Y327023D01*
X225459Y326993D01*
X225458Y326963D01*
X225482Y326795D01*
X225502Y326626D01*
X225511Y326598D01*
X225516Y326568D01*
X225573Y326408D01*
X225626Y326247D01*
X225641Y326220D01*
X225651Y326192D01*
X225739Y326047D01*
X225822Y325899D01*
X225842Y325876D01*
X225858Y325850D01*
X226041Y325640D01*
X227026Y324655D01*
X227877Y322600D01*
X227877Y320376D01*
X227026Y318321D01*
X225196Y316491D01*
X225181Y316474D01*
X225164Y316459D01*
X225056Y316320D01*
X224943Y316182D01*
X224932Y316162D01*
X224919Y316144D01*
X224840Y315986D01*
X224757Y315829D01*
X224750Y315807D01*
X224740Y315786D01*
X224694Y315616D01*
X224644Y315445D01*
X224643Y315423D01*
X224637Y315401D01*
X224626Y315225D01*
X224611Y315047D01*
X224613Y315025D01*
X224612Y315002D01*
X224636Y314827D01*
X224656Y314651D01*
X224664Y314629D01*
X224667Y314606D01*
X224725Y314439D01*
X224780Y314271D01*
X224792Y314251D01*
X224799Y314230D01*
X224890Y314078D01*
X224977Y313923D01*
X224992Y313906D01*
X225004Y313887D01*
X225122Y313756D01*
X225239Y313622D01*
X225257Y313608D01*
X225273Y313591D01*
X225415Y313487D01*
X225556Y313378D01*
X225576Y313369D01*
X225595Y313355D01*
X225690Y313308D01*
X227285Y311713D01*
X228136Y309658D01*
X228136Y307434D01*
X227285Y305379D01*
X225523Y303618D01*
X225504Y303594D01*
X225481Y303574D01*
X225378Y303440D01*
X225271Y303308D01*
X225257Y303282D01*
X225238Y303258D01*
X225164Y303105D01*
X225084Y302955D01*
X225076Y302926D01*
X225063Y302899D01*
X225020Y302735D01*
X224972Y302572D01*
X224969Y302542D01*
X224962Y302512D01*
X224953Y302344D01*
X224938Y302174D01*
X224942Y302144D01*
X224940Y302114D01*
X224965Y301946D01*
X224984Y301777D01*
X224993Y301748D01*
X224998Y301718D01*
X225055Y301558D01*
X225108Y301397D01*
X225123Y301371D01*
X225133Y301342D01*
X225221Y301198D01*
X225305Y301050D01*
X225325Y301027D01*
X225340Y301001D01*
X225523Y300790D01*
X227285Y299029D01*
X228136Y296974D01*
X228136Y294750D01*
X227285Y292695D01*
X225712Y291123D01*
X224978Y290818D01*
X224964Y290811D01*
X224950Y290807D01*
X224789Y290717D01*
X224626Y290630D01*
X224614Y290620D01*
X224601Y290612D01*
X224461Y290493D01*
X224319Y290374D01*
X224309Y290362D01*
X224297Y290353D01*
X224184Y290208D01*
X224068Y290063D01*
X224061Y290050D01*
X224052Y290038D01*
X223970Y289873D01*
X223884Y289709D01*
X223880Y289694D01*
X223874Y289680D01*
X223826Y289503D01*
X223775Y289324D01*
X223774Y289309D01*
X223770Y289295D01*
X223758Y289112D01*
X223744Y288926D01*
X223746Y288911D01*
X223745Y288896D01*
X223771Y288712D01*
X223793Y288530D01*
X223798Y288515D01*
X223800Y288500D01*
X223861Y288325D01*
X223920Y288151D01*
X223927Y288138D01*
X223932Y288124D01*
X224027Y287965D01*
X224119Y287805D01*
X224129Y287794D01*
X224137Y287781D01*
X224262Y287643D01*
X224383Y287505D01*
X224395Y287496D01*
X224406Y287485D01*
X224556Y287375D01*
X224702Y287264D01*
X224716Y287258D01*
X224728Y287249D01*
X224929Y287149D01*
X226508Y285569D01*
X227360Y283514D01*
X227360Y281290D01*
X226508Y279235D01*
X225265Y277992D01*
X225246Y277968D01*
X225223Y277949D01*
X225119Y277814D01*
X225012Y277683D01*
X224998Y277656D01*
X224980Y277632D01*
X224905Y277479D01*
X224826Y277329D01*
X224817Y277300D01*
X224804Y277273D01*
X224761Y277109D01*
X224713Y276946D01*
X224711Y276916D01*
X224703Y276887D01*
X224694Y276718D01*
X224680Y276548D01*
X224683Y276518D01*
X224681Y276488D01*
X224706Y276320D01*
X224725Y276151D01*
X224735Y276123D01*
X224739Y276092D01*
X224797Y275932D01*
X224849Y275771D01*
X224864Y275745D01*
X224874Y275717D01*
X224963Y275571D01*
X225046Y275424D01*
X225066Y275401D01*
X225082Y275375D01*
X225265Y275164D01*
X226508Y273921D01*
X227360Y271866D01*
X227360Y269642D01*
X226508Y267587D01*
X224936Y266014D01*
X224536Y265849D01*
X224523Y265842D01*
X224508Y265837D01*
X224346Y265747D01*
X224184Y265660D01*
X224172Y265650D01*
X224159Y265643D01*
X224018Y265523D01*
X223877Y265405D01*
X223867Y265393D01*
X223856Y265383D01*
X223742Y265238D01*
X223626Y265094D01*
X223619Y265080D01*
X223610Y265068D01*
X223527Y264903D01*
X223443Y264739D01*
X223438Y264724D01*
X223432Y264711D01*
X223384Y264533D01*
X223333Y264355D01*
X223332Y264340D01*
X223328Y264325D01*
X223317Y264142D01*
X223302Y263957D01*
X223304Y263941D01*
X223303Y263926D01*
X223328Y263745D01*
X223351Y263560D01*
X223356Y263546D01*
X223358Y263531D01*
X223419Y263357D01*
X223478Y263181D01*
X223485Y263168D01*
X223490Y263154D01*
X223585Y262995D01*
X223677Y262835D01*
X223687Y262824D01*
X223695Y262811D01*
X223819Y262674D01*
X223942Y262536D01*
X223954Y262527D01*
X223964Y262515D01*
X224113Y262406D01*
X224260Y262295D01*
X224274Y262288D01*
X224286Y262279D01*
X224536Y262155D01*
X225453Y261775D01*
X227026Y260202D01*
X227877Y258147D01*
X227877Y255923D01*
X227026Y253868D01*
X226559Y253401D01*
X226540Y253378D01*
X226517Y253358D01*
X226413Y253223D01*
X226306Y253092D01*
X226292Y253065D01*
X226273Y253041D01*
X226199Y252889D01*
X226120Y252739D01*
X226111Y252709D01*
X226098Y252682D01*
X226055Y252519D01*
X226007Y252355D01*
X226005Y252325D01*
X225997Y252296D01*
X225988Y252127D01*
X225973Y251957D01*
X225977Y251927D01*
X225975Y251897D01*
X226000Y251730D01*
X226019Y251561D01*
X226029Y251532D01*
X226033Y251502D01*
X226090Y251342D01*
X226143Y251181D01*
X226158Y251154D01*
X226168Y251126D01*
X226256Y250981D01*
X226340Y250833D01*
X226360Y250810D01*
X226376Y250785D01*
X226559Y250574D01*
X228320Y248813D01*
X229171Y246758D01*
X229171Y244534D01*
X228320Y242479D01*
X226747Y240906D01*
X224687Y240053D01*
X224674Y240046D01*
X224659Y240041D01*
X224497Y239951D01*
X224335Y239864D01*
X224324Y239855D01*
X224310Y239847D01*
X224170Y239727D01*
X224028Y239609D01*
X224019Y239597D01*
X224007Y239587D01*
X223894Y239442D01*
X223778Y239298D01*
X223771Y239284D01*
X223761Y239272D01*
X223679Y239108D01*
X223594Y238943D01*
X223590Y238929D01*
X223583Y238915D01*
X223535Y238738D01*
X223485Y238559D01*
X223483Y238544D01*
X223479Y238529D01*
X223468Y238346D01*
X223454Y238161D01*
X223455Y238146D01*
X223455Y238131D01*
X223480Y237948D01*
X223503Y237764D01*
X223507Y237750D01*
X223509Y237735D01*
X223571Y237561D01*
X223629Y237386D01*
X223637Y237372D01*
X223642Y237358D01*
X223737Y237199D01*
X223829Y237040D01*
X223839Y237028D01*
X223846Y237015D01*
X223971Y236878D01*
X224093Y236740D01*
X224105Y236731D01*
X224115Y236720D01*
X224264Y236611D01*
X224412Y236499D01*
X224425Y236493D01*
X224437Y236484D01*
X224687Y236359D01*
X225194Y236149D01*
X226767Y234576D01*
X227618Y232521D01*
X227618Y230297D01*
X226767Y228242D01*
X225042Y226517D01*
X224988Y226470D01*
X224851Y226357D01*
X224837Y226339D01*
X224819Y226324D01*
X224712Y226183D01*
X224601Y226046D01*
X224590Y226025D01*
X224576Y226007D01*
X224498Y225848D01*
X224417Y225691D01*
X224411Y225669D01*
X224400Y225648D01*
X224356Y225478D01*
X224307Y225307D01*
X224306Y225284D01*
X224300Y225262D01*
X224290Y225085D01*
X224276Y224909D01*
X224279Y224886D01*
X224278Y224863D01*
X224303Y224688D01*
X224325Y224512D01*
X224332Y224490D01*
X224336Y224468D01*
X224395Y224302D01*
X224452Y224133D01*
X224463Y224113D01*
X224471Y224092D01*
X224562Y223942D01*
X224651Y223787D01*
X224666Y223770D01*
X224678Y223750D01*
X224861Y223540D01*
X226508Y221893D01*
X227360Y219838D01*
X227360Y217614D01*
X226508Y215559D01*
X225638Y214688D01*
X225623Y214671D01*
X225606Y214656D01*
X225497Y214516D01*
X225385Y214379D01*
X225374Y214359D01*
X225360Y214341D01*
X225281Y214182D01*
X225199Y214026D01*
X225192Y214004D01*
X225182Y213983D01*
X225136Y213813D01*
X225086Y213643D01*
X225084Y213620D01*
X225079Y213597D01*
X225068Y213421D01*
X225053Y213245D01*
X225055Y213222D01*
X225054Y213199D01*
X225078Y213023D01*
X225098Y212848D01*
X225106Y212826D01*
X225109Y212803D01*
X225168Y212636D01*
X225222Y212468D01*
X225234Y212448D01*
X225241Y212426D01*
X225332Y212274D01*
X225419Y212121D01*
X225434Y212103D01*
X225446Y212083D01*
X225565Y211952D01*
X225681Y211819D01*
X225699Y211805D01*
X225715Y211788D01*
X225813Y211716D01*
X227543Y209986D01*
X228395Y207931D01*
X228395Y205707D01*
X227543Y203652D01*
X225818Y201926D01*
X225764Y201879D01*
X225627Y201766D01*
X225613Y201748D01*
X225596Y201733D01*
X225488Y201593D01*
X225377Y201455D01*
X225366Y201435D01*
X225352Y201417D01*
X225274Y201257D01*
X225193Y201100D01*
X225187Y201078D01*
X225177Y201058D01*
X225132Y200886D01*
X225084Y200716D01*
X225082Y200693D01*
X225076Y200671D01*
X225067Y200495D01*
X225053Y200318D01*
X225056Y200295D01*
X225054Y200272D01*
X225080Y200098D01*
X225102Y199921D01*
X225109Y199900D01*
X225112Y199877D01*
X225172Y199711D01*
X225228Y199542D01*
X225240Y199523D01*
X225247Y199501D01*
X225339Y199350D01*
X225428Y199196D01*
X225443Y199179D01*
X225455Y199160D01*
X225638Y198949D01*
X226767Y197820D01*
X227618Y195765D01*
X227618Y193541D01*
X226767Y191486D01*
X225194Y189913D01*
X225161Y189900D01*
X225147Y189892D01*
X225133Y189888D01*
X224973Y189799D01*
X224809Y189711D01*
X224797Y189701D01*
X224784Y189693D01*
X224645Y189575D01*
X224502Y189455D01*
X224492Y189443D01*
X224481Y189434D01*
X224367Y189289D01*
X224251Y189144D01*
X224244Y189131D01*
X224235Y189119D01*
X224153Y188954D01*
X224067Y188790D01*
X224063Y188775D01*
X224057Y188761D01*
X224009Y188584D01*
X223958Y188405D01*
X223957Y188390D01*
X223953Y188376D01*
X223942Y188193D01*
X223927Y188007D01*
X223929Y187992D01*
X223928Y187977D01*
X223953Y187795D01*
X223976Y187611D01*
X223981Y187596D01*
X223983Y187581D01*
X224044Y187407D01*
X224103Y187232D01*
X224110Y187219D01*
X224115Y187205D01*
X224210Y187046D01*
X224302Y186886D01*
X224312Y186875D01*
X224320Y186862D01*
X224445Y186724D01*
X224566Y186586D01*
X224578Y186577D01*
X224589Y186566D01*
X224739Y186456D01*
X224885Y186346D01*
X224899Y186339D01*
X224911Y186330D01*
X225161Y186205D01*
X225194Y186191D01*
X226767Y184619D01*
X227618Y182564D01*
X227618Y180340D01*
X226767Y178285D01*
X225172Y176690D01*
X225101Y176651D01*
X224938Y176563D01*
X224927Y176553D01*
X224913Y176546D01*
X224773Y176426D01*
X224631Y176308D01*
X224621Y176296D01*
X224610Y176286D01*
X224497Y176141D01*
X224380Y175997D01*
X224373Y175983D01*
X224364Y175971D01*
X224282Y175806D01*
X224197Y175642D01*
X224193Y175627D01*
X224186Y175614D01*
X224138Y175434D01*
X224087Y175258D01*
X224086Y175243D01*
X224082Y175228D01*
X224071Y175044D01*
X224057Y174860D01*
X224058Y174844D01*
X224057Y174829D01*
X224083Y174648D01*
X224105Y174463D01*
X224110Y174449D01*
X224112Y174434D01*
X224173Y174260D01*
X224232Y174084D01*
X224240Y174071D01*
X224245Y174057D01*
X224340Y173897D01*
X224432Y173738D01*
X224442Y173727D01*
X224449Y173714D01*
X224574Y173577D01*
X224696Y173439D01*
X224708Y173430D01*
X224718Y173418D01*
X224867Y173309D01*
X225015Y173198D01*
X225028Y173191D01*
X225040Y173182D01*
X225290Y173058D01*
X225453Y172990D01*
X227026Y171418D01*
X227877Y169363D01*
X227877Y167139D01*
X227026Y165084D01*
X226429Y164487D01*
X226410Y164464D01*
X226387Y164444D01*
X226284Y164309D01*
X226177Y164178D01*
X226163Y164151D01*
X226144Y164127D01*
X226070Y163975D01*
X225990Y163825D01*
X225982Y163796D01*
X225969Y163768D01*
X225926Y163605D01*
X225878Y163441D01*
X225875Y163411D01*
X225868Y163382D01*
X225859Y163213D01*
X225844Y163043D01*
X225848Y163013D01*
X225846Y162983D01*
X225871Y162815D01*
X225890Y162647D01*
X225899Y162618D01*
X225904Y162588D01*
X225961Y162428D01*
X226014Y162267D01*
X226029Y162241D01*
X226039Y162212D01*
X226127Y162067D01*
X226211Y161919D01*
X226231Y161897D01*
X226246Y161871D01*
X226429Y161660D01*
X227802Y160287D01*
X228653Y158232D01*
X228653Y156008D01*
X227802Y153953D01*
X226230Y152381D01*
X224175Y151529D01*
X221951Y151529D01*
G37*
%LPD*%
%LPC*%
G36*
X830617Y214026D02*
X830617Y214026D01*
X828562Y214877D01*
X826989Y216450D01*
X826138Y218505D01*
X826138Y220729D01*
X826989Y222784D01*
X828562Y224357D01*
X829381Y224696D01*
X829408Y224710D01*
X829436Y224720D01*
X829583Y224804D01*
X829733Y224885D01*
X829756Y224904D01*
X829782Y224919D01*
X829909Y225031D01*
X830040Y225140D01*
X830059Y225163D01*
X830082Y225184D01*
X830184Y225319D01*
X830290Y225451D01*
X830304Y225478D01*
X830323Y225502D01*
X830396Y225655D01*
X830474Y225806D01*
X830482Y225835D01*
X830495Y225862D01*
X830537Y226026D01*
X830584Y226190D01*
X830586Y226220D01*
X830593Y226249D01*
X830601Y226419D01*
X830614Y226588D01*
X830611Y226618D01*
X830612Y226648D01*
X830586Y226816D01*
X830566Y226985D01*
X830556Y227013D01*
X830551Y227043D01*
X830463Y227308D01*
X829099Y230600D01*
X829099Y234285D01*
X829142Y234428D01*
X829145Y234459D01*
X829153Y234488D01*
X829164Y234657D01*
X829179Y234826D01*
X829176Y234856D01*
X829178Y234887D01*
X829155Y235055D01*
X829136Y235223D01*
X829127Y235252D01*
X829123Y235282D01*
X829067Y235442D01*
X829016Y235604D01*
X829001Y235630D01*
X828991Y235659D01*
X828904Y235805D01*
X828821Y235953D01*
X828802Y235976D01*
X828786Y236002D01*
X828672Y236127D01*
X828562Y236256D01*
X828538Y236275D01*
X828517Y236298D01*
X828381Y236397D01*
X828247Y236502D01*
X828220Y236516D01*
X828195Y236534D01*
X827945Y236658D01*
X827162Y236982D01*
X825590Y238555D01*
X824739Y240610D01*
X824739Y242834D01*
X825590Y244889D01*
X827162Y246462D01*
X828595Y247055D01*
X828622Y247069D01*
X828651Y247079D01*
X828798Y247164D01*
X828947Y247244D01*
X828970Y247263D01*
X828997Y247279D01*
X829124Y247391D01*
X829254Y247499D01*
X829273Y247523D01*
X829296Y247543D01*
X829399Y247679D01*
X829505Y247810D01*
X829519Y247837D01*
X829537Y247861D01*
X829611Y248015D01*
X829688Y248165D01*
X829697Y248194D01*
X829710Y248221D01*
X829751Y248386D01*
X829798Y248549D01*
X829800Y248579D01*
X829808Y248609D01*
X829816Y248778D01*
X829829Y248947D01*
X829825Y248978D01*
X829827Y249008D01*
X829801Y249175D01*
X829780Y249344D01*
X829770Y249373D01*
X829766Y249402D01*
X829677Y249667D01*
X829343Y250473D01*
X829343Y252697D01*
X830195Y254752D01*
X830855Y255412D01*
X830870Y255430D01*
X830887Y255445D01*
X830996Y255584D01*
X831108Y255722D01*
X831119Y255742D01*
X831133Y255760D01*
X831212Y255918D01*
X831294Y256075D01*
X831301Y256097D01*
X831311Y256117D01*
X831357Y256288D01*
X831407Y256458D01*
X831409Y256481D01*
X831414Y256503D01*
X831425Y256679D01*
X831440Y256856D01*
X831438Y256879D01*
X831439Y256902D01*
X831415Y257077D01*
X831395Y257253D01*
X831388Y257275D01*
X831384Y257297D01*
X831325Y257465D01*
X831271Y257633D01*
X831260Y257652D01*
X831252Y257674D01*
X831161Y257826D01*
X831074Y257980D01*
X831059Y257997D01*
X831047Y258017D01*
X830928Y258148D01*
X830812Y258282D01*
X830794Y258296D01*
X830779Y258312D01*
X830635Y258418D01*
X830495Y258525D01*
X830475Y258535D01*
X830456Y258549D01*
X830207Y258673D01*
X828397Y259423D01*
X826824Y260995D01*
X825973Y263050D01*
X825973Y265274D01*
X826824Y267329D01*
X828397Y268902D01*
X828925Y269121D01*
X828945Y269131D01*
X828967Y269139D01*
X829120Y269226D01*
X829277Y269310D01*
X829294Y269324D01*
X829314Y269335D01*
X829448Y269451D01*
X829584Y269565D01*
X829599Y269583D01*
X829616Y269597D01*
X829724Y269738D01*
X829835Y269876D01*
X829845Y269896D01*
X829859Y269914D01*
X829937Y270073D01*
X830018Y270231D01*
X830025Y270253D01*
X830035Y270273D01*
X830079Y270444D01*
X830128Y270615D01*
X830130Y270638D01*
X830135Y270659D01*
X830145Y270835D01*
X830159Y271013D01*
X830156Y271036D01*
X830157Y271058D01*
X830132Y271232D01*
X830110Y271409D01*
X830103Y271431D01*
X830099Y271453D01*
X830040Y271619D01*
X829983Y271788D01*
X829972Y271808D01*
X829964Y271829D01*
X829872Y271980D01*
X829784Y272134D01*
X829769Y272151D01*
X829757Y272171D01*
X829574Y272381D01*
X828328Y273627D01*
X827477Y275682D01*
X827477Y277906D01*
X828328Y279961D01*
X829964Y281597D01*
X830015Y281624D01*
X830033Y281639D01*
X830053Y281650D01*
X830186Y281766D01*
X830323Y281879D01*
X830337Y281897D01*
X830354Y281912D01*
X830462Y282053D01*
X830573Y282191D01*
X830583Y282211D01*
X830597Y282229D01*
X830675Y282388D01*
X830757Y282545D01*
X830763Y282567D01*
X830773Y282588D01*
X830817Y282759D01*
X830866Y282929D01*
X830868Y282952D01*
X830874Y282974D01*
X830883Y283150D01*
X830897Y283328D01*
X830894Y283350D01*
X830895Y283373D01*
X830870Y283548D01*
X830848Y283724D01*
X830841Y283746D01*
X830838Y283768D01*
X830778Y283935D01*
X830721Y284103D01*
X830710Y284123D01*
X830702Y284144D01*
X830611Y284295D01*
X830522Y284449D01*
X830507Y284466D01*
X830495Y284485D01*
X830312Y284696D01*
X828679Y286329D01*
X827828Y288384D01*
X827828Y290720D01*
X827825Y290750D01*
X827827Y290780D01*
X827805Y290949D01*
X827788Y291117D01*
X827779Y291146D01*
X827775Y291176D01*
X827720Y291337D01*
X827670Y291499D01*
X827655Y291526D01*
X827645Y291554D01*
X827560Y291700D01*
X827478Y291849D01*
X827459Y291873D01*
X827443Y291899D01*
X827330Y292025D01*
X827221Y292155D01*
X827197Y292174D01*
X827177Y292196D01*
X827041Y292297D01*
X826908Y292403D01*
X826881Y292417D01*
X826856Y292435D01*
X826703Y292507D01*
X826552Y292584D01*
X826522Y292592D01*
X826495Y292605D01*
X826330Y292645D01*
X826167Y292690D01*
X826136Y292693D01*
X826107Y292700D01*
X825828Y292719D01*
X825422Y292719D01*
X823368Y293570D01*
X821795Y295143D01*
X820944Y297198D01*
X820944Y299422D01*
X821795Y301477D01*
X823368Y303050D01*
X825422Y303901D01*
X827308Y303901D01*
X827331Y303903D01*
X827353Y303901D01*
X827530Y303923D01*
X827705Y303941D01*
X827727Y303947D01*
X827750Y303950D01*
X827918Y304006D01*
X828087Y304059D01*
X828107Y304070D01*
X828129Y304077D01*
X828281Y304165D01*
X828437Y304250D01*
X828455Y304265D01*
X828475Y304276D01*
X828607Y304394D01*
X828743Y304508D01*
X828757Y304526D01*
X828774Y304541D01*
X828881Y304682D01*
X828991Y304821D01*
X829001Y304841D01*
X829015Y304859D01*
X829092Y305019D01*
X829172Y305177D01*
X829178Y305199D01*
X829188Y305219D01*
X829231Y305391D01*
X829278Y305562D01*
X829280Y305585D01*
X829286Y305607D01*
X829294Y305784D01*
X829306Y305960D01*
X829303Y305983D01*
X829304Y306006D01*
X829277Y306181D01*
X829254Y306356D01*
X829247Y306378D01*
X829244Y306400D01*
X829155Y306665D01*
X829099Y306800D01*
X829099Y310420D01*
X829179Y310613D01*
X829188Y310642D01*
X829201Y310669D01*
X829245Y310833D01*
X829294Y310995D01*
X829297Y311026D01*
X829305Y311055D01*
X829316Y311224D01*
X829331Y311393D01*
X829328Y311423D01*
X829330Y311454D01*
X829307Y311621D01*
X829288Y311790D01*
X829279Y311819D01*
X829275Y311849D01*
X829219Y312009D01*
X829167Y312171D01*
X829153Y312197D01*
X829143Y312226D01*
X829056Y312372D01*
X828973Y312520D01*
X828953Y312543D01*
X828938Y312569D01*
X828824Y312695D01*
X828713Y312823D01*
X828690Y312842D01*
X828669Y312864D01*
X828532Y312965D01*
X828399Y313069D01*
X828371Y313083D01*
X828347Y313101D01*
X828097Y313225D01*
X827466Y313486D01*
X825894Y315059D01*
X825043Y317114D01*
X825043Y319338D01*
X825894Y321393D01*
X827466Y322966D01*
X829521Y323817D01*
X831745Y323817D01*
X833800Y322966D01*
X835373Y321393D01*
X836351Y319033D01*
X836382Y318931D01*
X836397Y318904D01*
X836406Y318876D01*
X836492Y318730D01*
X836574Y318581D01*
X836593Y318557D01*
X836608Y318531D01*
X836722Y318405D01*
X836831Y318275D01*
X836855Y318256D01*
X836875Y318234D01*
X837011Y318133D01*
X837144Y318027D01*
X837171Y318013D01*
X837195Y317995D01*
X837349Y317923D01*
X837500Y317846D01*
X837529Y317838D01*
X837557Y317825D01*
X837722Y317785D01*
X837885Y317740D01*
X837915Y317737D01*
X837945Y317730D01*
X838223Y317711D01*
X840010Y317711D01*
X843355Y316325D01*
X845915Y313765D01*
X847301Y310420D01*
X847301Y306800D01*
X845915Y303455D01*
X843355Y300895D01*
X840010Y299509D01*
X836390Y299509D01*
X834890Y300131D01*
X834868Y300137D01*
X834848Y300148D01*
X834677Y300195D01*
X834507Y300246D01*
X834484Y300248D01*
X834463Y300254D01*
X834286Y300266D01*
X834109Y300283D01*
X834087Y300280D01*
X834064Y300282D01*
X833889Y300259D01*
X833712Y300240D01*
X833691Y300233D01*
X833668Y300230D01*
X833501Y300173D01*
X833332Y300119D01*
X833312Y300108D01*
X833290Y300101D01*
X833137Y300011D01*
X832983Y299925D01*
X832965Y299910D01*
X832946Y299898D01*
X832814Y299780D01*
X832679Y299665D01*
X832665Y299647D01*
X832648Y299632D01*
X832543Y299490D01*
X832433Y299350D01*
X832423Y299330D01*
X832410Y299312D01*
X832335Y299152D01*
X832255Y298993D01*
X832249Y298971D01*
X832240Y298950D01*
X832198Y298778D01*
X832151Y298607D01*
X832150Y298584D01*
X832145Y298562D01*
X832125Y298284D01*
X832125Y297086D01*
X832128Y297056D01*
X832126Y297026D01*
X832148Y296857D01*
X832165Y296689D01*
X832174Y296660D01*
X832178Y296630D01*
X832233Y296469D01*
X832283Y296307D01*
X832298Y296281D01*
X832308Y296252D01*
X832393Y296106D01*
X832475Y295957D01*
X832494Y295933D01*
X832510Y295907D01*
X832623Y295781D01*
X832732Y295651D01*
X832756Y295633D01*
X832776Y295610D01*
X832912Y295509D01*
X833045Y295403D01*
X833072Y295389D01*
X833097Y295371D01*
X833250Y295299D01*
X833401Y295222D01*
X833430Y295214D01*
X833458Y295201D01*
X833623Y295161D01*
X833786Y295116D01*
X833816Y295114D01*
X833846Y295106D01*
X834124Y295087D01*
X834530Y295087D01*
X836585Y294236D01*
X838158Y292663D01*
X839009Y290608D01*
X839009Y288384D01*
X838158Y286329D01*
X836522Y284694D01*
X836471Y284666D01*
X836453Y284651D01*
X836433Y284640D01*
X836300Y284524D01*
X836163Y284411D01*
X836149Y284393D01*
X836132Y284378D01*
X836024Y284238D01*
X835913Y284100D01*
X835902Y284080D01*
X835889Y284061D01*
X835811Y283903D01*
X835729Y283745D01*
X835723Y283723D01*
X835713Y283703D01*
X835668Y283532D01*
X835620Y283361D01*
X835618Y283338D01*
X835612Y283316D01*
X835603Y283140D01*
X835589Y282963D01*
X835592Y282940D01*
X835590Y282917D01*
X835616Y282742D01*
X835638Y282566D01*
X835645Y282545D01*
X835648Y282522D01*
X835708Y282355D01*
X835764Y282187D01*
X835776Y282168D01*
X835784Y282146D01*
X835875Y281996D01*
X835964Y281841D01*
X835979Y281824D01*
X835991Y281805D01*
X836174Y281594D01*
X837807Y279961D01*
X838658Y277906D01*
X838658Y275682D01*
X837807Y273627D01*
X836234Y272055D01*
X835706Y271836D01*
X835686Y271825D01*
X835665Y271818D01*
X835511Y271731D01*
X835354Y271647D01*
X835337Y271632D01*
X835317Y271621D01*
X835184Y271505D01*
X835047Y271392D01*
X835033Y271374D01*
X835016Y271359D01*
X834908Y271219D01*
X834797Y271081D01*
X834786Y271060D01*
X834772Y271042D01*
X834694Y270883D01*
X834613Y270726D01*
X834607Y270704D01*
X834597Y270684D01*
X834552Y270513D01*
X834504Y270342D01*
X834502Y270319D01*
X834496Y270297D01*
X834486Y270121D01*
X834473Y269943D01*
X834475Y269921D01*
X834474Y269898D01*
X834500Y269724D01*
X834521Y269547D01*
X834529Y269525D01*
X834532Y269503D01*
X834592Y269337D01*
X834648Y269168D01*
X834660Y269148D01*
X834667Y269127D01*
X834759Y268976D01*
X834848Y268822D01*
X834863Y268805D01*
X834875Y268786D01*
X835058Y268575D01*
X836303Y267329D01*
X837155Y265274D01*
X837155Y263050D01*
X836303Y260995D01*
X835643Y260335D01*
X835628Y260317D01*
X835611Y260303D01*
X835502Y260163D01*
X835390Y260026D01*
X835379Y260006D01*
X835365Y259988D01*
X835286Y259829D01*
X835204Y259672D01*
X835197Y259651D01*
X835187Y259630D01*
X835141Y259460D01*
X835091Y259289D01*
X835089Y259266D01*
X835084Y259245D01*
X835073Y259069D01*
X835057Y258891D01*
X835060Y258868D01*
X835059Y258846D01*
X835083Y258671D01*
X835103Y258494D01*
X835110Y258473D01*
X835114Y258450D01*
X835172Y258282D01*
X835227Y258115D01*
X835238Y258095D01*
X835246Y258073D01*
X835337Y257921D01*
X835424Y257767D01*
X835439Y257750D01*
X835451Y257730D01*
X835570Y257599D01*
X835686Y257466D01*
X835704Y257452D01*
X835719Y257435D01*
X835863Y257330D01*
X836003Y257222D01*
X836023Y257212D01*
X836042Y257199D01*
X836291Y257074D01*
X838101Y256325D01*
X839674Y254752D01*
X840525Y252697D01*
X840525Y250473D01*
X839674Y248418D01*
X838101Y246845D01*
X836668Y246252D01*
X836642Y246238D01*
X836613Y246228D01*
X836466Y246143D01*
X836316Y246063D01*
X836293Y246044D01*
X836267Y246029D01*
X836139Y245916D01*
X836009Y245808D01*
X835990Y245784D01*
X835967Y245764D01*
X835865Y245629D01*
X835759Y245497D01*
X835745Y245470D01*
X835726Y245446D01*
X835653Y245293D01*
X835575Y245142D01*
X835567Y245113D01*
X835554Y245086D01*
X835512Y244921D01*
X835466Y244758D01*
X835463Y244728D01*
X835456Y244698D01*
X835448Y244529D01*
X835435Y244360D01*
X835438Y244330D01*
X835437Y244299D01*
X835463Y244132D01*
X835484Y243963D01*
X835493Y243935D01*
X835498Y243905D01*
X835586Y243640D01*
X835957Y242745D01*
X835975Y242712D01*
X835987Y242676D01*
X836069Y242536D01*
X836146Y242393D01*
X836170Y242364D01*
X836189Y242331D01*
X836298Y242210D01*
X836401Y242086D01*
X836431Y242062D01*
X836456Y242034D01*
X836586Y241937D01*
X836712Y241835D01*
X836746Y241818D01*
X836776Y241795D01*
X836923Y241726D01*
X837067Y241652D01*
X837103Y241641D01*
X837138Y241625D01*
X837295Y241587D01*
X837451Y241542D01*
X837489Y241539D01*
X837526Y241530D01*
X837804Y241511D01*
X840010Y241511D01*
X843355Y240125D01*
X845915Y237565D01*
X847301Y234220D01*
X847301Y230600D01*
X845915Y227255D01*
X843355Y224695D01*
X840010Y223309D01*
X839243Y223309D01*
X839220Y223307D01*
X839198Y223309D01*
X839021Y223287D01*
X838846Y223269D01*
X838824Y223263D01*
X838801Y223260D01*
X838633Y223204D01*
X838464Y223151D01*
X838444Y223140D01*
X838422Y223133D01*
X838269Y223045D01*
X838114Y222960D01*
X838096Y222945D01*
X838076Y222934D01*
X837944Y222816D01*
X837808Y222702D01*
X837794Y222684D01*
X837777Y222669D01*
X837670Y222528D01*
X837560Y222389D01*
X837550Y222369D01*
X837536Y222351D01*
X837459Y222191D01*
X837379Y222033D01*
X837373Y222011D01*
X837363Y221991D01*
X837320Y221819D01*
X837273Y221648D01*
X837271Y221625D01*
X837265Y221603D01*
X837257Y221426D01*
X837245Y221250D01*
X837248Y221227D01*
X837247Y221204D01*
X837274Y221029D01*
X837297Y220854D01*
X837304Y220832D01*
X837307Y220810D01*
X837320Y220773D01*
X837320Y218505D01*
X836469Y216450D01*
X834896Y214877D01*
X832841Y214026D01*
X830617Y214026D01*
G37*
%LPD*%
%LPC*%
G36*
X746031Y470809D02*
X746031Y470809D01*
X739047Y473702D01*
X733702Y479047D01*
X730809Y486031D01*
X730809Y493589D01*
X733702Y500573D01*
X739047Y505918D01*
X746031Y508811D01*
X753589Y508811D01*
X760573Y505918D01*
X765918Y500573D01*
X768811Y493589D01*
X768811Y486031D01*
X765918Y479047D01*
X760573Y473702D01*
X753589Y470809D01*
X746031Y470809D01*
G37*
%LPD*%
%LPC*%
G36*
X286411Y470809D02*
X286411Y470809D01*
X279427Y473702D01*
X274082Y479047D01*
X271189Y486031D01*
X271189Y493589D01*
X274082Y500573D01*
X279427Y505918D01*
X286411Y508811D01*
X293969Y508811D01*
X300953Y505918D01*
X306298Y500573D01*
X309191Y493589D01*
X309191Y486031D01*
X306298Y479047D01*
X300953Y473702D01*
X293969Y470809D01*
X286411Y470809D01*
G37*
%LPD*%
%LPC*%
G36*
X286411Y11189D02*
X286411Y11189D01*
X279427Y14082D01*
X274082Y19427D01*
X271189Y26411D01*
X271189Y33969D01*
X274082Y40953D01*
X279427Y46298D01*
X286411Y49191D01*
X293969Y49191D01*
X300953Y46298D01*
X306298Y40953D01*
X309191Y33969D01*
X309191Y26411D01*
X306298Y19427D01*
X300953Y14082D01*
X293969Y11189D01*
X286411Y11189D01*
G37*
%LPD*%
%LPC*%
G36*
X746031Y11189D02*
X746031Y11189D01*
X739047Y14082D01*
X733702Y19427D01*
X730809Y26411D01*
X730809Y33969D01*
X733702Y40953D01*
X739047Y46298D01*
X746031Y49191D01*
X753589Y49191D01*
X760573Y46298D01*
X765918Y40953D01*
X768811Y33969D01*
X768811Y26411D01*
X765918Y19427D01*
X760573Y14082D01*
X753589Y11189D01*
X746031Y11189D01*
G37*
%LPD*%
%LPC*%
G36*
X804132Y220715D02*
X804132Y220715D01*
X802077Y221566D01*
X800505Y223139D01*
X799653Y225193D01*
X799653Y227417D01*
X800505Y229472D01*
X802358Y231325D01*
X802377Y231349D01*
X802400Y231369D01*
X802503Y231503D01*
X802610Y231634D01*
X802625Y231661D01*
X802643Y231685D01*
X802717Y231837D01*
X802797Y231988D01*
X802805Y232017D01*
X802818Y232044D01*
X802861Y232208D01*
X802909Y232371D01*
X802912Y232401D01*
X802919Y232431D01*
X802928Y232599D01*
X802943Y232769D01*
X802939Y232799D01*
X802941Y232829D01*
X802916Y232997D01*
X802897Y233166D01*
X802888Y233195D01*
X802883Y233225D01*
X802826Y233385D01*
X802773Y233546D01*
X802758Y233572D01*
X802748Y233600D01*
X802660Y233745D01*
X802576Y233893D01*
X802556Y233916D01*
X802541Y233942D01*
X802358Y234153D01*
X800741Y235770D01*
X799889Y237824D01*
X799889Y240049D01*
X800741Y242103D01*
X802313Y243676D01*
X802525Y243764D01*
X802545Y243774D01*
X802567Y243782D01*
X802722Y243869D01*
X802877Y243953D01*
X802894Y243967D01*
X802914Y243978D01*
X803049Y244095D01*
X803184Y244208D01*
X803199Y244225D01*
X803216Y244240D01*
X803324Y244382D01*
X803435Y244519D01*
X803445Y244539D01*
X803459Y244557D01*
X803537Y244717D01*
X803618Y244874D01*
X803625Y244896D01*
X803635Y244916D01*
X803680Y245088D01*
X803728Y245258D01*
X803730Y245280D01*
X803735Y245303D01*
X803745Y245480D01*
X803759Y245656D01*
X803756Y245679D01*
X803757Y245701D01*
X803732Y245876D01*
X803710Y246052D01*
X803703Y246074D01*
X803699Y246097D01*
X803640Y246263D01*
X803583Y246431D01*
X803572Y246451D01*
X803564Y246472D01*
X803472Y246624D01*
X803384Y246777D01*
X803369Y246794D01*
X803357Y246814D01*
X803174Y247025D01*
X802473Y247725D01*
X801622Y249780D01*
X801622Y252004D01*
X802473Y254059D01*
X804046Y255632D01*
X806101Y256483D01*
X808325Y256483D01*
X810380Y255632D01*
X811952Y254059D01*
X812804Y252004D01*
X812804Y249780D01*
X811952Y247725D01*
X810380Y246152D01*
X810168Y246065D01*
X810148Y246054D01*
X810126Y246047D01*
X809971Y245959D01*
X809816Y245876D01*
X809799Y245861D01*
X809779Y245850D01*
X809644Y245733D01*
X809509Y245621D01*
X809494Y245603D01*
X809477Y245588D01*
X809369Y245447D01*
X809258Y245309D01*
X809248Y245289D01*
X809234Y245271D01*
X809156Y245112D01*
X809075Y244955D01*
X809068Y244933D01*
X809058Y244912D01*
X809013Y244740D01*
X808965Y244571D01*
X808963Y244548D01*
X808958Y244526D01*
X808948Y244349D01*
X808934Y244172D01*
X808937Y244150D01*
X808936Y244127D01*
X808961Y243953D01*
X808983Y243776D01*
X808990Y243754D01*
X808994Y243732D01*
X809053Y243566D01*
X809110Y243397D01*
X809121Y243377D01*
X809129Y243356D01*
X809221Y243205D01*
X809309Y243051D01*
X809324Y243034D01*
X809336Y243015D01*
X809519Y242804D01*
X810220Y242103D01*
X811071Y240049D01*
X811071Y237824D01*
X810220Y235770D01*
X808367Y233917D01*
X808348Y233893D01*
X808325Y233873D01*
X808222Y233739D01*
X808114Y233607D01*
X808100Y233581D01*
X808081Y233557D01*
X808007Y233404D01*
X807928Y233254D01*
X807919Y233225D01*
X807906Y233198D01*
X807863Y233034D01*
X807815Y232871D01*
X807813Y232840D01*
X807805Y232811D01*
X807796Y232643D01*
X807781Y232473D01*
X807785Y232443D01*
X807783Y232412D01*
X807808Y232245D01*
X807827Y232076D01*
X807837Y232047D01*
X807841Y232017D01*
X807899Y231857D01*
X807951Y231696D01*
X807966Y231670D01*
X807976Y231641D01*
X808064Y231497D01*
X808148Y231349D01*
X808168Y231326D01*
X808184Y231300D01*
X808367Y231089D01*
X809984Y229472D01*
X810835Y227417D01*
X810835Y225193D01*
X809984Y223139D01*
X808411Y221566D01*
X806356Y220715D01*
X804132Y220715D01*
G37*
%LPD*%
%LPC*%
G36*
X693432Y384051D02*
X693432Y384051D01*
X691377Y384902D01*
X689804Y386475D01*
X688953Y388529D01*
X688953Y390754D01*
X689804Y392808D01*
X690317Y393321D01*
X690331Y393339D01*
X690349Y393353D01*
X690458Y393493D01*
X690570Y393630D01*
X690580Y393650D01*
X690594Y393668D01*
X690674Y393827D01*
X690756Y393983D01*
X690763Y394005D01*
X690773Y394026D01*
X690819Y394196D01*
X690868Y394367D01*
X690870Y394389D01*
X690876Y394411D01*
X690887Y394588D01*
X690902Y394765D01*
X690900Y394787D01*
X690901Y394810D01*
X690877Y394986D01*
X690856Y395161D01*
X690849Y395183D01*
X690846Y395206D01*
X690788Y395373D01*
X690733Y395541D01*
X690721Y395561D01*
X690714Y395583D01*
X690623Y395734D01*
X690536Y395889D01*
X690521Y395906D01*
X690509Y395926D01*
X690390Y396056D01*
X690274Y396190D01*
X690256Y396204D01*
X690240Y396221D01*
X690098Y396325D01*
X689957Y396434D01*
X689936Y396444D01*
X689918Y396457D01*
X689879Y396476D01*
X688276Y398080D01*
X687425Y400134D01*
X687425Y402359D01*
X688276Y404413D01*
X689849Y405986D01*
X691904Y406837D01*
X694128Y406837D01*
X696183Y405986D01*
X697755Y404413D01*
X698606Y402359D01*
X698606Y400134D01*
X697755Y398080D01*
X697243Y397567D01*
X697228Y397549D01*
X697211Y397535D01*
X697102Y397395D01*
X696990Y397258D01*
X696979Y397238D01*
X696965Y397220D01*
X696886Y397061D01*
X696804Y396905D01*
X696797Y396883D01*
X696787Y396862D01*
X696741Y396692D01*
X696691Y396521D01*
X696689Y396498D01*
X696684Y396476D01*
X696673Y396300D01*
X696657Y396123D01*
X696660Y396100D01*
X696659Y396078D01*
X696683Y395902D01*
X696703Y395726D01*
X696710Y395705D01*
X696714Y395682D01*
X696772Y395515D01*
X696827Y395347D01*
X696839Y395327D01*
X696846Y395305D01*
X696936Y395154D01*
X697024Y394999D01*
X697039Y394982D01*
X697051Y394962D01*
X697170Y394832D01*
X697286Y394698D01*
X697304Y394684D01*
X697320Y394667D01*
X697462Y394563D01*
X697603Y394454D01*
X697623Y394444D01*
X697642Y394431D01*
X697681Y394411D01*
X699284Y392808D01*
X700135Y390754D01*
X700135Y388529D01*
X699284Y386475D01*
X697711Y384902D01*
X695656Y384051D01*
X693432Y384051D01*
G37*
%LPD*%
%LPC*%
G36*
X554927Y329020D02*
X554927Y329020D01*
X552873Y329871D01*
X551300Y331444D01*
X550449Y333499D01*
X550449Y335723D01*
X551300Y337778D01*
X552873Y339350D01*
X554927Y340201D01*
X557152Y340201D01*
X559206Y339350D01*
X559576Y338981D01*
X559599Y338962D01*
X559619Y338939D01*
X559753Y338836D01*
X559885Y338728D01*
X559912Y338714D01*
X559936Y338696D01*
X560088Y338621D01*
X560238Y338542D01*
X560267Y338533D01*
X560294Y338520D01*
X560459Y338477D01*
X560621Y338430D01*
X560652Y338427D01*
X560681Y338419D01*
X560850Y338410D01*
X561019Y338396D01*
X561050Y338399D01*
X561080Y338397D01*
X561247Y338422D01*
X561416Y338441D01*
X561445Y338451D01*
X561475Y338455D01*
X561634Y338513D01*
X561796Y338565D01*
X561822Y338580D01*
X561851Y338591D01*
X561996Y338679D01*
X562144Y338762D01*
X562166Y338782D01*
X562192Y338798D01*
X562403Y338981D01*
X563304Y339882D01*
X565359Y340733D01*
X567583Y340733D01*
X569638Y339882D01*
X571211Y338309D01*
X572062Y336254D01*
X572062Y334030D01*
X571211Y331976D01*
X569638Y330403D01*
X567583Y329552D01*
X565359Y329552D01*
X563304Y330403D01*
X562935Y330772D01*
X562911Y330791D01*
X562892Y330814D01*
X562757Y330917D01*
X562626Y331025D01*
X562599Y331039D01*
X562575Y331057D01*
X562422Y331132D01*
X562272Y331211D01*
X562243Y331220D01*
X562216Y331233D01*
X562052Y331276D01*
X561889Y331324D01*
X561859Y331326D01*
X561829Y331334D01*
X561660Y331343D01*
X561491Y331357D01*
X561461Y331354D01*
X561431Y331356D01*
X561264Y331331D01*
X561094Y331312D01*
X561065Y331302D01*
X561035Y331298D01*
X560876Y331241D01*
X560715Y331188D01*
X560688Y331173D01*
X560660Y331162D01*
X560515Y331074D01*
X560367Y330991D01*
X560344Y330971D01*
X560318Y330955D01*
X560107Y330772D01*
X559206Y329871D01*
X557152Y329020D01*
X554927Y329020D01*
G37*
%LPD*%
%LPC*%
G36*
X416035Y283274D02*
X416035Y283274D01*
X413980Y284125D01*
X412407Y285698D01*
X411556Y287753D01*
X411556Y289977D01*
X412407Y292032D01*
X413980Y293604D01*
X416035Y294456D01*
X418259Y294456D01*
X420314Y293604D01*
X420585Y293333D01*
X420608Y293314D01*
X420628Y293291D01*
X420762Y293188D01*
X420894Y293081D01*
X420921Y293066D01*
X420945Y293048D01*
X421097Y292973D01*
X421247Y292894D01*
X421276Y292886D01*
X421303Y292872D01*
X421468Y292830D01*
X421630Y292782D01*
X421661Y292779D01*
X421690Y292772D01*
X421859Y292762D01*
X422028Y292748D01*
X422059Y292752D01*
X422089Y292750D01*
X422256Y292774D01*
X422425Y292794D01*
X422454Y292803D01*
X422484Y292808D01*
X422643Y292865D01*
X422805Y292918D01*
X422831Y292933D01*
X422860Y292943D01*
X423005Y293031D01*
X423152Y293115D01*
X423175Y293135D01*
X423201Y293150D01*
X423412Y293333D01*
X423743Y293664D01*
X425797Y294515D01*
X428022Y294515D01*
X430076Y293664D01*
X431649Y292091D01*
X432500Y290037D01*
X432500Y287812D01*
X431649Y285758D01*
X430076Y284185D01*
X428022Y283334D01*
X425797Y283334D01*
X423743Y284185D01*
X423472Y284456D01*
X423448Y284475D01*
X423428Y284498D01*
X423294Y284601D01*
X423162Y284709D01*
X423136Y284723D01*
X423112Y284741D01*
X422959Y284816D01*
X422809Y284895D01*
X422780Y284903D01*
X422753Y284917D01*
X422588Y284960D01*
X422426Y285007D01*
X422396Y285010D01*
X422366Y285018D01*
X422197Y285027D01*
X422028Y285041D01*
X421998Y285038D01*
X421967Y285039D01*
X421800Y285015D01*
X421631Y284995D01*
X421602Y284986D01*
X421572Y284982D01*
X421413Y284924D01*
X421251Y284872D01*
X421225Y284857D01*
X421196Y284846D01*
X421051Y284758D01*
X420904Y284675D01*
X420881Y284655D01*
X420855Y284639D01*
X420644Y284456D01*
X420314Y284125D01*
X418259Y283274D01*
X416035Y283274D01*
G37*
%LPD*%
%LPC*%
G36*
X716764Y427503D02*
X716764Y427503D01*
X714709Y428354D01*
X713136Y429927D01*
X712285Y431982D01*
X712285Y434206D01*
X713136Y436261D01*
X713159Y436283D01*
X713178Y436307D01*
X713201Y436327D01*
X713304Y436461D01*
X713411Y436592D01*
X713426Y436619D01*
X713444Y436643D01*
X713519Y436796D01*
X713598Y436946D01*
X713606Y436975D01*
X713620Y437002D01*
X713662Y437166D01*
X713710Y437329D01*
X713713Y437359D01*
X713720Y437389D01*
X713730Y437558D01*
X713744Y437727D01*
X713740Y437757D01*
X713742Y437787D01*
X713718Y437955D01*
X713698Y438124D01*
X713689Y438153D01*
X713684Y438183D01*
X713627Y438343D01*
X713574Y438504D01*
X713559Y438530D01*
X713549Y438558D01*
X713461Y438704D01*
X713377Y438851D01*
X713358Y438874D01*
X713342Y438900D01*
X713159Y439111D01*
X712736Y439533D01*
X711885Y441588D01*
X711885Y443812D01*
X712736Y445867D01*
X714309Y447440D01*
X716364Y448291D01*
X718588Y448291D01*
X720643Y447440D01*
X722215Y445867D01*
X723066Y443812D01*
X723066Y441588D01*
X722215Y439533D01*
X722193Y439511D01*
X722174Y439487D01*
X722151Y439468D01*
X722048Y439333D01*
X721940Y439202D01*
X721926Y439175D01*
X721908Y439151D01*
X721833Y438999D01*
X721754Y438848D01*
X721745Y438819D01*
X721732Y438792D01*
X721689Y438627D01*
X721642Y438465D01*
X721639Y438435D01*
X721631Y438406D01*
X721622Y438236D01*
X721608Y438067D01*
X721611Y438037D01*
X721609Y438007D01*
X721634Y437839D01*
X721654Y437670D01*
X721663Y437641D01*
X721667Y437611D01*
X721725Y437452D01*
X721777Y437291D01*
X721792Y437264D01*
X721803Y437236D01*
X721891Y437091D01*
X721974Y436943D01*
X721994Y436920D01*
X722010Y436894D01*
X722193Y436683D01*
X722616Y436261D01*
X723467Y434206D01*
X723467Y431982D01*
X722616Y429927D01*
X721043Y428354D01*
X718988Y427503D01*
X716764Y427503D01*
G37*
%LPD*%
%LPC*%
G36*
X470379Y260296D02*
X470379Y260296D01*
X468324Y261147D01*
X468001Y261471D01*
X467971Y261495D01*
X467946Y261523D01*
X467817Y261621D01*
X467691Y261724D01*
X467658Y261742D01*
X467628Y261764D01*
X467481Y261835D01*
X467338Y261910D01*
X467302Y261921D01*
X467268Y261937D01*
X467111Y261977D01*
X466955Y262023D01*
X466917Y262026D01*
X466880Y262035D01*
X466719Y262043D01*
X466557Y262056D01*
X466519Y262052D01*
X466481Y262054D01*
X466321Y262029D01*
X466160Y262011D01*
X466124Y261999D01*
X466087Y261993D01*
X465822Y261905D01*
X463431Y260914D01*
X461207Y260914D01*
X459152Y261765D01*
X457579Y263338D01*
X456728Y265393D01*
X456728Y267617D01*
X457579Y269672D01*
X459152Y271244D01*
X461207Y272096D01*
X463431Y272096D01*
X465486Y271244D01*
X465809Y270921D01*
X465839Y270897D01*
X465864Y270868D01*
X465993Y270770D01*
X466119Y270668D01*
X466152Y270650D01*
X466182Y270627D01*
X466329Y270557D01*
X466472Y270482D01*
X466508Y270471D01*
X466542Y270455D01*
X466700Y270415D01*
X466855Y270369D01*
X466893Y270366D01*
X466930Y270357D01*
X467092Y270349D01*
X467253Y270335D01*
X467291Y270340D01*
X467329Y270338D01*
X467489Y270363D01*
X467650Y270381D01*
X467686Y270393D01*
X467723Y270399D01*
X467988Y270487D01*
X470379Y271478D01*
X472603Y271478D01*
X474658Y270627D01*
X476231Y269054D01*
X477082Y266999D01*
X477082Y264775D01*
X476231Y262720D01*
X474658Y261147D01*
X472603Y260296D01*
X470379Y260296D01*
G37*
%LPD*%
%LPC*%
G36*
X567649Y404437D02*
X567649Y404437D01*
X565595Y405289D01*
X565344Y405539D01*
X565321Y405558D01*
X565301Y405581D01*
X565167Y405684D01*
X565035Y405792D01*
X565008Y405806D01*
X564984Y405824D01*
X564832Y405899D01*
X564682Y405978D01*
X564653Y405986D01*
X564626Y406000D01*
X564462Y406042D01*
X564299Y406090D01*
X564268Y406093D01*
X564239Y406100D01*
X564070Y406110D01*
X563901Y406124D01*
X563870Y406121D01*
X563840Y406122D01*
X563673Y406098D01*
X563504Y406078D01*
X563475Y406069D01*
X563445Y406065D01*
X563285Y406007D01*
X563124Y405954D01*
X563098Y405940D01*
X563069Y405929D01*
X562989Y405880D01*
X560712Y404937D01*
X558488Y404937D01*
X556433Y405788D01*
X554860Y407361D01*
X554009Y409416D01*
X554009Y411640D01*
X554860Y413695D01*
X556433Y415268D01*
X558488Y416119D01*
X560712Y416119D01*
X562767Y415268D01*
X563017Y415017D01*
X563041Y414998D01*
X563061Y414975D01*
X563195Y414871D01*
X563326Y414764D01*
X563353Y414750D01*
X563378Y414731D01*
X563530Y414657D01*
X563679Y414578D01*
X563709Y414569D01*
X563737Y414556D01*
X563900Y414513D01*
X564063Y414466D01*
X564093Y414463D01*
X564123Y414455D01*
X564292Y414446D01*
X564461Y414432D01*
X564491Y414435D01*
X564522Y414434D01*
X564689Y414458D01*
X564857Y414478D01*
X564887Y414487D01*
X564917Y414492D01*
X565076Y414549D01*
X565237Y414602D01*
X565264Y414617D01*
X565293Y414627D01*
X565373Y414676D01*
X567649Y415619D01*
X569874Y415619D01*
X571928Y414768D01*
X573501Y413195D01*
X574352Y411140D01*
X574352Y408916D01*
X573501Y406861D01*
X571928Y405289D01*
X569874Y404437D01*
X567649Y404437D01*
G37*
%LPD*%
%LPC*%
G36*
X429003Y231267D02*
X429003Y231267D01*
X426948Y232118D01*
X425375Y233690D01*
X424524Y235745D01*
X424524Y237969D01*
X425400Y240084D01*
X425495Y240200D01*
X425509Y240227D01*
X425528Y240251D01*
X425602Y240403D01*
X425681Y240553D01*
X425690Y240582D01*
X425703Y240610D01*
X425746Y240773D01*
X425794Y240937D01*
X425796Y240967D01*
X425804Y240996D01*
X425813Y241165D01*
X425828Y241335D01*
X425824Y241365D01*
X425826Y241395D01*
X425801Y241562D01*
X425782Y241731D01*
X425772Y241760D01*
X425768Y241790D01*
X425711Y241949D01*
X425658Y242111D01*
X425643Y242137D01*
X425633Y242166D01*
X425544Y242311D01*
X425461Y242459D01*
X425441Y242482D01*
X425425Y242508D01*
X425242Y242718D01*
X425163Y242798D01*
X424312Y244852D01*
X424312Y247077D01*
X425163Y249131D01*
X426736Y250704D01*
X428790Y251555D01*
X431015Y251555D01*
X433069Y250704D01*
X434642Y249131D01*
X435493Y247077D01*
X435493Y244852D01*
X434617Y242737D01*
X434522Y242622D01*
X434508Y242595D01*
X434490Y242571D01*
X434415Y242418D01*
X434336Y242268D01*
X434328Y242239D01*
X434314Y242212D01*
X434272Y242048D01*
X434224Y241885D01*
X434221Y241855D01*
X434214Y241825D01*
X434204Y241656D01*
X434190Y241487D01*
X434193Y241457D01*
X434192Y241427D01*
X434216Y241259D01*
X434236Y241090D01*
X434245Y241061D01*
X434250Y241031D01*
X434307Y240872D01*
X434360Y240710D01*
X434375Y240684D01*
X434385Y240656D01*
X434473Y240511D01*
X434557Y240363D01*
X434576Y240340D01*
X434592Y240314D01*
X434775Y240103D01*
X434855Y240024D01*
X435706Y237969D01*
X435706Y235745D01*
X434855Y233690D01*
X433282Y232118D01*
X431227Y231267D01*
X429003Y231267D01*
G37*
%LPD*%
%LPC*%
G36*
X554182Y44744D02*
X554182Y44744D01*
X552026Y45637D01*
X551999Y45651D01*
X551969Y45674D01*
X551823Y45744D01*
X551680Y45819D01*
X551643Y45830D01*
X551609Y45847D01*
X551452Y45886D01*
X551296Y45932D01*
X551258Y45935D01*
X551222Y45944D01*
X551060Y45952D01*
X550898Y45966D01*
X550861Y45962D01*
X550823Y45963D01*
X550662Y45939D01*
X550502Y45920D01*
X550466Y45908D01*
X550428Y45903D01*
X550163Y45814D01*
X547754Y44816D01*
X545529Y44816D01*
X543475Y45667D01*
X541902Y47240D01*
X541051Y49295D01*
X541051Y51519D01*
X541902Y53574D01*
X543475Y55146D01*
X545529Y55997D01*
X547754Y55997D01*
X549910Y55104D01*
X549937Y55090D01*
X549967Y55067D01*
X550113Y54997D01*
X550256Y54922D01*
X550293Y54911D01*
X550327Y54894D01*
X550484Y54855D01*
X550640Y54809D01*
X550677Y54806D01*
X550714Y54797D01*
X550876Y54789D01*
X551038Y54775D01*
X551075Y54779D01*
X551113Y54778D01*
X551274Y54802D01*
X551434Y54821D01*
X551470Y54833D01*
X551508Y54838D01*
X551773Y54927D01*
X554182Y55925D01*
X556407Y55925D01*
X558461Y55074D01*
X560034Y53501D01*
X560885Y51446D01*
X560885Y49222D01*
X560034Y47167D01*
X558461Y45595D01*
X556407Y44744D01*
X554182Y44744D01*
G37*
%LPD*%
%LPC*%
G36*
X600574Y209259D02*
X600574Y209259D01*
X598519Y210110D01*
X596947Y211683D01*
X596096Y213738D01*
X596096Y215962D01*
X596947Y218017D01*
X596953Y218023D01*
X596977Y218052D01*
X597005Y218077D01*
X597103Y218207D01*
X597206Y218332D01*
X597223Y218366D01*
X597246Y218396D01*
X597316Y218542D01*
X597392Y218686D01*
X597403Y218722D01*
X597419Y218756D01*
X597459Y218913D01*
X597504Y219069D01*
X597508Y219107D01*
X597517Y219143D01*
X597525Y219305D01*
X597538Y219467D01*
X597534Y219505D01*
X597536Y219542D01*
X597511Y219702D01*
X597492Y219864D01*
X597481Y219900D01*
X597475Y219937D01*
X597386Y220202D01*
X596492Y222361D01*
X596492Y224585D01*
X597343Y226640D01*
X598916Y228212D01*
X600971Y229064D01*
X603195Y229064D01*
X605250Y228212D01*
X606822Y226640D01*
X607674Y224585D01*
X607674Y222361D01*
X606822Y220306D01*
X606816Y220300D01*
X606792Y220271D01*
X606764Y220245D01*
X606666Y220116D01*
X606563Y219990D01*
X606546Y219957D01*
X606523Y219927D01*
X606453Y219781D01*
X606377Y219637D01*
X606366Y219601D01*
X606350Y219567D01*
X606310Y219410D01*
X606265Y219254D01*
X606262Y219216D01*
X606252Y219179D01*
X606245Y219017D01*
X606231Y218856D01*
X606235Y218818D01*
X606233Y218780D01*
X606258Y218620D01*
X606277Y218459D01*
X606288Y218423D01*
X606294Y218386D01*
X606383Y218121D01*
X607277Y215962D01*
X607277Y213738D01*
X606426Y211683D01*
X604853Y210110D01*
X602798Y209259D01*
X600574Y209259D01*
G37*
%LPD*%
%LPC*%
G36*
X370110Y437376D02*
X370110Y437376D01*
X368055Y438228D01*
X366482Y439800D01*
X365631Y441855D01*
X365631Y444079D01*
X366482Y446134D01*
X368055Y447707D01*
X370110Y448558D01*
X372480Y448558D01*
X372487Y448559D01*
X372495Y448558D01*
X372686Y448579D01*
X372877Y448598D01*
X372884Y448600D01*
X372892Y448601D01*
X373075Y448659D01*
X373244Y448711D01*
X373313Y448595D01*
X373411Y448428D01*
X373416Y448423D01*
X373420Y448416D01*
X373548Y448275D01*
X373677Y448131D01*
X373683Y448126D01*
X373688Y448121D01*
X373843Y448007D01*
X373998Y447892D01*
X374004Y447889D01*
X374011Y447885D01*
X374260Y447760D01*
X374389Y447707D01*
X375962Y446134D01*
X376813Y444079D01*
X376813Y441855D01*
X375962Y439800D01*
X374389Y438228D01*
X372334Y437376D01*
X370110Y437376D01*
G37*
%LPD*%
%LPC*%
G36*
X374192Y451570D02*
X374192Y451570D01*
X374095Y451736D01*
X374089Y451742D01*
X374086Y451748D01*
X373957Y451890D01*
X373828Y452033D01*
X373822Y452038D01*
X373817Y452044D01*
X373662Y452157D01*
X373508Y452272D01*
X373501Y452275D01*
X373495Y452280D01*
X373245Y452404D01*
X373116Y452457D01*
X371544Y454030D01*
X370693Y456085D01*
X370693Y458309D01*
X371544Y460364D01*
X373116Y461937D01*
X375171Y462788D01*
X377395Y462788D01*
X379450Y461937D01*
X381023Y460364D01*
X381874Y458309D01*
X381874Y456085D01*
X381023Y454030D01*
X379450Y452457D01*
X377395Y451606D01*
X375025Y451606D01*
X375018Y451606D01*
X375010Y451606D01*
X374819Y451586D01*
X374628Y451566D01*
X374621Y451564D01*
X374613Y451563D01*
X374430Y451505D01*
X374262Y451453D01*
X374192Y451570D01*
G37*
%LPD*%
%LPC*%
G36*
X514961Y441924D02*
X514961Y441924D01*
X512906Y442775D01*
X511333Y444348D01*
X510482Y446402D01*
X510482Y448627D01*
X511333Y450681D01*
X512906Y452254D01*
X514961Y453105D01*
X517185Y453105D01*
X519240Y452254D01*
X520813Y450681D01*
X521664Y448627D01*
X521664Y446402D01*
X520813Y444348D01*
X519240Y442775D01*
X517185Y441924D01*
X514961Y441924D01*
G37*
%LPD*%
%LPC*%
G36*
X343962Y397745D02*
X343962Y397745D01*
X341907Y398597D01*
X340334Y400169D01*
X339483Y402224D01*
X339483Y404448D01*
X340334Y406503D01*
X341907Y408076D01*
X343962Y408927D01*
X346186Y408927D01*
X348241Y408076D01*
X349814Y406503D01*
X350665Y404448D01*
X350665Y402224D01*
X349814Y400169D01*
X348241Y398597D01*
X346186Y397745D01*
X343962Y397745D01*
G37*
%LPD*%
%LPC*%
G36*
X457620Y358358D02*
X457620Y358358D01*
X455565Y359209D01*
X453992Y360782D01*
X453141Y362837D01*
X453141Y365061D01*
X453992Y367116D01*
X455565Y368689D01*
X457620Y369540D01*
X459844Y369540D01*
X461899Y368689D01*
X463471Y367116D01*
X464322Y365061D01*
X464322Y362837D01*
X463471Y360782D01*
X461899Y359209D01*
X459844Y358358D01*
X457620Y358358D01*
G37*
%LPD*%
%LPC*%
G36*
X441637Y358121D02*
X441637Y358121D01*
X439582Y358972D01*
X438009Y360545D01*
X437158Y362600D01*
X437158Y364824D01*
X438009Y366879D01*
X439582Y368452D01*
X441637Y369303D01*
X443861Y369303D01*
X445916Y368452D01*
X447488Y366879D01*
X448340Y364824D01*
X448340Y362600D01*
X447488Y360545D01*
X445916Y358972D01*
X443861Y358121D01*
X441637Y358121D01*
G37*
%LPD*%
%LPC*%
G36*
X608201Y338433D02*
X608201Y338433D01*
X606146Y339284D01*
X604574Y340857D01*
X603722Y342912D01*
X603722Y345136D01*
X604574Y347191D01*
X606146Y348763D01*
X608201Y349614D01*
X610425Y349614D01*
X612480Y348763D01*
X614053Y347191D01*
X614904Y345136D01*
X614904Y342912D01*
X614053Y340857D01*
X612480Y339284D01*
X610425Y338433D01*
X608201Y338433D01*
G37*
%LPD*%
%LPC*%
G36*
X506921Y336390D02*
X506921Y336390D01*
X504866Y337241D01*
X503293Y338814D01*
X502442Y340868D01*
X502442Y343093D01*
X503293Y345147D01*
X504866Y346720D01*
X506921Y347571D01*
X509145Y347571D01*
X511200Y346720D01*
X512772Y345147D01*
X513624Y343093D01*
X513624Y340868D01*
X512772Y338814D01*
X511200Y337241D01*
X509145Y336390D01*
X506921Y336390D01*
G37*
%LPD*%
%LPC*%
G36*
X448957Y323872D02*
X448957Y323872D01*
X446902Y324723D01*
X445329Y326296D01*
X444478Y328351D01*
X444478Y330575D01*
X445329Y332630D01*
X446902Y334202D01*
X448957Y335054D01*
X451181Y335054D01*
X453236Y334202D01*
X454808Y332630D01*
X455659Y330575D01*
X455659Y328351D01*
X454808Y326296D01*
X453236Y324723D01*
X451181Y323872D01*
X448957Y323872D01*
G37*
%LPD*%
%LPC*%
G36*
X399704Y279371D02*
X399704Y279371D01*
X397650Y280222D01*
X396077Y281795D01*
X395226Y283850D01*
X395226Y286074D01*
X396077Y288129D01*
X397650Y289702D01*
X399704Y290553D01*
X401929Y290553D01*
X403983Y289702D01*
X405556Y288129D01*
X406407Y286074D01*
X406407Y283850D01*
X405556Y281795D01*
X403983Y280222D01*
X401929Y279371D01*
X399704Y279371D01*
G37*
%LPD*%
%LPC*%
G36*
X522754Y298437D02*
X522754Y298437D01*
X520699Y299288D01*
X519126Y300861D01*
X518275Y302916D01*
X518275Y305140D01*
X519126Y307195D01*
X520699Y308767D01*
X522754Y309618D01*
X524978Y309618D01*
X527033Y308767D01*
X528606Y307195D01*
X529457Y305140D01*
X529457Y302916D01*
X528606Y300861D01*
X527033Y299288D01*
X524978Y298437D01*
X522754Y298437D01*
G37*
%LPD*%
%LPC*%
G36*
X542491Y259794D02*
X542491Y259794D01*
X540437Y260645D01*
X538864Y262218D01*
X538013Y264273D01*
X538013Y266497D01*
X538864Y268552D01*
X540437Y270125D01*
X542491Y270976D01*
X544716Y270976D01*
X546770Y270125D01*
X548343Y268552D01*
X549194Y266497D01*
X549194Y264273D01*
X548343Y262218D01*
X546770Y260645D01*
X544716Y259794D01*
X542491Y259794D01*
G37*
%LPD*%
%LPC*%
G36*
X502599Y257371D02*
X502599Y257371D01*
X500544Y258222D01*
X498971Y259795D01*
X498120Y261850D01*
X498120Y264074D01*
X498971Y266129D01*
X500544Y267702D01*
X502599Y268553D01*
X504823Y268553D01*
X506878Y267702D01*
X508450Y266129D01*
X509301Y264074D01*
X509301Y261850D01*
X508450Y259795D01*
X506878Y258222D01*
X504823Y257371D01*
X502599Y257371D01*
G37*
%LPD*%
%LPC*%
G36*
X517434Y248735D02*
X517434Y248735D01*
X515379Y249586D01*
X513806Y251159D01*
X512955Y253213D01*
X512955Y255438D01*
X513806Y257492D01*
X515379Y259065D01*
X517434Y259916D01*
X519658Y259916D01*
X521713Y259065D01*
X523286Y257492D01*
X524137Y255438D01*
X524137Y253213D01*
X523286Y251159D01*
X521713Y249586D01*
X519658Y248735D01*
X517434Y248735D01*
G37*
%LPD*%
%LPC*%
G36*
X519622Y317183D02*
X519622Y317183D01*
X517567Y318034D01*
X515995Y319607D01*
X515144Y321662D01*
X515144Y323886D01*
X515995Y325941D01*
X517567Y327513D01*
X519622Y328364D01*
X521846Y328364D01*
X523901Y327513D01*
X525474Y325941D01*
X526325Y323886D01*
X526325Y321662D01*
X525474Y319607D01*
X523901Y318034D01*
X521846Y317183D01*
X519622Y317183D01*
G37*
%LPD*%
%LPC*%
G36*
X604776Y300964D02*
X604776Y300964D01*
X602721Y301815D01*
X601149Y303388D01*
X600298Y305442D01*
X600298Y307667D01*
X601149Y309721D01*
X602721Y311294D01*
X604776Y312145D01*
X607000Y312145D01*
X609055Y311294D01*
X610628Y309721D01*
X611479Y307667D01*
X611479Y305442D01*
X610628Y303388D01*
X609055Y301815D01*
X607000Y300964D01*
X604776Y300964D01*
G37*
%LPD*%
%LPC*%
G36*
X495519Y311327D02*
X495519Y311327D01*
X493465Y312178D01*
X491892Y313751D01*
X491041Y315806D01*
X491041Y318030D01*
X491892Y320085D01*
X493465Y321657D01*
X495519Y322508D01*
X497744Y322508D01*
X499798Y321657D01*
X501371Y320085D01*
X502222Y318030D01*
X502222Y315806D01*
X501371Y313751D01*
X499798Y312178D01*
X497744Y311327D01*
X495519Y311327D01*
G37*
%LPD*%
%LPC*%
G36*
X523186Y193026D02*
X523186Y193026D01*
X521131Y193877D01*
X519558Y195450D01*
X518707Y197505D01*
X518707Y199729D01*
X519558Y201784D01*
X521131Y203357D01*
X523186Y204208D01*
X525410Y204208D01*
X527465Y203357D01*
X529038Y201784D01*
X529889Y199729D01*
X529889Y197505D01*
X529038Y195450D01*
X527465Y193877D01*
X525410Y193026D01*
X523186Y193026D01*
G37*
%LPD*%
%LPC*%
G36*
X390388Y136057D02*
X390388Y136057D01*
X388333Y136908D01*
X386760Y138481D01*
X385909Y140535D01*
X385909Y142760D01*
X386760Y144814D01*
X388333Y146387D01*
X390388Y147238D01*
X392612Y147238D01*
X394667Y146387D01*
X396239Y144814D01*
X397090Y142760D01*
X397090Y140535D01*
X396239Y138481D01*
X394667Y136908D01*
X392612Y136057D01*
X390388Y136057D01*
G37*
%LPD*%
%LPC*%
G36*
X617529Y311695D02*
X617529Y311695D01*
X615474Y312547D01*
X613901Y314119D01*
X613050Y316174D01*
X613050Y318398D01*
X613901Y320453D01*
X615474Y322026D01*
X617529Y322877D01*
X619753Y322877D01*
X621807Y322026D01*
X623380Y320453D01*
X624231Y318398D01*
X624231Y316174D01*
X623380Y314119D01*
X621807Y312547D01*
X619753Y311695D01*
X617529Y311695D01*
G37*
%LPD*%
%LPC*%
G36*
X430120Y133953D02*
X430120Y133953D01*
X428066Y134804D01*
X426493Y136377D01*
X425642Y138431D01*
X425642Y140655D01*
X426493Y142710D01*
X428066Y144283D01*
X430120Y145134D01*
X432345Y145134D01*
X434399Y144283D01*
X435972Y142710D01*
X436823Y140655D01*
X436823Y138431D01*
X435972Y136377D01*
X434399Y134804D01*
X432345Y133953D01*
X430120Y133953D01*
G37*
%LPD*%
%LPC*%
G36*
X515510Y65408D02*
X515510Y65408D01*
X513456Y66259D01*
X511883Y67832D01*
X511032Y69887D01*
X511032Y72111D01*
X511883Y74166D01*
X513456Y75739D01*
X515510Y76590D01*
X517735Y76590D01*
X519789Y75739D01*
X521362Y74166D01*
X522213Y72111D01*
X522213Y69887D01*
X521362Y67832D01*
X519789Y66259D01*
X517735Y65408D01*
X515510Y65408D01*
G37*
%LPD*%
%LPC*%
G36*
X630903Y322272D02*
X630903Y322272D01*
X628848Y323123D01*
X627275Y324696D01*
X626424Y326750D01*
X626424Y328975D01*
X627275Y331029D01*
X628848Y332602D01*
X630903Y333453D01*
X633127Y333453D01*
X635182Y332602D01*
X636755Y331029D01*
X637606Y328975D01*
X637606Y326750D01*
X636755Y324696D01*
X635182Y323123D01*
X633127Y322272D01*
X630903Y322272D01*
G37*
%LPD*%
%LPC*%
G36*
X381440Y318558D02*
X381440Y318558D01*
X379385Y319409D01*
X377812Y320982D01*
X376961Y323037D01*
X376961Y325261D01*
X377812Y327316D01*
X379385Y328889D01*
X381440Y329740D01*
X383664Y329740D01*
X385719Y328889D01*
X387292Y327316D01*
X388143Y325261D01*
X388143Y323037D01*
X387292Y320982D01*
X385719Y319409D01*
X383664Y318558D01*
X381440Y318558D01*
G37*
%LPD*%
%LPC*%
G36*
X409971Y134602D02*
X409971Y134602D01*
X407916Y135453D01*
X406344Y137026D01*
X405493Y139081D01*
X405493Y141305D01*
X406344Y143360D01*
X407916Y144933D01*
X409971Y145784D01*
X412195Y145784D01*
X414250Y144933D01*
X415823Y143360D01*
X416674Y141305D01*
X416674Y139081D01*
X415823Y137026D01*
X414250Y135453D01*
X412195Y134602D01*
X409971Y134602D01*
G37*
%LPD*%
D10*
X496632Y316918D03*
X400817Y284962D03*
X411083Y140193D03*
X450069Y329463D03*
X520734Y322774D03*
X523866Y304028D03*
X391500Y141648D03*
X382552Y324149D03*
X516073Y447515D03*
X503711Y262962D03*
X508033Y341981D03*
X516622Y70999D03*
X524298Y198617D03*
X830633Y318226D03*
X632015Y327862D03*
X826534Y298310D03*
X543604Y265385D03*
X831564Y264162D03*
X417147Y288865D03*
X602083Y223473D03*
X556040Y334611D03*
X559600Y410528D03*
X371222Y442967D03*
X458732Y363949D03*
X462319Y266505D03*
X693016Y401246D03*
X717476Y442700D03*
X345074Y403336D03*
X431233Y139543D03*
X805244Y226305D03*
X805480Y238936D03*
X807213Y250892D03*
X376283Y457197D03*
X546642Y50407D03*
X717876Y433094D03*
X694544Y389641D03*
X568762Y410028D03*
X566471Y335142D03*
X601686Y214850D03*
X430115Y236857D03*
X429902Y245964D03*
X471491Y265887D03*
X426910Y288924D03*
X442749Y363712D03*
X555294Y50334D03*
X834934Y251585D03*
X830329Y241722D03*
X831729Y219617D03*
X618641Y317286D03*
X833418Y289496D03*
X605888Y306554D03*
X833068Y276794D03*
X250444Y86425D03*
X326178Y171997D03*
X345430Y26539D03*
X421296Y29811D03*
X630829Y293643D03*
X831128Y403280D03*
X359488Y489162D03*
X427240Y487757D03*
X308663Y410151D03*
X348417Y207744D03*
X821488Y171093D03*
X725941Y88454D03*
X619565Y490965D03*
X305844Y454224D03*
X439338Y283444D03*
X439059Y272341D03*
X312205Y326492D03*
X456316Y213242D03*
X469599Y212789D03*
X583964Y191290D03*
X598252Y191237D03*
X334354Y335762D03*
X333664Y357936D03*
X444717Y425528D03*
X459411Y425030D03*
X411552Y449776D03*
X410170Y436961D03*
X413311Y427915D03*
X413311Y414598D03*
X459353Y479238D03*
X459039Y499025D03*
X593943Y405330D03*
X583057Y382719D03*
X587543Y353846D03*
X590073Y339888D03*
X765380Y384428D03*
X472628Y121406D03*
X472628Y40096D03*
X629985Y41774D03*
X626629Y108724D03*
X693792Y219074D03*
X723842Y219432D03*
X566927Y475001D03*
X553354Y475540D03*
X541399Y475181D03*
X528320Y475855D03*
X401045Y371837D03*
X344103Y371911D03*
X363625Y394617D03*
X372983Y197581D03*
X369358Y226842D03*
X703886Y219648D03*
X626342Y403189D03*
X335832Y422290D03*
X341653Y432191D03*
X556900Y198799D03*
X441671Y305685D03*
X361502Y139616D03*
X401637Y113916D03*
X381425Y112905D03*
X421921Y113122D03*
X653687Y169244D03*
X870484Y314781D03*
X869586Y302202D03*
X869586Y288874D03*
X868360Y276937D03*
X869977Y264537D03*
X870067Y251328D03*
X870965Y239107D03*
X869258Y226078D03*
X580979Y44987D03*
X579966Y30312D03*
X572818Y54995D03*
X528323Y54891D03*
X528762Y383612D03*
X516081Y383812D03*
X539578Y385868D03*
X569163Y381657D03*
X559794Y370705D03*
X720237Y410992D03*
X719717Y421734D03*
X626549Y390016D03*
X693728Y195533D03*
X703691Y195966D03*
X723798Y195346D03*
X777431Y238444D03*
X777229Y253987D03*
X644640Y169306D03*
X441217Y295247D03*
X491859Y297997D03*
X491618Y288071D03*
X771382Y342870D03*
X771382Y330599D03*
X845863Y219674D03*
X845296Y242497D03*
X846034Y251438D03*
X844419Y264360D03*
X845103Y276777D03*
X845069Y289049D03*
X850482Y298506D03*
X845821Y318172D03*
X349090Y277791D03*
X350929Y268469D03*
X609313Y344024D03*
X518546Y254326D03*
X223063Y157120D03*
X251063Y156773D03*
X210049Y384556D03*
X209026Y371984D03*
X210241Y359150D03*
X207783Y346596D03*
X209594Y333913D03*
X208818Y321488D03*
X209983Y307640D03*
X209465Y295474D03*
X209853Y282920D03*
X209594Y269460D03*
X210112Y258329D03*
X209853Y244611D03*
X210629Y232704D03*
X208818Y219761D03*
X209594Y206301D03*
X208393Y193799D03*
X209078Y182228D03*
X208042Y169286D03*
X207525Y156344D03*
X206749Y143660D03*
X222804Y143142D03*
X182784Y383950D03*
X182511Y372287D03*
X181014Y358509D03*
X182362Y346080D03*
X181763Y333051D03*
X181164Y321221D03*
X180715Y307593D03*
X180994Y295976D03*
X180110Y281994D03*
X180162Y270506D03*
X179330Y257199D03*
X180016Y244914D03*
X178716Y232006D03*
X179756Y219444D03*
X179496Y206449D03*
X179323Y194060D03*
X178716Y181412D03*
X178370Y169110D03*
X178023Y156201D03*
X179781Y144299D03*
X251218Y143518D03*
X222545Y295862D03*
X251270Y295353D03*
X221769Y282402D03*
X252050Y282721D03*
X222286Y321488D03*
X251166Y321551D03*
X222028Y181452D03*
X251166Y181100D03*
X221769Y270754D03*
X251918Y270211D03*
X222286Y257035D03*
X252092Y257130D03*
X222804Y333136D03*
X251686Y333714D03*
X222028Y194653D03*
X251572Y193194D03*
X223580Y245646D03*
X251399Y245001D03*
X222028Y231409D03*
X251225Y232612D03*
X221769Y218726D03*
X251312Y219271D03*
X222804Y206819D03*
X251832Y206795D03*
X222545Y308546D03*
X251166Y308867D03*
X221341Y360016D03*
X251892Y358700D03*
X222286Y346596D03*
X251582Y346501D03*
X222286Y168251D03*
X250855Y168624D03*
X221226Y371972D03*
X251892Y371426D03*
X221642Y384655D03*
X252953Y384713D03*
M02*
