G04 EAGLE Gerber RS-274X export*
G75*
%MOMM*%
%FSLAX34Y34*%
%LPD*%
%INSoldermask Top*%
%IPPOS*%
%AMOC8*
5,1,8,0,0,1.08239X$1,22.5*%
G01*
%ADD10R,1.203200X1.303200*%
%ADD11R,1.503200X1.703200*%
%ADD12R,1.803200X1.503200*%
%ADD13R,1.503200X1.803200*%
%ADD14R,0.803200X1.003200*%
%ADD15R,1.003200X1.403200*%
%ADD16R,1.703200X2.203200*%
%ADD17R,1.303200X1.203200*%
%ADD18R,2.403200X3.003200*%
%ADD19R,0.993200X0.463200*%
%ADD20R,0.463200X0.993200*%
%ADD21R,0.553200X0.703200*%
%ADD22R,1.703200X0.753200*%
%ADD23R,0.753200X1.703200*%
%ADD24R,1.879600X0.939800*%
%ADD25C,1.223200*%
%ADD26R,0.763200X2.233200*%
%ADD27R,2.183200X3.763200*%
%ADD28R,1.372000X3.282000*%
%ADD29R,1.003200X1.003200*%
%ADD30R,1.403200X1.403200*%
%ADD31C,0.813200*%


D10*
X336907Y292110D03*
X319907Y292110D03*
D11*
X404116Y422306D03*
X385116Y422306D03*
X338765Y345860D03*
X357765Y345860D03*
X344297Y422241D03*
X363297Y422241D03*
X403728Y443561D03*
X384728Y443561D03*
D12*
X591246Y219724D03*
X591246Y199724D03*
D13*
X319907Y269026D03*
X339907Y269026D03*
D11*
X562232Y345932D03*
X581232Y345932D03*
X565072Y395694D03*
X584072Y395694D03*
D13*
X468015Y278217D03*
X448015Y278217D03*
D12*
X463489Y242595D03*
X463489Y222595D03*
D14*
X451142Y241483D03*
X437142Y241483D03*
D15*
X583204Y62036D03*
X572204Y62036D03*
X561204Y62036D03*
X550204Y62036D03*
X539204Y62036D03*
X528204Y62036D03*
X517204Y62036D03*
X506204Y62036D03*
D16*
X481504Y40036D03*
X481504Y122036D03*
X620404Y122036D03*
X620404Y40036D03*
D17*
X379996Y331931D03*
X379996Y348931D03*
D10*
X450498Y299260D03*
X467498Y299260D03*
D17*
X535122Y172134D03*
X535122Y189134D03*
X514267Y172386D03*
X514267Y189386D03*
D10*
X726019Y437670D03*
X743019Y437670D03*
D17*
X402292Y331804D03*
X402292Y348804D03*
D10*
X717268Y337180D03*
X734268Y337180D03*
D17*
X540992Y332581D03*
X540992Y349581D03*
X519743Y332523D03*
X519743Y349523D03*
X425470Y313003D03*
X425470Y296003D03*
X450792Y339199D03*
X450792Y356199D03*
X516376Y435560D03*
X516376Y418560D03*
D18*
X382567Y213779D03*
X382567Y261779D03*
D19*
X390741Y372065D03*
X390741Y377065D03*
X390741Y382065D03*
X390741Y387065D03*
X390741Y392065D03*
X390741Y397065D03*
D20*
X383541Y404265D03*
X378541Y404265D03*
X373541Y404265D03*
X368541Y404265D03*
X363541Y404265D03*
X358541Y404265D03*
D19*
X351341Y397065D03*
X351341Y392065D03*
X351341Y387065D03*
X351341Y382065D03*
X351341Y377065D03*
X351341Y372065D03*
D20*
X358541Y364865D03*
X363541Y364865D03*
X368541Y364865D03*
X373541Y364865D03*
X378541Y364865D03*
X383541Y364865D03*
D21*
X553695Y363082D03*
X553695Y379082D03*
X547195Y363082D03*
X547195Y379082D03*
X560195Y379082D03*
X560195Y363082D03*
X540695Y363082D03*
X540695Y379082D03*
D22*
X486195Y278961D03*
X486195Y270961D03*
X486195Y262961D03*
X486195Y254961D03*
X486195Y246961D03*
X486195Y238961D03*
X486195Y230961D03*
X486195Y222961D03*
D23*
X500195Y208961D03*
X508195Y208961D03*
X516195Y208961D03*
X524195Y208961D03*
X532195Y208961D03*
X540195Y208961D03*
X548195Y208961D03*
X556195Y208961D03*
D22*
X570195Y222961D03*
X570195Y230961D03*
X570195Y238961D03*
X570195Y246961D03*
X570195Y254961D03*
X570195Y262961D03*
X570195Y270961D03*
X570195Y278961D03*
D23*
X556195Y292961D03*
X548195Y292961D03*
X540195Y292961D03*
X532195Y292961D03*
X524195Y292961D03*
X516195Y292961D03*
X508195Y292961D03*
X500195Y292961D03*
D24*
X196215Y143510D03*
X233045Y143510D03*
X196215Y156210D03*
X233045Y156210D03*
X196215Y168910D03*
X233045Y168910D03*
X196215Y181610D03*
X233045Y181610D03*
X196215Y194310D03*
X233045Y194310D03*
X196215Y207010D03*
X233045Y207010D03*
X196215Y219710D03*
X233045Y219710D03*
X196215Y232410D03*
X233045Y232410D03*
X196215Y245110D03*
X233045Y245110D03*
X196215Y257810D03*
X233045Y257810D03*
X196215Y270510D03*
X233045Y270510D03*
X196215Y283210D03*
X233045Y283210D03*
X196215Y295910D03*
X233045Y295910D03*
X196215Y308610D03*
X233045Y308610D03*
X196215Y321310D03*
X233045Y321310D03*
X196215Y334010D03*
X233045Y334010D03*
X196215Y346710D03*
X233045Y346710D03*
X196215Y359410D03*
X233045Y359410D03*
X196215Y372110D03*
X233045Y372110D03*
X196215Y384810D03*
X233045Y384810D03*
D25*
X838200Y232410D03*
X838200Y308610D03*
D24*
X819785Y226060D03*
X856615Y226060D03*
X819785Y238760D03*
X856615Y238760D03*
X819785Y251460D03*
X856615Y251460D03*
X819785Y264160D03*
X856615Y264160D03*
X819785Y276860D03*
X856615Y276860D03*
X819785Y289560D03*
X856615Y289560D03*
X819785Y302260D03*
X856615Y302260D03*
X819785Y314960D03*
X856615Y314960D03*
D26*
X733820Y208021D03*
X723820Y208021D03*
X713820Y208021D03*
X703820Y208021D03*
X693820Y208021D03*
D27*
X744420Y167361D03*
X683220Y167361D03*
D26*
X431485Y126397D03*
X421485Y126397D03*
X411485Y126397D03*
X401485Y126397D03*
X391485Y126397D03*
X381485Y126397D03*
X371485Y126397D03*
X361485Y126397D03*
X351485Y126397D03*
X341485Y126397D03*
D27*
X442085Y85747D03*
X330885Y85747D03*
D28*
X687279Y396800D03*
X687279Y358700D03*
X661879Y396800D03*
X661879Y358700D03*
X636479Y396800D03*
X636479Y358700D03*
D17*
X649220Y232554D03*
X649220Y215554D03*
D10*
X715204Y246482D03*
X732204Y246482D03*
X610560Y238941D03*
X593560Y238941D03*
X642625Y250688D03*
X625625Y250688D03*
D29*
X727325Y417825D03*
X742325Y417825D03*
X763606Y336782D03*
X748606Y336782D03*
D30*
X648870Y179959D03*
X648870Y200959D03*
X769333Y246562D03*
X748333Y246562D03*
D31*
X496632Y316918D03*
X400817Y284962D03*
X411083Y140193D03*
X450069Y329463D03*
X520734Y322774D03*
X523866Y304028D03*
X391500Y141648D03*
X382552Y324149D03*
X516073Y447515D03*
X503711Y262962D03*
X508033Y341981D03*
X516622Y70999D03*
X524298Y198617D03*
X830633Y318226D03*
X632015Y327862D03*
X826534Y298310D03*
X543604Y265385D03*
X831564Y264162D03*
X417147Y288865D03*
X602083Y223473D03*
X556040Y334611D03*
X559600Y410528D03*
X371222Y442967D03*
X458732Y363949D03*
X462319Y266505D03*
X693016Y401246D03*
X717476Y442700D03*
X345074Y403336D03*
X431233Y139543D03*
X805244Y226305D03*
X805480Y238936D03*
X807213Y250892D03*
X376283Y457197D03*
X546642Y50407D03*
X717876Y433094D03*
X694544Y389641D03*
X568762Y410028D03*
X566471Y335142D03*
X601686Y214850D03*
X430115Y236857D03*
X429902Y245964D03*
X471491Y265887D03*
X426910Y288924D03*
X442749Y363712D03*
X555294Y50334D03*
X834934Y251585D03*
X830329Y241722D03*
X831729Y219617D03*
X618641Y317286D03*
X833418Y289496D03*
X605888Y306554D03*
X833068Y276794D03*
X250444Y86425D03*
X326178Y171997D03*
X345430Y26539D03*
X421296Y29811D03*
X630829Y293643D03*
X831128Y403280D03*
X359488Y489162D03*
X427240Y487757D03*
X308663Y410151D03*
X348417Y207744D03*
X821488Y171093D03*
X725941Y88454D03*
X619565Y490965D03*
X305844Y454224D03*
X439338Y283444D03*
X439059Y272341D03*
X312205Y326492D03*
X456316Y213242D03*
X469599Y212789D03*
X583964Y191290D03*
X598252Y191237D03*
X334354Y335762D03*
X333664Y357936D03*
X444717Y425528D03*
X459411Y425030D03*
X411552Y449776D03*
X410170Y436961D03*
X413311Y427915D03*
X413311Y414598D03*
X459353Y479238D03*
X459039Y499025D03*
X593943Y405330D03*
X583057Y382719D03*
X587543Y353846D03*
X590073Y339888D03*
X765380Y384428D03*
X472628Y121406D03*
X472628Y40096D03*
X629985Y41774D03*
X626629Y108724D03*
X693792Y219074D03*
X723842Y219432D03*
X566927Y475001D03*
X553354Y475540D03*
X541399Y475181D03*
X528320Y475855D03*
X401045Y371837D03*
X344103Y371911D03*
X363625Y394617D03*
X372983Y197581D03*
X369358Y226842D03*
X703886Y219648D03*
X626342Y403189D03*
X335832Y422290D03*
X341653Y432191D03*
X556900Y198799D03*
X441671Y305685D03*
X361502Y139616D03*
X401637Y113916D03*
X381425Y112905D03*
X421921Y113122D03*
X653687Y169244D03*
X870484Y314781D03*
X869586Y302202D03*
X869586Y288874D03*
X868360Y276937D03*
X869977Y264537D03*
X870067Y251328D03*
X870965Y239107D03*
X869258Y226078D03*
X580979Y44987D03*
X579966Y30312D03*
X572818Y54995D03*
X528323Y54891D03*
X528762Y383612D03*
X516081Y383812D03*
X539578Y385868D03*
X569163Y381657D03*
X559794Y370705D03*
X720237Y410992D03*
X719717Y421734D03*
X626549Y390016D03*
X693728Y195533D03*
X703691Y195966D03*
X723798Y195346D03*
X777431Y238444D03*
X777229Y253987D03*
X644640Y169306D03*
X441217Y295247D03*
X491859Y297997D03*
X491618Y288071D03*
X771382Y342870D03*
X771382Y330599D03*
X845863Y219674D03*
X845296Y242497D03*
X846034Y251438D03*
X844419Y264360D03*
X845103Y276777D03*
X845069Y289049D03*
X850482Y298506D03*
X845821Y318172D03*
X349090Y277791D03*
X350929Y268469D03*
X609313Y344024D03*
X518546Y254326D03*
X223063Y157120D03*
X251063Y156773D03*
X210049Y384556D03*
X209026Y371984D03*
X210241Y359150D03*
X207783Y346596D03*
X209594Y333913D03*
X208818Y321488D03*
X209983Y307640D03*
X209465Y295474D03*
X209853Y282920D03*
X209594Y269460D03*
X210112Y258329D03*
X209853Y244611D03*
X210629Y232704D03*
X208818Y219761D03*
X209594Y206301D03*
X208393Y193799D03*
X209078Y182228D03*
X208042Y169286D03*
X207525Y156344D03*
X206749Y143660D03*
X222804Y143142D03*
X182784Y383950D03*
X182511Y372287D03*
X181014Y358509D03*
X182362Y346080D03*
X181763Y333051D03*
X181164Y321221D03*
X180715Y307593D03*
X180994Y295976D03*
X180110Y281994D03*
X180162Y270506D03*
X179330Y257199D03*
X180016Y244914D03*
X178716Y232006D03*
X179756Y219444D03*
X179496Y206449D03*
X179323Y194060D03*
X178716Y181412D03*
X178370Y169110D03*
X178023Y156201D03*
X179781Y144299D03*
X251218Y143518D03*
X222545Y295862D03*
X251270Y295353D03*
X221769Y282402D03*
X252050Y282721D03*
X222286Y321488D03*
X251166Y321551D03*
X222028Y181452D03*
X251166Y181100D03*
X221769Y270754D03*
X251918Y270211D03*
X222286Y257035D03*
X252092Y257130D03*
X222804Y333136D03*
X251686Y333714D03*
X222028Y194653D03*
X251572Y193194D03*
X223580Y245646D03*
X251399Y245001D03*
X222028Y231409D03*
X251225Y232612D03*
X221769Y218726D03*
X251312Y219271D03*
X222804Y206819D03*
X251832Y206795D03*
X222545Y308546D03*
X251166Y308867D03*
X221341Y360016D03*
X251892Y358700D03*
X222286Y346596D03*
X251582Y346501D03*
X222286Y168251D03*
X250855Y168624D03*
X221226Y371972D03*
X251892Y371426D03*
X221642Y384655D03*
X252953Y384713D03*
M02*
