G04 EAGLE Gerber RS-274X export*
G75*
%MOMM*%
%FSLAX34Y34*%
%LPD*%
%INSoldermask Bottom*%
%IPPOS*%
%AMOC8*
5,1,8,0,0,1.08239X$1,22.5*%
G01*
%ADD10R,1.503200X1.703200*%
%ADD11R,1.703200X1.503200*%
%ADD12R,1.303200X1.203200*%
%ADD13C,0.349006*%
%ADD14R,2.993200X0.943200*%
%ADD15C,1.223200*%
%ADD16C,0.813200*%


D10*
X551182Y38028D03*
X570182Y38028D03*
X486671Y489624D03*
X467671Y489624D03*
D11*
X451596Y398745D03*
X451596Y417745D03*
D12*
X516515Y83290D03*
X516515Y100290D03*
X494253Y350109D03*
X494253Y333109D03*
X472689Y349838D03*
X472689Y332838D03*
D13*
X475762Y454284D02*
X475762Y473326D01*
X480204Y473326D01*
X480204Y454284D01*
X475762Y454284D01*
X475762Y457599D02*
X480204Y457599D01*
X480204Y460914D02*
X475762Y460914D01*
X475762Y464229D02*
X480204Y464229D01*
X480204Y467544D02*
X475762Y467544D01*
X475762Y470859D02*
X480204Y470859D01*
X488462Y473326D02*
X488462Y454284D01*
X488462Y473326D02*
X492904Y473326D01*
X492904Y454284D01*
X488462Y454284D01*
X488462Y457599D02*
X492904Y457599D01*
X492904Y460914D02*
X488462Y460914D01*
X488462Y464229D02*
X492904Y464229D01*
X492904Y467544D02*
X488462Y467544D01*
X488462Y470859D02*
X492904Y470859D01*
X501162Y473326D02*
X501162Y454284D01*
X501162Y473326D02*
X505604Y473326D01*
X505604Y454284D01*
X501162Y454284D01*
X501162Y457599D02*
X505604Y457599D01*
X505604Y460914D02*
X501162Y460914D01*
X501162Y464229D02*
X505604Y464229D01*
X505604Y467544D02*
X501162Y467544D01*
X501162Y470859D02*
X505604Y470859D01*
X513862Y473326D02*
X513862Y454284D01*
X513862Y473326D02*
X518304Y473326D01*
X518304Y454284D01*
X513862Y454284D01*
X513862Y457599D02*
X518304Y457599D01*
X518304Y460914D02*
X513862Y460914D01*
X513862Y464229D02*
X518304Y464229D01*
X518304Y467544D02*
X513862Y467544D01*
X513862Y470859D02*
X518304Y470859D01*
X526562Y473326D02*
X526562Y454284D01*
X526562Y473326D02*
X531004Y473326D01*
X531004Y454284D01*
X526562Y454284D01*
X526562Y457599D02*
X531004Y457599D01*
X531004Y460914D02*
X526562Y460914D01*
X526562Y464229D02*
X531004Y464229D01*
X531004Y467544D02*
X526562Y467544D01*
X526562Y470859D02*
X531004Y470859D01*
X539262Y473326D02*
X539262Y454284D01*
X539262Y473326D02*
X543704Y473326D01*
X543704Y454284D01*
X539262Y454284D01*
X539262Y457599D02*
X543704Y457599D01*
X543704Y460914D02*
X539262Y460914D01*
X539262Y464229D02*
X543704Y464229D01*
X543704Y467544D02*
X539262Y467544D01*
X539262Y470859D02*
X543704Y470859D01*
X551962Y473326D02*
X551962Y454284D01*
X551962Y473326D02*
X556404Y473326D01*
X556404Y454284D01*
X551962Y454284D01*
X551962Y457599D02*
X556404Y457599D01*
X556404Y460914D02*
X551962Y460914D01*
X551962Y464229D02*
X556404Y464229D01*
X556404Y467544D02*
X551962Y467544D01*
X551962Y470859D02*
X556404Y470859D01*
X564662Y473326D02*
X564662Y454284D01*
X564662Y473326D02*
X569104Y473326D01*
X569104Y454284D01*
X564662Y454284D01*
X564662Y457599D02*
X569104Y457599D01*
X569104Y460914D02*
X564662Y460914D01*
X564662Y464229D02*
X569104Y464229D01*
X569104Y467544D02*
X564662Y467544D01*
X564662Y470859D02*
X569104Y470859D01*
X564662Y380226D02*
X564662Y361184D01*
X564662Y380226D02*
X569104Y380226D01*
X569104Y361184D01*
X564662Y361184D01*
X564662Y364499D02*
X569104Y364499D01*
X569104Y367814D02*
X564662Y367814D01*
X564662Y371129D02*
X569104Y371129D01*
X569104Y374444D02*
X564662Y374444D01*
X564662Y377759D02*
X569104Y377759D01*
X551962Y380226D02*
X551962Y361184D01*
X551962Y380226D02*
X556404Y380226D01*
X556404Y361184D01*
X551962Y361184D01*
X551962Y364499D02*
X556404Y364499D01*
X556404Y367814D02*
X551962Y367814D01*
X551962Y371129D02*
X556404Y371129D01*
X556404Y374444D02*
X551962Y374444D01*
X551962Y377759D02*
X556404Y377759D01*
X539262Y380226D02*
X539262Y361184D01*
X539262Y380226D02*
X543704Y380226D01*
X543704Y361184D01*
X539262Y361184D01*
X539262Y364499D02*
X543704Y364499D01*
X543704Y367814D02*
X539262Y367814D01*
X539262Y371129D02*
X543704Y371129D01*
X543704Y374444D02*
X539262Y374444D01*
X539262Y377759D02*
X543704Y377759D01*
X526562Y380226D02*
X526562Y361184D01*
X526562Y380226D02*
X531004Y380226D01*
X531004Y361184D01*
X526562Y361184D01*
X526562Y364499D02*
X531004Y364499D01*
X531004Y367814D02*
X526562Y367814D01*
X526562Y371129D02*
X531004Y371129D01*
X531004Y374444D02*
X526562Y374444D01*
X526562Y377759D02*
X531004Y377759D01*
X513862Y380226D02*
X513862Y361184D01*
X513862Y380226D02*
X518304Y380226D01*
X518304Y361184D01*
X513862Y361184D01*
X513862Y364499D02*
X518304Y364499D01*
X518304Y367814D02*
X513862Y367814D01*
X513862Y371129D02*
X518304Y371129D01*
X518304Y374444D02*
X513862Y374444D01*
X513862Y377759D02*
X518304Y377759D01*
X501162Y380226D02*
X501162Y361184D01*
X501162Y380226D02*
X505604Y380226D01*
X505604Y361184D01*
X501162Y361184D01*
X501162Y364499D02*
X505604Y364499D01*
X505604Y367814D02*
X501162Y367814D01*
X501162Y371129D02*
X505604Y371129D01*
X505604Y374444D02*
X501162Y374444D01*
X501162Y377759D02*
X505604Y377759D01*
X488462Y380226D02*
X488462Y361184D01*
X488462Y380226D02*
X492904Y380226D01*
X492904Y361184D01*
X488462Y361184D01*
X488462Y364499D02*
X492904Y364499D01*
X492904Y367814D02*
X488462Y367814D01*
X488462Y371129D02*
X492904Y371129D01*
X492904Y374444D02*
X488462Y374444D01*
X488462Y377759D02*
X492904Y377759D01*
X475762Y380226D02*
X475762Y361184D01*
X475762Y380226D02*
X480204Y380226D01*
X480204Y361184D01*
X475762Y361184D01*
X475762Y364499D02*
X480204Y364499D01*
X480204Y367814D02*
X475762Y367814D01*
X475762Y371129D02*
X480204Y371129D01*
X480204Y374444D02*
X475762Y374444D01*
X475762Y377759D02*
X480204Y377759D01*
D14*
X194280Y143510D03*
X234980Y143510D03*
X194280Y156210D03*
X234980Y156210D03*
X194280Y168910D03*
X234980Y168910D03*
X194280Y181610D03*
X234980Y181610D03*
X194280Y194310D03*
X234980Y194310D03*
X194280Y207010D03*
X234980Y207010D03*
X194280Y219710D03*
X234980Y219710D03*
X194280Y232410D03*
X234980Y232410D03*
X194280Y245110D03*
X234980Y245110D03*
X194280Y257810D03*
X234980Y257810D03*
X194280Y270510D03*
X234980Y270510D03*
X194280Y283210D03*
X234980Y283210D03*
X194280Y295910D03*
X234980Y295910D03*
X194280Y308610D03*
X234980Y308610D03*
X194280Y321310D03*
X234980Y321310D03*
X194280Y334010D03*
X234980Y334010D03*
X194280Y346710D03*
X234980Y346710D03*
X194280Y359410D03*
X234980Y359410D03*
X194280Y372110D03*
X234980Y372110D03*
X194280Y384810D03*
X234980Y384810D03*
X817850Y226060D03*
X858550Y226060D03*
X817850Y238760D03*
X858550Y238760D03*
X817850Y251460D03*
X858550Y251460D03*
X817850Y264160D03*
X858550Y264160D03*
X817850Y276860D03*
X858550Y276860D03*
X817850Y289560D03*
X858550Y289560D03*
X817850Y302260D03*
X858550Y302260D03*
X817850Y314960D03*
X858550Y314960D03*
D15*
X838200Y232410D03*
X838200Y308610D03*
D12*
X592422Y263617D03*
X592422Y280617D03*
D16*
X496632Y316918D03*
X400817Y284962D03*
X411083Y140193D03*
X450069Y329463D03*
X520734Y322774D03*
X523866Y304028D03*
X391500Y141648D03*
X382552Y324149D03*
X516073Y447515D03*
X503711Y262962D03*
X508033Y341981D03*
X516622Y70999D03*
X524298Y198617D03*
X830633Y318226D03*
X632015Y327862D03*
X826534Y298310D03*
X543604Y265385D03*
X831564Y264162D03*
X417147Y288865D03*
X602083Y223473D03*
X556040Y334611D03*
X559600Y410528D03*
X371222Y442967D03*
X458732Y363949D03*
X462319Y266505D03*
X693016Y401246D03*
X717476Y442700D03*
X345074Y403336D03*
X431233Y139543D03*
X805244Y226305D03*
X805480Y238936D03*
X807213Y250892D03*
X376283Y457197D03*
X546642Y50407D03*
X717876Y433094D03*
X694544Y389641D03*
X568762Y410028D03*
X566471Y335142D03*
X601686Y214850D03*
X430115Y236857D03*
X429902Y245964D03*
X471491Y265887D03*
X426910Y288924D03*
X442749Y363712D03*
X555294Y50334D03*
X834934Y251585D03*
X830329Y241722D03*
X831729Y219617D03*
X618641Y317286D03*
X833418Y289496D03*
X605888Y306554D03*
X833068Y276794D03*
X250444Y86425D03*
X326178Y171997D03*
X345430Y26539D03*
X421296Y29811D03*
X630829Y293643D03*
X831128Y403280D03*
X359488Y489162D03*
X427240Y487757D03*
X308663Y410151D03*
X348417Y207744D03*
X821488Y171093D03*
X725941Y88454D03*
X619565Y490965D03*
X305844Y454224D03*
X439338Y283444D03*
X439059Y272341D03*
X312205Y326492D03*
X456316Y213242D03*
X469599Y212789D03*
X583964Y191290D03*
X598252Y191237D03*
X334354Y335762D03*
X333664Y357936D03*
X444717Y425528D03*
X459411Y425030D03*
X411552Y449776D03*
X410170Y436961D03*
X413311Y427915D03*
X413311Y414598D03*
X459353Y479238D03*
X459039Y499025D03*
X593943Y405330D03*
X583057Y382719D03*
X587543Y353846D03*
X590073Y339888D03*
X765380Y384428D03*
X472628Y121406D03*
X472628Y40096D03*
X629985Y41774D03*
X626629Y108724D03*
X693792Y219074D03*
X723842Y219432D03*
X566927Y475001D03*
X553354Y475540D03*
X541399Y475181D03*
X528320Y475855D03*
X401045Y371837D03*
X344103Y371911D03*
X363625Y394617D03*
X372983Y197581D03*
X369358Y226842D03*
X703886Y219648D03*
X626342Y403189D03*
X335832Y422290D03*
X341653Y432191D03*
X556900Y198799D03*
X441671Y305685D03*
X361502Y139616D03*
X401637Y113916D03*
X381425Y112905D03*
X421921Y113122D03*
X653687Y169244D03*
X870484Y314781D03*
X869586Y302202D03*
X869586Y288874D03*
X868360Y276937D03*
X869977Y264537D03*
X870067Y251328D03*
X870965Y239107D03*
X869258Y226078D03*
X580979Y44987D03*
X579966Y30312D03*
X572818Y54995D03*
X528323Y54891D03*
X528762Y383612D03*
X516081Y383812D03*
X539578Y385868D03*
X569163Y381657D03*
X559794Y370705D03*
X720237Y410992D03*
X719717Y421734D03*
X626549Y390016D03*
X693728Y195533D03*
X703691Y195966D03*
X723798Y195346D03*
X777431Y238444D03*
X777229Y253987D03*
X644640Y169306D03*
X441217Y295247D03*
X491859Y297997D03*
X491618Y288071D03*
X771382Y342870D03*
X771382Y330599D03*
X845863Y219674D03*
X845296Y242497D03*
X846034Y251438D03*
X844419Y264360D03*
X845103Y276777D03*
X845069Y289049D03*
X850482Y298506D03*
X845821Y318172D03*
X349090Y277791D03*
X350929Y268469D03*
X609313Y344024D03*
X518546Y254326D03*
X223063Y157120D03*
X251063Y156773D03*
X210049Y384556D03*
X209026Y371984D03*
X210241Y359150D03*
X207783Y346596D03*
X209594Y333913D03*
X208818Y321488D03*
X209983Y307640D03*
X209465Y295474D03*
X209853Y282920D03*
X209594Y269460D03*
X210112Y258329D03*
X209853Y244611D03*
X210629Y232704D03*
X208818Y219761D03*
X209594Y206301D03*
X208393Y193799D03*
X209078Y182228D03*
X208042Y169286D03*
X207525Y156344D03*
X206749Y143660D03*
X222804Y143142D03*
X182784Y383950D03*
X182511Y372287D03*
X181014Y358509D03*
X182362Y346080D03*
X181763Y333051D03*
X181164Y321221D03*
X180715Y307593D03*
X180994Y295976D03*
X180110Y281994D03*
X180162Y270506D03*
X179330Y257199D03*
X180016Y244914D03*
X178716Y232006D03*
X179756Y219444D03*
X179496Y206449D03*
X179323Y194060D03*
X178716Y181412D03*
X178370Y169110D03*
X178023Y156201D03*
X179781Y144299D03*
X251218Y143518D03*
X222545Y295862D03*
X251270Y295353D03*
X221769Y282402D03*
X252050Y282721D03*
X222286Y321488D03*
X251166Y321551D03*
X222028Y181452D03*
X251166Y181100D03*
X221769Y270754D03*
X251918Y270211D03*
X222286Y257035D03*
X252092Y257130D03*
X222804Y333136D03*
X251686Y333714D03*
X222028Y194653D03*
X251572Y193194D03*
X223580Y245646D03*
X251399Y245001D03*
X222028Y231409D03*
X251225Y232612D03*
X221769Y218726D03*
X251312Y219271D03*
X222804Y206819D03*
X251832Y206795D03*
X222545Y308546D03*
X251166Y308867D03*
X221341Y360016D03*
X251892Y358700D03*
X222286Y346596D03*
X251582Y346501D03*
X222286Y168251D03*
X250855Y168624D03*
X221226Y371972D03*
X251892Y371426D03*
X221642Y384655D03*
X252953Y384713D03*
M02*
