G04 EAGLE Gerber RS-274X export*
G75*
%MOMM*%
%FSLAX34Y34*%
%LPD*%
%INTop Copper*%
%IPPOS*%
%AMOC8*
5,1,8,0,0,1.08239X$1,22.5*%
G01*
%ADD10R,0.560000X2.030000*%
%ADD11R,1.980000X3.560000*%
%ADD12C,1.616000*%
%ADD13R,1.475000X0.450000*%
%ADD14R,1.300000X1.500000*%
%ADD15R,1.100000X1.000000*%
%ADD16R,1.000000X1.100000*%
%ADD17R,1.300000X1.600000*%
%ADD18C,0.100000*%
%ADD19R,1.600000X1.300000*%
%ADD20C,0.200000*%
%ADD21C,0.610000*%
%ADD22C,0.400000*%

G36*
X424684Y4010D02*
X424684Y4010D01*
X424748Y4009D01*
X424823Y4030D01*
X424899Y4041D01*
X424958Y4067D01*
X425020Y4084D01*
X425086Y4125D01*
X425156Y4157D01*
X425205Y4199D01*
X425260Y4232D01*
X425312Y4290D01*
X425370Y4340D01*
X425406Y4394D01*
X425449Y4442D01*
X425482Y4511D01*
X425525Y4576D01*
X425544Y4638D01*
X425572Y4695D01*
X425583Y4765D01*
X425607Y4846D01*
X425608Y4931D01*
X425619Y5000D01*
X425619Y417000D01*
X425610Y417064D01*
X425611Y417128D01*
X425590Y417203D01*
X425579Y417279D01*
X425553Y417338D01*
X425536Y417400D01*
X425495Y417466D01*
X425463Y417536D01*
X425421Y417585D01*
X425388Y417640D01*
X425330Y417692D01*
X425280Y417750D01*
X425226Y417786D01*
X425178Y417829D01*
X425109Y417862D01*
X425044Y417905D01*
X424982Y417924D01*
X424925Y417952D01*
X424855Y417963D01*
X424774Y417987D01*
X424689Y417988D01*
X424620Y417999D01*
X5000Y417999D01*
X4936Y417990D01*
X4872Y417991D01*
X4797Y417970D01*
X4721Y417959D01*
X4662Y417933D01*
X4600Y417916D01*
X4534Y417875D01*
X4464Y417843D01*
X4415Y417801D01*
X4360Y417768D01*
X4308Y417710D01*
X4250Y417660D01*
X4214Y417606D01*
X4171Y417558D01*
X4138Y417489D01*
X4095Y417424D01*
X4076Y417362D01*
X4048Y417305D01*
X4037Y417235D01*
X4013Y417154D01*
X4012Y417069D01*
X4001Y417000D01*
X4001Y5000D01*
X4010Y4936D01*
X4009Y4872D01*
X4030Y4797D01*
X4041Y4721D01*
X4067Y4662D01*
X4084Y4600D01*
X4125Y4534D01*
X4157Y4464D01*
X4199Y4415D01*
X4232Y4360D01*
X4290Y4308D01*
X4340Y4250D01*
X4394Y4214D01*
X4442Y4171D01*
X4511Y4138D01*
X4576Y4095D01*
X4638Y4076D01*
X4695Y4048D01*
X4765Y4037D01*
X4846Y4013D01*
X4931Y4012D01*
X5000Y4001D01*
X424620Y4001D01*
X424684Y4010D01*
G37*
%LPC*%
G36*
X224489Y7239D02*
X224489Y7239D01*
X220784Y8774D01*
X217948Y11610D01*
X216413Y15315D01*
X216413Y35485D01*
X217948Y39190D01*
X220784Y42026D01*
X223606Y43195D01*
X223615Y43200D01*
X223624Y43203D01*
X223736Y43272D01*
X223849Y43339D01*
X223856Y43346D01*
X223864Y43351D01*
X223952Y43449D01*
X224042Y43545D01*
X224046Y43553D01*
X224053Y43560D01*
X224110Y43678D01*
X224170Y43796D01*
X224172Y43805D01*
X224176Y43814D01*
X224188Y43890D01*
X224222Y44073D01*
X224220Y44097D01*
X224223Y44118D01*
X224223Y58982D01*
X246963Y81722D01*
X310900Y81722D01*
X310995Y81735D01*
X311091Y81740D01*
X311134Y81755D01*
X311179Y81762D01*
X311266Y81801D01*
X311357Y81833D01*
X311392Y81858D01*
X311436Y81878D01*
X311533Y81961D01*
X311606Y82015D01*
X326186Y96594D01*
X326244Y96671D01*
X326308Y96743D01*
X326328Y96783D01*
X326355Y96820D01*
X326389Y96910D01*
X326431Y96996D01*
X326438Y97038D01*
X326455Y97084D01*
X326465Y97211D01*
X326479Y97301D01*
X326479Y113777D01*
X326470Y113841D01*
X326470Y113905D01*
X326450Y113980D01*
X326439Y114057D01*
X326412Y114115D01*
X326395Y114177D01*
X326354Y114243D01*
X326323Y114314D01*
X326281Y114362D01*
X326247Y114417D01*
X326190Y114469D01*
X326139Y114528D01*
X326085Y114563D01*
X326038Y114606D01*
X325968Y114640D01*
X325903Y114682D01*
X325842Y114701D01*
X325784Y114729D01*
X325715Y114740D01*
X325633Y114765D01*
X325549Y114766D01*
X325479Y114777D01*
X324114Y114777D01*
X322942Y115949D01*
X322942Y137906D01*
X324114Y139078D01*
X324473Y139078D01*
X324536Y139087D01*
X324600Y139086D01*
X324675Y139107D01*
X324752Y139118D01*
X324810Y139144D01*
X324872Y139162D01*
X324938Y139202D01*
X325009Y139234D01*
X325057Y139276D01*
X325112Y139310D01*
X325164Y139367D01*
X325223Y139418D01*
X325258Y139471D01*
X325301Y139519D01*
X325335Y139589D01*
X325377Y139653D01*
X325396Y139715D01*
X325424Y139773D01*
X325435Y139842D01*
X325460Y139923D01*
X325461Y140008D01*
X325472Y140077D01*
X325472Y184743D01*
X325458Y184838D01*
X325453Y184934D01*
X325438Y184977D01*
X325432Y185022D01*
X325392Y185110D01*
X325361Y185201D01*
X325336Y185235D01*
X325316Y185279D01*
X325232Y185377D01*
X325179Y185450D01*
X310543Y200086D01*
X310466Y200144D01*
X310395Y200208D01*
X310354Y200228D01*
X310317Y200255D01*
X310227Y200289D01*
X310141Y200331D01*
X310099Y200338D01*
X310053Y200355D01*
X309926Y200365D01*
X309836Y200379D01*
X300132Y200379D01*
X298960Y201551D01*
X298960Y213208D01*
X300132Y214380D01*
X312789Y214380D01*
X313961Y213208D01*
X313961Y203504D01*
X313975Y203409D01*
X313980Y203313D01*
X313995Y203270D01*
X314001Y203225D01*
X314041Y203137D01*
X314072Y203046D01*
X314097Y203012D01*
X314117Y202968D01*
X314201Y202870D01*
X314254Y202797D01*
X330013Y187038D01*
X330013Y140077D01*
X330022Y140014D01*
X330021Y139949D01*
X330042Y139875D01*
X330053Y139798D01*
X330079Y139740D01*
X330097Y139678D01*
X330137Y139612D01*
X330169Y139541D01*
X330211Y139492D01*
X330245Y139438D01*
X330302Y139386D01*
X330353Y139327D01*
X330406Y139292D01*
X330454Y139249D01*
X330524Y139215D01*
X330589Y139172D01*
X330650Y139154D01*
X330708Y139126D01*
X330777Y139115D01*
X330858Y139090D01*
X330943Y139089D01*
X331012Y139078D01*
X331371Y139078D01*
X332543Y137906D01*
X332543Y115949D01*
X331313Y114718D01*
X331255Y114641D01*
X331191Y114570D01*
X331171Y114529D01*
X331143Y114493D01*
X331109Y114403D01*
X331068Y114316D01*
X331061Y114274D01*
X331044Y114229D01*
X331034Y114101D01*
X331020Y114012D01*
X331020Y95006D01*
X313195Y77180D01*
X261385Y77180D01*
X261299Y77168D01*
X261213Y77165D01*
X261160Y77148D01*
X261106Y77141D01*
X261027Y77105D01*
X260944Y77078D01*
X260899Y77047D01*
X260849Y77024D01*
X260783Y76968D01*
X260711Y76919D01*
X260677Y76877D01*
X260635Y76841D01*
X260587Y76768D01*
X260532Y76701D01*
X260510Y76651D01*
X260480Y76605D01*
X260455Y76522D01*
X260421Y76442D01*
X260414Y76388D01*
X260398Y76335D01*
X260397Y76249D01*
X260386Y76162D01*
X260395Y76108D01*
X260394Y76053D01*
X260417Y75970D01*
X260431Y75884D01*
X260455Y75834D01*
X260469Y75782D01*
X260515Y75708D01*
X260552Y75629D01*
X260589Y75588D01*
X260618Y75542D01*
X260682Y75483D01*
X260740Y75418D01*
X260783Y75392D01*
X260827Y75353D01*
X260929Y75303D01*
X261003Y75258D01*
X262673Y74566D01*
X264036Y73203D01*
X264113Y73145D01*
X264184Y73081D01*
X264225Y73061D01*
X264262Y73034D01*
X264352Y73000D01*
X264438Y72958D01*
X264480Y72951D01*
X264525Y72934D01*
X264653Y72924D01*
X264743Y72910D01*
X321746Y72910D01*
X321841Y72924D01*
X321937Y72929D01*
X321980Y72944D01*
X322025Y72950D01*
X322113Y72990D01*
X322204Y73021D01*
X322238Y73046D01*
X322282Y73066D01*
X322379Y73150D01*
X322453Y73203D01*
X345179Y95930D01*
X345237Y96006D01*
X345301Y96078D01*
X345321Y96119D01*
X345348Y96155D01*
X345382Y96245D01*
X345424Y96332D01*
X345431Y96374D01*
X345448Y96419D01*
X345458Y96547D01*
X345472Y96636D01*
X345472Y113777D01*
X345463Y113841D01*
X345464Y113905D01*
X345443Y113980D01*
X345432Y114057D01*
X345406Y114115D01*
X345388Y114177D01*
X345348Y114243D01*
X345316Y114314D01*
X345274Y114362D01*
X345240Y114417D01*
X345183Y114469D01*
X345132Y114528D01*
X345079Y114563D01*
X345031Y114606D01*
X344961Y114640D01*
X344896Y114682D01*
X344835Y114701D01*
X344777Y114729D01*
X344708Y114740D01*
X344627Y114765D01*
X344542Y114766D01*
X344473Y114777D01*
X344114Y114777D01*
X342942Y115949D01*
X342942Y137906D01*
X344114Y139078D01*
X351371Y139078D01*
X352543Y137906D01*
X352543Y115949D01*
X351371Y114777D01*
X351012Y114777D01*
X350949Y114768D01*
X350885Y114768D01*
X350810Y114748D01*
X350733Y114737D01*
X350675Y114710D01*
X350613Y114693D01*
X350547Y114652D01*
X350476Y114621D01*
X350428Y114579D01*
X350373Y114545D01*
X350321Y114488D01*
X350262Y114437D01*
X350227Y114383D01*
X350184Y114336D01*
X350150Y114266D01*
X350108Y114201D01*
X350089Y114140D01*
X350061Y114082D01*
X350050Y114013D01*
X350025Y113932D01*
X350024Y113847D01*
X350013Y113777D01*
X350013Y94341D01*
X324041Y68369D01*
X265621Y68369D01*
X265611Y68368D01*
X265602Y68369D01*
X265472Y68348D01*
X265342Y68329D01*
X265333Y68325D01*
X265324Y68324D01*
X265204Y68267D01*
X265085Y68213D01*
X265077Y68207D01*
X265069Y68203D01*
X264970Y68115D01*
X264870Y68029D01*
X264865Y68022D01*
X264858Y68015D01*
X264818Y67949D01*
X264716Y67794D01*
X264709Y67770D01*
X264698Y67752D01*
X264245Y66660D01*
X263659Y66074D01*
X263640Y66048D01*
X263615Y66027D01*
X263555Y65936D01*
X263490Y65848D01*
X263479Y65818D01*
X263461Y65791D01*
X263429Y65687D01*
X263390Y65584D01*
X263388Y65552D01*
X263379Y65521D01*
X263377Y65412D01*
X263369Y65303D01*
X263375Y65272D01*
X263375Y65239D01*
X263404Y65134D01*
X263426Y65027D01*
X263441Y64999D01*
X263450Y64968D01*
X263507Y64875D01*
X263559Y64778D01*
X263581Y64755D01*
X263598Y64728D01*
X263679Y64654D01*
X263755Y64576D01*
X263783Y64560D01*
X263807Y64539D01*
X263906Y64491D01*
X264001Y64437D01*
X264032Y64430D01*
X264061Y64416D01*
X264151Y64402D01*
X264275Y64372D01*
X264324Y64375D01*
X264366Y64368D01*
X332578Y64368D01*
X332673Y64382D01*
X332769Y64386D01*
X332812Y64401D01*
X332857Y64408D01*
X332945Y64447D01*
X333036Y64479D01*
X333070Y64504D01*
X333114Y64524D01*
X333211Y64607D01*
X333284Y64661D01*
X365282Y96658D01*
X365339Y96735D01*
X365404Y96806D01*
X365424Y96847D01*
X365451Y96884D01*
X365485Y96974D01*
X365527Y97060D01*
X365534Y97102D01*
X365551Y97148D01*
X365561Y97275D01*
X365575Y97365D01*
X365575Y113777D01*
X365565Y113841D01*
X365566Y113905D01*
X365546Y113980D01*
X365535Y114057D01*
X365508Y114115D01*
X365491Y114177D01*
X365450Y114243D01*
X365419Y114314D01*
X365377Y114362D01*
X365343Y114417D01*
X365285Y114469D01*
X365235Y114528D01*
X365181Y114563D01*
X365134Y114606D01*
X365064Y114640D01*
X364999Y114682D01*
X364938Y114701D01*
X364880Y114729D01*
X364810Y114740D01*
X364729Y114765D01*
X364645Y114766D01*
X364575Y114777D01*
X364114Y114777D01*
X362942Y115949D01*
X362942Y137906D01*
X364114Y139078D01*
X371371Y139078D01*
X372036Y138413D01*
X372087Y138375D01*
X372132Y138329D01*
X372200Y138291D01*
X372261Y138244D01*
X372322Y138221D01*
X372378Y138190D01*
X372453Y138172D01*
X372525Y138145D01*
X372589Y138140D01*
X372652Y138125D01*
X372729Y138129D01*
X372807Y138123D01*
X372869Y138136D01*
X372934Y138139D01*
X373007Y138165D01*
X373083Y138180D01*
X373139Y138211D01*
X373200Y138232D01*
X373257Y138273D01*
X373332Y138313D01*
X373392Y138372D01*
X373449Y138413D01*
X374114Y139078D01*
X381371Y139078D01*
X382543Y137906D01*
X382543Y115949D01*
X381362Y114768D01*
X381301Y114768D01*
X381226Y114748D01*
X381149Y114737D01*
X381091Y114710D01*
X381029Y114693D01*
X380963Y114652D01*
X380893Y114621D01*
X380844Y114579D01*
X380789Y114545D01*
X380737Y114488D01*
X380678Y114437D01*
X380643Y114383D01*
X380600Y114336D01*
X380566Y114266D01*
X380524Y114201D01*
X380505Y114140D01*
X380477Y114082D01*
X380466Y114013D01*
X380441Y113932D01*
X380440Y113847D01*
X380429Y113777D01*
X380429Y88654D01*
X342182Y50406D01*
X250030Y50406D01*
X250020Y50404D01*
X250011Y50406D01*
X249881Y50385D01*
X249750Y50366D01*
X249742Y50362D01*
X249732Y50361D01*
X249613Y50304D01*
X249493Y50250D01*
X249486Y50244D01*
X249478Y50240D01*
X249379Y50152D01*
X249279Y50066D01*
X249274Y50058D01*
X249267Y50052D01*
X249227Y49987D01*
X249125Y49830D01*
X249118Y49807D01*
X249106Y49789D01*
X248906Y49306D01*
X247334Y47734D01*
X245279Y46883D01*
X243055Y46883D01*
X241000Y47734D01*
X239427Y49306D01*
X238576Y51361D01*
X238576Y53585D01*
X239427Y55640D01*
X241000Y57213D01*
X243055Y58064D01*
X243956Y58064D01*
X244074Y58081D01*
X244192Y58092D01*
X244213Y58101D01*
X244236Y58104D01*
X244344Y58153D01*
X244454Y58197D01*
X244472Y58211D01*
X244493Y58220D01*
X244583Y58297D01*
X244676Y58370D01*
X244690Y58389D01*
X244707Y58404D01*
X244772Y58503D01*
X244841Y58599D01*
X244849Y58620D01*
X244861Y58639D01*
X244896Y58753D01*
X244936Y58865D01*
X244937Y58887D01*
X244944Y58909D01*
X244945Y59028D01*
X244952Y59146D01*
X244947Y59167D01*
X244948Y59191D01*
X244898Y59371D01*
X244880Y59446D01*
X244242Y60985D01*
X244242Y63209D01*
X245093Y65264D01*
X246666Y66837D01*
X248721Y67688D01*
X250945Y67688D01*
X252815Y66913D01*
X252846Y66905D01*
X252875Y66891D01*
X252982Y66871D01*
X253088Y66843D01*
X253120Y66844D01*
X253152Y66838D01*
X253261Y66849D01*
X253370Y66852D01*
X253400Y66862D01*
X253433Y66866D01*
X253534Y66906D01*
X253638Y66940D01*
X253665Y66958D01*
X253695Y66970D01*
X253781Y67037D01*
X253871Y67099D01*
X253891Y67124D01*
X253917Y67144D01*
X253981Y67232D01*
X254050Y67316D01*
X254063Y67346D01*
X254082Y67372D01*
X254119Y67475D01*
X254162Y67576D01*
X254166Y67608D01*
X254176Y67638D01*
X254183Y67747D01*
X254196Y67855D01*
X254191Y67887D01*
X254193Y67920D01*
X254172Y68008D01*
X254151Y68134D01*
X254130Y68178D01*
X254120Y68219D01*
X253915Y68715D01*
X253915Y70939D01*
X254766Y72994D01*
X256339Y74566D01*
X258009Y75258D01*
X258083Y75302D01*
X258162Y75338D01*
X258204Y75374D01*
X258251Y75402D01*
X258311Y75465D01*
X258377Y75521D01*
X258407Y75567D01*
X258444Y75607D01*
X258484Y75685D01*
X258531Y75757D01*
X258547Y75810D01*
X258572Y75859D01*
X258588Y75944D01*
X258613Y76027D01*
X258614Y76082D01*
X258624Y76136D01*
X258616Y76222D01*
X258617Y76309D01*
X258603Y76362D01*
X258597Y76417D01*
X258565Y76497D01*
X258542Y76581D01*
X258513Y76628D01*
X258493Y76679D01*
X258439Y76747D01*
X258394Y76821D01*
X258353Y76858D01*
X258319Y76901D01*
X258249Y76952D01*
X258185Y77010D01*
X258135Y77034D01*
X258091Y77066D01*
X258009Y77095D01*
X257931Y77133D01*
X257880Y77141D01*
X257825Y77160D01*
X257711Y77167D01*
X257626Y77180D01*
X249258Y77180D01*
X249163Y77167D01*
X249067Y77162D01*
X249024Y77147D01*
X248979Y77141D01*
X248892Y77101D01*
X248801Y77070D01*
X248766Y77044D01*
X248722Y77024D01*
X248625Y76941D01*
X248552Y76888D01*
X229057Y57393D01*
X229000Y57317D01*
X228935Y57245D01*
X228915Y57204D01*
X228888Y57168D01*
X228854Y57078D01*
X228812Y56991D01*
X228806Y56949D01*
X228789Y56904D01*
X228779Y56776D01*
X228765Y56687D01*
X228765Y44118D01*
X228766Y44109D01*
X228765Y44100D01*
X228786Y43970D01*
X228805Y43839D01*
X228808Y43831D01*
X228810Y43821D01*
X228867Y43702D01*
X228921Y43582D01*
X228927Y43575D01*
X228931Y43566D01*
X229019Y43468D01*
X229104Y43368D01*
X229112Y43363D01*
X229118Y43356D01*
X229184Y43316D01*
X229340Y43214D01*
X229363Y43206D01*
X229382Y43195D01*
X232204Y42026D01*
X235040Y39190D01*
X236575Y35485D01*
X236575Y15315D01*
X235040Y11610D01*
X232204Y8774D01*
X228499Y7239D01*
X224489Y7239D01*
G37*
%LPD*%
%LPC*%
G36*
X266375Y203486D02*
X266375Y203486D01*
X264320Y204338D01*
X262747Y205910D01*
X262631Y206190D01*
X262627Y206198D01*
X262624Y206207D01*
X262555Y206320D01*
X262488Y206432D01*
X262481Y206439D01*
X262476Y206447D01*
X262378Y206535D01*
X262282Y206625D01*
X262274Y206630D01*
X262267Y206636D01*
X262148Y206693D01*
X262031Y206753D01*
X262021Y206755D01*
X262013Y206759D01*
X261937Y206771D01*
X261754Y206805D01*
X261730Y206803D01*
X261708Y206806D01*
X206875Y206806D01*
X205252Y208429D01*
X179957Y233724D01*
X178335Y235347D01*
X178335Y275414D01*
X194265Y291345D01*
X194842Y291345D01*
X194874Y291349D01*
X194906Y291347D01*
X195013Y291369D01*
X195121Y291385D01*
X195150Y291398D01*
X195182Y291404D01*
X195278Y291456D01*
X195378Y291501D01*
X195402Y291522D01*
X195431Y291537D01*
X195509Y291613D01*
X195592Y291684D01*
X195610Y291711D01*
X195633Y291734D01*
X195687Y291829D01*
X195747Y291920D01*
X195756Y291951D01*
X195772Y291979D01*
X195797Y292085D01*
X195829Y292190D01*
X195830Y292222D01*
X195837Y292253D01*
X195831Y292363D01*
X195833Y292472D01*
X195824Y292503D01*
X195823Y292535D01*
X195787Y292638D01*
X195758Y292744D01*
X195741Y292771D01*
X195730Y292802D01*
X195677Y292875D01*
X195609Y292984D01*
X195573Y293016D01*
X195548Y293051D01*
X193778Y294821D01*
X193777Y294821D01*
X192988Y295611D01*
X192911Y295668D01*
X192840Y295733D01*
X192799Y295753D01*
X192763Y295780D01*
X192673Y295814D01*
X192586Y295856D01*
X192544Y295862D01*
X192499Y295880D01*
X192371Y295889D01*
X192282Y295903D01*
X190719Y295903D01*
X190655Y295894D01*
X190591Y295895D01*
X190516Y295875D01*
X190440Y295864D01*
X190381Y295837D01*
X190319Y295820D01*
X190253Y295779D01*
X190183Y295747D01*
X190134Y295706D01*
X190079Y295672D01*
X190027Y295614D01*
X189969Y295564D01*
X189933Y295510D01*
X189890Y295463D01*
X189857Y295393D01*
X189814Y295328D01*
X189795Y295267D01*
X189767Y295209D01*
X189757Y295139D01*
X189732Y295058D01*
X189731Y294974D01*
X189720Y294904D01*
X189720Y291845D01*
X188548Y290673D01*
X176890Y290673D01*
X175718Y291845D01*
X175718Y304503D01*
X176890Y305675D01*
X188548Y305675D01*
X189720Y304503D01*
X189720Y301444D01*
X189729Y301381D01*
X189728Y301316D01*
X189749Y301242D01*
X189760Y301165D01*
X189786Y301106D01*
X189803Y301044D01*
X189844Y300978D01*
X189876Y300908D01*
X189918Y300859D01*
X189951Y300804D01*
X190009Y300753D01*
X190059Y300694D01*
X190113Y300658D01*
X190161Y300615D01*
X190230Y300582D01*
X190295Y300539D01*
X190357Y300520D01*
X190414Y300492D01*
X190484Y300482D01*
X190565Y300457D01*
X190650Y300456D01*
X190719Y300445D01*
X194577Y300445D01*
X196989Y298033D01*
X197066Y297975D01*
X197137Y297911D01*
X197178Y297891D01*
X197214Y297863D01*
X197305Y297829D01*
X197391Y297788D01*
X197433Y297781D01*
X197478Y297764D01*
X197606Y297754D01*
X197695Y297740D01*
X204752Y297740D01*
X204816Y297749D01*
X204880Y297748D01*
X204955Y297769D01*
X205031Y297780D01*
X205090Y297806D01*
X205152Y297823D01*
X205218Y297864D01*
X205288Y297896D01*
X205337Y297938D01*
X205392Y297972D01*
X205444Y298029D01*
X205503Y298079D01*
X205538Y298133D01*
X205581Y298181D01*
X205615Y298250D01*
X205657Y298315D01*
X205676Y298377D01*
X205704Y298435D01*
X205715Y298504D01*
X205740Y298585D01*
X205741Y298670D01*
X205751Y298739D01*
X205751Y298804D01*
X205743Y298862D01*
X205743Y298867D01*
X205743Y298869D01*
X205743Y298907D01*
X205743Y298908D01*
X205743Y298932D01*
X205723Y299007D01*
X205712Y299083D01*
X205685Y299142D01*
X205668Y299204D01*
X205627Y299270D01*
X205595Y299340D01*
X205554Y299389D01*
X205520Y299444D01*
X205462Y299496D01*
X205412Y299554D01*
X205358Y299590D01*
X205311Y299633D01*
X205241Y299666D01*
X205176Y299709D01*
X205115Y299728D01*
X205057Y299756D01*
X204987Y299767D01*
X204906Y299791D01*
X204822Y299792D01*
X204752Y299803D01*
X199460Y299803D01*
X187806Y311458D01*
X187729Y311515D01*
X187657Y311580D01*
X187616Y311600D01*
X187580Y311627D01*
X187490Y311661D01*
X187404Y311703D01*
X187361Y311709D01*
X187316Y311726D01*
X187188Y311736D01*
X187099Y311750D01*
X177395Y311750D01*
X176223Y312922D01*
X176223Y325580D01*
X177395Y326752D01*
X189052Y326752D01*
X190224Y325580D01*
X190224Y315876D01*
X190238Y315781D01*
X190243Y315684D01*
X190258Y315641D01*
X190264Y315596D01*
X190304Y315509D01*
X190335Y315418D01*
X190360Y315384D01*
X190380Y315339D01*
X190464Y315242D01*
X190517Y315169D01*
X201048Y304637D01*
X201125Y304580D01*
X201197Y304515D01*
X201238Y304495D01*
X201274Y304468D01*
X201364Y304434D01*
X201450Y304392D01*
X201492Y304386D01*
X201538Y304369D01*
X201666Y304359D01*
X201755Y304345D01*
X203894Y304345D01*
X203926Y304349D01*
X203958Y304347D01*
X204065Y304369D01*
X204174Y304385D01*
X204203Y304398D01*
X204234Y304404D01*
X204331Y304456D01*
X204430Y304501D01*
X204455Y304522D01*
X204483Y304537D01*
X204562Y304613D01*
X204645Y304684D01*
X204662Y304711D01*
X204685Y304734D01*
X204739Y304829D01*
X204799Y304920D01*
X204809Y304951D01*
X204825Y304979D01*
X204850Y305086D01*
X204882Y305190D01*
X204882Y305222D01*
X204889Y305253D01*
X204884Y305363D01*
X204885Y305472D01*
X204877Y305503D01*
X204875Y305535D01*
X204839Y305638D01*
X204810Y305744D01*
X204793Y305771D01*
X204783Y305802D01*
X204729Y305875D01*
X204662Y305984D01*
X204626Y306016D01*
X204601Y306051D01*
X194231Y316420D01*
X194231Y335069D01*
X194230Y335079D01*
X194231Y335088D01*
X194210Y335218D01*
X194191Y335348D01*
X194188Y335357D01*
X194186Y335366D01*
X194129Y335486D01*
X194075Y335605D01*
X194069Y335612D01*
X194065Y335621D01*
X193977Y335720D01*
X193892Y335820D01*
X193884Y335825D01*
X193878Y335832D01*
X193812Y335872D01*
X193656Y335974D01*
X193633Y335981D01*
X193614Y335992D01*
X193335Y336108D01*
X191762Y337681D01*
X190911Y339736D01*
X190911Y341960D01*
X191762Y344015D01*
X193335Y345587D01*
X195390Y346438D01*
X197614Y346438D01*
X199669Y345587D01*
X201242Y344015D01*
X202093Y341960D01*
X202093Y339736D01*
X201242Y337681D01*
X199669Y336108D01*
X199390Y335992D01*
X199381Y335988D01*
X199372Y335985D01*
X199260Y335915D01*
X199147Y335849D01*
X199140Y335842D01*
X199132Y335837D01*
X199044Y335739D01*
X198954Y335643D01*
X198950Y335635D01*
X198943Y335628D01*
X198886Y335509D01*
X198826Y335392D01*
X198824Y335382D01*
X198820Y335374D01*
X198808Y335298D01*
X198774Y335114D01*
X198776Y335091D01*
X198773Y335069D01*
X198773Y333373D01*
X198777Y333341D01*
X198775Y333309D01*
X198797Y333202D01*
X198813Y333094D01*
X198826Y333064D01*
X198832Y333033D01*
X198884Y332936D01*
X198929Y332837D01*
X198950Y332812D01*
X198965Y332784D01*
X199041Y332705D01*
X199112Y332622D01*
X199139Y332605D01*
X199162Y332582D01*
X199257Y332528D01*
X199348Y332468D01*
X199379Y332458D01*
X199407Y332443D01*
X199514Y332417D01*
X199618Y332385D01*
X199650Y332385D01*
X199681Y332378D01*
X199791Y332383D01*
X199900Y332382D01*
X199931Y332390D01*
X199963Y332392D01*
X200066Y332428D01*
X200172Y332457D01*
X200199Y332474D01*
X200230Y332484D01*
X200303Y332538D01*
X200412Y332605D01*
X200444Y332641D01*
X200479Y332666D01*
X209389Y341577D01*
X209395Y341584D01*
X209402Y341590D01*
X209480Y341697D01*
X209558Y341802D01*
X209562Y341811D01*
X209567Y341819D01*
X209611Y341942D01*
X209658Y342066D01*
X209659Y342076D01*
X209662Y342085D01*
X209670Y342216D01*
X209680Y342347D01*
X209678Y342357D01*
X209678Y342366D01*
X209660Y342441D01*
X209622Y342623D01*
X209611Y342645D01*
X209606Y342666D01*
X209490Y342945D01*
X209490Y345169D01*
X210341Y347224D01*
X211914Y348797D01*
X213969Y349648D01*
X216193Y349648D01*
X218248Y348797D01*
X219820Y347224D01*
X220671Y345169D01*
X220671Y342945D01*
X219820Y340890D01*
X218248Y339317D01*
X216193Y338466D01*
X213969Y338466D01*
X213689Y338582D01*
X213680Y338584D01*
X213672Y338589D01*
X213543Y338620D01*
X213416Y338652D01*
X213407Y338652D01*
X213397Y338654D01*
X213265Y338647D01*
X213134Y338643D01*
X213125Y338640D01*
X213116Y338640D01*
X212991Y338596D01*
X212866Y338556D01*
X212858Y338550D01*
X212849Y338547D01*
X212787Y338502D01*
X212633Y338397D01*
X212618Y338378D01*
X212600Y338365D01*
X205122Y330887D01*
X205065Y330811D01*
X205000Y330739D01*
X204980Y330698D01*
X204953Y330662D01*
X204919Y330572D01*
X204877Y330485D01*
X204871Y330443D01*
X204853Y330398D01*
X204844Y330270D01*
X204830Y330181D01*
X204830Y326143D01*
X204834Y326111D01*
X204832Y326079D01*
X204854Y325972D01*
X204869Y325864D01*
X204883Y325835D01*
X204889Y325803D01*
X204941Y325707D01*
X204986Y325607D01*
X205007Y325583D01*
X205022Y325554D01*
X205098Y325476D01*
X205169Y325393D01*
X205196Y325375D01*
X205219Y325352D01*
X205313Y325298D01*
X205405Y325238D01*
X205436Y325229D01*
X205464Y325213D01*
X205570Y325188D01*
X205675Y325156D01*
X205707Y325156D01*
X205738Y325148D01*
X205848Y325154D01*
X205957Y325152D01*
X205988Y325161D01*
X206020Y325162D01*
X206123Y325198D01*
X206229Y325227D01*
X206256Y325244D01*
X206286Y325255D01*
X206360Y325308D01*
X206469Y325376D01*
X206501Y325412D01*
X206535Y325437D01*
X206923Y325825D01*
X215753Y325825D01*
X215848Y325838D01*
X215944Y325843D01*
X215987Y325858D01*
X216032Y325865D01*
X216119Y325904D01*
X216210Y325936D01*
X216245Y325961D01*
X216289Y325981D01*
X216386Y326064D01*
X216459Y326117D01*
X235582Y345240D01*
X235588Y345248D01*
X235595Y345254D01*
X235673Y345361D01*
X235751Y345466D01*
X235755Y345475D01*
X235760Y345482D01*
X235805Y345607D01*
X235851Y345730D01*
X235852Y345739D01*
X235855Y345748D01*
X235863Y345880D01*
X235873Y346011D01*
X235871Y346020D01*
X235871Y346030D01*
X235853Y346105D01*
X235815Y346287D01*
X235804Y346308D01*
X235799Y346329D01*
X235719Y346522D01*
X235719Y348746D01*
X236570Y350801D01*
X238143Y352373D01*
X240198Y353224D01*
X242422Y353224D01*
X244477Y352373D01*
X246049Y350801D01*
X246901Y348746D01*
X246901Y346522D01*
X246049Y344467D01*
X244477Y342894D01*
X242422Y342043D01*
X240198Y342043D01*
X239832Y342195D01*
X239822Y342197D01*
X239814Y342202D01*
X239685Y342232D01*
X239558Y342265D01*
X239549Y342264D01*
X239540Y342267D01*
X239407Y342260D01*
X239276Y342256D01*
X239267Y342253D01*
X239258Y342252D01*
X239134Y342209D01*
X239008Y342168D01*
X239000Y342163D01*
X238992Y342160D01*
X238930Y342114D01*
X238775Y342009D01*
X238760Y341991D01*
X238743Y341978D01*
X223667Y326902D01*
X223628Y326851D01*
X223582Y326806D01*
X223544Y326739D01*
X223497Y326677D01*
X223475Y326616D01*
X223443Y326561D01*
X223425Y326485D01*
X223398Y326413D01*
X223393Y326349D01*
X223378Y326286D01*
X223382Y326209D01*
X223376Y326132D01*
X223389Y326069D01*
X223392Y326004D01*
X223418Y325931D01*
X223434Y325855D01*
X223464Y325799D01*
X223485Y325738D01*
X223526Y325681D01*
X223566Y325606D01*
X223625Y325546D01*
X223667Y325489D01*
X224503Y324653D01*
X224503Y272995D01*
X223331Y271823D01*
X218405Y271823D01*
X218341Y271814D01*
X218277Y271815D01*
X218202Y271794D01*
X218126Y271783D01*
X218067Y271757D01*
X218005Y271740D01*
X217939Y271699D01*
X217869Y271667D01*
X217820Y271625D01*
X217765Y271592D01*
X217713Y271534D01*
X217654Y271484D01*
X217619Y271430D01*
X217576Y271382D01*
X217542Y271313D01*
X217500Y271248D01*
X217481Y271186D01*
X217453Y271129D01*
X217442Y271059D01*
X217418Y270978D01*
X217417Y270893D01*
X217406Y270824D01*
X217406Y268732D01*
X217415Y268668D01*
X217414Y268604D01*
X217435Y268529D01*
X217445Y268453D01*
X217472Y268394D01*
X217489Y268332D01*
X217530Y268266D01*
X217562Y268196D01*
X217603Y268147D01*
X217637Y268092D01*
X217695Y268040D01*
X217745Y267981D01*
X217799Y267946D01*
X217847Y267903D01*
X217916Y267869D01*
X217981Y267827D01*
X218043Y267808D01*
X218100Y267780D01*
X218170Y267769D01*
X218251Y267744D01*
X218335Y267743D01*
X218405Y267733D01*
X220734Y267733D01*
X221906Y266561D01*
X221906Y249903D01*
X220734Y248731D01*
X213101Y248731D01*
X213092Y248730D01*
X213082Y248731D01*
X212952Y248710D01*
X212822Y248691D01*
X212813Y248687D01*
X212804Y248686D01*
X212685Y248629D01*
X212565Y248575D01*
X212558Y248569D01*
X212549Y248565D01*
X212451Y248477D01*
X212351Y248392D01*
X212346Y248384D01*
X212338Y248377D01*
X212298Y248311D01*
X212196Y248156D01*
X212189Y248133D01*
X212178Y248114D01*
X211442Y246337D01*
X209869Y244764D01*
X207814Y243913D01*
X205590Y243913D01*
X203535Y244764D01*
X201963Y246337D01*
X201111Y248391D01*
X201111Y250616D01*
X201963Y252670D01*
X203535Y254243D01*
X204287Y254555D01*
X204295Y254559D01*
X204305Y254562D01*
X204417Y254631D01*
X204530Y254698D01*
X204537Y254705D01*
X204545Y254710D01*
X204633Y254808D01*
X204723Y254904D01*
X204727Y254912D01*
X204734Y254919D01*
X204791Y255038D01*
X204851Y255155D01*
X204853Y255165D01*
X204857Y255173D01*
X204869Y255249D01*
X204903Y255432D01*
X204901Y255456D01*
X204904Y255478D01*
X204904Y259088D01*
X204903Y259098D01*
X204904Y259107D01*
X204883Y259237D01*
X204864Y259367D01*
X204860Y259376D01*
X204859Y259385D01*
X204802Y259505D01*
X204748Y259624D01*
X204742Y259632D01*
X204738Y259640D01*
X204650Y259739D01*
X204565Y259839D01*
X204557Y259844D01*
X204551Y259851D01*
X204485Y259891D01*
X204329Y259993D01*
X204306Y260000D01*
X204287Y260011D01*
X202899Y260587D01*
X201326Y262159D01*
X200475Y264214D01*
X200475Y266438D01*
X201326Y268493D01*
X202899Y270066D01*
X204953Y270917D01*
X205417Y270917D01*
X205449Y270922D01*
X205481Y270919D01*
X205588Y270941D01*
X205697Y270957D01*
X205726Y270970D01*
X205758Y270977D01*
X205854Y271028D01*
X205954Y271073D01*
X205978Y271094D01*
X206007Y271109D01*
X206085Y271185D01*
X206168Y271256D01*
X206185Y271283D01*
X206209Y271306D01*
X206262Y271401D01*
X206322Y271492D01*
X206332Y271523D01*
X206348Y271551D01*
X206373Y271658D01*
X206405Y271762D01*
X206405Y271794D01*
X206413Y271826D01*
X206407Y271935D01*
X206408Y272044D01*
X206400Y272075D01*
X206398Y272107D01*
X206362Y272210D01*
X206333Y272316D01*
X206316Y272343D01*
X206306Y272374D01*
X206252Y272447D01*
X206185Y272556D01*
X206149Y272588D01*
X206124Y272623D01*
X205751Y272995D01*
X205751Y274942D01*
X205747Y274974D01*
X205749Y275006D01*
X205727Y275113D01*
X205712Y275221D01*
X205698Y275251D01*
X205692Y275282D01*
X205640Y275379D01*
X205595Y275478D01*
X205574Y275503D01*
X205559Y275531D01*
X205483Y275609D01*
X205412Y275693D01*
X205385Y275710D01*
X205363Y275733D01*
X205268Y275787D01*
X205176Y275847D01*
X205145Y275857D01*
X205117Y275872D01*
X205011Y275898D01*
X204906Y275929D01*
X204874Y275930D01*
X204843Y275937D01*
X204733Y275932D01*
X204624Y275933D01*
X204593Y275925D01*
X204561Y275923D01*
X204458Y275887D01*
X204353Y275858D01*
X204325Y275841D01*
X204295Y275830D01*
X204222Y275777D01*
X204113Y275710D01*
X204080Y275674D01*
X204046Y275649D01*
X198445Y270048D01*
X198387Y269971D01*
X198322Y269899D01*
X198303Y269858D01*
X198275Y269822D01*
X198241Y269732D01*
X198199Y269646D01*
X198193Y269604D01*
X198176Y269558D01*
X198166Y269431D01*
X198152Y269341D01*
X198152Y242732D01*
X198165Y242637D01*
X198170Y242541D01*
X198185Y242498D01*
X198192Y242453D01*
X198231Y242365D01*
X198263Y242274D01*
X198288Y242240D01*
X198308Y242196D01*
X198391Y242099D01*
X198445Y242025D01*
X213572Y226898D01*
X213649Y226841D01*
X213720Y226776D01*
X213761Y226756D01*
X213797Y226729D01*
X213887Y226695D01*
X213974Y226653D01*
X214016Y226647D01*
X214061Y226629D01*
X214189Y226620D01*
X214278Y226606D01*
X276480Y226606D01*
X276543Y226615D01*
X276607Y226614D01*
X276682Y226634D01*
X276759Y226645D01*
X276817Y226672D01*
X276879Y226689D01*
X276945Y226730D01*
X277016Y226762D01*
X277064Y226803D01*
X277119Y226837D01*
X277171Y226895D01*
X277230Y226945D01*
X277265Y226999D01*
X277308Y227046D01*
X277342Y227116D01*
X277384Y227181D01*
X277403Y227242D01*
X277431Y227300D01*
X277442Y227370D01*
X277467Y227451D01*
X277468Y227535D01*
X277479Y227605D01*
X277479Y230164D01*
X278651Y231336D01*
X291308Y231336D01*
X292480Y230164D01*
X292480Y228670D01*
X292485Y228638D01*
X292482Y228606D01*
X292505Y228499D01*
X292520Y228391D01*
X292533Y228361D01*
X292540Y228330D01*
X292591Y228233D01*
X292636Y228134D01*
X292657Y228109D01*
X292672Y228081D01*
X292749Y228003D01*
X292820Y227920D01*
X292847Y227902D01*
X292869Y227879D01*
X292964Y227825D01*
X293056Y227765D01*
X293086Y227756D01*
X293115Y227740D01*
X293221Y227715D01*
X293325Y227683D01*
X293358Y227682D01*
X293389Y227675D01*
X293498Y227680D01*
X293607Y227679D01*
X293638Y227688D01*
X293671Y227689D01*
X293774Y227725D01*
X293879Y227754D01*
X293907Y227771D01*
X293937Y227782D01*
X294010Y227835D01*
X294119Y227902D01*
X294152Y227938D01*
X294186Y227963D01*
X295331Y229109D01*
X297386Y229960D01*
X298298Y229960D01*
X298393Y229973D01*
X298489Y229978D01*
X298532Y229993D01*
X298577Y230000D01*
X298664Y230039D01*
X298755Y230071D01*
X298790Y230096D01*
X298834Y230116D01*
X298931Y230199D01*
X299004Y230252D01*
X300132Y231380D01*
X312789Y231380D01*
X313961Y230208D01*
X313961Y218551D01*
X312789Y217379D01*
X300132Y217379D01*
X299025Y218486D01*
X298948Y218543D01*
X298877Y218608D01*
X298836Y218628D01*
X298800Y218655D01*
X298710Y218689D01*
X298623Y218731D01*
X298581Y218737D01*
X298536Y218754D01*
X298408Y218764D01*
X298319Y218778D01*
X297386Y218778D01*
X295331Y219629D01*
X294186Y220775D01*
X294160Y220794D01*
X294139Y220818D01*
X294048Y220878D01*
X293961Y220944D01*
X293930Y220955D01*
X293903Y220973D01*
X293799Y221005D01*
X293697Y221043D01*
X293664Y221046D01*
X293634Y221055D01*
X293524Y221057D01*
X293415Y221065D01*
X293384Y221059D01*
X293352Y221059D01*
X293246Y221030D01*
X293139Y221008D01*
X293111Y220992D01*
X293080Y220984D01*
X292987Y220926D01*
X292890Y220875D01*
X292867Y220853D01*
X292840Y220836D01*
X292767Y220755D01*
X292688Y220678D01*
X292672Y220650D01*
X292651Y220626D01*
X292603Y220528D01*
X292549Y220433D01*
X292542Y220402D01*
X292528Y220373D01*
X292514Y220283D01*
X292484Y220159D01*
X292487Y220110D01*
X292480Y220068D01*
X292480Y218506D01*
X291308Y217334D01*
X278651Y217334D01*
X277479Y218506D01*
X277479Y221065D01*
X277470Y221128D01*
X277471Y221193D01*
X277450Y221267D01*
X277439Y221344D01*
X277413Y221403D01*
X277395Y221465D01*
X277355Y221531D01*
X277323Y221601D01*
X277281Y221650D01*
X277247Y221705D01*
X277190Y221756D01*
X277139Y221815D01*
X277086Y221851D01*
X277038Y221894D01*
X276968Y221927D01*
X276903Y221970D01*
X276842Y221989D01*
X276784Y222017D01*
X276715Y222027D01*
X276634Y222052D01*
X276549Y222053D01*
X276480Y222064D01*
X211983Y222064D01*
X193610Y240437D01*
X193610Y271636D01*
X205459Y283485D01*
X205516Y283561D01*
X205581Y283633D01*
X205601Y283674D01*
X205628Y283710D01*
X205662Y283800D01*
X205704Y283886D01*
X205710Y283929D01*
X205728Y283974D01*
X205738Y284102D01*
X205751Y284191D01*
X205751Y285804D01*
X205743Y285866D01*
X205743Y285917D01*
X205743Y285918D01*
X205743Y285932D01*
X205723Y286007D01*
X205712Y286083D01*
X205685Y286142D01*
X205668Y286204D01*
X205627Y286270D01*
X205595Y286340D01*
X205554Y286389D01*
X205520Y286444D01*
X205462Y286496D01*
X205412Y286554D01*
X205358Y286590D01*
X205311Y286633D01*
X205241Y286666D01*
X205176Y286709D01*
X205115Y286728D01*
X205057Y286756D01*
X204987Y286767D01*
X204906Y286791D01*
X204822Y286792D01*
X204752Y286803D01*
X196560Y286803D01*
X196465Y286790D01*
X196369Y286785D01*
X196326Y286770D01*
X196281Y286763D01*
X196194Y286724D01*
X196103Y286692D01*
X196068Y286667D01*
X196024Y286647D01*
X195927Y286564D01*
X195854Y286511D01*
X183169Y273826D01*
X183111Y273749D01*
X183047Y273677D01*
X183027Y273636D01*
X182999Y273600D01*
X182965Y273510D01*
X182924Y273424D01*
X182917Y273382D01*
X182900Y273336D01*
X182890Y273209D01*
X182876Y273119D01*
X182876Y237642D01*
X182890Y237547D01*
X182894Y237451D01*
X182909Y237408D01*
X182916Y237363D01*
X182955Y237275D01*
X182987Y237184D01*
X183012Y237150D01*
X183032Y237106D01*
X183115Y237008D01*
X183169Y236935D01*
X208463Y211641D01*
X208540Y211583D01*
X208611Y211519D01*
X208652Y211499D01*
X208689Y211471D01*
X208779Y211437D01*
X208865Y211396D01*
X208907Y211389D01*
X208953Y211372D01*
X209080Y211362D01*
X209170Y211348D01*
X261708Y211348D01*
X261718Y211349D01*
X261727Y211348D01*
X261857Y211369D01*
X261987Y211388D01*
X261996Y211392D01*
X262005Y211393D01*
X262125Y211450D01*
X262244Y211504D01*
X262252Y211510D01*
X262260Y211514D01*
X262359Y211602D01*
X262459Y211687D01*
X262464Y211695D01*
X262471Y211702D01*
X262511Y211767D01*
X262613Y211923D01*
X262620Y211946D01*
X262631Y211965D01*
X262747Y212244D01*
X264320Y213817D01*
X266375Y214668D01*
X268599Y214668D01*
X270654Y213817D01*
X272226Y212244D01*
X273077Y210189D01*
X273077Y207965D01*
X272226Y205910D01*
X270654Y204338D01*
X268599Y203486D01*
X266375Y203486D01*
G37*
%LPD*%
%LPC*%
G36*
X187509Y46883D02*
X187509Y46883D01*
X185454Y47734D01*
X183881Y49306D01*
X183766Y49586D01*
X183761Y49594D01*
X183758Y49603D01*
X183689Y49716D01*
X183622Y49828D01*
X183615Y49835D01*
X183610Y49843D01*
X183512Y49932D01*
X183416Y50021D01*
X183408Y50026D01*
X183401Y50032D01*
X183282Y50089D01*
X183165Y50149D01*
X183156Y50151D01*
X183147Y50155D01*
X183071Y50167D01*
X182888Y50202D01*
X182864Y50199D01*
X182842Y50203D01*
X119454Y50203D01*
X49722Y119935D01*
X49645Y119993D01*
X49574Y120057D01*
X49533Y120077D01*
X49496Y120104D01*
X49406Y120138D01*
X49320Y120180D01*
X49278Y120187D01*
X49232Y120204D01*
X49105Y120214D01*
X49015Y120228D01*
X39311Y120228D01*
X38139Y121400D01*
X38139Y134057D01*
X39311Y135229D01*
X41870Y135229D01*
X41933Y135238D01*
X41998Y135237D01*
X42072Y135258D01*
X42149Y135269D01*
X42208Y135295D01*
X42270Y135313D01*
X42336Y135353D01*
X42406Y135385D01*
X42455Y135427D01*
X42510Y135461D01*
X42561Y135518D01*
X42620Y135569D01*
X42656Y135622D01*
X42699Y135670D01*
X42732Y135740D01*
X42775Y135804D01*
X42794Y135866D01*
X42822Y135924D01*
X42832Y135993D01*
X42857Y136074D01*
X42858Y136159D01*
X42869Y136228D01*
X42869Y139359D01*
X43885Y140375D01*
X43924Y140426D01*
X43970Y140471D01*
X44008Y140539D01*
X44055Y140601D01*
X44077Y140661D01*
X44109Y140717D01*
X44127Y140792D01*
X44154Y140865D01*
X44159Y140929D01*
X44174Y140991D01*
X44170Y141069D01*
X44176Y141146D01*
X44163Y141209D01*
X44160Y141273D01*
X44134Y141346D01*
X44118Y141422D01*
X44088Y141479D01*
X44067Y141539D01*
X44026Y141596D01*
X43986Y141671D01*
X43927Y141732D01*
X43885Y141788D01*
X43631Y142043D01*
X43631Y155015D01*
X45096Y156479D01*
X50167Y156479D01*
X51632Y155015D01*
X51632Y142043D01*
X50195Y140605D01*
X50175Y140579D01*
X50151Y140559D01*
X50116Y140505D01*
X50073Y140457D01*
X50053Y140416D01*
X50026Y140380D01*
X50014Y140349D01*
X49997Y140323D01*
X49978Y140261D01*
X49950Y140203D01*
X49943Y140161D01*
X49926Y140116D01*
X49924Y140084D01*
X49914Y140053D01*
X49913Y139980D01*
X47703Y137770D01*
X47646Y137694D01*
X47581Y137622D01*
X47561Y137581D01*
X47534Y137545D01*
X47500Y137455D01*
X47458Y137368D01*
X47452Y137326D01*
X47434Y137281D01*
X47425Y137153D01*
X47411Y137064D01*
X47411Y136228D01*
X47420Y136165D01*
X47419Y136100D01*
X47439Y136026D01*
X47450Y135949D01*
X47477Y135891D01*
X47494Y135829D01*
X47535Y135763D01*
X47567Y135692D01*
X47608Y135643D01*
X47642Y135589D01*
X47700Y135537D01*
X47750Y135478D01*
X47804Y135443D01*
X47851Y135400D01*
X47921Y135366D01*
X47986Y135323D01*
X48047Y135305D01*
X48105Y135277D01*
X48175Y135266D01*
X48256Y135241D01*
X48340Y135240D01*
X48410Y135229D01*
X50969Y135229D01*
X52141Y134057D01*
X52141Y124353D01*
X52154Y124258D01*
X52159Y124162D01*
X52174Y124119D01*
X52180Y124074D01*
X52220Y123986D01*
X52251Y123895D01*
X52277Y123861D01*
X52297Y123817D01*
X52380Y123720D01*
X52433Y123646D01*
X53433Y122646D01*
X53459Y122627D01*
X53480Y122602D01*
X53572Y122542D01*
X53659Y122477D01*
X53689Y122466D01*
X53716Y122448D01*
X53821Y122416D01*
X53923Y122377D01*
X53955Y122375D01*
X53986Y122366D01*
X54095Y122364D01*
X54204Y122356D01*
X54235Y122362D01*
X54268Y122362D01*
X54373Y122391D01*
X54480Y122413D01*
X54508Y122428D01*
X54540Y122437D01*
X54632Y122494D01*
X54729Y122546D01*
X54752Y122568D01*
X54780Y122585D01*
X54853Y122666D01*
X54931Y122742D01*
X54947Y122771D01*
X54969Y122794D01*
X55016Y122893D01*
X55070Y122988D01*
X55078Y123019D01*
X55092Y123048D01*
X55106Y123138D01*
X55135Y123262D01*
X55133Y123311D01*
X55139Y123353D01*
X55139Y134057D01*
X56432Y135350D01*
X56489Y135427D01*
X56554Y135498D01*
X56574Y135539D01*
X56601Y135575D01*
X56635Y135665D01*
X56677Y135752D01*
X56683Y135794D01*
X56701Y135839D01*
X56711Y135967D01*
X56724Y136056D01*
X56724Y141535D01*
X56711Y141630D01*
X56706Y141726D01*
X56691Y141769D01*
X56685Y141814D01*
X56645Y141902D01*
X56631Y141943D01*
X56631Y155015D01*
X58096Y156479D01*
X63167Y156479D01*
X64632Y155015D01*
X64632Y153363D01*
X64641Y153299D01*
X64641Y153235D01*
X64661Y153160D01*
X64672Y153084D01*
X64699Y153025D01*
X64716Y152963D01*
X64756Y152897D01*
X64788Y152827D01*
X64830Y152778D01*
X64864Y152723D01*
X64921Y152671D01*
X64972Y152612D01*
X65026Y152577D01*
X65073Y152534D01*
X65143Y152500D01*
X65208Y152458D01*
X65269Y152439D01*
X65327Y152411D01*
X65396Y152400D01*
X65477Y152376D01*
X65562Y152374D01*
X65632Y152364D01*
X66290Y152364D01*
X66354Y152373D01*
X66418Y152372D01*
X66493Y152392D01*
X66569Y152403D01*
X66628Y152430D01*
X66690Y152447D01*
X66756Y152488D01*
X66826Y152520D01*
X66875Y152561D01*
X66930Y152595D01*
X66982Y152653D01*
X67040Y152703D01*
X67076Y152757D01*
X67119Y152804D01*
X67152Y152874D01*
X67195Y152939D01*
X67214Y153000D01*
X67242Y153058D01*
X67253Y153128D01*
X67277Y153209D01*
X67278Y153293D01*
X67289Y153363D01*
X67289Y155692D01*
X68461Y156864D01*
X86119Y156864D01*
X87291Y155692D01*
X87291Y146900D01*
X87292Y146891D01*
X87291Y146881D01*
X87312Y146751D01*
X87331Y146621D01*
X87334Y146612D01*
X87336Y146603D01*
X87393Y146483D01*
X87447Y146364D01*
X87453Y146357D01*
X87457Y146348D01*
X87532Y146263D01*
X87538Y146254D01*
X87550Y146243D01*
X87630Y146150D01*
X87638Y146144D01*
X87644Y146137D01*
X87710Y146098D01*
X87715Y146094D01*
X87748Y146065D01*
X87795Y146042D01*
X87866Y145995D01*
X87889Y145988D01*
X87908Y145977D01*
X89254Y145419D01*
X90827Y143846D01*
X91678Y141791D01*
X91678Y139567D01*
X90827Y137512D01*
X89254Y135940D01*
X87200Y135089D01*
X84975Y135089D01*
X82921Y135940D01*
X81348Y137513D01*
X80630Y139245D01*
X80625Y139253D01*
X80623Y139263D01*
X80553Y139375D01*
X80487Y139488D01*
X80480Y139494D01*
X80475Y139503D01*
X80377Y139591D01*
X80281Y139681D01*
X80272Y139685D01*
X80265Y139692D01*
X80147Y139749D01*
X80029Y139809D01*
X80020Y139810D01*
X80012Y139815D01*
X79936Y139826D01*
X79752Y139861D01*
X79728Y139859D01*
X79707Y139862D01*
X78683Y139862D01*
X78619Y139853D01*
X78555Y139854D01*
X78480Y139833D01*
X78403Y139822D01*
X78345Y139796D01*
X78283Y139779D01*
X78217Y139738D01*
X78146Y139706D01*
X78098Y139664D01*
X78043Y139631D01*
X77991Y139573D01*
X77932Y139523D01*
X77897Y139469D01*
X77854Y139421D01*
X77820Y139352D01*
X77778Y139287D01*
X77759Y139225D01*
X77731Y139167D01*
X77720Y139098D01*
X77695Y139017D01*
X77694Y138932D01*
X77683Y138863D01*
X77683Y138739D01*
X76832Y136684D01*
X75550Y135402D01*
X75544Y135394D01*
X75537Y135388D01*
X75460Y135281D01*
X75381Y135176D01*
X75377Y135167D01*
X75372Y135160D01*
X75328Y135036D01*
X75281Y134912D01*
X75280Y134903D01*
X75277Y134894D01*
X75269Y134762D01*
X75259Y134631D01*
X75261Y134622D01*
X75261Y134612D01*
X75279Y134537D01*
X75317Y134355D01*
X75328Y134334D01*
X75333Y134313D01*
X76042Y132602D01*
X76042Y130377D01*
X75191Y128323D01*
X73831Y126963D01*
X73793Y126912D01*
X73747Y126867D01*
X73709Y126799D01*
X73662Y126738D01*
X73639Y126678D01*
X73608Y126622D01*
X73590Y126546D01*
X73563Y126474D01*
X73558Y126410D01*
X73543Y126347D01*
X73547Y126270D01*
X73541Y126193D01*
X73554Y126130D01*
X73557Y126065D01*
X73583Y125992D01*
X73598Y125916D01*
X73629Y125860D01*
X73650Y125799D01*
X73691Y125742D01*
X73731Y125667D01*
X73790Y125607D01*
X73831Y125550D01*
X74059Y125322D01*
X74910Y123267D01*
X74910Y121043D01*
X74059Y118988D01*
X72487Y117416D01*
X70432Y116564D01*
X68208Y116564D01*
X66153Y117416D01*
X64580Y118988D01*
X64322Y119611D01*
X64317Y119619D01*
X64315Y119628D01*
X64246Y119740D01*
X64179Y119854D01*
X64172Y119860D01*
X64167Y119868D01*
X64069Y119957D01*
X63973Y120046D01*
X63964Y120051D01*
X63957Y120057D01*
X63839Y120114D01*
X63721Y120174D01*
X63712Y120176D01*
X63704Y120180D01*
X63628Y120192D01*
X63444Y120227D01*
X63420Y120224D01*
X63399Y120228D01*
X58264Y120228D01*
X58232Y120223D01*
X58200Y120226D01*
X58093Y120203D01*
X57985Y120188D01*
X57956Y120175D01*
X57924Y120168D01*
X57828Y120117D01*
X57728Y120072D01*
X57704Y120051D01*
X57675Y120036D01*
X57597Y119959D01*
X57514Y119888D01*
X57496Y119861D01*
X57473Y119839D01*
X57419Y119744D01*
X57359Y119652D01*
X57350Y119621D01*
X57334Y119593D01*
X57309Y119487D01*
X57277Y119383D01*
X57277Y119350D01*
X57269Y119319D01*
X57275Y119209D01*
X57273Y119101D01*
X57282Y119070D01*
X57283Y119037D01*
X57319Y118934D01*
X57348Y118829D01*
X57365Y118801D01*
X57376Y118771D01*
X57429Y118698D01*
X57497Y118589D01*
X57533Y118556D01*
X57558Y118522D01*
X121043Y55037D01*
X121120Y54979D01*
X121191Y54915D01*
X121232Y54895D01*
X121268Y54867D01*
X121358Y54834D01*
X121445Y54792D01*
X121487Y54785D01*
X121532Y54768D01*
X121660Y54758D01*
X121749Y54744D01*
X182842Y54744D01*
X182852Y54745D01*
X182861Y54744D01*
X182991Y54765D01*
X183122Y54784D01*
X183130Y54788D01*
X183140Y54789D01*
X183260Y54846D01*
X183379Y54900D01*
X183386Y54906D01*
X183394Y54910D01*
X183493Y54998D01*
X183593Y55084D01*
X183598Y55091D01*
X183605Y55098D01*
X183645Y55163D01*
X183747Y55319D01*
X183754Y55343D01*
X183766Y55361D01*
X183881Y55640D01*
X185454Y57213D01*
X187676Y58133D01*
X187751Y58177D01*
X187830Y58213D01*
X187871Y58249D01*
X187919Y58277D01*
X187978Y58340D01*
X188044Y58397D01*
X188074Y58443D01*
X188112Y58483D01*
X188151Y58560D01*
X188198Y58633D01*
X188215Y58685D01*
X188239Y58734D01*
X188256Y58819D01*
X188281Y58902D01*
X188282Y58957D01*
X188292Y59011D01*
X188283Y59098D01*
X188285Y59184D01*
X188270Y59237D01*
X188265Y59292D01*
X188233Y59372D01*
X188209Y59456D01*
X188181Y59503D01*
X188160Y59554D01*
X188107Y59622D01*
X188061Y59696D01*
X188021Y59733D01*
X187987Y59776D01*
X187916Y59827D01*
X187852Y59885D01*
X187803Y59909D01*
X187758Y59941D01*
X187676Y59970D01*
X187598Y60008D01*
X187548Y60016D01*
X187492Y60036D01*
X187379Y60042D01*
X187294Y60056D01*
X173876Y60056D01*
X112305Y121627D01*
X112228Y121685D01*
X112156Y121749D01*
X112115Y121769D01*
X112079Y121797D01*
X111989Y121831D01*
X111903Y121872D01*
X111861Y121879D01*
X111815Y121896D01*
X111688Y121906D01*
X111598Y121920D01*
X101894Y121920D01*
X100722Y123092D01*
X100722Y135750D01*
X101894Y136921D01*
X104018Y136921D01*
X104081Y136931D01*
X104146Y136930D01*
X104220Y136950D01*
X104297Y136961D01*
X104355Y136988D01*
X104417Y137005D01*
X104483Y137046D01*
X104554Y137078D01*
X104603Y137119D01*
X104657Y137153D01*
X104709Y137211D01*
X104768Y137261D01*
X104803Y137315D01*
X104846Y137362D01*
X104880Y137432D01*
X104923Y137497D01*
X104941Y137558D01*
X104969Y137616D01*
X104980Y137685D01*
X105005Y137767D01*
X105006Y137851D01*
X105017Y137921D01*
X105017Y139707D01*
X106544Y141234D01*
X106582Y141285D01*
X106628Y141330D01*
X106667Y141397D01*
X106713Y141459D01*
X106736Y141519D01*
X106767Y141575D01*
X106785Y141651D01*
X106813Y141723D01*
X106818Y141787D01*
X106832Y141850D01*
X106828Y141927D01*
X106834Y142004D01*
X106821Y142067D01*
X106818Y142131D01*
X106793Y142205D01*
X106777Y142280D01*
X106747Y142337D01*
X106726Y142398D01*
X106684Y142455D01*
X106644Y142529D01*
X106585Y142590D01*
X106544Y142647D01*
X105672Y143519D01*
X105672Y156491D01*
X107136Y157956D01*
X112208Y157956D01*
X113673Y156491D01*
X113673Y143519D01*
X112236Y142082D01*
X112178Y142005D01*
X112114Y141934D01*
X112094Y141893D01*
X112066Y141856D01*
X112032Y141766D01*
X111991Y141680D01*
X111984Y141638D01*
X111967Y141592D01*
X111957Y141465D01*
X111943Y141375D01*
X111943Y140210D01*
X110360Y138627D01*
X110341Y138602D01*
X110316Y138581D01*
X110256Y138489D01*
X110191Y138402D01*
X110179Y138372D01*
X110162Y138345D01*
X110130Y138240D01*
X110091Y138138D01*
X110089Y138106D01*
X110079Y138075D01*
X110078Y137966D01*
X110069Y137857D01*
X110076Y137825D01*
X110076Y137793D01*
X110105Y137687D01*
X110127Y137581D01*
X110142Y137552D01*
X110151Y137521D01*
X110208Y137428D01*
X110259Y137332D01*
X110282Y137308D01*
X110299Y137281D01*
X110380Y137208D01*
X110456Y137130D01*
X110484Y137114D01*
X110508Y137092D01*
X110606Y137044D01*
X110702Y136991D01*
X110733Y136983D01*
X110762Y136969D01*
X110851Y136955D01*
X110976Y136926D01*
X111025Y136928D01*
X111067Y136921D01*
X113551Y136921D01*
X114723Y135750D01*
X114723Y126045D01*
X114737Y125950D01*
X114742Y125854D01*
X114757Y125811D01*
X114763Y125766D01*
X114803Y125679D01*
X114834Y125588D01*
X114859Y125553D01*
X114879Y125509D01*
X114962Y125412D01*
X115016Y125339D01*
X116016Y124339D01*
X116042Y124319D01*
X116063Y124295D01*
X116154Y124235D01*
X116241Y124169D01*
X116272Y124158D01*
X116299Y124140D01*
X116403Y124108D01*
X116505Y124070D01*
X116538Y124067D01*
X116568Y124058D01*
X116678Y124056D01*
X116787Y124048D01*
X116818Y124055D01*
X116850Y124054D01*
X116956Y124083D01*
X117063Y124106D01*
X117091Y124121D01*
X117122Y124129D01*
X117215Y124187D01*
X117312Y124238D01*
X117335Y124261D01*
X117362Y124277D01*
X117435Y124358D01*
X117514Y124435D01*
X117530Y124463D01*
X117551Y124487D01*
X117599Y124585D01*
X117653Y124680D01*
X117660Y124712D01*
X117674Y124741D01*
X117688Y124830D01*
X117718Y124955D01*
X117715Y125003D01*
X117722Y125045D01*
X117722Y135750D01*
X119042Y137069D01*
X119080Y137121D01*
X119126Y137166D01*
X119164Y137233D01*
X119211Y137295D01*
X119234Y137355D01*
X119265Y137411D01*
X119283Y137486D01*
X119310Y137559D01*
X119315Y137623D01*
X119330Y137685D01*
X119326Y137763D01*
X119332Y137840D01*
X119319Y137903D01*
X119316Y137967D01*
X119291Y138040D01*
X119275Y138116D01*
X119244Y138173D01*
X119223Y138234D01*
X119182Y138290D01*
X119142Y138365D01*
X119083Y138426D01*
X119042Y138483D01*
X118672Y138853D01*
X118672Y156491D01*
X120136Y157956D01*
X125208Y157956D01*
X126673Y156491D01*
X126673Y155097D01*
X126682Y155033D01*
X126681Y154969D01*
X126702Y154894D01*
X126713Y154818D01*
X126739Y154759D01*
X126756Y154697D01*
X126797Y154631D01*
X126829Y154561D01*
X126871Y154512D01*
X126905Y154457D01*
X126962Y154405D01*
X127012Y154346D01*
X127066Y154311D01*
X127114Y154268D01*
X127184Y154234D01*
X127248Y154192D01*
X127310Y154173D01*
X127368Y154145D01*
X127437Y154134D01*
X127518Y154110D01*
X127603Y154108D01*
X127672Y154098D01*
X128176Y154098D01*
X128239Y154107D01*
X128303Y154106D01*
X128378Y154126D01*
X128455Y154137D01*
X128513Y154164D01*
X128575Y154181D01*
X128641Y154222D01*
X128712Y154254D01*
X128761Y154295D01*
X128815Y154329D01*
X128867Y154387D01*
X128926Y154437D01*
X128961Y154491D01*
X129004Y154538D01*
X129038Y154608D01*
X129081Y154673D01*
X129099Y154734D01*
X129127Y154792D01*
X129138Y154862D01*
X129163Y154943D01*
X129164Y155027D01*
X129175Y155097D01*
X129175Y157426D01*
X130347Y158598D01*
X148004Y158598D01*
X149176Y157426D01*
X149176Y147910D01*
X149178Y147901D01*
X149177Y147891D01*
X149198Y147761D01*
X149216Y147631D01*
X149220Y147622D01*
X149222Y147613D01*
X149279Y147493D01*
X149332Y147374D01*
X149338Y147367D01*
X149343Y147358D01*
X149430Y147260D01*
X149516Y147160D01*
X149524Y147154D01*
X149530Y147147D01*
X149596Y147107D01*
X149652Y147070D01*
X149659Y147064D01*
X149669Y147059D01*
X149752Y147005D01*
X149775Y146998D01*
X149793Y146987D01*
X150022Y146892D01*
X151595Y145319D01*
X152446Y143265D01*
X152446Y141040D01*
X151595Y138986D01*
X150022Y137413D01*
X147967Y136562D01*
X145743Y136562D01*
X143688Y137413D01*
X142116Y138986D01*
X141386Y140747D01*
X141342Y140821D01*
X141306Y140900D01*
X141271Y140942D01*
X141243Y140989D01*
X141179Y141049D01*
X141123Y141115D01*
X141077Y141145D01*
X141037Y141182D01*
X140960Y141222D01*
X140887Y141269D01*
X140834Y141285D01*
X140785Y141310D01*
X140700Y141326D01*
X140617Y141352D01*
X140562Y141352D01*
X140508Y141362D01*
X140422Y141354D01*
X140335Y141355D01*
X140282Y141341D01*
X140228Y141335D01*
X140147Y141303D01*
X140063Y141280D01*
X140016Y141251D01*
X139966Y141231D01*
X139897Y141178D01*
X139823Y141132D01*
X139787Y141091D01*
X139743Y141057D01*
X139692Y140987D01*
X139634Y140923D01*
X139610Y140873D01*
X139578Y140829D01*
X139549Y140747D01*
X139511Y140669D01*
X139503Y140618D01*
X139484Y140563D01*
X139482Y140532D01*
X138613Y138433D01*
X137479Y137299D01*
X137440Y137248D01*
X137394Y137203D01*
X137356Y137136D01*
X137309Y137074D01*
X137287Y137013D01*
X137255Y136958D01*
X137237Y136882D01*
X137210Y136810D01*
X137205Y136746D01*
X137190Y136683D01*
X137194Y136606D01*
X137188Y136529D01*
X137201Y136466D01*
X137204Y136401D01*
X137230Y136328D01*
X137246Y136252D01*
X137276Y136196D01*
X137297Y136135D01*
X137338Y136078D01*
X137378Y136003D01*
X137437Y135943D01*
X137479Y135886D01*
X137662Y135702D01*
X138514Y133647D01*
X138514Y131423D01*
X137662Y129368D01*
X136038Y127744D01*
X135999Y127692D01*
X135953Y127647D01*
X135915Y127580D01*
X135868Y127518D01*
X135846Y127458D01*
X135814Y127402D01*
X135796Y127326D01*
X135769Y127254D01*
X135764Y127190D01*
X135749Y127127D01*
X135753Y127050D01*
X135747Y126973D01*
X135760Y126910D01*
X135763Y126846D01*
X135789Y126773D01*
X135804Y126697D01*
X135835Y126640D01*
X135856Y126579D01*
X135897Y126523D01*
X135937Y126448D01*
X135996Y126387D01*
X136038Y126330D01*
X136256Y126112D01*
X137107Y124057D01*
X137107Y121833D01*
X136256Y119778D01*
X134683Y118206D01*
X132628Y117354D01*
X130404Y117354D01*
X128349Y118206D01*
X126777Y119778D01*
X126145Y121303D01*
X126142Y121308D01*
X126141Y121313D01*
X126139Y121316D01*
X126138Y121320D01*
X126068Y121433D01*
X126001Y121546D01*
X125994Y121552D01*
X125990Y121560D01*
X125892Y121649D01*
X125796Y121739D01*
X125787Y121743D01*
X125780Y121749D01*
X125662Y121807D01*
X125544Y121867D01*
X125535Y121868D01*
X125526Y121872D01*
X125451Y121884D01*
X125267Y121919D01*
X125243Y121917D01*
X125222Y121920D01*
X120847Y121920D01*
X120815Y121915D01*
X120783Y121918D01*
X120676Y121896D01*
X120568Y121880D01*
X120538Y121867D01*
X120507Y121860D01*
X120410Y121809D01*
X120311Y121764D01*
X120286Y121743D01*
X120258Y121728D01*
X120179Y121652D01*
X120096Y121581D01*
X120079Y121554D01*
X120056Y121531D01*
X120002Y121436D01*
X119942Y121345D01*
X119933Y121314D01*
X119917Y121286D01*
X119891Y121179D01*
X119860Y121075D01*
X119859Y121043D01*
X119852Y121011D01*
X119857Y120902D01*
X119856Y120793D01*
X119864Y120762D01*
X119866Y120730D01*
X119902Y120626D01*
X119931Y120521D01*
X119948Y120494D01*
X119959Y120463D01*
X120012Y120390D01*
X120079Y120281D01*
X120086Y120275D01*
X120087Y120273D01*
X120117Y120246D01*
X120140Y120214D01*
X175465Y64890D01*
X175541Y64832D01*
X175613Y64768D01*
X175654Y64748D01*
X175690Y64721D01*
X175780Y64687D01*
X175867Y64645D01*
X175909Y64638D01*
X175954Y64621D01*
X176082Y64611D01*
X176171Y64597D01*
X193156Y64597D01*
X193165Y64599D01*
X193175Y64597D01*
X193305Y64618D01*
X193435Y64637D01*
X193444Y64641D01*
X193453Y64642D01*
X193573Y64699D01*
X193692Y64753D01*
X193699Y64759D01*
X193708Y64763D01*
X193807Y64851D01*
X193906Y64937D01*
X193912Y64945D01*
X193919Y64951D01*
X193959Y65016D01*
X194061Y65173D01*
X194068Y65196D01*
X194079Y65214D01*
X194195Y65493D01*
X195767Y67066D01*
X197822Y67917D01*
X200046Y67917D01*
X202101Y67066D01*
X203674Y65493D01*
X204525Y63438D01*
X204525Y61214D01*
X203674Y59159D01*
X202101Y57587D01*
X200046Y56736D01*
X197822Y56736D01*
X195767Y57587D01*
X194195Y59160D01*
X194079Y59439D01*
X194074Y59447D01*
X194072Y59456D01*
X194002Y59569D01*
X193935Y59682D01*
X193929Y59688D01*
X193924Y59696D01*
X193826Y59785D01*
X193730Y59874D01*
X193721Y59879D01*
X193714Y59885D01*
X193596Y59943D01*
X193478Y60002D01*
X193469Y60004D01*
X193461Y60008D01*
X193385Y60020D01*
X193201Y60055D01*
X193177Y60052D01*
X193156Y60056D01*
X189948Y60056D01*
X189862Y60043D01*
X189776Y60041D01*
X189723Y60024D01*
X189669Y60016D01*
X189590Y59980D01*
X189508Y59953D01*
X189462Y59922D01*
X189412Y59900D01*
X189346Y59843D01*
X189275Y59794D01*
X189240Y59752D01*
X189198Y59716D01*
X189150Y59644D01*
X189095Y59577D01*
X189074Y59526D01*
X189043Y59480D01*
X189018Y59397D01*
X188984Y59318D01*
X188977Y59263D01*
X188961Y59211D01*
X188960Y59124D01*
X188949Y59038D01*
X188958Y58983D01*
X188957Y58929D01*
X188980Y58845D01*
X188994Y58759D01*
X189018Y58710D01*
X189033Y58657D01*
X189078Y58583D01*
X189115Y58505D01*
X189152Y58463D01*
X189181Y58417D01*
X189245Y58359D01*
X189303Y58294D01*
X189346Y58267D01*
X189390Y58228D01*
X189492Y58178D01*
X189566Y58133D01*
X191788Y57213D01*
X193361Y55640D01*
X194212Y53585D01*
X194212Y51361D01*
X193361Y49306D01*
X191788Y47734D01*
X189733Y46883D01*
X187509Y46883D01*
G37*
%LPD*%
%LPC*%
G36*
X292014Y280234D02*
X292014Y280234D01*
X290842Y281405D01*
X290842Y282964D01*
X290833Y283028D01*
X290834Y283092D01*
X290813Y283167D01*
X290802Y283243D01*
X290776Y283302D01*
X290759Y283364D01*
X290718Y283430D01*
X290686Y283500D01*
X290644Y283549D01*
X290610Y283604D01*
X290553Y283656D01*
X290503Y283715D01*
X290449Y283750D01*
X290401Y283793D01*
X290331Y283827D01*
X290267Y283869D01*
X290205Y283888D01*
X290147Y283916D01*
X290078Y283927D01*
X289997Y283952D01*
X289912Y283953D01*
X289843Y283964D01*
X288385Y283964D01*
X286838Y285511D01*
X286761Y285568D01*
X286690Y285633D01*
X286649Y285653D01*
X286613Y285680D01*
X286522Y285714D01*
X286436Y285756D01*
X286394Y285762D01*
X286349Y285779D01*
X286221Y285789D01*
X286132Y285803D01*
X283485Y285803D01*
X283390Y285790D01*
X283294Y285785D01*
X283251Y285770D01*
X283206Y285763D01*
X283118Y285724D01*
X283027Y285692D01*
X282993Y285667D01*
X282949Y285647D01*
X282851Y285564D01*
X282778Y285511D01*
X282091Y284823D01*
X265683Y284823D01*
X264511Y285995D01*
X264511Y306957D01*
X264498Y307052D01*
X264493Y307148D01*
X264478Y307191D01*
X264472Y307236D01*
X264432Y307324D01*
X264401Y307415D01*
X264375Y307449D01*
X264355Y307493D01*
X264272Y307590D01*
X264219Y307663D01*
X258440Y313442D01*
X258440Y336217D01*
X275345Y353122D01*
X283090Y353122D01*
X283100Y353123D01*
X283109Y353122D01*
X283239Y353143D01*
X283370Y353161D01*
X283378Y353165D01*
X283388Y353167D01*
X283507Y353224D01*
X283627Y353278D01*
X283634Y353284D01*
X283642Y353288D01*
X283741Y353376D01*
X283841Y353461D01*
X283846Y353469D01*
X283853Y353475D01*
X283893Y353541D01*
X283995Y353697D01*
X284002Y353720D01*
X284014Y353738D01*
X284129Y354018D01*
X285702Y355590D01*
X287757Y356442D01*
X289981Y356442D01*
X292036Y355590D01*
X293609Y354018D01*
X294460Y351963D01*
X294460Y349739D01*
X293609Y347684D01*
X292036Y346111D01*
X289981Y345260D01*
X287757Y345260D01*
X285702Y346111D01*
X284129Y347684D01*
X284014Y347963D01*
X284009Y347971D01*
X284006Y347981D01*
X283937Y348093D01*
X283870Y348206D01*
X283863Y348212D01*
X283858Y348221D01*
X283760Y348309D01*
X283664Y348399D01*
X283656Y348403D01*
X283649Y348410D01*
X283530Y348467D01*
X283413Y348527D01*
X283404Y348528D01*
X283395Y348533D01*
X283319Y348544D01*
X283136Y348579D01*
X283112Y348577D01*
X283090Y348580D01*
X277640Y348580D01*
X277545Y348567D01*
X277449Y348562D01*
X277406Y348547D01*
X277361Y348540D01*
X277273Y348501D01*
X277182Y348469D01*
X277148Y348444D01*
X277104Y348424D01*
X277007Y348341D01*
X276933Y348287D01*
X263274Y334628D01*
X263217Y334552D01*
X263152Y334480D01*
X263132Y334439D01*
X263105Y334403D01*
X263071Y334313D01*
X263029Y334226D01*
X263023Y334184D01*
X263006Y334139D01*
X262996Y334011D01*
X262982Y333922D01*
X262982Y319035D01*
X262986Y319003D01*
X262984Y318971D01*
X263006Y318864D01*
X263021Y318756D01*
X263035Y318727D01*
X263041Y318695D01*
X263093Y318599D01*
X263138Y318499D01*
X263159Y318475D01*
X263174Y318446D01*
X263250Y318368D01*
X263321Y318285D01*
X263348Y318267D01*
X263371Y318244D01*
X263466Y318190D01*
X263557Y318130D01*
X263588Y318121D01*
X263616Y318105D01*
X263722Y318080D01*
X263827Y318048D01*
X263859Y318048D01*
X263890Y318040D01*
X264000Y318046D01*
X264109Y318044D01*
X264140Y318053D01*
X264172Y318055D01*
X264275Y318090D01*
X264381Y318119D01*
X264408Y318136D01*
X264439Y318147D01*
X264512Y318200D01*
X264621Y318268D01*
X264653Y318304D01*
X264688Y318329D01*
X265683Y319325D01*
X282091Y319325D01*
X283295Y318121D01*
X283303Y318065D01*
X283329Y318006D01*
X283346Y317944D01*
X283387Y317878D01*
X283419Y317808D01*
X283461Y317759D01*
X283495Y317704D01*
X283552Y317652D01*
X283602Y317594D01*
X283656Y317558D01*
X283704Y317515D01*
X283773Y317482D01*
X283838Y317439D01*
X283900Y317420D01*
X283958Y317392D01*
X284027Y317381D01*
X284108Y317357D01*
X284193Y317356D01*
X284262Y317345D01*
X286851Y317345D01*
X286946Y317358D01*
X287042Y317363D01*
X287086Y317378D01*
X287131Y317385D01*
X287218Y317424D01*
X287309Y317456D01*
X287343Y317481D01*
X287387Y317501D01*
X287485Y317584D01*
X287558Y317637D01*
X311313Y341393D01*
X311319Y341400D01*
X311326Y341406D01*
X311403Y341513D01*
X311482Y341618D01*
X311486Y341627D01*
X311491Y341635D01*
X311535Y341759D01*
X311582Y341882D01*
X311583Y341891D01*
X311586Y341900D01*
X311593Y342032D01*
X311604Y342163D01*
X311602Y342172D01*
X311602Y342182D01*
X311584Y342257D01*
X311546Y342439D01*
X311535Y342460D01*
X311530Y342481D01*
X311414Y342761D01*
X311414Y344985D01*
X312265Y347040D01*
X313838Y348612D01*
X315893Y349464D01*
X318117Y349464D01*
X320172Y348612D01*
X321744Y347040D01*
X322595Y344985D01*
X322595Y342761D01*
X321744Y340706D01*
X320172Y339133D01*
X318117Y338282D01*
X315893Y338282D01*
X315613Y338398D01*
X315604Y338400D01*
X315596Y338405D01*
X315467Y338435D01*
X315340Y338468D01*
X315331Y338468D01*
X315321Y338470D01*
X315189Y338463D01*
X315058Y338459D01*
X315049Y338456D01*
X315040Y338455D01*
X314916Y338412D01*
X314790Y338371D01*
X314782Y338366D01*
X314773Y338363D01*
X314711Y338318D01*
X314557Y338213D01*
X314542Y338194D01*
X314524Y338181D01*
X289146Y312803D01*
X284262Y312803D01*
X284199Y312794D01*
X284134Y312795D01*
X284060Y312774D01*
X283983Y312763D01*
X283925Y312737D01*
X283863Y312720D01*
X283797Y312679D01*
X283726Y312647D01*
X283677Y312605D01*
X283623Y312572D01*
X283571Y312514D01*
X283512Y312464D01*
X283477Y312410D01*
X283434Y312362D01*
X283400Y312293D01*
X283357Y312228D01*
X283339Y312166D01*
X283311Y312109D01*
X283300Y312039D01*
X283275Y311958D01*
X283274Y311873D01*
X283263Y311804D01*
X283263Y305344D01*
X283272Y305280D01*
X283271Y305216D01*
X283292Y305141D01*
X283303Y305065D01*
X283329Y305006D01*
X283346Y304944D01*
X283387Y304878D01*
X283419Y304808D01*
X283461Y304759D01*
X283495Y304704D01*
X283552Y304652D01*
X283602Y304594D01*
X283656Y304558D01*
X283704Y304515D01*
X283773Y304482D01*
X283838Y304439D01*
X283900Y304420D01*
X283958Y304392D01*
X284027Y304381D01*
X284108Y304357D01*
X284193Y304356D01*
X284262Y304345D01*
X341078Y304345D01*
X341173Y304358D01*
X341269Y304363D01*
X341312Y304378D01*
X341357Y304385D01*
X341445Y304424D01*
X341536Y304456D01*
X341570Y304481D01*
X341614Y304501D01*
X341712Y304584D01*
X341785Y304637D01*
X381472Y344325D01*
X381478Y344332D01*
X381485Y344338D01*
X381563Y344445D01*
X381641Y344550D01*
X381645Y344559D01*
X381650Y344567D01*
X381694Y344690D01*
X381741Y344814D01*
X381742Y344824D01*
X381745Y344833D01*
X381753Y344964D01*
X381763Y345095D01*
X381761Y345105D01*
X381761Y345114D01*
X381743Y345190D01*
X381705Y345372D01*
X381694Y345393D01*
X381689Y345414D01*
X381573Y345693D01*
X381573Y347917D01*
X382424Y349972D01*
X383997Y351545D01*
X386052Y352396D01*
X388276Y352396D01*
X390331Y351545D01*
X391903Y349972D01*
X392754Y347917D01*
X392754Y345693D01*
X391903Y343638D01*
X390331Y342066D01*
X388276Y341214D01*
X386052Y341214D01*
X385772Y341330D01*
X385763Y341332D01*
X385755Y341337D01*
X385626Y341368D01*
X385499Y341400D01*
X385490Y341400D01*
X385481Y341402D01*
X385348Y341395D01*
X385217Y341391D01*
X385208Y341388D01*
X385199Y341388D01*
X385074Y341344D01*
X384949Y341304D01*
X384941Y341298D01*
X384932Y341295D01*
X384870Y341250D01*
X384716Y341145D01*
X384701Y341126D01*
X384683Y341114D01*
X373586Y330016D01*
X373567Y329991D01*
X373543Y329970D01*
X373483Y329878D01*
X373417Y329791D01*
X373406Y329761D01*
X373388Y329734D01*
X373356Y329629D01*
X373318Y329527D01*
X373315Y329495D01*
X373306Y329464D01*
X373304Y329355D01*
X373296Y329246D01*
X373302Y329214D01*
X373302Y329182D01*
X373331Y329077D01*
X373353Y328970D01*
X373368Y328941D01*
X373377Y328910D01*
X373435Y328817D01*
X373486Y328721D01*
X373508Y328698D01*
X373525Y328670D01*
X373606Y328597D01*
X373683Y328519D01*
X373711Y328503D01*
X373735Y328481D01*
X373833Y328434D01*
X373928Y328380D01*
X373959Y328372D01*
X373988Y328358D01*
X374078Y328344D01*
X374202Y328315D01*
X374251Y328317D01*
X374293Y328311D01*
X375901Y328311D01*
X377956Y327460D01*
X379528Y325887D01*
X380379Y323832D01*
X380379Y321608D01*
X379528Y319553D01*
X377956Y317980D01*
X375901Y317129D01*
X373677Y317129D01*
X373397Y317245D01*
X373388Y317247D01*
X373380Y317252D01*
X373251Y317283D01*
X373124Y317315D01*
X373115Y317315D01*
X373105Y317317D01*
X372973Y317310D01*
X372842Y317306D01*
X372833Y317303D01*
X372824Y317303D01*
X372699Y317259D01*
X372574Y317219D01*
X372566Y317213D01*
X372557Y317210D01*
X372495Y317164D01*
X372341Y317060D01*
X372326Y317041D01*
X372308Y317028D01*
X348583Y293303D01*
X306843Y293303D01*
X306779Y293294D01*
X306715Y293295D01*
X306640Y293274D01*
X306563Y293263D01*
X306505Y293237D01*
X306443Y293220D01*
X306377Y293179D01*
X306307Y293147D01*
X306258Y293105D01*
X306203Y293072D01*
X306151Y293014D01*
X306092Y292964D01*
X306057Y292910D01*
X306014Y292862D01*
X305980Y292793D01*
X305938Y292728D01*
X305919Y292666D01*
X305891Y292609D01*
X305880Y292539D01*
X305855Y292458D01*
X305854Y292373D01*
X305843Y292304D01*
X305843Y281405D01*
X304671Y280234D01*
X292014Y280234D01*
G37*
%LPD*%
%LPC*%
G36*
X284114Y114777D02*
X284114Y114777D01*
X282942Y115949D01*
X282942Y125656D01*
X282928Y125751D01*
X282923Y125847D01*
X282908Y125891D01*
X282902Y125936D01*
X282862Y126023D01*
X282831Y126114D01*
X282806Y126148D01*
X282786Y126192D01*
X282702Y126290D01*
X282649Y126363D01*
X282318Y126694D01*
X282241Y126752D01*
X282170Y126816D01*
X282129Y126836D01*
X282092Y126863D01*
X282002Y126897D01*
X281916Y126939D01*
X281874Y126946D01*
X281828Y126963D01*
X281701Y126973D01*
X281611Y126987D01*
X280629Y126987D01*
X278574Y127838D01*
X277001Y129411D01*
X276150Y131465D01*
X276150Y133690D01*
X277001Y135744D01*
X278574Y137317D01*
X280629Y138168D01*
X281186Y138168D01*
X281249Y138177D01*
X281314Y138176D01*
X281388Y138197D01*
X281465Y138208D01*
X281523Y138234D01*
X281585Y138252D01*
X281651Y138292D01*
X281722Y138324D01*
X281771Y138366D01*
X281825Y138400D01*
X281877Y138457D01*
X281936Y138508D01*
X281971Y138561D01*
X282014Y138609D01*
X282048Y138679D01*
X282091Y138744D01*
X282109Y138805D01*
X282137Y138863D01*
X282148Y138932D01*
X282173Y139013D01*
X282174Y139098D01*
X282185Y139167D01*
X282185Y141575D01*
X283036Y143630D01*
X284609Y145203D01*
X286182Y145854D01*
X286256Y145898D01*
X286335Y145934D01*
X286377Y145970D01*
X286424Y145998D01*
X286484Y146061D01*
X286550Y146118D01*
X286580Y146164D01*
X286617Y146204D01*
X286657Y146281D01*
X286704Y146354D01*
X286720Y146406D01*
X286745Y146455D01*
X286761Y146540D01*
X286787Y146623D01*
X286787Y146678D01*
X286798Y146732D01*
X286789Y146819D01*
X286790Y146905D01*
X286776Y146958D01*
X286770Y147013D01*
X286738Y147093D01*
X286715Y147177D01*
X286686Y147224D01*
X286666Y147275D01*
X286613Y147343D01*
X286567Y147417D01*
X286526Y147454D01*
X286493Y147497D01*
X286422Y147548D01*
X286358Y147606D01*
X286308Y147630D01*
X286264Y147662D01*
X286182Y147691D01*
X286104Y147729D01*
X286054Y147737D01*
X285998Y147757D01*
X285884Y147763D01*
X285799Y147777D01*
X266414Y147777D01*
X265242Y148949D01*
X265242Y186206D01*
X266414Y187378D01*
X287871Y187378D01*
X289043Y186206D01*
X289043Y148949D01*
X287854Y147760D01*
X287835Y147734D01*
X287810Y147713D01*
X287750Y147621D01*
X287685Y147534D01*
X287674Y147504D01*
X287656Y147477D01*
X287624Y147372D01*
X287585Y147270D01*
X287583Y147238D01*
X287574Y147207D01*
X287572Y147098D01*
X287564Y146989D01*
X287570Y146957D01*
X287570Y146925D01*
X287599Y146820D01*
X287621Y146713D01*
X287636Y146684D01*
X287645Y146653D01*
X287702Y146560D01*
X287754Y146464D01*
X287776Y146441D01*
X287793Y146413D01*
X287874Y146340D01*
X287950Y146262D01*
X287979Y146246D01*
X288002Y146224D01*
X288101Y146177D01*
X288196Y146123D01*
X288227Y146115D01*
X288256Y146101D01*
X288345Y146087D01*
X288470Y146058D01*
X288519Y146060D01*
X288561Y146054D01*
X288888Y146054D01*
X290943Y145203D01*
X292515Y143630D01*
X293366Y141575D01*
X293366Y139351D01*
X292619Y137547D01*
X292609Y137507D01*
X292591Y137470D01*
X292577Y137384D01*
X292549Y137274D01*
X292551Y137215D01*
X292543Y137165D01*
X292543Y115949D01*
X291371Y114777D01*
X284114Y114777D01*
G37*
%LPD*%
%LPC*%
G36*
X282655Y246675D02*
X282655Y246675D01*
X280600Y247526D01*
X279569Y248557D01*
X279492Y248615D01*
X279420Y248679D01*
X279379Y248699D01*
X279343Y248726D01*
X279253Y248760D01*
X279167Y248802D01*
X279124Y248809D01*
X279079Y248826D01*
X278951Y248836D01*
X278862Y248850D01*
X268518Y248850D01*
X267346Y250022D01*
X267346Y266679D01*
X268518Y267851D01*
X270847Y267851D01*
X270911Y267860D01*
X270975Y267859D01*
X271049Y267880D01*
X271126Y267891D01*
X271185Y267917D01*
X271247Y267935D01*
X271313Y267975D01*
X271383Y268007D01*
X271432Y268049D01*
X271487Y268083D01*
X271538Y268140D01*
X271597Y268191D01*
X271633Y268244D01*
X271676Y268292D01*
X271709Y268362D01*
X271752Y268427D01*
X271771Y268488D01*
X271799Y268546D01*
X271809Y268615D01*
X271834Y268696D01*
X271835Y268781D01*
X271846Y268850D01*
X271846Y270824D01*
X271837Y270886D01*
X271838Y270928D01*
X271838Y270929D01*
X271838Y270952D01*
X271817Y271027D01*
X271806Y271103D01*
X271780Y271162D01*
X271763Y271224D01*
X271722Y271290D01*
X271690Y271360D01*
X271648Y271409D01*
X271615Y271464D01*
X271557Y271516D01*
X271507Y271574D01*
X271453Y271610D01*
X271405Y271653D01*
X271336Y271686D01*
X271271Y271729D01*
X271209Y271748D01*
X271151Y271776D01*
X271082Y271787D01*
X271001Y271811D01*
X270916Y271812D01*
X270847Y271823D01*
X265683Y271823D01*
X264511Y272995D01*
X264511Y279153D01*
X265683Y280325D01*
X282091Y280325D01*
X283263Y279153D01*
X283263Y279114D01*
X283272Y279051D01*
X283271Y278986D01*
X283292Y278912D01*
X283303Y278835D01*
X283329Y278777D01*
X283346Y278715D01*
X283387Y278649D01*
X283419Y278578D01*
X283461Y278529D01*
X283495Y278475D01*
X283552Y278423D01*
X283602Y278364D01*
X283656Y278329D01*
X283704Y278286D01*
X283773Y278252D01*
X283838Y278209D01*
X283900Y278191D01*
X283958Y278163D01*
X284027Y278152D01*
X284108Y278127D01*
X284193Y278126D01*
X284262Y278115D01*
X296120Y278115D01*
X296707Y277528D01*
X296784Y277470D01*
X296855Y277406D01*
X296896Y277386D01*
X296933Y277358D01*
X297023Y277324D01*
X297109Y277283D01*
X297151Y277276D01*
X297197Y277259D01*
X297324Y277249D01*
X297414Y277235D01*
X304671Y277235D01*
X305843Y276063D01*
X305843Y269418D01*
X305845Y269409D01*
X305844Y269399D01*
X305865Y269269D01*
X305883Y269139D01*
X305887Y269130D01*
X305889Y269121D01*
X305945Y269002D01*
X305999Y268882D01*
X306006Y268875D01*
X306010Y268866D01*
X306097Y268768D01*
X306183Y268668D01*
X306191Y268663D01*
X306197Y268655D01*
X306263Y268615D01*
X306419Y268513D01*
X306442Y268506D01*
X306460Y268495D01*
X306769Y268367D01*
X308341Y266795D01*
X309193Y264740D01*
X309193Y262516D01*
X308341Y260461D01*
X306769Y258888D01*
X304714Y258037D01*
X302490Y258037D01*
X300435Y258888D01*
X299197Y260126D01*
X299146Y260164D01*
X299101Y260210D01*
X299034Y260248D01*
X298972Y260295D01*
X298912Y260317D01*
X298856Y260349D01*
X298780Y260367D01*
X298708Y260394D01*
X298644Y260399D01*
X298581Y260414D01*
X298504Y260410D01*
X298427Y260416D01*
X298364Y260403D01*
X298300Y260400D01*
X298227Y260374D01*
X298151Y260359D01*
X298094Y260328D01*
X298033Y260307D01*
X297977Y260266D01*
X297902Y260226D01*
X297841Y260167D01*
X297784Y260126D01*
X297430Y259771D01*
X295375Y258920D01*
X293151Y258920D01*
X291096Y259771D01*
X290366Y260501D01*
X290314Y260540D01*
X290270Y260586D01*
X290202Y260624D01*
X290140Y260670D01*
X290080Y260693D01*
X290024Y260725D01*
X289949Y260743D01*
X289876Y260770D01*
X289812Y260775D01*
X289750Y260790D01*
X289672Y260786D01*
X289595Y260792D01*
X289532Y260779D01*
X289468Y260775D01*
X289395Y260750D01*
X289319Y260734D01*
X289262Y260704D01*
X289202Y260683D01*
X289145Y260641D01*
X289070Y260602D01*
X289009Y260542D01*
X288953Y260501D01*
X287302Y258850D01*
X287118Y258774D01*
X287016Y258714D01*
X286912Y258658D01*
X286895Y258642D01*
X286876Y258631D01*
X286795Y258544D01*
X286710Y258461D01*
X286698Y258442D01*
X286683Y258425D01*
X286629Y258319D01*
X286570Y258216D01*
X286565Y258194D01*
X286555Y258174D01*
X286533Y258057D01*
X286506Y257942D01*
X286507Y257919D01*
X286502Y257896D01*
X286514Y257779D01*
X286520Y257660D01*
X286527Y257638D01*
X286530Y257616D01*
X286573Y257506D01*
X286612Y257393D01*
X286625Y257376D01*
X286634Y257354D01*
X286749Y257206D01*
X286767Y257182D01*
X286774Y257171D01*
X286778Y257167D01*
X286794Y257144D01*
X288506Y255432D01*
X289357Y253378D01*
X289357Y251153D01*
X288506Y249099D01*
X286934Y247526D01*
X284879Y246675D01*
X282655Y246675D01*
G37*
%LPD*%
%LPC*%
G36*
X192934Y119209D02*
X192934Y119209D01*
X190879Y120060D01*
X189306Y121632D01*
X188448Y123703D01*
X188446Y123720D01*
X188447Y123785D01*
X188426Y123859D01*
X188415Y123936D01*
X188389Y123994D01*
X188371Y124056D01*
X188331Y124122D01*
X188299Y124193D01*
X188257Y124242D01*
X188223Y124296D01*
X188166Y124348D01*
X188115Y124407D01*
X188062Y124442D01*
X188014Y124485D01*
X187944Y124519D01*
X187879Y124562D01*
X187818Y124580D01*
X187760Y124608D01*
X187691Y124619D01*
X187610Y124644D01*
X187525Y124645D01*
X187456Y124656D01*
X181129Y124656D01*
X179957Y125828D01*
X179957Y138486D01*
X181129Y139657D01*
X181957Y139657D01*
X182021Y139667D01*
X182085Y139666D01*
X182160Y139686D01*
X182237Y139697D01*
X182295Y139724D01*
X182357Y139741D01*
X182423Y139782D01*
X182494Y139814D01*
X182542Y139855D01*
X182597Y139889D01*
X182649Y139947D01*
X182708Y139997D01*
X182743Y140051D01*
X182786Y140098D01*
X182820Y140168D01*
X182862Y140233D01*
X182881Y140294D01*
X182909Y140352D01*
X182920Y140422D01*
X182945Y140503D01*
X182946Y140587D01*
X182949Y140605D01*
X182953Y140622D01*
X182952Y140628D01*
X182957Y140657D01*
X182957Y140712D01*
X182948Y140771D01*
X182949Y140785D01*
X182944Y140800D01*
X182943Y140807D01*
X182938Y140904D01*
X182923Y140947D01*
X182917Y140992D01*
X182877Y141079D01*
X182846Y141170D01*
X182821Y141204D01*
X182801Y141249D01*
X182717Y141346D01*
X182664Y141419D01*
X180566Y143517D01*
X180566Y158814D01*
X182031Y160279D01*
X187102Y160279D01*
X188567Y158814D01*
X188567Y155747D01*
X188576Y155684D01*
X188576Y155619D01*
X188596Y155545D01*
X188607Y155468D01*
X188634Y155410D01*
X188651Y155348D01*
X188691Y155282D01*
X188723Y155211D01*
X188765Y155162D01*
X188799Y155108D01*
X188856Y155056D01*
X188907Y154997D01*
X188961Y154962D01*
X189008Y154919D01*
X189078Y154885D01*
X189143Y154842D01*
X189204Y154824D01*
X189262Y154796D01*
X189331Y154785D01*
X189412Y154760D01*
X189497Y154759D01*
X189567Y154748D01*
X191289Y154748D01*
X191353Y154757D01*
X191417Y154756D01*
X191491Y154777D01*
X191568Y154788D01*
X191627Y154814D01*
X191689Y154831D01*
X191755Y154872D01*
X191825Y154904D01*
X191874Y154946D01*
X191929Y154980D01*
X191980Y155037D01*
X192039Y155087D01*
X192075Y155141D01*
X192118Y155189D01*
X192151Y155259D01*
X192194Y155323D01*
X192213Y155385D01*
X192241Y155443D01*
X192251Y155512D01*
X192276Y155593D01*
X192277Y155678D01*
X192288Y155747D01*
X192288Y159476D01*
X193460Y160648D01*
X211118Y160648D01*
X212290Y159476D01*
X212290Y149815D01*
X212291Y149806D01*
X212290Y149796D01*
X212311Y149666D01*
X212329Y149536D01*
X212333Y149527D01*
X212335Y149518D01*
X212392Y149398D01*
X212446Y149279D01*
X212452Y149272D01*
X212456Y149263D01*
X212544Y149164D01*
X212629Y149065D01*
X212637Y149059D01*
X212643Y149052D01*
X212709Y149012D01*
X212865Y148910D01*
X212886Y148904D01*
X214464Y147325D01*
X215316Y145270D01*
X215316Y143046D01*
X214464Y140991D01*
X212892Y139419D01*
X210837Y138568D01*
X208613Y138568D01*
X206558Y139419D01*
X204985Y140991D01*
X204560Y142017D01*
X204544Y142045D01*
X204534Y142076D01*
X204472Y142166D01*
X204417Y142260D01*
X204393Y142282D01*
X204375Y142309D01*
X204291Y142378D01*
X204211Y142453D01*
X204182Y142467D01*
X204157Y142488D01*
X204057Y142531D01*
X203960Y142580D01*
X203928Y142586D01*
X203898Y142599D01*
X203790Y142613D01*
X203683Y142633D01*
X203650Y142630D01*
X203618Y142634D01*
X203511Y142616D01*
X203402Y142606D01*
X203372Y142594D01*
X203340Y142589D01*
X203241Y142542D01*
X203140Y142501D01*
X203114Y142482D01*
X203085Y142468D01*
X203004Y142395D01*
X202918Y142328D01*
X202899Y142302D01*
X202875Y142280D01*
X202827Y142203D01*
X202752Y142099D01*
X202736Y142053D01*
X202714Y142017D01*
X201894Y140037D01*
X200250Y138392D01*
X200243Y138388D01*
X200200Y138343D01*
X200198Y138341D01*
X200148Y138302D01*
X200103Y138239D01*
X200050Y138183D01*
X200021Y138125D01*
X199983Y138073D01*
X199957Y138000D01*
X199922Y137931D01*
X199910Y137868D01*
X199889Y137808D01*
X199884Y137730D01*
X199870Y137654D01*
X199876Y137590D01*
X199872Y137526D01*
X199889Y137458D01*
X199897Y137373D01*
X199928Y137295D01*
X199945Y137226D01*
X200659Y135501D01*
X200659Y133277D01*
X199808Y131222D01*
X198375Y129789D01*
X198337Y129738D01*
X198290Y129693D01*
X198252Y129626D01*
X198206Y129564D01*
X198183Y129504D01*
X198151Y129448D01*
X198134Y129372D01*
X198106Y129300D01*
X198101Y129236D01*
X198086Y129173D01*
X198090Y129096D01*
X198084Y129019D01*
X198098Y128956D01*
X198101Y128892D01*
X198126Y128818D01*
X198142Y128743D01*
X198172Y128686D01*
X198193Y128625D01*
X198235Y128569D01*
X198275Y128494D01*
X198334Y128433D01*
X198375Y128376D01*
X198785Y127966D01*
X199636Y125911D01*
X199636Y123687D01*
X198785Y121632D01*
X197213Y120060D01*
X195158Y119209D01*
X192934Y119209D01*
G37*
%LPD*%
%LPC*%
G36*
X377614Y147777D02*
X377614Y147777D01*
X376442Y148949D01*
X376442Y186206D01*
X377614Y187378D01*
X399071Y187378D01*
X400243Y186206D01*
X400243Y148949D01*
X399071Y147777D01*
X377614Y147777D01*
G37*
%LPD*%
%LPC*%
G36*
X298677Y94334D02*
X298677Y94334D01*
X296622Y95185D01*
X295049Y96757D01*
X294198Y98812D01*
X294198Y101036D01*
X295049Y103091D01*
X296622Y104664D01*
X298677Y105515D01*
X300901Y105515D01*
X301180Y105399D01*
X301189Y105397D01*
X301198Y105392D01*
X301327Y105362D01*
X301453Y105329D01*
X301463Y105330D01*
X301472Y105327D01*
X301605Y105334D01*
X301735Y105338D01*
X301744Y105341D01*
X301754Y105342D01*
X301879Y105385D01*
X302003Y105426D01*
X302011Y105431D01*
X302020Y105434D01*
X302083Y105480D01*
X302236Y105585D01*
X302252Y105603D01*
X302269Y105616D01*
X305179Y108526D01*
X305237Y108603D01*
X305301Y108674D01*
X305321Y108715D01*
X305348Y108751D01*
X305382Y108841D01*
X305424Y108928D01*
X305431Y108970D01*
X305448Y109015D01*
X305458Y109143D01*
X305472Y109232D01*
X305472Y113777D01*
X305463Y113841D01*
X305464Y113905D01*
X305443Y113980D01*
X305432Y114057D01*
X305406Y114115D01*
X305388Y114177D01*
X305348Y114243D01*
X305316Y114314D01*
X305274Y114362D01*
X305240Y114417D01*
X305183Y114469D01*
X305132Y114528D01*
X305079Y114563D01*
X305031Y114606D01*
X304961Y114640D01*
X304896Y114682D01*
X304835Y114701D01*
X304777Y114729D01*
X304708Y114740D01*
X304627Y114765D01*
X304542Y114766D01*
X304473Y114777D01*
X304114Y114777D01*
X302942Y115949D01*
X302942Y137906D01*
X304114Y139078D01*
X304473Y139078D01*
X304536Y139087D01*
X304600Y139086D01*
X304675Y139107D01*
X304752Y139118D01*
X304810Y139144D01*
X304872Y139162D01*
X304938Y139202D01*
X305009Y139234D01*
X305057Y139276D01*
X305112Y139310D01*
X305164Y139367D01*
X305223Y139418D01*
X305258Y139471D01*
X305301Y139519D01*
X305335Y139589D01*
X305377Y139653D01*
X305396Y139715D01*
X305424Y139773D01*
X305435Y139842D01*
X305460Y139923D01*
X305461Y140008D01*
X305472Y140077D01*
X305472Y183217D01*
X305458Y183312D01*
X305453Y183409D01*
X305438Y183452D01*
X305432Y183497D01*
X305392Y183584D01*
X305361Y183675D01*
X305336Y183709D01*
X305316Y183754D01*
X305232Y183851D01*
X305179Y183924D01*
X289062Y200041D01*
X288985Y200099D01*
X288913Y200164D01*
X288872Y200183D01*
X288836Y200211D01*
X288746Y200245D01*
X288660Y200287D01*
X288618Y200293D01*
X288572Y200310D01*
X288445Y200320D01*
X288355Y200334D01*
X278651Y200334D01*
X277479Y201506D01*
X277479Y213164D01*
X278651Y214336D01*
X291308Y214336D01*
X292480Y213164D01*
X292480Y203459D01*
X292494Y203364D01*
X292499Y203268D01*
X292514Y203225D01*
X292520Y203180D01*
X292560Y203093D01*
X292591Y203002D01*
X292616Y202967D01*
X292636Y202923D01*
X292720Y202826D01*
X292773Y202753D01*
X310013Y185512D01*
X310013Y140077D01*
X310022Y140014D01*
X310021Y139949D01*
X310042Y139875D01*
X310053Y139798D01*
X310079Y139740D01*
X310097Y139678D01*
X310137Y139612D01*
X310169Y139541D01*
X310211Y139492D01*
X310245Y139438D01*
X310302Y139386D01*
X310353Y139327D01*
X310406Y139292D01*
X310454Y139249D01*
X310524Y139215D01*
X310589Y139172D01*
X310650Y139154D01*
X310708Y139126D01*
X310777Y139115D01*
X310858Y139090D01*
X310943Y139089D01*
X311012Y139078D01*
X311371Y139078D01*
X312543Y137906D01*
X312543Y115949D01*
X311371Y114777D01*
X311012Y114777D01*
X310949Y114768D01*
X310885Y114768D01*
X310810Y114748D01*
X310733Y114737D01*
X310675Y114710D01*
X310613Y114693D01*
X310547Y114652D01*
X310476Y114621D01*
X310428Y114579D01*
X310373Y114545D01*
X310321Y114488D01*
X310262Y114437D01*
X310227Y114383D01*
X310184Y114336D01*
X310150Y114266D01*
X310108Y114201D01*
X310089Y114140D01*
X310061Y114082D01*
X310050Y114013D01*
X310025Y113932D01*
X310024Y113847D01*
X310013Y113777D01*
X310013Y106937D01*
X308391Y105315D01*
X308390Y105315D01*
X305480Y102405D01*
X305475Y102397D01*
X305467Y102391D01*
X305390Y102284D01*
X305311Y102179D01*
X305308Y102170D01*
X305302Y102162D01*
X305258Y102039D01*
X305212Y101915D01*
X305211Y101906D01*
X305208Y101897D01*
X305200Y101765D01*
X305190Y101634D01*
X305192Y101625D01*
X305191Y101615D01*
X305210Y101540D01*
X305247Y101358D01*
X305259Y101337D01*
X305264Y101316D01*
X305380Y101036D01*
X305380Y98812D01*
X304528Y96757D01*
X302956Y95185D01*
X300901Y94334D01*
X298677Y94334D01*
G37*
%LPD*%
%LPC*%
G36*
X113636Y161254D02*
X113636Y161254D01*
X112172Y162719D01*
X112172Y175691D01*
X113291Y176810D01*
X113349Y176887D01*
X113413Y176958D01*
X113433Y176999D01*
X113460Y177036D01*
X113494Y177126D01*
X113536Y177212D01*
X113543Y177254D01*
X113560Y177300D01*
X113570Y177427D01*
X113584Y177517D01*
X113584Y178268D01*
X113579Y178300D01*
X113582Y178332D01*
X113559Y178439D01*
X113544Y178547D01*
X113531Y178577D01*
X113524Y178608D01*
X113473Y178705D01*
X113428Y178804D01*
X113407Y178829D01*
X113392Y178857D01*
X113315Y178936D01*
X113244Y179019D01*
X113217Y179036D01*
X113195Y179059D01*
X113100Y179113D01*
X113008Y179173D01*
X112977Y179182D01*
X112949Y179198D01*
X112843Y179224D01*
X112739Y179255D01*
X112706Y179256D01*
X112675Y179263D01*
X112566Y179258D01*
X112457Y179259D01*
X112425Y179251D01*
X112393Y179249D01*
X112290Y179213D01*
X112185Y179184D01*
X112157Y179167D01*
X112127Y179156D01*
X112054Y179103D01*
X111945Y179036D01*
X111912Y179000D01*
X111878Y178975D01*
X111222Y178319D01*
X96565Y178319D01*
X95393Y179491D01*
X95393Y197148D01*
X96565Y198320D01*
X111222Y198320D01*
X112394Y197148D01*
X112394Y191590D01*
X112403Y191526D01*
X112402Y191462D01*
X112423Y191387D01*
X112434Y191310D01*
X112460Y191252D01*
X112478Y191190D01*
X112518Y191124D01*
X112550Y191054D01*
X112592Y191005D01*
X112626Y190950D01*
X112683Y190898D01*
X112734Y190839D01*
X112787Y190804D01*
X112835Y190761D01*
X112905Y190727D01*
X112970Y190685D01*
X113031Y190666D01*
X113089Y190638D01*
X113158Y190627D01*
X113239Y190602D01*
X113324Y190601D01*
X113393Y190590D01*
X113819Y190590D01*
X113883Y190599D01*
X113947Y190599D01*
X114022Y190619D01*
X114099Y190630D01*
X114157Y190657D01*
X114219Y190674D01*
X114285Y190715D01*
X114356Y190746D01*
X114404Y190788D01*
X114459Y190822D01*
X114511Y190879D01*
X114570Y190930D01*
X114605Y190984D01*
X114648Y191031D01*
X114682Y191101D01*
X114724Y191166D01*
X114743Y191227D01*
X114771Y191285D01*
X114782Y191354D01*
X114807Y191436D01*
X114808Y191520D01*
X114819Y191590D01*
X114819Y191765D01*
X115991Y192937D01*
X128648Y192937D01*
X129820Y191765D01*
X129820Y180107D01*
X128648Y178935D01*
X125841Y178935D01*
X125809Y178931D01*
X125777Y178933D01*
X125670Y178911D01*
X125562Y178895D01*
X125532Y178882D01*
X125501Y178876D01*
X125404Y178824D01*
X125305Y178779D01*
X125280Y178758D01*
X125252Y178743D01*
X125174Y178667D01*
X125090Y178596D01*
X125073Y178569D01*
X125050Y178546D01*
X124996Y178451D01*
X124936Y178360D01*
X124927Y178329D01*
X124911Y178301D01*
X124885Y178195D01*
X124854Y178090D01*
X124853Y178058D01*
X124846Y178027D01*
X124851Y177917D01*
X124850Y177808D01*
X124858Y177777D01*
X124860Y177745D01*
X124896Y177642D01*
X124925Y177536D01*
X124942Y177509D01*
X124953Y177478D01*
X125006Y177405D01*
X125073Y177296D01*
X125109Y177264D01*
X125134Y177229D01*
X126673Y175691D01*
X126673Y162719D01*
X125208Y161254D01*
X120136Y161254D01*
X120129Y161262D01*
X120078Y161300D01*
X120033Y161346D01*
X119965Y161384D01*
X119903Y161431D01*
X119843Y161454D01*
X119787Y161485D01*
X119712Y161503D01*
X119639Y161531D01*
X119575Y161536D01*
X119513Y161550D01*
X119435Y161546D01*
X119358Y161552D01*
X119296Y161539D01*
X119231Y161536D01*
X119158Y161511D01*
X119082Y161495D01*
X119025Y161465D01*
X118965Y161443D01*
X118908Y161402D01*
X118833Y161362D01*
X118772Y161303D01*
X118716Y161262D01*
X118708Y161254D01*
X113636Y161254D01*
G37*
%LPD*%
%LPC*%
G36*
X115991Y195935D02*
X115991Y195935D01*
X114819Y197107D01*
X114819Y206812D01*
X114805Y206906D01*
X114800Y207003D01*
X114785Y207046D01*
X114779Y207091D01*
X114739Y207178D01*
X114708Y207269D01*
X114683Y207304D01*
X114663Y207348D01*
X114579Y207445D01*
X114563Y207468D01*
X114550Y207488D01*
X114543Y207494D01*
X114526Y207518D01*
X74327Y247717D01*
X74327Y297955D01*
X80253Y303882D01*
X80259Y303889D01*
X80267Y303895D01*
X80344Y304002D01*
X80423Y304107D01*
X80426Y304116D01*
X80432Y304124D01*
X80476Y304248D01*
X80522Y304371D01*
X80523Y304380D01*
X80526Y304389D01*
X80534Y304521D01*
X80544Y304652D01*
X80542Y304661D01*
X80543Y304671D01*
X80525Y304746D01*
X80486Y304928D01*
X80475Y304949D01*
X80470Y304970D01*
X80354Y305250D01*
X80354Y307474D01*
X81206Y309529D01*
X82778Y311101D01*
X84833Y311953D01*
X87057Y311953D01*
X89112Y311101D01*
X90685Y309529D01*
X91536Y307474D01*
X91536Y305250D01*
X90685Y303195D01*
X89112Y301622D01*
X87057Y300771D01*
X84833Y300771D01*
X84554Y300887D01*
X84545Y300889D01*
X84536Y300894D01*
X84407Y300924D01*
X84281Y300957D01*
X84271Y300957D01*
X84262Y300959D01*
X84129Y300952D01*
X83999Y300948D01*
X83990Y300945D01*
X83980Y300944D01*
X83856Y300901D01*
X83731Y300860D01*
X83723Y300855D01*
X83714Y300852D01*
X83652Y300807D01*
X83498Y300702D01*
X83482Y300683D01*
X83465Y300670D01*
X79161Y296367D01*
X79104Y296290D01*
X79039Y296219D01*
X79019Y296178D01*
X78992Y296141D01*
X78958Y296051D01*
X78916Y295965D01*
X78910Y295923D01*
X78893Y295877D01*
X78883Y295750D01*
X78869Y295660D01*
X78869Y250012D01*
X78882Y249917D01*
X78887Y249821D01*
X78902Y249778D01*
X78909Y249733D01*
X78948Y249645D01*
X78980Y249554D01*
X79005Y249520D01*
X79025Y249476D01*
X79108Y249378D01*
X79161Y249305D01*
X118237Y210229D01*
X118314Y210172D01*
X118385Y210107D01*
X118426Y210087D01*
X118463Y210060D01*
X118553Y210026D01*
X118639Y209984D01*
X118681Y209978D01*
X118727Y209961D01*
X118854Y209951D01*
X118944Y209937D01*
X128648Y209937D01*
X129820Y208765D01*
X129820Y197107D01*
X128648Y195935D01*
X115991Y195935D01*
G37*
%LPD*%
%LPC*%
G36*
X177186Y199251D02*
X177186Y199251D01*
X176014Y200423D01*
X176014Y210127D01*
X176001Y210222D01*
X175996Y210319D01*
X175981Y210362D01*
X175974Y210407D01*
X175935Y210494D01*
X175903Y210585D01*
X175878Y210619D01*
X175858Y210664D01*
X175775Y210761D01*
X175721Y210834D01*
X121032Y265523D01*
X121032Y300544D01*
X121030Y300555D01*
X121032Y300566D01*
X121011Y300689D01*
X121009Y300737D01*
X121001Y300759D01*
X120992Y300823D01*
X120988Y300833D01*
X120986Y300844D01*
X120935Y300951D01*
X120916Y301004D01*
X120901Y301025D01*
X120876Y301080D01*
X120869Y301088D01*
X120864Y301098D01*
X120777Y301196D01*
X120771Y301203D01*
X120735Y301253D01*
X119021Y302966D01*
X118170Y305021D01*
X118170Y307245D01*
X119021Y309300D01*
X120594Y310872D01*
X122649Y311723D01*
X124873Y311723D01*
X126928Y310872D01*
X128501Y309300D01*
X129352Y307245D01*
X129352Y305021D01*
X128501Y302966D01*
X126928Y301393D01*
X126190Y301088D01*
X126182Y301083D01*
X126173Y301080D01*
X126060Y301011D01*
X125948Y300944D01*
X125941Y300937D01*
X125933Y300932D01*
X125845Y300834D01*
X125755Y300738D01*
X125750Y300730D01*
X125744Y300723D01*
X125686Y300604D01*
X125627Y300487D01*
X125625Y300478D01*
X125621Y300469D01*
X125609Y300393D01*
X125574Y300210D01*
X125577Y300186D01*
X125573Y300164D01*
X125573Y267819D01*
X125587Y267724D01*
X125592Y267627D01*
X125607Y267584D01*
X125613Y267539D01*
X125653Y267452D01*
X125684Y267361D01*
X125709Y267327D01*
X125729Y267282D01*
X125793Y267208D01*
X125821Y267163D01*
X125844Y267142D01*
X125866Y267112D01*
X179433Y213545D01*
X179509Y213488D01*
X179581Y213423D01*
X179622Y213403D01*
X179658Y213376D01*
X179748Y213342D01*
X179835Y213300D01*
X179877Y213294D01*
X179922Y213277D01*
X180050Y213267D01*
X180139Y213253D01*
X189844Y213253D01*
X191016Y212081D01*
X191016Y200423D01*
X189844Y199251D01*
X177186Y199251D01*
G37*
%LPD*%
%LPC*%
G36*
X175531Y163578D02*
X175531Y163578D01*
X174066Y165043D01*
X174066Y178014D01*
X175503Y179452D01*
X175561Y179529D01*
X175625Y179600D01*
X175645Y179641D01*
X175672Y179677D01*
X175706Y179767D01*
X175748Y179854D01*
X175755Y179896D01*
X175772Y179941D01*
X175782Y180069D01*
X175796Y180158D01*
X175796Y180843D01*
X176489Y181535D01*
X176527Y181587D01*
X176573Y181632D01*
X176612Y181699D01*
X176658Y181761D01*
X176681Y181821D01*
X176712Y181877D01*
X176730Y181952D01*
X176758Y182025D01*
X176763Y182089D01*
X176777Y182151D01*
X176773Y182229D01*
X176779Y182306D01*
X176766Y182369D01*
X176763Y182433D01*
X176738Y182506D01*
X176722Y182582D01*
X176692Y182639D01*
X176670Y182700D01*
X176629Y182756D01*
X176589Y182831D01*
X176530Y182892D01*
X176489Y182949D01*
X176014Y183423D01*
X176014Y186228D01*
X176005Y186292D01*
X176006Y186356D01*
X175985Y186431D01*
X175974Y186508D01*
X175948Y186566D01*
X175931Y186628D01*
X175890Y186694D01*
X175858Y186765D01*
X175816Y186813D01*
X175782Y186868D01*
X175725Y186920D01*
X175675Y186979D01*
X175621Y187014D01*
X175573Y187057D01*
X175504Y187091D01*
X175439Y187133D01*
X175377Y187152D01*
X175319Y187180D01*
X175250Y187191D01*
X175169Y187216D01*
X175084Y187217D01*
X175015Y187228D01*
X174103Y187228D01*
X174040Y187219D01*
X173975Y187220D01*
X173901Y187199D01*
X173824Y187188D01*
X173766Y187161D01*
X173704Y187144D01*
X173638Y187104D01*
X173567Y187072D01*
X173518Y187030D01*
X173464Y186996D01*
X173412Y186939D01*
X173353Y186888D01*
X173318Y186835D01*
X173275Y186787D01*
X173241Y186717D01*
X173198Y186652D01*
X173180Y186591D01*
X173152Y186533D01*
X173141Y186464D01*
X173116Y186383D01*
X173115Y186298D01*
X173104Y186228D01*
X173104Y180670D01*
X171932Y179498D01*
X157275Y179498D01*
X156103Y180670D01*
X156103Y198327D01*
X157275Y199499D01*
X171932Y199499D01*
X173104Y198327D01*
X173104Y192768D01*
X173113Y192705D01*
X173112Y192641D01*
X173133Y192566D01*
X173144Y192489D01*
X173170Y192431D01*
X173188Y192369D01*
X173228Y192303D01*
X173260Y192232D01*
X173302Y192184D01*
X173336Y192129D01*
X173393Y192077D01*
X173444Y192018D01*
X173497Y191983D01*
X173545Y191940D01*
X173615Y191906D01*
X173679Y191864D01*
X173741Y191845D01*
X173799Y191817D01*
X173868Y191806D01*
X173949Y191781D01*
X174034Y191780D01*
X174103Y191769D01*
X175015Y191769D01*
X175078Y191778D01*
X175143Y191777D01*
X175217Y191798D01*
X175294Y191809D01*
X175352Y191835D01*
X175414Y191853D01*
X175480Y191893D01*
X175551Y191925D01*
X175600Y191967D01*
X175654Y192001D01*
X175706Y192058D01*
X175765Y192109D01*
X175800Y192162D01*
X175843Y192210D01*
X175877Y192280D01*
X175920Y192345D01*
X175938Y192406D01*
X175966Y192464D01*
X175977Y192533D01*
X176002Y192614D01*
X176003Y192699D01*
X176014Y192768D01*
X176014Y195081D01*
X177186Y196253D01*
X189844Y196253D01*
X191016Y195081D01*
X191016Y183423D01*
X189844Y182251D01*
X184041Y182251D01*
X183946Y182238D01*
X183850Y182233D01*
X183807Y182218D01*
X183762Y182211D01*
X183674Y182172D01*
X183584Y182140D01*
X183549Y182115D01*
X183505Y182095D01*
X183408Y182012D01*
X183335Y181959D01*
X182561Y181185D01*
X182542Y181159D01*
X182517Y181138D01*
X182457Y181047D01*
X182392Y180960D01*
X182380Y180929D01*
X182363Y180902D01*
X182331Y180798D01*
X182292Y180696D01*
X182290Y180663D01*
X182280Y180633D01*
X182279Y180523D01*
X182270Y180415D01*
X182277Y180383D01*
X182277Y180351D01*
X182306Y180245D01*
X182328Y180138D01*
X182343Y180110D01*
X182352Y180079D01*
X182409Y179986D01*
X182460Y179889D01*
X182483Y179866D01*
X182500Y179839D01*
X182581Y179766D01*
X182657Y179687D01*
X182685Y179672D01*
X182709Y179650D01*
X182807Y179602D01*
X182903Y179548D01*
X182934Y179541D01*
X182963Y179527D01*
X183052Y179513D01*
X183177Y179483D01*
X183225Y179486D01*
X183268Y179479D01*
X187102Y179479D01*
X188567Y178014D01*
X188567Y165043D01*
X187102Y163578D01*
X182031Y163578D01*
X182023Y163585D01*
X181972Y163624D01*
X181927Y163670D01*
X181860Y163708D01*
X181798Y163755D01*
X181737Y163777D01*
X181682Y163809D01*
X181606Y163827D01*
X181534Y163854D01*
X181470Y163859D01*
X181407Y163874D01*
X181330Y163870D01*
X181253Y163876D01*
X181190Y163863D01*
X181125Y163860D01*
X181052Y163834D01*
X180977Y163818D01*
X180920Y163788D01*
X180859Y163767D01*
X180802Y163726D01*
X180728Y163686D01*
X180667Y163627D01*
X180610Y163585D01*
X180602Y163578D01*
X175531Y163578D01*
G37*
%LPD*%
%LPC*%
G36*
X51596Y159778D02*
X51596Y159778D01*
X50131Y161243D01*
X50131Y174215D01*
X51568Y175652D01*
X51626Y175729D01*
X51690Y175800D01*
X51710Y175841D01*
X51737Y175877D01*
X51771Y175967D01*
X51813Y176054D01*
X51820Y176096D01*
X51837Y176141D01*
X51847Y176269D01*
X51861Y176358D01*
X51861Y177201D01*
X51847Y177296D01*
X51842Y177392D01*
X51827Y177436D01*
X51821Y177481D01*
X51781Y177568D01*
X51750Y177659D01*
X51725Y177693D01*
X51705Y177737D01*
X51621Y177835D01*
X51568Y177908D01*
X50889Y178587D01*
X50889Y183976D01*
X50880Y184039D01*
X50881Y184103D01*
X50860Y184178D01*
X50850Y184255D01*
X50823Y184313D01*
X50806Y184375D01*
X50765Y184441D01*
X50733Y184512D01*
X50692Y184560D01*
X50658Y184615D01*
X50600Y184667D01*
X50550Y184726D01*
X50496Y184761D01*
X50448Y184804D01*
X50379Y184838D01*
X50314Y184880D01*
X50252Y184899D01*
X50195Y184927D01*
X50125Y184938D01*
X50044Y184963D01*
X49960Y184964D01*
X49890Y184975D01*
X49641Y184975D01*
X49577Y184966D01*
X49513Y184967D01*
X49438Y184946D01*
X49362Y184935D01*
X49303Y184909D01*
X49241Y184891D01*
X49175Y184851D01*
X49105Y184819D01*
X49056Y184777D01*
X49001Y184743D01*
X48949Y184686D01*
X48890Y184635D01*
X48855Y184582D01*
X48812Y184534D01*
X48778Y184464D01*
X48736Y184399D01*
X48717Y184338D01*
X48689Y184280D01*
X48678Y184211D01*
X48654Y184130D01*
X48652Y184045D01*
X48642Y183976D01*
X48642Y178417D01*
X47470Y177245D01*
X32812Y177245D01*
X31640Y178417D01*
X31640Y196074D01*
X32812Y197246D01*
X47470Y197246D01*
X48642Y196074D01*
X48642Y190516D01*
X48651Y190452D01*
X48650Y190388D01*
X48670Y190313D01*
X48681Y190236D01*
X48708Y190178D01*
X48725Y190116D01*
X48766Y190050D01*
X48798Y189979D01*
X48839Y189931D01*
X48873Y189876D01*
X48931Y189824D01*
X48981Y189765D01*
X49035Y189730D01*
X49082Y189687D01*
X49152Y189653D01*
X49217Y189611D01*
X49278Y189592D01*
X49336Y189564D01*
X49406Y189553D01*
X49487Y189528D01*
X49571Y189527D01*
X49641Y189516D01*
X49890Y189516D01*
X49954Y189525D01*
X50018Y189524D01*
X50093Y189545D01*
X50169Y189556D01*
X50228Y189583D01*
X50290Y189600D01*
X50356Y189640D01*
X50426Y189672D01*
X50475Y189714D01*
X50530Y189748D01*
X50582Y189805D01*
X50641Y189856D01*
X50676Y189909D01*
X50719Y189957D01*
X50753Y190027D01*
X50795Y190092D01*
X50814Y190153D01*
X50828Y190183D01*
X52061Y191416D01*
X64719Y191416D01*
X65891Y190244D01*
X65891Y178587D01*
X64719Y177415D01*
X63844Y177415D01*
X63813Y177410D01*
X63780Y177413D01*
X63673Y177390D01*
X63565Y177375D01*
X63536Y177362D01*
X63504Y177355D01*
X63408Y177304D01*
X63308Y177259D01*
X63284Y177238D01*
X63255Y177223D01*
X63177Y177146D01*
X63094Y177075D01*
X63076Y177048D01*
X63053Y177026D01*
X63000Y176931D01*
X62940Y176839D01*
X62930Y176808D01*
X62914Y176780D01*
X62889Y176674D01*
X62857Y176570D01*
X62857Y176537D01*
X62849Y176506D01*
X62855Y176397D01*
X62853Y176288D01*
X62862Y176256D01*
X62864Y176224D01*
X62899Y176121D01*
X62929Y176016D01*
X62946Y175988D01*
X62956Y175958D01*
X63009Y175885D01*
X63077Y175776D01*
X63113Y175743D01*
X63138Y175709D01*
X64632Y174214D01*
X64632Y161243D01*
X63167Y159778D01*
X58096Y159778D01*
X58088Y159785D01*
X58037Y159824D01*
X57992Y159870D01*
X57925Y159908D01*
X57863Y159955D01*
X57802Y159977D01*
X57747Y160009D01*
X57671Y160027D01*
X57599Y160054D01*
X57535Y160059D01*
X57472Y160074D01*
X57395Y160070D01*
X57318Y160076D01*
X57255Y160063D01*
X57190Y160060D01*
X57117Y160034D01*
X57041Y160018D01*
X56985Y159988D01*
X56924Y159967D01*
X56867Y159926D01*
X56792Y159886D01*
X56732Y159827D01*
X56675Y159785D01*
X56667Y159778D01*
X51596Y159778D01*
G37*
%LPD*%
%LPC*%
G36*
X52061Y194415D02*
X52061Y194415D01*
X50889Y195587D01*
X50889Y205291D01*
X50876Y205386D01*
X50871Y205482D01*
X50856Y205525D01*
X50850Y205570D01*
X50810Y205658D01*
X50778Y205749D01*
X50753Y205783D01*
X50733Y205827D01*
X50650Y205924D01*
X50597Y205998D01*
X28256Y228338D01*
X26633Y229961D01*
X26633Y301152D01*
X26632Y301161D01*
X26633Y301171D01*
X26612Y301301D01*
X26594Y301431D01*
X26590Y301440D01*
X26588Y301449D01*
X26531Y301569D01*
X26477Y301688D01*
X26471Y301695D01*
X26467Y301704D01*
X26379Y301803D01*
X26294Y301903D01*
X26286Y301908D01*
X26280Y301915D01*
X26214Y301955D01*
X26058Y302057D01*
X26035Y302064D01*
X26017Y302075D01*
X25737Y302191D01*
X24165Y303764D01*
X23313Y305818D01*
X23313Y308043D01*
X24165Y310098D01*
X25737Y311670D01*
X27792Y312521D01*
X30016Y312521D01*
X32071Y311670D01*
X33644Y310098D01*
X34495Y308043D01*
X34495Y305818D01*
X33644Y303764D01*
X32071Y302191D01*
X31792Y302075D01*
X31784Y302070D01*
X31774Y302068D01*
X31662Y301998D01*
X31549Y301932D01*
X31543Y301925D01*
X31534Y301920D01*
X31446Y301822D01*
X31356Y301726D01*
X31352Y301718D01*
X31345Y301710D01*
X31288Y301592D01*
X31228Y301475D01*
X31227Y301465D01*
X31222Y301457D01*
X31211Y301381D01*
X31176Y301197D01*
X31178Y301173D01*
X31175Y301152D01*
X31175Y232256D01*
X31188Y232161D01*
X31193Y232065D01*
X31208Y232022D01*
X31215Y231977D01*
X31254Y231889D01*
X31286Y231798D01*
X31311Y231764D01*
X31331Y231720D01*
X31414Y231622D01*
X31468Y231549D01*
X54308Y208709D01*
X54385Y208651D01*
X54456Y208587D01*
X54497Y208567D01*
X54534Y208540D01*
X54624Y208506D01*
X54710Y208464D01*
X54752Y208457D01*
X54797Y208440D01*
X54925Y208430D01*
X55015Y208416D01*
X64719Y208416D01*
X65891Y207244D01*
X65891Y195587D01*
X64719Y194415D01*
X52061Y194415D01*
G37*
%LPD*%
%LPC*%
G36*
X207883Y65495D02*
X207883Y65495D01*
X205828Y66346D01*
X204256Y67919D01*
X203404Y69973D01*
X203404Y72198D01*
X203520Y72477D01*
X203522Y72486D01*
X203527Y72494D01*
X203558Y72624D01*
X203590Y72750D01*
X203590Y72759D01*
X203592Y72769D01*
X203585Y72901D01*
X203581Y73032D01*
X203578Y73041D01*
X203578Y73050D01*
X203534Y73176D01*
X203494Y73300D01*
X203488Y73308D01*
X203485Y73317D01*
X203440Y73379D01*
X203335Y73533D01*
X203316Y73548D01*
X203303Y73566D01*
X167687Y109183D01*
X167687Y123657D01*
X167678Y123720D01*
X167679Y123785D01*
X167658Y123859D01*
X167647Y123936D01*
X167620Y123994D01*
X167603Y124056D01*
X167563Y124122D01*
X167531Y124193D01*
X167489Y124242D01*
X167455Y124296D01*
X167398Y124348D01*
X167347Y124407D01*
X167294Y124442D01*
X167246Y124485D01*
X167176Y124519D01*
X167111Y124562D01*
X167050Y124580D01*
X166992Y124608D01*
X166923Y124619D01*
X166842Y124644D01*
X166757Y124645D01*
X166687Y124656D01*
X164129Y124656D01*
X162957Y125828D01*
X162957Y138486D01*
X164129Y139657D01*
X166225Y139657D01*
X166288Y139667D01*
X166353Y139666D01*
X166427Y139686D01*
X166504Y139697D01*
X166562Y139724D01*
X166624Y139741D01*
X166690Y139782D01*
X166761Y139814D01*
X166810Y139855D01*
X166864Y139889D01*
X166916Y139947D01*
X166975Y139997D01*
X167010Y140051D01*
X167053Y140098D01*
X167087Y140168D01*
X167130Y140233D01*
X167148Y140294D01*
X167176Y140352D01*
X167187Y140422D01*
X167212Y140503D01*
X167213Y140587D01*
X167224Y140657D01*
X167224Y141806D01*
X168707Y143289D01*
X168745Y143340D01*
X168791Y143385D01*
X168829Y143452D01*
X168876Y143514D01*
X168899Y143574D01*
X168930Y143630D01*
X168948Y143706D01*
X168975Y143778D01*
X168980Y143842D01*
X168995Y143905D01*
X168991Y143982D01*
X168997Y144059D01*
X168984Y144122D01*
X168981Y144186D01*
X168955Y144260D01*
X168940Y144335D01*
X168909Y144392D01*
X168888Y144453D01*
X168847Y144510D01*
X168807Y144584D01*
X168748Y144645D01*
X168707Y144702D01*
X167566Y145843D01*
X167566Y158814D01*
X169031Y160279D01*
X174102Y160279D01*
X175567Y158814D01*
X175567Y145843D01*
X174130Y144405D01*
X174072Y144329D01*
X174008Y144257D01*
X173988Y144216D01*
X173961Y144180D01*
X173927Y144090D01*
X173885Y144003D01*
X173878Y143961D01*
X173861Y143916D01*
X173851Y143788D01*
X173837Y143699D01*
X173837Y141997D01*
X173204Y141363D01*
X173184Y141338D01*
X173160Y141317D01*
X173100Y141225D01*
X173035Y141138D01*
X173023Y141108D01*
X173005Y141081D01*
X172974Y140976D01*
X172935Y140874D01*
X172932Y140842D01*
X172923Y140811D01*
X172922Y140702D01*
X172913Y140593D01*
X172920Y140561D01*
X172919Y140529D01*
X172948Y140424D01*
X172971Y140317D01*
X172986Y140288D01*
X172995Y140257D01*
X173052Y140164D01*
X173103Y140068D01*
X173126Y140044D01*
X173143Y140017D01*
X173224Y139944D01*
X173300Y139866D01*
X173328Y139850D01*
X173352Y139828D01*
X173450Y139781D01*
X173545Y139727D01*
X173577Y139719D01*
X173606Y139705D01*
X173695Y139691D01*
X173820Y139662D01*
X173868Y139664D01*
X173910Y139657D01*
X175786Y139657D01*
X176958Y138486D01*
X176958Y125828D01*
X175786Y124656D01*
X173227Y124656D01*
X173164Y124647D01*
X173100Y124648D01*
X173025Y124627D01*
X172948Y124616D01*
X172890Y124590D01*
X172828Y124573D01*
X172762Y124532D01*
X172691Y124500D01*
X172643Y124458D01*
X172588Y124424D01*
X172536Y124367D01*
X172477Y124317D01*
X172442Y124263D01*
X172399Y124215D01*
X172365Y124146D01*
X172323Y124081D01*
X172304Y124019D01*
X172276Y123961D01*
X172265Y123892D01*
X172240Y123811D01*
X172239Y123726D01*
X172228Y123657D01*
X172228Y111478D01*
X172242Y111383D01*
X172247Y111287D01*
X172262Y111243D01*
X172268Y111198D01*
X172308Y111111D01*
X172339Y111020D01*
X172364Y110986D01*
X172384Y110942D01*
X172468Y110844D01*
X172521Y110771D01*
X206515Y76777D01*
X206522Y76772D01*
X206528Y76764D01*
X206635Y76687D01*
X206740Y76608D01*
X206749Y76605D01*
X206757Y76599D01*
X206881Y76555D01*
X207004Y76508D01*
X207014Y76508D01*
X207023Y76504D01*
X207154Y76497D01*
X207285Y76487D01*
X207295Y76488D01*
X207304Y76488D01*
X207379Y76506D01*
X207562Y76544D01*
X207583Y76555D01*
X207604Y76561D01*
X207883Y76676D01*
X210107Y76676D01*
X212162Y75825D01*
X213735Y74252D01*
X214586Y72198D01*
X214586Y69973D01*
X213735Y67919D01*
X212162Y66346D01*
X210107Y65495D01*
X207883Y65495D01*
G37*
%LPD*%
%LPC*%
G36*
X249889Y7239D02*
X249889Y7239D01*
X246184Y8774D01*
X243348Y11610D01*
X241813Y15315D01*
X241813Y35485D01*
X243348Y39190D01*
X246184Y42026D01*
X249889Y43561D01*
X253899Y43561D01*
X257604Y42026D01*
X260440Y39190D01*
X261975Y35485D01*
X261975Y15315D01*
X260440Y11610D01*
X257604Y8774D01*
X253899Y7239D01*
X249889Y7239D01*
G37*
%LPD*%
%LPC*%
G36*
X199089Y7239D02*
X199089Y7239D01*
X195384Y8774D01*
X192548Y11610D01*
X191013Y15315D01*
X191013Y35485D01*
X192548Y39190D01*
X195384Y42026D01*
X199089Y43561D01*
X203099Y43561D01*
X206804Y42026D01*
X209640Y39190D01*
X211175Y35485D01*
X211175Y15315D01*
X209640Y11610D01*
X206804Y8774D01*
X203099Y7239D01*
X199089Y7239D01*
G37*
%LPD*%
%LPC*%
G36*
X327335Y248189D02*
X327335Y248189D01*
X322189Y250321D01*
X318251Y254259D01*
X316119Y259405D01*
X316119Y264975D01*
X318251Y270121D01*
X322189Y274059D01*
X327335Y276191D01*
X332905Y276191D01*
X338051Y274059D01*
X341989Y270121D01*
X344121Y264975D01*
X344121Y259405D01*
X341989Y254259D01*
X338051Y250321D01*
X332905Y248189D01*
X327335Y248189D01*
G37*
%LPD*%
%LPC*%
G36*
X96335Y248189D02*
X96335Y248189D01*
X91189Y250321D01*
X87251Y254259D01*
X85119Y259405D01*
X85119Y264975D01*
X87251Y270121D01*
X91189Y274059D01*
X96335Y276191D01*
X101905Y276191D01*
X107051Y274059D01*
X110989Y270121D01*
X113121Y264975D01*
X113121Y259405D01*
X110989Y254259D01*
X107051Y250321D01*
X101905Y248189D01*
X96335Y248189D01*
G37*
%LPD*%
%LPC*%
G36*
X327335Y12589D02*
X327335Y12589D01*
X322189Y14721D01*
X318251Y18659D01*
X316119Y23805D01*
X316119Y29375D01*
X318251Y34521D01*
X322189Y38459D01*
X327335Y40591D01*
X332905Y40591D01*
X338051Y38459D01*
X341989Y34521D01*
X344121Y29375D01*
X344121Y23805D01*
X341989Y18659D01*
X338051Y14721D01*
X332905Y12589D01*
X327335Y12589D01*
G37*
%LPD*%
%LPC*%
G36*
X97165Y12589D02*
X97165Y12589D01*
X92019Y14721D01*
X88081Y18659D01*
X85949Y23805D01*
X85949Y29375D01*
X88081Y34521D01*
X92019Y38459D01*
X97165Y40591D01*
X102735Y40591D01*
X107881Y38459D01*
X111819Y34521D01*
X113951Y29375D01*
X113951Y23805D01*
X111819Y18659D01*
X107881Y14721D01*
X102735Y12589D01*
X97165Y12589D01*
G37*
%LPD*%
%LPC*%
G36*
X156898Y287022D02*
X156898Y287022D01*
X154843Y287873D01*
X153270Y289446D01*
X152419Y291501D01*
X152419Y293725D01*
X153270Y295780D01*
X154912Y297421D01*
X154983Y297516D01*
X155058Y297608D01*
X155067Y297629D01*
X155081Y297647D01*
X155123Y297758D01*
X155170Y297867D01*
X155173Y297889D01*
X155181Y297911D01*
X155190Y298029D01*
X155204Y298147D01*
X155201Y298169D01*
X155202Y298192D01*
X155178Y298308D01*
X155159Y298425D01*
X155149Y298446D01*
X155145Y298468D01*
X155089Y298573D01*
X155038Y298680D01*
X155023Y298697D01*
X155012Y298717D01*
X154929Y298802D01*
X154851Y298891D01*
X154832Y298902D01*
X154816Y298919D01*
X154724Y298971D01*
X153111Y300584D01*
X152260Y302639D01*
X152260Y304863D01*
X153111Y306918D01*
X154684Y308490D01*
X156739Y309341D01*
X158963Y309341D01*
X161018Y308490D01*
X161464Y308044D01*
X161540Y307986D01*
X161612Y307922D01*
X161645Y307906D01*
X163584Y305968D01*
X163660Y305910D01*
X163732Y305845D01*
X163773Y305826D01*
X163809Y305798D01*
X163899Y305764D01*
X163986Y305722D01*
X164028Y305716D01*
X164073Y305699D01*
X164201Y305689D01*
X164290Y305675D01*
X171548Y305675D01*
X172720Y304503D01*
X172720Y291845D01*
X171548Y290673D01*
X164290Y290673D01*
X164195Y290660D01*
X164099Y290655D01*
X164056Y290640D01*
X164011Y290634D01*
X163924Y290594D01*
X163833Y290563D01*
X163798Y290537D01*
X163754Y290517D01*
X163657Y290434D01*
X163584Y290381D01*
X162961Y289758D01*
X162936Y289725D01*
X162905Y289697D01*
X162860Y289624D01*
X162792Y289533D01*
X162771Y289478D01*
X162755Y289451D01*
X161177Y287873D01*
X159122Y287022D01*
X156898Y287022D01*
G37*
%LPD*%
D10*
X287743Y126927D03*
X297743Y126927D03*
X307743Y126927D03*
X317743Y126927D03*
X327743Y126927D03*
X337743Y126927D03*
X347743Y126927D03*
X357743Y126927D03*
X367743Y126927D03*
X377743Y126927D03*
D11*
X277143Y167577D03*
X388343Y167577D03*
D12*
X175694Y33480D02*
X175694Y17320D01*
X201094Y17320D02*
X201094Y33480D01*
X226494Y33480D02*
X226494Y17320D01*
X251894Y17320D02*
X251894Y33480D01*
D13*
X273887Y276074D03*
X273887Y282574D03*
X273887Y289074D03*
X273887Y295574D03*
X273887Y302074D03*
X273887Y308574D03*
X273887Y315074D03*
X273887Y321574D03*
X215127Y321574D03*
X215127Y315074D03*
X215127Y308574D03*
X215127Y302074D03*
X215127Y295574D03*
X215127Y289074D03*
X215127Y282574D03*
X215127Y276074D03*
D14*
X275847Y258350D03*
X256847Y258350D03*
X213405Y258232D03*
X232405Y258232D03*
D15*
X284980Y207335D03*
X284980Y224335D03*
X306461Y207380D03*
X306461Y224380D03*
D16*
X182719Y298174D03*
X165719Y298174D03*
X183223Y319251D03*
X166223Y319251D03*
D15*
X298343Y287234D03*
X298343Y270234D03*
D17*
X164603Y189498D03*
X144603Y189498D03*
D18*
X183067Y176979D02*
X183067Y166079D01*
X183067Y176979D02*
X186067Y176979D01*
X186067Y166079D01*
X183067Y166079D01*
X183067Y167029D02*
X186067Y167029D01*
X186067Y167979D02*
X183067Y167979D01*
X183067Y168929D02*
X186067Y168929D01*
X186067Y169879D02*
X183067Y169879D01*
X183067Y170829D02*
X186067Y170829D01*
X186067Y171779D02*
X183067Y171779D01*
X183067Y172729D02*
X186067Y172729D01*
X186067Y173679D02*
X183067Y173679D01*
X183067Y174629D02*
X186067Y174629D01*
X186067Y175579D02*
X183067Y175579D01*
X183067Y176529D02*
X186067Y176529D01*
X176567Y176979D02*
X176567Y166079D01*
X176567Y176979D02*
X179567Y176979D01*
X179567Y166079D01*
X176567Y166079D01*
X176567Y167029D02*
X179567Y167029D01*
X179567Y167979D02*
X176567Y167979D01*
X176567Y168929D02*
X179567Y168929D01*
X179567Y169879D02*
X176567Y169879D01*
X176567Y170829D02*
X179567Y170829D01*
X179567Y171779D02*
X176567Y171779D01*
X176567Y172729D02*
X179567Y172729D01*
X179567Y173679D02*
X176567Y173679D01*
X176567Y174629D02*
X179567Y174629D01*
X179567Y175579D02*
X176567Y175579D01*
X176567Y176529D02*
X179567Y176529D01*
X170067Y176979D02*
X170067Y166079D01*
X170067Y176979D02*
X173067Y176979D01*
X173067Y166079D01*
X170067Y166079D01*
X170067Y167029D02*
X173067Y167029D01*
X173067Y167979D02*
X170067Y167979D01*
X170067Y168929D02*
X173067Y168929D01*
X173067Y169879D02*
X170067Y169879D01*
X170067Y170829D02*
X173067Y170829D01*
X173067Y171779D02*
X170067Y171779D01*
X170067Y172729D02*
X173067Y172729D01*
X173067Y173679D02*
X170067Y173679D01*
X170067Y174629D02*
X173067Y174629D01*
X173067Y175579D02*
X170067Y175579D01*
X170067Y176529D02*
X173067Y176529D01*
X170067Y157779D02*
X170067Y146879D01*
X170067Y157779D02*
X173067Y157779D01*
X173067Y146879D01*
X170067Y146879D01*
X170067Y147829D02*
X173067Y147829D01*
X173067Y148779D02*
X170067Y148779D01*
X170067Y149729D02*
X173067Y149729D01*
X173067Y150679D02*
X170067Y150679D01*
X170067Y151629D02*
X173067Y151629D01*
X173067Y152579D02*
X170067Y152579D01*
X170067Y153529D02*
X173067Y153529D01*
X173067Y154479D02*
X170067Y154479D01*
X170067Y155429D02*
X173067Y155429D01*
X173067Y156379D02*
X170067Y156379D01*
X170067Y157329D02*
X173067Y157329D01*
X183067Y157779D02*
X183067Y146879D01*
X183067Y157779D02*
X186067Y157779D01*
X186067Y146879D01*
X183067Y146879D01*
X183067Y147829D02*
X186067Y147829D01*
X186067Y148779D02*
X183067Y148779D01*
X183067Y149729D02*
X186067Y149729D01*
X186067Y150679D02*
X183067Y150679D01*
X183067Y151629D02*
X186067Y151629D01*
X186067Y152579D02*
X183067Y152579D01*
X183067Y153529D02*
X186067Y153529D01*
X186067Y154479D02*
X183067Y154479D01*
X183067Y155429D02*
X186067Y155429D01*
X186067Y156379D02*
X183067Y156379D01*
X183067Y157329D02*
X186067Y157329D01*
D19*
X202289Y152147D03*
X202289Y172147D03*
D15*
X183515Y206252D03*
X183515Y189252D03*
D16*
X169957Y132157D03*
X186957Y132157D03*
D17*
X103893Y188320D03*
X83893Y188320D03*
D18*
X121172Y174655D02*
X121172Y163755D01*
X121172Y174655D02*
X124172Y174655D01*
X124172Y163755D01*
X121172Y163755D01*
X121172Y164705D02*
X124172Y164705D01*
X124172Y165655D02*
X121172Y165655D01*
X121172Y166605D02*
X124172Y166605D01*
X124172Y167555D02*
X121172Y167555D01*
X121172Y168505D02*
X124172Y168505D01*
X124172Y169455D02*
X121172Y169455D01*
X121172Y170405D02*
X124172Y170405D01*
X124172Y171355D02*
X121172Y171355D01*
X121172Y172305D02*
X124172Y172305D01*
X124172Y173255D02*
X121172Y173255D01*
X121172Y174205D02*
X124172Y174205D01*
X114672Y174655D02*
X114672Y163755D01*
X114672Y174655D02*
X117672Y174655D01*
X117672Y163755D01*
X114672Y163755D01*
X114672Y164705D02*
X117672Y164705D01*
X117672Y165655D02*
X114672Y165655D01*
X114672Y166605D02*
X117672Y166605D01*
X117672Y167555D02*
X114672Y167555D01*
X114672Y168505D02*
X117672Y168505D01*
X117672Y169455D02*
X114672Y169455D01*
X114672Y170405D02*
X117672Y170405D01*
X117672Y171355D02*
X114672Y171355D01*
X114672Y172305D02*
X117672Y172305D01*
X117672Y173255D02*
X114672Y173255D01*
X114672Y174205D02*
X117672Y174205D01*
X108172Y174655D02*
X108172Y163755D01*
X108172Y174655D02*
X111172Y174655D01*
X111172Y163755D01*
X108172Y163755D01*
X108172Y164705D02*
X111172Y164705D01*
X111172Y165655D02*
X108172Y165655D01*
X108172Y166605D02*
X111172Y166605D01*
X111172Y167555D02*
X108172Y167555D01*
X108172Y168505D02*
X111172Y168505D01*
X111172Y169455D02*
X108172Y169455D01*
X108172Y170405D02*
X111172Y170405D01*
X111172Y171355D02*
X108172Y171355D01*
X108172Y172305D02*
X111172Y172305D01*
X111172Y173255D02*
X108172Y173255D01*
X108172Y174205D02*
X111172Y174205D01*
X108172Y155455D02*
X108172Y144555D01*
X108172Y155455D02*
X111172Y155455D01*
X111172Y144555D01*
X108172Y144555D01*
X108172Y145505D02*
X111172Y145505D01*
X111172Y146455D02*
X108172Y146455D01*
X108172Y147405D02*
X111172Y147405D01*
X111172Y148355D02*
X108172Y148355D01*
X108172Y149305D02*
X111172Y149305D01*
X111172Y150255D02*
X108172Y150255D01*
X108172Y151205D02*
X111172Y151205D01*
X111172Y152155D02*
X108172Y152155D01*
X108172Y153105D02*
X111172Y153105D01*
X111172Y154055D02*
X108172Y154055D01*
X108172Y155005D02*
X111172Y155005D01*
X121172Y155455D02*
X121172Y144555D01*
X121172Y155455D02*
X124172Y155455D01*
X124172Y144555D01*
X121172Y144555D01*
X121172Y145505D02*
X124172Y145505D01*
X124172Y146455D02*
X121172Y146455D01*
X121172Y147405D02*
X124172Y147405D01*
X124172Y148355D02*
X121172Y148355D01*
X121172Y149305D02*
X124172Y149305D01*
X124172Y150255D02*
X121172Y150255D01*
X121172Y151205D02*
X124172Y151205D01*
X124172Y152155D02*
X121172Y152155D01*
X121172Y153105D02*
X124172Y153105D01*
X124172Y154055D02*
X121172Y154055D01*
X121172Y155005D02*
X124172Y155005D01*
D19*
X139176Y150097D03*
X139176Y170097D03*
D15*
X122319Y202936D03*
X122319Y185936D03*
D16*
X107723Y129421D03*
X124723Y129421D03*
D17*
X40141Y187246D03*
X20141Y187246D03*
D18*
X59132Y173179D02*
X59132Y162279D01*
X59132Y173179D02*
X62132Y173179D01*
X62132Y162279D01*
X59132Y162279D01*
X59132Y163229D02*
X62132Y163229D01*
X62132Y164179D02*
X59132Y164179D01*
X59132Y165129D02*
X62132Y165129D01*
X62132Y166079D02*
X59132Y166079D01*
X59132Y167029D02*
X62132Y167029D01*
X62132Y167979D02*
X59132Y167979D01*
X59132Y168929D02*
X62132Y168929D01*
X62132Y169879D02*
X59132Y169879D01*
X59132Y170829D02*
X62132Y170829D01*
X62132Y171779D02*
X59132Y171779D01*
X59132Y172729D02*
X62132Y172729D01*
X52632Y173179D02*
X52632Y162279D01*
X52632Y173179D02*
X55632Y173179D01*
X55632Y162279D01*
X52632Y162279D01*
X52632Y163229D02*
X55632Y163229D01*
X55632Y164179D02*
X52632Y164179D01*
X52632Y165129D02*
X55632Y165129D01*
X55632Y166079D02*
X52632Y166079D01*
X52632Y167029D02*
X55632Y167029D01*
X55632Y167979D02*
X52632Y167979D01*
X52632Y168929D02*
X55632Y168929D01*
X55632Y169879D02*
X52632Y169879D01*
X52632Y170829D02*
X55632Y170829D01*
X55632Y171779D02*
X52632Y171779D01*
X52632Y172729D02*
X55632Y172729D01*
X46132Y173179D02*
X46132Y162279D01*
X46132Y173179D02*
X49132Y173179D01*
X49132Y162279D01*
X46132Y162279D01*
X46132Y163229D02*
X49132Y163229D01*
X49132Y164179D02*
X46132Y164179D01*
X46132Y165129D02*
X49132Y165129D01*
X49132Y166079D02*
X46132Y166079D01*
X46132Y167029D02*
X49132Y167029D01*
X49132Y167979D02*
X46132Y167979D01*
X46132Y168929D02*
X49132Y168929D01*
X49132Y169879D02*
X46132Y169879D01*
X46132Y170829D02*
X49132Y170829D01*
X49132Y171779D02*
X46132Y171779D01*
X46132Y172729D02*
X49132Y172729D01*
X46132Y153979D02*
X46132Y143079D01*
X46132Y153979D02*
X49132Y153979D01*
X49132Y143079D01*
X46132Y143079D01*
X46132Y144029D02*
X49132Y144029D01*
X49132Y144979D02*
X46132Y144979D01*
X46132Y145929D02*
X49132Y145929D01*
X49132Y146879D02*
X46132Y146879D01*
X46132Y147829D02*
X49132Y147829D01*
X49132Y148779D02*
X46132Y148779D01*
X46132Y149729D02*
X49132Y149729D01*
X49132Y150679D02*
X46132Y150679D01*
X46132Y151629D02*
X49132Y151629D01*
X49132Y152579D02*
X46132Y152579D01*
X46132Y153529D02*
X49132Y153529D01*
X59132Y153979D02*
X59132Y143079D01*
X59132Y153979D02*
X62132Y153979D01*
X62132Y143079D01*
X59132Y143079D01*
X59132Y144029D02*
X62132Y144029D01*
X62132Y144979D02*
X59132Y144979D01*
X59132Y145929D02*
X62132Y145929D01*
X62132Y146879D02*
X59132Y146879D01*
X59132Y147829D02*
X62132Y147829D01*
X62132Y148779D02*
X59132Y148779D01*
X59132Y149729D02*
X62132Y149729D01*
X62132Y150679D02*
X59132Y150679D01*
X59132Y151629D02*
X62132Y151629D01*
X62132Y152579D02*
X59132Y152579D01*
X59132Y153529D02*
X62132Y153529D01*
D19*
X77290Y148363D03*
X77290Y168363D03*
D15*
X58390Y201415D03*
X58390Y184415D03*
D16*
X45140Y127728D03*
X62140Y127728D03*
D20*
X307743Y126927D02*
X307743Y184572D01*
X284980Y207335D01*
X307743Y107878D02*
X299789Y99924D01*
X307743Y107878D02*
X307743Y126927D01*
D21*
X299789Y99924D03*
D20*
X327743Y126927D02*
X327743Y186098D01*
X306461Y207380D01*
X328749Y125921D02*
X328749Y95946D01*
X328749Y125921D02*
X327743Y126927D01*
X247904Y79451D02*
X226494Y58041D01*
X226494Y25400D01*
X312254Y79451D02*
X328749Y95946D01*
X312254Y79451D02*
X247904Y79451D01*
X273887Y295574D02*
X347643Y295574D01*
X374789Y322720D01*
D21*
X374789Y322720D03*
D20*
X342433Y302074D02*
X273887Y302074D01*
X342433Y302074D02*
X387164Y346805D01*
D21*
X387164Y346805D03*
D20*
X273887Y308574D02*
X272637Y309824D01*
X265270Y309824D01*
X260711Y314383D01*
X260711Y335276D01*
X276286Y350851D01*
X288869Y350851D01*
D21*
X288869Y350851D03*
D20*
X288206Y315074D02*
X273887Y315074D01*
X288206Y315074D02*
X317005Y343873D01*
D21*
X317005Y343873D03*
D20*
X215127Y308574D02*
X205289Y308574D01*
X196502Y317361D02*
X196502Y340848D01*
D21*
X196502Y340848D03*
D20*
X196502Y317361D02*
X205289Y308574D01*
X207236Y315074D02*
X215127Y315074D01*
X207236Y315074D02*
X202559Y319751D01*
X202559Y331535D01*
X215081Y344057D01*
D21*
X215081Y344057D03*
D22*
X213405Y274352D02*
X213405Y258232D01*
X213405Y274352D02*
X215127Y276074D01*
X275847Y274114D02*
X275847Y258350D01*
X275847Y274114D02*
X273887Y276074D01*
X294463Y274114D02*
X298343Y270234D01*
X294463Y274114D02*
X275847Y274114D01*
X77290Y148363D02*
X60797Y148363D01*
X60632Y148529D01*
X122764Y150097D02*
X139176Y150097D01*
X122764Y150097D02*
X122672Y150005D01*
X186957Y142784D02*
X186957Y132157D01*
X184567Y145174D02*
X184567Y150747D01*
X184567Y152329D01*
X184567Y145174D02*
X186957Y142784D01*
X200889Y150747D02*
X202289Y152147D01*
X200889Y150747D02*
X184567Y150747D01*
X124723Y138460D02*
X124723Y129421D01*
X122672Y140510D02*
X122672Y150005D01*
X122672Y140510D02*
X124723Y138460D01*
X62140Y135544D02*
X62140Y127728D01*
X62140Y135544D02*
X60725Y136959D01*
X60725Y148291D01*
X60797Y148363D01*
X275847Y258350D02*
X281086Y263590D01*
X284135Y263590D01*
D21*
X284135Y263590D03*
D22*
X275847Y258350D02*
X282208Y251989D01*
X283767Y251989D01*
X283767Y252266D01*
D21*
X283767Y252266D03*
D22*
X294263Y266154D02*
X298343Y270234D01*
X294263Y266154D02*
X294263Y264511D01*
D21*
X294263Y264511D03*
D22*
X298343Y270234D02*
X303602Y264975D01*
X303602Y263628D01*
D21*
X303602Y263628D03*
D22*
X213405Y258232D02*
X213405Y256114D01*
X206794Y249503D01*
X206702Y249503D01*
D21*
X206702Y249503D03*
D22*
X84973Y140679D02*
X77290Y148363D01*
X84973Y140679D02*
X86088Y140679D01*
D21*
X86088Y140679D03*
D22*
X77290Y145048D02*
X77290Y148363D01*
X77290Y145048D02*
X72093Y139851D01*
D21*
X72093Y139851D03*
D22*
X139176Y150097D02*
X146855Y142417D01*
X146855Y142153D01*
D21*
X146855Y142153D03*
D22*
X139176Y150097D02*
X133873Y144794D01*
X133873Y141600D01*
D21*
X133873Y141600D03*
D22*
X202289Y152147D02*
X209725Y144711D01*
X209725Y144158D01*
D21*
X209725Y144158D03*
D22*
X202289Y152147D02*
X197154Y147012D01*
X197154Y143204D01*
D21*
X197154Y143204D03*
D22*
X65901Y131490D02*
X62140Y127728D01*
X65901Y131490D02*
X70451Y131490D01*
D21*
X70451Y131490D03*
D22*
X62140Y127728D02*
X67713Y122155D01*
X69320Y122155D01*
D21*
X69320Y122155D03*
D22*
X124723Y129421D02*
X127837Y132535D01*
X132923Y132535D01*
D21*
X132923Y132535D03*
D22*
X125041Y129421D02*
X124723Y129421D01*
X125041Y129421D02*
X131516Y122945D01*
D21*
X131516Y122945D03*
D22*
X186957Y132157D02*
X189126Y134325D01*
X195069Y134325D01*
X195069Y134389D01*
D21*
X195069Y134389D03*
D22*
X186957Y132157D02*
X193918Y125197D01*
X193918Y124799D01*
X194046Y124799D01*
D21*
X194046Y124799D03*
D22*
X287743Y126927D02*
X287743Y140430D01*
X287776Y140463D01*
D21*
X287776Y140463D03*
D22*
X282092Y132578D02*
X287743Y126927D01*
X282092Y132578D02*
X281741Y132578D01*
D21*
X281741Y132578D03*
D22*
X165719Y298174D02*
X160143Y303751D01*
X157851Y303751D01*
D21*
X157851Y303751D03*
D22*
X165719Y298174D02*
X160158Y292613D01*
X158010Y292613D01*
D21*
X158010Y292613D03*
D22*
X206310Y265326D02*
X213405Y258232D01*
X206310Y265326D02*
X206066Y265326D01*
D21*
X206066Y265326D03*
X18010Y410333D03*
X45081Y409891D03*
X69389Y410443D03*
X96128Y410112D03*
X116900Y410001D03*
X143087Y410885D03*
D22*
X273887Y323774D02*
X273887Y321574D01*
X273887Y323774D02*
X276401Y326288D01*
D21*
X276401Y326288D03*
D22*
X273887Y282574D02*
X262664Y282574D01*
X260288Y284950D01*
D21*
X260288Y284950D03*
D22*
X250068Y265129D02*
X256847Y258350D01*
X250068Y265129D02*
X250068Y267088D01*
D21*
X250068Y267088D03*
D22*
X256847Y258350D02*
X256847Y256466D01*
X250621Y250240D01*
D21*
X250621Y250240D03*
D22*
X232405Y258232D02*
X232405Y258909D01*
X240309Y266812D01*
X240309Y266812D01*
X240262Y266858D01*
D21*
X240262Y266858D03*
D22*
X232405Y258232D02*
X232405Y256855D01*
X238835Y250424D01*
D21*
X238835Y250424D03*
D22*
X20141Y187246D02*
X11892Y195494D01*
X11892Y196150D01*
D21*
X11892Y196150D03*
D22*
X20141Y187246D02*
X20141Y186049D01*
X13235Y179143D01*
D21*
X13235Y179143D03*
D22*
X76941Y195272D02*
X83893Y188320D01*
X76941Y195272D02*
X76941Y196767D01*
D21*
X76941Y196767D03*
D22*
X83893Y188320D02*
X76447Y180873D01*
X76275Y180873D01*
D21*
X76275Y180873D03*
D22*
X83370Y174443D02*
X77290Y168363D01*
X83370Y174443D02*
X86946Y174443D01*
D21*
X86946Y174443D03*
D22*
X81881Y168363D02*
X77290Y168363D01*
X81881Y168363D02*
X87377Y162868D01*
D21*
X87377Y162868D03*
D22*
X139176Y170097D02*
X146128Y163144D01*
X147960Y163144D02*
X148144Y162960D01*
D21*
X148144Y162960D03*
D22*
X147960Y163144D02*
X146128Y163144D01*
X139176Y170097D02*
X143271Y174192D01*
X149525Y174192D01*
D21*
X149525Y174192D03*
D22*
X137583Y182478D02*
X144603Y189498D01*
X137583Y182478D02*
X137096Y182478D01*
D21*
X137096Y182478D03*
D22*
X144603Y189498D02*
X136709Y197393D01*
X136635Y197393D01*
D21*
X136635Y197393D03*
D22*
X109672Y169205D02*
X104071Y169205D01*
X103809Y168942D01*
D21*
X103809Y168942D03*
D22*
X47632Y167729D02*
X42004Y167729D01*
X41893Y167839D01*
D21*
X41893Y167839D03*
D22*
X165396Y171529D02*
X171567Y171529D01*
X165396Y171529D02*
X165342Y171474D01*
X165304Y171513D01*
X165304Y171513D01*
D21*
X165304Y171513D03*
D22*
X202289Y172147D02*
X209442Y179300D01*
X211530Y179300D01*
D21*
X211530Y179300D03*
D22*
X202289Y172147D02*
X197336Y177100D01*
X197336Y181602D01*
D21*
X197336Y181602D03*
D22*
X297743Y140840D02*
X297743Y126927D01*
X297743Y140840D02*
X297750Y140847D01*
X298876Y140847D01*
D21*
X298876Y140847D03*
D22*
X317743Y140305D02*
X317743Y126927D01*
X317743Y140305D02*
X317621Y140427D01*
D21*
X317621Y140427D03*
D22*
X337743Y140659D02*
X337743Y126927D01*
X337743Y140659D02*
X337822Y140738D01*
D21*
X337822Y140738D03*
D22*
X357332Y127338D02*
X357743Y126927D01*
X357332Y127338D02*
X357332Y139667D01*
D21*
X357332Y139667D03*
D22*
X166223Y319251D02*
X160431Y325043D01*
X160431Y325890D01*
D21*
X160431Y325890D03*
D22*
X166223Y319251D02*
X160532Y313560D01*
X158310Y313560D01*
X158310Y314851D01*
D21*
X158310Y314851D03*
X225366Y109149D03*
X385196Y46874D03*
X129067Y70980D03*
X178554Y81694D03*
X54837Y32812D03*
X15381Y141960D03*
X51493Y268519D03*
X112349Y250439D03*
X156486Y267180D03*
X171198Y355570D03*
X273376Y378152D03*
X345740Y326777D03*
X286890Y336151D03*
X365802Y271198D03*
D20*
X241187Y347634D02*
X215127Y321574D01*
X241187Y347634D02*
X241310Y347634D01*
D21*
X241310Y347634D03*
D20*
X215127Y282574D02*
X213877Y281324D01*
X206510Y281324D01*
X195881Y270696D01*
X195881Y241378D01*
X212924Y224335D01*
X284980Y224335D01*
X215127Y289074D02*
X195206Y289074D01*
X180605Y274474D01*
X180605Y236287D01*
X207815Y209077D01*
X267487Y209077D01*
D21*
X267487Y209077D03*
X298498Y224369D03*
D20*
X306450Y224369D01*
X306461Y224380D01*
X193636Y298174D02*
X182719Y298174D01*
X193636Y298174D02*
X196341Y295469D01*
X215022Y295469D01*
X215127Y295574D01*
X200401Y302074D02*
X183223Y319251D01*
X200401Y302074D02*
X215127Y302074D01*
D22*
X289740Y287234D02*
X298343Y287234D01*
X287900Y289074D02*
X273887Y289074D01*
X287900Y289074D02*
X289740Y287234D01*
D20*
X183515Y189252D02*
X183515Y185350D01*
X178067Y179902D02*
X178067Y171529D01*
X178067Y179902D02*
X183515Y185350D01*
X183268Y189498D02*
X164603Y189498D01*
X183268Y189498D02*
X183515Y189252D01*
X183515Y206252D02*
X123303Y266464D01*
X123303Y305674D02*
X123761Y306133D01*
D21*
X123761Y306133D03*
D20*
X123303Y305674D02*
X123303Y266464D01*
X119936Y188320D02*
X103893Y188320D01*
X119936Y188320D02*
X122319Y185936D01*
X122319Y184767D01*
X115854Y178303D01*
X115854Y169523D01*
X116172Y169205D01*
X122319Y202936D02*
X76598Y248657D01*
X76598Y297015D01*
X85945Y306362D01*
D21*
X85945Y306362D03*
D20*
X58390Y184415D02*
X58390Y180653D01*
X54132Y176395D02*
X54132Y167729D01*
X54132Y176395D02*
X58390Y180653D01*
X55560Y187246D02*
X40141Y187246D01*
X55560Y187246D02*
X58390Y184415D01*
X58390Y201415D02*
X28904Y230901D01*
X28904Y306931D01*
D21*
X28904Y306931D03*
D20*
X171567Y152329D02*
X171567Y142937D01*
X169495Y140865D01*
X169495Y132620D01*
X169957Y132157D01*
X169957Y110123D01*
X208995Y71086D01*
D21*
X208995Y71086D03*
X259506Y69827D03*
D20*
X259506Y70640D02*
X323100Y70640D01*
X259506Y70640D02*
X259506Y69827D01*
X347743Y95282D02*
X347743Y126927D01*
X347743Y95282D02*
X323100Y70640D01*
X109672Y141151D02*
X109672Y150005D01*
X109672Y141151D02*
X107288Y138766D01*
X107288Y129856D01*
X107723Y129421D01*
X174817Y62326D01*
X198934Y62326D01*
D21*
X198934Y62326D03*
X249833Y62097D03*
D20*
X333932Y62097D01*
X367845Y96010D01*
X367845Y126825D01*
X367743Y126927D01*
X45140Y127728D02*
X45140Y138418D01*
X47632Y140910D02*
X47632Y148529D01*
X47632Y140910D02*
X45140Y138418D01*
X45140Y127728D02*
X120395Y52473D01*
X188621Y52473D01*
D21*
X188621Y52473D03*
X244167Y52473D03*
D20*
X244370Y52677D02*
X341241Y52677D01*
X244370Y52677D02*
X244167Y52473D01*
X341241Y52677D02*
X378159Y89594D01*
X378159Y126511D01*
X377743Y126927D01*
M02*
