G04 EAGLE Gerber RS-274X export*
G75*
%MOMM*%
%FSLAX34Y34*%
%LPD*%
%IN*%
%IPPOS*%
%AMOC8*
5,1,8,0,0,1.08239X$1,22.5*%
G01*
%ADD10C,0.254000*%


D10*
X0Y0D02*
X429620Y0D01*
X429620Y422000D01*
X0Y422000D01*
X0Y0D01*
X109950Y26153D02*
X109950Y27027D01*
X109874Y27897D01*
X109722Y28756D01*
X109496Y29600D01*
X109198Y30420D01*
X108829Y31212D01*
X108392Y31968D01*
X107891Y32683D01*
X107330Y33352D01*
X106712Y33970D01*
X106043Y34531D01*
X105328Y35032D01*
X104572Y35469D01*
X103780Y35838D01*
X102960Y36136D01*
X102116Y36362D01*
X101257Y36514D01*
X100387Y36590D01*
X99513Y36590D01*
X98644Y36514D01*
X97784Y36362D01*
X96940Y36136D01*
X96120Y35838D01*
X95328Y35469D01*
X94572Y35032D01*
X93857Y34531D01*
X93188Y33970D01*
X92570Y33352D01*
X92009Y32683D01*
X91508Y31968D01*
X91071Y31212D01*
X90702Y30420D01*
X90404Y29600D01*
X90178Y28756D01*
X90026Y27897D01*
X89950Y27027D01*
X89950Y26153D01*
X90026Y25284D01*
X90178Y24424D01*
X90404Y23580D01*
X90702Y22760D01*
X91071Y21968D01*
X91508Y21212D01*
X92009Y20497D01*
X92570Y19828D01*
X93188Y19210D01*
X93857Y18649D01*
X94572Y18148D01*
X95328Y17711D01*
X96120Y17342D01*
X96940Y17044D01*
X97784Y16818D01*
X98644Y16666D01*
X99513Y16590D01*
X100387Y16590D01*
X101257Y16666D01*
X102116Y16818D01*
X102960Y17044D01*
X103780Y17342D01*
X104572Y17711D01*
X105328Y18148D01*
X106043Y18649D01*
X106712Y19210D01*
X107330Y19828D01*
X107891Y20497D01*
X108392Y21212D01*
X108829Y21968D01*
X109198Y22760D01*
X109496Y23580D01*
X109722Y24424D01*
X109874Y25284D01*
X109950Y26153D01*
X109120Y261753D02*
X109120Y262627D01*
X109044Y263497D01*
X108892Y264356D01*
X108666Y265200D01*
X108368Y266020D01*
X107999Y266812D01*
X107562Y267568D01*
X107061Y268283D01*
X106500Y268952D01*
X105882Y269570D01*
X105213Y270131D01*
X104498Y270632D01*
X103742Y271069D01*
X102950Y271438D01*
X102130Y271736D01*
X101286Y271962D01*
X100427Y272114D01*
X99557Y272190D01*
X98683Y272190D01*
X97814Y272114D01*
X96954Y271962D01*
X96110Y271736D01*
X95290Y271438D01*
X94498Y271069D01*
X93742Y270632D01*
X93027Y270131D01*
X92358Y269570D01*
X91740Y268952D01*
X91179Y268283D01*
X90678Y267568D01*
X90241Y266812D01*
X89872Y266020D01*
X89574Y265200D01*
X89348Y264356D01*
X89196Y263497D01*
X89120Y262627D01*
X89120Y261753D01*
X89196Y260884D01*
X89348Y260024D01*
X89574Y259180D01*
X89872Y258360D01*
X90241Y257568D01*
X90678Y256812D01*
X91179Y256097D01*
X91740Y255428D01*
X92358Y254810D01*
X93027Y254249D01*
X93742Y253748D01*
X94498Y253311D01*
X95290Y252942D01*
X96110Y252644D01*
X96954Y252418D01*
X97814Y252266D01*
X98683Y252190D01*
X99557Y252190D01*
X100427Y252266D01*
X101286Y252418D01*
X102130Y252644D01*
X102950Y252942D01*
X103742Y253311D01*
X104498Y253748D01*
X105213Y254249D01*
X105882Y254810D01*
X106500Y255428D01*
X107061Y256097D01*
X107562Y256812D01*
X107999Y257568D01*
X108368Y258360D01*
X108666Y259180D01*
X108892Y260024D01*
X109044Y260884D01*
X109120Y261753D01*
X340120Y26153D02*
X340120Y27027D01*
X340044Y27897D01*
X339892Y28756D01*
X339666Y29600D01*
X339368Y30420D01*
X338999Y31212D01*
X338562Y31968D01*
X338061Y32683D01*
X337500Y33352D01*
X336882Y33970D01*
X336213Y34531D01*
X335498Y35032D01*
X334742Y35469D01*
X333950Y35838D01*
X333130Y36136D01*
X332286Y36362D01*
X331427Y36514D01*
X330557Y36590D01*
X329683Y36590D01*
X328814Y36514D01*
X327954Y36362D01*
X327110Y36136D01*
X326290Y35838D01*
X325498Y35469D01*
X324742Y35032D01*
X324027Y34531D01*
X323358Y33970D01*
X322740Y33352D01*
X322179Y32683D01*
X321678Y31968D01*
X321241Y31212D01*
X320872Y30420D01*
X320574Y29600D01*
X320348Y28756D01*
X320196Y27897D01*
X320120Y27027D01*
X320120Y26153D01*
X320196Y25284D01*
X320348Y24424D01*
X320574Y23580D01*
X320872Y22760D01*
X321241Y21968D01*
X321678Y21212D01*
X322179Y20497D01*
X322740Y19828D01*
X323358Y19210D01*
X324027Y18649D01*
X324742Y18148D01*
X325498Y17711D01*
X326290Y17342D01*
X327110Y17044D01*
X327954Y16818D01*
X328814Y16666D01*
X329683Y16590D01*
X330557Y16590D01*
X331427Y16666D01*
X332286Y16818D01*
X333130Y17044D01*
X333950Y17342D01*
X334742Y17711D01*
X335498Y18148D01*
X336213Y18649D01*
X336882Y19210D01*
X337500Y19828D01*
X338061Y20497D01*
X338562Y21212D01*
X338999Y21968D01*
X339368Y22760D01*
X339666Y23580D01*
X339892Y24424D01*
X340044Y25284D01*
X340120Y26153D01*
X340120Y261753D02*
X340120Y262627D01*
X340044Y263497D01*
X339892Y264356D01*
X339666Y265200D01*
X339368Y266020D01*
X338999Y266812D01*
X338562Y267568D01*
X338061Y268283D01*
X337500Y268952D01*
X336882Y269570D01*
X336213Y270131D01*
X335498Y270632D01*
X334742Y271069D01*
X333950Y271438D01*
X333130Y271736D01*
X332286Y271962D01*
X331427Y272114D01*
X330557Y272190D01*
X329683Y272190D01*
X328814Y272114D01*
X327954Y271962D01*
X327110Y271736D01*
X326290Y271438D01*
X325498Y271069D01*
X324742Y270632D01*
X324027Y270131D01*
X323358Y269570D01*
X322740Y268952D01*
X322179Y268283D01*
X321678Y267568D01*
X321241Y266812D01*
X320872Y266020D01*
X320574Y265200D01*
X320348Y264356D01*
X320196Y263497D01*
X320120Y262627D01*
X320120Y261753D01*
X320196Y260884D01*
X320348Y260024D01*
X320574Y259180D01*
X320872Y258360D01*
X321241Y257568D01*
X321678Y256812D01*
X322179Y256097D01*
X322740Y255428D01*
X323358Y254810D01*
X324027Y254249D01*
X324742Y253748D01*
X325498Y253311D01*
X326290Y252942D01*
X327110Y252644D01*
X327954Y252418D01*
X328814Y252266D01*
X329683Y252190D01*
X330557Y252190D01*
X331427Y252266D01*
X332286Y252418D01*
X333130Y252644D01*
X333950Y252942D01*
X334742Y253311D01*
X335498Y253748D01*
X336213Y254249D01*
X336882Y254810D01*
X337500Y255428D01*
X338061Y256097D01*
X338562Y256812D01*
X338999Y257568D01*
X339368Y258360D01*
X339666Y259180D01*
X339892Y260024D01*
X340044Y260884D01*
X340120Y261753D01*
M02*
