G04 EAGLE Gerber RS-274X export*
G75*
%MOMM*%
%FSLAX34Y34*%
%LPD*%
%INSilkscreen Top*%
%IPPOS*%
%AMOC8*
5,1,8,0,0,1.08239X$1,22.5*%
G01*
%ADD10C,0.100000*%
%ADD11C,0.200000*%
%ADD12C,0.200000*%
%ADD13C,0.101600*%
%ADD14C,0.152400*%
%ADD15C,0.127000*%
%ADD16C,0.076200*%


D10*
X277143Y118277D02*
X271043Y118277D01*
X271043Y143277D01*
X387743Y118277D02*
X394443Y118277D01*
X394443Y143277D01*
X372743Y180477D02*
X292743Y180477D01*
D11*
X287743Y113277D03*
D12*
X287681Y113275D01*
X287620Y113269D01*
X287559Y113260D01*
X287499Y113247D01*
X287440Y113230D01*
X287382Y113209D01*
X287325Y113185D01*
X287270Y113158D01*
X287217Y113127D01*
X287165Y113093D01*
X287116Y113056D01*
X287069Y113016D01*
X287025Y112973D01*
X286984Y112928D01*
X286945Y112880D01*
X286909Y112829D01*
X286877Y112777D01*
X286848Y112723D01*
X286822Y112667D01*
X286800Y112609D01*
X286781Y112551D01*
X286766Y112491D01*
X286755Y112430D01*
X286747Y112369D01*
X286743Y112308D01*
X286743Y112246D01*
X286747Y112185D01*
X286755Y112124D01*
X286766Y112063D01*
X286781Y112003D01*
X286800Y111945D01*
X286822Y111887D01*
X286848Y111831D01*
X286877Y111777D01*
X286909Y111725D01*
X286945Y111674D01*
X286984Y111626D01*
X287025Y111581D01*
X287069Y111538D01*
X287116Y111498D01*
X287165Y111461D01*
X287217Y111427D01*
X287270Y111396D01*
X287325Y111369D01*
X287382Y111345D01*
X287440Y111324D01*
X287499Y111307D01*
X287559Y111294D01*
X287620Y111285D01*
X287681Y111279D01*
X287743Y111277D01*
D11*
X287743Y111277D03*
D12*
X287805Y111279D01*
X287866Y111285D01*
X287927Y111294D01*
X287987Y111307D01*
X288046Y111324D01*
X288104Y111345D01*
X288161Y111369D01*
X288216Y111396D01*
X288269Y111427D01*
X288321Y111461D01*
X288370Y111498D01*
X288417Y111538D01*
X288461Y111581D01*
X288502Y111626D01*
X288541Y111674D01*
X288577Y111725D01*
X288609Y111777D01*
X288638Y111831D01*
X288664Y111887D01*
X288686Y111945D01*
X288705Y112003D01*
X288720Y112063D01*
X288731Y112124D01*
X288739Y112185D01*
X288743Y112246D01*
X288743Y112308D01*
X288739Y112369D01*
X288731Y112430D01*
X288720Y112491D01*
X288705Y112551D01*
X288686Y112609D01*
X288664Y112667D01*
X288638Y112723D01*
X288609Y112777D01*
X288577Y112829D01*
X288541Y112880D01*
X288502Y112928D01*
X288461Y112973D01*
X288417Y113016D01*
X288370Y113056D01*
X288321Y113093D01*
X288269Y113127D01*
X288216Y113158D01*
X288161Y113185D01*
X288104Y113209D01*
X288046Y113230D01*
X287987Y113247D01*
X287927Y113260D01*
X287866Y113269D01*
X287805Y113275D01*
X287743Y113277D01*
D13*
X237785Y125172D02*
X237785Y134260D01*
X237785Y125172D02*
X237783Y125073D01*
X237777Y124973D01*
X237768Y124874D01*
X237755Y124776D01*
X237738Y124678D01*
X237717Y124580D01*
X237692Y124484D01*
X237664Y124389D01*
X237632Y124295D01*
X237597Y124202D01*
X237558Y124110D01*
X237515Y124020D01*
X237470Y123932D01*
X237420Y123845D01*
X237368Y123761D01*
X237312Y123678D01*
X237254Y123598D01*
X237192Y123520D01*
X237127Y123445D01*
X237059Y123372D01*
X236989Y123302D01*
X236916Y123234D01*
X236841Y123169D01*
X236763Y123107D01*
X236683Y123049D01*
X236600Y122993D01*
X236516Y122941D01*
X236429Y122891D01*
X236341Y122846D01*
X236251Y122803D01*
X236159Y122764D01*
X236066Y122729D01*
X235972Y122697D01*
X235877Y122669D01*
X235781Y122644D01*
X235683Y122623D01*
X235585Y122606D01*
X235487Y122593D01*
X235388Y122584D01*
X235288Y122578D01*
X235189Y122576D01*
X233891Y122576D01*
X243059Y131663D02*
X246304Y134260D01*
X246304Y122576D01*
X243059Y122576D02*
X249550Y122576D01*
D14*
X220144Y38100D02*
X213794Y31750D01*
X220144Y38100D02*
X232844Y38100D01*
X239194Y31750D01*
X239194Y19050D01*
X232844Y12700D01*
X220144Y12700D01*
X213794Y19050D01*
X182044Y38100D02*
X169344Y38100D01*
X182044Y38100D02*
X188394Y31750D01*
X188394Y19050D01*
X182044Y12700D01*
X188394Y31750D02*
X194744Y38100D01*
X207444Y38100D01*
X213794Y31750D01*
X213794Y19050D01*
X207444Y12700D01*
X194744Y12700D01*
X188394Y19050D01*
X162994Y19050D02*
X162994Y31750D01*
X169344Y38100D01*
X162994Y19050D02*
X169344Y12700D01*
X182044Y12700D01*
X245544Y38100D02*
X258244Y38100D01*
X264594Y31750D01*
X264594Y19050D01*
X258244Y12700D01*
X239194Y31750D02*
X245544Y38100D01*
X239194Y19050D02*
X245544Y12700D01*
X258244Y12700D01*
D15*
X282065Y27499D02*
X282065Y36389D01*
X282065Y27499D02*
X282063Y27399D01*
X282057Y27300D01*
X282047Y27200D01*
X282034Y27102D01*
X282016Y27003D01*
X281995Y26906D01*
X281970Y26810D01*
X281941Y26714D01*
X281908Y26620D01*
X281872Y26527D01*
X281832Y26436D01*
X281788Y26346D01*
X281741Y26258D01*
X281691Y26172D01*
X281637Y26088D01*
X281580Y26006D01*
X281520Y25927D01*
X281456Y25849D01*
X281390Y25775D01*
X281321Y25703D01*
X281249Y25634D01*
X281175Y25568D01*
X281097Y25504D01*
X281018Y25444D01*
X280936Y25387D01*
X280852Y25333D01*
X280766Y25283D01*
X280678Y25236D01*
X280588Y25192D01*
X280497Y25152D01*
X280404Y25116D01*
X280310Y25083D01*
X280214Y25054D01*
X280118Y25029D01*
X280021Y25008D01*
X279922Y24990D01*
X279824Y24977D01*
X279724Y24967D01*
X279625Y24961D01*
X279525Y24959D01*
X278255Y24959D01*
X288046Y24959D02*
X288046Y36389D01*
X291221Y36389D01*
X291332Y36387D01*
X291442Y36381D01*
X291553Y36372D01*
X291663Y36358D01*
X291772Y36341D01*
X291881Y36320D01*
X291989Y36295D01*
X292096Y36266D01*
X292202Y36234D01*
X292307Y36198D01*
X292410Y36158D01*
X292512Y36115D01*
X292613Y36068D01*
X292712Y36017D01*
X292809Y35964D01*
X292903Y35907D01*
X292996Y35846D01*
X293087Y35783D01*
X293176Y35716D01*
X293262Y35646D01*
X293345Y35573D01*
X293427Y35498D01*
X293505Y35420D01*
X293580Y35338D01*
X293653Y35255D01*
X293723Y35169D01*
X293790Y35080D01*
X293853Y34989D01*
X293914Y34896D01*
X293971Y34801D01*
X294024Y34705D01*
X294075Y34606D01*
X294122Y34505D01*
X294165Y34403D01*
X294205Y34300D01*
X294241Y34195D01*
X294273Y34089D01*
X294302Y33982D01*
X294327Y33874D01*
X294348Y33765D01*
X294365Y33656D01*
X294379Y33546D01*
X294388Y33435D01*
X294394Y33325D01*
X294396Y33214D01*
X294394Y33103D01*
X294388Y32993D01*
X294379Y32882D01*
X294365Y32772D01*
X294348Y32663D01*
X294327Y32554D01*
X294302Y32446D01*
X294273Y32339D01*
X294241Y32233D01*
X294205Y32128D01*
X294165Y32025D01*
X294122Y31923D01*
X294075Y31822D01*
X294024Y31723D01*
X293971Y31626D01*
X293914Y31532D01*
X293853Y31439D01*
X293790Y31348D01*
X293723Y31259D01*
X293653Y31173D01*
X293580Y31090D01*
X293505Y31008D01*
X293427Y30930D01*
X293345Y30855D01*
X293262Y30782D01*
X293176Y30712D01*
X293087Y30645D01*
X292996Y30582D01*
X292903Y30521D01*
X292809Y30464D01*
X292712Y30411D01*
X292613Y30360D01*
X292512Y30313D01*
X292410Y30270D01*
X292307Y30230D01*
X292202Y30194D01*
X292096Y30162D01*
X291989Y30133D01*
X291881Y30108D01*
X291772Y30087D01*
X291663Y30070D01*
X291553Y30056D01*
X291442Y30047D01*
X291332Y30041D01*
X291221Y30039D01*
X288046Y30039D01*
X298904Y33849D02*
X302079Y36389D01*
X302079Y24959D01*
X298904Y24959D02*
X305254Y24959D01*
D12*
X263007Y273824D02*
X226007Y273824D01*
X226007Y323824D01*
X263007Y323824D01*
X263007Y273824D01*
X266507Y270324D02*
X281257Y270324D01*
D13*
X234390Y281039D02*
X234390Y292723D01*
X233092Y281039D02*
X235688Y281039D01*
X235688Y292723D02*
X233092Y292723D01*
X242852Y281039D02*
X245448Y281039D01*
X242852Y281039D02*
X242753Y281041D01*
X242653Y281047D01*
X242554Y281056D01*
X242456Y281069D01*
X242358Y281086D01*
X242260Y281107D01*
X242164Y281132D01*
X242069Y281160D01*
X241975Y281192D01*
X241882Y281227D01*
X241790Y281266D01*
X241700Y281309D01*
X241612Y281354D01*
X241525Y281404D01*
X241441Y281456D01*
X241358Y281512D01*
X241278Y281570D01*
X241200Y281632D01*
X241125Y281697D01*
X241052Y281765D01*
X240982Y281835D01*
X240914Y281908D01*
X240849Y281983D01*
X240787Y282061D01*
X240729Y282141D01*
X240673Y282224D01*
X240621Y282308D01*
X240571Y282395D01*
X240526Y282483D01*
X240483Y282573D01*
X240444Y282665D01*
X240409Y282758D01*
X240377Y282852D01*
X240349Y282947D01*
X240324Y283043D01*
X240303Y283141D01*
X240286Y283239D01*
X240273Y283337D01*
X240264Y283436D01*
X240258Y283536D01*
X240256Y283635D01*
X240255Y283635D02*
X240255Y290126D01*
X240256Y290126D02*
X240258Y290225D01*
X240264Y290325D01*
X240273Y290424D01*
X240286Y290522D01*
X240303Y290620D01*
X240324Y290718D01*
X240349Y290814D01*
X240377Y290909D01*
X240409Y291003D01*
X240444Y291096D01*
X240483Y291188D01*
X240526Y291278D01*
X240571Y291366D01*
X240621Y291453D01*
X240673Y291537D01*
X240729Y291620D01*
X240787Y291700D01*
X240849Y291778D01*
X240914Y291853D01*
X240982Y291926D01*
X241052Y291996D01*
X241125Y292064D01*
X241200Y292129D01*
X241278Y292191D01*
X241358Y292249D01*
X241441Y292305D01*
X241525Y292357D01*
X241612Y292407D01*
X241700Y292452D01*
X241790Y292495D01*
X241882Y292534D01*
X241974Y292569D01*
X242069Y292601D01*
X242164Y292629D01*
X242260Y292654D01*
X242358Y292675D01*
X242456Y292692D01*
X242554Y292705D01*
X242653Y292714D01*
X242753Y292720D01*
X242852Y292722D01*
X242852Y292723D02*
X245448Y292723D01*
X249813Y290126D02*
X253059Y292723D01*
X253059Y281039D01*
X249813Y281039D02*
X256305Y281039D01*
X263992Y232300D02*
X266589Y232300D01*
X263992Y232301D02*
X263893Y232303D01*
X263793Y232309D01*
X263694Y232318D01*
X263596Y232331D01*
X263498Y232348D01*
X263400Y232369D01*
X263304Y232394D01*
X263209Y232422D01*
X263115Y232454D01*
X263022Y232489D01*
X262930Y232528D01*
X262840Y232571D01*
X262752Y232616D01*
X262665Y232666D01*
X262581Y232718D01*
X262498Y232774D01*
X262418Y232832D01*
X262340Y232894D01*
X262265Y232959D01*
X262192Y233027D01*
X262122Y233097D01*
X262054Y233170D01*
X261989Y233245D01*
X261927Y233323D01*
X261869Y233403D01*
X261813Y233486D01*
X261761Y233570D01*
X261711Y233657D01*
X261666Y233745D01*
X261623Y233835D01*
X261584Y233927D01*
X261549Y234020D01*
X261517Y234114D01*
X261489Y234209D01*
X261464Y234305D01*
X261443Y234403D01*
X261426Y234501D01*
X261413Y234599D01*
X261404Y234698D01*
X261398Y234798D01*
X261396Y234897D01*
X261396Y241388D01*
X261398Y241487D01*
X261404Y241587D01*
X261413Y241686D01*
X261426Y241784D01*
X261443Y241882D01*
X261464Y241980D01*
X261489Y242076D01*
X261517Y242171D01*
X261549Y242265D01*
X261584Y242358D01*
X261623Y242450D01*
X261666Y242540D01*
X261711Y242628D01*
X261761Y242715D01*
X261813Y242799D01*
X261869Y242882D01*
X261927Y242962D01*
X261989Y243040D01*
X262054Y243115D01*
X262122Y243188D01*
X262192Y243258D01*
X262265Y243326D01*
X262340Y243391D01*
X262418Y243453D01*
X262498Y243511D01*
X262581Y243567D01*
X262665Y243619D01*
X262752Y243669D01*
X262840Y243714D01*
X262930Y243757D01*
X263022Y243796D01*
X263114Y243831D01*
X263209Y243863D01*
X263304Y243891D01*
X263400Y243916D01*
X263498Y243937D01*
X263596Y243954D01*
X263694Y243967D01*
X263793Y243976D01*
X263893Y243982D01*
X263992Y243984D01*
X266589Y243984D01*
X270954Y241388D02*
X274200Y243984D01*
X274200Y232300D01*
X277445Y232300D02*
X270954Y232300D01*
X218840Y232212D02*
X216244Y232212D01*
X216145Y232214D01*
X216045Y232220D01*
X215946Y232229D01*
X215848Y232242D01*
X215750Y232259D01*
X215652Y232280D01*
X215556Y232305D01*
X215461Y232333D01*
X215367Y232365D01*
X215274Y232400D01*
X215182Y232439D01*
X215092Y232482D01*
X215004Y232527D01*
X214917Y232577D01*
X214833Y232629D01*
X214750Y232685D01*
X214670Y232743D01*
X214592Y232805D01*
X214517Y232870D01*
X214444Y232938D01*
X214374Y233008D01*
X214306Y233081D01*
X214241Y233156D01*
X214179Y233234D01*
X214121Y233314D01*
X214065Y233397D01*
X214013Y233481D01*
X213963Y233568D01*
X213918Y233656D01*
X213875Y233746D01*
X213836Y233838D01*
X213801Y233931D01*
X213769Y234025D01*
X213741Y234120D01*
X213716Y234216D01*
X213695Y234314D01*
X213678Y234412D01*
X213665Y234510D01*
X213656Y234609D01*
X213650Y234709D01*
X213648Y234808D01*
X213647Y234808D02*
X213647Y241299D01*
X213648Y241299D02*
X213650Y241398D01*
X213656Y241498D01*
X213665Y241597D01*
X213678Y241695D01*
X213695Y241793D01*
X213716Y241891D01*
X213741Y241987D01*
X213769Y242082D01*
X213801Y242176D01*
X213836Y242269D01*
X213875Y242361D01*
X213918Y242451D01*
X213963Y242539D01*
X214013Y242626D01*
X214065Y242710D01*
X214121Y242793D01*
X214179Y242873D01*
X214241Y242951D01*
X214306Y243026D01*
X214374Y243099D01*
X214444Y243169D01*
X214517Y243237D01*
X214592Y243302D01*
X214670Y243364D01*
X214750Y243422D01*
X214833Y243478D01*
X214917Y243530D01*
X215004Y243580D01*
X215092Y243625D01*
X215182Y243668D01*
X215274Y243707D01*
X215366Y243742D01*
X215461Y243774D01*
X215556Y243802D01*
X215652Y243827D01*
X215750Y243848D01*
X215848Y243865D01*
X215946Y243878D01*
X216045Y243887D01*
X216145Y243893D01*
X216244Y243895D01*
X216244Y243896D02*
X218840Y243896D01*
X226776Y243896D02*
X226883Y243894D01*
X226989Y243888D01*
X227095Y243878D01*
X227201Y243865D01*
X227307Y243847D01*
X227411Y243826D01*
X227515Y243801D01*
X227618Y243772D01*
X227719Y243740D01*
X227819Y243703D01*
X227918Y243663D01*
X228016Y243620D01*
X228112Y243573D01*
X228206Y243522D01*
X228298Y243468D01*
X228388Y243411D01*
X228476Y243351D01*
X228561Y243287D01*
X228644Y243220D01*
X228725Y243150D01*
X228803Y243078D01*
X228879Y243002D01*
X228951Y242924D01*
X229021Y242843D01*
X229088Y242760D01*
X229152Y242675D01*
X229212Y242587D01*
X229269Y242497D01*
X229323Y242405D01*
X229374Y242311D01*
X229421Y242215D01*
X229464Y242117D01*
X229504Y242018D01*
X229541Y241918D01*
X229573Y241817D01*
X229602Y241714D01*
X229627Y241610D01*
X229648Y241506D01*
X229666Y241400D01*
X229679Y241294D01*
X229689Y241188D01*
X229695Y241082D01*
X229697Y240975D01*
X226776Y243896D02*
X226655Y243894D01*
X226534Y243888D01*
X226414Y243878D01*
X226293Y243865D01*
X226174Y243847D01*
X226054Y243826D01*
X225936Y243801D01*
X225819Y243772D01*
X225702Y243739D01*
X225587Y243703D01*
X225473Y243662D01*
X225360Y243619D01*
X225248Y243571D01*
X225139Y243520D01*
X225031Y243465D01*
X224924Y243407D01*
X224820Y243346D01*
X224718Y243281D01*
X224618Y243213D01*
X224520Y243142D01*
X224424Y243068D01*
X224331Y242991D01*
X224241Y242910D01*
X224153Y242827D01*
X224068Y242741D01*
X223985Y242652D01*
X223906Y242561D01*
X223829Y242467D01*
X223756Y242371D01*
X223686Y242273D01*
X223619Y242172D01*
X223555Y242069D01*
X223495Y241964D01*
X223438Y241857D01*
X223384Y241749D01*
X223334Y241639D01*
X223288Y241527D01*
X223245Y241414D01*
X223206Y241299D01*
X228723Y238703D02*
X228802Y238780D01*
X228878Y238861D01*
X228951Y238944D01*
X229021Y239029D01*
X229088Y239117D01*
X229152Y239207D01*
X229212Y239299D01*
X229269Y239394D01*
X229323Y239490D01*
X229374Y239588D01*
X229421Y239688D01*
X229465Y239790D01*
X229505Y239893D01*
X229541Y239997D01*
X229573Y240103D01*
X229602Y240209D01*
X229627Y240317D01*
X229649Y240425D01*
X229666Y240535D01*
X229680Y240644D01*
X229689Y240754D01*
X229695Y240865D01*
X229697Y240975D01*
X228723Y238703D02*
X223206Y232212D01*
X229697Y232212D01*
X254963Y198210D02*
X266647Y198210D01*
X254963Y198210D02*
X254963Y201455D01*
X254962Y201455D02*
X254964Y201568D01*
X254970Y201681D01*
X254980Y201794D01*
X254994Y201907D01*
X255011Y202019D01*
X255033Y202130D01*
X255058Y202240D01*
X255088Y202350D01*
X255121Y202458D01*
X255158Y202565D01*
X255198Y202671D01*
X255243Y202775D01*
X255291Y202878D01*
X255342Y202979D01*
X255397Y203078D01*
X255455Y203175D01*
X255517Y203270D01*
X255582Y203363D01*
X255650Y203453D01*
X255721Y203541D01*
X255796Y203627D01*
X255873Y203710D01*
X255953Y203790D01*
X256036Y203867D01*
X256122Y203942D01*
X256210Y204013D01*
X256300Y204081D01*
X256393Y204146D01*
X256488Y204208D01*
X256585Y204266D01*
X256684Y204321D01*
X256785Y204372D01*
X256888Y204420D01*
X256992Y204465D01*
X257098Y204505D01*
X257205Y204542D01*
X257313Y204575D01*
X257423Y204605D01*
X257533Y204630D01*
X257644Y204652D01*
X257756Y204669D01*
X257869Y204683D01*
X257982Y204693D01*
X258095Y204699D01*
X258208Y204701D01*
X258321Y204699D01*
X258434Y204693D01*
X258547Y204683D01*
X258660Y204669D01*
X258772Y204652D01*
X258883Y204630D01*
X258993Y204605D01*
X259103Y204575D01*
X259211Y204542D01*
X259318Y204505D01*
X259424Y204465D01*
X259528Y204420D01*
X259631Y204372D01*
X259732Y204321D01*
X259831Y204266D01*
X259928Y204208D01*
X260023Y204146D01*
X260116Y204081D01*
X260206Y204013D01*
X260294Y203942D01*
X260380Y203867D01*
X260463Y203790D01*
X260543Y203710D01*
X260620Y203627D01*
X260695Y203541D01*
X260766Y203453D01*
X260834Y203363D01*
X260899Y203270D01*
X260961Y203175D01*
X261019Y203078D01*
X261074Y202979D01*
X261125Y202878D01*
X261173Y202775D01*
X261218Y202671D01*
X261258Y202565D01*
X261295Y202458D01*
X261328Y202350D01*
X261358Y202240D01*
X261383Y202130D01*
X261405Y202019D01*
X261422Y201907D01*
X261436Y201794D01*
X261446Y201681D01*
X261452Y201568D01*
X261454Y201455D01*
X261454Y198210D01*
X261454Y202104D02*
X266647Y204701D01*
X257884Y216057D02*
X257777Y216055D01*
X257671Y216049D01*
X257565Y216039D01*
X257459Y216026D01*
X257353Y216008D01*
X257249Y215987D01*
X257145Y215962D01*
X257042Y215933D01*
X256941Y215901D01*
X256841Y215864D01*
X256742Y215824D01*
X256644Y215781D01*
X256548Y215734D01*
X256454Y215683D01*
X256362Y215629D01*
X256272Y215572D01*
X256184Y215512D01*
X256099Y215448D01*
X256016Y215381D01*
X255935Y215311D01*
X255857Y215239D01*
X255781Y215163D01*
X255709Y215085D01*
X255639Y215004D01*
X255572Y214921D01*
X255508Y214836D01*
X255448Y214748D01*
X255391Y214658D01*
X255337Y214566D01*
X255286Y214472D01*
X255239Y214376D01*
X255196Y214278D01*
X255156Y214179D01*
X255119Y214079D01*
X255087Y213978D01*
X255058Y213875D01*
X255033Y213771D01*
X255012Y213667D01*
X254994Y213561D01*
X254981Y213455D01*
X254971Y213349D01*
X254965Y213243D01*
X254963Y213136D01*
X254962Y213136D02*
X254964Y213015D01*
X254970Y212894D01*
X254980Y212774D01*
X254993Y212653D01*
X255011Y212534D01*
X255032Y212414D01*
X255057Y212296D01*
X255086Y212179D01*
X255119Y212062D01*
X255155Y211947D01*
X255196Y211833D01*
X255239Y211720D01*
X255287Y211608D01*
X255338Y211499D01*
X255393Y211391D01*
X255451Y211284D01*
X255512Y211180D01*
X255577Y211078D01*
X255645Y210978D01*
X255716Y210880D01*
X255790Y210784D01*
X255867Y210691D01*
X255948Y210601D01*
X256031Y210513D01*
X256117Y210428D01*
X256206Y210345D01*
X256297Y210266D01*
X256391Y210189D01*
X256487Y210116D01*
X256585Y210046D01*
X256686Y209979D01*
X256789Y209915D01*
X256894Y209855D01*
X257001Y209797D01*
X257109Y209744D01*
X257219Y209694D01*
X257331Y209648D01*
X257444Y209605D01*
X257559Y209566D01*
X260156Y215083D02*
X260078Y215162D01*
X259998Y215238D01*
X259915Y215311D01*
X259829Y215381D01*
X259742Y215448D01*
X259651Y215512D01*
X259559Y215572D01*
X259465Y215630D01*
X259368Y215684D01*
X259270Y215734D01*
X259170Y215781D01*
X259069Y215825D01*
X258966Y215865D01*
X258861Y215901D01*
X258756Y215933D01*
X258649Y215962D01*
X258542Y215987D01*
X258433Y216009D01*
X258324Y216026D01*
X258215Y216040D01*
X258105Y216049D01*
X257994Y216055D01*
X257884Y216057D01*
X260155Y215084D02*
X266647Y209566D01*
X266647Y216057D01*
X257559Y220996D02*
X254963Y224242D01*
X266647Y224242D01*
X266647Y227487D02*
X266647Y220996D01*
X320117Y205325D02*
X331801Y205325D01*
X320117Y205325D02*
X320117Y208571D01*
X320119Y208684D01*
X320125Y208797D01*
X320135Y208910D01*
X320149Y209023D01*
X320166Y209135D01*
X320188Y209246D01*
X320213Y209356D01*
X320243Y209466D01*
X320276Y209574D01*
X320313Y209681D01*
X320353Y209787D01*
X320398Y209891D01*
X320446Y209994D01*
X320497Y210095D01*
X320552Y210194D01*
X320610Y210291D01*
X320672Y210386D01*
X320737Y210479D01*
X320805Y210569D01*
X320876Y210657D01*
X320951Y210743D01*
X321028Y210826D01*
X321108Y210906D01*
X321191Y210983D01*
X321277Y211058D01*
X321365Y211129D01*
X321455Y211197D01*
X321548Y211262D01*
X321643Y211324D01*
X321740Y211382D01*
X321839Y211437D01*
X321940Y211488D01*
X322043Y211536D01*
X322147Y211581D01*
X322253Y211621D01*
X322360Y211658D01*
X322468Y211691D01*
X322578Y211721D01*
X322688Y211746D01*
X322799Y211768D01*
X322911Y211785D01*
X323024Y211799D01*
X323137Y211809D01*
X323250Y211815D01*
X323363Y211817D01*
X323476Y211815D01*
X323589Y211809D01*
X323702Y211799D01*
X323815Y211785D01*
X323927Y211768D01*
X324038Y211746D01*
X324148Y211721D01*
X324258Y211691D01*
X324366Y211658D01*
X324473Y211621D01*
X324579Y211581D01*
X324683Y211536D01*
X324786Y211488D01*
X324887Y211437D01*
X324986Y211382D01*
X325083Y211324D01*
X325178Y211262D01*
X325271Y211197D01*
X325361Y211129D01*
X325449Y211058D01*
X325535Y210983D01*
X325618Y210906D01*
X325698Y210826D01*
X325775Y210743D01*
X325850Y210657D01*
X325921Y210569D01*
X325989Y210479D01*
X326054Y210386D01*
X326116Y210291D01*
X326174Y210194D01*
X326229Y210095D01*
X326280Y209994D01*
X326328Y209891D01*
X326373Y209787D01*
X326413Y209681D01*
X326450Y209574D01*
X326483Y209466D01*
X326513Y209356D01*
X326538Y209246D01*
X326560Y209135D01*
X326577Y209023D01*
X326591Y208910D01*
X326601Y208797D01*
X326607Y208684D01*
X326609Y208571D01*
X326608Y208571D02*
X326608Y205325D01*
X326608Y209220D02*
X331801Y211816D01*
X323038Y223173D02*
X322931Y223171D01*
X322825Y223165D01*
X322719Y223155D01*
X322613Y223142D01*
X322507Y223124D01*
X322403Y223103D01*
X322299Y223078D01*
X322196Y223049D01*
X322095Y223017D01*
X321995Y222980D01*
X321896Y222940D01*
X321798Y222897D01*
X321702Y222850D01*
X321608Y222799D01*
X321516Y222745D01*
X321426Y222688D01*
X321338Y222628D01*
X321253Y222564D01*
X321170Y222497D01*
X321089Y222427D01*
X321011Y222355D01*
X320935Y222279D01*
X320863Y222201D01*
X320793Y222120D01*
X320726Y222037D01*
X320662Y221952D01*
X320602Y221864D01*
X320545Y221774D01*
X320491Y221682D01*
X320440Y221588D01*
X320393Y221492D01*
X320350Y221394D01*
X320310Y221295D01*
X320273Y221195D01*
X320241Y221094D01*
X320212Y220991D01*
X320187Y220887D01*
X320166Y220783D01*
X320148Y220677D01*
X320135Y220571D01*
X320125Y220465D01*
X320119Y220359D01*
X320117Y220252D01*
X320119Y220131D01*
X320125Y220010D01*
X320135Y219890D01*
X320148Y219769D01*
X320166Y219650D01*
X320187Y219530D01*
X320212Y219412D01*
X320241Y219295D01*
X320274Y219178D01*
X320310Y219063D01*
X320351Y218949D01*
X320394Y218836D01*
X320442Y218724D01*
X320493Y218615D01*
X320548Y218507D01*
X320606Y218400D01*
X320667Y218296D01*
X320732Y218194D01*
X320800Y218094D01*
X320871Y217996D01*
X320945Y217900D01*
X321022Y217807D01*
X321103Y217717D01*
X321186Y217629D01*
X321272Y217544D01*
X321361Y217461D01*
X321452Y217382D01*
X321546Y217305D01*
X321642Y217232D01*
X321740Y217162D01*
X321841Y217095D01*
X321944Y217031D01*
X322049Y216971D01*
X322156Y216913D01*
X322264Y216860D01*
X322374Y216810D01*
X322486Y216764D01*
X322599Y216721D01*
X322714Y216682D01*
X325310Y222198D02*
X325232Y222277D01*
X325152Y222353D01*
X325069Y222426D01*
X324983Y222496D01*
X324896Y222563D01*
X324805Y222627D01*
X324713Y222687D01*
X324619Y222745D01*
X324522Y222799D01*
X324424Y222849D01*
X324324Y222896D01*
X324223Y222940D01*
X324120Y222980D01*
X324015Y223016D01*
X323910Y223048D01*
X323803Y223077D01*
X323696Y223102D01*
X323587Y223124D01*
X323478Y223141D01*
X323369Y223155D01*
X323259Y223164D01*
X323148Y223170D01*
X323038Y223172D01*
X325310Y222199D02*
X331801Y216682D01*
X331801Y223173D01*
X167764Y274264D02*
X167764Y285948D01*
X171010Y285948D01*
X171123Y285946D01*
X171236Y285940D01*
X171349Y285930D01*
X171462Y285916D01*
X171574Y285899D01*
X171685Y285877D01*
X171795Y285852D01*
X171905Y285822D01*
X172013Y285789D01*
X172120Y285752D01*
X172226Y285712D01*
X172330Y285667D01*
X172433Y285619D01*
X172534Y285568D01*
X172633Y285513D01*
X172730Y285455D01*
X172825Y285393D01*
X172918Y285328D01*
X173008Y285260D01*
X173096Y285189D01*
X173182Y285114D01*
X173265Y285037D01*
X173345Y284957D01*
X173422Y284874D01*
X173497Y284788D01*
X173568Y284700D01*
X173636Y284610D01*
X173701Y284517D01*
X173763Y284422D01*
X173821Y284325D01*
X173876Y284226D01*
X173927Y284125D01*
X173975Y284022D01*
X174020Y283918D01*
X174060Y283812D01*
X174097Y283705D01*
X174130Y283597D01*
X174160Y283487D01*
X174185Y283377D01*
X174207Y283266D01*
X174224Y283154D01*
X174238Y283041D01*
X174248Y282928D01*
X174254Y282815D01*
X174256Y282702D01*
X174254Y282589D01*
X174248Y282476D01*
X174238Y282363D01*
X174224Y282250D01*
X174207Y282138D01*
X174185Y282027D01*
X174160Y281917D01*
X174130Y281807D01*
X174097Y281699D01*
X174060Y281592D01*
X174020Y281486D01*
X173975Y281382D01*
X173927Y281279D01*
X173876Y281178D01*
X173821Y281079D01*
X173763Y280982D01*
X173701Y280887D01*
X173636Y280794D01*
X173568Y280704D01*
X173497Y280616D01*
X173422Y280530D01*
X173345Y280447D01*
X173265Y280367D01*
X173182Y280290D01*
X173096Y280215D01*
X173008Y280144D01*
X172918Y280076D01*
X172825Y280011D01*
X172730Y279949D01*
X172633Y279891D01*
X172534Y279836D01*
X172433Y279785D01*
X172330Y279737D01*
X172226Y279692D01*
X172120Y279652D01*
X172013Y279615D01*
X171905Y279582D01*
X171795Y279552D01*
X171685Y279527D01*
X171574Y279505D01*
X171462Y279488D01*
X171349Y279474D01*
X171236Y279464D01*
X171123Y279458D01*
X171010Y279456D01*
X171010Y279457D02*
X167764Y279457D01*
X171659Y279457D02*
X174255Y274264D01*
X179120Y274264D02*
X182366Y274264D01*
X182479Y274266D01*
X182592Y274272D01*
X182705Y274282D01*
X182818Y274296D01*
X182930Y274313D01*
X183041Y274335D01*
X183151Y274360D01*
X183261Y274390D01*
X183369Y274423D01*
X183476Y274460D01*
X183582Y274500D01*
X183686Y274545D01*
X183789Y274593D01*
X183890Y274644D01*
X183989Y274699D01*
X184086Y274757D01*
X184181Y274819D01*
X184274Y274884D01*
X184364Y274952D01*
X184452Y275023D01*
X184538Y275098D01*
X184621Y275175D01*
X184701Y275255D01*
X184778Y275338D01*
X184853Y275424D01*
X184924Y275512D01*
X184992Y275602D01*
X185057Y275695D01*
X185119Y275790D01*
X185177Y275887D01*
X185232Y275986D01*
X185283Y276087D01*
X185331Y276190D01*
X185376Y276294D01*
X185416Y276400D01*
X185453Y276507D01*
X185486Y276615D01*
X185516Y276725D01*
X185541Y276835D01*
X185563Y276946D01*
X185580Y277058D01*
X185594Y277171D01*
X185604Y277284D01*
X185610Y277397D01*
X185612Y277510D01*
X185610Y277623D01*
X185604Y277736D01*
X185594Y277849D01*
X185580Y277962D01*
X185563Y278074D01*
X185541Y278185D01*
X185516Y278295D01*
X185486Y278405D01*
X185453Y278513D01*
X185416Y278620D01*
X185376Y278726D01*
X185331Y278830D01*
X185283Y278933D01*
X185232Y279034D01*
X185177Y279133D01*
X185119Y279230D01*
X185057Y279325D01*
X184992Y279418D01*
X184924Y279508D01*
X184853Y279596D01*
X184778Y279682D01*
X184701Y279765D01*
X184621Y279845D01*
X184538Y279922D01*
X184452Y279997D01*
X184364Y280068D01*
X184274Y280136D01*
X184181Y280201D01*
X184086Y280263D01*
X183989Y280321D01*
X183890Y280376D01*
X183789Y280427D01*
X183686Y280475D01*
X183582Y280520D01*
X183476Y280560D01*
X183369Y280597D01*
X183261Y280630D01*
X183151Y280660D01*
X183041Y280685D01*
X182930Y280707D01*
X182818Y280724D01*
X182705Y280738D01*
X182592Y280748D01*
X182479Y280754D01*
X182366Y280756D01*
X183015Y285948D02*
X179120Y285948D01*
X183015Y285948D02*
X183116Y285946D01*
X183216Y285940D01*
X183316Y285930D01*
X183416Y285917D01*
X183515Y285899D01*
X183614Y285878D01*
X183711Y285853D01*
X183808Y285824D01*
X183903Y285791D01*
X183997Y285755D01*
X184089Y285715D01*
X184180Y285672D01*
X184269Y285625D01*
X184356Y285575D01*
X184442Y285521D01*
X184525Y285464D01*
X184605Y285404D01*
X184684Y285341D01*
X184760Y285274D01*
X184833Y285205D01*
X184903Y285133D01*
X184971Y285059D01*
X185036Y284982D01*
X185097Y284902D01*
X185156Y284820D01*
X185211Y284736D01*
X185263Y284650D01*
X185312Y284562D01*
X185357Y284472D01*
X185399Y284380D01*
X185437Y284287D01*
X185471Y284192D01*
X185502Y284097D01*
X185529Y284000D01*
X185552Y283902D01*
X185572Y283803D01*
X185587Y283703D01*
X185599Y283603D01*
X185607Y283503D01*
X185611Y283402D01*
X185611Y283302D01*
X185607Y283201D01*
X185599Y283101D01*
X185587Y283001D01*
X185572Y282901D01*
X185552Y282802D01*
X185529Y282704D01*
X185502Y282607D01*
X185471Y282512D01*
X185437Y282417D01*
X185399Y282324D01*
X185357Y282232D01*
X185312Y282142D01*
X185263Y282054D01*
X185211Y281968D01*
X185156Y281884D01*
X185097Y281802D01*
X185036Y281722D01*
X184971Y281645D01*
X184903Y281571D01*
X184833Y281499D01*
X184760Y281430D01*
X184684Y281363D01*
X184605Y281300D01*
X184525Y281240D01*
X184442Y281183D01*
X184356Y281129D01*
X184269Y281079D01*
X184180Y281032D01*
X184089Y280989D01*
X183997Y280949D01*
X183903Y280913D01*
X183808Y280880D01*
X183711Y280851D01*
X183614Y280826D01*
X183515Y280805D01*
X183416Y280787D01*
X183316Y280774D01*
X183216Y280764D01*
X183116Y280758D01*
X183015Y280756D01*
X183015Y280755D02*
X180419Y280755D01*
X166846Y331321D02*
X166846Y343005D01*
X170092Y343005D01*
X170205Y343003D01*
X170318Y342997D01*
X170431Y342987D01*
X170544Y342973D01*
X170656Y342956D01*
X170767Y342934D01*
X170877Y342909D01*
X170987Y342879D01*
X171095Y342846D01*
X171202Y342809D01*
X171308Y342769D01*
X171412Y342724D01*
X171515Y342676D01*
X171616Y342625D01*
X171715Y342570D01*
X171812Y342512D01*
X171907Y342450D01*
X172000Y342385D01*
X172090Y342317D01*
X172178Y342246D01*
X172264Y342171D01*
X172347Y342094D01*
X172427Y342014D01*
X172504Y341931D01*
X172579Y341845D01*
X172650Y341757D01*
X172718Y341667D01*
X172783Y341574D01*
X172845Y341479D01*
X172903Y341382D01*
X172958Y341283D01*
X173009Y341182D01*
X173057Y341079D01*
X173102Y340975D01*
X173142Y340869D01*
X173179Y340762D01*
X173212Y340654D01*
X173242Y340544D01*
X173267Y340434D01*
X173289Y340323D01*
X173306Y340211D01*
X173320Y340098D01*
X173330Y339985D01*
X173336Y339872D01*
X173338Y339759D01*
X173336Y339646D01*
X173330Y339533D01*
X173320Y339420D01*
X173306Y339307D01*
X173289Y339195D01*
X173267Y339084D01*
X173242Y338974D01*
X173212Y338864D01*
X173179Y338756D01*
X173142Y338649D01*
X173102Y338543D01*
X173057Y338439D01*
X173009Y338336D01*
X172958Y338235D01*
X172903Y338136D01*
X172845Y338039D01*
X172783Y337944D01*
X172718Y337851D01*
X172650Y337761D01*
X172579Y337673D01*
X172504Y337587D01*
X172427Y337504D01*
X172347Y337424D01*
X172264Y337347D01*
X172178Y337272D01*
X172090Y337201D01*
X172000Y337133D01*
X171907Y337068D01*
X171812Y337006D01*
X171715Y336948D01*
X171616Y336893D01*
X171515Y336842D01*
X171412Y336794D01*
X171308Y336749D01*
X171202Y336709D01*
X171095Y336672D01*
X170987Y336639D01*
X170877Y336609D01*
X170767Y336584D01*
X170656Y336562D01*
X170544Y336545D01*
X170431Y336531D01*
X170318Y336521D01*
X170205Y336515D01*
X170092Y336513D01*
X170092Y336514D02*
X166846Y336514D01*
X170741Y336514D02*
X173337Y331321D01*
X178202Y333917D02*
X180799Y343005D01*
X178202Y333917D02*
X184694Y333917D01*
X182746Y331321D02*
X182746Y336514D01*
X311218Y268630D02*
X322902Y268630D01*
X311218Y268630D02*
X311218Y271876D01*
X311220Y271989D01*
X311226Y272102D01*
X311236Y272215D01*
X311250Y272328D01*
X311267Y272440D01*
X311289Y272551D01*
X311314Y272661D01*
X311344Y272771D01*
X311377Y272879D01*
X311414Y272986D01*
X311454Y273092D01*
X311499Y273196D01*
X311547Y273299D01*
X311598Y273400D01*
X311653Y273499D01*
X311711Y273596D01*
X311773Y273691D01*
X311838Y273784D01*
X311906Y273874D01*
X311977Y273962D01*
X312052Y274048D01*
X312129Y274131D01*
X312209Y274211D01*
X312292Y274288D01*
X312378Y274363D01*
X312466Y274434D01*
X312556Y274502D01*
X312649Y274567D01*
X312744Y274629D01*
X312841Y274687D01*
X312940Y274742D01*
X313041Y274793D01*
X313144Y274841D01*
X313248Y274886D01*
X313354Y274926D01*
X313461Y274963D01*
X313569Y274996D01*
X313679Y275026D01*
X313789Y275051D01*
X313900Y275073D01*
X314012Y275090D01*
X314125Y275104D01*
X314238Y275114D01*
X314351Y275120D01*
X314464Y275122D01*
X314577Y275120D01*
X314690Y275114D01*
X314803Y275104D01*
X314916Y275090D01*
X315028Y275073D01*
X315139Y275051D01*
X315249Y275026D01*
X315359Y274996D01*
X315467Y274963D01*
X315574Y274926D01*
X315680Y274886D01*
X315784Y274841D01*
X315887Y274793D01*
X315988Y274742D01*
X316087Y274687D01*
X316184Y274629D01*
X316279Y274567D01*
X316372Y274502D01*
X316462Y274434D01*
X316550Y274363D01*
X316636Y274288D01*
X316719Y274211D01*
X316799Y274131D01*
X316876Y274048D01*
X316951Y273962D01*
X317022Y273874D01*
X317090Y273784D01*
X317155Y273691D01*
X317217Y273596D01*
X317275Y273499D01*
X317330Y273400D01*
X317381Y273299D01*
X317429Y273196D01*
X317474Y273092D01*
X317514Y272986D01*
X317551Y272879D01*
X317584Y272771D01*
X317614Y272661D01*
X317639Y272551D01*
X317661Y272440D01*
X317678Y272328D01*
X317692Y272215D01*
X317702Y272102D01*
X317708Y271989D01*
X317710Y271876D01*
X317709Y271876D02*
X317709Y268630D01*
X317709Y272525D02*
X322902Y275121D01*
X322902Y279986D02*
X322902Y283881D01*
X322900Y283980D01*
X322894Y284080D01*
X322885Y284179D01*
X322872Y284277D01*
X322855Y284375D01*
X322834Y284473D01*
X322809Y284569D01*
X322781Y284664D01*
X322749Y284758D01*
X322714Y284851D01*
X322675Y284943D01*
X322632Y285033D01*
X322587Y285121D01*
X322537Y285208D01*
X322485Y285292D01*
X322429Y285375D01*
X322371Y285455D01*
X322309Y285533D01*
X322244Y285608D01*
X322176Y285681D01*
X322106Y285751D01*
X322033Y285819D01*
X321958Y285884D01*
X321880Y285946D01*
X321800Y286004D01*
X321717Y286060D01*
X321633Y286112D01*
X321546Y286162D01*
X321458Y286207D01*
X321368Y286250D01*
X321276Y286289D01*
X321183Y286324D01*
X321089Y286356D01*
X320994Y286384D01*
X320898Y286409D01*
X320800Y286430D01*
X320702Y286447D01*
X320604Y286460D01*
X320505Y286469D01*
X320405Y286475D01*
X320306Y286477D01*
X319007Y286477D01*
X318908Y286475D01*
X318808Y286469D01*
X318709Y286460D01*
X318611Y286447D01*
X318513Y286430D01*
X318415Y286409D01*
X318319Y286384D01*
X318224Y286356D01*
X318130Y286324D01*
X318037Y286289D01*
X317945Y286250D01*
X317855Y286207D01*
X317767Y286162D01*
X317680Y286112D01*
X317596Y286060D01*
X317513Y286004D01*
X317433Y285946D01*
X317355Y285884D01*
X317280Y285819D01*
X317207Y285751D01*
X317137Y285681D01*
X317069Y285608D01*
X317004Y285533D01*
X316942Y285455D01*
X316884Y285375D01*
X316828Y285292D01*
X316776Y285208D01*
X316726Y285121D01*
X316681Y285033D01*
X316638Y284943D01*
X316599Y284851D01*
X316564Y284758D01*
X316532Y284664D01*
X316504Y284569D01*
X316479Y284473D01*
X316458Y284375D01*
X316441Y284277D01*
X316428Y284179D01*
X316419Y284080D01*
X316413Y283980D01*
X316411Y283881D01*
X316411Y279986D01*
X311218Y279986D01*
X311218Y286477D01*
D16*
X158475Y199501D02*
X156387Y199501D01*
X156298Y199503D01*
X156210Y199509D01*
X156122Y199518D01*
X156034Y199531D01*
X155947Y199548D01*
X155861Y199568D01*
X155776Y199593D01*
X155691Y199620D01*
X155608Y199652D01*
X155527Y199686D01*
X155447Y199725D01*
X155369Y199766D01*
X155292Y199811D01*
X155218Y199859D01*
X155145Y199910D01*
X155075Y199964D01*
X155008Y200022D01*
X154942Y200082D01*
X154880Y200144D01*
X154820Y200210D01*
X154762Y200277D01*
X154708Y200347D01*
X154657Y200420D01*
X154609Y200494D01*
X154564Y200571D01*
X154523Y200649D01*
X154484Y200729D01*
X154450Y200810D01*
X154418Y200893D01*
X154391Y200978D01*
X154366Y201063D01*
X154346Y201149D01*
X154329Y201236D01*
X154316Y201324D01*
X154307Y201412D01*
X154301Y201500D01*
X154299Y201589D01*
X154298Y201589D02*
X154298Y206810D01*
X154299Y206810D02*
X154301Y206901D01*
X154307Y206992D01*
X154317Y207083D01*
X154331Y207173D01*
X154348Y207262D01*
X154370Y207350D01*
X154396Y207438D01*
X154425Y207524D01*
X154458Y207609D01*
X154495Y207692D01*
X154535Y207774D01*
X154579Y207854D01*
X154626Y207932D01*
X154677Y208008D01*
X154730Y208081D01*
X154787Y208152D01*
X154848Y208221D01*
X154911Y208286D01*
X154976Y208349D01*
X155045Y208409D01*
X155116Y208467D01*
X155189Y208520D01*
X155265Y208571D01*
X155343Y208618D01*
X155423Y208662D01*
X155505Y208702D01*
X155588Y208739D01*
X155673Y208772D01*
X155759Y208801D01*
X155847Y208827D01*
X155935Y208849D01*
X156024Y208866D01*
X156114Y208880D01*
X156205Y208890D01*
X156296Y208896D01*
X156387Y208898D01*
X156387Y208899D02*
X158475Y208899D01*
X161944Y208899D02*
X161944Y207854D01*
X161944Y208899D02*
X167165Y208899D01*
X164555Y199501D01*
D15*
X189767Y168179D02*
X189767Y155679D01*
X166367Y155679D02*
X166367Y168179D01*
D12*
X183567Y182929D02*
X183569Y182992D01*
X183575Y183054D01*
X183585Y183116D01*
X183598Y183178D01*
X183616Y183238D01*
X183637Y183297D01*
X183662Y183355D01*
X183691Y183411D01*
X183723Y183465D01*
X183758Y183517D01*
X183796Y183566D01*
X183838Y183614D01*
X183882Y183658D01*
X183930Y183700D01*
X183979Y183738D01*
X184031Y183773D01*
X184085Y183805D01*
X184141Y183834D01*
X184199Y183859D01*
X184258Y183880D01*
X184318Y183898D01*
X184380Y183911D01*
X184442Y183921D01*
X184504Y183927D01*
X184567Y183929D01*
X184630Y183927D01*
X184692Y183921D01*
X184754Y183911D01*
X184816Y183898D01*
X184876Y183880D01*
X184935Y183859D01*
X184993Y183834D01*
X185049Y183805D01*
X185103Y183773D01*
X185155Y183738D01*
X185204Y183700D01*
X185252Y183658D01*
X185296Y183614D01*
X185338Y183566D01*
X185376Y183517D01*
X185411Y183465D01*
X185443Y183411D01*
X185472Y183355D01*
X185497Y183297D01*
X185518Y183238D01*
X185536Y183178D01*
X185549Y183116D01*
X185559Y183054D01*
X185565Y182992D01*
X185567Y182929D01*
X185565Y182866D01*
X185559Y182804D01*
X185549Y182742D01*
X185536Y182680D01*
X185518Y182620D01*
X185497Y182561D01*
X185472Y182503D01*
X185443Y182447D01*
X185411Y182393D01*
X185376Y182341D01*
X185338Y182292D01*
X185296Y182244D01*
X185252Y182200D01*
X185204Y182158D01*
X185155Y182120D01*
X185103Y182085D01*
X185049Y182053D01*
X184993Y182024D01*
X184935Y181999D01*
X184876Y181978D01*
X184816Y181960D01*
X184754Y181947D01*
X184692Y181937D01*
X184630Y181931D01*
X184567Y181929D01*
X184504Y181931D01*
X184442Y181937D01*
X184380Y181947D01*
X184318Y181960D01*
X184258Y181978D01*
X184199Y181999D01*
X184141Y182024D01*
X184085Y182053D01*
X184031Y182085D01*
X183979Y182120D01*
X183930Y182158D01*
X183882Y182200D01*
X183838Y182244D01*
X183796Y182292D01*
X183758Y182341D01*
X183723Y182393D01*
X183691Y182447D01*
X183662Y182503D01*
X183637Y182561D01*
X183616Y182620D01*
X183598Y182680D01*
X183585Y182742D01*
X183575Y182804D01*
X183569Y182866D01*
X183567Y182929D01*
D16*
X161397Y158707D02*
X156077Y158707D01*
X161397Y158707D02*
X161486Y158709D01*
X161575Y158715D01*
X161664Y158725D01*
X161752Y158738D01*
X161840Y158755D01*
X161927Y158777D01*
X162012Y158802D01*
X162097Y158830D01*
X162180Y158863D01*
X162262Y158899D01*
X162342Y158938D01*
X162420Y158981D01*
X162496Y159027D01*
X162571Y159077D01*
X162643Y159130D01*
X162712Y159186D01*
X162779Y159245D01*
X162844Y159306D01*
X162905Y159371D01*
X162964Y159438D01*
X163020Y159507D01*
X163073Y159579D01*
X163123Y159654D01*
X163169Y159730D01*
X163212Y159808D01*
X163251Y159888D01*
X163287Y159970D01*
X163320Y160053D01*
X163348Y160138D01*
X163373Y160223D01*
X163395Y160310D01*
X163412Y160398D01*
X163425Y160486D01*
X163435Y160575D01*
X163441Y160664D01*
X163443Y160753D01*
X163441Y160842D01*
X163435Y160931D01*
X163425Y161020D01*
X163412Y161108D01*
X163395Y161196D01*
X163373Y161283D01*
X163348Y161368D01*
X163320Y161453D01*
X163287Y161536D01*
X163251Y161618D01*
X163212Y161698D01*
X163169Y161776D01*
X163123Y161852D01*
X163073Y161927D01*
X163020Y161999D01*
X162964Y162068D01*
X162905Y162135D01*
X162844Y162200D01*
X162779Y162261D01*
X162712Y162320D01*
X162643Y162376D01*
X162571Y162429D01*
X162496Y162479D01*
X162420Y162525D01*
X162342Y162568D01*
X162262Y162607D01*
X162180Y162643D01*
X162097Y162676D01*
X162012Y162704D01*
X161927Y162729D01*
X161840Y162751D01*
X161752Y162768D01*
X161664Y162781D01*
X161575Y162791D01*
X161486Y162797D01*
X161397Y162799D01*
X156077Y162799D01*
X163443Y166266D02*
X163443Y168312D01*
X163441Y168401D01*
X163435Y168490D01*
X163425Y168579D01*
X163412Y168667D01*
X163395Y168755D01*
X163373Y168842D01*
X163348Y168927D01*
X163320Y169012D01*
X163287Y169095D01*
X163251Y169177D01*
X163212Y169257D01*
X163169Y169335D01*
X163123Y169411D01*
X163073Y169486D01*
X163020Y169558D01*
X162964Y169627D01*
X162905Y169694D01*
X162844Y169759D01*
X162779Y169820D01*
X162712Y169879D01*
X162643Y169935D01*
X162571Y169988D01*
X162496Y170038D01*
X162420Y170084D01*
X162342Y170127D01*
X162262Y170166D01*
X162180Y170202D01*
X162097Y170235D01*
X162012Y170263D01*
X161927Y170288D01*
X161840Y170310D01*
X161752Y170327D01*
X161664Y170340D01*
X161575Y170350D01*
X161486Y170356D01*
X161397Y170358D01*
X161308Y170356D01*
X161219Y170350D01*
X161130Y170340D01*
X161042Y170327D01*
X160954Y170310D01*
X160867Y170288D01*
X160782Y170263D01*
X160697Y170235D01*
X160614Y170202D01*
X160532Y170166D01*
X160452Y170127D01*
X160374Y170084D01*
X160298Y170038D01*
X160223Y169988D01*
X160151Y169935D01*
X160082Y169879D01*
X160015Y169820D01*
X159950Y169759D01*
X159889Y169694D01*
X159830Y169627D01*
X159774Y169558D01*
X159721Y169486D01*
X159671Y169411D01*
X159625Y169335D01*
X159582Y169257D01*
X159543Y169177D01*
X159507Y169095D01*
X159474Y169012D01*
X159446Y168927D01*
X159421Y168842D01*
X159399Y168755D01*
X159382Y168667D01*
X159369Y168579D01*
X159359Y168490D01*
X159353Y168401D01*
X159351Y168312D01*
X156077Y168722D02*
X156077Y166266D01*
X156077Y168722D02*
X156079Y168801D01*
X156085Y168880D01*
X156094Y168959D01*
X156107Y169037D01*
X156125Y169114D01*
X156145Y169190D01*
X156170Y169265D01*
X156198Y169339D01*
X156229Y169412D01*
X156265Y169483D01*
X156303Y169552D01*
X156345Y169619D01*
X156390Y169684D01*
X156438Y169747D01*
X156489Y169808D01*
X156543Y169865D01*
X156599Y169921D01*
X156658Y169973D01*
X156720Y170023D01*
X156784Y170069D01*
X156850Y170113D01*
X156918Y170153D01*
X156988Y170189D01*
X157060Y170223D01*
X157134Y170253D01*
X157208Y170279D01*
X157284Y170302D01*
X157361Y170320D01*
X157438Y170336D01*
X157517Y170347D01*
X157595Y170355D01*
X157674Y170359D01*
X157754Y170359D01*
X157833Y170355D01*
X157911Y170347D01*
X157990Y170336D01*
X158067Y170320D01*
X158144Y170302D01*
X158220Y170279D01*
X158294Y170253D01*
X158368Y170223D01*
X158440Y170189D01*
X158510Y170153D01*
X158578Y170113D01*
X158644Y170069D01*
X158708Y170023D01*
X158770Y169973D01*
X158829Y169921D01*
X158885Y169865D01*
X158939Y169808D01*
X158990Y169747D01*
X159038Y169684D01*
X159083Y169619D01*
X159125Y169552D01*
X159163Y169483D01*
X159199Y169412D01*
X159230Y169339D01*
X159258Y169265D01*
X159283Y169190D01*
X159303Y169114D01*
X159321Y169037D01*
X159334Y168959D01*
X159343Y168880D01*
X159349Y168801D01*
X159351Y168722D01*
X159351Y167085D01*
X223244Y152586D02*
X223244Y150497D01*
X223242Y150408D01*
X223236Y150320D01*
X223227Y150232D01*
X223214Y150144D01*
X223197Y150057D01*
X223177Y149971D01*
X223152Y149886D01*
X223125Y149801D01*
X223093Y149718D01*
X223059Y149637D01*
X223020Y149557D01*
X222979Y149479D01*
X222934Y149402D01*
X222886Y149328D01*
X222835Y149255D01*
X222781Y149185D01*
X222723Y149118D01*
X222663Y149052D01*
X222601Y148990D01*
X222535Y148930D01*
X222468Y148872D01*
X222398Y148818D01*
X222325Y148767D01*
X222251Y148719D01*
X222174Y148674D01*
X222096Y148633D01*
X222016Y148594D01*
X221935Y148560D01*
X221852Y148528D01*
X221767Y148501D01*
X221682Y148476D01*
X221596Y148456D01*
X221509Y148439D01*
X221421Y148426D01*
X221333Y148417D01*
X221245Y148411D01*
X221156Y148409D01*
X215935Y148409D01*
X215935Y148408D02*
X215844Y148410D01*
X215753Y148416D01*
X215662Y148426D01*
X215572Y148440D01*
X215483Y148458D01*
X215394Y148479D01*
X215307Y148505D01*
X215221Y148534D01*
X215136Y148567D01*
X215052Y148604D01*
X214970Y148644D01*
X214891Y148688D01*
X214813Y148735D01*
X214737Y148786D01*
X214663Y148840D01*
X214592Y148897D01*
X214524Y148957D01*
X214458Y149020D01*
X214395Y149086D01*
X214335Y149154D01*
X214278Y149225D01*
X214224Y149299D01*
X214173Y149375D01*
X214126Y149452D01*
X214082Y149532D01*
X214042Y149614D01*
X214005Y149698D01*
X213972Y149782D01*
X213943Y149869D01*
X213917Y149956D01*
X213896Y150045D01*
X213878Y150134D01*
X213864Y150224D01*
X213854Y150315D01*
X213848Y150406D01*
X213846Y150497D01*
X213846Y152586D01*
X220634Y156054D02*
X220533Y156056D01*
X220432Y156062D01*
X220331Y156072D01*
X220231Y156085D01*
X220131Y156103D01*
X220032Y156124D01*
X219934Y156150D01*
X219837Y156179D01*
X219741Y156211D01*
X219647Y156248D01*
X219554Y156288D01*
X219462Y156332D01*
X219373Y156379D01*
X219285Y156430D01*
X219199Y156484D01*
X219116Y156541D01*
X219034Y156601D01*
X218956Y156665D01*
X218879Y156731D01*
X218806Y156801D01*
X218735Y156873D01*
X218667Y156948D01*
X218602Y157026D01*
X218540Y157106D01*
X218481Y157188D01*
X218425Y157273D01*
X218373Y157360D01*
X218324Y157448D01*
X218278Y157539D01*
X218237Y157631D01*
X218198Y157725D01*
X218164Y157820D01*
X218133Y157916D01*
X218106Y158014D01*
X218082Y158112D01*
X218063Y158212D01*
X218047Y158312D01*
X218035Y158412D01*
X218027Y158513D01*
X218023Y158614D01*
X218023Y158716D01*
X218027Y158817D01*
X218035Y158918D01*
X218047Y159018D01*
X218063Y159118D01*
X218082Y159218D01*
X218106Y159316D01*
X218133Y159414D01*
X218164Y159510D01*
X218198Y159605D01*
X218237Y159699D01*
X218278Y159791D01*
X218324Y159882D01*
X218373Y159971D01*
X218425Y160057D01*
X218481Y160142D01*
X218540Y160224D01*
X218602Y160304D01*
X218667Y160382D01*
X218735Y160457D01*
X218806Y160529D01*
X218879Y160599D01*
X218956Y160665D01*
X219034Y160729D01*
X219116Y160789D01*
X219199Y160846D01*
X219285Y160900D01*
X219373Y160951D01*
X219462Y160998D01*
X219554Y161042D01*
X219647Y161082D01*
X219741Y161119D01*
X219837Y161151D01*
X219934Y161180D01*
X220032Y161206D01*
X220131Y161227D01*
X220231Y161245D01*
X220331Y161258D01*
X220432Y161268D01*
X220533Y161274D01*
X220634Y161276D01*
X220735Y161274D01*
X220836Y161268D01*
X220937Y161258D01*
X221037Y161245D01*
X221137Y161227D01*
X221236Y161206D01*
X221334Y161180D01*
X221431Y161151D01*
X221527Y161119D01*
X221621Y161082D01*
X221714Y161042D01*
X221806Y160998D01*
X221895Y160951D01*
X221983Y160900D01*
X222069Y160846D01*
X222152Y160789D01*
X222234Y160729D01*
X222312Y160665D01*
X222389Y160599D01*
X222462Y160529D01*
X222533Y160457D01*
X222601Y160382D01*
X222666Y160304D01*
X222728Y160224D01*
X222787Y160142D01*
X222843Y160057D01*
X222895Y159970D01*
X222944Y159882D01*
X222990Y159791D01*
X223031Y159699D01*
X223070Y159605D01*
X223104Y159510D01*
X223135Y159414D01*
X223162Y159316D01*
X223186Y159218D01*
X223205Y159118D01*
X223221Y159018D01*
X223233Y158918D01*
X223241Y158817D01*
X223245Y158716D01*
X223245Y158614D01*
X223241Y158513D01*
X223233Y158412D01*
X223221Y158312D01*
X223205Y158212D01*
X223186Y158112D01*
X223162Y158014D01*
X223135Y157916D01*
X223104Y157820D01*
X223070Y157725D01*
X223031Y157631D01*
X222990Y157539D01*
X222944Y157448D01*
X222895Y157359D01*
X222843Y157273D01*
X222787Y157188D01*
X222728Y157106D01*
X222666Y157026D01*
X222601Y156948D01*
X222533Y156873D01*
X222462Y156801D01*
X222389Y156731D01*
X222312Y156665D01*
X222234Y156601D01*
X222152Y156541D01*
X222069Y156484D01*
X221983Y156430D01*
X221895Y156379D01*
X221806Y156332D01*
X221714Y156288D01*
X221621Y156248D01*
X221527Y156211D01*
X221431Y156179D01*
X221334Y156150D01*
X221236Y156124D01*
X221137Y156103D01*
X221037Y156085D01*
X220937Y156072D01*
X220836Y156062D01*
X220735Y156056D01*
X220634Y156054D01*
X215935Y156577D02*
X215845Y156579D01*
X215756Y156585D01*
X215666Y156594D01*
X215577Y156608D01*
X215489Y156625D01*
X215402Y156646D01*
X215315Y156671D01*
X215230Y156700D01*
X215146Y156732D01*
X215064Y156767D01*
X214983Y156807D01*
X214904Y156849D01*
X214827Y156895D01*
X214752Y156945D01*
X214679Y156997D01*
X214608Y157053D01*
X214540Y157111D01*
X214475Y157173D01*
X214412Y157237D01*
X214352Y157304D01*
X214295Y157373D01*
X214241Y157445D01*
X214190Y157519D01*
X214142Y157595D01*
X214098Y157673D01*
X214057Y157753D01*
X214019Y157835D01*
X213985Y157918D01*
X213955Y158003D01*
X213928Y158089D01*
X213905Y158175D01*
X213886Y158263D01*
X213871Y158352D01*
X213859Y158441D01*
X213851Y158530D01*
X213847Y158620D01*
X213847Y158710D01*
X213851Y158800D01*
X213859Y158889D01*
X213871Y158978D01*
X213886Y159067D01*
X213905Y159155D01*
X213928Y159241D01*
X213955Y159327D01*
X213985Y159412D01*
X214019Y159495D01*
X214057Y159577D01*
X214098Y159657D01*
X214142Y159735D01*
X214190Y159811D01*
X214241Y159885D01*
X214295Y159957D01*
X214352Y160026D01*
X214412Y160093D01*
X214475Y160157D01*
X214540Y160219D01*
X214608Y160277D01*
X214679Y160333D01*
X214752Y160385D01*
X214827Y160435D01*
X214904Y160481D01*
X214983Y160523D01*
X215064Y160563D01*
X215146Y160598D01*
X215230Y160630D01*
X215315Y160659D01*
X215402Y160684D01*
X215489Y160705D01*
X215577Y160722D01*
X215666Y160736D01*
X215756Y160745D01*
X215845Y160751D01*
X215935Y160753D01*
X216025Y160751D01*
X216114Y160745D01*
X216204Y160736D01*
X216293Y160722D01*
X216381Y160705D01*
X216468Y160684D01*
X216555Y160659D01*
X216640Y160630D01*
X216724Y160598D01*
X216806Y160563D01*
X216887Y160523D01*
X216966Y160481D01*
X217043Y160435D01*
X217118Y160385D01*
X217191Y160333D01*
X217262Y160277D01*
X217330Y160219D01*
X217395Y160157D01*
X217458Y160093D01*
X217518Y160026D01*
X217575Y159957D01*
X217629Y159885D01*
X217680Y159811D01*
X217728Y159735D01*
X217772Y159657D01*
X217813Y159577D01*
X217851Y159495D01*
X217885Y159412D01*
X217915Y159327D01*
X217942Y159241D01*
X217965Y159155D01*
X217984Y159067D01*
X217999Y158978D01*
X218011Y158889D01*
X218019Y158800D01*
X218023Y158710D01*
X218023Y158620D01*
X218019Y158530D01*
X218011Y158441D01*
X217999Y158352D01*
X217984Y158263D01*
X217965Y158175D01*
X217942Y158089D01*
X217915Y158003D01*
X217885Y157918D01*
X217851Y157835D01*
X217813Y157753D01*
X217772Y157673D01*
X217728Y157595D01*
X217680Y157519D01*
X217629Y157445D01*
X217575Y157373D01*
X217518Y157304D01*
X217458Y157237D01*
X217395Y157173D01*
X217330Y157111D01*
X217262Y157053D01*
X217191Y156997D01*
X217118Y156945D01*
X217043Y156895D01*
X216966Y156849D01*
X216887Y156807D01*
X216806Y156767D01*
X216724Y156732D01*
X216640Y156700D01*
X216555Y156671D01*
X216468Y156646D01*
X216381Y156625D01*
X216293Y156608D01*
X216204Y156594D01*
X216114Y156585D01*
X216025Y156579D01*
X215935Y156577D01*
D13*
X207757Y189209D02*
X196073Y189209D01*
X196073Y192455D01*
X196075Y192568D01*
X196081Y192681D01*
X196091Y192794D01*
X196105Y192907D01*
X196122Y193019D01*
X196144Y193130D01*
X196169Y193240D01*
X196199Y193350D01*
X196232Y193458D01*
X196269Y193565D01*
X196309Y193671D01*
X196354Y193775D01*
X196402Y193878D01*
X196453Y193979D01*
X196508Y194078D01*
X196566Y194175D01*
X196628Y194270D01*
X196693Y194363D01*
X196761Y194453D01*
X196832Y194541D01*
X196907Y194627D01*
X196984Y194710D01*
X197064Y194790D01*
X197147Y194867D01*
X197233Y194942D01*
X197321Y195013D01*
X197411Y195081D01*
X197504Y195146D01*
X197599Y195208D01*
X197696Y195266D01*
X197795Y195321D01*
X197896Y195372D01*
X197999Y195420D01*
X198103Y195465D01*
X198209Y195505D01*
X198316Y195542D01*
X198424Y195575D01*
X198534Y195605D01*
X198644Y195630D01*
X198755Y195652D01*
X198867Y195669D01*
X198980Y195683D01*
X199093Y195693D01*
X199206Y195699D01*
X199319Y195701D01*
X199432Y195699D01*
X199545Y195693D01*
X199658Y195683D01*
X199771Y195669D01*
X199883Y195652D01*
X199994Y195630D01*
X200104Y195605D01*
X200214Y195575D01*
X200322Y195542D01*
X200429Y195505D01*
X200535Y195465D01*
X200639Y195420D01*
X200742Y195372D01*
X200843Y195321D01*
X200942Y195266D01*
X201039Y195208D01*
X201134Y195146D01*
X201227Y195081D01*
X201317Y195013D01*
X201405Y194942D01*
X201491Y194867D01*
X201574Y194790D01*
X201654Y194710D01*
X201731Y194627D01*
X201806Y194541D01*
X201877Y194453D01*
X201945Y194363D01*
X202010Y194270D01*
X202072Y194175D01*
X202130Y194078D01*
X202185Y193979D01*
X202236Y193878D01*
X202284Y193775D01*
X202329Y193671D01*
X202369Y193565D01*
X202406Y193458D01*
X202439Y193350D01*
X202469Y193240D01*
X202494Y193130D01*
X202516Y193019D01*
X202533Y192907D01*
X202547Y192794D01*
X202557Y192681D01*
X202563Y192568D01*
X202565Y192455D01*
X202564Y192455D02*
X202564Y189209D01*
X202564Y193104D02*
X207757Y195700D01*
X198670Y200566D02*
X196073Y203811D01*
X207757Y203811D01*
X207757Y200566D02*
X207757Y207057D01*
X198670Y211996D02*
X196073Y215241D01*
X207757Y215241D01*
X207757Y211996D02*
X207757Y218487D01*
X163431Y117428D02*
X163431Y105744D01*
X163431Y117428D02*
X166677Y117428D01*
X166790Y117426D01*
X166903Y117420D01*
X167016Y117410D01*
X167129Y117396D01*
X167241Y117379D01*
X167352Y117357D01*
X167462Y117332D01*
X167572Y117302D01*
X167680Y117269D01*
X167787Y117232D01*
X167893Y117192D01*
X167997Y117147D01*
X168100Y117099D01*
X168201Y117048D01*
X168300Y116993D01*
X168397Y116935D01*
X168492Y116873D01*
X168585Y116808D01*
X168675Y116740D01*
X168763Y116669D01*
X168849Y116594D01*
X168932Y116517D01*
X169012Y116437D01*
X169089Y116354D01*
X169164Y116268D01*
X169235Y116180D01*
X169303Y116090D01*
X169368Y115997D01*
X169430Y115902D01*
X169488Y115805D01*
X169543Y115706D01*
X169594Y115605D01*
X169642Y115502D01*
X169687Y115398D01*
X169727Y115292D01*
X169764Y115185D01*
X169797Y115077D01*
X169827Y114967D01*
X169852Y114857D01*
X169874Y114746D01*
X169891Y114634D01*
X169905Y114521D01*
X169915Y114408D01*
X169921Y114295D01*
X169923Y114182D01*
X169921Y114069D01*
X169915Y113956D01*
X169905Y113843D01*
X169891Y113730D01*
X169874Y113618D01*
X169852Y113507D01*
X169827Y113397D01*
X169797Y113287D01*
X169764Y113179D01*
X169727Y113072D01*
X169687Y112966D01*
X169642Y112862D01*
X169594Y112759D01*
X169543Y112658D01*
X169488Y112559D01*
X169430Y112462D01*
X169368Y112367D01*
X169303Y112274D01*
X169235Y112184D01*
X169164Y112096D01*
X169089Y112010D01*
X169012Y111927D01*
X168932Y111847D01*
X168849Y111770D01*
X168763Y111695D01*
X168675Y111624D01*
X168585Y111556D01*
X168492Y111491D01*
X168397Y111429D01*
X168300Y111371D01*
X168201Y111316D01*
X168100Y111265D01*
X167997Y111217D01*
X167893Y111172D01*
X167787Y111132D01*
X167680Y111095D01*
X167572Y111062D01*
X167462Y111032D01*
X167352Y111007D01*
X167241Y110985D01*
X167129Y110968D01*
X167016Y110954D01*
X166903Y110944D01*
X166790Y110938D01*
X166677Y110936D01*
X166677Y110937D02*
X163431Y110937D01*
X167326Y110937D02*
X169922Y105744D01*
X181279Y114507D02*
X181277Y114614D01*
X181271Y114720D01*
X181261Y114826D01*
X181248Y114932D01*
X181230Y115038D01*
X181209Y115142D01*
X181184Y115246D01*
X181155Y115349D01*
X181123Y115450D01*
X181086Y115550D01*
X181046Y115649D01*
X181003Y115747D01*
X180956Y115843D01*
X180905Y115937D01*
X180851Y116029D01*
X180794Y116119D01*
X180734Y116207D01*
X180670Y116292D01*
X180603Y116375D01*
X180533Y116456D01*
X180461Y116534D01*
X180385Y116610D01*
X180307Y116682D01*
X180226Y116752D01*
X180143Y116819D01*
X180058Y116883D01*
X179970Y116943D01*
X179880Y117000D01*
X179788Y117054D01*
X179694Y117105D01*
X179598Y117152D01*
X179500Y117195D01*
X179401Y117235D01*
X179301Y117272D01*
X179200Y117304D01*
X179097Y117333D01*
X178993Y117358D01*
X178889Y117379D01*
X178783Y117397D01*
X178677Y117410D01*
X178571Y117420D01*
X178465Y117426D01*
X178358Y117428D01*
X178237Y117426D01*
X178116Y117420D01*
X177996Y117410D01*
X177875Y117397D01*
X177756Y117379D01*
X177636Y117358D01*
X177518Y117333D01*
X177401Y117304D01*
X177284Y117271D01*
X177169Y117235D01*
X177055Y117194D01*
X176942Y117151D01*
X176830Y117103D01*
X176721Y117052D01*
X176613Y116997D01*
X176506Y116939D01*
X176402Y116878D01*
X176300Y116813D01*
X176200Y116745D01*
X176102Y116674D01*
X176006Y116600D01*
X175913Y116523D01*
X175823Y116442D01*
X175735Y116359D01*
X175650Y116273D01*
X175567Y116184D01*
X175488Y116093D01*
X175411Y115999D01*
X175338Y115903D01*
X175268Y115805D01*
X175201Y115704D01*
X175137Y115601D01*
X175077Y115496D01*
X175020Y115389D01*
X174966Y115281D01*
X174916Y115171D01*
X174870Y115059D01*
X174827Y114946D01*
X174788Y114831D01*
X180305Y112235D02*
X180384Y112312D01*
X180460Y112393D01*
X180533Y112476D01*
X180603Y112561D01*
X180670Y112649D01*
X180734Y112739D01*
X180794Y112831D01*
X180851Y112926D01*
X180905Y113022D01*
X180956Y113120D01*
X181003Y113220D01*
X181047Y113322D01*
X181087Y113425D01*
X181123Y113529D01*
X181155Y113635D01*
X181184Y113741D01*
X181209Y113849D01*
X181231Y113957D01*
X181248Y114067D01*
X181262Y114176D01*
X181271Y114286D01*
X181277Y114397D01*
X181279Y114507D01*
X180305Y112235D02*
X174788Y105744D01*
X181279Y105744D01*
X186218Y111586D02*
X186221Y111816D01*
X186229Y112046D01*
X186243Y112275D01*
X186262Y112504D01*
X186287Y112733D01*
X186317Y112960D01*
X186352Y113188D01*
X186393Y113414D01*
X186439Y113639D01*
X186491Y113863D01*
X186548Y114085D01*
X186610Y114307D01*
X186678Y114526D01*
X186751Y114744D01*
X186829Y114961D01*
X186912Y115175D01*
X187000Y115387D01*
X187093Y115597D01*
X187192Y115805D01*
X187191Y115805D02*
X187224Y115895D01*
X187260Y115984D01*
X187300Y116072D01*
X187344Y116157D01*
X187391Y116241D01*
X187441Y116323D01*
X187495Y116403D01*
X187551Y116480D01*
X187611Y116556D01*
X187674Y116629D01*
X187739Y116699D01*
X187808Y116767D01*
X187879Y116831D01*
X187952Y116893D01*
X188028Y116952D01*
X188106Y117008D01*
X188187Y117061D01*
X188269Y117110D01*
X188353Y117156D01*
X188440Y117199D01*
X188527Y117238D01*
X188617Y117274D01*
X188707Y117306D01*
X188799Y117334D01*
X188892Y117359D01*
X188986Y117380D01*
X189080Y117397D01*
X189175Y117411D01*
X189271Y117420D01*
X189367Y117426D01*
X189463Y117428D01*
X189559Y117426D01*
X189655Y117420D01*
X189751Y117411D01*
X189846Y117397D01*
X189940Y117380D01*
X190034Y117359D01*
X190127Y117334D01*
X190219Y117306D01*
X190309Y117274D01*
X190399Y117238D01*
X190486Y117199D01*
X190573Y117156D01*
X190657Y117110D01*
X190739Y117061D01*
X190820Y117008D01*
X190898Y116952D01*
X190974Y116893D01*
X191047Y116831D01*
X191118Y116767D01*
X191187Y116699D01*
X191252Y116629D01*
X191315Y116556D01*
X191375Y116480D01*
X191431Y116403D01*
X191485Y116323D01*
X191535Y116241D01*
X191582Y116157D01*
X191626Y116072D01*
X191666Y115984D01*
X191702Y115895D01*
X191735Y115805D01*
X191834Y115598D01*
X191927Y115388D01*
X192015Y115175D01*
X192098Y114961D01*
X192176Y114745D01*
X192249Y114527D01*
X192317Y114307D01*
X192379Y114086D01*
X192436Y113863D01*
X192488Y113639D01*
X192534Y113414D01*
X192575Y113188D01*
X192610Y112961D01*
X192640Y112733D01*
X192665Y112504D01*
X192684Y112275D01*
X192698Y112046D01*
X192706Y111816D01*
X192709Y111586D01*
X186217Y111586D02*
X186220Y111356D01*
X186228Y111126D01*
X186242Y110897D01*
X186261Y110668D01*
X186286Y110439D01*
X186316Y110211D01*
X186351Y109984D01*
X186392Y109758D01*
X186438Y109533D01*
X186490Y109309D01*
X186547Y109086D01*
X186609Y108865D01*
X186677Y108645D01*
X186750Y108427D01*
X186828Y108211D01*
X186911Y107997D01*
X186999Y107785D01*
X187092Y107574D01*
X187191Y107367D01*
X187224Y107277D01*
X187260Y107188D01*
X187301Y107100D01*
X187344Y107015D01*
X187391Y106931D01*
X187441Y106849D01*
X187495Y106769D01*
X187551Y106692D01*
X187611Y106616D01*
X187674Y106543D01*
X187739Y106473D01*
X187808Y106405D01*
X187879Y106341D01*
X187952Y106279D01*
X188028Y106220D01*
X188106Y106164D01*
X188187Y106111D01*
X188269Y106062D01*
X188353Y106016D01*
X188440Y105973D01*
X188527Y105934D01*
X188617Y105898D01*
X188707Y105866D01*
X188799Y105838D01*
X188892Y105813D01*
X188986Y105792D01*
X189080Y105775D01*
X189175Y105761D01*
X189271Y105752D01*
X189367Y105746D01*
X189463Y105744D01*
X191735Y107367D02*
X191834Y107574D01*
X191927Y107785D01*
X192015Y107997D01*
X192098Y108211D01*
X192176Y108427D01*
X192249Y108645D01*
X192317Y108865D01*
X192379Y109086D01*
X192436Y109309D01*
X192488Y109533D01*
X192534Y109758D01*
X192575Y109984D01*
X192610Y110211D01*
X192640Y110439D01*
X192665Y110668D01*
X192684Y110897D01*
X192698Y111126D01*
X192706Y111356D01*
X192709Y111586D01*
X191735Y107367D02*
X191702Y107277D01*
X191666Y107188D01*
X191626Y107100D01*
X191582Y107015D01*
X191535Y106931D01*
X191485Y106849D01*
X191431Y106769D01*
X191375Y106692D01*
X191315Y106616D01*
X191252Y106543D01*
X191187Y106473D01*
X191118Y106405D01*
X191047Y106341D01*
X190974Y106279D01*
X190898Y106220D01*
X190820Y106164D01*
X190739Y106111D01*
X190657Y106062D01*
X190573Y106016D01*
X190486Y105973D01*
X190399Y105934D01*
X190309Y105898D01*
X190219Y105866D01*
X190127Y105838D01*
X190034Y105813D01*
X189940Y105792D01*
X189846Y105775D01*
X189751Y105761D01*
X189655Y105752D01*
X189559Y105746D01*
X189463Y105744D01*
X186867Y108340D02*
X192060Y114832D01*
D16*
X95456Y198625D02*
X93368Y198625D01*
X93368Y198626D02*
X93279Y198628D01*
X93191Y198634D01*
X93103Y198643D01*
X93015Y198656D01*
X92928Y198673D01*
X92842Y198693D01*
X92757Y198718D01*
X92672Y198745D01*
X92589Y198777D01*
X92508Y198811D01*
X92428Y198850D01*
X92350Y198891D01*
X92273Y198936D01*
X92199Y198984D01*
X92126Y199035D01*
X92056Y199089D01*
X91989Y199147D01*
X91923Y199207D01*
X91861Y199269D01*
X91801Y199335D01*
X91743Y199402D01*
X91689Y199472D01*
X91638Y199545D01*
X91590Y199619D01*
X91545Y199696D01*
X91504Y199774D01*
X91465Y199854D01*
X91431Y199935D01*
X91399Y200018D01*
X91372Y200103D01*
X91347Y200188D01*
X91327Y200274D01*
X91310Y200361D01*
X91297Y200449D01*
X91288Y200537D01*
X91282Y200625D01*
X91280Y200714D01*
X91279Y200714D02*
X91279Y205935D01*
X91280Y205935D02*
X91282Y206026D01*
X91288Y206117D01*
X91298Y206208D01*
X91312Y206298D01*
X91329Y206387D01*
X91351Y206475D01*
X91377Y206563D01*
X91406Y206649D01*
X91439Y206734D01*
X91476Y206817D01*
X91516Y206899D01*
X91560Y206979D01*
X91607Y207057D01*
X91658Y207133D01*
X91711Y207206D01*
X91768Y207277D01*
X91829Y207346D01*
X91892Y207411D01*
X91957Y207474D01*
X92026Y207534D01*
X92097Y207592D01*
X92170Y207645D01*
X92246Y207696D01*
X92324Y207743D01*
X92404Y207787D01*
X92486Y207827D01*
X92569Y207864D01*
X92654Y207897D01*
X92740Y207926D01*
X92828Y207952D01*
X92916Y207974D01*
X93005Y207991D01*
X93095Y208005D01*
X93186Y208015D01*
X93277Y208021D01*
X93368Y208023D01*
X95456Y208023D01*
X98925Y198625D02*
X101535Y198625D01*
X101636Y198627D01*
X101737Y198633D01*
X101838Y198643D01*
X101938Y198656D01*
X102038Y198674D01*
X102137Y198695D01*
X102235Y198721D01*
X102332Y198750D01*
X102428Y198782D01*
X102522Y198819D01*
X102615Y198859D01*
X102707Y198903D01*
X102796Y198950D01*
X102884Y199001D01*
X102970Y199055D01*
X103053Y199112D01*
X103135Y199172D01*
X103213Y199236D01*
X103290Y199302D01*
X103363Y199372D01*
X103434Y199444D01*
X103502Y199519D01*
X103567Y199597D01*
X103629Y199677D01*
X103688Y199759D01*
X103744Y199844D01*
X103796Y199930D01*
X103845Y200019D01*
X103891Y200110D01*
X103932Y200202D01*
X103971Y200296D01*
X104005Y200391D01*
X104036Y200487D01*
X104063Y200585D01*
X104087Y200683D01*
X104106Y200783D01*
X104122Y200883D01*
X104134Y200983D01*
X104142Y201084D01*
X104146Y201185D01*
X104146Y201287D01*
X104142Y201388D01*
X104134Y201489D01*
X104122Y201589D01*
X104106Y201689D01*
X104087Y201789D01*
X104063Y201887D01*
X104036Y201985D01*
X104005Y202081D01*
X103971Y202176D01*
X103932Y202270D01*
X103891Y202362D01*
X103845Y202453D01*
X103796Y202541D01*
X103744Y202628D01*
X103688Y202713D01*
X103629Y202795D01*
X103567Y202875D01*
X103502Y202953D01*
X103434Y203028D01*
X103363Y203100D01*
X103290Y203170D01*
X103213Y203236D01*
X103135Y203300D01*
X103053Y203360D01*
X102970Y203417D01*
X102884Y203471D01*
X102796Y203522D01*
X102707Y203569D01*
X102615Y203613D01*
X102522Y203653D01*
X102428Y203690D01*
X102332Y203722D01*
X102235Y203751D01*
X102137Y203777D01*
X102038Y203798D01*
X101938Y203816D01*
X101838Y203829D01*
X101737Y203839D01*
X101636Y203845D01*
X101535Y203847D01*
X102057Y208023D02*
X98925Y208023D01*
X102057Y208023D02*
X102147Y208021D01*
X102236Y208015D01*
X102326Y208006D01*
X102415Y207992D01*
X102503Y207975D01*
X102590Y207954D01*
X102677Y207929D01*
X102762Y207900D01*
X102846Y207868D01*
X102928Y207833D01*
X103009Y207793D01*
X103088Y207751D01*
X103165Y207705D01*
X103240Y207655D01*
X103313Y207603D01*
X103384Y207547D01*
X103452Y207489D01*
X103517Y207427D01*
X103580Y207363D01*
X103640Y207296D01*
X103697Y207227D01*
X103751Y207155D01*
X103802Y207081D01*
X103850Y207005D01*
X103894Y206927D01*
X103935Y206847D01*
X103973Y206765D01*
X104007Y206682D01*
X104037Y206597D01*
X104064Y206511D01*
X104087Y206425D01*
X104106Y206337D01*
X104121Y206248D01*
X104133Y206159D01*
X104141Y206070D01*
X104145Y205980D01*
X104145Y205890D01*
X104141Y205800D01*
X104133Y205711D01*
X104121Y205622D01*
X104106Y205533D01*
X104087Y205445D01*
X104064Y205359D01*
X104037Y205273D01*
X104007Y205188D01*
X103973Y205105D01*
X103935Y205023D01*
X103894Y204943D01*
X103850Y204865D01*
X103802Y204789D01*
X103751Y204715D01*
X103697Y204643D01*
X103640Y204574D01*
X103580Y204507D01*
X103517Y204443D01*
X103452Y204381D01*
X103384Y204323D01*
X103313Y204267D01*
X103240Y204215D01*
X103165Y204165D01*
X103088Y204119D01*
X103009Y204077D01*
X102928Y204037D01*
X102846Y204002D01*
X102762Y203970D01*
X102677Y203941D01*
X102590Y203916D01*
X102503Y203895D01*
X102415Y203878D01*
X102326Y203864D01*
X102236Y203855D01*
X102147Y203849D01*
X102057Y203847D01*
X102057Y203846D02*
X99969Y203846D01*
D15*
X127872Y165855D02*
X127872Y153355D01*
X104472Y153355D02*
X104472Y165855D01*
D12*
X121672Y180605D02*
X121674Y180668D01*
X121680Y180730D01*
X121690Y180792D01*
X121703Y180854D01*
X121721Y180914D01*
X121742Y180973D01*
X121767Y181031D01*
X121796Y181087D01*
X121828Y181141D01*
X121863Y181193D01*
X121901Y181242D01*
X121943Y181290D01*
X121987Y181334D01*
X122035Y181376D01*
X122084Y181414D01*
X122136Y181449D01*
X122190Y181481D01*
X122246Y181510D01*
X122304Y181535D01*
X122363Y181556D01*
X122423Y181574D01*
X122485Y181587D01*
X122547Y181597D01*
X122609Y181603D01*
X122672Y181605D01*
X122735Y181603D01*
X122797Y181597D01*
X122859Y181587D01*
X122921Y181574D01*
X122981Y181556D01*
X123040Y181535D01*
X123098Y181510D01*
X123154Y181481D01*
X123208Y181449D01*
X123260Y181414D01*
X123309Y181376D01*
X123357Y181334D01*
X123401Y181290D01*
X123443Y181242D01*
X123481Y181193D01*
X123516Y181141D01*
X123548Y181087D01*
X123577Y181031D01*
X123602Y180973D01*
X123623Y180914D01*
X123641Y180854D01*
X123654Y180792D01*
X123664Y180730D01*
X123670Y180668D01*
X123672Y180605D01*
X123670Y180542D01*
X123664Y180480D01*
X123654Y180418D01*
X123641Y180356D01*
X123623Y180296D01*
X123602Y180237D01*
X123577Y180179D01*
X123548Y180123D01*
X123516Y180069D01*
X123481Y180017D01*
X123443Y179968D01*
X123401Y179920D01*
X123357Y179876D01*
X123309Y179834D01*
X123260Y179796D01*
X123208Y179761D01*
X123154Y179729D01*
X123098Y179700D01*
X123040Y179675D01*
X122981Y179654D01*
X122921Y179636D01*
X122859Y179623D01*
X122797Y179613D01*
X122735Y179607D01*
X122672Y179605D01*
X122609Y179607D01*
X122547Y179613D01*
X122485Y179623D01*
X122423Y179636D01*
X122363Y179654D01*
X122304Y179675D01*
X122246Y179700D01*
X122190Y179729D01*
X122136Y179761D01*
X122084Y179796D01*
X122035Y179834D01*
X121987Y179876D01*
X121943Y179920D01*
X121901Y179968D01*
X121863Y180017D01*
X121828Y180069D01*
X121796Y180123D01*
X121767Y180179D01*
X121742Y180237D01*
X121721Y180296D01*
X121703Y180356D01*
X121690Y180418D01*
X121680Y180480D01*
X121674Y180542D01*
X121672Y180605D01*
D16*
X131553Y165573D02*
X136873Y165573D01*
X136962Y165575D01*
X137051Y165581D01*
X137140Y165591D01*
X137228Y165604D01*
X137316Y165621D01*
X137403Y165643D01*
X137488Y165668D01*
X137573Y165696D01*
X137656Y165729D01*
X137738Y165765D01*
X137818Y165804D01*
X137896Y165847D01*
X137972Y165893D01*
X138047Y165943D01*
X138119Y165996D01*
X138188Y166052D01*
X138255Y166111D01*
X138320Y166172D01*
X138381Y166237D01*
X138440Y166304D01*
X138496Y166373D01*
X138549Y166445D01*
X138599Y166520D01*
X138645Y166596D01*
X138688Y166674D01*
X138727Y166754D01*
X138763Y166836D01*
X138796Y166919D01*
X138824Y167004D01*
X138849Y167089D01*
X138871Y167176D01*
X138888Y167264D01*
X138901Y167352D01*
X138911Y167441D01*
X138917Y167530D01*
X138919Y167619D01*
X138917Y167708D01*
X138911Y167797D01*
X138901Y167886D01*
X138888Y167974D01*
X138871Y168062D01*
X138849Y168149D01*
X138824Y168234D01*
X138796Y168319D01*
X138763Y168402D01*
X138727Y168484D01*
X138688Y168564D01*
X138645Y168642D01*
X138599Y168718D01*
X138549Y168793D01*
X138496Y168865D01*
X138440Y168934D01*
X138381Y169001D01*
X138320Y169066D01*
X138255Y169127D01*
X138188Y169186D01*
X138119Y169242D01*
X138047Y169295D01*
X137972Y169345D01*
X137896Y169391D01*
X137818Y169434D01*
X137738Y169473D01*
X137656Y169509D01*
X137573Y169542D01*
X137488Y169570D01*
X137403Y169595D01*
X137316Y169617D01*
X137228Y169634D01*
X137140Y169647D01*
X137051Y169657D01*
X136962Y169663D01*
X136873Y169665D01*
X131553Y169665D01*
X133190Y173132D02*
X131553Y175178D01*
X138919Y175178D01*
X138919Y173132D02*
X138919Y177224D01*
X145982Y124220D02*
X145982Y122132D01*
X145980Y122043D01*
X145974Y121955D01*
X145965Y121867D01*
X145952Y121779D01*
X145935Y121692D01*
X145915Y121606D01*
X145890Y121521D01*
X145863Y121436D01*
X145831Y121353D01*
X145797Y121272D01*
X145758Y121192D01*
X145717Y121114D01*
X145672Y121037D01*
X145624Y120963D01*
X145573Y120890D01*
X145519Y120820D01*
X145461Y120753D01*
X145401Y120687D01*
X145339Y120625D01*
X145273Y120565D01*
X145206Y120507D01*
X145136Y120453D01*
X145063Y120402D01*
X144989Y120354D01*
X144912Y120309D01*
X144834Y120268D01*
X144754Y120229D01*
X144673Y120195D01*
X144590Y120163D01*
X144505Y120136D01*
X144420Y120111D01*
X144334Y120091D01*
X144247Y120074D01*
X144159Y120061D01*
X144071Y120052D01*
X143983Y120046D01*
X143894Y120044D01*
X143894Y120043D02*
X138673Y120043D01*
X138582Y120045D01*
X138491Y120051D01*
X138400Y120061D01*
X138310Y120075D01*
X138221Y120093D01*
X138132Y120114D01*
X138045Y120140D01*
X137959Y120169D01*
X137874Y120202D01*
X137790Y120239D01*
X137708Y120279D01*
X137629Y120323D01*
X137551Y120370D01*
X137475Y120421D01*
X137401Y120475D01*
X137330Y120532D01*
X137262Y120592D01*
X137196Y120655D01*
X137133Y120721D01*
X137073Y120789D01*
X137016Y120860D01*
X136962Y120934D01*
X136911Y121010D01*
X136864Y121087D01*
X136820Y121167D01*
X136780Y121249D01*
X136743Y121333D01*
X136710Y121417D01*
X136681Y121504D01*
X136655Y121591D01*
X136634Y121680D01*
X136616Y121769D01*
X136602Y121859D01*
X136592Y121950D01*
X136586Y122041D01*
X136584Y122132D01*
X136584Y124220D01*
X136584Y129777D02*
X143894Y127689D01*
X143894Y132910D01*
X141805Y131344D02*
X145982Y131344D01*
D13*
X129460Y212827D02*
X117776Y212827D01*
X117776Y216072D01*
X117778Y216185D01*
X117784Y216298D01*
X117794Y216411D01*
X117808Y216524D01*
X117825Y216636D01*
X117847Y216747D01*
X117872Y216857D01*
X117902Y216967D01*
X117935Y217075D01*
X117972Y217182D01*
X118012Y217288D01*
X118057Y217392D01*
X118105Y217495D01*
X118156Y217596D01*
X118211Y217695D01*
X118269Y217792D01*
X118331Y217887D01*
X118396Y217980D01*
X118464Y218070D01*
X118535Y218158D01*
X118610Y218244D01*
X118687Y218327D01*
X118767Y218407D01*
X118850Y218484D01*
X118936Y218559D01*
X119024Y218630D01*
X119114Y218698D01*
X119207Y218763D01*
X119302Y218825D01*
X119399Y218883D01*
X119498Y218938D01*
X119599Y218989D01*
X119702Y219037D01*
X119806Y219082D01*
X119912Y219122D01*
X120019Y219159D01*
X120127Y219192D01*
X120237Y219222D01*
X120347Y219247D01*
X120458Y219269D01*
X120570Y219286D01*
X120683Y219300D01*
X120796Y219310D01*
X120909Y219316D01*
X121022Y219318D01*
X121135Y219316D01*
X121248Y219310D01*
X121361Y219300D01*
X121474Y219286D01*
X121586Y219269D01*
X121697Y219247D01*
X121807Y219222D01*
X121917Y219192D01*
X122025Y219159D01*
X122132Y219122D01*
X122238Y219082D01*
X122342Y219037D01*
X122445Y218989D01*
X122546Y218938D01*
X122645Y218883D01*
X122742Y218825D01*
X122837Y218763D01*
X122930Y218698D01*
X123020Y218630D01*
X123108Y218559D01*
X123194Y218484D01*
X123277Y218407D01*
X123357Y218327D01*
X123434Y218244D01*
X123509Y218158D01*
X123580Y218070D01*
X123648Y217980D01*
X123713Y217887D01*
X123775Y217792D01*
X123833Y217695D01*
X123888Y217596D01*
X123939Y217495D01*
X123987Y217392D01*
X124032Y217288D01*
X124072Y217182D01*
X124109Y217075D01*
X124142Y216967D01*
X124172Y216857D01*
X124197Y216747D01*
X124219Y216636D01*
X124236Y216524D01*
X124250Y216411D01*
X124260Y216298D01*
X124266Y216185D01*
X124268Y216072D01*
X124267Y216072D02*
X124267Y212827D01*
X124267Y216721D02*
X129460Y219318D01*
X120373Y224183D02*
X117776Y227429D01*
X129460Y227429D01*
X129460Y230674D02*
X129460Y224183D01*
X123618Y235613D02*
X123388Y235616D01*
X123158Y235624D01*
X122929Y235638D01*
X122700Y235657D01*
X122471Y235682D01*
X122243Y235712D01*
X122016Y235747D01*
X121790Y235788D01*
X121565Y235834D01*
X121341Y235886D01*
X121118Y235943D01*
X120897Y236005D01*
X120677Y236073D01*
X120459Y236146D01*
X120243Y236224D01*
X120029Y236307D01*
X119817Y236395D01*
X119606Y236488D01*
X119399Y236587D01*
X119309Y236620D01*
X119220Y236656D01*
X119132Y236696D01*
X119047Y236740D01*
X118963Y236787D01*
X118881Y236837D01*
X118801Y236891D01*
X118724Y236947D01*
X118648Y237007D01*
X118575Y237070D01*
X118505Y237135D01*
X118437Y237204D01*
X118373Y237275D01*
X118311Y237348D01*
X118252Y237424D01*
X118196Y237502D01*
X118143Y237583D01*
X118094Y237665D01*
X118048Y237749D01*
X118005Y237836D01*
X117966Y237923D01*
X117930Y238013D01*
X117898Y238103D01*
X117870Y238195D01*
X117845Y238288D01*
X117824Y238382D01*
X117807Y238476D01*
X117793Y238571D01*
X117784Y238667D01*
X117778Y238763D01*
X117776Y238859D01*
X117778Y238955D01*
X117784Y239051D01*
X117793Y239147D01*
X117807Y239242D01*
X117824Y239336D01*
X117845Y239430D01*
X117870Y239523D01*
X117898Y239615D01*
X117930Y239705D01*
X117966Y239795D01*
X118005Y239883D01*
X118048Y239969D01*
X118094Y240053D01*
X118143Y240135D01*
X118196Y240216D01*
X118252Y240294D01*
X118311Y240370D01*
X118373Y240443D01*
X118437Y240514D01*
X118505Y240583D01*
X118575Y240648D01*
X118648Y240711D01*
X118724Y240771D01*
X118801Y240827D01*
X118881Y240881D01*
X118963Y240931D01*
X119047Y240978D01*
X119132Y241022D01*
X119220Y241062D01*
X119309Y241098D01*
X119399Y241131D01*
X119399Y241130D02*
X119606Y241229D01*
X119817Y241322D01*
X120029Y241410D01*
X120243Y241493D01*
X120459Y241571D01*
X120677Y241644D01*
X120897Y241712D01*
X121118Y241774D01*
X121341Y241831D01*
X121565Y241883D01*
X121790Y241929D01*
X122016Y241970D01*
X122243Y242005D01*
X122471Y242035D01*
X122700Y242060D01*
X122929Y242079D01*
X123158Y242093D01*
X123388Y242101D01*
X123618Y242104D01*
X123618Y235613D02*
X123848Y235616D01*
X124078Y235624D01*
X124307Y235638D01*
X124536Y235657D01*
X124765Y235682D01*
X124993Y235712D01*
X125220Y235747D01*
X125446Y235788D01*
X125671Y235834D01*
X125895Y235886D01*
X126118Y235943D01*
X126339Y236005D01*
X126559Y236073D01*
X126777Y236146D01*
X126993Y236224D01*
X127207Y236307D01*
X127419Y236395D01*
X127630Y236488D01*
X127837Y236587D01*
X127838Y236587D02*
X127928Y236620D01*
X128017Y236656D01*
X128105Y236697D01*
X128190Y236740D01*
X128274Y236787D01*
X128356Y236837D01*
X128436Y236891D01*
X128513Y236947D01*
X128589Y237007D01*
X128662Y237070D01*
X128732Y237135D01*
X128800Y237204D01*
X128864Y237275D01*
X128926Y237348D01*
X128985Y237424D01*
X129041Y237502D01*
X129094Y237583D01*
X129143Y237665D01*
X129189Y237749D01*
X129232Y237836D01*
X129271Y237923D01*
X129307Y238013D01*
X129339Y238103D01*
X129367Y238195D01*
X129392Y238288D01*
X129413Y238382D01*
X129430Y238476D01*
X129444Y238571D01*
X129453Y238667D01*
X129459Y238763D01*
X129461Y238859D01*
X127837Y241130D02*
X127630Y241229D01*
X127419Y241322D01*
X127207Y241410D01*
X126993Y241493D01*
X126777Y241571D01*
X126559Y241644D01*
X126339Y241712D01*
X126118Y241774D01*
X125895Y241831D01*
X125671Y241883D01*
X125446Y241929D01*
X125220Y241970D01*
X124993Y242005D01*
X124765Y242035D01*
X124536Y242060D01*
X124307Y242079D01*
X124078Y242093D01*
X123848Y242101D01*
X123618Y242104D01*
X127838Y241131D02*
X127928Y241098D01*
X128017Y241062D01*
X128105Y241022D01*
X128190Y240978D01*
X128274Y240931D01*
X128356Y240881D01*
X128436Y240827D01*
X128513Y240771D01*
X128589Y240711D01*
X128662Y240648D01*
X128732Y240583D01*
X128800Y240514D01*
X128864Y240443D01*
X128926Y240370D01*
X128985Y240294D01*
X129041Y240216D01*
X129094Y240135D01*
X129143Y240053D01*
X129189Y239969D01*
X129232Y239882D01*
X129271Y239795D01*
X129307Y239705D01*
X129339Y239615D01*
X129367Y239523D01*
X129392Y239430D01*
X129413Y239336D01*
X129430Y239242D01*
X129444Y239147D01*
X129453Y239051D01*
X129459Y238955D01*
X129461Y238859D01*
X126864Y236262D02*
X120373Y241455D01*
X109430Y116276D02*
X109430Y104592D01*
X109430Y116276D02*
X112676Y116276D01*
X112676Y116277D02*
X112789Y116275D01*
X112902Y116269D01*
X113015Y116259D01*
X113128Y116245D01*
X113240Y116228D01*
X113351Y116206D01*
X113461Y116181D01*
X113571Y116151D01*
X113679Y116118D01*
X113786Y116081D01*
X113892Y116041D01*
X113996Y115996D01*
X114099Y115948D01*
X114200Y115897D01*
X114299Y115842D01*
X114396Y115784D01*
X114491Y115722D01*
X114584Y115657D01*
X114674Y115589D01*
X114762Y115518D01*
X114848Y115443D01*
X114931Y115366D01*
X115011Y115286D01*
X115088Y115203D01*
X115163Y115117D01*
X115234Y115029D01*
X115302Y114939D01*
X115367Y114846D01*
X115429Y114751D01*
X115487Y114654D01*
X115542Y114555D01*
X115593Y114454D01*
X115641Y114351D01*
X115686Y114247D01*
X115726Y114141D01*
X115763Y114034D01*
X115796Y113926D01*
X115826Y113816D01*
X115851Y113706D01*
X115873Y113595D01*
X115890Y113483D01*
X115904Y113370D01*
X115914Y113257D01*
X115920Y113144D01*
X115922Y113031D01*
X115920Y112918D01*
X115914Y112805D01*
X115904Y112692D01*
X115890Y112579D01*
X115873Y112467D01*
X115851Y112356D01*
X115826Y112246D01*
X115796Y112136D01*
X115763Y112028D01*
X115726Y111921D01*
X115686Y111815D01*
X115641Y111711D01*
X115593Y111608D01*
X115542Y111507D01*
X115487Y111408D01*
X115429Y111311D01*
X115367Y111216D01*
X115302Y111123D01*
X115234Y111033D01*
X115163Y110945D01*
X115088Y110859D01*
X115011Y110776D01*
X114931Y110696D01*
X114848Y110619D01*
X114762Y110544D01*
X114674Y110473D01*
X114584Y110405D01*
X114491Y110340D01*
X114396Y110278D01*
X114299Y110220D01*
X114200Y110165D01*
X114099Y110114D01*
X113996Y110066D01*
X113892Y110021D01*
X113786Y109981D01*
X113679Y109944D01*
X113571Y109911D01*
X113461Y109881D01*
X113351Y109856D01*
X113240Y109834D01*
X113128Y109817D01*
X113015Y109803D01*
X112902Y109793D01*
X112789Y109787D01*
X112676Y109785D01*
X109430Y109785D01*
X113325Y109785D02*
X115922Y104592D01*
X120787Y114978D02*
X120787Y116276D01*
X127278Y116276D01*
X124032Y104592D01*
D16*
X26319Y167449D02*
X24231Y167449D01*
X24231Y167450D02*
X24142Y167452D01*
X24054Y167458D01*
X23966Y167467D01*
X23878Y167480D01*
X23791Y167497D01*
X23705Y167517D01*
X23620Y167542D01*
X23535Y167569D01*
X23452Y167601D01*
X23371Y167635D01*
X23291Y167674D01*
X23213Y167715D01*
X23136Y167760D01*
X23062Y167808D01*
X22989Y167859D01*
X22919Y167913D01*
X22852Y167971D01*
X22786Y168031D01*
X22724Y168093D01*
X22664Y168159D01*
X22606Y168226D01*
X22552Y168296D01*
X22501Y168369D01*
X22453Y168443D01*
X22408Y168520D01*
X22367Y168598D01*
X22328Y168678D01*
X22294Y168759D01*
X22262Y168842D01*
X22235Y168927D01*
X22210Y169012D01*
X22190Y169098D01*
X22173Y169185D01*
X22160Y169273D01*
X22151Y169361D01*
X22145Y169449D01*
X22143Y169538D01*
X22143Y174759D01*
X22145Y174850D01*
X22151Y174941D01*
X22161Y175032D01*
X22175Y175122D01*
X22192Y175211D01*
X22214Y175299D01*
X22240Y175387D01*
X22269Y175473D01*
X22302Y175558D01*
X22339Y175641D01*
X22379Y175723D01*
X22423Y175803D01*
X22470Y175881D01*
X22521Y175957D01*
X22574Y176030D01*
X22631Y176101D01*
X22692Y176170D01*
X22755Y176235D01*
X22820Y176298D01*
X22889Y176358D01*
X22960Y176416D01*
X23033Y176469D01*
X23109Y176520D01*
X23187Y176567D01*
X23267Y176611D01*
X23349Y176651D01*
X23432Y176688D01*
X23517Y176721D01*
X23603Y176750D01*
X23691Y176776D01*
X23779Y176798D01*
X23868Y176815D01*
X23958Y176829D01*
X24049Y176839D01*
X24140Y176845D01*
X24231Y176847D01*
X26319Y176847D01*
X29788Y167449D02*
X32921Y167449D01*
X32921Y167450D02*
X33010Y167452D01*
X33098Y167458D01*
X33186Y167467D01*
X33274Y167480D01*
X33361Y167497D01*
X33447Y167517D01*
X33532Y167542D01*
X33617Y167569D01*
X33700Y167601D01*
X33781Y167635D01*
X33861Y167674D01*
X33939Y167715D01*
X34016Y167760D01*
X34090Y167808D01*
X34163Y167859D01*
X34233Y167913D01*
X34300Y167971D01*
X34366Y168031D01*
X34428Y168093D01*
X34488Y168159D01*
X34546Y168226D01*
X34600Y168296D01*
X34651Y168369D01*
X34699Y168443D01*
X34744Y168520D01*
X34785Y168598D01*
X34824Y168678D01*
X34858Y168759D01*
X34890Y168842D01*
X34917Y168927D01*
X34942Y169012D01*
X34962Y169098D01*
X34979Y169185D01*
X34992Y169273D01*
X35001Y169361D01*
X35007Y169449D01*
X35009Y169538D01*
X35009Y170582D01*
X35007Y170671D01*
X35001Y170759D01*
X34992Y170847D01*
X34979Y170935D01*
X34962Y171022D01*
X34942Y171108D01*
X34917Y171193D01*
X34890Y171278D01*
X34858Y171361D01*
X34824Y171442D01*
X34785Y171522D01*
X34744Y171600D01*
X34699Y171677D01*
X34651Y171751D01*
X34600Y171824D01*
X34546Y171894D01*
X34488Y171961D01*
X34428Y172027D01*
X34366Y172089D01*
X34300Y172149D01*
X34233Y172207D01*
X34163Y172261D01*
X34090Y172312D01*
X34016Y172360D01*
X33939Y172405D01*
X33861Y172446D01*
X33781Y172485D01*
X33700Y172519D01*
X33617Y172551D01*
X33532Y172578D01*
X33447Y172603D01*
X33361Y172623D01*
X33274Y172640D01*
X33186Y172653D01*
X33098Y172662D01*
X33010Y172668D01*
X32921Y172670D01*
X29788Y172670D01*
X29788Y176847D01*
X35009Y176847D01*
D15*
X65832Y164379D02*
X65832Y151879D01*
X42432Y151879D02*
X42432Y164379D01*
D12*
X59632Y179129D02*
X59634Y179192D01*
X59640Y179254D01*
X59650Y179316D01*
X59663Y179378D01*
X59681Y179438D01*
X59702Y179497D01*
X59727Y179555D01*
X59756Y179611D01*
X59788Y179665D01*
X59823Y179717D01*
X59861Y179766D01*
X59903Y179814D01*
X59947Y179858D01*
X59995Y179900D01*
X60044Y179938D01*
X60096Y179973D01*
X60150Y180005D01*
X60206Y180034D01*
X60264Y180059D01*
X60323Y180080D01*
X60383Y180098D01*
X60445Y180111D01*
X60507Y180121D01*
X60569Y180127D01*
X60632Y180129D01*
X60695Y180127D01*
X60757Y180121D01*
X60819Y180111D01*
X60881Y180098D01*
X60941Y180080D01*
X61000Y180059D01*
X61058Y180034D01*
X61114Y180005D01*
X61168Y179973D01*
X61220Y179938D01*
X61269Y179900D01*
X61317Y179858D01*
X61361Y179814D01*
X61403Y179766D01*
X61441Y179717D01*
X61476Y179665D01*
X61508Y179611D01*
X61537Y179555D01*
X61562Y179497D01*
X61583Y179438D01*
X61601Y179378D01*
X61614Y179316D01*
X61624Y179254D01*
X61630Y179192D01*
X61632Y179129D01*
X61630Y179066D01*
X61624Y179004D01*
X61614Y178942D01*
X61601Y178880D01*
X61583Y178820D01*
X61562Y178761D01*
X61537Y178703D01*
X61508Y178647D01*
X61476Y178593D01*
X61441Y178541D01*
X61403Y178492D01*
X61361Y178444D01*
X61317Y178400D01*
X61269Y178358D01*
X61220Y178320D01*
X61168Y178285D01*
X61114Y178253D01*
X61058Y178224D01*
X61000Y178199D01*
X60941Y178178D01*
X60881Y178160D01*
X60819Y178147D01*
X60757Y178137D01*
X60695Y178131D01*
X60632Y178129D01*
X60569Y178131D01*
X60507Y178137D01*
X60445Y178147D01*
X60383Y178160D01*
X60323Y178178D01*
X60264Y178199D01*
X60206Y178224D01*
X60150Y178253D01*
X60096Y178285D01*
X60044Y178320D01*
X59995Y178358D01*
X59947Y178400D01*
X59903Y178444D01*
X59861Y178492D01*
X59823Y178541D01*
X59788Y178593D01*
X59756Y178647D01*
X59727Y178703D01*
X59702Y178761D01*
X59681Y178820D01*
X59663Y178880D01*
X59650Y178942D01*
X59640Y179004D01*
X59634Y179066D01*
X59632Y179129D01*
D16*
X34612Y144451D02*
X29292Y144451D01*
X34612Y144451D02*
X34701Y144453D01*
X34790Y144459D01*
X34879Y144469D01*
X34967Y144482D01*
X35055Y144499D01*
X35142Y144521D01*
X35227Y144546D01*
X35312Y144574D01*
X35395Y144607D01*
X35477Y144643D01*
X35557Y144682D01*
X35635Y144725D01*
X35711Y144771D01*
X35786Y144821D01*
X35858Y144874D01*
X35927Y144930D01*
X35994Y144989D01*
X36059Y145050D01*
X36120Y145115D01*
X36179Y145182D01*
X36235Y145251D01*
X36288Y145323D01*
X36338Y145398D01*
X36384Y145474D01*
X36427Y145552D01*
X36466Y145632D01*
X36502Y145714D01*
X36535Y145797D01*
X36563Y145882D01*
X36588Y145967D01*
X36610Y146054D01*
X36627Y146142D01*
X36640Y146230D01*
X36650Y146319D01*
X36656Y146408D01*
X36658Y146497D01*
X36656Y146586D01*
X36650Y146675D01*
X36640Y146764D01*
X36627Y146852D01*
X36610Y146940D01*
X36588Y147027D01*
X36563Y147112D01*
X36535Y147197D01*
X36502Y147280D01*
X36466Y147362D01*
X36427Y147442D01*
X36384Y147520D01*
X36338Y147596D01*
X36288Y147671D01*
X36235Y147743D01*
X36179Y147812D01*
X36120Y147879D01*
X36059Y147944D01*
X35994Y148005D01*
X35927Y148064D01*
X35858Y148120D01*
X35786Y148173D01*
X35711Y148223D01*
X35635Y148269D01*
X35557Y148312D01*
X35477Y148351D01*
X35395Y148387D01*
X35312Y148420D01*
X35227Y148448D01*
X35142Y148473D01*
X35055Y148495D01*
X34967Y148512D01*
X34879Y148525D01*
X34790Y148535D01*
X34701Y148541D01*
X34612Y148543D01*
X29292Y148543D01*
X29292Y154261D02*
X29294Y154346D01*
X29300Y154431D01*
X29310Y154515D01*
X29323Y154599D01*
X29341Y154683D01*
X29362Y154765D01*
X29387Y154846D01*
X29416Y154926D01*
X29449Y155005D01*
X29485Y155082D01*
X29525Y155157D01*
X29568Y155231D01*
X29614Y155302D01*
X29664Y155371D01*
X29717Y155438D01*
X29773Y155502D01*
X29832Y155563D01*
X29893Y155622D01*
X29957Y155678D01*
X30024Y155731D01*
X30093Y155781D01*
X30164Y155827D01*
X30238Y155870D01*
X30313Y155910D01*
X30390Y155946D01*
X30469Y155979D01*
X30549Y156008D01*
X30630Y156033D01*
X30712Y156054D01*
X30796Y156072D01*
X30880Y156085D01*
X30964Y156095D01*
X31049Y156101D01*
X31134Y156103D01*
X29292Y154261D02*
X29294Y154165D01*
X29300Y154069D01*
X29310Y153974D01*
X29323Y153879D01*
X29341Y153784D01*
X29362Y153691D01*
X29387Y153598D01*
X29416Y153507D01*
X29448Y153416D01*
X29484Y153327D01*
X29524Y153240D01*
X29567Y153154D01*
X29613Y153070D01*
X29663Y152988D01*
X29717Y152908D01*
X29773Y152831D01*
X29833Y152756D01*
X29895Y152683D01*
X29961Y152613D01*
X30029Y152545D01*
X30100Y152480D01*
X30173Y152419D01*
X30249Y152360D01*
X30328Y152304D01*
X30408Y152252D01*
X30491Y152203D01*
X30575Y152157D01*
X30661Y152115D01*
X30749Y152077D01*
X30838Y152042D01*
X30929Y152010D01*
X32566Y155488D02*
X32507Y155548D01*
X32445Y155605D01*
X32381Y155660D01*
X32314Y155711D01*
X32245Y155760D01*
X32175Y155806D01*
X32102Y155849D01*
X32028Y155889D01*
X31952Y155925D01*
X31874Y155958D01*
X31795Y155988D01*
X31715Y156015D01*
X31634Y156038D01*
X31552Y156057D01*
X31470Y156073D01*
X31386Y156086D01*
X31302Y156095D01*
X31218Y156100D01*
X31134Y156102D01*
X32566Y155488D02*
X36658Y152010D01*
X36658Y156102D01*
X85894Y121868D02*
X85894Y119780D01*
X85892Y119691D01*
X85886Y119603D01*
X85877Y119515D01*
X85864Y119427D01*
X85847Y119340D01*
X85827Y119254D01*
X85802Y119169D01*
X85775Y119084D01*
X85743Y119001D01*
X85709Y118920D01*
X85670Y118840D01*
X85629Y118762D01*
X85584Y118685D01*
X85536Y118611D01*
X85485Y118538D01*
X85431Y118468D01*
X85373Y118401D01*
X85313Y118335D01*
X85251Y118273D01*
X85185Y118213D01*
X85118Y118155D01*
X85048Y118101D01*
X84975Y118050D01*
X84901Y118002D01*
X84824Y117957D01*
X84746Y117916D01*
X84666Y117877D01*
X84585Y117843D01*
X84502Y117811D01*
X84417Y117784D01*
X84332Y117759D01*
X84246Y117739D01*
X84159Y117722D01*
X84071Y117709D01*
X83983Y117700D01*
X83895Y117694D01*
X83806Y117692D01*
X83806Y117691D02*
X78584Y117691D01*
X78493Y117693D01*
X78402Y117699D01*
X78311Y117709D01*
X78221Y117723D01*
X78132Y117741D01*
X78043Y117762D01*
X77956Y117788D01*
X77870Y117817D01*
X77785Y117850D01*
X77701Y117887D01*
X77619Y117927D01*
X77540Y117971D01*
X77462Y118018D01*
X77386Y118069D01*
X77312Y118123D01*
X77241Y118180D01*
X77173Y118240D01*
X77107Y118303D01*
X77044Y118369D01*
X76984Y118437D01*
X76927Y118508D01*
X76873Y118582D01*
X76822Y118658D01*
X76775Y118735D01*
X76731Y118815D01*
X76691Y118897D01*
X76654Y118981D01*
X76621Y119065D01*
X76592Y119152D01*
X76566Y119239D01*
X76545Y119328D01*
X76527Y119417D01*
X76513Y119507D01*
X76503Y119598D01*
X76497Y119689D01*
X76495Y119780D01*
X76496Y119780D02*
X76496Y121868D01*
X80673Y125337D02*
X80673Y128470D01*
X80675Y128559D01*
X80681Y128647D01*
X80690Y128735D01*
X80703Y128823D01*
X80720Y128910D01*
X80740Y128996D01*
X80765Y129081D01*
X80792Y129166D01*
X80824Y129249D01*
X80858Y129330D01*
X80897Y129410D01*
X80938Y129488D01*
X80983Y129565D01*
X81031Y129639D01*
X81082Y129712D01*
X81136Y129782D01*
X81194Y129849D01*
X81254Y129915D01*
X81316Y129977D01*
X81382Y130037D01*
X81449Y130095D01*
X81519Y130149D01*
X81592Y130200D01*
X81666Y130248D01*
X81743Y130293D01*
X81821Y130334D01*
X81901Y130373D01*
X81982Y130407D01*
X82065Y130439D01*
X82150Y130466D01*
X82235Y130491D01*
X82321Y130511D01*
X82408Y130528D01*
X82496Y130541D01*
X82584Y130550D01*
X82672Y130556D01*
X82761Y130558D01*
X83283Y130558D01*
X83384Y130556D01*
X83485Y130550D01*
X83586Y130540D01*
X83686Y130527D01*
X83786Y130509D01*
X83885Y130488D01*
X83983Y130462D01*
X84080Y130433D01*
X84176Y130401D01*
X84270Y130364D01*
X84363Y130324D01*
X84455Y130280D01*
X84544Y130233D01*
X84632Y130182D01*
X84718Y130128D01*
X84801Y130071D01*
X84883Y130011D01*
X84961Y129947D01*
X85038Y129881D01*
X85111Y129811D01*
X85182Y129739D01*
X85250Y129664D01*
X85315Y129586D01*
X85377Y129506D01*
X85436Y129424D01*
X85492Y129339D01*
X85544Y129252D01*
X85593Y129164D01*
X85639Y129073D01*
X85680Y128981D01*
X85719Y128887D01*
X85753Y128792D01*
X85784Y128696D01*
X85811Y128598D01*
X85835Y128500D01*
X85854Y128400D01*
X85870Y128300D01*
X85882Y128200D01*
X85890Y128099D01*
X85894Y127998D01*
X85894Y127896D01*
X85890Y127795D01*
X85882Y127694D01*
X85870Y127594D01*
X85854Y127494D01*
X85835Y127394D01*
X85811Y127296D01*
X85784Y127198D01*
X85753Y127102D01*
X85719Y127007D01*
X85680Y126913D01*
X85639Y126821D01*
X85593Y126730D01*
X85544Y126641D01*
X85492Y126555D01*
X85436Y126470D01*
X85377Y126388D01*
X85315Y126308D01*
X85250Y126230D01*
X85182Y126155D01*
X85111Y126083D01*
X85038Y126013D01*
X84961Y125947D01*
X84883Y125883D01*
X84801Y125823D01*
X84718Y125766D01*
X84632Y125712D01*
X84544Y125661D01*
X84455Y125614D01*
X84363Y125570D01*
X84270Y125530D01*
X84176Y125493D01*
X84080Y125461D01*
X83983Y125432D01*
X83885Y125406D01*
X83786Y125385D01*
X83686Y125367D01*
X83586Y125354D01*
X83485Y125344D01*
X83384Y125338D01*
X83283Y125336D01*
X83283Y125337D02*
X80673Y125337D01*
X80544Y125339D01*
X80416Y125345D01*
X80288Y125355D01*
X80160Y125369D01*
X80032Y125386D01*
X79905Y125408D01*
X79779Y125434D01*
X79654Y125463D01*
X79530Y125496D01*
X79407Y125534D01*
X79285Y125574D01*
X79164Y125619D01*
X79045Y125667D01*
X78927Y125719D01*
X78811Y125775D01*
X78697Y125834D01*
X78585Y125897D01*
X78474Y125963D01*
X78366Y126032D01*
X78260Y126105D01*
X78156Y126181D01*
X78054Y126260D01*
X77955Y126342D01*
X77859Y126427D01*
X77765Y126515D01*
X77674Y126606D01*
X77586Y126700D01*
X77501Y126796D01*
X77419Y126895D01*
X77340Y126997D01*
X77264Y127101D01*
X77191Y127207D01*
X77122Y127315D01*
X77056Y127425D01*
X76993Y127538D01*
X76934Y127652D01*
X76878Y127768D01*
X76826Y127886D01*
X76778Y128005D01*
X76733Y128126D01*
X76693Y128248D01*
X76655Y128371D01*
X76622Y128495D01*
X76593Y128620D01*
X76567Y128746D01*
X76545Y128873D01*
X76528Y129001D01*
X76514Y129129D01*
X76504Y129257D01*
X76498Y129385D01*
X76496Y129514D01*
D13*
X65214Y212257D02*
X53530Y212257D01*
X53530Y215502D01*
X53532Y215615D01*
X53538Y215728D01*
X53548Y215841D01*
X53562Y215954D01*
X53579Y216066D01*
X53601Y216177D01*
X53626Y216287D01*
X53656Y216397D01*
X53689Y216505D01*
X53726Y216612D01*
X53766Y216718D01*
X53811Y216822D01*
X53859Y216925D01*
X53910Y217026D01*
X53965Y217125D01*
X54023Y217222D01*
X54085Y217317D01*
X54150Y217410D01*
X54218Y217500D01*
X54289Y217588D01*
X54364Y217674D01*
X54441Y217757D01*
X54521Y217837D01*
X54604Y217914D01*
X54690Y217989D01*
X54778Y218060D01*
X54868Y218128D01*
X54961Y218193D01*
X55056Y218255D01*
X55153Y218313D01*
X55252Y218368D01*
X55353Y218419D01*
X55456Y218467D01*
X55560Y218512D01*
X55666Y218552D01*
X55773Y218589D01*
X55881Y218622D01*
X55991Y218652D01*
X56101Y218677D01*
X56212Y218699D01*
X56324Y218716D01*
X56437Y218730D01*
X56550Y218740D01*
X56663Y218746D01*
X56776Y218748D01*
X56889Y218746D01*
X57002Y218740D01*
X57115Y218730D01*
X57228Y218716D01*
X57340Y218699D01*
X57451Y218677D01*
X57561Y218652D01*
X57671Y218622D01*
X57779Y218589D01*
X57886Y218552D01*
X57992Y218512D01*
X58096Y218467D01*
X58199Y218419D01*
X58300Y218368D01*
X58399Y218313D01*
X58496Y218255D01*
X58591Y218193D01*
X58684Y218128D01*
X58774Y218060D01*
X58862Y217989D01*
X58948Y217914D01*
X59031Y217837D01*
X59111Y217757D01*
X59188Y217674D01*
X59263Y217588D01*
X59334Y217500D01*
X59402Y217410D01*
X59467Y217317D01*
X59529Y217222D01*
X59587Y217125D01*
X59642Y217026D01*
X59693Y216925D01*
X59741Y216822D01*
X59786Y216718D01*
X59826Y216612D01*
X59863Y216505D01*
X59896Y216397D01*
X59926Y216287D01*
X59951Y216177D01*
X59973Y216066D01*
X59990Y215954D01*
X60004Y215841D01*
X60014Y215728D01*
X60020Y215615D01*
X60022Y215502D01*
X60021Y215502D02*
X60021Y212257D01*
X60021Y216151D02*
X65214Y218748D01*
X56127Y223613D02*
X53530Y226859D01*
X65214Y226859D01*
X65214Y230104D02*
X65214Y223613D01*
X53530Y238613D02*
X53532Y238720D01*
X53538Y238826D01*
X53548Y238932D01*
X53561Y239038D01*
X53579Y239144D01*
X53600Y239248D01*
X53625Y239352D01*
X53654Y239455D01*
X53686Y239556D01*
X53723Y239656D01*
X53763Y239755D01*
X53806Y239853D01*
X53853Y239949D01*
X53904Y240043D01*
X53958Y240135D01*
X54015Y240225D01*
X54075Y240313D01*
X54139Y240398D01*
X54206Y240481D01*
X54276Y240562D01*
X54348Y240640D01*
X54424Y240716D01*
X54502Y240788D01*
X54583Y240858D01*
X54666Y240925D01*
X54751Y240989D01*
X54839Y241049D01*
X54929Y241106D01*
X55021Y241160D01*
X55115Y241211D01*
X55211Y241258D01*
X55309Y241301D01*
X55408Y241341D01*
X55508Y241378D01*
X55609Y241410D01*
X55712Y241439D01*
X55816Y241464D01*
X55920Y241485D01*
X56026Y241503D01*
X56132Y241516D01*
X56238Y241526D01*
X56344Y241532D01*
X56451Y241534D01*
X53530Y238613D02*
X53532Y238492D01*
X53538Y238371D01*
X53548Y238251D01*
X53561Y238130D01*
X53579Y238011D01*
X53600Y237891D01*
X53625Y237773D01*
X53654Y237656D01*
X53687Y237539D01*
X53723Y237424D01*
X53764Y237310D01*
X53807Y237197D01*
X53855Y237085D01*
X53906Y236976D01*
X53961Y236868D01*
X54019Y236761D01*
X54080Y236657D01*
X54145Y236555D01*
X54213Y236455D01*
X54284Y236357D01*
X54358Y236261D01*
X54435Y236168D01*
X54516Y236078D01*
X54599Y235990D01*
X54685Y235905D01*
X54774Y235822D01*
X54865Y235743D01*
X54959Y235666D01*
X55055Y235593D01*
X55153Y235523D01*
X55254Y235456D01*
X55357Y235392D01*
X55462Y235332D01*
X55569Y235274D01*
X55677Y235221D01*
X55787Y235171D01*
X55899Y235125D01*
X56012Y235082D01*
X56127Y235043D01*
X58723Y240560D02*
X58645Y240639D01*
X58565Y240715D01*
X58482Y240788D01*
X58396Y240858D01*
X58309Y240925D01*
X58218Y240989D01*
X58126Y241049D01*
X58032Y241107D01*
X57935Y241161D01*
X57837Y241211D01*
X57737Y241258D01*
X57636Y241302D01*
X57533Y241342D01*
X57428Y241378D01*
X57323Y241410D01*
X57216Y241439D01*
X57109Y241464D01*
X57000Y241486D01*
X56891Y241503D01*
X56782Y241517D01*
X56672Y241526D01*
X56561Y241532D01*
X56451Y241534D01*
X58723Y240560D02*
X65214Y235043D01*
X65214Y241534D01*
X44314Y113950D02*
X44314Y102266D01*
X44314Y113950D02*
X47560Y113950D01*
X47560Y113951D02*
X47673Y113949D01*
X47786Y113943D01*
X47899Y113933D01*
X48012Y113919D01*
X48124Y113902D01*
X48235Y113880D01*
X48345Y113855D01*
X48455Y113825D01*
X48563Y113792D01*
X48670Y113755D01*
X48776Y113715D01*
X48880Y113670D01*
X48983Y113622D01*
X49084Y113571D01*
X49183Y113516D01*
X49280Y113458D01*
X49375Y113396D01*
X49468Y113331D01*
X49558Y113263D01*
X49646Y113192D01*
X49732Y113117D01*
X49815Y113040D01*
X49895Y112960D01*
X49972Y112877D01*
X50047Y112791D01*
X50118Y112703D01*
X50186Y112613D01*
X50251Y112520D01*
X50313Y112425D01*
X50371Y112328D01*
X50426Y112229D01*
X50477Y112128D01*
X50525Y112025D01*
X50570Y111921D01*
X50610Y111815D01*
X50647Y111708D01*
X50680Y111600D01*
X50710Y111490D01*
X50735Y111380D01*
X50757Y111269D01*
X50774Y111157D01*
X50788Y111044D01*
X50798Y110931D01*
X50804Y110818D01*
X50806Y110705D01*
X50804Y110592D01*
X50798Y110479D01*
X50788Y110366D01*
X50774Y110253D01*
X50757Y110141D01*
X50735Y110030D01*
X50710Y109920D01*
X50680Y109810D01*
X50647Y109702D01*
X50610Y109595D01*
X50570Y109489D01*
X50525Y109385D01*
X50477Y109282D01*
X50426Y109181D01*
X50371Y109082D01*
X50313Y108985D01*
X50251Y108890D01*
X50186Y108797D01*
X50118Y108707D01*
X50047Y108619D01*
X49972Y108533D01*
X49895Y108450D01*
X49815Y108370D01*
X49732Y108293D01*
X49646Y108218D01*
X49558Y108147D01*
X49468Y108079D01*
X49375Y108014D01*
X49280Y107952D01*
X49183Y107894D01*
X49084Y107839D01*
X48983Y107788D01*
X48880Y107740D01*
X48776Y107695D01*
X48670Y107655D01*
X48563Y107618D01*
X48455Y107585D01*
X48345Y107555D01*
X48235Y107530D01*
X48124Y107508D01*
X48012Y107491D01*
X47899Y107477D01*
X47786Y107467D01*
X47673Y107461D01*
X47560Y107459D01*
X44314Y107459D01*
X48209Y107459D02*
X50805Y102266D01*
X58267Y107459D02*
X62162Y107459D01*
X58267Y107460D02*
X58168Y107462D01*
X58068Y107468D01*
X57969Y107477D01*
X57871Y107490D01*
X57773Y107507D01*
X57675Y107528D01*
X57579Y107553D01*
X57484Y107581D01*
X57390Y107613D01*
X57297Y107648D01*
X57205Y107687D01*
X57115Y107730D01*
X57027Y107775D01*
X56940Y107825D01*
X56856Y107877D01*
X56773Y107933D01*
X56693Y107991D01*
X56615Y108053D01*
X56540Y108118D01*
X56467Y108186D01*
X56397Y108256D01*
X56329Y108329D01*
X56264Y108404D01*
X56202Y108482D01*
X56144Y108562D01*
X56088Y108645D01*
X56036Y108729D01*
X55986Y108816D01*
X55941Y108904D01*
X55898Y108994D01*
X55859Y109086D01*
X55824Y109179D01*
X55792Y109273D01*
X55764Y109368D01*
X55739Y109464D01*
X55718Y109562D01*
X55701Y109660D01*
X55688Y109758D01*
X55679Y109857D01*
X55673Y109957D01*
X55671Y110056D01*
X55671Y110705D01*
X55670Y110705D02*
X55672Y110818D01*
X55678Y110931D01*
X55688Y111044D01*
X55702Y111157D01*
X55719Y111269D01*
X55741Y111380D01*
X55766Y111490D01*
X55796Y111600D01*
X55829Y111708D01*
X55866Y111815D01*
X55906Y111921D01*
X55951Y112025D01*
X55999Y112128D01*
X56050Y112229D01*
X56105Y112328D01*
X56163Y112425D01*
X56225Y112520D01*
X56290Y112613D01*
X56358Y112703D01*
X56429Y112791D01*
X56504Y112877D01*
X56581Y112960D01*
X56661Y113040D01*
X56744Y113117D01*
X56830Y113192D01*
X56918Y113263D01*
X57008Y113331D01*
X57101Y113396D01*
X57196Y113458D01*
X57293Y113516D01*
X57392Y113571D01*
X57493Y113622D01*
X57596Y113670D01*
X57700Y113715D01*
X57806Y113755D01*
X57913Y113792D01*
X58021Y113825D01*
X58131Y113855D01*
X58241Y113880D01*
X58352Y113902D01*
X58464Y113919D01*
X58577Y113933D01*
X58690Y113943D01*
X58803Y113949D01*
X58916Y113951D01*
X59029Y113949D01*
X59142Y113943D01*
X59255Y113933D01*
X59368Y113919D01*
X59480Y113902D01*
X59591Y113880D01*
X59701Y113855D01*
X59811Y113825D01*
X59919Y113792D01*
X60026Y113755D01*
X60132Y113715D01*
X60236Y113670D01*
X60339Y113622D01*
X60440Y113571D01*
X60539Y113516D01*
X60636Y113458D01*
X60731Y113396D01*
X60824Y113331D01*
X60914Y113263D01*
X61002Y113192D01*
X61088Y113117D01*
X61171Y113040D01*
X61251Y112960D01*
X61328Y112877D01*
X61403Y112791D01*
X61474Y112703D01*
X61542Y112613D01*
X61607Y112520D01*
X61669Y112425D01*
X61727Y112328D01*
X61782Y112229D01*
X61833Y112128D01*
X61881Y112025D01*
X61926Y111921D01*
X61966Y111815D01*
X62003Y111708D01*
X62036Y111600D01*
X62066Y111490D01*
X62091Y111380D01*
X62113Y111269D01*
X62130Y111157D01*
X62144Y111044D01*
X62154Y110931D01*
X62160Y110818D01*
X62162Y110705D01*
X62162Y107459D01*
X62160Y107316D01*
X62154Y107173D01*
X62144Y107030D01*
X62130Y106888D01*
X62113Y106746D01*
X62091Y106604D01*
X62066Y106463D01*
X62036Y106323D01*
X62003Y106184D01*
X61966Y106046D01*
X61925Y105909D01*
X61881Y105773D01*
X61832Y105638D01*
X61780Y105505D01*
X61725Y105373D01*
X61665Y105243D01*
X61602Y105114D01*
X61536Y104987D01*
X61466Y104862D01*
X61393Y104740D01*
X61316Y104619D01*
X61236Y104500D01*
X61153Y104384D01*
X61067Y104269D01*
X60978Y104158D01*
X60885Y104048D01*
X60790Y103942D01*
X60691Y103838D01*
X60590Y103737D01*
X60486Y103638D01*
X60380Y103543D01*
X60270Y103450D01*
X60159Y103361D01*
X60044Y103275D01*
X59928Y103192D01*
X59809Y103112D01*
X59688Y103035D01*
X59565Y102962D01*
X59441Y102892D01*
X59314Y102826D01*
X59185Y102763D01*
X59055Y102703D01*
X58923Y102648D01*
X58790Y102596D01*
X58655Y102547D01*
X58519Y102503D01*
X58382Y102462D01*
X58244Y102425D01*
X58105Y102392D01*
X57965Y102362D01*
X57824Y102337D01*
X57682Y102315D01*
X57540Y102298D01*
X57398Y102284D01*
X57255Y102274D01*
X57112Y102268D01*
X56969Y102266D01*
M02*
