G04 EAGLE Gerber RS-274X export*
G75*
%MOMM*%
%FSLAX34Y34*%
%LPD*%
%INSolderpaste Top*%
%IPPOS*%
%AMOC8*
5,1,8,0,0,1.08239X$1,22.5*%
G01*
%ADD10R,0.560000X2.030000*%
%ADD11R,1.980000X3.560000*%
%ADD12R,1.475000X0.450000*%
%ADD13R,1.300000X1.500000*%
%ADD14R,1.100000X1.000000*%
%ADD15R,1.000000X1.100000*%
%ADD16R,1.300000X1.600000*%
%ADD17C,0.100000*%
%ADD18R,1.600000X1.300000*%


D10*
X287743Y126927D03*
X297743Y126927D03*
X307743Y126927D03*
X317743Y126927D03*
X327743Y126927D03*
X337743Y126927D03*
X347743Y126927D03*
X357743Y126927D03*
X367743Y126927D03*
X377743Y126927D03*
D11*
X277143Y167577D03*
X388343Y167577D03*
D12*
X273887Y276074D03*
X273887Y282574D03*
X273887Y289074D03*
X273887Y295574D03*
X273887Y302074D03*
X273887Y308574D03*
X273887Y315074D03*
X273887Y321574D03*
X215127Y321574D03*
X215127Y315074D03*
X215127Y308574D03*
X215127Y302074D03*
X215127Y295574D03*
X215127Y289074D03*
X215127Y282574D03*
X215127Y276074D03*
D13*
X275847Y258350D03*
X256847Y258350D03*
X213405Y258232D03*
X232405Y258232D03*
D14*
X284980Y207335D03*
X284980Y224335D03*
X306461Y207380D03*
X306461Y224380D03*
D15*
X182719Y298174D03*
X165719Y298174D03*
X183223Y319251D03*
X166223Y319251D03*
D14*
X298343Y287234D03*
X298343Y270234D03*
D16*
X164603Y189498D03*
X144603Y189498D03*
D17*
X183067Y176979D02*
X183067Y166079D01*
X183067Y176979D02*
X186067Y176979D01*
X186067Y166079D01*
X183067Y166079D01*
X183067Y167029D02*
X186067Y167029D01*
X186067Y167979D02*
X183067Y167979D01*
X183067Y168929D02*
X186067Y168929D01*
X186067Y169879D02*
X183067Y169879D01*
X183067Y170829D02*
X186067Y170829D01*
X186067Y171779D02*
X183067Y171779D01*
X183067Y172729D02*
X186067Y172729D01*
X186067Y173679D02*
X183067Y173679D01*
X183067Y174629D02*
X186067Y174629D01*
X186067Y175579D02*
X183067Y175579D01*
X183067Y176529D02*
X186067Y176529D01*
X176567Y176979D02*
X176567Y166079D01*
X176567Y176979D02*
X179567Y176979D01*
X179567Y166079D01*
X176567Y166079D01*
X176567Y167029D02*
X179567Y167029D01*
X179567Y167979D02*
X176567Y167979D01*
X176567Y168929D02*
X179567Y168929D01*
X179567Y169879D02*
X176567Y169879D01*
X176567Y170829D02*
X179567Y170829D01*
X179567Y171779D02*
X176567Y171779D01*
X176567Y172729D02*
X179567Y172729D01*
X179567Y173679D02*
X176567Y173679D01*
X176567Y174629D02*
X179567Y174629D01*
X179567Y175579D02*
X176567Y175579D01*
X176567Y176529D02*
X179567Y176529D01*
X170067Y176979D02*
X170067Y166079D01*
X170067Y176979D02*
X173067Y176979D01*
X173067Y166079D01*
X170067Y166079D01*
X170067Y167029D02*
X173067Y167029D01*
X173067Y167979D02*
X170067Y167979D01*
X170067Y168929D02*
X173067Y168929D01*
X173067Y169879D02*
X170067Y169879D01*
X170067Y170829D02*
X173067Y170829D01*
X173067Y171779D02*
X170067Y171779D01*
X170067Y172729D02*
X173067Y172729D01*
X173067Y173679D02*
X170067Y173679D01*
X170067Y174629D02*
X173067Y174629D01*
X173067Y175579D02*
X170067Y175579D01*
X170067Y176529D02*
X173067Y176529D01*
X170067Y157779D02*
X170067Y146879D01*
X170067Y157779D02*
X173067Y157779D01*
X173067Y146879D01*
X170067Y146879D01*
X170067Y147829D02*
X173067Y147829D01*
X173067Y148779D02*
X170067Y148779D01*
X170067Y149729D02*
X173067Y149729D01*
X173067Y150679D02*
X170067Y150679D01*
X170067Y151629D02*
X173067Y151629D01*
X173067Y152579D02*
X170067Y152579D01*
X170067Y153529D02*
X173067Y153529D01*
X173067Y154479D02*
X170067Y154479D01*
X170067Y155429D02*
X173067Y155429D01*
X173067Y156379D02*
X170067Y156379D01*
X170067Y157329D02*
X173067Y157329D01*
X183067Y157779D02*
X183067Y146879D01*
X183067Y157779D02*
X186067Y157779D01*
X186067Y146879D01*
X183067Y146879D01*
X183067Y147829D02*
X186067Y147829D01*
X186067Y148779D02*
X183067Y148779D01*
X183067Y149729D02*
X186067Y149729D01*
X186067Y150679D02*
X183067Y150679D01*
X183067Y151629D02*
X186067Y151629D01*
X186067Y152579D02*
X183067Y152579D01*
X183067Y153529D02*
X186067Y153529D01*
X186067Y154479D02*
X183067Y154479D01*
X183067Y155429D02*
X186067Y155429D01*
X186067Y156379D02*
X183067Y156379D01*
X183067Y157329D02*
X186067Y157329D01*
D18*
X202289Y152147D03*
X202289Y172147D03*
D14*
X183515Y206252D03*
X183515Y189252D03*
D15*
X169957Y132157D03*
X186957Y132157D03*
D16*
X103893Y188320D03*
X83893Y188320D03*
D17*
X121172Y174655D02*
X121172Y163755D01*
X121172Y174655D02*
X124172Y174655D01*
X124172Y163755D01*
X121172Y163755D01*
X121172Y164705D02*
X124172Y164705D01*
X124172Y165655D02*
X121172Y165655D01*
X121172Y166605D02*
X124172Y166605D01*
X124172Y167555D02*
X121172Y167555D01*
X121172Y168505D02*
X124172Y168505D01*
X124172Y169455D02*
X121172Y169455D01*
X121172Y170405D02*
X124172Y170405D01*
X124172Y171355D02*
X121172Y171355D01*
X121172Y172305D02*
X124172Y172305D01*
X124172Y173255D02*
X121172Y173255D01*
X121172Y174205D02*
X124172Y174205D01*
X114672Y174655D02*
X114672Y163755D01*
X114672Y174655D02*
X117672Y174655D01*
X117672Y163755D01*
X114672Y163755D01*
X114672Y164705D02*
X117672Y164705D01*
X117672Y165655D02*
X114672Y165655D01*
X114672Y166605D02*
X117672Y166605D01*
X117672Y167555D02*
X114672Y167555D01*
X114672Y168505D02*
X117672Y168505D01*
X117672Y169455D02*
X114672Y169455D01*
X114672Y170405D02*
X117672Y170405D01*
X117672Y171355D02*
X114672Y171355D01*
X114672Y172305D02*
X117672Y172305D01*
X117672Y173255D02*
X114672Y173255D01*
X114672Y174205D02*
X117672Y174205D01*
X108172Y174655D02*
X108172Y163755D01*
X108172Y174655D02*
X111172Y174655D01*
X111172Y163755D01*
X108172Y163755D01*
X108172Y164705D02*
X111172Y164705D01*
X111172Y165655D02*
X108172Y165655D01*
X108172Y166605D02*
X111172Y166605D01*
X111172Y167555D02*
X108172Y167555D01*
X108172Y168505D02*
X111172Y168505D01*
X111172Y169455D02*
X108172Y169455D01*
X108172Y170405D02*
X111172Y170405D01*
X111172Y171355D02*
X108172Y171355D01*
X108172Y172305D02*
X111172Y172305D01*
X111172Y173255D02*
X108172Y173255D01*
X108172Y174205D02*
X111172Y174205D01*
X108172Y155455D02*
X108172Y144555D01*
X108172Y155455D02*
X111172Y155455D01*
X111172Y144555D01*
X108172Y144555D01*
X108172Y145505D02*
X111172Y145505D01*
X111172Y146455D02*
X108172Y146455D01*
X108172Y147405D02*
X111172Y147405D01*
X111172Y148355D02*
X108172Y148355D01*
X108172Y149305D02*
X111172Y149305D01*
X111172Y150255D02*
X108172Y150255D01*
X108172Y151205D02*
X111172Y151205D01*
X111172Y152155D02*
X108172Y152155D01*
X108172Y153105D02*
X111172Y153105D01*
X111172Y154055D02*
X108172Y154055D01*
X108172Y155005D02*
X111172Y155005D01*
X121172Y155455D02*
X121172Y144555D01*
X121172Y155455D02*
X124172Y155455D01*
X124172Y144555D01*
X121172Y144555D01*
X121172Y145505D02*
X124172Y145505D01*
X124172Y146455D02*
X121172Y146455D01*
X121172Y147405D02*
X124172Y147405D01*
X124172Y148355D02*
X121172Y148355D01*
X121172Y149305D02*
X124172Y149305D01*
X124172Y150255D02*
X121172Y150255D01*
X121172Y151205D02*
X124172Y151205D01*
X124172Y152155D02*
X121172Y152155D01*
X121172Y153105D02*
X124172Y153105D01*
X124172Y154055D02*
X121172Y154055D01*
X121172Y155005D02*
X124172Y155005D01*
D18*
X139176Y150097D03*
X139176Y170097D03*
D14*
X122319Y202936D03*
X122319Y185936D03*
D15*
X107723Y129421D03*
X124723Y129421D03*
D16*
X40141Y187246D03*
X20141Y187246D03*
D17*
X59132Y173179D02*
X59132Y162279D01*
X59132Y173179D02*
X62132Y173179D01*
X62132Y162279D01*
X59132Y162279D01*
X59132Y163229D02*
X62132Y163229D01*
X62132Y164179D02*
X59132Y164179D01*
X59132Y165129D02*
X62132Y165129D01*
X62132Y166079D02*
X59132Y166079D01*
X59132Y167029D02*
X62132Y167029D01*
X62132Y167979D02*
X59132Y167979D01*
X59132Y168929D02*
X62132Y168929D01*
X62132Y169879D02*
X59132Y169879D01*
X59132Y170829D02*
X62132Y170829D01*
X62132Y171779D02*
X59132Y171779D01*
X59132Y172729D02*
X62132Y172729D01*
X52632Y173179D02*
X52632Y162279D01*
X52632Y173179D02*
X55632Y173179D01*
X55632Y162279D01*
X52632Y162279D01*
X52632Y163229D02*
X55632Y163229D01*
X55632Y164179D02*
X52632Y164179D01*
X52632Y165129D02*
X55632Y165129D01*
X55632Y166079D02*
X52632Y166079D01*
X52632Y167029D02*
X55632Y167029D01*
X55632Y167979D02*
X52632Y167979D01*
X52632Y168929D02*
X55632Y168929D01*
X55632Y169879D02*
X52632Y169879D01*
X52632Y170829D02*
X55632Y170829D01*
X55632Y171779D02*
X52632Y171779D01*
X52632Y172729D02*
X55632Y172729D01*
X46132Y173179D02*
X46132Y162279D01*
X46132Y173179D02*
X49132Y173179D01*
X49132Y162279D01*
X46132Y162279D01*
X46132Y163229D02*
X49132Y163229D01*
X49132Y164179D02*
X46132Y164179D01*
X46132Y165129D02*
X49132Y165129D01*
X49132Y166079D02*
X46132Y166079D01*
X46132Y167029D02*
X49132Y167029D01*
X49132Y167979D02*
X46132Y167979D01*
X46132Y168929D02*
X49132Y168929D01*
X49132Y169879D02*
X46132Y169879D01*
X46132Y170829D02*
X49132Y170829D01*
X49132Y171779D02*
X46132Y171779D01*
X46132Y172729D02*
X49132Y172729D01*
X46132Y153979D02*
X46132Y143079D01*
X46132Y153979D02*
X49132Y153979D01*
X49132Y143079D01*
X46132Y143079D01*
X46132Y144029D02*
X49132Y144029D01*
X49132Y144979D02*
X46132Y144979D01*
X46132Y145929D02*
X49132Y145929D01*
X49132Y146879D02*
X46132Y146879D01*
X46132Y147829D02*
X49132Y147829D01*
X49132Y148779D02*
X46132Y148779D01*
X46132Y149729D02*
X49132Y149729D01*
X49132Y150679D02*
X46132Y150679D01*
X46132Y151629D02*
X49132Y151629D01*
X49132Y152579D02*
X46132Y152579D01*
X46132Y153529D02*
X49132Y153529D01*
X59132Y153979D02*
X59132Y143079D01*
X59132Y153979D02*
X62132Y153979D01*
X62132Y143079D01*
X59132Y143079D01*
X59132Y144029D02*
X62132Y144029D01*
X62132Y144979D02*
X59132Y144979D01*
X59132Y145929D02*
X62132Y145929D01*
X62132Y146879D02*
X59132Y146879D01*
X59132Y147829D02*
X62132Y147829D01*
X62132Y148779D02*
X59132Y148779D01*
X59132Y149729D02*
X62132Y149729D01*
X62132Y150679D02*
X59132Y150679D01*
X59132Y151629D02*
X62132Y151629D01*
X62132Y152579D02*
X59132Y152579D01*
X59132Y153529D02*
X62132Y153529D01*
D18*
X77290Y148363D03*
X77290Y168363D03*
D14*
X58390Y201415D03*
X58390Y184415D03*
D15*
X45140Y127728D03*
X62140Y127728D03*
M02*
