G04 EAGLE Gerber RS-274X export*
G75*
%MOMM*%
%FSLAX34Y34*%
%LPD*%
%INSilkscreen Bottom*%
%IPPOS*%
%AMOC8*
5,1,8,0,0,1.08239X$1,22.5*%
G01*
%ADD10R,25.400000X0.063500*%
%ADD11R,25.527000X0.063500*%
%ADD12R,25.463500X0.063500*%
%ADD13R,2.857500X0.063500*%
%ADD14R,1.841500X0.063500*%
%ADD15R,1.333500X0.063500*%
%ADD16R,1.968500X0.063500*%
%ADD17R,0.571500X0.063500*%
%ADD18R,2.667000X0.063500*%
%ADD19R,3.873500X0.063500*%
%ADD20R,0.952500X0.063500*%
%ADD21R,2.476500X0.063500*%
%ADD22R,1.905000X0.063500*%
%ADD23R,1.270000X0.063500*%
%ADD24R,2.032000X0.063500*%
%ADD25R,0.444500X0.063500*%
%ADD26R,2.413000X0.063500*%
%ADD27R,3.175000X0.063500*%
%ADD28R,2.222500X0.063500*%
%ADD29R,1.143000X0.063500*%
%ADD30R,0.381000X0.063500*%
%ADD31R,2.349500X0.063500*%
%ADD32R,2.921000X0.063500*%
%ADD33R,1.016000X0.063500*%
%ADD34R,2.095500X0.063500*%
%ADD35R,1.079500X0.063500*%
%ADD36R,0.317500X0.063500*%
%ADD37R,2.286000X0.063500*%
%ADD38R,2.730500X0.063500*%
%ADD39R,2.159000X0.063500*%
%ADD40R,0.254000X0.063500*%
%ADD41R,2.603500X0.063500*%
%ADD42R,0.889000X0.063500*%
%ADD43R,1.778000X0.063500*%
%ADD44R,0.825500X0.063500*%
%ADD45R,0.127000X0.063500*%
%ADD46R,1.714500X0.063500*%
%ADD47R,0.698500X0.063500*%
%ADD48R,0.063500X0.063500*%
%ADD49R,1.587500X0.063500*%
%ADD50R,1.524000X0.063500*%
%ADD51R,2.540000X0.063500*%
%ADD52R,0.508000X0.063500*%
%ADD53R,0.635000X0.063500*%
%ADD54R,1.460500X0.063500*%
%ADD55R,1.206500X0.063500*%
%ADD56R,1.397000X0.063500*%
%ADD57R,2.794000X0.063500*%
%ADD58R,2.984500X0.063500*%
%ADD59R,0.762000X0.063500*%
%ADD60R,0.190500X0.063500*%
%ADD61R,1.651000X0.063500*%
%ADD62R,3.048000X0.063500*%
%ADD63R,3.111500X0.063500*%
%ADD64R,3.302000X0.063500*%
%ADD65R,3.429000X0.063500*%
%ADD66R,3.238500X0.063500*%
%ADD67R,3.619500X0.063500*%
%ADD68R,3.937000X0.063500*%
%ADD69R,3.365500X0.063500*%
%ADD70R,4.508500X0.063500*%
%ADD71R,4.762500X0.063500*%
%ADD72R,4.889500X0.063500*%
%ADD73R,4.635500X0.063500*%
%ADD74R,4.699000X0.063500*%
%ADD75R,4.953000X0.063500*%
%ADD76R,4.064000X0.063500*%
%ADD77R,5.016500X0.063500*%
%ADD78R,4.127500X0.063500*%
%ADD79R,4.254500X0.063500*%
%ADD80R,4.826000X0.063500*%
%ADD81R,5.080000X0.063500*%
%ADD82R,4.318000X0.063500*%
%ADD83R,4.381500X0.063500*%
%ADD84R,4.572000X0.063500*%
%ADD85R,5.143500X0.063500*%
%ADD86R,5.207000X0.063500*%
%ADD87R,3.492500X0.063500*%
%ADD88R,3.683000X0.063500*%
%ADD89R,3.556000X0.063500*%
%ADD90R,4.000500X0.063500*%
%ADD91R,4.191000X0.063500*%
%ADD92R,3.746500X0.063500*%
%ADD93R,5.334000X0.063500*%
%ADD94R,5.270500X0.063500*%
%ADD95R,5.651500X0.063500*%
%ADD96R,5.905500X0.063500*%
%ADD97R,6.286500X0.063500*%
%ADD98R,6.604000X0.063500*%
%ADD99R,6.985000X0.063500*%
%ADD100R,7.239000X0.063500*%
%ADD101R,7.493000X0.063500*%
%ADD102R,7.683500X0.063500*%
%ADD103R,7.937500X0.063500*%
%ADD104R,8.191500X0.063500*%
%ADD105R,6.921500X0.063500*%
%ADD106R,6.667500X0.063500*%
%ADD107R,6.540500X0.063500*%
%ADD108R,6.413500X0.063500*%
%ADD109R,6.477000X0.063500*%
%ADD110R,6.350000X0.063500*%
%ADD111R,6.223000X0.063500*%
%ADD112R,6.159500X0.063500*%
%ADD113R,6.096000X0.063500*%
%ADD114R,5.842000X0.063500*%
%ADD115R,5.524500X0.063500*%
%ADD116R,4.445000X0.063500*%
%ADD117R,5.461000X0.063500*%
%ADD118R,5.715000X0.063500*%
%ADD119R,6.794500X0.063500*%
%ADD120R,7.175500X0.063500*%
%ADD121R,7.429500X0.063500*%
%ADD122R,7.620000X0.063500*%
%ADD123R,7.874000X0.063500*%
%ADD124R,8.001000X0.063500*%
%ADD125R,8.128000X0.063500*%
%ADD126R,5.778500X0.063500*%
%ADD127R,3.810000X0.063500*%
%ADD128R,31.305500X0.063500*%
%ADD129R,31.432500X0.063500*%
%ADD130R,31.559500X0.063500*%
%ADD131R,31.623000X0.063500*%
%ADD132R,31.750000X0.063500*%
%ADD133R,31.813500X0.063500*%
%ADD134R,31.940500X0.063500*%
%ADD135R,32.067500X0.063500*%
%ADD136R,32.194500X0.063500*%
%ADD137R,32.258000X0.063500*%
%ADD138R,32.321500X0.063500*%
%ADD139R,32.448500X0.063500*%
%ADD140R,32.512000X0.063500*%
%ADD141R,34.988500X0.063500*%
%ADD142R,35.052000X0.063500*%
%ADD143R,35.179000X0.063500*%
%ADD144R,35.306000X0.063500*%
%ADD145C,0.101600*%
%ADD146C,0.100000*%
%ADD147C,0.200000*%


D10*
X526733Y87630D03*
D11*
X526733Y88265D03*
D12*
X527050Y88900D03*
X527050Y89535D03*
X527050Y90170D03*
X527050Y90805D03*
X527050Y91440D03*
X527050Y92075D03*
X527050Y92710D03*
X527050Y93345D03*
X527050Y93980D03*
X527050Y94615D03*
D13*
X414020Y95250D03*
D14*
X452120Y95250D03*
D15*
X477520Y95250D03*
D16*
X502920Y95250D03*
D17*
X523240Y95250D03*
D18*
X559118Y95250D03*
D19*
X601345Y95250D03*
D20*
X649605Y95250D03*
D21*
X412115Y95885D03*
D22*
X452438Y95885D03*
D23*
X477838Y95885D03*
D24*
X502603Y95885D03*
D25*
X523240Y95885D03*
D26*
X557848Y95885D03*
D27*
X601663Y95885D03*
D20*
X649605Y95885D03*
D28*
X410845Y96520D03*
D24*
X452438Y96520D03*
D29*
X477838Y96520D03*
D24*
X502603Y96520D03*
D30*
X522923Y96520D03*
D31*
X556895Y96520D03*
D32*
X601663Y96520D03*
D33*
X649288Y96520D03*
D34*
X410210Y97155D03*
D24*
X452438Y97155D03*
D35*
X478155Y97155D03*
D24*
X502603Y97155D03*
D36*
X522605Y97155D03*
D37*
X555943Y97155D03*
D38*
X601980Y97155D03*
D33*
X649288Y97155D03*
D16*
X409575Y97790D03*
D39*
X452438Y97790D03*
D33*
X478473Y97790D03*
D34*
X502285Y97790D03*
D40*
X522288Y97790D03*
D28*
X554990Y97790D03*
D41*
X601980Y97790D03*
D33*
X649288Y97790D03*
D14*
X408940Y98425D03*
D28*
X452755Y98425D03*
D42*
X478473Y98425D03*
D39*
X502603Y98425D03*
D40*
X522288Y98425D03*
D39*
X554673Y98425D03*
D21*
X601980Y98425D03*
D35*
X648970Y98425D03*
D43*
X408623Y99060D03*
D37*
X453073Y99060D03*
D44*
X478790Y99060D03*
D28*
X502285Y99060D03*
D45*
X522288Y99060D03*
D39*
X554038Y99060D03*
D26*
X602298Y99060D03*
D35*
X648970Y99060D03*
D46*
X408305Y99695D03*
D26*
X453073Y99695D03*
D47*
X478790Y99695D03*
D28*
X502285Y99695D03*
D48*
X521970Y99695D03*
D39*
X553403Y99695D03*
D37*
X602298Y99695D03*
D35*
X648970Y99695D03*
D49*
X407670Y100330D03*
D21*
X453390Y100330D03*
D17*
X479425Y100330D03*
D28*
X502285Y100330D03*
D39*
X552768Y100330D03*
D37*
X602298Y100330D03*
D29*
X648653Y100330D03*
D50*
X407353Y100965D03*
D51*
X453708Y100965D03*
D52*
X479743Y100965D03*
D37*
X501968Y100965D03*
D34*
X552450Y100965D03*
D28*
X601980Y100965D03*
D29*
X648653Y100965D03*
D50*
X407353Y101600D03*
D30*
X429578Y101600D03*
D18*
X453708Y101600D03*
D30*
X479743Y101600D03*
D37*
X501968Y101600D03*
D33*
X526733Y101600D03*
D34*
X551815Y101600D03*
D53*
X576898Y101600D03*
D28*
X601980Y101600D03*
D35*
X628650Y101600D03*
D29*
X648653Y101600D03*
D54*
X407035Y102235D03*
D52*
X428943Y102235D03*
D38*
X454025Y102235D03*
D36*
X480060Y102235D03*
D37*
X501968Y102235D03*
D20*
X526415Y102235D03*
D34*
X551180Y102235D03*
D44*
X576580Y102235D03*
D34*
X601980Y102235D03*
D29*
X628333Y102235D03*
D55*
X648335Y102235D03*
D56*
X406718Y102870D03*
D53*
X428308Y102870D03*
D57*
X454343Y102870D03*
D40*
X480378Y102870D03*
D26*
X501968Y102870D03*
D42*
X526098Y102870D03*
D39*
X550863Y102870D03*
D20*
X576580Y102870D03*
D34*
X601980Y102870D03*
D29*
X627698Y102870D03*
D55*
X648335Y102870D03*
D15*
X406400Y103505D03*
D47*
X427355Y103505D03*
D32*
X454343Y103505D03*
D45*
X480378Y103505D03*
D26*
X501968Y103505D03*
D42*
X526098Y103505D03*
D39*
X550228Y103505D03*
D35*
X576580Y103505D03*
D34*
X601980Y103505D03*
D55*
X627380Y103505D03*
D23*
X648018Y103505D03*
X406083Y104140D03*
D44*
X426720Y104140D03*
D58*
X454660Y104140D03*
D26*
X501968Y104140D03*
D59*
X526098Y104140D03*
D39*
X550228Y104140D03*
D55*
X575945Y104140D03*
D34*
X601980Y104140D03*
D29*
X627063Y104140D03*
D23*
X648018Y104140D03*
X406083Y104775D03*
D42*
X426403Y104775D03*
D58*
X454025Y104775D03*
D21*
X501650Y104775D03*
D47*
X525780Y104775D03*
D39*
X549593Y104775D03*
D15*
X575945Y104775D03*
D34*
X601980Y104775D03*
D23*
X648018Y104775D03*
D55*
X405765Y105410D03*
D42*
X425768Y105410D03*
D51*
X451803Y105410D03*
D21*
X501650Y105410D03*
D53*
X525463Y105410D03*
D28*
X549275Y105410D03*
D15*
X575945Y105410D03*
D34*
X601980Y105410D03*
D15*
X647700Y105410D03*
D29*
X405448Y106045D03*
D20*
X425450Y106045D03*
D31*
X450850Y106045D03*
D51*
X501333Y106045D03*
D53*
X525463Y106045D03*
D28*
X548640Y106045D03*
D56*
X575628Y106045D03*
D39*
X602298Y106045D03*
D15*
X647700Y106045D03*
D29*
X405448Y106680D03*
D33*
X425133Y106680D03*
D37*
X449898Y106680D03*
D48*
X479425Y106680D03*
D41*
X501650Y106680D03*
D17*
X525145Y106680D03*
D28*
X548640Y106680D03*
D56*
X575628Y106680D03*
D28*
X601980Y106680D03*
D48*
X631825Y106680D03*
D15*
X647700Y106680D03*
D35*
X405130Y107315D03*
D33*
X424498Y107315D03*
D28*
X449580Y107315D03*
D45*
X479108Y107315D03*
D41*
X501650Y107315D03*
D52*
X524828Y107315D03*
D37*
X548323Y107315D03*
D54*
X575310Y107315D03*
D37*
X602298Y107315D03*
D45*
X631508Y107315D03*
D56*
X647383Y107315D03*
D33*
X404813Y107950D03*
X424498Y107950D03*
D39*
X449263Y107950D03*
D60*
X478790Y107950D03*
D18*
X501333Y107950D03*
D25*
X524510Y107950D03*
D31*
X548005Y107950D03*
D54*
X575310Y107950D03*
D39*
X601663Y107950D03*
D45*
X630873Y107950D03*
D56*
X647383Y107950D03*
D33*
X404813Y108585D03*
X423863Y108585D03*
D39*
X448628Y108585D03*
D60*
X478155Y108585D03*
D18*
X501333Y108585D03*
D30*
X524828Y108585D03*
D31*
X547370Y108585D03*
D56*
X574993Y108585D03*
D34*
X601345Y108585D03*
D40*
X630238Y108585D03*
D56*
X647383Y108585D03*
D20*
X404495Y109220D03*
D35*
X423545Y109220D03*
D34*
X448310Y109220D03*
D40*
X477838Y109220D03*
D18*
X501333Y109220D03*
D36*
X524510Y109220D03*
D26*
X547053Y109220D03*
D56*
X574993Y109220D03*
D34*
X600710Y109220D03*
D36*
X629920Y109220D03*
D54*
X647065Y109220D03*
D20*
X404495Y109855D03*
D35*
X423545Y109855D03*
D24*
X447993Y109855D03*
D36*
X477520Y109855D03*
D38*
X501015Y109855D03*
D40*
X524193Y109855D03*
D26*
X547053Y109855D03*
D15*
X574675Y109855D03*
D34*
X600710Y109855D03*
D36*
X629285Y109855D03*
D54*
X647065Y109855D03*
D20*
X404495Y110490D03*
D33*
X423228Y110490D03*
D34*
X447675Y110490D03*
D35*
X473075Y110490D03*
D38*
X501015Y110490D03*
D60*
X523875Y110490D03*
D21*
X546735Y110490D03*
D15*
X574675Y110490D03*
D24*
X600393Y110490D03*
D29*
X625158Y110490D03*
D50*
X646748Y110490D03*
D42*
X404178Y111125D03*
D35*
X422910Y111125D03*
D34*
X447675Y111125D03*
D29*
X472758Y111125D03*
D57*
X501333Y111125D03*
D60*
X523875Y111125D03*
D51*
X546418Y111125D03*
D23*
X574358Y111125D03*
D24*
X599758Y111125D03*
D29*
X624523Y111125D03*
D50*
X646748Y111125D03*
D42*
X404178Y111760D03*
D35*
X422910Y111760D03*
D39*
X447358Y111760D03*
D29*
X472758Y111760D03*
D13*
X501015Y111760D03*
D45*
X523558Y111760D03*
D41*
X546100Y111760D03*
D55*
X574040Y111760D03*
D24*
X599758Y111760D03*
D29*
X624523Y111760D03*
D50*
X646748Y111760D03*
D42*
X404178Y112395D03*
D33*
X422593Y112395D03*
D39*
X447358Y112395D03*
D29*
X472123Y112395D03*
D13*
X501015Y112395D03*
D18*
X545783Y112395D03*
D33*
X573723Y112395D03*
D34*
X599440Y112395D03*
D29*
X624523Y112395D03*
D49*
X646430Y112395D03*
D42*
X404178Y113030D03*
D20*
X422910Y113030D03*
D39*
X447358Y113030D03*
D29*
X472123Y113030D03*
D32*
X500698Y113030D03*
D18*
X545783Y113030D03*
D42*
X573723Y113030D03*
D39*
X599123Y113030D03*
D35*
X624205Y113030D03*
D49*
X646430Y113030D03*
D44*
X403860Y113665D03*
X422910Y113665D03*
D28*
X447040Y113665D03*
D33*
X472123Y113665D03*
D32*
X500698Y113665D03*
D38*
X545465Y113665D03*
D53*
X573723Y113665D03*
D39*
X599123Y113665D03*
D33*
X624523Y113665D03*
D49*
X646430Y113665D03*
D44*
X403860Y114300D03*
D28*
X447040Y114300D03*
D32*
X500698Y114300D03*
D13*
X545465Y114300D03*
D28*
X598805Y114300D03*
D61*
X646113Y114300D03*
D44*
X403860Y114935D03*
D28*
X447040Y114935D03*
D62*
X500698Y114935D03*
D32*
X545148Y114935D03*
D37*
X598488Y114935D03*
D61*
X646113Y114935D03*
D42*
X404178Y115570D03*
D37*
X446723Y115570D03*
D62*
X500698Y115570D03*
D32*
X545148Y115570D03*
D31*
X598170Y115570D03*
D61*
X646113Y115570D03*
D42*
X404178Y116205D03*
D37*
X446723Y116205D03*
D62*
X500698Y116205D03*
X545148Y116205D03*
D26*
X597853Y116205D03*
D46*
X645795Y116205D03*
D42*
X404178Y116840D03*
D31*
X447040Y116840D03*
D63*
X500380Y116840D03*
D27*
X545148Y116840D03*
D41*
X597535Y116840D03*
D46*
X645795Y116840D03*
D42*
X404178Y117475D03*
D26*
X446723Y117475D03*
D27*
X500698Y117475D03*
D64*
X545148Y117475D03*
D18*
X597218Y117475D03*
D43*
X645478Y117475D03*
D20*
X404495Y118110D03*
D21*
X447040Y118110D03*
D27*
X500698Y118110D03*
D65*
X545148Y118110D03*
D13*
X596900Y118110D03*
D43*
X645478Y118110D03*
D33*
X404813Y118745D03*
D41*
X447040Y118745D03*
D66*
X500380Y118745D03*
D67*
X545465Y118745D03*
D58*
X596265Y118745D03*
D43*
X645478Y118745D03*
D29*
X405448Y119380D03*
D18*
X447358Y119380D03*
D64*
X500698Y119380D03*
D68*
X546418Y119380D03*
D66*
X596265Y119380D03*
D14*
X645160Y119380D03*
D12*
X527050Y120015D03*
X527050Y120650D03*
X527050Y121285D03*
X527050Y121920D03*
X527050Y122555D03*
X527050Y123190D03*
X527050Y123825D03*
X527050Y124460D03*
X527050Y125095D03*
X527050Y125730D03*
X527050Y126365D03*
D11*
X526733Y127000D03*
D12*
X527050Y127635D03*
D10*
X526733Y128270D03*
D46*
X443230Y133350D03*
D43*
X443548Y133985D03*
D14*
X443865Y134620D03*
D43*
X444183Y135255D03*
X444818Y135890D03*
D48*
X461010Y135890D03*
D47*
X518795Y135890D03*
D48*
X558800Y135890D03*
X582930Y135890D03*
X626745Y135890D03*
D69*
X452755Y136525D03*
D70*
X537210Y136525D03*
D71*
X603885Y136525D03*
D67*
X454660Y137160D03*
D70*
X536575Y137160D03*
D72*
X602615Y137160D03*
D19*
X455930Y137795D03*
D73*
X535940Y137795D03*
D72*
X601980Y137795D03*
D68*
X456883Y138430D03*
D74*
X535623Y138430D03*
D75*
X601663Y138430D03*
D76*
X457518Y139065D03*
D74*
X534988Y139065D03*
D77*
X600710Y139065D03*
D78*
X458470Y139700D03*
D71*
X534670Y139700D03*
D77*
X600075Y139700D03*
D79*
X459105Y140335D03*
D80*
X534353Y140335D03*
D81*
X599758Y140335D03*
D79*
X459740Y140970D03*
D80*
X533718Y140970D03*
D77*
X599440Y140970D03*
D82*
X460058Y141605D03*
D72*
X533400Y141605D03*
D77*
X598805Y141605D03*
D83*
X460375Y142240D03*
D72*
X532765Y142240D03*
D77*
X598170Y142240D03*
D84*
X460058Y142875D03*
D72*
X532765Y142875D03*
D77*
X598170Y142875D03*
D74*
X460058Y143510D03*
D75*
X532448Y143510D03*
D77*
X597535Y143510D03*
D80*
X460058Y144145D03*
D75*
X531813Y144145D03*
D77*
X596900Y144145D03*
D72*
X459740Y144780D03*
D77*
X531495Y144780D03*
D75*
X596583Y144780D03*
D77*
X459740Y145415D03*
X531495Y145415D03*
D75*
X595948Y145415D03*
D81*
X459423Y146050D03*
D77*
X530860Y146050D03*
D75*
X595948Y146050D03*
D85*
X459740Y146685D03*
D81*
X530543Y146685D03*
D72*
X595630Y146685D03*
D86*
X459423Y147320D03*
D81*
X530543Y147320D03*
D72*
X594995Y147320D03*
D13*
X447040Y147955D03*
D37*
X474028Y147955D03*
D52*
X519113Y147955D03*
D46*
X546735Y147955D03*
X579120Y147955D03*
D32*
X446723Y148590D03*
D39*
X475298Y148590D03*
D46*
X546735Y148590D03*
D61*
X578803Y148590D03*
D58*
X446405Y149225D03*
D34*
X475615Y149225D03*
D61*
X546418Y149225D03*
X578803Y149225D03*
D58*
X446405Y149860D03*
D24*
X475933Y149860D03*
D46*
X546100Y149860D03*
D49*
X578485Y149860D03*
D63*
X446405Y150495D03*
D16*
X476250Y150495D03*
D46*
X546100Y150495D03*
D49*
X578485Y150495D03*
D27*
X446088Y151130D03*
D22*
X476568Y151130D03*
D61*
X545783Y151130D03*
D49*
X578485Y151130D03*
D66*
X446405Y151765D03*
D14*
X476885Y151765D03*
D46*
X545465Y151765D03*
D61*
X578803Y151765D03*
D64*
X446088Y152400D03*
D14*
X477520Y152400D03*
D46*
X545465Y152400D03*
D61*
X578803Y152400D03*
D65*
X446088Y153035D03*
D14*
X477520Y153035D03*
D40*
X520383Y153035D03*
D46*
X544830Y153035D03*
D61*
X578803Y153035D03*
D65*
X446088Y153670D03*
D43*
X477838Y153670D03*
D87*
X535940Y153670D03*
D88*
X588963Y153670D03*
D89*
X446088Y154305D03*
D43*
X477838Y154305D03*
D89*
X535623Y154305D03*
D19*
X589915Y154305D03*
D89*
X446088Y154940D03*
D46*
X477520Y154940D03*
D89*
X534988Y154940D03*
D90*
X590550Y154940D03*
D46*
X436245Y155575D03*
D22*
X454978Y155575D03*
D61*
X477838Y155575D03*
D67*
X534670Y155575D03*
D78*
X591185Y155575D03*
D46*
X436245Y156210D03*
D22*
X454978Y156210D03*
D61*
X477838Y156210D03*
D67*
X534035Y156210D03*
D78*
X591820Y156210D03*
D61*
X435928Y156845D03*
D14*
X455295Y156845D03*
D61*
X477838Y156845D03*
D88*
X533718Y156845D03*
D91*
X592138Y156845D03*
D61*
X435293Y157480D03*
D22*
X455613Y157480D03*
D61*
X477838Y157480D03*
D92*
X533400Y157480D03*
D79*
X592455Y157480D03*
D61*
X435293Y158115D03*
D14*
X455930Y158115D03*
D61*
X477838Y158115D03*
D16*
X523875Y158115D03*
D61*
X543243Y158115D03*
D79*
X593090Y158115D03*
D61*
X435293Y158750D03*
X477838Y158750D03*
D24*
X522923Y158750D03*
D46*
X542925Y158750D03*
D79*
X593090Y158750D03*
D61*
X434658Y159385D03*
X477838Y159385D03*
D24*
X522288Y159385D03*
D46*
X542925Y159385D03*
D79*
X593725Y159385D03*
D61*
X434658Y160020D03*
X477203Y160020D03*
D24*
X521653Y160020D03*
D61*
X542608Y160020D03*
D82*
X594043Y160020D03*
D61*
X434658Y160655D03*
X477203Y160655D03*
D24*
X521018Y160655D03*
D46*
X542290Y160655D03*
D79*
X594360Y160655D03*
D61*
X434658Y161290D03*
D46*
X476885Y161290D03*
D24*
X520383Y161290D03*
D46*
X542290Y161290D03*
D79*
X594995Y161290D03*
D61*
X434658Y161925D03*
X476568Y161925D03*
D24*
X519748Y161925D03*
D46*
X541655Y161925D03*
D79*
X594995Y161925D03*
D46*
X434340Y162560D03*
D61*
X476568Y162560D03*
D24*
X519113Y162560D03*
D46*
X541655Y162560D03*
D91*
X595313Y162560D03*
D46*
X434340Y163195D03*
X476250Y163195D03*
D24*
X518478Y163195D03*
D61*
X541338Y163195D03*
D91*
X595948Y163195D03*
D46*
X434340Y163830D03*
X475615Y163830D03*
D24*
X517843Y163830D03*
D46*
X541020Y163830D03*
D76*
X596583Y163830D03*
D46*
X434340Y164465D03*
X475615Y164465D03*
D24*
X517208Y164465D03*
D46*
X541020Y164465D03*
D68*
X597218Y164465D03*
D46*
X434340Y165100D03*
D43*
X475298Y165100D03*
D24*
X516573Y165100D03*
D61*
X540703Y165100D03*
D22*
X607378Y165100D03*
D43*
X434658Y165735D03*
X474663Y165735D03*
D46*
X540385Y165735D03*
D43*
X608013Y165735D03*
X434658Y166370D03*
D14*
X474345Y166370D03*
D46*
X540385Y166370D03*
X608330Y166370D03*
D14*
X434975Y167005D03*
X473710Y167005D03*
D61*
X540068Y167005D03*
X608648Y167005D03*
D14*
X434975Y167640D03*
X473075Y167640D03*
D46*
X539750Y167640D03*
D61*
X608648Y167640D03*
D22*
X435293Y168275D03*
D16*
X472440Y168275D03*
D46*
X539750Y168275D03*
D61*
X608648Y168275D03*
D16*
X435610Y168910D03*
X471805Y168910D03*
D46*
X539115Y168910D03*
X608330Y168910D03*
D24*
X435928Y169545D03*
D34*
X471170Y169545D03*
D46*
X539115Y169545D03*
X608330Y169545D03*
D34*
X436880Y170180D03*
D39*
X470218Y170180D03*
D61*
X538798Y170180D03*
D43*
X608013Y170180D03*
D31*
X438150Y170815D03*
D37*
X468948Y170815D03*
D52*
X519113Y170815D03*
D46*
X538480Y170815D03*
D71*
X592455Y170815D03*
D93*
X453073Y171450D03*
D84*
X524193Y171450D03*
D80*
X592138Y171450D03*
D94*
X453390Y172085D03*
D84*
X523558Y172085D03*
D80*
X591503Y172085D03*
D86*
X453073Y172720D03*
D73*
X523240Y172720D03*
D72*
X591185Y172720D03*
D81*
X453073Y173355D03*
D74*
X522923Y173355D03*
D72*
X590550Y173355D03*
D77*
X452755Y173990D03*
D74*
X522288Y173990D03*
D75*
X590233Y173990D03*
D72*
X452755Y174625D03*
D71*
X521970Y174625D03*
D75*
X589598Y174625D03*
D80*
X452438Y175260D03*
X521653Y175260D03*
D77*
X589280Y175260D03*
D74*
X452438Y175895D03*
D71*
X521335Y175895D03*
D77*
X588645Y175895D03*
D70*
X452120Y176530D03*
D80*
X521018Y176530D03*
D77*
X588010Y176530D03*
D83*
X452120Y177165D03*
D80*
X520383Y177165D03*
D81*
X587693Y177165D03*
D79*
X452120Y177800D03*
D72*
X520065Y177800D03*
D77*
X587375Y177800D03*
D76*
X451803Y178435D03*
D75*
X519748Y178435D03*
D77*
X586740Y178435D03*
D19*
X452120Y179070D03*
D72*
X519430Y179070D03*
D77*
X586105Y179070D03*
D88*
X451803Y179705D03*
D75*
X519113Y179705D03*
D77*
X585470Y179705D03*
D65*
X451803Y180340D03*
D77*
X518795Y180340D03*
D72*
X584835Y180340D03*
D27*
X451803Y180975D03*
D75*
X518478Y180975D03*
D72*
X584200Y180975D03*
D57*
X451803Y181610D03*
D77*
X518160Y181610D03*
D80*
X583248Y181610D03*
D31*
X452120Y182245D03*
D81*
X517843Y182245D03*
D71*
X582295Y182245D03*
D46*
X452755Y182880D03*
D77*
X517525Y182880D03*
D73*
X581660Y182880D03*
D45*
X528638Y201930D03*
D40*
X528638Y202565D03*
D30*
X528638Y203200D03*
D25*
X528320Y203835D03*
D17*
X528320Y204470D03*
D53*
X528638Y205105D03*
D59*
X528638Y205740D03*
D42*
X528638Y206375D03*
D25*
X525780Y207010D03*
X531495Y207010D03*
X525145Y207645D03*
D30*
X531813Y207645D03*
X524828Y208280D03*
D25*
X532130Y208280D03*
D30*
X524193Y208915D03*
D25*
X532765Y208915D03*
X523875Y209550D03*
X533400Y209550D03*
X523240Y210185D03*
X534035Y210185D03*
X522605Y210820D03*
X534670Y210820D03*
X521970Y211455D03*
X534670Y211455D03*
X521335Y212090D03*
X535305Y212090D03*
D52*
X521018Y212725D03*
D45*
X528638Y212725D03*
D25*
X535940Y212725D03*
X520700Y213360D03*
D40*
X528638Y213360D03*
D25*
X536575Y213360D03*
X520065Y213995D03*
D36*
X528320Y213995D03*
D25*
X537210Y213995D03*
X519430Y214630D03*
X528320Y214630D03*
D52*
X537528Y214630D03*
D25*
X518795Y215265D03*
D52*
X528638Y215265D03*
D25*
X537845Y215265D03*
D52*
X518478Y215900D03*
D53*
X528638Y215900D03*
D25*
X538480Y215900D03*
X518160Y216535D03*
D59*
X528638Y216535D03*
D25*
X539115Y216535D03*
X517525Y217170D03*
D44*
X528320Y217170D03*
D25*
X539750Y217170D03*
X516890Y217805D03*
D20*
X528320Y217805D03*
D52*
X540068Y217805D03*
D25*
X516255Y218440D03*
D29*
X528638Y218440D03*
D25*
X540385Y218440D03*
X515620Y219075D03*
D29*
X528638Y219075D03*
D25*
X541020Y219075D03*
X514985Y219710D03*
D23*
X528638Y219710D03*
D25*
X541655Y219710D03*
D52*
X514668Y220345D03*
D15*
X528320Y220345D03*
D25*
X542290Y220345D03*
X514350Y220980D03*
D54*
X528320Y220980D03*
D25*
X542925Y220980D03*
X513715Y221615D03*
D49*
X528320Y221615D03*
D30*
X543243Y221615D03*
D25*
X513080Y222250D03*
D43*
X528638Y222250D03*
D25*
X543560Y222250D03*
X512445Y222885D03*
D14*
X528320Y222885D03*
D25*
X544195Y222885D03*
X511810Y223520D03*
D22*
X528638Y223520D03*
D25*
X544830Y223520D03*
D52*
X511493Y224155D03*
D24*
X528638Y224155D03*
D25*
X545465Y224155D03*
X511175Y224790D03*
D34*
X528320Y224790D03*
D30*
X545783Y224790D03*
D25*
X510540Y225425D03*
D28*
X528320Y225425D03*
D25*
X546735Y225425D03*
X509905Y226060D03*
D31*
X528320Y226060D03*
D25*
X546735Y226060D03*
X509270Y226695D03*
D26*
X528638Y226695D03*
D25*
X547370Y226695D03*
X508635Y227330D03*
D51*
X528638Y227330D03*
D25*
X548005Y227330D03*
D30*
X508318Y227965D03*
D18*
X528638Y227965D03*
D30*
X548323Y227965D03*
D25*
X508000Y228600D03*
D57*
X528638Y228600D03*
D25*
X549275Y228600D03*
X507365Y229235D03*
D13*
X528320Y229235D03*
D25*
X549275Y229235D03*
X506730Y229870D03*
D58*
X528320Y229870D03*
D25*
X549910Y229870D03*
X506095Y230505D03*
D63*
X528320Y230505D03*
D25*
X550545Y230505D03*
X505460Y231140D03*
D50*
X520383Y231140D03*
D49*
X536575Y231140D03*
D25*
X551180Y231140D03*
D52*
X505143Y231775D03*
D50*
X519748Y231775D03*
D49*
X537210Y231775D03*
D52*
X551498Y231775D03*
X504508Y232410D03*
D50*
X519113Y232410D03*
X537528Y232410D03*
D25*
X551815Y232410D03*
X504190Y233045D03*
D50*
X518478Y233045D03*
X538163Y233045D03*
D25*
X552450Y233045D03*
X503555Y233680D03*
D50*
X517843Y233680D03*
X538798Y233680D03*
D25*
X553085Y233680D03*
X502920Y234315D03*
D50*
X517208Y234315D03*
D49*
X539115Y234315D03*
D25*
X553720Y234315D03*
D52*
X502603Y234950D03*
D50*
X517208Y234950D03*
X540068Y234950D03*
D52*
X554038Y234950D03*
X501968Y235585D03*
D50*
X516573Y235585D03*
D49*
X540385Y235585D03*
D25*
X554355Y235585D03*
X501650Y236220D03*
D50*
X515938Y236220D03*
X540703Y236220D03*
D25*
X554990Y236220D03*
X501015Y236855D03*
D50*
X515303Y236855D03*
X541338Y236855D03*
D25*
X555625Y236855D03*
X500380Y237490D03*
D50*
X514668Y237490D03*
X541973Y237490D03*
D25*
X556260Y237490D03*
X499745Y238125D03*
D54*
X514350Y238125D03*
D50*
X542608Y238125D03*
D52*
X556578Y238125D03*
X499428Y238760D03*
D54*
X513715Y238760D03*
D49*
X542925Y238760D03*
D52*
X557213Y238760D03*
D25*
X499110Y239395D03*
D50*
X513398Y239395D03*
X543243Y239395D03*
D52*
X557848Y239395D03*
D25*
X498475Y240030D03*
D50*
X512763Y240030D03*
X543878Y240030D03*
D25*
X558165Y240030D03*
X497840Y240665D03*
D50*
X512128Y240665D03*
X544513Y240665D03*
D25*
X558800Y240665D03*
X497205Y241300D03*
D50*
X511493Y241300D03*
X545148Y241300D03*
D25*
X559435Y241300D03*
X496570Y241935D03*
D50*
X510858Y241935D03*
D49*
X545465Y241935D03*
D25*
X560070Y241935D03*
X495935Y242570D03*
D50*
X510858Y242570D03*
D49*
X546100Y242570D03*
D52*
X560388Y242570D03*
D30*
X495618Y243205D03*
D50*
X510223Y243205D03*
D49*
X546735Y243205D03*
D52*
X561023Y243205D03*
X494983Y243840D03*
D50*
X509588Y243840D03*
X547053Y243840D03*
D25*
X561340Y243840D03*
X494665Y244475D03*
D50*
X508953Y244475D03*
X547688Y244475D03*
D25*
X561975Y244475D03*
X494030Y245110D03*
D50*
X508318Y245110D03*
D49*
X548005Y245110D03*
D25*
X562610Y245110D03*
X493395Y245745D03*
D50*
X507683Y245745D03*
D49*
X548640Y245745D03*
D25*
X563245Y245745D03*
X492760Y246380D03*
D50*
X507683Y246380D03*
D49*
X549275Y246380D03*
D52*
X563563Y246380D03*
X492443Y247015D03*
D50*
X507048Y247015D03*
X549593Y247015D03*
D25*
X563880Y247015D03*
X492125Y247650D03*
D50*
X506413Y247650D03*
X550228Y247650D03*
D25*
X564515Y247650D03*
X491490Y248285D03*
D50*
X505778Y248285D03*
X550863Y248285D03*
D25*
X565150Y248285D03*
X490855Y248920D03*
D50*
X505143Y248920D03*
X551498Y248920D03*
D25*
X565785Y248920D03*
X490220Y249555D03*
D49*
X504825Y249555D03*
X551815Y249555D03*
D52*
X566103Y249555D03*
D25*
X489585Y250190D03*
D50*
X503873Y250190D03*
X552133Y250190D03*
D25*
X566420Y250190D03*
X488950Y250825D03*
D50*
X503873Y250825D03*
X552768Y250825D03*
D25*
X567055Y250825D03*
D30*
X488633Y251460D03*
D50*
X503238Y251460D03*
X553403Y251460D03*
D25*
X567690Y251460D03*
D52*
X487998Y252095D03*
D50*
X502603Y252095D03*
X554038Y252095D03*
D25*
X568325Y252095D03*
X487680Y252730D03*
D50*
X501968Y252730D03*
D49*
X554355Y252730D03*
D25*
X568960Y252730D03*
X487045Y253365D03*
D50*
X501333Y253365D03*
X554673Y253365D03*
D30*
X569278Y253365D03*
D25*
X486410Y254000D03*
D50*
X500698Y254000D03*
X555308Y254000D03*
D52*
X569913Y254000D03*
D30*
X486093Y254635D03*
D50*
X500698Y254635D03*
X555943Y254635D03*
D25*
X570230Y254635D03*
X485140Y255270D03*
D50*
X500063Y255270D03*
X556578Y255270D03*
D25*
X570865Y255270D03*
X485140Y255905D03*
D50*
X499428Y255905D03*
X557213Y255905D03*
D25*
X571500Y255905D03*
X484505Y256540D03*
D50*
X498793Y256540D03*
D49*
X557530Y256540D03*
D30*
X571818Y256540D03*
D25*
X483870Y257175D03*
D50*
X498158Y257175D03*
D49*
X558165Y257175D03*
D52*
X572453Y257175D03*
D25*
X483235Y257810D03*
D50*
X498158Y257810D03*
X558483Y257810D03*
D25*
X572770Y257810D03*
X482600Y258445D03*
D54*
X497205Y258445D03*
D50*
X559118Y258445D03*
D25*
X573405Y258445D03*
D52*
X482283Y259080D03*
D50*
X496888Y259080D03*
X559753Y259080D03*
D25*
X574040Y259080D03*
X481965Y259715D03*
D50*
X496253Y259715D03*
D49*
X560070Y259715D03*
D25*
X574675Y259715D03*
X481330Y260350D03*
D50*
X495618Y260350D03*
D44*
X526415Y260350D03*
D49*
X560705Y260350D03*
D52*
X574993Y260350D03*
D25*
X480695Y260985D03*
D54*
X495300Y260985D03*
X526415Y260985D03*
D50*
X561023Y260985D03*
D25*
X575310Y260985D03*
X480060Y261620D03*
D54*
X494665Y261620D03*
D14*
X526415Y261620D03*
D50*
X561658Y261620D03*
D25*
X575945Y261620D03*
X479425Y262255D03*
D50*
X494348Y262255D03*
D39*
X526733Y262255D03*
D50*
X562293Y262255D03*
D25*
X576580Y262255D03*
D30*
X479108Y262890D03*
D50*
X493713Y262890D03*
D26*
X526733Y262890D03*
D49*
X562610Y262890D03*
D25*
X577215Y262890D03*
X478790Y263525D03*
D50*
X493078Y263525D03*
D41*
X526415Y263525D03*
D49*
X563245Y263525D03*
D25*
X577850Y263525D03*
X478155Y264160D03*
D50*
X492443Y264160D03*
D13*
X526415Y264160D03*
D49*
X563880Y264160D03*
D30*
X578168Y264160D03*
D25*
X477520Y264795D03*
D50*
X491808Y264795D03*
D62*
X526733Y264795D03*
D50*
X564198Y264795D03*
D25*
X578485Y264795D03*
X476885Y265430D03*
D50*
X491173Y265430D03*
D66*
X526415Y265430D03*
D50*
X564833Y265430D03*
D25*
X579120Y265430D03*
X476250Y266065D03*
D50*
X491173Y266065D03*
D69*
X526415Y266065D03*
D50*
X565468Y266065D03*
D25*
X579755Y266065D03*
D52*
X475933Y266700D03*
D50*
X490538Y266700D03*
D87*
X526415Y266700D03*
D50*
X566103Y266700D03*
D25*
X580390Y266700D03*
X475615Y267335D03*
D50*
X489903Y267335D03*
D67*
X526415Y267335D03*
D49*
X566420Y267335D03*
D30*
X580708Y267335D03*
D25*
X474980Y267970D03*
D50*
X489268Y267970D03*
D92*
X526415Y267970D03*
D50*
X566738Y267970D03*
D25*
X581025Y267970D03*
X474345Y268605D03*
D50*
X488633Y268605D03*
D19*
X526415Y268605D03*
D50*
X567373Y268605D03*
D52*
X581978Y268605D03*
D25*
X473710Y269240D03*
D49*
X488315Y269240D03*
D90*
X526415Y269240D03*
D50*
X568008Y269240D03*
D25*
X582295Y269240D03*
X473075Y269875D03*
D50*
X487998Y269875D03*
D78*
X526415Y269875D03*
D50*
X568643Y269875D03*
D25*
X582930Y269875D03*
D52*
X472758Y270510D03*
D50*
X487363Y270510D03*
D91*
X526733Y270510D03*
D49*
X568960Y270510D03*
D25*
X583565Y270510D03*
X472440Y271145D03*
D50*
X486728Y271145D03*
D82*
X526733Y271145D03*
D50*
X569278Y271145D03*
D52*
X583883Y271145D03*
D25*
X471805Y271780D03*
D50*
X486093Y271780D03*
D24*
X514668Y271780D03*
D16*
X538480Y271780D03*
D50*
X569913Y271780D03*
D25*
X584200Y271780D03*
X471170Y272415D03*
D50*
X485458Y272415D03*
D14*
X513080Y272415D03*
D43*
X540068Y272415D03*
D50*
X570548Y272415D03*
D25*
X584835Y272415D03*
X470535Y273050D03*
D50*
X484823Y273050D03*
D46*
X512445Y273050D03*
X541020Y273050D03*
D50*
X571183Y273050D03*
D25*
X585470Y273050D03*
X469900Y273685D03*
D50*
X484188Y273685D03*
D46*
X511810Y273685D03*
D61*
X541338Y273685D03*
D49*
X571500Y273685D03*
D25*
X586105Y273685D03*
X469265Y274320D03*
D50*
X484188Y274320D03*
D61*
X511493Y274320D03*
X541973Y274320D03*
D49*
X572135Y274320D03*
D52*
X586423Y274320D03*
X468948Y274955D03*
D50*
X483553Y274955D03*
D61*
X510858Y274955D03*
D49*
X542290Y274955D03*
D50*
X572453Y274955D03*
D25*
X586740Y274955D03*
D52*
X468313Y275590D03*
D50*
X482918Y275590D03*
D49*
X510540Y275590D03*
X542925Y275590D03*
D50*
X573088Y275590D03*
D25*
X587375Y275590D03*
X467995Y276225D03*
D50*
X482283Y276225D03*
D49*
X509905Y276225D03*
X542925Y276225D03*
D50*
X573723Y276225D03*
D25*
X588010Y276225D03*
D48*
X438150Y276860D03*
D36*
X467995Y276860D03*
D50*
X481648Y276860D03*
D49*
X509905Y276860D03*
X543560Y276860D03*
X574040Y276860D03*
D25*
X588645Y276860D03*
D22*
X439103Y277495D03*
D49*
X481330Y277495D03*
X509270Y277495D03*
D50*
X543878Y277495D03*
D49*
X574675Y277495D03*
D25*
X589280Y277495D03*
D38*
X440690Y278130D03*
D54*
X481330Y278130D03*
D49*
X509270Y278130D03*
X544195Y278130D03*
D50*
X574993Y278130D03*
D52*
X589598Y278130D03*
D64*
X442278Y278765D03*
D33*
X482918Y278765D03*
D50*
X508953Y278765D03*
X544513Y278765D03*
X575628Y278765D03*
D25*
X589915Y278765D03*
D19*
X444500Y279400D03*
D17*
X484505Y279400D03*
D49*
X508635Y279400D03*
D50*
X544513Y279400D03*
X576263Y279400D03*
D25*
X590550Y279400D03*
D83*
X445770Y280035D03*
D60*
X485775Y280035D03*
D50*
X508318Y280035D03*
D49*
X544830Y280035D03*
D50*
X576898Y280035D03*
D25*
X591185Y280035D03*
D72*
X447675Y280670D03*
D50*
X508318Y280670D03*
X545148Y280670D03*
X577533Y280670D03*
D25*
X591820Y280670D03*
D94*
X449580Y281305D03*
D49*
X508000Y281305D03*
D50*
X545148Y281305D03*
D49*
X577850Y281305D03*
D25*
X592455Y281305D03*
D95*
X451485Y281940D03*
D50*
X507683Y281940D03*
D49*
X545465Y281940D03*
X578485Y281940D03*
D25*
X593090Y281940D03*
D96*
X452755Y282575D03*
D50*
X507683Y282575D03*
X545783Y282575D03*
X578803Y282575D03*
D25*
X593090Y282575D03*
D97*
X454660Y283210D03*
D54*
X508000Y283210D03*
D50*
X545783Y283210D03*
X579438Y283210D03*
D25*
X593725Y283210D03*
D98*
X456248Y283845D03*
D29*
X509588Y283845D03*
D50*
X545783Y283845D03*
X580073Y283845D03*
D25*
X594360Y283845D03*
D99*
X458153Y284480D03*
D42*
X510858Y284480D03*
D49*
X546100Y284480D03*
X580390Y284480D03*
D25*
X594995Y284480D03*
D100*
X459423Y285115D03*
D52*
X512128Y285115D03*
D49*
X546100Y285115D03*
X581025Y285115D03*
D25*
X595630Y285115D03*
D101*
X461328Y285750D03*
D60*
X513715Y285750D03*
D50*
X546418Y285750D03*
X581343Y285750D03*
D25*
X595630Y285750D03*
D102*
X462915Y286385D03*
D50*
X546418Y286385D03*
X581978Y286385D03*
D25*
X596265Y286385D03*
D103*
X464820Y287020D03*
D50*
X546418Y287020D03*
X582613Y287020D03*
D25*
X596900Y287020D03*
D104*
X466725Y287655D03*
D50*
X546418Y287655D03*
D49*
X582930Y287655D03*
D25*
X597535Y287655D03*
D54*
X433070Y288290D03*
D105*
X475615Y288290D03*
D49*
X546735Y288290D03*
D50*
X583883Y288290D03*
D52*
X597853Y288290D03*
D33*
X431483Y288925D03*
D106*
X480060Y288925D03*
D49*
X546735Y288925D03*
D54*
X584835Y288925D03*
D25*
X598170Y288925D03*
D20*
X431800Y289560D03*
D107*
X483870Y289560D03*
D49*
X546735Y289560D03*
D15*
X585470Y289560D03*
D25*
X598805Y289560D03*
D20*
X432435Y290195D03*
D108*
X487045Y290195D03*
D49*
X546735Y290195D03*
D55*
X586740Y290195D03*
D25*
X599440Y290195D03*
D33*
X433388Y290830D03*
D109*
X489903Y290830D03*
D50*
X547053Y290830D03*
D29*
X587693Y290830D03*
D25*
X600075Y290830D03*
D33*
X434023Y291465D03*
D110*
X493078Y291465D03*
D50*
X547053Y291465D03*
D45*
X574993Y291465D03*
D33*
X588963Y291465D03*
D52*
X600393Y291465D03*
D35*
X434975Y292100D03*
D110*
X496253Y292100D03*
D50*
X547053Y292100D03*
D36*
X575310Y292100D03*
D20*
X589915Y292100D03*
D52*
X601028Y292100D03*
D29*
X435928Y292735D03*
D97*
X499110Y292735D03*
D55*
X548640Y292735D03*
D25*
X575945Y292735D03*
D59*
X590868Y292735D03*
D25*
X601345Y292735D03*
D29*
X437198Y293370D03*
D25*
X453390Y293370D03*
D97*
X501650Y293370D03*
D20*
X549910Y293370D03*
D53*
X576898Y293370D03*
X592138Y293370D03*
D25*
X601980Y293370D03*
D29*
X437833Y294005D03*
D25*
X453390Y294005D03*
D111*
X504508Y294005D03*
D59*
X551498Y294005D03*
X577533Y294005D03*
D17*
X593090Y294005D03*
D25*
X602615Y294005D03*
D23*
X439103Y294640D03*
D52*
X452438Y294640D03*
D40*
X460693Y294640D03*
D112*
X507365Y294640D03*
D25*
X553085Y294640D03*
D20*
X578485Y294640D03*
D52*
X594043Y294640D03*
X602933Y294640D03*
D55*
X439420Y295275D03*
D25*
X452120Y295275D03*
D53*
X461963Y295275D03*
D111*
X510223Y295275D03*
D40*
X554038Y295275D03*
D29*
X579438Y295275D03*
D30*
X595313Y295275D03*
D52*
X603568Y295275D03*
D35*
X440055Y295910D03*
D25*
X451485Y295910D03*
D33*
X463233Y295910D03*
D112*
X513080Y295910D03*
D23*
X580073Y295910D03*
D36*
X595630Y295910D03*
D25*
X603885Y295910D03*
D20*
X440055Y296545D03*
D25*
X450850Y296545D03*
D15*
X464185Y296545D03*
D112*
X515620Y296545D03*
D54*
X581025Y296545D03*
D36*
X596265Y296545D03*
D25*
X604520Y296545D03*
D44*
X440055Y297180D03*
D25*
X450215Y297180D03*
D54*
X464820Y297180D03*
D113*
X518478Y297180D03*
D49*
X581660Y297180D03*
D36*
X596900Y297180D03*
D25*
X605155Y297180D03*
D59*
X440373Y297815D03*
D25*
X449580Y297815D03*
D50*
X464503Y297815D03*
D112*
X520700Y297815D03*
D43*
X582613Y297815D03*
D30*
X597218Y297815D03*
D25*
X605790Y297815D03*
D17*
X440690Y298450D03*
D52*
X449263Y298450D03*
D50*
X463868Y298450D03*
D112*
X523875Y298450D03*
D22*
X582613Y298450D03*
D25*
X597535Y298450D03*
X606425Y298450D03*
X440690Y299085D03*
X448945Y299085D03*
D50*
X463233Y299085D03*
D112*
X526415Y299085D03*
D16*
X582930Y299085D03*
D30*
X597853Y299085D03*
D52*
X606743Y299085D03*
D40*
X441008Y299720D03*
D25*
X448310Y299720D03*
D50*
X462598Y299720D03*
D112*
X528955Y299720D03*
D16*
X582930Y299720D03*
D25*
X598170Y299720D03*
D52*
X607378Y299720D03*
D45*
X441008Y300355D03*
D25*
X447675Y300355D03*
D50*
X461963Y300355D03*
D113*
X531813Y300355D03*
D16*
X582930Y300355D03*
D52*
X598488Y300355D03*
D25*
X607695Y300355D03*
X447040Y300990D03*
D49*
X461645Y300990D03*
D112*
X534035Y300990D03*
D24*
X583248Y300990D03*
D52*
X599123Y300990D03*
D25*
X608330Y300990D03*
D52*
X446723Y301625D03*
D49*
X461010Y301625D03*
D114*
X535623Y301625D03*
D60*
X569595Y301625D03*
D24*
X583248Y301625D03*
D17*
X599440Y301625D03*
D25*
X608965Y301625D03*
D52*
X446088Y302260D03*
D50*
X460693Y302260D03*
D115*
X536575Y302260D03*
D25*
X570230Y302260D03*
D24*
X583248Y302260D03*
D17*
X600075Y302260D03*
D25*
X609600Y302260D03*
X445770Y302895D03*
D50*
X460058Y302895D03*
D94*
X537845Y302895D03*
D41*
X581025Y302895D03*
D53*
X600393Y302895D03*
D52*
X609918Y302895D03*
D25*
X445135Y303530D03*
D50*
X459423Y303530D03*
D36*
X499745Y303530D03*
D77*
X539115Y303530D03*
D18*
X580708Y303530D03*
D47*
X600710Y303530D03*
D25*
X610235Y303530D03*
X444500Y304165D03*
D50*
X458788Y304165D03*
D52*
X500698Y304165D03*
D74*
X540068Y304165D03*
D38*
X581025Y304165D03*
D53*
X601028Y304165D03*
D25*
X610870Y304165D03*
X443865Y304800D03*
D50*
X458153Y304800D03*
D44*
X502285Y304800D03*
D116*
X541338Y304800D03*
D38*
X581025Y304800D03*
D47*
X601345Y304800D03*
D25*
X611505Y304800D03*
D52*
X443548Y305435D03*
D50*
X458153Y305435D03*
D35*
X503555Y305435D03*
D78*
X542290Y305435D03*
D57*
X580708Y305435D03*
D59*
X601663Y305435D03*
D25*
X612140Y305435D03*
X443230Y306070D03*
D50*
X457518Y306070D03*
D15*
X504825Y306070D03*
D19*
X543560Y306070D03*
D13*
X581025Y306070D03*
D59*
X602298Y306070D03*
D52*
X612458Y306070D03*
X442278Y306705D03*
D50*
X456883Y306705D03*
X505778Y306705D03*
D89*
X544513Y306705D03*
D32*
X580708Y306705D03*
D53*
X602933Y306705D03*
D25*
X612775Y306705D03*
X441960Y307340D03*
D50*
X456248Y307340D03*
D49*
X506095Y307340D03*
D64*
X545783Y307340D03*
D32*
X580708Y307340D03*
D52*
X604203Y307340D03*
D25*
X613410Y307340D03*
X441325Y307975D03*
D50*
X455613Y307975D03*
D49*
X506095Y307975D03*
D62*
X547053Y307975D03*
X580708Y307975D03*
D25*
X605155Y307975D03*
X614045Y307975D03*
X440690Y308610D03*
D50*
X454978Y308610D03*
D49*
X506095Y308610D03*
D38*
X548005Y308610D03*
D63*
X581025Y308610D03*
D36*
X606425Y308610D03*
D25*
X614680Y308610D03*
X440055Y309245D03*
D49*
X454660Y309245D03*
X506095Y309245D03*
D51*
X548958Y309245D03*
D64*
X581978Y309245D03*
D40*
X607378Y309245D03*
D52*
X614998Y309245D03*
X439738Y309880D03*
D49*
X454025Y309880D03*
X506095Y309880D03*
D39*
X550228Y309880D03*
D87*
X582295Y309880D03*
D48*
X608330Y309880D03*
D25*
X615315Y309880D03*
X439420Y310515D03*
D50*
X453708Y310515D03*
X506413Y310515D03*
D22*
X551498Y310515D03*
D88*
X583248Y310515D03*
D52*
X616268Y310515D03*
D25*
X438785Y311150D03*
D50*
X453073Y311150D03*
X506413Y311150D03*
D61*
X552133Y311150D03*
D19*
X583565Y311150D03*
D25*
X616585Y311150D03*
X438150Y311785D03*
D50*
X452438Y311785D03*
X506413Y311785D03*
D56*
X553403Y311785D03*
D76*
X584518Y311785D03*
D25*
X617220Y311785D03*
X437515Y312420D03*
D49*
X452120Y312420D03*
D50*
X506413Y312420D03*
D55*
X554355Y312420D03*
D79*
X585470Y312420D03*
D25*
X617855Y312420D03*
X436880Y313055D03*
D49*
X451485Y313055D03*
D50*
X506413Y313055D03*
D42*
X555308Y313055D03*
D116*
X585788Y313055D03*
D25*
X618490Y313055D03*
D52*
X436563Y313690D03*
D49*
X450850Y313690D03*
D50*
X506413Y313690D03*
D40*
X540068Y313690D03*
D53*
X556578Y313690D03*
D73*
X586740Y313690D03*
D52*
X618808Y313690D03*
D25*
X436245Y314325D03*
D50*
X450533Y314325D03*
X506413Y314325D03*
D52*
X541338Y314325D03*
D40*
X557848Y314325D03*
D80*
X587058Y314325D03*
D52*
X619443Y314325D03*
D25*
X435610Y314960D03*
D50*
X449898Y314960D03*
D49*
X506730Y314960D03*
D59*
X542608Y314960D03*
D75*
X587693Y314960D03*
D25*
X619760Y314960D03*
X434975Y315595D03*
D50*
X449263Y315595D03*
D49*
X506730Y315595D03*
D33*
X543878Y315595D03*
D81*
X587693Y315595D03*
D25*
X620395Y315595D03*
X434340Y316230D03*
D50*
X448628Y316230D03*
X507048Y316230D03*
D55*
X544830Y316230D03*
D81*
X587693Y316230D03*
D25*
X621030Y316230D03*
D52*
X434023Y316865D03*
D50*
X447993Y316865D03*
X507048Y316865D03*
X546418Y316865D03*
D85*
X588010Y316865D03*
D25*
X621665Y316865D03*
X433705Y317500D03*
D49*
X447675Y317500D03*
D50*
X507048Y317500D03*
X546418Y317500D03*
D85*
X588010Y317500D03*
D30*
X621983Y317500D03*
D52*
X432753Y318135D03*
D50*
X447358Y318135D03*
X507048Y318135D03*
D49*
X546100Y318135D03*
D81*
X588963Y318135D03*
D40*
X623253Y318135D03*
D25*
X432435Y318770D03*
D50*
X446723Y318770D03*
X507048Y318770D03*
D49*
X546100Y318770D03*
D77*
X589915Y318770D03*
D60*
X624205Y318770D03*
D25*
X431800Y319405D03*
D50*
X446088Y319405D03*
X507683Y319405D03*
X545783Y319405D03*
D77*
X591185Y319405D03*
D25*
X431165Y320040D03*
D50*
X445453Y320040D03*
X507683Y320040D03*
X545783Y320040D03*
D94*
X591820Y320040D03*
D25*
X430530Y320675D03*
D49*
X445135Y320675D03*
D50*
X507683Y320675D03*
X545783Y320675D03*
D117*
X592138Y320675D03*
D25*
X429895Y321310D03*
D49*
X444500Y321310D03*
D50*
X507683Y321310D03*
D49*
X545465Y321310D03*
D118*
X592773Y321310D03*
D25*
X429895Y321945D03*
D49*
X443865Y321945D03*
D50*
X508318Y321945D03*
D49*
X545465Y321945D03*
D114*
X593408Y321945D03*
D25*
X429260Y322580D03*
D50*
X443548Y322580D03*
X508318Y322580D03*
X545148Y322580D03*
D113*
X594043Y322580D03*
D25*
X428625Y323215D03*
D50*
X442913Y323215D03*
X508318Y323215D03*
X545148Y323215D03*
D97*
X594360Y323215D03*
D25*
X427990Y323850D03*
D49*
X442595Y323850D03*
D50*
X508953Y323850D03*
D49*
X544830Y323850D03*
D107*
X594995Y323850D03*
D25*
X427355Y324485D03*
D49*
X441960Y324485D03*
D50*
X508953Y324485D03*
X544513Y324485D03*
D119*
X595630Y324485D03*
D52*
X427038Y325120D03*
D49*
X441325Y325120D03*
D50*
X508953Y325120D03*
D49*
X544195Y325120D03*
D99*
X595948Y325120D03*
D25*
X426720Y325755D03*
D50*
X441008Y325755D03*
X509588Y325755D03*
D49*
X544195Y325755D03*
D120*
X596900Y325755D03*
D25*
X426085Y326390D03*
D50*
X440373Y326390D03*
X509588Y326390D03*
X543878Y326390D03*
D121*
X597535Y326390D03*
D25*
X425450Y327025D03*
D50*
X439738Y327025D03*
X510223Y327025D03*
D49*
X543560Y327025D03*
D122*
X597853Y327025D03*
D25*
X424815Y327660D03*
D50*
X439738Y327660D03*
D49*
X510540Y327660D03*
D61*
X543243Y327660D03*
D123*
X598488Y327660D03*
D52*
X424498Y328295D03*
D49*
X438785Y328295D03*
D50*
X510858Y328295D03*
D49*
X542925Y328295D03*
D124*
X599123Y328295D03*
D52*
X423863Y328930D03*
D50*
X438468Y328930D03*
D49*
X511175Y328930D03*
D61*
X542608Y328930D03*
D125*
X600393Y328930D03*
D52*
X423228Y329565D03*
D50*
X437833Y329565D03*
D49*
X511810Y329565D03*
D61*
X541973Y329565D03*
D125*
X602298Y329565D03*
D52*
X422593Y330200D03*
D50*
X437198Y330200D03*
D46*
X512445Y330200D03*
D43*
X541338Y330200D03*
D125*
X604203Y330200D03*
D25*
X422275Y330835D03*
D50*
X436563Y330835D03*
D46*
X513080Y330835D03*
D43*
X540703Y330835D03*
D39*
X575628Y330835D03*
D126*
X617220Y330835D03*
D25*
X421640Y331470D03*
D50*
X435928Y331470D03*
D22*
X514033Y331470D03*
D16*
X539750Y331470D03*
D43*
X575628Y331470D03*
D126*
X619125Y331470D03*
D25*
X421005Y332105D03*
D49*
X435610Y332105D03*
D83*
X527050Y332105D03*
D49*
X575945Y332105D03*
D126*
X620395Y332105D03*
D52*
X420688Y332740D03*
D49*
X434975Y332740D03*
D79*
X527050Y332740D03*
D55*
X575945Y332740D03*
D126*
X622300Y332740D03*
D52*
X420053Y333375D03*
D49*
X434340Y333375D03*
D78*
X527050Y333375D03*
D20*
X575945Y333375D03*
D114*
X623888Y333375D03*
D25*
X419735Y334010D03*
D50*
X434023Y334010D03*
D78*
X527050Y334010D03*
D53*
X576263Y334010D03*
D126*
X625475Y334010D03*
D25*
X419100Y334645D03*
D50*
X433388Y334645D03*
D90*
X527050Y334645D03*
D36*
X576580Y334645D03*
D114*
X627063Y334645D03*
D25*
X418465Y335280D03*
D50*
X432753Y335280D03*
D19*
X527050Y335280D03*
D48*
X576580Y335280D03*
D126*
X628650Y335280D03*
D25*
X417830Y335915D03*
D49*
X432435Y335915D03*
D92*
X527050Y335915D03*
D126*
X630555Y335915D03*
D52*
X417513Y336550D03*
D49*
X431800Y336550D03*
D67*
X527050Y336550D03*
D40*
X604203Y336550D03*
D94*
X635000Y336550D03*
D25*
X417195Y337185D03*
D50*
X431483Y337185D03*
D87*
X527050Y337185D03*
D94*
X636270Y337185D03*
D25*
X416560Y337820D03*
D50*
X430848Y337820D03*
D69*
X527050Y337820D03*
D94*
X638175Y337820D03*
D25*
X415925Y338455D03*
D50*
X430213Y338455D03*
D27*
X527368Y338455D03*
D94*
X639445Y338455D03*
D25*
X415290Y339090D03*
D49*
X429895Y339090D03*
D58*
X527050Y339090D03*
D94*
X641350Y339090D03*
D52*
X414973Y339725D03*
D49*
X429260Y339725D03*
D13*
X527050Y339725D03*
D86*
X642938Y339725D03*
D52*
X414338Y340360D03*
D49*
X428625Y340360D03*
D41*
X527050Y340360D03*
D86*
X644208Y340360D03*
D52*
X413703Y340995D03*
D50*
X428308Y340995D03*
D31*
X527050Y340995D03*
D86*
X645478Y340995D03*
D52*
X413068Y341630D03*
D50*
X427673Y341630D03*
D16*
X527050Y341630D03*
D85*
X647065Y341630D03*
D25*
X412750Y342265D03*
D50*
X427038Y342265D03*
D49*
X527050Y342265D03*
D77*
X648335Y342265D03*
D25*
X412115Y342900D03*
D50*
X426403Y342900D03*
D35*
X527050Y342900D03*
D75*
X649923Y342900D03*
D25*
X411480Y343535D03*
D49*
X426085Y343535D03*
D75*
X651193Y343535D03*
D52*
X411163Y344170D03*
D49*
X425450Y344170D03*
D80*
X652463Y344170D03*
D52*
X410528Y344805D03*
D49*
X424815Y344805D03*
D80*
X653733Y344805D03*
D25*
X410210Y345440D03*
D50*
X424498Y345440D03*
D74*
X655003Y345440D03*
D25*
X409575Y346075D03*
D50*
X423863Y346075D03*
D60*
X624205Y346075D03*
D84*
X656273Y346075D03*
D25*
X408940Y346710D03*
D50*
X423228Y346710D03*
D40*
X625158Y346710D03*
D70*
X657225Y346710D03*
D25*
X408305Y347345D03*
D49*
X422910Y347345D03*
D30*
X626428Y347345D03*
D83*
X658495Y347345D03*
D52*
X407988Y347980D03*
D49*
X422275Y347980D03*
D52*
X627063Y347980D03*
D82*
X660083Y347980D03*
D52*
X407353Y348615D03*
D50*
X421958Y348615D03*
D53*
X628333Y348615D03*
D91*
X661353Y348615D03*
D25*
X407035Y349250D03*
D50*
X421323Y349250D03*
D59*
X629603Y349250D03*
D78*
X662305Y349250D03*
D25*
X406400Y349885D03*
D50*
X420688Y349885D03*
D44*
X630555Y349885D03*
D90*
X663575Y349885D03*
D25*
X405765Y350520D03*
D50*
X420053Y350520D03*
D20*
X631825Y350520D03*
D68*
X664528Y350520D03*
D25*
X405130Y351155D03*
D49*
X419735Y351155D03*
D35*
X633095Y351155D03*
D127*
X665798Y351155D03*
D25*
X404495Y351790D03*
D50*
X418783Y351790D03*
D29*
X634048Y351790D03*
D67*
X666750Y351790D03*
D25*
X403860Y352425D03*
D50*
X418783Y352425D03*
D15*
X635000Y352425D03*
D89*
X667703Y352425D03*
D52*
X403543Y353060D03*
D50*
X418148Y353060D03*
D54*
X636270Y353060D03*
D65*
X668973Y353060D03*
D25*
X403225Y353695D03*
D50*
X417513Y353695D03*
X637223Y353695D03*
D69*
X669925Y353695D03*
D25*
X402590Y354330D03*
D50*
X416878Y354330D03*
X637858Y354330D03*
D66*
X671195Y354330D03*
D25*
X401955Y354965D03*
D50*
X416243Y354965D03*
X638493Y354965D03*
D63*
X672465Y354965D03*
D25*
X401320Y355600D03*
D49*
X415925Y355600D03*
X638810Y355600D03*
D58*
X673100Y355600D03*
D52*
X401003Y356235D03*
D49*
X415290Y356235D03*
D50*
X639128Y356235D03*
D13*
X674370Y356235D03*
D25*
X400685Y356870D03*
D49*
X414655Y356870D03*
D50*
X639763Y356870D03*
D45*
X652463Y356870D03*
D38*
X675640Y356870D03*
D25*
X400050Y357505D03*
D50*
X414338Y357505D03*
X640398Y357505D03*
D40*
X653733Y357505D03*
D51*
X676593Y357505D03*
D25*
X399415Y358140D03*
D50*
X413703Y358140D03*
X641033Y358140D03*
D36*
X654685Y358140D03*
D28*
X677545Y358140D03*
D25*
X398780Y358775D03*
D49*
X413385Y358775D03*
X641350Y358775D03*
D30*
X655638Y358775D03*
D49*
X677545Y358775D03*
D52*
X398463Y359410D03*
D49*
X412750Y359410D03*
D50*
X641668Y359410D03*
D52*
X656273Y359410D03*
X397828Y360045D03*
D49*
X412115Y360045D03*
D50*
X642303Y360045D03*
D25*
X656590Y360045D03*
X397510Y360680D03*
D50*
X411798Y360680D03*
X642938Y360680D03*
D25*
X657225Y360680D03*
X396875Y361315D03*
D50*
X411163Y361315D03*
X643573Y361315D03*
D25*
X657860Y361315D03*
X396240Y361950D03*
D50*
X410528Y361950D03*
D49*
X643890Y361950D03*
D25*
X658495Y361950D03*
D52*
X395923Y362585D03*
D49*
X410210Y362585D03*
D44*
X434975Y362585D03*
D15*
X461010Y362585D03*
D59*
X479743Y362585D03*
D43*
X496253Y362585D03*
D37*
X521653Y362585D03*
D20*
X539750Y362585D03*
D44*
X559435Y362585D03*
D59*
X570548Y362585D03*
D43*
X587058Y362585D03*
D59*
X603568Y362585D03*
D30*
X615633Y362585D03*
D44*
X627380Y362585D03*
D49*
X644525Y362585D03*
D25*
X659130Y362585D03*
D52*
X395288Y363220D03*
D50*
X409258Y363220D03*
D44*
X434340Y363220D03*
D61*
X461328Y363220D03*
D59*
X479743Y363220D03*
D14*
X495935Y363220D03*
D37*
X521018Y363220D03*
D20*
X540385Y363220D03*
D42*
X559118Y363220D03*
D59*
X570548Y363220D03*
D14*
X586740Y363220D03*
D44*
X603250Y363220D03*
D25*
X615315Y363220D03*
D44*
X627380Y363220D03*
D50*
X644843Y363220D03*
D25*
X659130Y363220D03*
D52*
X394653Y363855D03*
D50*
X409258Y363855D03*
D44*
X434340Y363855D03*
D22*
X461328Y363855D03*
D59*
X479743Y363855D03*
D14*
X495300Y363855D03*
D31*
X520065Y363855D03*
D20*
X541020Y363855D03*
D44*
X558800Y363855D03*
X570865Y363855D03*
D14*
X586105Y363855D03*
D44*
X603250Y363855D03*
D52*
X614998Y363855D03*
D44*
X627380Y363855D03*
D50*
X645478Y363855D03*
D25*
X659765Y363855D03*
D52*
X394018Y364490D03*
D50*
X408623Y364490D03*
D44*
X434340Y364490D03*
D24*
X461328Y364490D03*
D59*
X479743Y364490D03*
D14*
X494665Y364490D03*
D26*
X519748Y364490D03*
D20*
X541655Y364490D03*
D44*
X558800Y364490D03*
X570865Y364490D03*
D14*
X586105Y364490D03*
D44*
X602615Y364490D03*
D17*
X614680Y364490D03*
D44*
X626745Y364490D03*
D50*
X646113Y364490D03*
D25*
X660400Y364490D03*
X393700Y365125D03*
D50*
X407988Y365125D03*
D44*
X433705Y365125D03*
D39*
X461328Y365125D03*
D59*
X479743Y365125D03*
D14*
X494030Y365125D03*
D31*
X519430Y365125D03*
D20*
X542290Y365125D03*
D44*
X558165Y365125D03*
D59*
X571183Y365125D03*
D14*
X585470Y365125D03*
D44*
X602615Y365125D03*
D17*
X614680Y365125D03*
D44*
X626745Y365125D03*
D49*
X646430Y365125D03*
D25*
X661035Y365125D03*
X393065Y365760D03*
D50*
X407353Y365760D03*
D44*
X433705Y365760D03*
D28*
X461010Y365760D03*
D44*
X480060Y365760D03*
D14*
X494030Y365760D03*
D31*
X518795Y365760D03*
D20*
X542925Y365760D03*
D44*
X558165Y365760D03*
D59*
X571183Y365760D03*
D14*
X584835Y365760D03*
D44*
X602615Y365760D03*
D47*
X614680Y365760D03*
D44*
X626745Y365760D03*
D49*
X647065Y365760D03*
D25*
X661670Y365760D03*
X392430Y366395D03*
D50*
X406718Y366395D03*
D44*
X433070Y366395D03*
D37*
X460693Y366395D03*
D18*
X489268Y366395D03*
D37*
X518478Y366395D03*
D20*
X543560Y366395D03*
D44*
X558165Y366395D03*
D41*
X580390Y366395D03*
D44*
X601980Y366395D03*
D59*
X614363Y366395D03*
D44*
X626110Y366395D03*
D49*
X647700Y366395D03*
D52*
X661988Y366395D03*
D25*
X391795Y367030D03*
D49*
X406400Y367030D03*
D44*
X433070Y367030D03*
D26*
X460693Y367030D03*
D51*
X489268Y367030D03*
D31*
X518160Y367030D03*
D20*
X544195Y367030D03*
D44*
X557530Y367030D03*
D51*
X580073Y367030D03*
D44*
X601980Y367030D03*
X614045Y367030D03*
X626110Y367030D03*
D50*
X648018Y367030D03*
D25*
X662305Y367030D03*
X391160Y367665D03*
D49*
X405765Y367665D03*
D44*
X433070Y367665D03*
D26*
X460693Y367665D03*
D21*
X488950Y367665D03*
D37*
X517843Y367665D03*
D20*
X544830Y367665D03*
D44*
X557530Y367665D03*
D51*
X580073Y367665D03*
D44*
X601980Y367665D03*
D42*
X613728Y367665D03*
D44*
X625475Y367665D03*
D50*
X648653Y367665D03*
D25*
X662940Y367665D03*
D52*
X390843Y368300D03*
D49*
X405130Y368300D03*
D44*
X432435Y368300D03*
D35*
X453390Y368300D03*
D33*
X467678Y368300D03*
D59*
X480378Y368300D03*
D42*
X496253Y368300D03*
D44*
X509905Y368300D03*
D33*
X545783Y368300D03*
D42*
X557213Y368300D03*
D44*
X571500Y368300D03*
D42*
X587693Y368300D03*
D44*
X601345Y368300D03*
D20*
X613410Y368300D03*
D44*
X625475Y368300D03*
D49*
X648970Y368300D03*
D25*
X663575Y368300D03*
X390525Y368935D03*
D50*
X404813Y368935D03*
D44*
X432435Y368935D03*
D42*
X452438Y368935D03*
D20*
X467995Y368935D03*
D59*
X480378Y368935D03*
D42*
X496253Y368935D03*
D44*
X509905Y368935D03*
D33*
X546418Y368935D03*
D44*
X556895Y368935D03*
X571500Y368935D03*
D42*
X587058Y368935D03*
D44*
X601345Y368935D03*
D35*
X613410Y368935D03*
D44*
X625475Y368935D03*
D49*
X649605Y368935D03*
D25*
X664210Y368935D03*
X389890Y369570D03*
D50*
X404178Y369570D03*
D44*
X432435Y369570D03*
D42*
X451803Y369570D03*
X468313Y369570D03*
D59*
X480378Y369570D03*
D42*
X495618Y369570D03*
D44*
X509905Y369570D03*
D33*
X547053Y369570D03*
D44*
X556895Y369570D03*
D59*
X571818Y369570D03*
D42*
X586423Y369570D03*
D44*
X601345Y369570D03*
D29*
X613093Y369570D03*
D44*
X624840Y369570D03*
D49*
X650240Y369570D03*
D52*
X664528Y369570D03*
D25*
X389255Y370205D03*
D50*
X403543Y370205D03*
D44*
X431800Y370205D03*
X451485Y370205D03*
D42*
X468313Y370205D03*
D44*
X480695Y370205D03*
D42*
X494983Y370205D03*
D44*
X509905Y370205D03*
D43*
X551498Y370205D03*
D59*
X571818Y370205D03*
D20*
X586105Y370205D03*
D44*
X600710Y370205D03*
D55*
X612775Y370205D03*
D44*
X624840Y370205D03*
D50*
X650558Y370205D03*
D52*
X665163Y370205D03*
D25*
X388620Y370840D03*
D49*
X403225Y370840D03*
D44*
X431800Y370840D03*
X450850Y370840D03*
X467995Y370840D03*
D59*
X481013Y370840D03*
D42*
X494348Y370840D03*
D22*
X515303Y370840D03*
D34*
X549910Y370840D03*
D59*
X571818Y370840D03*
D42*
X585788Y370840D03*
D44*
X600710Y370840D03*
D23*
X612458Y370840D03*
D44*
X624840Y370840D03*
D50*
X651193Y370840D03*
D52*
X665798Y370840D03*
X388303Y371475D03*
D49*
X402590Y371475D03*
D44*
X431800Y371475D03*
X450850Y371475D03*
X467995Y371475D03*
D59*
X481013Y371475D03*
D42*
X494348Y371475D03*
D22*
X515938Y371475D03*
D37*
X548958Y371475D03*
D59*
X571818Y371475D03*
D42*
X585153Y371475D03*
D44*
X600075Y371475D03*
D15*
X612140Y371475D03*
D44*
X624205Y371475D03*
D50*
X651828Y371475D03*
D25*
X666115Y371475D03*
X387985Y372110D03*
D49*
X401955Y372110D03*
D44*
X431165Y372110D03*
X450215Y372110D03*
X467995Y372110D03*
D59*
X481013Y372110D03*
D42*
X493713Y372110D03*
D16*
X516255Y372110D03*
D31*
X548005Y372110D03*
D59*
X571818Y372110D03*
D42*
X584518Y372110D03*
D44*
X600075Y372110D03*
D15*
X612140Y372110D03*
D44*
X624205Y372110D03*
D50*
X652463Y372110D03*
D25*
X666750Y372110D03*
X387350Y372745D03*
D50*
X401638Y372745D03*
D44*
X431165Y372745D03*
X450215Y372745D03*
X467995Y372745D03*
D59*
X481013Y372745D03*
D42*
X493078Y372745D03*
D24*
X516573Y372745D03*
D21*
X547370Y372745D03*
D44*
X572135Y372745D03*
D42*
X583883Y372745D03*
D44*
X600075Y372745D03*
D54*
X612140Y372745D03*
D44*
X624205Y372745D03*
D49*
X652780Y372745D03*
D25*
X667385Y372745D03*
X386715Y373380D03*
D50*
X401003Y373380D03*
D44*
X430530Y373380D03*
X450215Y373380D03*
X467360Y373380D03*
D59*
X481013Y373380D03*
D42*
X492443Y373380D03*
D24*
X517208Y373380D03*
D61*
X542608Y373380D03*
D44*
X555625Y373380D03*
D59*
X572453Y373380D03*
D42*
X583883Y373380D03*
D66*
X611505Y373380D03*
D49*
X653415Y373380D03*
D25*
X668020Y373380D03*
X386080Y374015D03*
D49*
X400685Y374015D03*
D44*
X430530Y374015D03*
X449580Y374015D03*
X467360Y374015D03*
D59*
X481013Y374015D03*
D44*
X492125Y374015D03*
D16*
X517525Y374015D03*
D61*
X541973Y374015D03*
D44*
X554990Y374015D03*
D59*
X572453Y374015D03*
D42*
X583248Y374015D03*
D49*
X603250Y374015D03*
X619760Y374015D03*
X654050Y374015D03*
D52*
X668338Y374015D03*
X385763Y374650D03*
D50*
X399733Y374650D03*
D44*
X430530Y374650D03*
X449580Y374650D03*
X467360Y374650D03*
X481330Y374650D03*
D42*
X491808Y374650D03*
D24*
X517843Y374650D03*
D61*
X541338Y374650D03*
D44*
X554990Y374650D03*
D59*
X572453Y374650D03*
D42*
X582613Y374650D03*
D50*
X602933Y374650D03*
X619443Y374650D03*
X654368Y374650D03*
D25*
X668655Y374650D03*
D52*
X385128Y375285D03*
D49*
X399415Y375285D03*
D44*
X429895Y375285D03*
X449580Y375285D03*
X466725Y375285D03*
D59*
X481648Y375285D03*
D42*
X491173Y375285D03*
D22*
X518478Y375285D03*
D49*
X541020Y375285D03*
D42*
X554673Y375285D03*
D59*
X572453Y375285D03*
D42*
X581978Y375285D03*
D50*
X602298Y375285D03*
X619443Y375285D03*
X655003Y375285D03*
D25*
X669290Y375285D03*
D52*
X384493Y375920D03*
D50*
X399098Y375920D03*
D44*
X429895Y375920D03*
X448945Y375920D03*
X466725Y375920D03*
D59*
X481648Y375920D03*
D42*
X490538Y375920D03*
D43*
X519113Y375920D03*
D49*
X540385Y375920D03*
D44*
X554355Y375920D03*
D59*
X572453Y375920D03*
D44*
X581660Y375920D03*
D54*
X601980Y375920D03*
D50*
X619443Y375920D03*
D49*
X655320Y375920D03*
D25*
X669925Y375920D03*
D52*
X383858Y376555D03*
D50*
X398463Y376555D03*
D44*
X429895Y376555D03*
X448945Y376555D03*
X466725Y376555D03*
D59*
X481648Y376555D03*
D44*
X490220Y376555D03*
X523875Y376555D03*
D42*
X536893Y376555D03*
D44*
X554355Y376555D03*
D59*
X572453Y376555D03*
D42*
X581343Y376555D03*
D56*
X601663Y376555D03*
X619443Y376555D03*
D49*
X655955Y376555D03*
D52*
X670243Y376555D03*
D25*
X383540Y377190D03*
D50*
X397828Y377190D03*
D44*
X429260Y377190D03*
D59*
X448628Y377190D03*
D44*
X466090Y377190D03*
D49*
X485775Y377190D03*
D44*
X523875Y377190D03*
X536575Y377190D03*
X553720Y377190D03*
D61*
X576898Y377190D03*
D56*
X601028Y377190D03*
X619443Y377190D03*
D49*
X656590Y377190D03*
D52*
X670878Y377190D03*
D25*
X382905Y377825D03*
D50*
X397193Y377825D03*
D44*
X429260Y377825D03*
X448310Y377825D03*
X466090Y377825D03*
D49*
X485775Y377825D03*
D44*
X523875Y377825D03*
X536575Y377825D03*
X553720Y377825D03*
D50*
X576898Y377825D03*
D56*
X601028Y377825D03*
X619443Y377825D03*
D50*
X656908Y377825D03*
D25*
X671195Y377825D03*
X382270Y378460D03*
D49*
X396875Y378460D03*
D24*
X430213Y378460D03*
D44*
X448310Y378460D03*
X466090Y378460D03*
D50*
X485458Y378460D03*
D37*
X516573Y378460D03*
D51*
X545148Y378460D03*
D54*
X576580Y378460D03*
D56*
X600393Y378460D03*
D15*
X619125Y378460D03*
D50*
X657543Y378460D03*
D25*
X671830Y378460D03*
X381635Y379095D03*
D49*
X396240Y379095D03*
D39*
X429578Y379095D03*
D44*
X447675Y379095D03*
X465455Y379095D03*
D56*
X485458Y379095D03*
D37*
X515938Y379095D03*
D21*
X544830Y379095D03*
D54*
X576580Y379095D03*
D15*
X600075Y379095D03*
X619125Y379095D03*
D49*
X657860Y379095D03*
D25*
X672465Y379095D03*
D52*
X381318Y379730D03*
D49*
X395605Y379730D03*
D39*
X428943Y379730D03*
D44*
X447675Y379730D03*
X465455Y379730D03*
D15*
X485140Y379730D03*
D31*
X515620Y379730D03*
D21*
X544830Y379730D03*
D56*
X576263Y379730D03*
D23*
X599758Y379730D03*
D15*
X619125Y379730D03*
D49*
X658495Y379730D03*
D52*
X672783Y379730D03*
D25*
X381000Y380365D03*
D50*
X395288Y380365D03*
D28*
X428625Y380365D03*
D44*
X447675Y380365D03*
X465455Y380365D03*
D15*
X485140Y380365D03*
D31*
X514985Y380365D03*
D26*
X545148Y380365D03*
D15*
X575945Y380365D03*
D23*
X599123Y380365D03*
D55*
X619125Y380365D03*
D49*
X659130Y380365D03*
D52*
X673418Y380365D03*
D25*
X380365Y381000D03*
D50*
X394653Y381000D03*
D39*
X428308Y381000D03*
D44*
X447040Y381000D03*
X464820Y381000D03*
D23*
X484823Y381000D03*
D31*
X514350Y381000D03*
X544830Y381000D03*
D55*
X575945Y381000D03*
X598805Y381000D03*
X619125Y381000D03*
D50*
X659448Y381000D03*
D25*
X673735Y381000D03*
X379730Y381635D03*
D50*
X394018Y381635D03*
D39*
X427673Y381635D03*
D44*
X447040Y381635D03*
X464820Y381635D03*
D55*
X484505Y381635D03*
D31*
X514350Y381635D03*
X544830Y381635D03*
D29*
X575628Y381635D03*
X598488Y381635D03*
X618808Y381635D03*
D50*
X660083Y381635D03*
D25*
X674370Y381635D03*
X379095Y382270D03*
D49*
X393700Y382270D03*
D39*
X427038Y382270D03*
D44*
X447040Y382270D03*
X464820Y382270D03*
D35*
X484505Y382270D03*
D31*
X513715Y382270D03*
D37*
X545148Y382270D03*
D29*
X575628Y382270D03*
X597853Y382270D03*
X618808Y382270D03*
D50*
X660718Y382270D03*
D25*
X675005Y382270D03*
D52*
X378778Y382905D03*
D49*
X393065Y382905D03*
D39*
X426403Y382905D03*
D44*
X446405Y382905D03*
X464185Y382905D03*
D33*
X484188Y382905D03*
D31*
X513080Y382905D03*
D39*
X545148Y382905D03*
D33*
X575628Y382905D03*
D35*
X597535Y382905D03*
D29*
X618808Y382905D03*
D50*
X661353Y382905D03*
D25*
X675640Y382905D03*
X378460Y383540D03*
D50*
X392748Y383540D03*
D34*
X426085Y383540D03*
D44*
X446405Y383540D03*
X464185Y383540D03*
D42*
X484188Y383540D03*
D37*
X512128Y383540D03*
D34*
X545465Y383540D03*
D20*
X575310Y383540D03*
D35*
X596900Y383540D03*
D33*
X618808Y383540D03*
D49*
X661670Y383540D03*
D52*
X675958Y383540D03*
D25*
X377825Y384175D03*
D50*
X392113Y384175D03*
D24*
X425768Y384175D03*
D59*
X446088Y384175D03*
X463868Y384175D03*
X484188Y384175D03*
D39*
X511493Y384175D03*
D22*
X545783Y384175D03*
D59*
X574993Y384175D03*
D20*
X596900Y384175D03*
D33*
X618808Y384175D03*
D50*
X661988Y384175D03*
D25*
X676275Y384175D03*
X377190Y384810D03*
D50*
X391478Y384810D03*
X662623Y384810D03*
D25*
X676910Y384810D03*
X376555Y385445D03*
D50*
X390843Y385445D03*
X663258Y385445D03*
D25*
X677545Y385445D03*
D52*
X376238Y386080D03*
D50*
X390208Y386080D03*
X663893Y386080D03*
D25*
X678180Y386080D03*
D52*
X375603Y386715D03*
D49*
X389890Y386715D03*
D50*
X664528Y386715D03*
D52*
X678498Y386715D03*
X374968Y387350D03*
D50*
X389573Y387350D03*
X664528Y387350D03*
D25*
X678815Y387350D03*
D52*
X374333Y387985D03*
D50*
X388938Y387985D03*
X665163Y387985D03*
D25*
X679450Y387985D03*
X374015Y388620D03*
D50*
X388303Y388620D03*
X665798Y388620D03*
D25*
X680085Y388620D03*
X373380Y389255D03*
D50*
X387668Y389255D03*
X666433Y389255D03*
D25*
X680720Y389255D03*
X372745Y389890D03*
D50*
X387033Y389890D03*
X667068Y389890D03*
D25*
X681355Y389890D03*
X372110Y390525D03*
D49*
X386715Y390525D03*
D50*
X667068Y390525D03*
D25*
X681990Y390525D03*
D52*
X371793Y391160D03*
D49*
X386080Y391160D03*
D50*
X667703Y391160D03*
D52*
X682308Y391160D03*
X371158Y391795D03*
D50*
X385763Y391795D03*
X668338Y391795D03*
D25*
X682625Y391795D03*
X370840Y392430D03*
D50*
X385128Y392430D03*
X668973Y392430D03*
D25*
X683260Y392430D03*
X370205Y393065D03*
D50*
X384493Y393065D03*
X669608Y393065D03*
D25*
X683895Y393065D03*
X369570Y393700D03*
D49*
X384175Y393700D03*
X669925Y393700D03*
D25*
X684530Y393700D03*
X368935Y394335D03*
D50*
X383223Y394335D03*
D49*
X670560Y394335D03*
D52*
X684848Y394335D03*
D25*
X368300Y394970D03*
D49*
X382905Y394970D03*
D50*
X670878Y394970D03*
D25*
X685165Y394970D03*
D52*
X367983Y395605D03*
D50*
X382588Y395605D03*
X671513Y395605D03*
D25*
X685800Y395605D03*
X367665Y396240D03*
D50*
X381953Y396240D03*
X672148Y396240D03*
D25*
X686435Y396240D03*
X367030Y396875D03*
D50*
X381318Y396875D03*
D49*
X672465Y396875D03*
D25*
X687070Y396875D03*
X366395Y397510D03*
D50*
X380683Y397510D03*
X673418Y397510D03*
D52*
X687388Y397510D03*
D25*
X365760Y398145D03*
D49*
X380365Y398145D03*
X673735Y398145D03*
D25*
X687705Y398145D03*
X365125Y398780D03*
D49*
X379730Y398780D03*
D50*
X674053Y398780D03*
D52*
X688658Y398780D03*
X364808Y399415D03*
D49*
X379095Y399415D03*
D50*
X674688Y399415D03*
D25*
X688975Y399415D03*
X364490Y400050D03*
D49*
X379095Y400050D03*
X675005Y400050D03*
D25*
X689610Y400050D03*
X363855Y400685D03*
D128*
X527050Y400685D03*
D25*
X690245Y400685D03*
X363220Y401320D03*
D129*
X527050Y401320D03*
D25*
X690880Y401320D03*
X362585Y401955D03*
D130*
X527050Y401955D03*
D52*
X691198Y401955D03*
X362268Y402590D03*
D131*
X526733Y402590D03*
D25*
X691515Y402590D03*
D52*
X361633Y403225D03*
D132*
X526733Y403225D03*
D25*
X692150Y403225D03*
X361315Y403860D03*
D133*
X527050Y403860D03*
D25*
X692785Y403860D03*
X360680Y404495D03*
D134*
X527050Y404495D03*
D25*
X693420Y404495D03*
X360045Y405130D03*
D135*
X527050Y405130D03*
D52*
X693738Y405130D03*
D25*
X359410Y405765D03*
D136*
X527050Y405765D03*
D52*
X694373Y405765D03*
X359093Y406400D03*
D137*
X526733Y406400D03*
D25*
X694690Y406400D03*
D52*
X358458Y407035D03*
D138*
X527050Y407035D03*
D25*
X695325Y407035D03*
D52*
X357823Y407670D03*
D139*
X527050Y407670D03*
D25*
X695960Y407670D03*
X357505Y408305D03*
D140*
X526733Y408305D03*
D25*
X696595Y408305D03*
X356870Y408940D03*
D52*
X696913Y408940D03*
D25*
X356235Y409575D03*
X697230Y409575D03*
X355600Y410210D03*
X697865Y410210D03*
D52*
X355283Y410845D03*
D25*
X698500Y410845D03*
X354965Y411480D03*
D52*
X698818Y411480D03*
D141*
X527050Y412115D03*
D142*
X526733Y412750D03*
D143*
X526733Y413385D03*
D144*
X526733Y414020D03*
X526733Y414655D03*
D145*
X392739Y186141D02*
X381055Y186141D01*
X392739Y186141D02*
X392739Y189387D01*
X392740Y189387D02*
X392738Y189500D01*
X392732Y189613D01*
X392722Y189726D01*
X392708Y189839D01*
X392691Y189951D01*
X392669Y190062D01*
X392644Y190172D01*
X392614Y190282D01*
X392581Y190390D01*
X392544Y190497D01*
X392504Y190603D01*
X392459Y190707D01*
X392411Y190810D01*
X392360Y190911D01*
X392305Y191010D01*
X392247Y191107D01*
X392185Y191202D01*
X392120Y191295D01*
X392052Y191385D01*
X391981Y191473D01*
X391906Y191559D01*
X391829Y191642D01*
X391749Y191722D01*
X391666Y191799D01*
X391580Y191874D01*
X391492Y191945D01*
X391402Y192013D01*
X391309Y192078D01*
X391214Y192140D01*
X391117Y192198D01*
X391018Y192253D01*
X390917Y192304D01*
X390814Y192352D01*
X390710Y192397D01*
X390604Y192437D01*
X390497Y192474D01*
X390389Y192507D01*
X390279Y192537D01*
X390169Y192562D01*
X390058Y192584D01*
X389946Y192601D01*
X389833Y192615D01*
X389720Y192625D01*
X389607Y192631D01*
X389494Y192633D01*
X389381Y192631D01*
X389268Y192625D01*
X389155Y192615D01*
X389042Y192601D01*
X388930Y192584D01*
X388819Y192562D01*
X388709Y192537D01*
X388599Y192507D01*
X388491Y192474D01*
X388384Y192437D01*
X388278Y192397D01*
X388174Y192352D01*
X388071Y192304D01*
X387970Y192253D01*
X387871Y192198D01*
X387774Y192140D01*
X387679Y192078D01*
X387586Y192013D01*
X387496Y191945D01*
X387408Y191874D01*
X387322Y191799D01*
X387239Y191722D01*
X387159Y191642D01*
X387082Y191559D01*
X387007Y191473D01*
X386936Y191385D01*
X386868Y191295D01*
X386803Y191202D01*
X386741Y191107D01*
X386683Y191010D01*
X386628Y190911D01*
X386577Y190810D01*
X386529Y190707D01*
X386484Y190603D01*
X386444Y190497D01*
X386407Y190390D01*
X386374Y190282D01*
X386344Y190172D01*
X386319Y190062D01*
X386297Y189951D01*
X386280Y189839D01*
X386266Y189726D01*
X386256Y189613D01*
X386250Y189500D01*
X386248Y189387D01*
X386248Y186141D01*
X386248Y190036D02*
X381055Y192632D01*
X389818Y203989D02*
X389925Y203987D01*
X390031Y203981D01*
X390137Y203971D01*
X390243Y203958D01*
X390349Y203940D01*
X390453Y203919D01*
X390557Y203894D01*
X390660Y203865D01*
X390761Y203833D01*
X390861Y203796D01*
X390960Y203756D01*
X391058Y203713D01*
X391154Y203666D01*
X391248Y203615D01*
X391340Y203561D01*
X391430Y203504D01*
X391518Y203444D01*
X391603Y203380D01*
X391686Y203313D01*
X391767Y203243D01*
X391845Y203171D01*
X391921Y203095D01*
X391993Y203017D01*
X392063Y202936D01*
X392130Y202853D01*
X392194Y202768D01*
X392254Y202680D01*
X392311Y202590D01*
X392365Y202498D01*
X392416Y202404D01*
X392463Y202308D01*
X392506Y202210D01*
X392546Y202111D01*
X392583Y202011D01*
X392615Y201910D01*
X392644Y201807D01*
X392669Y201703D01*
X392690Y201599D01*
X392708Y201493D01*
X392721Y201387D01*
X392731Y201281D01*
X392737Y201175D01*
X392739Y201068D01*
X392737Y200947D01*
X392731Y200826D01*
X392721Y200706D01*
X392708Y200585D01*
X392690Y200466D01*
X392669Y200346D01*
X392644Y200228D01*
X392615Y200111D01*
X392582Y199994D01*
X392546Y199879D01*
X392505Y199765D01*
X392462Y199652D01*
X392414Y199540D01*
X392363Y199431D01*
X392308Y199323D01*
X392250Y199216D01*
X392189Y199112D01*
X392124Y199010D01*
X392056Y198910D01*
X391985Y198812D01*
X391911Y198716D01*
X391834Y198623D01*
X391753Y198533D01*
X391670Y198445D01*
X391584Y198360D01*
X391495Y198277D01*
X391404Y198198D01*
X391310Y198121D01*
X391214Y198048D01*
X391116Y197978D01*
X391015Y197911D01*
X390912Y197847D01*
X390807Y197787D01*
X390700Y197730D01*
X390592Y197676D01*
X390482Y197626D01*
X390370Y197580D01*
X390257Y197537D01*
X390142Y197498D01*
X387546Y203015D02*
X387623Y203094D01*
X387704Y203170D01*
X387787Y203243D01*
X387872Y203313D01*
X387960Y203380D01*
X388050Y203444D01*
X388142Y203504D01*
X388237Y203561D01*
X388333Y203615D01*
X388431Y203666D01*
X388531Y203713D01*
X388633Y203757D01*
X388736Y203797D01*
X388840Y203833D01*
X388946Y203865D01*
X389052Y203894D01*
X389160Y203919D01*
X389268Y203941D01*
X389378Y203958D01*
X389487Y203972D01*
X389597Y203981D01*
X389708Y203987D01*
X389818Y203989D01*
X387546Y203015D02*
X381055Y197498D01*
X381055Y203989D01*
X383652Y208928D02*
X392739Y211524D01*
X383652Y208928D02*
X383652Y215419D01*
X386248Y213471D02*
X381055Y213471D01*
D146*
X821050Y321310D02*
X855350Y321310D01*
X855350Y219710D02*
X821050Y219710D01*
D147*
X799850Y225560D02*
X799852Y225604D01*
X799858Y225648D01*
X799868Y225691D01*
X799881Y225733D01*
X799898Y225774D01*
X799919Y225813D01*
X799943Y225850D01*
X799970Y225885D01*
X800000Y225917D01*
X800033Y225947D01*
X800069Y225973D01*
X800106Y225997D01*
X800146Y226016D01*
X800187Y226033D01*
X800230Y226045D01*
X800273Y226054D01*
X800317Y226059D01*
X800361Y226060D01*
X800405Y226057D01*
X800449Y226050D01*
X800492Y226039D01*
X800534Y226025D01*
X800574Y226007D01*
X800613Y225985D01*
X800649Y225961D01*
X800683Y225933D01*
X800715Y225902D01*
X800744Y225868D01*
X800770Y225832D01*
X800792Y225794D01*
X800811Y225754D01*
X800826Y225712D01*
X800838Y225670D01*
X800846Y225626D01*
X800850Y225582D01*
X800850Y225538D01*
X800846Y225494D01*
X800838Y225450D01*
X800826Y225408D01*
X800811Y225366D01*
X800792Y225326D01*
X800770Y225288D01*
X800744Y225252D01*
X800715Y225218D01*
X800683Y225187D01*
X800649Y225159D01*
X800613Y225135D01*
X800574Y225113D01*
X800534Y225095D01*
X800492Y225081D01*
X800449Y225070D01*
X800405Y225063D01*
X800361Y225060D01*
X800317Y225061D01*
X800273Y225066D01*
X800230Y225075D01*
X800187Y225087D01*
X800146Y225104D01*
X800106Y225123D01*
X800069Y225147D01*
X800033Y225173D01*
X800000Y225203D01*
X799970Y225235D01*
X799943Y225270D01*
X799919Y225307D01*
X799898Y225346D01*
X799881Y225387D01*
X799868Y225429D01*
X799858Y225472D01*
X799852Y225516D01*
X799850Y225560D01*
D145*
X809436Y223082D02*
X818523Y223082D01*
X809436Y223082D02*
X809337Y223080D01*
X809237Y223074D01*
X809138Y223065D01*
X809040Y223052D01*
X808942Y223035D01*
X808844Y223014D01*
X808748Y222989D01*
X808653Y222961D01*
X808559Y222929D01*
X808466Y222894D01*
X808374Y222855D01*
X808284Y222812D01*
X808196Y222767D01*
X808109Y222717D01*
X808025Y222665D01*
X807942Y222609D01*
X807862Y222551D01*
X807784Y222489D01*
X807709Y222424D01*
X807636Y222356D01*
X807566Y222286D01*
X807498Y222213D01*
X807433Y222138D01*
X807371Y222060D01*
X807313Y221980D01*
X807257Y221897D01*
X807205Y221813D01*
X807155Y221726D01*
X807110Y221638D01*
X807067Y221548D01*
X807028Y221456D01*
X806993Y221363D01*
X806961Y221269D01*
X806933Y221174D01*
X806908Y221078D01*
X806887Y220980D01*
X806870Y220882D01*
X806857Y220784D01*
X806848Y220685D01*
X806842Y220585D01*
X806840Y220486D01*
X806839Y220486D02*
X806839Y219187D01*
X815927Y228355D02*
X818523Y231601D01*
X806839Y231601D01*
X806839Y234846D02*
X806839Y228355D01*
D146*
X231780Y391160D02*
X197480Y391160D01*
X197480Y137160D02*
X231780Y137160D01*
D147*
X176280Y143010D02*
X176282Y143054D01*
X176288Y143098D01*
X176298Y143141D01*
X176311Y143183D01*
X176328Y143224D01*
X176349Y143263D01*
X176373Y143300D01*
X176400Y143335D01*
X176430Y143367D01*
X176463Y143397D01*
X176499Y143423D01*
X176536Y143447D01*
X176576Y143466D01*
X176617Y143483D01*
X176660Y143495D01*
X176703Y143504D01*
X176747Y143509D01*
X176791Y143510D01*
X176835Y143507D01*
X176879Y143500D01*
X176922Y143489D01*
X176964Y143475D01*
X177004Y143457D01*
X177043Y143435D01*
X177079Y143411D01*
X177113Y143383D01*
X177145Y143352D01*
X177174Y143318D01*
X177200Y143282D01*
X177222Y143244D01*
X177241Y143204D01*
X177256Y143162D01*
X177268Y143120D01*
X177276Y143076D01*
X177280Y143032D01*
X177280Y142988D01*
X177276Y142944D01*
X177268Y142900D01*
X177256Y142858D01*
X177241Y142816D01*
X177222Y142776D01*
X177200Y142738D01*
X177174Y142702D01*
X177145Y142668D01*
X177113Y142637D01*
X177079Y142609D01*
X177043Y142585D01*
X177004Y142563D01*
X176964Y142545D01*
X176922Y142531D01*
X176879Y142520D01*
X176835Y142513D01*
X176791Y142510D01*
X176747Y142511D01*
X176703Y142516D01*
X176660Y142525D01*
X176617Y142537D01*
X176576Y142554D01*
X176536Y142573D01*
X176499Y142597D01*
X176463Y142623D01*
X176430Y142653D01*
X176400Y142685D01*
X176373Y142720D01*
X176349Y142757D01*
X176328Y142796D01*
X176311Y142837D01*
X176298Y142879D01*
X176288Y142922D01*
X176282Y142966D01*
X176280Y143010D01*
D145*
X175023Y267524D02*
X165935Y267524D01*
X165935Y267523D02*
X165836Y267521D01*
X165736Y267515D01*
X165637Y267506D01*
X165539Y267493D01*
X165441Y267476D01*
X165343Y267455D01*
X165247Y267430D01*
X165152Y267402D01*
X165058Y267370D01*
X164965Y267335D01*
X164873Y267296D01*
X164783Y267253D01*
X164695Y267208D01*
X164608Y267158D01*
X164524Y267106D01*
X164441Y267050D01*
X164361Y266992D01*
X164283Y266930D01*
X164208Y266865D01*
X164135Y266797D01*
X164065Y266727D01*
X163997Y266654D01*
X163932Y266579D01*
X163870Y266501D01*
X163812Y266421D01*
X163756Y266338D01*
X163704Y266254D01*
X163654Y266167D01*
X163609Y266079D01*
X163566Y265989D01*
X163527Y265897D01*
X163492Y265804D01*
X163460Y265710D01*
X163432Y265615D01*
X163407Y265519D01*
X163386Y265421D01*
X163369Y265323D01*
X163356Y265225D01*
X163347Y265126D01*
X163341Y265026D01*
X163339Y264927D01*
X163339Y263629D01*
X163339Y272797D02*
X163339Y276043D01*
X163338Y276043D02*
X163340Y276156D01*
X163346Y276269D01*
X163356Y276382D01*
X163370Y276495D01*
X163387Y276607D01*
X163409Y276718D01*
X163434Y276828D01*
X163464Y276938D01*
X163497Y277046D01*
X163534Y277153D01*
X163574Y277259D01*
X163619Y277363D01*
X163667Y277466D01*
X163718Y277567D01*
X163773Y277666D01*
X163831Y277763D01*
X163893Y277858D01*
X163958Y277951D01*
X164026Y278041D01*
X164097Y278129D01*
X164172Y278215D01*
X164249Y278298D01*
X164329Y278378D01*
X164412Y278455D01*
X164498Y278530D01*
X164586Y278601D01*
X164676Y278669D01*
X164769Y278734D01*
X164864Y278796D01*
X164961Y278854D01*
X165060Y278909D01*
X165161Y278960D01*
X165264Y279008D01*
X165368Y279053D01*
X165474Y279093D01*
X165581Y279130D01*
X165689Y279163D01*
X165799Y279193D01*
X165909Y279218D01*
X166020Y279240D01*
X166132Y279257D01*
X166245Y279271D01*
X166358Y279281D01*
X166471Y279287D01*
X166584Y279289D01*
X166697Y279287D01*
X166810Y279281D01*
X166923Y279271D01*
X167036Y279257D01*
X167148Y279240D01*
X167259Y279218D01*
X167369Y279193D01*
X167479Y279163D01*
X167587Y279130D01*
X167694Y279093D01*
X167800Y279053D01*
X167904Y279008D01*
X168007Y278960D01*
X168108Y278909D01*
X168207Y278854D01*
X168304Y278796D01*
X168399Y278734D01*
X168492Y278669D01*
X168582Y278601D01*
X168670Y278530D01*
X168756Y278455D01*
X168839Y278378D01*
X168919Y278298D01*
X168996Y278215D01*
X169071Y278129D01*
X169142Y278041D01*
X169210Y277951D01*
X169275Y277858D01*
X169337Y277763D01*
X169395Y277666D01*
X169450Y277567D01*
X169501Y277466D01*
X169549Y277363D01*
X169594Y277259D01*
X169634Y277153D01*
X169671Y277046D01*
X169704Y276938D01*
X169734Y276828D01*
X169759Y276718D01*
X169781Y276607D01*
X169798Y276495D01*
X169812Y276382D01*
X169822Y276269D01*
X169828Y276156D01*
X169830Y276043D01*
X175023Y276692D02*
X175023Y272797D01*
X175022Y276692D02*
X175020Y276793D01*
X175014Y276893D01*
X175004Y276993D01*
X174991Y277093D01*
X174973Y277192D01*
X174952Y277291D01*
X174927Y277388D01*
X174898Y277485D01*
X174865Y277580D01*
X174829Y277674D01*
X174789Y277766D01*
X174746Y277857D01*
X174699Y277946D01*
X174649Y278033D01*
X174595Y278119D01*
X174538Y278202D01*
X174478Y278282D01*
X174415Y278361D01*
X174348Y278437D01*
X174279Y278510D01*
X174207Y278580D01*
X174133Y278648D01*
X174056Y278713D01*
X173976Y278774D01*
X173894Y278833D01*
X173810Y278888D01*
X173724Y278940D01*
X173636Y278989D01*
X173546Y279034D01*
X173454Y279076D01*
X173361Y279114D01*
X173266Y279148D01*
X173171Y279179D01*
X173074Y279206D01*
X172976Y279229D01*
X172877Y279249D01*
X172777Y279264D01*
X172677Y279276D01*
X172577Y279284D01*
X172476Y279288D01*
X172376Y279288D01*
X172275Y279284D01*
X172175Y279276D01*
X172075Y279264D01*
X171975Y279249D01*
X171876Y279229D01*
X171778Y279206D01*
X171681Y279179D01*
X171586Y279148D01*
X171491Y279114D01*
X171398Y279076D01*
X171306Y279034D01*
X171216Y278989D01*
X171128Y278940D01*
X171042Y278888D01*
X170958Y278833D01*
X170876Y278774D01*
X170796Y278713D01*
X170719Y278648D01*
X170645Y278580D01*
X170573Y278510D01*
X170504Y278437D01*
X170437Y278361D01*
X170374Y278282D01*
X170314Y278202D01*
X170257Y278119D01*
X170203Y278033D01*
X170153Y277946D01*
X170106Y277857D01*
X170063Y277766D01*
X170023Y277674D01*
X169987Y277580D01*
X169954Y277485D01*
X169925Y277388D01*
X169900Y277291D01*
X169879Y277192D01*
X169861Y277093D01*
X169848Y276993D01*
X169838Y276893D01*
X169832Y276793D01*
X169830Y276692D01*
X169830Y274095D01*
M02*
