G04 EAGLE Gerber RS-274X export*
G75*
%MOMM*%
%FSLAX34Y34*%
%LPD*%
%INSoldermask Bottom*%
%IPPOS*%
%AMOC8*
5,1,8,0,0,1.08239X$1,22.5*%
G01*
%ADD10R,1.303200X1.203200*%
%ADD11R,2.993200X0.943200*%
%ADD12C,1.223200*%
%ADD13C,0.813200*%
%ADD14C,0.663200*%
%ADD15C,0.763200*%


D10*
X399597Y218077D03*
X399597Y201077D03*
D11*
X817850Y226060D03*
X858550Y226060D03*
X817850Y238760D03*
X858550Y238760D03*
X817850Y251460D03*
X858550Y251460D03*
X817850Y264160D03*
X858550Y264160D03*
X817850Y276860D03*
X858550Y276860D03*
X817850Y289560D03*
X858550Y289560D03*
X817850Y302260D03*
X858550Y302260D03*
X817850Y314960D03*
X858550Y314960D03*
D12*
X838200Y232410D03*
X838200Y308610D03*
D11*
X194280Y143510D03*
X234980Y143510D03*
X194280Y156210D03*
X234980Y156210D03*
X194280Y168910D03*
X234980Y168910D03*
X194280Y181610D03*
X234980Y181610D03*
X194280Y194310D03*
X234980Y194310D03*
X194280Y207010D03*
X234980Y207010D03*
X194280Y219710D03*
X234980Y219710D03*
X194280Y232410D03*
X234980Y232410D03*
X194280Y245110D03*
X234980Y245110D03*
X194280Y257810D03*
X234980Y257810D03*
X194280Y270510D03*
X234980Y270510D03*
X194280Y283210D03*
X234980Y283210D03*
X194280Y295910D03*
X234980Y295910D03*
X194280Y308610D03*
X234980Y308610D03*
X194280Y321310D03*
X234980Y321310D03*
X194280Y334010D03*
X234980Y334010D03*
X194280Y346710D03*
X234980Y346710D03*
X194280Y359410D03*
X234980Y359410D03*
X194280Y372110D03*
X234980Y372110D03*
X194280Y384810D03*
X234980Y384810D03*
D13*
X219621Y156253D03*
X482518Y452399D03*
X594147Y455722D03*
X378536Y469401D03*
X379618Y483929D03*
X438793Y288410D03*
X439102Y275736D03*
X355339Y301615D03*
X488484Y177578D03*
X543738Y118242D03*
X430821Y94646D03*
X451809Y95161D03*
X422163Y14308D03*
X672575Y302897D03*
X254005Y155958D03*
X490474Y438150D03*
X523240Y391922D03*
X523240Y404622D03*
X601218Y469900D03*
X491490Y164592D03*
X563372Y105918D03*
X394716Y14732D03*
X682752Y303022D03*
X320548Y257556D03*
X332740Y257556D03*
D14*
X346202Y228600D03*
X346202Y236982D03*
D13*
X485958Y141905D03*
X758012Y75252D03*
X207345Y385629D03*
X206612Y371698D03*
X205271Y359091D03*
X205092Y346483D03*
X205182Y333876D03*
X205808Y320821D03*
X206433Y308661D03*
X205940Y295660D03*
X205940Y283428D03*
X205808Y270302D03*
X206165Y257515D03*
X207149Y244461D03*
X206523Y232032D03*
X207417Y219335D03*
X207685Y206638D03*
X207596Y193852D03*
X207372Y181110D03*
X207654Y168626D03*
X208222Y155940D03*
X209105Y143350D03*
X220907Y143243D03*
X414083Y483661D03*
X415113Y467565D03*
X441208Y454318D03*
X456943Y450384D03*
X451132Y435898D03*
X339913Y462991D03*
X352609Y462544D03*
X326950Y462276D03*
X314165Y462455D03*
X314791Y346841D03*
X327218Y368837D03*
X364946Y369999D03*
X464365Y396678D03*
X501231Y367846D03*
X521158Y367101D03*
X520836Y448535D03*
X501988Y449280D03*
X348424Y261663D03*
X330164Y211235D03*
X322938Y48070D03*
X353605Y33029D03*
X611338Y109197D03*
X647641Y277008D03*
X649042Y294401D03*
X781217Y170622D03*
X801631Y171814D03*
X714873Y135196D03*
X448680Y145389D03*
X598932Y439674D03*
X690626Y172720D03*
X605282Y229108D03*
X519684Y91186D03*
X239014Y98552D03*
X292354Y75184D03*
X247904Y51054D03*
X401574Y85852D03*
X464058Y123190D03*
X546100Y247904D03*
X498602Y299720D03*
X539242Y334772D03*
X583692Y305308D03*
X658368Y152146D03*
X655828Y26670D03*
X845820Y155194D03*
X582168Y391414D03*
X542798Y504698D03*
X465328Y499872D03*
X282702Y406908D03*
X249682Y452120D03*
X381762Y406654D03*
X301244Y265938D03*
X481076Y412242D03*
X423164Y455168D03*
X592582Y431546D03*
X469392Y141986D03*
X508254Y100076D03*
X613918Y138684D03*
X363220Y25400D03*
X322326Y60452D03*
X605790Y246380D03*
X696976Y158750D03*
X709168Y122682D03*
X685292Y267462D03*
X687578Y255270D03*
X750316Y271780D03*
X751332Y256286D03*
X347218Y251206D03*
D14*
X329184Y201930D03*
X184404Y384810D03*
X181864Y371856D03*
X181610Y359156D03*
X179324Y345948D03*
X179070Y332994D03*
X178054Y320802D03*
X177927Y308229D03*
X176784Y295402D03*
X177292Y282702D03*
X176530Y269748D03*
X176530Y257556D03*
X176530Y244602D03*
X176403Y231775D03*
X176784Y218186D03*
X178054Y206502D03*
X177546Y193802D03*
X177292Y180848D03*
X176530Y168402D03*
X175768Y156210D03*
X178975Y144331D03*
X246126Y143510D03*
D13*
X849617Y314920D03*
X848037Y301264D03*
X845218Y289383D03*
X845111Y276507D03*
X845004Y263417D03*
X844735Y250273D03*
X848048Y239744D03*
X848851Y225878D03*
X652283Y394037D03*
X650867Y372146D03*
X684659Y403982D03*
X751973Y406958D03*
X741898Y392105D03*
X684022Y416814D03*
X781304Y456438D03*
X831850Y370332D03*
X669798Y485902D03*
X766572Y378206D03*
X790702Y220218D03*
X694944Y413004D03*
X791972Y469392D03*
D14*
X873760Y238760D03*
X874268Y226060D03*
X874268Y251206D03*
X873760Y264414D03*
X874522Y277114D03*
X873252Y290576D03*
X873252Y302006D03*
X872490Y315468D03*
D13*
X488806Y206334D03*
X603098Y206290D03*
X505758Y195988D03*
X585175Y195868D03*
X830949Y289919D03*
X749705Y454417D03*
X832129Y276078D03*
X396326Y308119D03*
X328384Y326927D03*
X222258Y371698D03*
X409876Y314609D03*
X422524Y314737D03*
X335029Y338825D03*
X221811Y384842D03*
X357378Y338074D03*
X361422Y265373D03*
X389047Y211861D03*
X223160Y295928D03*
X221336Y282730D03*
X422723Y222489D03*
X339535Y283713D03*
X220470Y320911D03*
X219933Y181423D03*
X827421Y315014D03*
D14*
X811784Y321056D03*
D13*
X831271Y263953D03*
D14*
X802386Y263906D03*
D13*
X830841Y251292D03*
X828450Y239843D03*
X829042Y224385D03*
D14*
X803656Y225806D03*
X799592Y239014D03*
D13*
X222731Y270606D03*
X222079Y257694D03*
X431231Y229932D03*
X333281Y295687D03*
X221811Y333965D03*
X219964Y194310D03*
X222347Y244371D03*
X222616Y232300D03*
X222705Y219156D03*
X223510Y207175D03*
X413251Y216263D03*
X323894Y278963D03*
X221632Y308214D03*
X422664Y270690D03*
X337225Y317555D03*
X222347Y358823D03*
X430988Y258067D03*
X323527Y305391D03*
X222347Y347020D03*
D15*
X336544Y89720D03*
D14*
X364490Y220472D03*
D13*
X571041Y124869D03*
X442356Y177971D03*
X680745Y124869D03*
X219978Y168771D03*
D14*
X251714Y169672D03*
D13*
X827408Y301615D03*
D14*
X807466Y302514D03*
M02*
