M48
;GenerationSoftware,Autodesk,EAGLE,9.6.2*%
;CreationDate,2021-02-19T23:10:46Z*%
FMAT,2
ICI,OFF
METRIC,TZ,000.000
T2C0.350
T1C1.020
%
G90
M71
T1
X83820Y30861
X83820Y23241
T2
X42298Y18030
X43318Y18111
X22133Y15576
X25096Y15498
X41291Y6695
X42478Y6640
X42158Y35464
X43300Y35432
X30054Y17357
X28814Y18308
X59114Y21247
X58995Y22685
X59205Y26752
X59271Y28058
X59205Y30445
X59035Y23661
X58916Y24888
X33296Y6318
X33227Y7934
X34015Y8663
X34031Y9790
X44829Y6908
X44614Y7858
X39156Y18031
X40553Y18077
X45036Y17714
X45062Y16852
X34920Y34472
X34818Y36007
X35710Y36962
X35664Y38203
X44840Y35534
X44788Y36543
X38431Y47115
X39410Y47163
X44954Y46853
X44865Y45989
X49034Y42081
X49126Y13574
X65008Y44239
X65237Y45098
X64954Y43387
X65295Y37069
X65273Y36087
X65218Y35138
X65356Y14582
X65282Y15624
X65308Y16592
X64917Y8362
X65323Y7588
X65272Y6599
X20897Y38480
X21008Y37190
X20909Y35933
X20864Y34686
X20886Y33330
X20842Y32061
X20875Y30859
X20947Y29596
X20969Y28284
X20953Y27021
X20859Y25791
X20820Y24495
X20820Y23260
X20832Y21927
X20906Y20696
X20782Y19350
X20763Y18155
X20749Y16928
X20528Y15634
X20693Y14277
X22276Y14360
X26010Y44345
X43650Y29261
X31658Y18474
X41873Y26359
X27487Y8130
X24041Y4845
X29978Y37231
X35610Y41471
X44234Y42232
X62522Y24882
X69332Y14864
X76306Y6323
X75322Y40978
X68758Y35804
X81639Y41389
X70727Y48205
X58419Y50340
X59259Y29117
X67649Y44279
X67262Y45081
X67418Y43372
X67321Y37071
X67294Y36045
X67256Y35094
X67342Y16611
X67335Y15581
X67369Y14662
X67260Y6578
X67254Y7567
X67637Y8355
X18223Y37228
X18152Y35877
X18196Y34642
X17975Y33319
X17964Y32061
X18092Y30802
X17906Y29557
X17973Y28260
X17867Y27029
X17840Y25666
X17827Y24461
X17860Y23171
X17867Y21920
X17853Y20676
X17800Y19392
X17814Y18161
X17701Y16870
X17748Y15593
X18006Y14355
X24735Y14346
X18338Y38481
X70101Y21410
X69033Y22175
X63111Y18585
X71387Y21363
X72669Y22172
X63236Y9576
X67457Y4553
X41452Y28462
X22327Y29518
X36404Y27207
X22327Y28247
X39573Y29351
X22237Y32086
X36031Y5478
X25000Y18094
X22234Y27109
X38122Y26498
X22232Y25775
X33987Y45162
X22174Y33340
X22070Y19429
X71377Y29431
X72536Y29450
X62883Y42080
X67229Y47081
X70011Y29324
X68875Y29603
X62993Y33080
X39605Y23668
X22287Y24529
X36551Y19360
X22082Y23232
X22220Y22001
X33966Y20653
X22174Y20687
X80352Y31494
X82980Y31963
X80508Y30235
X83070Y29893
X80416Y26412
X83228Y26412
X80379Y25107
X80389Y23839
X80490Y22617
X83210Y25162
X83001Y24158
X82998Y22249
X80425Y28912
X83347Y28783
X80526Y27699
X83251Y27621
X87189Y22589
X87216Y23885
X87198Y25107
X87133Y26412
X41859Y47411
X87175Y29008
X87225Y30208
X87161Y31485
X79606Y20819
X79002Y32767
X85130Y32000
X85511Y29899
X84457Y28811
X84361Y27708
X84358Y26467
X84441Y25135
X84571Y24208
X84570Y22194
X22222Y30847
X25128Y30910
X22317Y35929
X25059Y35952
X22349Y34659
X25188Y34729
X55487Y21247
X55566Y22633
X55553Y23530
X55566Y24915
X56220Y34593
X55235Y34584
X54250Y34593
X53090Y34584
X51894Y34575
X65427Y40054
X87189Y27708
X52900Y45560
X54055Y45573
X55159Y45592
X56231Y45605
X49486Y27535
X49118Y23835
X53034Y16825
X52032Y16862
X56123Y16879
X54001Y16867
X55020Y16880
X51955Y6268
X53240Y6287
X54306Y6280
X55315Y6266
X56312Y6294
X65436Y11590
X22265Y16919
X67258Y40068
X67557Y11564
X55201Y28393
X55241Y26778
X55254Y29399
X55201Y30524
X22364Y37248
X25064Y37215
X22237Y38519
X24857Y38470
X42822Y47327
X51744Y45567
M30