M48
;GenerationSoftware,Autodesk,EAGLE,9.6.2*%
;CreationDate,2021-06-01T17:20:45Z*%
FMAT,2
ICI,OFF
METRIC,TZ,000.000
T2C0.350
T1C1.016
%
G90
M71
T1
X25189Y2540
X17569Y2540
X20109Y2540
X22649Y2540
T2
X31700Y34387
X19650Y34085
X21508Y34406
X28413Y26359
X28377Y25227
X29426Y26451
X30360Y26363
X20670Y24950
X8609Y14068
X7209Y13985
X14686Y14215
X13387Y14160
X20972Y14416
X19715Y14320
X7045Y13149
X6932Y12216
X13292Y13254
X13152Y12295
X19507Y13439
X19405Y12480
X28778Y14046
X28174Y13258
X15785Y30375
X15801Y29261
X20607Y26533
X1801Y41033
X4508Y40989
X6939Y41044
X9613Y41011
X11690Y41000
X14309Y41089
X27640Y32629
X26029Y28495
X25007Y26709
X25062Y25024
X24026Y26686
X23884Y25042
X1189Y19615
X1323Y17914
X7694Y19677
X7628Y18087
X8695Y17444
X8738Y16287
X14814Y16296
X14953Y17419
X13710Y18248
X13664Y19739
X10381Y16894
X4189Y16784
X16530Y17151
X21153Y17930
X19734Y18160
X29888Y14085
X31762Y14043
X33782Y14074
X35733Y13967
X16043Y32589
X15831Y31485
X22537Y10915
X38520Y4687
X12907Y7098
X17855Y8169
X5484Y3281
X1538Y14196
X5149Y26852
X29979Y9992
X15649Y26718
X17120Y35557
X27338Y37815
X34574Y32678
X28689Y33615
X36580Y27120
X24131Y34763
X26749Y20908
X29850Y22437
X12376Y30613
X11235Y25044
X2890Y30693
X20900Y7109
X25951Y6983
X19893Y6233
X24983Y6210
X18862Y5247
X24417Y5247
X37479Y32272
X38716Y34681
X28887Y35085
X8595Y30636
M30