G04 EAGLE Gerber RS-274X export*
G75*
%MOMM*%
%FSLAX34Y34*%
%LPD*%
%INSilkscreen Bottom*%
%IPPOS*%
%AMOC8*
5,1,8,0,0,1.08239X$1,22.5*%
G01*
%ADD10R,25.400000X0.063500*%
%ADD11R,25.527000X0.063500*%
%ADD12R,25.463500X0.063500*%
%ADD13R,2.857500X0.063500*%
%ADD14R,1.841500X0.063500*%
%ADD15R,1.333500X0.063500*%
%ADD16R,1.968500X0.063500*%
%ADD17R,0.571500X0.063500*%
%ADD18R,2.730500X0.063500*%
%ADD19R,3.873500X0.063500*%
%ADD20R,0.952500X0.063500*%
%ADD21R,2.476500X0.063500*%
%ADD22R,1.905000X0.063500*%
%ADD23R,1.270000X0.063500*%
%ADD24R,2.032000X0.063500*%
%ADD25R,0.444500X0.063500*%
%ADD26R,2.413000X0.063500*%
%ADD27R,3.175000X0.063500*%
%ADD28R,2.222500X0.063500*%
%ADD29R,1.143000X0.063500*%
%ADD30R,0.381000X0.063500*%
%ADD31R,2.349500X0.063500*%
%ADD32R,2.921000X0.063500*%
%ADD33R,1.016000X0.063500*%
%ADD34R,2.095500X0.063500*%
%ADD35R,1.079500X0.063500*%
%ADD36R,0.317500X0.063500*%
%ADD37R,2.286000X0.063500*%
%ADD38R,2.159000X0.063500*%
%ADD39R,0.254000X0.063500*%
%ADD40R,2.603500X0.063500*%
%ADD41R,0.889000X0.063500*%
%ADD42R,1.778000X0.063500*%
%ADD43R,0.825500X0.063500*%
%ADD44R,0.190500X0.063500*%
%ADD45R,1.714500X0.063500*%
%ADD46R,0.698500X0.063500*%
%ADD47R,0.063500X0.063500*%
%ADD48R,1.651000X0.063500*%
%ADD49R,1.524000X0.063500*%
%ADD50R,2.540000X0.063500*%
%ADD51R,0.508000X0.063500*%
%ADD52R,2.667000X0.063500*%
%ADD53R,0.635000X0.063500*%
%ADD54R,1.460500X0.063500*%
%ADD55R,1.206500X0.063500*%
%ADD56R,1.397000X0.063500*%
%ADD57R,2.794000X0.063500*%
%ADD58R,0.127000X0.063500*%
%ADD59R,2.984500X0.063500*%
%ADD60R,0.762000X0.063500*%
%ADD61R,1.587500X0.063500*%
%ADD62R,3.048000X0.063500*%
%ADD63R,3.111500X0.063500*%
%ADD64R,3.302000X0.063500*%
%ADD65R,3.429000X0.063500*%
%ADD66R,3.238500X0.063500*%
%ADD67R,3.619500X0.063500*%
%ADD68R,3.937000X0.063500*%
%ADD69R,3.683000X0.063500*%
%ADD70R,4.127500X0.063500*%
%ADD71R,4.254500X0.063500*%
%ADD72R,4.445000X0.063500*%
%ADD73R,4.572000X0.063500*%
%ADD74R,4.699000X0.063500*%
%ADD75R,4.635500X0.063500*%
%ADD76R,4.762500X0.063500*%
%ADD77R,4.826000X0.063500*%
%ADD78R,4.953000X0.063500*%
%ADD79R,5.080000X0.063500*%
%ADD80R,5.016500X0.063500*%
%ADD81R,5.143500X0.063500*%
%ADD82R,5.207000X0.063500*%
%ADD83R,5.270500X0.063500*%
%ADD84R,5.334000X0.063500*%
%ADD85R,3.810000X0.063500*%
%ADD86R,4.191000X0.063500*%
%ADD87R,4.508500X0.063500*%
%ADD88R,4.889500X0.063500*%
%ADD89R,3.492500X0.063500*%
%ADD90R,3.365500X0.063500*%
%ADD91R,5.397500X0.063500*%
%ADD92R,4.381500X0.063500*%
%ADD93R,4.000500X0.063500*%
%ADD94R,4.064000X0.063500*%
%ADD95R,3.556000X0.063500*%
%ADD96R,3.746500X0.063500*%
%ADD97R,4.318000X0.063500*%
%ADD98R,5.651500X0.063500*%
%ADD99R,5.905500X0.063500*%
%ADD100R,6.286500X0.063500*%
%ADD101R,6.604000X0.063500*%
%ADD102R,6.985000X0.063500*%
%ADD103R,7.239000X0.063500*%
%ADD104R,7.493000X0.063500*%
%ADD105R,7.683500X0.063500*%
%ADD106R,7.937500X0.063500*%
%ADD107R,8.191500X0.063500*%
%ADD108R,6.921500X0.063500*%
%ADD109R,6.667500X0.063500*%
%ADD110R,6.540500X0.063500*%
%ADD111R,6.413500X0.063500*%
%ADD112R,6.477000X0.063500*%
%ADD113R,6.350000X0.063500*%
%ADD114R,6.223000X0.063500*%
%ADD115R,6.159500X0.063500*%
%ADD116R,6.096000X0.063500*%
%ADD117R,5.842000X0.063500*%
%ADD118R,5.524500X0.063500*%
%ADD119R,5.461000X0.063500*%
%ADD120R,5.715000X0.063500*%
%ADD121R,6.794500X0.063500*%
%ADD122R,7.175500X0.063500*%
%ADD123R,7.429500X0.063500*%
%ADD124R,7.620000X0.063500*%
%ADD125R,7.874000X0.063500*%
%ADD126R,8.001000X0.063500*%
%ADD127R,8.128000X0.063500*%
%ADD128R,5.778500X0.063500*%
%ADD129R,31.305500X0.063500*%
%ADD130R,31.432500X0.063500*%
%ADD131R,31.559500X0.063500*%
%ADD132R,31.623000X0.063500*%
%ADD133R,31.750000X0.063500*%
%ADD134R,31.813500X0.063500*%
%ADD135R,31.940500X0.063500*%
%ADD136R,32.067500X0.063500*%
%ADD137R,32.194500X0.063500*%
%ADD138R,32.258000X0.063500*%
%ADD139R,32.321500X0.063500*%
%ADD140R,32.448500X0.063500*%
%ADD141R,32.512000X0.063500*%
%ADD142R,34.988500X0.063500*%
%ADD143R,35.052000X0.063500*%
%ADD144R,35.179000X0.063500*%
%ADD145R,35.306000X0.063500*%
%ADD146C,0.100000*%
%ADD147C,0.200000*%
%ADD148C,0.101600*%


D10*
X508318Y102870D03*
D11*
X508318Y103505D03*
D12*
X508635Y104140D03*
X508635Y104775D03*
X508635Y105410D03*
X508635Y106045D03*
X508635Y106680D03*
X508635Y107315D03*
X508635Y107950D03*
X508635Y108585D03*
X508635Y109220D03*
X508635Y109855D03*
D13*
X395605Y110490D03*
D14*
X433705Y110490D03*
D15*
X459105Y110490D03*
D16*
X484505Y110490D03*
D17*
X504825Y110490D03*
D18*
X541020Y110490D03*
D19*
X582930Y110490D03*
D20*
X631190Y110490D03*
D21*
X393700Y111125D03*
D22*
X434023Y111125D03*
D23*
X459423Y111125D03*
D24*
X484188Y111125D03*
D25*
X504825Y111125D03*
D26*
X539433Y111125D03*
D27*
X583248Y111125D03*
D20*
X631190Y111125D03*
D28*
X392430Y111760D03*
D24*
X434023Y111760D03*
D29*
X459423Y111760D03*
D24*
X484188Y111760D03*
D30*
X504508Y111760D03*
D31*
X538480Y111760D03*
D32*
X583248Y111760D03*
D33*
X630873Y111760D03*
D34*
X391795Y112395D03*
X434340Y112395D03*
D35*
X459740Y112395D03*
D24*
X484188Y112395D03*
D36*
X504190Y112395D03*
D37*
X537528Y112395D03*
D18*
X583565Y112395D03*
D33*
X630873Y112395D03*
D16*
X391160Y113030D03*
D38*
X434023Y113030D03*
D33*
X460058Y113030D03*
D34*
X483870Y113030D03*
D39*
X503873Y113030D03*
D28*
X536575Y113030D03*
D40*
X583565Y113030D03*
D33*
X630873Y113030D03*
D14*
X390525Y113665D03*
D28*
X434340Y113665D03*
D41*
X460058Y113665D03*
D38*
X484188Y113665D03*
D39*
X503873Y113665D03*
D38*
X536258Y113665D03*
D21*
X583565Y113665D03*
D35*
X630555Y113665D03*
D42*
X390208Y114300D03*
D37*
X434658Y114300D03*
D43*
X460375Y114300D03*
D28*
X483870Y114300D03*
D44*
X503555Y114300D03*
D38*
X535623Y114300D03*
D26*
X583883Y114300D03*
D35*
X630555Y114300D03*
D45*
X389890Y114935D03*
D26*
X434658Y114935D03*
D46*
X460375Y114935D03*
D28*
X483870Y114935D03*
D47*
X503555Y114935D03*
D38*
X534988Y114935D03*
D37*
X583883Y114935D03*
D35*
X630555Y114935D03*
D48*
X389573Y115570D03*
D21*
X434975Y115570D03*
D17*
X461010Y115570D03*
D28*
X483870Y115570D03*
D38*
X534353Y115570D03*
D37*
X583883Y115570D03*
D29*
X630238Y115570D03*
D49*
X388938Y116205D03*
D50*
X435293Y116205D03*
D51*
X461328Y116205D03*
D37*
X483553Y116205D03*
D34*
X534035Y116205D03*
D28*
X583565Y116205D03*
D29*
X630238Y116205D03*
D49*
X388938Y116840D03*
D30*
X411163Y116840D03*
D52*
X435293Y116840D03*
D30*
X461328Y116840D03*
D37*
X483553Y116840D03*
D33*
X508318Y116840D03*
D34*
X533400Y116840D03*
D53*
X558483Y116840D03*
D28*
X583565Y116840D03*
D35*
X610235Y116840D03*
D29*
X630238Y116840D03*
D54*
X388620Y117475D03*
D51*
X410528Y117475D03*
D18*
X435610Y117475D03*
D36*
X461645Y117475D03*
D37*
X483553Y117475D03*
D20*
X508000Y117475D03*
D34*
X532765Y117475D03*
D43*
X558165Y117475D03*
D34*
X583565Y117475D03*
D29*
X609918Y117475D03*
D55*
X629920Y117475D03*
D56*
X388303Y118110D03*
D53*
X409893Y118110D03*
D57*
X435928Y118110D03*
D39*
X461963Y118110D03*
D26*
X483553Y118110D03*
D41*
X507683Y118110D03*
D38*
X532448Y118110D03*
D20*
X558165Y118110D03*
D34*
X583565Y118110D03*
D29*
X609283Y118110D03*
D55*
X629920Y118110D03*
D15*
X387985Y118745D03*
D46*
X408940Y118745D03*
D32*
X435928Y118745D03*
D58*
X461963Y118745D03*
D26*
X483553Y118745D03*
D41*
X507683Y118745D03*
D38*
X531813Y118745D03*
D29*
X557848Y118745D03*
D34*
X583565Y118745D03*
D55*
X608965Y118745D03*
D23*
X629603Y118745D03*
X387668Y119380D03*
D43*
X408305Y119380D03*
D59*
X436245Y119380D03*
D26*
X483553Y119380D03*
D60*
X507683Y119380D03*
D38*
X531813Y119380D03*
D55*
X557530Y119380D03*
D34*
X583565Y119380D03*
D29*
X608648Y119380D03*
D23*
X629603Y119380D03*
X387668Y120015D03*
D41*
X407988Y120015D03*
D59*
X435610Y120015D03*
D21*
X483235Y120015D03*
D46*
X507365Y120015D03*
D38*
X531178Y120015D03*
D15*
X557530Y120015D03*
D34*
X583565Y120015D03*
D23*
X629603Y120015D03*
D55*
X387350Y120650D03*
D41*
X407353Y120650D03*
D50*
X433388Y120650D03*
D21*
X483235Y120650D03*
D53*
X507048Y120650D03*
D28*
X530860Y120650D03*
D15*
X557530Y120650D03*
D34*
X583565Y120650D03*
D15*
X629285Y120650D03*
D29*
X387033Y121285D03*
D20*
X407035Y121285D03*
D31*
X432435Y121285D03*
D50*
X482918Y121285D03*
D53*
X507048Y121285D03*
D28*
X530225Y121285D03*
D56*
X557213Y121285D03*
D38*
X583883Y121285D03*
D15*
X629285Y121285D03*
D29*
X387033Y121920D03*
D33*
X406718Y121920D03*
D37*
X431483Y121920D03*
D47*
X461010Y121920D03*
D40*
X483235Y121920D03*
D17*
X506730Y121920D03*
D28*
X530225Y121920D03*
D56*
X557213Y121920D03*
D28*
X583565Y121920D03*
D47*
X613410Y121920D03*
D15*
X629285Y121920D03*
D35*
X386715Y122555D03*
D33*
X406083Y122555D03*
D28*
X431165Y122555D03*
D58*
X460693Y122555D03*
D40*
X483235Y122555D03*
D51*
X506413Y122555D03*
D37*
X529908Y122555D03*
D54*
X556895Y122555D03*
D37*
X583883Y122555D03*
D58*
X613093Y122555D03*
D56*
X628968Y122555D03*
D33*
X386398Y123190D03*
X406083Y123190D03*
D38*
X430848Y123190D03*
D44*
X460375Y123190D03*
D52*
X482918Y123190D03*
D25*
X506095Y123190D03*
D31*
X529590Y123190D03*
D54*
X556895Y123190D03*
D38*
X583248Y123190D03*
D58*
X612458Y123190D03*
D56*
X628968Y123190D03*
D33*
X386398Y123825D03*
X405448Y123825D03*
D38*
X430213Y123825D03*
D44*
X459740Y123825D03*
D52*
X482918Y123825D03*
D30*
X506413Y123825D03*
D31*
X528955Y123825D03*
D56*
X556578Y123825D03*
D34*
X582930Y123825D03*
D39*
X611823Y123825D03*
D56*
X628968Y123825D03*
D20*
X386080Y124460D03*
D35*
X405130Y124460D03*
D34*
X429895Y124460D03*
D39*
X459423Y124460D03*
D52*
X482918Y124460D03*
D36*
X506095Y124460D03*
D26*
X528638Y124460D03*
D56*
X556578Y124460D03*
D34*
X582295Y124460D03*
D36*
X611505Y124460D03*
D54*
X628650Y124460D03*
D20*
X386080Y125095D03*
D35*
X405130Y125095D03*
D24*
X429578Y125095D03*
D36*
X459105Y125095D03*
D18*
X482600Y125095D03*
D39*
X505778Y125095D03*
D26*
X528638Y125095D03*
D15*
X556260Y125095D03*
D34*
X582295Y125095D03*
D36*
X610870Y125095D03*
D54*
X628650Y125095D03*
D20*
X386080Y125730D03*
D33*
X404813Y125730D03*
D34*
X429260Y125730D03*
D35*
X454660Y125730D03*
D18*
X482600Y125730D03*
D44*
X505460Y125730D03*
D21*
X528320Y125730D03*
D15*
X556260Y125730D03*
D24*
X581978Y125730D03*
D29*
X606743Y125730D03*
D49*
X628333Y125730D03*
D41*
X385763Y126365D03*
D35*
X404495Y126365D03*
D34*
X429260Y126365D03*
D29*
X454343Y126365D03*
D57*
X482918Y126365D03*
D44*
X505460Y126365D03*
D50*
X528003Y126365D03*
D23*
X555943Y126365D03*
D24*
X581343Y126365D03*
D29*
X606108Y126365D03*
D49*
X628333Y126365D03*
D41*
X385763Y127000D03*
D35*
X404495Y127000D03*
D38*
X428943Y127000D03*
D29*
X454343Y127000D03*
D13*
X482600Y127000D03*
D58*
X505143Y127000D03*
D40*
X527685Y127000D03*
D55*
X555625Y127000D03*
D24*
X581343Y127000D03*
D29*
X606108Y127000D03*
D49*
X628333Y127000D03*
D41*
X385763Y127635D03*
D33*
X404178Y127635D03*
D38*
X428943Y127635D03*
D29*
X453708Y127635D03*
D13*
X482600Y127635D03*
D52*
X527368Y127635D03*
D33*
X555308Y127635D03*
D34*
X581025Y127635D03*
D29*
X606108Y127635D03*
D61*
X628015Y127635D03*
D41*
X385763Y128270D03*
D20*
X404495Y128270D03*
D38*
X428943Y128270D03*
D29*
X453708Y128270D03*
D32*
X482283Y128270D03*
D52*
X527368Y128270D03*
D41*
X555308Y128270D03*
D38*
X580708Y128270D03*
D35*
X605790Y128270D03*
D61*
X628015Y128270D03*
D43*
X385445Y128905D03*
X404495Y128905D03*
D28*
X428625Y128905D03*
D33*
X453708Y128905D03*
D32*
X482283Y128905D03*
D18*
X527050Y128905D03*
D53*
X555308Y128905D03*
D38*
X580708Y128905D03*
D33*
X606108Y128905D03*
D61*
X628015Y128905D03*
D43*
X385445Y129540D03*
D28*
X428625Y129540D03*
D32*
X482283Y129540D03*
D13*
X527050Y129540D03*
D28*
X580390Y129540D03*
D48*
X627698Y129540D03*
D43*
X385445Y130175D03*
D28*
X428625Y130175D03*
D62*
X482283Y130175D03*
D32*
X526733Y130175D03*
D37*
X580073Y130175D03*
D48*
X627698Y130175D03*
D41*
X385763Y130810D03*
D37*
X428308Y130810D03*
D62*
X482283Y130810D03*
D32*
X526733Y130810D03*
D31*
X579755Y130810D03*
D48*
X627698Y130810D03*
D41*
X385763Y131445D03*
D37*
X428308Y131445D03*
D62*
X482283Y131445D03*
X526733Y131445D03*
D26*
X579438Y131445D03*
D45*
X627380Y131445D03*
D41*
X385763Y132080D03*
D31*
X428625Y132080D03*
D63*
X481965Y132080D03*
D27*
X526733Y132080D03*
D40*
X579120Y132080D03*
D45*
X627380Y132080D03*
D41*
X385763Y132715D03*
D26*
X428308Y132715D03*
D27*
X482283Y132715D03*
D64*
X526733Y132715D03*
D52*
X578803Y132715D03*
D42*
X627063Y132715D03*
D20*
X386080Y133350D03*
D21*
X428625Y133350D03*
D27*
X482283Y133350D03*
D65*
X526733Y133350D03*
D13*
X578485Y133350D03*
D42*
X627063Y133350D03*
D33*
X386398Y133985D03*
D40*
X428625Y133985D03*
D66*
X481965Y133985D03*
D67*
X527050Y133985D03*
D59*
X577850Y133985D03*
D42*
X627063Y133985D03*
D29*
X387033Y134620D03*
D52*
X428943Y134620D03*
D64*
X482283Y134620D03*
D68*
X528003Y134620D03*
D66*
X577850Y134620D03*
D14*
X626745Y134620D03*
D12*
X508635Y135255D03*
X508635Y135890D03*
X508635Y136525D03*
X508635Y137160D03*
X508635Y137795D03*
X508635Y138430D03*
X508635Y139065D03*
X508635Y139700D03*
X508635Y140335D03*
X508635Y140970D03*
X508635Y141605D03*
D11*
X508318Y142240D03*
D12*
X508635Y142875D03*
D10*
X508318Y143510D03*
D22*
X345758Y151130D03*
D45*
X388620Y151130D03*
D61*
X437515Y151130D03*
D45*
X507365Y151130D03*
D49*
X567373Y151130D03*
D45*
X625475Y151130D03*
D17*
X651510Y151130D03*
D48*
X677228Y151130D03*
D22*
X346393Y151765D03*
D45*
X388620Y151765D03*
D28*
X438150Y151765D03*
D45*
X507365Y151765D03*
D38*
X568008Y151765D03*
D45*
X625475Y151765D03*
D53*
X651193Y151765D03*
D45*
X676910Y151765D03*
D22*
X347028Y152400D03*
D45*
X387985Y152400D03*
D18*
X438150Y152400D03*
D48*
X507048Y152400D03*
D18*
X568325Y152400D03*
D45*
X624840Y152400D03*
D60*
X651193Y152400D03*
D45*
X676910Y152400D03*
D22*
X347663Y153035D03*
D45*
X387985Y153035D03*
D27*
X438468Y153035D03*
D45*
X506730Y153035D03*
D63*
X568325Y153035D03*
D45*
X624840Y153035D03*
D43*
X650875Y153035D03*
D45*
X676910Y153035D03*
D22*
X348298Y153670D03*
D45*
X387985Y153670D03*
D65*
X438468Y153670D03*
D45*
X506730Y153670D03*
D65*
X568643Y153670D03*
D45*
X624840Y153670D03*
D41*
X650558Y153670D03*
D45*
X676275Y153670D03*
D22*
X348933Y154305D03*
D45*
X387350Y154305D03*
D69*
X438468Y154305D03*
D45*
X506095Y154305D03*
D69*
X568643Y154305D03*
D45*
X624205Y154305D03*
D20*
X650240Y154305D03*
D45*
X676275Y154305D03*
D22*
X349568Y154940D03*
D45*
X387350Y154940D03*
D68*
X438468Y154940D03*
D45*
X506095Y154940D03*
D19*
X568325Y154940D03*
D45*
X624205Y154940D03*
D33*
X649923Y154940D03*
D45*
X676275Y154940D03*
D22*
X350203Y155575D03*
D48*
X387033Y155575D03*
D70*
X438150Y155575D03*
D45*
X506095Y155575D03*
D70*
X568325Y155575D03*
D48*
X623888Y155575D03*
D35*
X649605Y155575D03*
D45*
X675640Y155575D03*
D16*
X351155Y156210D03*
D45*
X386715Y156210D03*
D71*
X438150Y156210D03*
D45*
X505460Y156210D03*
D71*
X568325Y156210D03*
D45*
X623570Y156210D03*
D55*
X649605Y156210D03*
D45*
X675640Y156210D03*
D16*
X351790Y156845D03*
D45*
X386715Y156845D03*
D72*
X437833Y156845D03*
D45*
X505460Y156845D03*
D72*
X568008Y156845D03*
D45*
X623570Y156845D03*
D23*
X649288Y156845D03*
D48*
X675323Y156845D03*
D16*
X352425Y157480D03*
D48*
X386398Y157480D03*
D73*
X437833Y157480D03*
D48*
X505143Y157480D03*
D73*
X568008Y157480D03*
D48*
X623253Y157480D03*
D15*
X648970Y157480D03*
D45*
X675005Y157480D03*
D16*
X353060Y158115D03*
D45*
X386080Y158115D03*
D74*
X437833Y158115D03*
D45*
X504825Y158115D03*
D75*
X567690Y158115D03*
D45*
X622935Y158115D03*
D15*
X648970Y158115D03*
D45*
X675005Y158115D03*
D24*
X353378Y158750D03*
D45*
X386080Y158750D03*
D76*
X437515Y158750D03*
D45*
X504825Y158750D03*
D77*
X567373Y158750D03*
D45*
X622935Y158750D03*
D56*
X648653Y158750D03*
D45*
X674370Y158750D03*
D24*
X354013Y159385D03*
D45*
X385445Y159385D03*
D78*
X437198Y159385D03*
D45*
X504190Y159385D03*
D78*
X567373Y159385D03*
D45*
X622300Y159385D03*
D49*
X648653Y159385D03*
D45*
X674370Y159385D03*
D24*
X354648Y160020D03*
D45*
X385445Y160020D03*
D79*
X437198Y160020D03*
D45*
X504190Y160020D03*
D80*
X567055Y160020D03*
D45*
X622300Y160020D03*
D61*
X648335Y160020D03*
D45*
X674370Y160020D03*
D24*
X355283Y160655D03*
D48*
X385128Y160655D03*
D81*
X436880Y160655D03*
D45*
X504190Y160655D03*
D81*
X567055Y160655D03*
D45*
X622300Y160655D03*
D48*
X648018Y160655D03*
D45*
X673735Y160655D03*
D24*
X355918Y161290D03*
D45*
X384810Y161290D03*
D81*
X436880Y161290D03*
D45*
X503555Y161290D03*
D82*
X566738Y161290D03*
D45*
X621665Y161290D03*
X647700Y161290D03*
X673735Y161290D03*
D24*
X356553Y161925D03*
D45*
X384810Y161925D03*
D83*
X436880Y161925D03*
D45*
X503555Y161925D03*
D83*
X566420Y161925D03*
D45*
X621665Y161925D03*
D42*
X647383Y161925D03*
D45*
X673735Y161925D03*
D24*
X357188Y162560D03*
D48*
X384493Y162560D03*
D84*
X436563Y162560D03*
D45*
X503555Y162560D03*
D84*
X566738Y162560D03*
D45*
X621665Y162560D03*
D14*
X647065Y162560D03*
D45*
X673100Y162560D03*
D24*
X357823Y163195D03*
D45*
X384175Y163195D03*
D31*
X421005Y163195D03*
X451485Y163195D03*
D45*
X502920Y163195D03*
D31*
X551180Y163195D03*
X581660Y163195D03*
D45*
X621030Y163195D03*
D16*
X647065Y163195D03*
D45*
X673100Y163195D03*
D34*
X358775Y163830D03*
D45*
X384175Y163830D03*
D37*
X420053Y163830D03*
D28*
X452755Y163830D03*
D45*
X502920Y163830D03*
D28*
X549910Y163830D03*
D38*
X582613Y163830D03*
D45*
X621030Y163830D03*
D24*
X646748Y163830D03*
D48*
X672783Y163830D03*
D34*
X359410Y164465D03*
D48*
X383858Y164465D03*
D38*
X419418Y164465D03*
D34*
X453390Y164465D03*
D48*
X502603Y164465D03*
D38*
X548958Y164465D03*
D24*
X583248Y164465D03*
D45*
X620395Y164465D03*
D34*
X646430Y164465D03*
D45*
X672465Y164465D03*
D34*
X360045Y165100D03*
D45*
X383540Y165100D03*
D34*
X418465Y165100D03*
D24*
X453708Y165100D03*
D45*
X502285Y165100D03*
D34*
X548640Y165100D03*
D24*
X583883Y165100D03*
D45*
X620395Y165100D03*
D38*
X646113Y165100D03*
D45*
X672465Y165100D03*
D34*
X360680Y165735D03*
D45*
X383540Y165735D03*
D24*
X417513Y165735D03*
D16*
X454025Y165735D03*
D45*
X502285Y165735D03*
D24*
X547688Y165735D03*
D16*
X584200Y165735D03*
D45*
X620395Y165735D03*
D38*
X646113Y165735D03*
D45*
X671830Y165735D03*
D34*
X361315Y166370D03*
D45*
X382905Y166370D03*
D16*
X417195Y166370D03*
D22*
X454343Y166370D03*
D45*
X501650Y166370D03*
D24*
X547053Y166370D03*
D22*
X584518Y166370D03*
D45*
X619760Y166370D03*
D37*
X646113Y166370D03*
D45*
X671830Y166370D03*
D34*
X361950Y167005D03*
D45*
X382905Y167005D03*
D16*
X416560Y167005D03*
D14*
X454660Y167005D03*
D45*
X501650Y167005D03*
D22*
X546418Y167005D03*
X584518Y167005D03*
D45*
X619760Y167005D03*
D31*
X645795Y167005D03*
D45*
X671830Y167005D03*
D34*
X362585Y167640D03*
D45*
X382270Y167640D03*
D14*
X415925Y167640D03*
X454660Y167640D03*
D45*
X501650Y167640D03*
D22*
X545783Y167640D03*
D14*
X584835Y167640D03*
D45*
X619760Y167640D03*
D26*
X645478Y167640D03*
D45*
X671195Y167640D03*
D85*
X371793Y168275D03*
D14*
X415290Y168275D03*
D42*
X454978Y168275D03*
D45*
X501015Y168275D03*
D14*
X545465Y168275D03*
X584835Y168275D03*
D45*
X619125Y168275D03*
D21*
X645160Y168275D03*
D45*
X671195Y168275D03*
D85*
X371793Y168910D03*
D42*
X414973Y168910D03*
X454978Y168910D03*
D45*
X501015Y168910D03*
D14*
X544830Y168910D03*
D42*
X585153Y168910D03*
D45*
X619125Y168910D03*
D50*
X644843Y168910D03*
D45*
X671195Y168910D03*
D86*
X369253Y169545D03*
D42*
X414338Y169545D03*
X454978Y169545D03*
D45*
X501015Y169545D03*
D42*
X544513Y169545D03*
X585153Y169545D03*
D45*
X619125Y169545D03*
D52*
X644843Y169545D03*
D45*
X670560Y169545D03*
D87*
X367665Y170180D03*
D42*
X414338Y170180D03*
D45*
X455295Y170180D03*
X500380Y170180D03*
D42*
X543878Y170180D03*
X585153Y170180D03*
D45*
X618490Y170180D03*
D18*
X644525Y170180D03*
D45*
X670560Y170180D03*
D76*
X366395Y170815D03*
D42*
X413703Y170815D03*
D45*
X455295Y170815D03*
X500380Y170815D03*
D42*
X543878Y170815D03*
D45*
X585470Y170815D03*
X618490Y170815D03*
D57*
X644208Y170815D03*
D48*
X670243Y170815D03*
D88*
X365125Y171450D03*
D45*
X413385Y171450D03*
X455295Y171450D03*
D48*
X500063Y171450D03*
D45*
X543560Y171450D03*
D48*
X585153Y171450D03*
D45*
X617855Y171450D03*
D13*
X643890Y171450D03*
D45*
X669925Y171450D03*
D80*
X364490Y172085D03*
D45*
X413385Y172085D03*
X455295Y172085D03*
X499745Y172085D03*
X542925Y172085D03*
D48*
X585153Y172085D03*
D45*
X617855Y172085D03*
D32*
X643573Y172085D03*
D45*
X669925Y172085D03*
D81*
X363855Y172720D03*
D45*
X412750Y172720D03*
D48*
X455613Y172720D03*
D45*
X499745Y172720D03*
X542925Y172720D03*
D48*
X585153Y172720D03*
D45*
X617855Y172720D03*
D32*
X643573Y172720D03*
D45*
X669290Y172720D03*
D82*
X362903Y173355D03*
D45*
X412750Y173355D03*
D61*
X455295Y173355D03*
D45*
X499110Y173355D03*
D48*
X542608Y173355D03*
X585153Y173355D03*
D45*
X617220Y173355D03*
D62*
X643573Y173355D03*
D45*
X669290Y173355D03*
D89*
X353695Y173990D03*
D45*
X380365Y173990D03*
D48*
X412433Y173990D03*
X454978Y173990D03*
D45*
X499110Y173990D03*
D48*
X542608Y173990D03*
X585153Y173990D03*
D45*
X617220Y173990D03*
D63*
X643255Y173990D03*
D45*
X669290Y173990D03*
D89*
X353060Y174625D03*
D48*
X380048Y174625D03*
X412433Y174625D03*
X454978Y174625D03*
D45*
X499110Y174625D03*
D48*
X541973Y174625D03*
X585153Y174625D03*
D45*
X617220Y174625D03*
D27*
X642938Y174625D03*
D45*
X668655Y174625D03*
D89*
X352425Y175260D03*
D45*
X379730Y175260D03*
D48*
X411798Y175260D03*
X454978Y175260D03*
D45*
X498475Y175260D03*
D48*
X541973Y175260D03*
X584518Y175260D03*
D45*
X616585Y175260D03*
D61*
X634365Y175260D03*
X650875Y175260D03*
D45*
X668655Y175260D03*
D89*
X351790Y175895D03*
D45*
X379730Y175895D03*
D48*
X411798Y175895D03*
D45*
X454660Y175895D03*
X498475Y175895D03*
D48*
X541973Y175895D03*
X584518Y175895D03*
D45*
X616585Y175895D03*
D61*
X633730Y175895D03*
X650875Y175895D03*
D45*
X668655Y175895D03*
D89*
X351155Y176530D03*
D48*
X379413Y176530D03*
X411798Y176530D03*
X454343Y176530D03*
D45*
X498475Y176530D03*
D48*
X541973Y176530D03*
X584518Y176530D03*
D64*
X624523Y176530D03*
X660083Y176530D03*
D89*
X350520Y177165D03*
D45*
X379095Y177165D03*
D48*
X411798Y177165D03*
X454343Y177165D03*
D45*
X497840Y177165D03*
D48*
X541973Y177165D03*
D45*
X584200Y177165D03*
D64*
X623888Y177165D03*
X660083Y177165D03*
D89*
X349885Y177800D03*
D45*
X379095Y177800D03*
D48*
X411798Y177800D03*
D45*
X454025Y177800D03*
X497840Y177800D03*
X541655Y177800D03*
D48*
X583883Y177800D03*
D66*
X623570Y177800D03*
X659765Y177800D03*
D65*
X349568Y178435D03*
D48*
X378778Y178435D03*
D45*
X411480Y178435D03*
X453390Y178435D03*
D48*
X497523Y178435D03*
D45*
X541655Y178435D03*
X583565Y178435D03*
D64*
X623253Y178435D03*
D66*
X659765Y178435D03*
D65*
X348933Y179070D03*
D45*
X378460Y179070D03*
X411480Y179070D03*
X453390Y179070D03*
X497205Y179070D03*
X541655Y179070D03*
D42*
X583248Y179070D03*
D66*
X622935Y179070D03*
X659765Y179070D03*
D90*
X348615Y179705D03*
D45*
X378460Y179705D03*
X411480Y179705D03*
X452755Y179705D03*
X497205Y179705D03*
X541655Y179705D03*
X582930Y179705D03*
D27*
X622618Y179705D03*
X659448Y179705D03*
D22*
X340678Y180340D03*
D45*
X377825Y180340D03*
X411480Y180340D03*
D42*
X452438Y180340D03*
D45*
X496570Y180340D03*
X541655Y180340D03*
D42*
X582613Y180340D03*
D27*
X621983Y180340D03*
D63*
X659765Y180340D03*
D42*
X340043Y180975D03*
D45*
X377825Y180975D03*
D42*
X411798Y180975D03*
D14*
X452120Y180975D03*
D45*
X496570Y180975D03*
X541655Y180975D03*
D42*
X581978Y180975D03*
D63*
X621665Y180975D03*
X659765Y180975D03*
D42*
X340043Y181610D03*
D48*
X377508Y181610D03*
D42*
X411798Y181610D03*
D14*
X451485Y181610D03*
D45*
X496570Y181610D03*
D42*
X541973Y181610D03*
D14*
X581660Y181610D03*
D62*
X621348Y181610D03*
X659448Y181610D03*
D45*
X339725Y182245D03*
X377190Y182245D03*
D42*
X411798Y182245D03*
D14*
X450850Y182245D03*
D45*
X495935Y182245D03*
D42*
X541973Y182245D03*
D14*
X581025Y182245D03*
D62*
X620713Y182245D03*
X659448Y182245D03*
D42*
X339408Y182880D03*
D45*
X377190Y182880D03*
D14*
X412115Y182880D03*
D22*
X450533Y182880D03*
D45*
X495935Y182880D03*
D42*
X541973Y182880D03*
D22*
X580708Y182880D03*
D59*
X620395Y182880D03*
D62*
X659448Y182880D03*
D42*
X339408Y183515D03*
D48*
X376873Y183515D03*
D14*
X412115Y183515D03*
D22*
X449898Y183515D03*
D45*
X495935Y183515D03*
D14*
X542290Y183515D03*
D22*
X580073Y183515D03*
D32*
X620078Y183515D03*
X659448Y183515D03*
D42*
X339408Y184150D03*
D45*
X376555Y184150D03*
D22*
X412433Y184150D03*
D24*
X449263Y184150D03*
D45*
X495300Y184150D03*
D22*
X542608Y184150D03*
D16*
X579120Y184150D03*
D32*
X619443Y184150D03*
X659448Y184150D03*
D42*
X339408Y184785D03*
D45*
X376555Y184785D03*
D16*
X412750Y184785D03*
D24*
X448628Y184785D03*
D45*
X495300Y184785D03*
D16*
X542925Y184785D03*
D24*
X578803Y184785D03*
D13*
X619125Y184785D03*
X659130Y184785D03*
D42*
X339408Y185420D03*
D45*
X375920Y185420D03*
D34*
X413385Y185420D03*
X447675Y185420D03*
D45*
X495300Y185420D03*
D24*
X543243Y185420D03*
D34*
X577850Y185420D03*
D13*
X618490Y185420D03*
X659130Y185420D03*
D14*
X339725Y186055D03*
D45*
X375920Y186055D03*
D37*
X414973Y186055D03*
D31*
X446405Y186055D03*
D42*
X494983Y186055D03*
D37*
X544513Y186055D03*
X576263Y186055D03*
D13*
X618490Y186055D03*
X659130Y186055D03*
D84*
X357823Y186690D03*
D91*
X430530Y186690D03*
D87*
X497205Y186690D03*
D84*
X560388Y186690D03*
D57*
X618173Y186690D03*
D18*
X659130Y186690D03*
D83*
X357505Y187325D03*
D84*
X430213Y187325D03*
D73*
X496253Y187325D03*
D84*
X560388Y187325D03*
D57*
X617538Y187325D03*
D18*
X659130Y187325D03*
D83*
X357505Y187960D03*
X429895Y187960D03*
D75*
X495935Y187960D03*
D83*
X560070Y187960D03*
D18*
X617220Y187960D03*
X659130Y187960D03*
D83*
X357505Y188595D03*
D81*
X429895Y188595D03*
D75*
X495300Y188595D03*
D82*
X559753Y188595D03*
D52*
X616903Y188595D03*
X658813Y188595D03*
D82*
X357188Y189230D03*
D79*
X429578Y189230D03*
D75*
X494665Y189230D03*
D79*
X559753Y189230D03*
D52*
X616268Y189230D03*
X658813Y189230D03*
D82*
X357188Y189865D03*
D78*
X429578Y189865D03*
D75*
X494030Y189865D03*
D80*
X559435Y189865D03*
D40*
X615950Y189865D03*
D50*
X658813Y189865D03*
D79*
X357188Y190500D03*
D88*
X429260Y190500D03*
D73*
X493713Y190500D03*
D88*
X559435Y190500D03*
D50*
X615633Y190500D03*
X658813Y190500D03*
D79*
X357188Y191135D03*
D76*
X429260Y191135D03*
D75*
X493395Y191135D03*
D77*
X559118Y191135D03*
D50*
X614998Y191135D03*
X658813Y191135D03*
D79*
X357188Y191770D03*
D74*
X428943Y191770D03*
D75*
X492760Y191770D03*
X558800Y191770D03*
D21*
X614680Y191770D03*
X658495Y191770D03*
D78*
X357188Y192405D03*
D73*
X428943Y192405D03*
D75*
X492125Y192405D03*
D87*
X558800Y192405D03*
D21*
X614045Y192405D03*
X658495Y192405D03*
D78*
X357188Y193040D03*
D92*
X428625Y193040D03*
D75*
X491490Y193040D03*
D92*
X558800Y193040D03*
D26*
X613728Y193040D03*
D21*
X658495Y193040D03*
D88*
X357505Y193675D03*
D71*
X428625Y193675D03*
D73*
X491173Y193675D03*
D86*
X558483Y193675D03*
D31*
X613410Y193675D03*
X658495Y193675D03*
D77*
X357188Y194310D03*
D93*
X428625Y194310D03*
D73*
X490538Y194310D03*
D94*
X558483Y194310D03*
D26*
X613093Y194310D03*
D31*
X658495Y194310D03*
D76*
X357505Y194945D03*
D85*
X428308Y194945D03*
D73*
X489903Y194945D03*
D85*
X558483Y194945D03*
D31*
X612775Y194945D03*
X658495Y194945D03*
D75*
X357505Y195580D03*
D95*
X428308Y195580D03*
D73*
X489268Y195580D03*
D95*
X558483Y195580D03*
D37*
X612458Y195580D03*
X658178Y195580D03*
D73*
X357823Y196215D03*
D64*
X428308Y196215D03*
D87*
X488950Y196215D03*
D64*
X558483Y196215D03*
D37*
X611823Y196215D03*
X658178Y196215D03*
D87*
X358140Y196850D03*
D32*
X428943Y196850D03*
D87*
X488315Y196850D03*
D13*
X558800Y196850D03*
D28*
X611505Y196850D03*
D38*
X658178Y196850D03*
D71*
X358775Y197485D03*
D31*
X429260Y197485D03*
D72*
X487998Y197485D03*
D26*
X559118Y197485D03*
D38*
X611188Y197485D03*
X658178Y197485D03*
D70*
X359410Y198120D03*
D42*
X429578Y198120D03*
D72*
X487363Y198120D03*
D42*
X559753Y198120D03*
D34*
X610870Y198120D03*
D38*
X658178Y198120D03*
D58*
X510223Y217170D03*
D39*
X510223Y217805D03*
D30*
X510223Y218440D03*
D25*
X509905Y219075D03*
D17*
X509905Y219710D03*
D53*
X510223Y220345D03*
D60*
X510223Y220980D03*
D41*
X510223Y221615D03*
D25*
X507365Y222250D03*
X513080Y222250D03*
X506730Y222885D03*
D30*
X513398Y222885D03*
X506413Y223520D03*
D25*
X513715Y223520D03*
D30*
X505778Y224155D03*
D25*
X514350Y224155D03*
X505460Y224790D03*
X514985Y224790D03*
X504825Y225425D03*
X515620Y225425D03*
X504190Y226060D03*
X516255Y226060D03*
X503555Y226695D03*
X516255Y226695D03*
X502920Y227330D03*
X516890Y227330D03*
D51*
X502603Y227965D03*
D58*
X510223Y227965D03*
D25*
X517525Y227965D03*
X502285Y228600D03*
D39*
X510223Y228600D03*
D25*
X518160Y228600D03*
X501650Y229235D03*
D36*
X509905Y229235D03*
D25*
X518795Y229235D03*
X501015Y229870D03*
X509905Y229870D03*
D51*
X519113Y229870D03*
D25*
X500380Y230505D03*
D51*
X510223Y230505D03*
D25*
X519430Y230505D03*
D51*
X500063Y231140D03*
D53*
X510223Y231140D03*
D25*
X520065Y231140D03*
X499745Y231775D03*
D60*
X510223Y231775D03*
D25*
X520700Y231775D03*
X499110Y232410D03*
D43*
X509905Y232410D03*
D25*
X521335Y232410D03*
X498475Y233045D03*
D20*
X509905Y233045D03*
D51*
X521653Y233045D03*
D25*
X497840Y233680D03*
D29*
X510223Y233680D03*
D25*
X521970Y233680D03*
X497205Y234315D03*
D29*
X510223Y234315D03*
D25*
X522605Y234315D03*
X496570Y234950D03*
D23*
X510223Y234950D03*
D25*
X523240Y234950D03*
D51*
X496253Y235585D03*
D56*
X510223Y235585D03*
D25*
X523875Y235585D03*
X495935Y236220D03*
D54*
X509905Y236220D03*
D25*
X524510Y236220D03*
X495300Y236855D03*
D48*
X510223Y236855D03*
D30*
X524828Y236855D03*
D25*
X494665Y237490D03*
D42*
X510223Y237490D03*
D25*
X525145Y237490D03*
X494030Y238125D03*
D14*
X509905Y238125D03*
D25*
X525780Y238125D03*
X493395Y238760D03*
D22*
X510223Y238760D03*
D25*
X526415Y238760D03*
D51*
X493078Y239395D03*
D24*
X510223Y239395D03*
D25*
X527050Y239395D03*
X492760Y240030D03*
D34*
X509905Y240030D03*
D30*
X527368Y240030D03*
D25*
X492125Y240665D03*
D28*
X509905Y240665D03*
D25*
X528320Y240665D03*
X491490Y241300D03*
D31*
X509905Y241300D03*
D25*
X528320Y241300D03*
X490855Y241935D03*
D26*
X510223Y241935D03*
D25*
X528955Y241935D03*
X490220Y242570D03*
D50*
X510223Y242570D03*
D25*
X529590Y242570D03*
D30*
X489903Y243205D03*
D52*
X510223Y243205D03*
D30*
X529908Y243205D03*
D25*
X489585Y243840D03*
D57*
X510223Y243840D03*
D25*
X530860Y243840D03*
X488950Y244475D03*
D13*
X509905Y244475D03*
D25*
X530860Y244475D03*
X488315Y245110D03*
D59*
X509905Y245110D03*
D25*
X531495Y245110D03*
X487680Y245745D03*
D63*
X509905Y245745D03*
D25*
X532130Y245745D03*
X487045Y246380D03*
D49*
X501968Y246380D03*
D61*
X518160Y246380D03*
D25*
X532765Y246380D03*
D51*
X486728Y247015D03*
D49*
X501333Y247015D03*
D61*
X518795Y247015D03*
D51*
X533083Y247015D03*
X486093Y247650D03*
D49*
X500698Y247650D03*
X519113Y247650D03*
D25*
X533400Y247650D03*
X485775Y248285D03*
D49*
X500063Y248285D03*
X519748Y248285D03*
D25*
X534035Y248285D03*
X485140Y248920D03*
D49*
X499428Y248920D03*
X520383Y248920D03*
D25*
X534670Y248920D03*
X484505Y249555D03*
D49*
X498793Y249555D03*
D61*
X520700Y249555D03*
D25*
X535305Y249555D03*
D51*
X484188Y250190D03*
D49*
X498793Y250190D03*
X521653Y250190D03*
D51*
X535623Y250190D03*
X483553Y250825D03*
D49*
X498158Y250825D03*
D61*
X521970Y250825D03*
D51*
X536258Y250825D03*
D25*
X483235Y251460D03*
D49*
X497523Y251460D03*
X522288Y251460D03*
D25*
X536575Y251460D03*
X482600Y252095D03*
D49*
X496888Y252095D03*
X522923Y252095D03*
D25*
X537210Y252095D03*
X481965Y252730D03*
D49*
X496253Y252730D03*
X523558Y252730D03*
D25*
X537845Y252730D03*
X481330Y253365D03*
D54*
X495935Y253365D03*
D49*
X524193Y253365D03*
D51*
X538163Y253365D03*
X481013Y254000D03*
D54*
X495300Y254000D03*
D61*
X524510Y254000D03*
D51*
X538798Y254000D03*
D25*
X480695Y254635D03*
D49*
X494983Y254635D03*
X524828Y254635D03*
D51*
X539433Y254635D03*
D25*
X480060Y255270D03*
D49*
X494348Y255270D03*
X525463Y255270D03*
D25*
X539750Y255270D03*
D51*
X479108Y255905D03*
D49*
X493713Y255905D03*
X526098Y255905D03*
D25*
X540385Y255905D03*
X478790Y256540D03*
D49*
X493078Y256540D03*
X526733Y256540D03*
D25*
X541020Y256540D03*
X478155Y257175D03*
D49*
X492443Y257175D03*
D61*
X527050Y257175D03*
D25*
X541655Y257175D03*
X477520Y257810D03*
D49*
X492443Y257810D03*
D61*
X527685Y257810D03*
D51*
X541973Y257810D03*
D30*
X477203Y258445D03*
D49*
X491808Y258445D03*
D61*
X528320Y258445D03*
D51*
X542608Y258445D03*
X476568Y259080D03*
D49*
X491173Y259080D03*
X528638Y259080D03*
D25*
X542925Y259080D03*
X476250Y259715D03*
D49*
X490538Y259715D03*
X529273Y259715D03*
D25*
X543560Y259715D03*
X475615Y260350D03*
D49*
X489903Y260350D03*
D61*
X529590Y260350D03*
D25*
X544195Y260350D03*
X474980Y260985D03*
D49*
X489268Y260985D03*
D61*
X530225Y260985D03*
D25*
X544830Y260985D03*
X474345Y261620D03*
D49*
X489268Y261620D03*
D61*
X530860Y261620D03*
D51*
X545148Y261620D03*
X474028Y262255D03*
D49*
X488633Y262255D03*
X531178Y262255D03*
D25*
X545465Y262255D03*
X473710Y262890D03*
D49*
X487998Y262890D03*
X531813Y262890D03*
D25*
X546100Y262890D03*
X473075Y263525D03*
D49*
X487363Y263525D03*
X532448Y263525D03*
D25*
X546735Y263525D03*
X472440Y264160D03*
D49*
X486728Y264160D03*
X533083Y264160D03*
D25*
X547370Y264160D03*
X471805Y264795D03*
D61*
X486410Y264795D03*
X533400Y264795D03*
D51*
X547688Y264795D03*
D25*
X471170Y265430D03*
D49*
X485458Y265430D03*
X533718Y265430D03*
D25*
X548005Y265430D03*
X470535Y266065D03*
D49*
X485458Y266065D03*
X534353Y266065D03*
D25*
X548640Y266065D03*
D30*
X470218Y266700D03*
D49*
X484823Y266700D03*
X534988Y266700D03*
D25*
X549275Y266700D03*
D51*
X469583Y267335D03*
D49*
X484188Y267335D03*
X535623Y267335D03*
D25*
X549910Y267335D03*
X469265Y267970D03*
D49*
X483553Y267970D03*
D61*
X535940Y267970D03*
D25*
X550545Y267970D03*
X468630Y268605D03*
D49*
X482918Y268605D03*
X536258Y268605D03*
D30*
X550863Y268605D03*
D25*
X467995Y269240D03*
D49*
X482283Y269240D03*
X536893Y269240D03*
D51*
X551498Y269240D03*
D30*
X467678Y269875D03*
D49*
X482283Y269875D03*
X537528Y269875D03*
D25*
X551815Y269875D03*
X466725Y270510D03*
D49*
X481648Y270510D03*
X538163Y270510D03*
D25*
X552450Y270510D03*
X466725Y271145D03*
D49*
X481013Y271145D03*
X538798Y271145D03*
D25*
X553085Y271145D03*
X466090Y271780D03*
D49*
X480378Y271780D03*
D61*
X539115Y271780D03*
D30*
X553403Y271780D03*
D25*
X465455Y272415D03*
D49*
X479743Y272415D03*
D61*
X539750Y272415D03*
D51*
X554038Y272415D03*
D25*
X464820Y273050D03*
D49*
X479743Y273050D03*
X540068Y273050D03*
D25*
X554355Y273050D03*
X464185Y273685D03*
D54*
X478790Y273685D03*
D49*
X540703Y273685D03*
D25*
X554990Y273685D03*
D51*
X463868Y274320D03*
D49*
X478473Y274320D03*
X541338Y274320D03*
D25*
X555625Y274320D03*
X463550Y274955D03*
D49*
X477838Y274955D03*
D61*
X541655Y274955D03*
D25*
X556260Y274955D03*
X462915Y275590D03*
D49*
X477203Y275590D03*
D43*
X508000Y275590D03*
D61*
X542290Y275590D03*
D51*
X556578Y275590D03*
D25*
X462280Y276225D03*
D54*
X476885Y276225D03*
X508000Y276225D03*
D49*
X542608Y276225D03*
D25*
X556895Y276225D03*
X461645Y276860D03*
D54*
X476250Y276860D03*
D14*
X508000Y276860D03*
D49*
X543243Y276860D03*
D25*
X557530Y276860D03*
X461010Y277495D03*
D49*
X475933Y277495D03*
D38*
X508318Y277495D03*
D49*
X543878Y277495D03*
D25*
X558165Y277495D03*
D30*
X460693Y278130D03*
D49*
X475298Y278130D03*
D26*
X508318Y278130D03*
D61*
X544195Y278130D03*
D25*
X558800Y278130D03*
X460375Y278765D03*
D49*
X474663Y278765D03*
D40*
X508000Y278765D03*
D61*
X544830Y278765D03*
D25*
X559435Y278765D03*
X459740Y279400D03*
D49*
X474028Y279400D03*
D13*
X508000Y279400D03*
D61*
X545465Y279400D03*
D30*
X559753Y279400D03*
D25*
X459105Y280035D03*
D49*
X473393Y280035D03*
D62*
X508318Y280035D03*
D49*
X545783Y280035D03*
D25*
X560070Y280035D03*
X458470Y280670D03*
D49*
X472758Y280670D03*
D66*
X508000Y280670D03*
D49*
X546418Y280670D03*
D25*
X560705Y280670D03*
X457835Y281305D03*
D49*
X472758Y281305D03*
D90*
X508000Y281305D03*
D49*
X547053Y281305D03*
D25*
X561340Y281305D03*
D51*
X457518Y281940D03*
D49*
X472123Y281940D03*
D89*
X508000Y281940D03*
D49*
X547688Y281940D03*
D25*
X561975Y281940D03*
X457200Y282575D03*
D49*
X471488Y282575D03*
D67*
X508000Y282575D03*
D61*
X548005Y282575D03*
D30*
X562293Y282575D03*
D25*
X456565Y283210D03*
D49*
X470853Y283210D03*
D96*
X508000Y283210D03*
D49*
X548323Y283210D03*
D25*
X562610Y283210D03*
X455930Y283845D03*
D49*
X470218Y283845D03*
D19*
X508000Y283845D03*
D49*
X548958Y283845D03*
D51*
X563563Y283845D03*
D25*
X455295Y284480D03*
D61*
X469900Y284480D03*
D93*
X508000Y284480D03*
D49*
X549593Y284480D03*
D25*
X563880Y284480D03*
X454660Y285115D03*
D49*
X469583Y285115D03*
D70*
X508000Y285115D03*
D49*
X550228Y285115D03*
D25*
X564515Y285115D03*
D51*
X454343Y285750D03*
D49*
X468948Y285750D03*
D86*
X508318Y285750D03*
D61*
X550545Y285750D03*
D25*
X565150Y285750D03*
X454025Y286385D03*
D49*
X468313Y286385D03*
D97*
X508318Y286385D03*
D49*
X550863Y286385D03*
D51*
X565468Y286385D03*
D25*
X453390Y287020D03*
D49*
X467678Y287020D03*
D24*
X496253Y287020D03*
D16*
X520065Y287020D03*
D49*
X551498Y287020D03*
D25*
X565785Y287020D03*
X452755Y287655D03*
D49*
X467043Y287655D03*
D14*
X494665Y287655D03*
D42*
X521653Y287655D03*
D49*
X552133Y287655D03*
D25*
X566420Y287655D03*
X452120Y288290D03*
D49*
X466408Y288290D03*
D45*
X494030Y288290D03*
X522605Y288290D03*
D49*
X552768Y288290D03*
D25*
X567055Y288290D03*
X451485Y288925D03*
D49*
X465773Y288925D03*
D45*
X493395Y288925D03*
D48*
X522923Y288925D03*
D61*
X553085Y288925D03*
D25*
X567690Y288925D03*
X450850Y289560D03*
D49*
X465773Y289560D03*
D48*
X493078Y289560D03*
X523558Y289560D03*
D61*
X553720Y289560D03*
D51*
X568008Y289560D03*
X450533Y290195D03*
D49*
X465138Y290195D03*
D48*
X492443Y290195D03*
D61*
X523875Y290195D03*
D49*
X554038Y290195D03*
D25*
X568325Y290195D03*
D51*
X449898Y290830D03*
D49*
X464503Y290830D03*
D61*
X492125Y290830D03*
X524510Y290830D03*
D49*
X554673Y290830D03*
D25*
X568960Y290830D03*
X449580Y291465D03*
D49*
X463868Y291465D03*
D61*
X491490Y291465D03*
X524510Y291465D03*
D49*
X555308Y291465D03*
D25*
X569595Y291465D03*
D47*
X419735Y292100D03*
D36*
X449580Y292100D03*
D49*
X463233Y292100D03*
D61*
X491490Y292100D03*
X525145Y292100D03*
X555625Y292100D03*
D25*
X570230Y292100D03*
D22*
X420688Y292735D03*
D61*
X462915Y292735D03*
X490855Y292735D03*
D49*
X525463Y292735D03*
D61*
X556260Y292735D03*
D25*
X570865Y292735D03*
D18*
X422275Y293370D03*
D54*
X462915Y293370D03*
D61*
X490855Y293370D03*
X525780Y293370D03*
D49*
X556578Y293370D03*
D51*
X571183Y293370D03*
D64*
X423863Y294005D03*
D33*
X464503Y294005D03*
D49*
X490538Y294005D03*
X526098Y294005D03*
X557213Y294005D03*
D25*
X571500Y294005D03*
D19*
X426085Y294640D03*
D17*
X466090Y294640D03*
D61*
X490220Y294640D03*
D49*
X526098Y294640D03*
X557848Y294640D03*
D25*
X572135Y294640D03*
D92*
X427355Y295275D03*
D44*
X467360Y295275D03*
D49*
X489903Y295275D03*
D61*
X526415Y295275D03*
D49*
X558483Y295275D03*
D25*
X572770Y295275D03*
D88*
X429260Y295910D03*
D49*
X489903Y295910D03*
X526733Y295910D03*
X559118Y295910D03*
D25*
X573405Y295910D03*
D83*
X431165Y296545D03*
D61*
X489585Y296545D03*
D49*
X526733Y296545D03*
D61*
X559435Y296545D03*
D25*
X574040Y296545D03*
D98*
X433070Y297180D03*
D49*
X489268Y297180D03*
D61*
X527050Y297180D03*
X560070Y297180D03*
D25*
X574675Y297180D03*
D99*
X434340Y297815D03*
D49*
X489268Y297815D03*
X527368Y297815D03*
X560388Y297815D03*
D25*
X574675Y297815D03*
D100*
X436245Y298450D03*
D54*
X489585Y298450D03*
D49*
X527368Y298450D03*
X561023Y298450D03*
D25*
X575310Y298450D03*
D101*
X437833Y299085D03*
D29*
X491173Y299085D03*
D49*
X527368Y299085D03*
X561658Y299085D03*
D25*
X575945Y299085D03*
D102*
X439738Y299720D03*
D41*
X492443Y299720D03*
D61*
X527685Y299720D03*
X561975Y299720D03*
D25*
X576580Y299720D03*
D103*
X441008Y300355D03*
D51*
X493713Y300355D03*
D61*
X527685Y300355D03*
X562610Y300355D03*
D25*
X577215Y300355D03*
D104*
X442913Y300990D03*
D39*
X494983Y300990D03*
D49*
X528003Y300990D03*
X562928Y300990D03*
D25*
X577215Y300990D03*
D105*
X444500Y301625D03*
D49*
X528003Y301625D03*
X563563Y301625D03*
D25*
X577850Y301625D03*
D106*
X446405Y302260D03*
D49*
X528003Y302260D03*
X564198Y302260D03*
D25*
X578485Y302260D03*
D107*
X448310Y302895D03*
D49*
X528003Y302895D03*
D61*
X564515Y302895D03*
D25*
X579120Y302895D03*
D54*
X414655Y303530D03*
D108*
X457200Y303530D03*
D61*
X528320Y303530D03*
D49*
X565468Y303530D03*
D51*
X579438Y303530D03*
D33*
X413068Y304165D03*
D109*
X461645Y304165D03*
D61*
X528320Y304165D03*
D54*
X566420Y304165D03*
D25*
X579755Y304165D03*
D20*
X413385Y304800D03*
D110*
X465455Y304800D03*
D61*
X528320Y304800D03*
D15*
X567055Y304800D03*
D25*
X580390Y304800D03*
D20*
X414020Y305435D03*
D111*
X468630Y305435D03*
D61*
X528320Y305435D03*
D55*
X568325Y305435D03*
D25*
X581025Y305435D03*
D33*
X414973Y306070D03*
D112*
X471488Y306070D03*
D49*
X528638Y306070D03*
D29*
X569278Y306070D03*
D25*
X581660Y306070D03*
D33*
X415608Y306705D03*
D113*
X474663Y306705D03*
D49*
X528638Y306705D03*
D58*
X556578Y306705D03*
D33*
X570548Y306705D03*
D51*
X581978Y306705D03*
D35*
X416560Y307340D03*
D113*
X477838Y307340D03*
D49*
X528638Y307340D03*
D36*
X556895Y307340D03*
D20*
X571500Y307340D03*
D51*
X582613Y307340D03*
D29*
X417513Y307975D03*
D100*
X480695Y307975D03*
D55*
X530225Y307975D03*
D25*
X557530Y307975D03*
D60*
X572453Y307975D03*
D25*
X582930Y307975D03*
D29*
X418783Y308610D03*
D25*
X434975Y308610D03*
D100*
X483235Y308610D03*
D20*
X531495Y308610D03*
D53*
X558483Y308610D03*
D46*
X573405Y308610D03*
D25*
X583565Y308610D03*
D29*
X419418Y309245D03*
D25*
X434975Y309245D03*
D114*
X486093Y309245D03*
D60*
X533083Y309245D03*
D43*
X559435Y309245D03*
D17*
X574675Y309245D03*
D25*
X584200Y309245D03*
D23*
X420688Y309880D03*
D51*
X434023Y309880D03*
D39*
X442278Y309880D03*
D114*
X488633Y309880D03*
D25*
X534670Y309880D03*
D20*
X560070Y309880D03*
D51*
X575628Y309880D03*
X584518Y309880D03*
D55*
X421005Y310515D03*
D25*
X433705Y310515D03*
D53*
X443548Y310515D03*
D114*
X491808Y310515D03*
D39*
X535623Y310515D03*
D29*
X561023Y310515D03*
D30*
X576898Y310515D03*
D51*
X585153Y310515D03*
D35*
X421640Y311150D03*
D25*
X433070Y311150D03*
D33*
X444818Y311150D03*
D115*
X494665Y311150D03*
D23*
X561658Y311150D03*
D36*
X577215Y311150D03*
D25*
X585470Y311150D03*
D20*
X421640Y311785D03*
D25*
X432435Y311785D03*
D15*
X445770Y311785D03*
D115*
X497205Y311785D03*
D54*
X562610Y311785D03*
D36*
X577850Y311785D03*
D25*
X586105Y311785D03*
D43*
X421640Y312420D03*
D25*
X431800Y312420D03*
D54*
X446405Y312420D03*
D116*
X500063Y312420D03*
D61*
X563245Y312420D03*
D36*
X578485Y312420D03*
D25*
X586740Y312420D03*
D60*
X421958Y313055D03*
D25*
X431165Y313055D03*
D49*
X446088Y313055D03*
D115*
X502285Y313055D03*
D42*
X564198Y313055D03*
D30*
X578803Y313055D03*
D25*
X587375Y313055D03*
D17*
X422275Y313690D03*
D51*
X430848Y313690D03*
D49*
X445453Y313690D03*
D115*
X505460Y313690D03*
D22*
X564198Y313690D03*
D25*
X579120Y313690D03*
X588010Y313690D03*
X422275Y314325D03*
X430530Y314325D03*
D49*
X444818Y314325D03*
D115*
X508000Y314325D03*
D16*
X564515Y314325D03*
D30*
X579438Y314325D03*
D51*
X588328Y314325D03*
D39*
X422593Y314960D03*
D25*
X429895Y314960D03*
D49*
X444183Y314960D03*
D115*
X510540Y314960D03*
D16*
X564515Y314960D03*
D25*
X579755Y314960D03*
D51*
X588963Y314960D03*
D58*
X422593Y315595D03*
D25*
X429260Y315595D03*
D49*
X443548Y315595D03*
D116*
X513398Y315595D03*
D16*
X564515Y315595D03*
D51*
X580073Y315595D03*
D25*
X589280Y315595D03*
X428625Y316230D03*
D61*
X443230Y316230D03*
D115*
X515620Y316230D03*
D24*
X564833Y316230D03*
D51*
X580708Y316230D03*
D25*
X589915Y316230D03*
D51*
X428308Y316865D03*
D61*
X442595Y316865D03*
D117*
X517208Y316865D03*
D44*
X551180Y316865D03*
D24*
X564833Y316865D03*
D17*
X581025Y316865D03*
D25*
X590550Y316865D03*
D51*
X427673Y317500D03*
D49*
X442278Y317500D03*
D118*
X518160Y317500D03*
D25*
X551815Y317500D03*
D34*
X565150Y317500D03*
D17*
X581660Y317500D03*
D25*
X591185Y317500D03*
X427355Y318135D03*
D49*
X441643Y318135D03*
D83*
X519430Y318135D03*
D40*
X562610Y318135D03*
D53*
X581978Y318135D03*
D51*
X591503Y318135D03*
D25*
X426720Y318770D03*
D49*
X441008Y318770D03*
D36*
X481330Y318770D03*
D80*
X520700Y318770D03*
D52*
X562293Y318770D03*
D46*
X582295Y318770D03*
D25*
X591820Y318770D03*
X426085Y319405D03*
D49*
X440373Y319405D03*
D51*
X482283Y319405D03*
D74*
X521653Y319405D03*
D18*
X562610Y319405D03*
D53*
X582613Y319405D03*
D25*
X592455Y319405D03*
X425450Y320040D03*
D49*
X439738Y320040D03*
D43*
X483870Y320040D03*
D72*
X522923Y320040D03*
D18*
X562610Y320040D03*
D46*
X582930Y320040D03*
D25*
X593090Y320040D03*
D51*
X425133Y320675D03*
D49*
X439738Y320675D03*
D35*
X485140Y320675D03*
D70*
X523875Y320675D03*
D57*
X562293Y320675D03*
D60*
X583248Y320675D03*
D25*
X593725Y320675D03*
X424815Y321310D03*
D49*
X439103Y321310D03*
D15*
X486410Y321310D03*
D19*
X525145Y321310D03*
D13*
X562610Y321310D03*
D60*
X583883Y321310D03*
D51*
X594043Y321310D03*
X423863Y321945D03*
D49*
X438468Y321945D03*
X487363Y321945D03*
D95*
X526098Y321945D03*
D32*
X562293Y321945D03*
D53*
X584518Y321945D03*
D25*
X594360Y321945D03*
X423545Y322580D03*
D49*
X437833Y322580D03*
D61*
X487680Y322580D03*
D64*
X527368Y322580D03*
D32*
X562293Y322580D03*
D51*
X585788Y322580D03*
D25*
X594995Y322580D03*
X422910Y323215D03*
D49*
X437198Y323215D03*
D61*
X487680Y323215D03*
D62*
X528638Y323215D03*
X562293Y323215D03*
D25*
X586740Y323215D03*
X595630Y323215D03*
X422275Y323850D03*
D49*
X436563Y323850D03*
D61*
X487680Y323850D03*
D18*
X529590Y323850D03*
D63*
X562610Y323850D03*
D36*
X588010Y323850D03*
D25*
X596265Y323850D03*
X421640Y324485D03*
D61*
X436245Y324485D03*
X487680Y324485D03*
D50*
X530543Y324485D03*
D64*
X563563Y324485D03*
D39*
X588963Y324485D03*
D51*
X596583Y324485D03*
X421323Y325120D03*
D61*
X435610Y325120D03*
X487680Y325120D03*
D38*
X531813Y325120D03*
D89*
X563880Y325120D03*
D47*
X589915Y325120D03*
D25*
X596900Y325120D03*
X421005Y325755D03*
D49*
X435293Y325755D03*
X487998Y325755D03*
D16*
X532765Y325755D03*
D69*
X564833Y325755D03*
D51*
X597853Y325755D03*
D25*
X420370Y326390D03*
D49*
X434658Y326390D03*
X487998Y326390D03*
D45*
X534035Y326390D03*
D19*
X565150Y326390D03*
D25*
X598170Y326390D03*
X419735Y327025D03*
D49*
X434023Y327025D03*
X487998Y327025D03*
D56*
X534988Y327025D03*
D94*
X566103Y327025D03*
D25*
X598805Y327025D03*
X419100Y327660D03*
D61*
X433705Y327660D03*
D49*
X487998Y327660D03*
D55*
X535940Y327660D03*
D71*
X567055Y327660D03*
D25*
X599440Y327660D03*
X418465Y328295D03*
D61*
X433070Y328295D03*
D49*
X487998Y328295D03*
D41*
X536893Y328295D03*
D72*
X567373Y328295D03*
D25*
X600075Y328295D03*
D51*
X418148Y328930D03*
D61*
X432435Y328930D03*
D49*
X487998Y328930D03*
D39*
X521653Y328930D03*
D53*
X538163Y328930D03*
D75*
X568325Y328930D03*
D51*
X600393Y328930D03*
D25*
X417830Y329565D03*
D49*
X432118Y329565D03*
X487998Y329565D03*
D51*
X522923Y329565D03*
D39*
X539433Y329565D03*
D77*
X568643Y329565D03*
D51*
X601028Y329565D03*
D25*
X417195Y330200D03*
D49*
X431483Y330200D03*
D61*
X488315Y330200D03*
D60*
X524193Y330200D03*
D78*
X569278Y330200D03*
D25*
X601345Y330200D03*
X416560Y330835D03*
D49*
X430848Y330835D03*
D61*
X488315Y330835D03*
D33*
X525463Y330835D03*
D79*
X569278Y330835D03*
D25*
X601980Y330835D03*
X415925Y331470D03*
D49*
X430213Y331470D03*
X488633Y331470D03*
D55*
X526415Y331470D03*
D79*
X569278Y331470D03*
D25*
X602615Y331470D03*
D51*
X415608Y332105D03*
D49*
X429578Y332105D03*
X488633Y332105D03*
X528003Y332105D03*
D81*
X569595Y332105D03*
D25*
X603250Y332105D03*
X415290Y332740D03*
D61*
X429260Y332740D03*
D49*
X488633Y332740D03*
X528003Y332740D03*
D81*
X569595Y332740D03*
D25*
X603885Y332740D03*
D51*
X414338Y333375D03*
D49*
X428943Y333375D03*
X488633Y333375D03*
D61*
X527685Y333375D03*
D79*
X570548Y333375D03*
D39*
X604838Y333375D03*
D25*
X414020Y334010D03*
D49*
X428308Y334010D03*
X488633Y334010D03*
D61*
X527685Y334010D03*
D80*
X571500Y334010D03*
D44*
X605790Y334010D03*
D25*
X413385Y334645D03*
D49*
X427673Y334645D03*
X489268Y334645D03*
X527368Y334645D03*
D80*
X572770Y334645D03*
D25*
X412750Y335280D03*
D49*
X427038Y335280D03*
X489268Y335280D03*
X527368Y335280D03*
D83*
X573405Y335280D03*
D25*
X412115Y335915D03*
D61*
X426720Y335915D03*
D49*
X489268Y335915D03*
X527368Y335915D03*
D119*
X573723Y335915D03*
D25*
X411480Y336550D03*
D61*
X426085Y336550D03*
D49*
X489268Y336550D03*
D61*
X527050Y336550D03*
D120*
X574358Y336550D03*
D25*
X411480Y337185D03*
D61*
X425450Y337185D03*
D49*
X489903Y337185D03*
D61*
X527050Y337185D03*
D117*
X574993Y337185D03*
D25*
X410845Y337820D03*
D49*
X425133Y337820D03*
X489903Y337820D03*
X526733Y337820D03*
D116*
X575628Y337820D03*
D25*
X410210Y338455D03*
D49*
X424498Y338455D03*
X489903Y338455D03*
X526733Y338455D03*
D100*
X575945Y338455D03*
D25*
X409575Y339090D03*
D61*
X424180Y339090D03*
D49*
X490538Y339090D03*
D61*
X526415Y339090D03*
D110*
X576580Y339090D03*
D25*
X408940Y339725D03*
D61*
X423545Y339725D03*
D49*
X490538Y339725D03*
X526098Y339725D03*
D121*
X577215Y339725D03*
D51*
X408623Y340360D03*
D61*
X422910Y340360D03*
D49*
X490538Y340360D03*
D61*
X525780Y340360D03*
D102*
X577533Y340360D03*
D25*
X408305Y340995D03*
D49*
X422593Y340995D03*
X491173Y340995D03*
D61*
X525780Y340995D03*
D122*
X578485Y340995D03*
D25*
X407670Y341630D03*
D49*
X421958Y341630D03*
X491173Y341630D03*
D61*
X525145Y341630D03*
D123*
X579120Y341630D03*
D25*
X407035Y342265D03*
D49*
X421323Y342265D03*
X491808Y342265D03*
D61*
X525145Y342265D03*
D124*
X579438Y342265D03*
D25*
X406400Y342900D03*
D61*
X421005Y342900D03*
X492125Y342900D03*
D48*
X524828Y342900D03*
D125*
X580073Y342900D03*
D51*
X406083Y343535D03*
D61*
X420370Y343535D03*
D49*
X492443Y343535D03*
D61*
X524510Y343535D03*
D126*
X580708Y343535D03*
D51*
X405448Y344170D03*
D49*
X420053Y344170D03*
D61*
X492760Y344170D03*
D48*
X524193Y344170D03*
D127*
X581978Y344170D03*
D51*
X404813Y344805D03*
D49*
X419418Y344805D03*
D61*
X493395Y344805D03*
D48*
X523558Y344805D03*
D127*
X583883Y344805D03*
D51*
X404178Y345440D03*
D49*
X418783Y345440D03*
D45*
X494030Y345440D03*
D42*
X522923Y345440D03*
D127*
X585788Y345440D03*
D25*
X403860Y346075D03*
D49*
X418148Y346075D03*
D45*
X494665Y346075D03*
D42*
X522288Y346075D03*
D38*
X557213Y346075D03*
D128*
X598805Y346075D03*
D25*
X403225Y346710D03*
D49*
X417513Y346710D03*
D22*
X495618Y346710D03*
D16*
X521335Y346710D03*
D42*
X557213Y346710D03*
D128*
X600710Y346710D03*
D25*
X402590Y347345D03*
D61*
X417195Y347345D03*
D92*
X508635Y347345D03*
D61*
X557530Y347345D03*
D128*
X601980Y347345D03*
D51*
X402273Y347980D03*
D61*
X416560Y347980D03*
D71*
X508635Y347980D03*
D55*
X557530Y347980D03*
D128*
X603885Y347980D03*
D51*
X401638Y348615D03*
D61*
X415925Y348615D03*
D70*
X508635Y348615D03*
D20*
X557530Y348615D03*
D117*
X605473Y348615D03*
D25*
X401320Y349250D03*
D49*
X415608Y349250D03*
D70*
X508635Y349250D03*
D53*
X557848Y349250D03*
D128*
X607060Y349250D03*
D25*
X400685Y349885D03*
D49*
X414973Y349885D03*
D93*
X508635Y349885D03*
D36*
X558165Y349885D03*
D117*
X608648Y349885D03*
D25*
X400050Y350520D03*
D49*
X414338Y350520D03*
D19*
X508635Y350520D03*
D47*
X558165Y350520D03*
D128*
X610235Y350520D03*
D25*
X399415Y351155D03*
D61*
X414020Y351155D03*
D96*
X508635Y351155D03*
D128*
X612140Y351155D03*
D51*
X399098Y351790D03*
D61*
X413385Y351790D03*
D67*
X508635Y351790D03*
D39*
X585788Y351790D03*
D84*
X616268Y351790D03*
D25*
X398780Y352425D03*
D49*
X413068Y352425D03*
D89*
X508635Y352425D03*
D83*
X617855Y352425D03*
D25*
X398145Y353060D03*
D49*
X412433Y353060D03*
D90*
X508635Y353060D03*
D83*
X619760Y353060D03*
D25*
X397510Y353695D03*
D49*
X411798Y353695D03*
D27*
X508953Y353695D03*
D83*
X621030Y353695D03*
D25*
X396875Y354330D03*
D61*
X411480Y354330D03*
D59*
X508635Y354330D03*
D83*
X622935Y354330D03*
D51*
X396558Y354965D03*
D61*
X410845Y354965D03*
D13*
X508635Y354965D03*
D82*
X624523Y354965D03*
D51*
X395923Y355600D03*
D61*
X410210Y355600D03*
D40*
X508635Y355600D03*
D82*
X625793Y355600D03*
D51*
X395288Y356235D03*
D49*
X409893Y356235D03*
D31*
X508635Y356235D03*
D82*
X627063Y356235D03*
D51*
X394653Y356870D03*
D49*
X409258Y356870D03*
D16*
X508635Y356870D03*
D81*
X628650Y356870D03*
D25*
X394335Y357505D03*
D49*
X408623Y357505D03*
D61*
X508635Y357505D03*
D79*
X630238Y357505D03*
D25*
X393700Y358140D03*
D49*
X407988Y358140D03*
D35*
X508635Y358140D03*
D78*
X631508Y358140D03*
D25*
X393065Y358775D03*
D61*
X407670Y358775D03*
D78*
X632778Y358775D03*
D51*
X392748Y359410D03*
D61*
X407035Y359410D03*
D77*
X634048Y359410D03*
D51*
X392113Y360045D03*
D61*
X406400Y360045D03*
D77*
X635318Y360045D03*
D25*
X391795Y360680D03*
D49*
X406083Y360680D03*
D74*
X636588Y360680D03*
D25*
X391160Y361315D03*
D49*
X405448Y361315D03*
D44*
X605790Y361315D03*
D73*
X637858Y361315D03*
D25*
X390525Y361950D03*
D49*
X404813Y361950D03*
D39*
X606743Y361950D03*
D87*
X638810Y361950D03*
D25*
X389890Y362585D03*
D61*
X404495Y362585D03*
D30*
X608013Y362585D03*
D92*
X640080Y362585D03*
D51*
X389573Y363220D03*
D61*
X403860Y363220D03*
D51*
X608648Y363220D03*
D97*
X641668Y363220D03*
D51*
X388938Y363855D03*
D49*
X403543Y363855D03*
D53*
X609918Y363855D03*
D86*
X642938Y363855D03*
D25*
X388620Y364490D03*
D49*
X402908Y364490D03*
D60*
X611188Y364490D03*
D70*
X643890Y364490D03*
D25*
X387985Y365125D03*
D49*
X402273Y365125D03*
D43*
X612140Y365125D03*
D93*
X645160Y365125D03*
D25*
X387350Y365760D03*
D49*
X401638Y365760D03*
D20*
X613410Y365760D03*
D68*
X646113Y365760D03*
D25*
X386715Y366395D03*
D61*
X401320Y366395D03*
D35*
X614680Y366395D03*
D85*
X647383Y366395D03*
D25*
X386080Y367030D03*
D49*
X400368Y367030D03*
D55*
X615950Y367030D03*
D67*
X648335Y367030D03*
D25*
X385445Y367665D03*
D49*
X400368Y367665D03*
D15*
X616585Y367665D03*
D95*
X649288Y367665D03*
D51*
X385128Y368300D03*
D49*
X399733Y368300D03*
D54*
X617855Y368300D03*
D65*
X650558Y368300D03*
D25*
X384810Y368935D03*
D49*
X399098Y368935D03*
X618808Y368935D03*
D90*
X651510Y368935D03*
D25*
X384175Y369570D03*
D49*
X398463Y369570D03*
X619443Y369570D03*
D66*
X652780Y369570D03*
D25*
X383540Y370205D03*
D49*
X397828Y370205D03*
X620078Y370205D03*
D63*
X654050Y370205D03*
D25*
X382905Y370840D03*
D61*
X397510Y370840D03*
X620395Y370840D03*
D59*
X654685Y370840D03*
D51*
X382588Y371475D03*
D61*
X396875Y371475D03*
D49*
X620713Y371475D03*
D13*
X655955Y371475D03*
D25*
X382270Y372110D03*
D61*
X396240Y372110D03*
D49*
X621348Y372110D03*
D58*
X634048Y372110D03*
D57*
X656908Y372110D03*
D25*
X381635Y372745D03*
D49*
X395923Y372745D03*
X621983Y372745D03*
D39*
X635318Y372745D03*
D50*
X658178Y372745D03*
D25*
X381000Y373380D03*
D49*
X395288Y373380D03*
X622618Y373380D03*
D36*
X636270Y373380D03*
D28*
X659130Y373380D03*
D25*
X380365Y374015D03*
D61*
X394970Y374015D03*
X622935Y374015D03*
D30*
X637223Y374015D03*
D61*
X659130Y374015D03*
D51*
X380048Y374650D03*
D61*
X394335Y374650D03*
D49*
X623253Y374650D03*
D51*
X637858Y374650D03*
X379413Y375285D03*
D61*
X393700Y375285D03*
D49*
X623888Y375285D03*
D25*
X638175Y375285D03*
X379095Y375920D03*
D49*
X393383Y375920D03*
X624523Y375920D03*
D25*
X638810Y375920D03*
X378460Y376555D03*
D49*
X392748Y376555D03*
X625158Y376555D03*
D25*
X639445Y376555D03*
X377825Y377190D03*
D49*
X392113Y377190D03*
D61*
X625475Y377190D03*
D25*
X640080Y377190D03*
D51*
X377508Y377825D03*
D61*
X391795Y377825D03*
D43*
X416560Y377825D03*
D15*
X442595Y377825D03*
D60*
X461328Y377825D03*
D42*
X477838Y377825D03*
D37*
X503238Y377825D03*
D20*
X521335Y377825D03*
D43*
X541020Y377825D03*
D60*
X552133Y377825D03*
D42*
X568643Y377825D03*
D60*
X585153Y377825D03*
D30*
X597218Y377825D03*
D43*
X608965Y377825D03*
D61*
X626110Y377825D03*
D25*
X640715Y377825D03*
D51*
X376873Y378460D03*
D49*
X390843Y378460D03*
D43*
X415925Y378460D03*
D48*
X442913Y378460D03*
D60*
X461328Y378460D03*
D14*
X477520Y378460D03*
D37*
X502603Y378460D03*
D20*
X521970Y378460D03*
D41*
X540703Y378460D03*
D60*
X552133Y378460D03*
D14*
X568325Y378460D03*
D43*
X584835Y378460D03*
D25*
X596900Y378460D03*
D43*
X608965Y378460D03*
D49*
X626428Y378460D03*
D25*
X640715Y378460D03*
D51*
X376238Y379095D03*
D49*
X390843Y379095D03*
D43*
X415925Y379095D03*
D22*
X442913Y379095D03*
D60*
X461328Y379095D03*
D14*
X476885Y379095D03*
D31*
X501650Y379095D03*
D20*
X522605Y379095D03*
D43*
X540385Y379095D03*
X552450Y379095D03*
D14*
X567690Y379095D03*
D43*
X584835Y379095D03*
D51*
X596583Y379095D03*
D43*
X608965Y379095D03*
D49*
X627063Y379095D03*
D25*
X641350Y379095D03*
D51*
X375603Y379730D03*
D49*
X390208Y379730D03*
D43*
X415925Y379730D03*
D24*
X442913Y379730D03*
D60*
X461328Y379730D03*
D14*
X476250Y379730D03*
D26*
X501333Y379730D03*
D20*
X523240Y379730D03*
D43*
X540385Y379730D03*
X552450Y379730D03*
D14*
X567690Y379730D03*
D43*
X584200Y379730D03*
D17*
X596265Y379730D03*
D43*
X608330Y379730D03*
D49*
X627698Y379730D03*
D25*
X641985Y379730D03*
X375285Y380365D03*
D49*
X389573Y380365D03*
D43*
X415290Y380365D03*
D38*
X442913Y380365D03*
D60*
X461328Y380365D03*
D14*
X475615Y380365D03*
D31*
X501015Y380365D03*
D20*
X523875Y380365D03*
D43*
X539750Y380365D03*
D60*
X552768Y380365D03*
D14*
X567055Y380365D03*
D43*
X584200Y380365D03*
D17*
X596265Y380365D03*
D43*
X608330Y380365D03*
D61*
X628015Y380365D03*
D25*
X642620Y380365D03*
X374650Y381000D03*
D49*
X388938Y381000D03*
D43*
X415290Y381000D03*
D28*
X442595Y381000D03*
D43*
X461645Y381000D03*
D14*
X475615Y381000D03*
D31*
X500380Y381000D03*
D20*
X524510Y381000D03*
D43*
X539750Y381000D03*
D60*
X552768Y381000D03*
D14*
X566420Y381000D03*
D43*
X584200Y381000D03*
D46*
X596265Y381000D03*
D43*
X608330Y381000D03*
D61*
X628650Y381000D03*
D25*
X643255Y381000D03*
X374015Y381635D03*
D49*
X388303Y381635D03*
D43*
X414655Y381635D03*
D37*
X442278Y381635D03*
D52*
X470853Y381635D03*
D31*
X499745Y381635D03*
D20*
X525145Y381635D03*
D43*
X539750Y381635D03*
D40*
X561975Y381635D03*
D43*
X583565Y381635D03*
D60*
X595948Y381635D03*
D43*
X607695Y381635D03*
D61*
X629285Y381635D03*
D51*
X643573Y381635D03*
D25*
X373380Y382270D03*
D61*
X387985Y382270D03*
D43*
X414655Y382270D03*
D26*
X442278Y382270D03*
D50*
X470853Y382270D03*
D31*
X499745Y382270D03*
D20*
X525780Y382270D03*
D43*
X539115Y382270D03*
D50*
X561658Y382270D03*
D43*
X583565Y382270D03*
X595630Y382270D03*
X607695Y382270D03*
D49*
X629603Y382270D03*
D25*
X643890Y382270D03*
X372745Y382905D03*
D61*
X387350Y382905D03*
D43*
X414655Y382905D03*
D26*
X442278Y382905D03*
D21*
X470535Y382905D03*
D37*
X499428Y382905D03*
D20*
X526415Y382905D03*
D43*
X539115Y382905D03*
D50*
X561658Y382905D03*
D43*
X583565Y382905D03*
D41*
X595313Y382905D03*
D43*
X607060Y382905D03*
D49*
X630238Y382905D03*
D25*
X644525Y382905D03*
D51*
X372428Y383540D03*
D61*
X386715Y383540D03*
D43*
X414020Y383540D03*
D35*
X434975Y383540D03*
D33*
X449263Y383540D03*
D60*
X461963Y383540D03*
D41*
X477838Y383540D03*
D43*
X491490Y383540D03*
D33*
X527368Y383540D03*
D41*
X538798Y383540D03*
D43*
X553085Y383540D03*
D41*
X569278Y383540D03*
D43*
X582930Y383540D03*
D20*
X594995Y383540D03*
D43*
X607060Y383540D03*
D61*
X630555Y383540D03*
D25*
X645160Y383540D03*
X372110Y384175D03*
D49*
X386398Y384175D03*
D43*
X414020Y384175D03*
D41*
X434023Y384175D03*
D20*
X449580Y384175D03*
D60*
X461963Y384175D03*
D41*
X477838Y384175D03*
D43*
X491490Y384175D03*
D33*
X528003Y384175D03*
D43*
X538480Y384175D03*
X553085Y384175D03*
D41*
X568643Y384175D03*
D43*
X582930Y384175D03*
D35*
X594995Y384175D03*
D43*
X607060Y384175D03*
D61*
X631190Y384175D03*
D25*
X645795Y384175D03*
X371475Y384810D03*
D49*
X385763Y384810D03*
D43*
X414020Y384810D03*
D41*
X433388Y384810D03*
X449898Y384810D03*
D60*
X461963Y384810D03*
D41*
X477203Y384810D03*
D43*
X491490Y384810D03*
D33*
X528638Y384810D03*
D43*
X538480Y384810D03*
D60*
X553403Y384810D03*
D41*
X568008Y384810D03*
D43*
X582930Y384810D03*
D29*
X594678Y384810D03*
D43*
X606425Y384810D03*
D61*
X631825Y384810D03*
D51*
X646113Y384810D03*
D25*
X370840Y385445D03*
D49*
X385128Y385445D03*
D43*
X413385Y385445D03*
X433070Y385445D03*
D41*
X449898Y385445D03*
D43*
X462280Y385445D03*
D41*
X476568Y385445D03*
D43*
X491490Y385445D03*
D42*
X533083Y385445D03*
D60*
X553403Y385445D03*
D20*
X567690Y385445D03*
D43*
X582295Y385445D03*
D55*
X594360Y385445D03*
D43*
X606425Y385445D03*
D49*
X632143Y385445D03*
D51*
X646748Y385445D03*
D25*
X370205Y386080D03*
D61*
X384810Y386080D03*
D43*
X413385Y386080D03*
D41*
X432753Y386080D03*
D43*
X449580Y386080D03*
D60*
X462598Y386080D03*
D41*
X475933Y386080D03*
D22*
X496888Y386080D03*
D34*
X531495Y386080D03*
D60*
X553403Y386080D03*
D41*
X567373Y386080D03*
D43*
X582295Y386080D03*
D23*
X594043Y386080D03*
D43*
X606425Y386080D03*
D49*
X632778Y386080D03*
D51*
X647383Y386080D03*
X369888Y386715D03*
D61*
X384175Y386715D03*
D41*
X413068Y386715D03*
D43*
X432435Y386715D03*
X449580Y386715D03*
D60*
X462598Y386715D03*
D41*
X475933Y386715D03*
D22*
X497523Y386715D03*
D37*
X530543Y386715D03*
D60*
X553403Y386715D03*
D41*
X566738Y386715D03*
X581978Y386715D03*
D15*
X593725Y386715D03*
D43*
X605790Y386715D03*
D49*
X633413Y386715D03*
D25*
X647700Y386715D03*
X369570Y387350D03*
D61*
X383540Y387350D03*
D43*
X412750Y387350D03*
X431800Y387350D03*
X449580Y387350D03*
D60*
X462598Y387350D03*
D41*
X475298Y387350D03*
D16*
X497840Y387350D03*
D31*
X529590Y387350D03*
D60*
X553403Y387350D03*
D41*
X566103Y387350D03*
D43*
X581660Y387350D03*
D15*
X593725Y387350D03*
D43*
X605790Y387350D03*
D49*
X634048Y387350D03*
D25*
X648335Y387350D03*
X368935Y387985D03*
D49*
X383223Y387985D03*
D43*
X412750Y387985D03*
X431800Y387985D03*
X449580Y387985D03*
D60*
X462598Y387985D03*
D41*
X474663Y387985D03*
D24*
X498158Y387985D03*
D21*
X528955Y387985D03*
D43*
X553720Y387985D03*
D41*
X565468Y387985D03*
D43*
X581660Y387985D03*
D54*
X593725Y387985D03*
D43*
X605790Y387985D03*
D61*
X634365Y387985D03*
D25*
X648970Y387985D03*
X368300Y388620D03*
D49*
X382588Y388620D03*
D43*
X412115Y388620D03*
X431800Y388620D03*
X448945Y388620D03*
D60*
X462598Y388620D03*
D41*
X474028Y388620D03*
D24*
X498793Y388620D03*
D48*
X524193Y388620D03*
D43*
X537210Y388620D03*
D60*
X554038Y388620D03*
D41*
X565468Y388620D03*
D66*
X593090Y388620D03*
D61*
X635000Y388620D03*
D25*
X649605Y388620D03*
X367665Y389255D03*
D61*
X382270Y389255D03*
D43*
X412115Y389255D03*
X431165Y389255D03*
X448945Y389255D03*
D60*
X462598Y389255D03*
D43*
X473710Y389255D03*
D16*
X499110Y389255D03*
D48*
X523558Y389255D03*
D43*
X536575Y389255D03*
D60*
X554038Y389255D03*
D41*
X564833Y389255D03*
D61*
X584835Y389255D03*
X601345Y389255D03*
X635635Y389255D03*
D51*
X649923Y389255D03*
X367348Y389890D03*
D49*
X381318Y389890D03*
D43*
X412115Y389890D03*
X431165Y389890D03*
X448945Y389890D03*
X462915Y389890D03*
D41*
X473393Y389890D03*
D24*
X499428Y389890D03*
D48*
X522923Y389890D03*
D43*
X536575Y389890D03*
D60*
X554038Y389890D03*
D41*
X564198Y389890D03*
D49*
X584518Y389890D03*
X601028Y389890D03*
X635953Y389890D03*
D25*
X650240Y389890D03*
D51*
X366713Y390525D03*
D61*
X381000Y390525D03*
D43*
X411480Y390525D03*
X431165Y390525D03*
X448310Y390525D03*
D60*
X463233Y390525D03*
D41*
X472758Y390525D03*
D22*
X500063Y390525D03*
D61*
X522605Y390525D03*
D41*
X536258Y390525D03*
D60*
X554038Y390525D03*
D41*
X563563Y390525D03*
D49*
X583883Y390525D03*
X601028Y390525D03*
X636588Y390525D03*
D25*
X650875Y390525D03*
D51*
X366078Y391160D03*
D49*
X380683Y391160D03*
D43*
X411480Y391160D03*
X430530Y391160D03*
X448310Y391160D03*
D60*
X463233Y391160D03*
D41*
X472123Y391160D03*
D42*
X500698Y391160D03*
D61*
X521970Y391160D03*
D43*
X535940Y391160D03*
D60*
X554038Y391160D03*
D43*
X563245Y391160D03*
D54*
X583565Y391160D03*
D49*
X601028Y391160D03*
D61*
X636905Y391160D03*
D25*
X651510Y391160D03*
D51*
X365443Y391795D03*
D49*
X380048Y391795D03*
D43*
X411480Y391795D03*
X430530Y391795D03*
X448310Y391795D03*
D60*
X463233Y391795D03*
D43*
X471805Y391795D03*
X505460Y391795D03*
D41*
X518478Y391795D03*
D43*
X535940Y391795D03*
D60*
X554038Y391795D03*
D41*
X562928Y391795D03*
D54*
X582930Y391795D03*
D56*
X601028Y391795D03*
D61*
X637540Y391795D03*
D51*
X651828Y391795D03*
D25*
X365125Y392430D03*
D49*
X379413Y392430D03*
D43*
X410845Y392430D03*
X429895Y392430D03*
X447675Y392430D03*
D61*
X467360Y392430D03*
D43*
X505460Y392430D03*
X518160Y392430D03*
X535305Y392430D03*
D48*
X558483Y392430D03*
D56*
X582613Y392430D03*
X601028Y392430D03*
D61*
X638175Y392430D03*
D51*
X652463Y392430D03*
D25*
X364490Y393065D03*
D49*
X378778Y393065D03*
D43*
X410845Y393065D03*
X429895Y393065D03*
X447675Y393065D03*
D61*
X467360Y393065D03*
D43*
X505460Y393065D03*
X518160Y393065D03*
X535305Y393065D03*
D49*
X558483Y393065D03*
D56*
X582613Y393065D03*
X601028Y393065D03*
D49*
X638493Y393065D03*
D25*
X652780Y393065D03*
X363855Y393700D03*
D61*
X378460Y393700D03*
D24*
X411798Y393700D03*
D43*
X429895Y393700D03*
X447675Y393700D03*
D49*
X467043Y393700D03*
D37*
X498158Y393700D03*
D50*
X526733Y393700D03*
D54*
X558165Y393700D03*
D56*
X581978Y393700D03*
D15*
X600710Y393700D03*
D49*
X639128Y393700D03*
D25*
X653415Y393700D03*
X363220Y394335D03*
D61*
X377825Y394335D03*
D38*
X411163Y394335D03*
D43*
X429260Y394335D03*
X447040Y394335D03*
D56*
X467043Y394335D03*
D37*
X497523Y394335D03*
D21*
X526415Y394335D03*
D54*
X558165Y394335D03*
D15*
X581660Y394335D03*
X600710Y394335D03*
D61*
X639445Y394335D03*
D25*
X654050Y394335D03*
D51*
X362903Y394970D03*
D61*
X377190Y394970D03*
D38*
X410528Y394970D03*
D43*
X429260Y394970D03*
X447040Y394970D03*
D15*
X466725Y394970D03*
D31*
X497205Y394970D03*
D21*
X526415Y394970D03*
D56*
X557848Y394970D03*
D23*
X581343Y394970D03*
D15*
X600710Y394970D03*
D61*
X640080Y394970D03*
D51*
X654368Y394970D03*
D25*
X362585Y395605D03*
D49*
X376873Y395605D03*
D28*
X410210Y395605D03*
D43*
X429260Y395605D03*
X447040Y395605D03*
D15*
X466725Y395605D03*
D31*
X496570Y395605D03*
D26*
X526733Y395605D03*
D15*
X557530Y395605D03*
D23*
X580708Y395605D03*
D55*
X600710Y395605D03*
D61*
X640715Y395605D03*
D51*
X655003Y395605D03*
D25*
X361950Y396240D03*
D49*
X376238Y396240D03*
D38*
X409893Y396240D03*
D43*
X428625Y396240D03*
X446405Y396240D03*
D23*
X466408Y396240D03*
D31*
X495935Y396240D03*
X526415Y396240D03*
D55*
X557530Y396240D03*
X580390Y396240D03*
X600710Y396240D03*
D49*
X641033Y396240D03*
D25*
X655320Y396240D03*
X361315Y396875D03*
D49*
X375603Y396875D03*
D38*
X409258Y396875D03*
D43*
X428625Y396875D03*
X446405Y396875D03*
D55*
X466090Y396875D03*
D31*
X495935Y396875D03*
X526415Y396875D03*
D29*
X557213Y396875D03*
X580073Y396875D03*
X600393Y396875D03*
D49*
X641668Y396875D03*
D25*
X655955Y396875D03*
X360680Y397510D03*
D61*
X375285Y397510D03*
D38*
X408623Y397510D03*
D43*
X428625Y397510D03*
X446405Y397510D03*
D35*
X466090Y397510D03*
D31*
X495300Y397510D03*
D37*
X526733Y397510D03*
D29*
X557213Y397510D03*
X579438Y397510D03*
X600393Y397510D03*
D49*
X642303Y397510D03*
D25*
X656590Y397510D03*
D51*
X360363Y398145D03*
D61*
X374650Y398145D03*
D38*
X407988Y398145D03*
D43*
X427990Y398145D03*
X445770Y398145D03*
D33*
X465773Y398145D03*
D31*
X494665Y398145D03*
D38*
X526733Y398145D03*
D33*
X557213Y398145D03*
D35*
X579120Y398145D03*
D29*
X600393Y398145D03*
D49*
X642938Y398145D03*
D25*
X657225Y398145D03*
X360045Y398780D03*
D49*
X374333Y398780D03*
D34*
X407670Y398780D03*
D43*
X427990Y398780D03*
X445770Y398780D03*
D41*
X465773Y398780D03*
D37*
X493713Y398780D03*
D34*
X527050Y398780D03*
D20*
X556895Y398780D03*
D35*
X578485Y398780D03*
D33*
X600393Y398780D03*
D61*
X643255Y398780D03*
D51*
X657543Y398780D03*
D25*
X359410Y399415D03*
D49*
X373698Y399415D03*
D24*
X407353Y399415D03*
D60*
X427673Y399415D03*
X445453Y399415D03*
X465773Y399415D03*
D38*
X493078Y399415D03*
D22*
X527368Y399415D03*
D60*
X556578Y399415D03*
D20*
X578485Y399415D03*
D33*
X600393Y399415D03*
D49*
X643573Y399415D03*
D25*
X657860Y399415D03*
X358775Y400050D03*
D49*
X373063Y400050D03*
X644208Y400050D03*
D25*
X658495Y400050D03*
X358140Y400685D03*
D49*
X372428Y400685D03*
X644843Y400685D03*
D25*
X659130Y400685D03*
D51*
X357823Y401320D03*
D49*
X371793Y401320D03*
X645478Y401320D03*
D25*
X659765Y401320D03*
D51*
X357188Y401955D03*
D61*
X371475Y401955D03*
D49*
X646113Y401955D03*
D51*
X660083Y401955D03*
X356553Y402590D03*
D49*
X371158Y402590D03*
X646113Y402590D03*
D25*
X660400Y402590D03*
D51*
X355918Y403225D03*
D49*
X370523Y403225D03*
X646748Y403225D03*
D25*
X661035Y403225D03*
X355600Y403860D03*
D49*
X369888Y403860D03*
X647383Y403860D03*
D25*
X661670Y403860D03*
X354965Y404495D03*
D49*
X369253Y404495D03*
X648018Y404495D03*
D25*
X662305Y404495D03*
X354330Y405130D03*
D49*
X368618Y405130D03*
X648653Y405130D03*
D25*
X662940Y405130D03*
X353695Y405765D03*
D61*
X368300Y405765D03*
D49*
X648653Y405765D03*
D25*
X663575Y405765D03*
D51*
X353378Y406400D03*
D61*
X367665Y406400D03*
D49*
X649288Y406400D03*
D51*
X663893Y406400D03*
X352743Y407035D03*
D49*
X367348Y407035D03*
X649923Y407035D03*
D25*
X664210Y407035D03*
X352425Y407670D03*
D49*
X366713Y407670D03*
X650558Y407670D03*
D25*
X664845Y407670D03*
X351790Y408305D03*
D49*
X366078Y408305D03*
X651193Y408305D03*
D25*
X665480Y408305D03*
X351155Y408940D03*
D61*
X365760Y408940D03*
X651510Y408940D03*
D25*
X666115Y408940D03*
X350520Y409575D03*
D49*
X364808Y409575D03*
D61*
X652145Y409575D03*
D51*
X666433Y409575D03*
D25*
X349885Y410210D03*
D61*
X364490Y410210D03*
D49*
X652463Y410210D03*
D25*
X666750Y410210D03*
D51*
X349568Y410845D03*
D49*
X364173Y410845D03*
X653098Y410845D03*
D25*
X667385Y410845D03*
X349250Y411480D03*
D49*
X363538Y411480D03*
X653733Y411480D03*
D25*
X668020Y411480D03*
X348615Y412115D03*
D49*
X362903Y412115D03*
D61*
X654050Y412115D03*
D25*
X668655Y412115D03*
X347980Y412750D03*
D49*
X362268Y412750D03*
X655003Y412750D03*
D51*
X668973Y412750D03*
D25*
X347345Y413385D03*
D61*
X361950Y413385D03*
X655320Y413385D03*
D25*
X669290Y413385D03*
X346710Y414020D03*
D61*
X361315Y414020D03*
D49*
X655638Y414020D03*
D51*
X670243Y414020D03*
X346393Y414655D03*
D61*
X360680Y414655D03*
D49*
X656273Y414655D03*
D25*
X670560Y414655D03*
X346075Y415290D03*
D61*
X360680Y415290D03*
X656590Y415290D03*
D25*
X671195Y415290D03*
X345440Y415925D03*
D129*
X508635Y415925D03*
D25*
X671830Y415925D03*
X344805Y416560D03*
D130*
X508635Y416560D03*
D25*
X672465Y416560D03*
X344170Y417195D03*
D131*
X508635Y417195D03*
D51*
X672783Y417195D03*
X343853Y417830D03*
D132*
X508318Y417830D03*
D25*
X673100Y417830D03*
D51*
X343218Y418465D03*
D133*
X508318Y418465D03*
D25*
X673735Y418465D03*
X342900Y419100D03*
D134*
X508635Y419100D03*
D25*
X674370Y419100D03*
X342265Y419735D03*
D135*
X508635Y419735D03*
D25*
X675005Y419735D03*
X341630Y420370D03*
D136*
X508635Y420370D03*
D51*
X675323Y420370D03*
D25*
X340995Y421005D03*
D137*
X508635Y421005D03*
D51*
X675958Y421005D03*
X340678Y421640D03*
D138*
X508318Y421640D03*
D25*
X676275Y421640D03*
D51*
X340043Y422275D03*
D139*
X508635Y422275D03*
D25*
X676910Y422275D03*
D51*
X339408Y422910D03*
D140*
X508635Y422910D03*
D25*
X677545Y422910D03*
X339090Y423545D03*
D141*
X508318Y423545D03*
D51*
X677863Y423545D03*
D25*
X338455Y424180D03*
D51*
X678498Y424180D03*
D25*
X337820Y424815D03*
X678815Y424815D03*
X337185Y425450D03*
X679450Y425450D03*
D51*
X336868Y426085D03*
D25*
X680085Y426085D03*
X336550Y426720D03*
D51*
X680403Y426720D03*
D142*
X508635Y427355D03*
D143*
X508318Y427990D03*
D144*
X508318Y428625D03*
D145*
X508318Y429260D03*
X508318Y429895D03*
D146*
X231780Y391160D02*
X197480Y391160D01*
X197480Y137160D02*
X231780Y137160D01*
D147*
X176280Y143010D02*
X176282Y143054D01*
X176288Y143098D01*
X176298Y143141D01*
X176311Y143183D01*
X176328Y143224D01*
X176349Y143263D01*
X176373Y143300D01*
X176400Y143335D01*
X176430Y143367D01*
X176463Y143397D01*
X176499Y143423D01*
X176536Y143447D01*
X176576Y143466D01*
X176617Y143483D01*
X176660Y143495D01*
X176703Y143504D01*
X176747Y143509D01*
X176791Y143510D01*
X176835Y143507D01*
X176879Y143500D01*
X176922Y143489D01*
X176964Y143475D01*
X177004Y143457D01*
X177043Y143435D01*
X177079Y143411D01*
X177113Y143383D01*
X177145Y143352D01*
X177174Y143318D01*
X177200Y143282D01*
X177222Y143244D01*
X177241Y143204D01*
X177256Y143162D01*
X177268Y143120D01*
X177276Y143076D01*
X177280Y143032D01*
X177280Y142988D01*
X177276Y142944D01*
X177268Y142900D01*
X177256Y142858D01*
X177241Y142816D01*
X177222Y142776D01*
X177200Y142738D01*
X177174Y142702D01*
X177145Y142668D01*
X177113Y142637D01*
X177079Y142609D01*
X177043Y142585D01*
X177004Y142563D01*
X176964Y142545D01*
X176922Y142531D01*
X176879Y142520D01*
X176835Y142513D01*
X176791Y142510D01*
X176747Y142511D01*
X176703Y142516D01*
X176660Y142525D01*
X176617Y142537D01*
X176576Y142554D01*
X176536Y142573D01*
X176499Y142597D01*
X176463Y142623D01*
X176430Y142653D01*
X176400Y142685D01*
X176373Y142720D01*
X176349Y142757D01*
X176328Y142796D01*
X176311Y142837D01*
X176298Y142879D01*
X176288Y142922D01*
X176282Y142966D01*
X176280Y143010D01*
D148*
X172119Y259876D02*
X163031Y259876D01*
X163031Y259875D02*
X162932Y259873D01*
X162832Y259867D01*
X162733Y259858D01*
X162635Y259845D01*
X162537Y259828D01*
X162439Y259807D01*
X162343Y259782D01*
X162248Y259754D01*
X162154Y259722D01*
X162061Y259687D01*
X161969Y259648D01*
X161879Y259605D01*
X161791Y259560D01*
X161704Y259510D01*
X161620Y259458D01*
X161537Y259402D01*
X161457Y259344D01*
X161379Y259282D01*
X161304Y259217D01*
X161231Y259149D01*
X161161Y259079D01*
X161093Y259006D01*
X161028Y258931D01*
X160966Y258853D01*
X160908Y258773D01*
X160852Y258690D01*
X160800Y258606D01*
X160750Y258519D01*
X160705Y258431D01*
X160662Y258341D01*
X160623Y258249D01*
X160588Y258156D01*
X160556Y258062D01*
X160528Y257967D01*
X160503Y257871D01*
X160482Y257773D01*
X160465Y257675D01*
X160452Y257577D01*
X160443Y257478D01*
X160437Y257378D01*
X160435Y257279D01*
X160435Y255981D01*
X160435Y265149D02*
X160435Y268395D01*
X160434Y268395D02*
X160436Y268508D01*
X160442Y268621D01*
X160452Y268734D01*
X160466Y268847D01*
X160483Y268959D01*
X160505Y269070D01*
X160530Y269180D01*
X160560Y269290D01*
X160593Y269398D01*
X160630Y269505D01*
X160670Y269611D01*
X160715Y269715D01*
X160763Y269818D01*
X160814Y269919D01*
X160869Y270018D01*
X160927Y270115D01*
X160989Y270210D01*
X161054Y270303D01*
X161122Y270393D01*
X161193Y270481D01*
X161268Y270567D01*
X161345Y270650D01*
X161425Y270730D01*
X161508Y270807D01*
X161594Y270882D01*
X161682Y270953D01*
X161772Y271021D01*
X161865Y271086D01*
X161960Y271148D01*
X162057Y271206D01*
X162156Y271261D01*
X162257Y271312D01*
X162360Y271360D01*
X162464Y271405D01*
X162570Y271445D01*
X162677Y271482D01*
X162785Y271515D01*
X162895Y271545D01*
X163005Y271570D01*
X163116Y271592D01*
X163228Y271609D01*
X163341Y271623D01*
X163454Y271633D01*
X163567Y271639D01*
X163680Y271641D01*
X163793Y271639D01*
X163906Y271633D01*
X164019Y271623D01*
X164132Y271609D01*
X164244Y271592D01*
X164355Y271570D01*
X164465Y271545D01*
X164575Y271515D01*
X164683Y271482D01*
X164790Y271445D01*
X164896Y271405D01*
X165000Y271360D01*
X165103Y271312D01*
X165204Y271261D01*
X165303Y271206D01*
X165400Y271148D01*
X165495Y271086D01*
X165588Y271021D01*
X165678Y270953D01*
X165766Y270882D01*
X165852Y270807D01*
X165935Y270730D01*
X166015Y270650D01*
X166092Y270567D01*
X166167Y270481D01*
X166238Y270393D01*
X166306Y270303D01*
X166371Y270210D01*
X166433Y270115D01*
X166491Y270018D01*
X166546Y269919D01*
X166597Y269818D01*
X166645Y269715D01*
X166690Y269611D01*
X166730Y269505D01*
X166767Y269398D01*
X166800Y269290D01*
X166830Y269180D01*
X166855Y269070D01*
X166877Y268959D01*
X166894Y268847D01*
X166908Y268734D01*
X166918Y268621D01*
X166924Y268508D01*
X166926Y268395D01*
X172119Y269044D02*
X172119Y265149D01*
X172118Y269044D02*
X172116Y269145D01*
X172110Y269245D01*
X172100Y269345D01*
X172087Y269445D01*
X172069Y269544D01*
X172048Y269643D01*
X172023Y269740D01*
X171994Y269837D01*
X171961Y269932D01*
X171925Y270026D01*
X171885Y270118D01*
X171842Y270209D01*
X171795Y270298D01*
X171745Y270385D01*
X171691Y270471D01*
X171634Y270554D01*
X171574Y270634D01*
X171511Y270713D01*
X171444Y270789D01*
X171375Y270862D01*
X171303Y270932D01*
X171229Y271000D01*
X171152Y271065D01*
X171072Y271126D01*
X170990Y271185D01*
X170906Y271240D01*
X170820Y271292D01*
X170732Y271341D01*
X170642Y271386D01*
X170550Y271428D01*
X170457Y271466D01*
X170362Y271500D01*
X170267Y271531D01*
X170170Y271558D01*
X170072Y271581D01*
X169973Y271601D01*
X169873Y271616D01*
X169773Y271628D01*
X169673Y271636D01*
X169572Y271640D01*
X169472Y271640D01*
X169371Y271636D01*
X169271Y271628D01*
X169171Y271616D01*
X169071Y271601D01*
X168972Y271581D01*
X168874Y271558D01*
X168777Y271531D01*
X168682Y271500D01*
X168587Y271466D01*
X168494Y271428D01*
X168402Y271386D01*
X168312Y271341D01*
X168224Y271292D01*
X168138Y271240D01*
X168054Y271185D01*
X167972Y271126D01*
X167892Y271065D01*
X167815Y271000D01*
X167741Y270932D01*
X167669Y270862D01*
X167600Y270789D01*
X167533Y270713D01*
X167470Y270634D01*
X167410Y270554D01*
X167353Y270471D01*
X167299Y270385D01*
X167249Y270298D01*
X167202Y270209D01*
X167159Y270118D01*
X167119Y270026D01*
X167083Y269932D01*
X167050Y269837D01*
X167021Y269740D01*
X166996Y269643D01*
X166975Y269544D01*
X166957Y269445D01*
X166944Y269345D01*
X166934Y269245D01*
X166928Y269145D01*
X166926Y269044D01*
X166926Y266447D01*
D146*
X821050Y321310D02*
X855350Y321310D01*
X855350Y219710D02*
X821050Y219710D01*
D147*
X799850Y225560D02*
X799852Y225604D01*
X799858Y225648D01*
X799868Y225691D01*
X799881Y225733D01*
X799898Y225774D01*
X799919Y225813D01*
X799943Y225850D01*
X799970Y225885D01*
X800000Y225917D01*
X800033Y225947D01*
X800069Y225973D01*
X800106Y225997D01*
X800146Y226016D01*
X800187Y226033D01*
X800230Y226045D01*
X800273Y226054D01*
X800317Y226059D01*
X800361Y226060D01*
X800405Y226057D01*
X800449Y226050D01*
X800492Y226039D01*
X800534Y226025D01*
X800574Y226007D01*
X800613Y225985D01*
X800649Y225961D01*
X800683Y225933D01*
X800715Y225902D01*
X800744Y225868D01*
X800770Y225832D01*
X800792Y225794D01*
X800811Y225754D01*
X800826Y225712D01*
X800838Y225670D01*
X800846Y225626D01*
X800850Y225582D01*
X800850Y225538D01*
X800846Y225494D01*
X800838Y225450D01*
X800826Y225408D01*
X800811Y225366D01*
X800792Y225326D01*
X800770Y225288D01*
X800744Y225252D01*
X800715Y225218D01*
X800683Y225187D01*
X800649Y225159D01*
X800613Y225135D01*
X800574Y225113D01*
X800534Y225095D01*
X800492Y225081D01*
X800449Y225070D01*
X800405Y225063D01*
X800361Y225060D01*
X800317Y225061D01*
X800273Y225066D01*
X800230Y225075D01*
X800187Y225087D01*
X800146Y225104D01*
X800106Y225123D01*
X800069Y225147D01*
X800033Y225173D01*
X800000Y225203D01*
X799970Y225235D01*
X799943Y225270D01*
X799919Y225307D01*
X799898Y225346D01*
X799881Y225387D01*
X799868Y225429D01*
X799858Y225472D01*
X799852Y225516D01*
X799850Y225560D01*
D148*
X798350Y265842D02*
X789263Y265842D01*
X789263Y265841D02*
X789164Y265839D01*
X789064Y265833D01*
X788965Y265824D01*
X788867Y265811D01*
X788769Y265794D01*
X788671Y265773D01*
X788575Y265748D01*
X788480Y265720D01*
X788386Y265688D01*
X788293Y265653D01*
X788201Y265614D01*
X788111Y265571D01*
X788023Y265526D01*
X787936Y265476D01*
X787852Y265424D01*
X787769Y265368D01*
X787689Y265310D01*
X787611Y265248D01*
X787536Y265183D01*
X787463Y265115D01*
X787393Y265045D01*
X787325Y264972D01*
X787260Y264897D01*
X787198Y264819D01*
X787140Y264739D01*
X787084Y264656D01*
X787032Y264572D01*
X786982Y264485D01*
X786937Y264397D01*
X786894Y264307D01*
X786855Y264215D01*
X786820Y264122D01*
X786788Y264028D01*
X786760Y263933D01*
X786735Y263837D01*
X786714Y263739D01*
X786697Y263641D01*
X786684Y263543D01*
X786675Y263444D01*
X786669Y263344D01*
X786667Y263245D01*
X786666Y263245D02*
X786666Y261947D01*
X789263Y271115D02*
X798350Y273711D01*
X789263Y271115D02*
X789263Y277606D01*
X791859Y275659D02*
X786666Y275659D01*
D146*
X720090Y271150D02*
X720090Y236850D01*
X694690Y236850D02*
X694690Y271150D01*
D147*
X700040Y291850D02*
X700042Y291894D01*
X700048Y291938D01*
X700058Y291981D01*
X700071Y292023D01*
X700088Y292064D01*
X700109Y292103D01*
X700133Y292140D01*
X700160Y292175D01*
X700190Y292207D01*
X700223Y292237D01*
X700259Y292263D01*
X700296Y292287D01*
X700336Y292306D01*
X700377Y292323D01*
X700420Y292335D01*
X700463Y292344D01*
X700507Y292349D01*
X700551Y292350D01*
X700595Y292347D01*
X700639Y292340D01*
X700682Y292329D01*
X700724Y292315D01*
X700764Y292297D01*
X700803Y292275D01*
X700839Y292251D01*
X700873Y292223D01*
X700905Y292192D01*
X700934Y292158D01*
X700960Y292122D01*
X700982Y292084D01*
X701001Y292044D01*
X701016Y292002D01*
X701028Y291960D01*
X701036Y291916D01*
X701040Y291872D01*
X701040Y291828D01*
X701036Y291784D01*
X701028Y291740D01*
X701016Y291698D01*
X701001Y291656D01*
X700982Y291616D01*
X700960Y291578D01*
X700934Y291542D01*
X700905Y291508D01*
X700873Y291477D01*
X700839Y291449D01*
X700803Y291425D01*
X700764Y291403D01*
X700724Y291385D01*
X700682Y291371D01*
X700639Y291360D01*
X700595Y291353D01*
X700551Y291350D01*
X700507Y291351D01*
X700463Y291356D01*
X700420Y291365D01*
X700377Y291377D01*
X700336Y291394D01*
X700296Y291413D01*
X700259Y291437D01*
X700223Y291463D01*
X700190Y291493D01*
X700160Y291525D01*
X700133Y291560D01*
X700109Y291597D01*
X700088Y291636D01*
X700071Y291677D01*
X700058Y291719D01*
X700048Y291762D01*
X700042Y291806D01*
X700040Y291850D01*
D148*
X674750Y225493D02*
X674750Y216406D01*
X674752Y216307D01*
X674758Y216207D01*
X674767Y216108D01*
X674780Y216010D01*
X674797Y215912D01*
X674818Y215814D01*
X674843Y215718D01*
X674871Y215623D01*
X674903Y215529D01*
X674938Y215436D01*
X674977Y215344D01*
X675020Y215254D01*
X675065Y215166D01*
X675115Y215079D01*
X675167Y214995D01*
X675223Y214912D01*
X675281Y214832D01*
X675343Y214754D01*
X675408Y214679D01*
X675476Y214606D01*
X675546Y214536D01*
X675619Y214468D01*
X675694Y214403D01*
X675772Y214341D01*
X675852Y214283D01*
X675935Y214227D01*
X676019Y214175D01*
X676106Y214125D01*
X676194Y214080D01*
X676284Y214037D01*
X676376Y213998D01*
X676469Y213963D01*
X676563Y213931D01*
X676658Y213903D01*
X676754Y213878D01*
X676852Y213857D01*
X676950Y213840D01*
X677048Y213827D01*
X677147Y213818D01*
X677247Y213812D01*
X677346Y213810D01*
X677346Y213809D02*
X678644Y213809D01*
X669476Y222897D02*
X666231Y225493D01*
X666231Y213809D01*
X669476Y213809D02*
X662985Y213809D01*
M02*
