G04 EAGLE Gerber RS-274X export*
G75*
%MOMM*%
%FSLAX34Y34*%
%LPD*%
%INSilkscreen Top*%
%IPPOS*%
%AMOC8*
5,1,8,0,0,1.08239X$1,22.5*%
G01*
%ADD10C,0.101600*%
%ADD11C,0.127000*%
%ADD12C,0.300000*%
%ADD13C,0.152400*%
%ADD14C,0.050800*%


D10*
X607299Y293686D02*
X604703Y293686D01*
X604703Y293687D02*
X604604Y293689D01*
X604504Y293695D01*
X604405Y293704D01*
X604307Y293717D01*
X604209Y293734D01*
X604111Y293755D01*
X604015Y293780D01*
X603920Y293808D01*
X603826Y293840D01*
X603733Y293875D01*
X603641Y293914D01*
X603551Y293957D01*
X603463Y294002D01*
X603376Y294052D01*
X603292Y294104D01*
X603209Y294160D01*
X603129Y294218D01*
X603051Y294280D01*
X602976Y294345D01*
X602903Y294413D01*
X602833Y294483D01*
X602765Y294556D01*
X602700Y294631D01*
X602638Y294709D01*
X602580Y294789D01*
X602524Y294872D01*
X602472Y294956D01*
X602422Y295043D01*
X602377Y295131D01*
X602334Y295221D01*
X602295Y295313D01*
X602260Y295406D01*
X602228Y295500D01*
X602200Y295595D01*
X602175Y295691D01*
X602154Y295789D01*
X602137Y295887D01*
X602124Y295985D01*
X602115Y296084D01*
X602109Y296184D01*
X602107Y296283D01*
X602106Y296283D02*
X602106Y302774D01*
X602107Y302774D02*
X602109Y302873D01*
X602115Y302973D01*
X602124Y303072D01*
X602137Y303170D01*
X602154Y303268D01*
X602175Y303366D01*
X602200Y303462D01*
X602228Y303557D01*
X602260Y303651D01*
X602295Y303744D01*
X602334Y303836D01*
X602377Y303926D01*
X602422Y304014D01*
X602472Y304101D01*
X602524Y304185D01*
X602580Y304268D01*
X602638Y304348D01*
X602700Y304426D01*
X602765Y304501D01*
X602833Y304574D01*
X602903Y304644D01*
X602976Y304712D01*
X603051Y304777D01*
X603129Y304839D01*
X603209Y304897D01*
X603292Y304953D01*
X603376Y305005D01*
X603463Y305055D01*
X603551Y305100D01*
X603641Y305143D01*
X603733Y305182D01*
X603825Y305217D01*
X603920Y305249D01*
X604015Y305277D01*
X604111Y305302D01*
X604209Y305323D01*
X604307Y305340D01*
X604405Y305353D01*
X604504Y305362D01*
X604604Y305368D01*
X604703Y305370D01*
X607299Y305370D01*
X611664Y293686D02*
X614910Y293686D01*
X615023Y293688D01*
X615136Y293694D01*
X615249Y293704D01*
X615362Y293718D01*
X615474Y293735D01*
X615585Y293757D01*
X615695Y293782D01*
X615805Y293812D01*
X615913Y293845D01*
X616020Y293882D01*
X616126Y293922D01*
X616230Y293967D01*
X616333Y294015D01*
X616434Y294066D01*
X616533Y294121D01*
X616630Y294179D01*
X616725Y294241D01*
X616818Y294306D01*
X616908Y294374D01*
X616996Y294445D01*
X617082Y294520D01*
X617165Y294597D01*
X617245Y294677D01*
X617322Y294760D01*
X617397Y294846D01*
X617468Y294934D01*
X617536Y295024D01*
X617601Y295117D01*
X617663Y295212D01*
X617721Y295309D01*
X617776Y295408D01*
X617827Y295509D01*
X617875Y295612D01*
X617920Y295716D01*
X617960Y295822D01*
X617997Y295929D01*
X618030Y296037D01*
X618060Y296147D01*
X618085Y296257D01*
X618107Y296368D01*
X618124Y296480D01*
X618138Y296593D01*
X618148Y296706D01*
X618154Y296819D01*
X618156Y296932D01*
X618154Y297045D01*
X618148Y297158D01*
X618138Y297271D01*
X618124Y297384D01*
X618107Y297496D01*
X618085Y297607D01*
X618060Y297717D01*
X618030Y297827D01*
X617997Y297935D01*
X617960Y298042D01*
X617920Y298148D01*
X617875Y298252D01*
X617827Y298355D01*
X617776Y298456D01*
X617721Y298555D01*
X617663Y298652D01*
X617601Y298747D01*
X617536Y298840D01*
X617468Y298930D01*
X617397Y299018D01*
X617322Y299104D01*
X617245Y299187D01*
X617165Y299267D01*
X617082Y299344D01*
X616996Y299419D01*
X616908Y299490D01*
X616818Y299558D01*
X616725Y299623D01*
X616630Y299685D01*
X616533Y299743D01*
X616434Y299798D01*
X616333Y299849D01*
X616230Y299897D01*
X616126Y299942D01*
X616020Y299982D01*
X615913Y300019D01*
X615805Y300052D01*
X615695Y300082D01*
X615585Y300107D01*
X615474Y300129D01*
X615362Y300146D01*
X615249Y300160D01*
X615136Y300170D01*
X615023Y300176D01*
X614910Y300178D01*
X615559Y305370D02*
X611664Y305370D01*
X615559Y305370D02*
X615660Y305368D01*
X615760Y305362D01*
X615860Y305352D01*
X615960Y305339D01*
X616059Y305321D01*
X616158Y305300D01*
X616255Y305275D01*
X616352Y305246D01*
X616447Y305213D01*
X616541Y305177D01*
X616633Y305137D01*
X616724Y305094D01*
X616813Y305047D01*
X616900Y304997D01*
X616986Y304943D01*
X617069Y304886D01*
X617149Y304826D01*
X617228Y304763D01*
X617304Y304696D01*
X617377Y304627D01*
X617447Y304555D01*
X617515Y304481D01*
X617580Y304404D01*
X617641Y304324D01*
X617700Y304242D01*
X617755Y304158D01*
X617807Y304072D01*
X617856Y303984D01*
X617901Y303894D01*
X617943Y303802D01*
X617981Y303709D01*
X618015Y303614D01*
X618046Y303519D01*
X618073Y303422D01*
X618096Y303324D01*
X618116Y303225D01*
X618131Y303125D01*
X618143Y303025D01*
X618151Y302925D01*
X618155Y302824D01*
X618155Y302724D01*
X618151Y302623D01*
X618143Y302523D01*
X618131Y302423D01*
X618116Y302323D01*
X618096Y302224D01*
X618073Y302126D01*
X618046Y302029D01*
X618015Y301934D01*
X617981Y301839D01*
X617943Y301746D01*
X617901Y301654D01*
X617856Y301564D01*
X617807Y301476D01*
X617755Y301390D01*
X617700Y301306D01*
X617641Y301224D01*
X617580Y301144D01*
X617515Y301067D01*
X617447Y300993D01*
X617377Y300921D01*
X617304Y300852D01*
X617228Y300785D01*
X617149Y300722D01*
X617069Y300662D01*
X616986Y300605D01*
X616900Y300551D01*
X616813Y300501D01*
X616724Y300454D01*
X616633Y300411D01*
X616541Y300371D01*
X616447Y300335D01*
X616352Y300302D01*
X616255Y300273D01*
X616158Y300248D01*
X616059Y300227D01*
X615960Y300209D01*
X615860Y300196D01*
X615760Y300186D01*
X615660Y300180D01*
X615559Y300178D01*
X615559Y300177D02*
X612963Y300177D01*
X368269Y327605D02*
X365672Y327605D01*
X365573Y327607D01*
X365473Y327613D01*
X365374Y327622D01*
X365276Y327635D01*
X365178Y327652D01*
X365080Y327673D01*
X364984Y327698D01*
X364889Y327726D01*
X364795Y327758D01*
X364702Y327793D01*
X364610Y327832D01*
X364520Y327875D01*
X364432Y327920D01*
X364345Y327970D01*
X364261Y328022D01*
X364178Y328078D01*
X364098Y328136D01*
X364020Y328198D01*
X363945Y328263D01*
X363872Y328331D01*
X363802Y328401D01*
X363734Y328474D01*
X363669Y328549D01*
X363607Y328627D01*
X363549Y328707D01*
X363493Y328790D01*
X363441Y328874D01*
X363391Y328961D01*
X363346Y329049D01*
X363303Y329139D01*
X363264Y329231D01*
X363229Y329324D01*
X363197Y329418D01*
X363169Y329513D01*
X363144Y329609D01*
X363123Y329707D01*
X363106Y329805D01*
X363093Y329903D01*
X363084Y330002D01*
X363078Y330102D01*
X363076Y330201D01*
X363076Y336693D01*
X363078Y336792D01*
X363084Y336892D01*
X363093Y336991D01*
X363106Y337089D01*
X363123Y337187D01*
X363144Y337285D01*
X363169Y337381D01*
X363197Y337476D01*
X363229Y337570D01*
X363264Y337663D01*
X363303Y337755D01*
X363346Y337845D01*
X363391Y337933D01*
X363441Y338020D01*
X363493Y338104D01*
X363549Y338187D01*
X363607Y338267D01*
X363669Y338345D01*
X363734Y338420D01*
X363802Y338493D01*
X363872Y338563D01*
X363945Y338631D01*
X364020Y338696D01*
X364098Y338758D01*
X364178Y338816D01*
X364261Y338872D01*
X364345Y338924D01*
X364432Y338974D01*
X364520Y339019D01*
X364610Y339062D01*
X364702Y339101D01*
X364794Y339136D01*
X364889Y339168D01*
X364984Y339196D01*
X365080Y339221D01*
X365178Y339242D01*
X365276Y339259D01*
X365374Y339272D01*
X365473Y339281D01*
X365573Y339287D01*
X365672Y339289D01*
X368269Y339289D01*
X375230Y339289D02*
X372634Y330201D01*
X379125Y330201D01*
X377178Y332798D02*
X377178Y327605D01*
X531167Y237189D02*
X533763Y237189D01*
X531167Y237189D02*
X531068Y237191D01*
X530968Y237197D01*
X530869Y237206D01*
X530771Y237219D01*
X530673Y237236D01*
X530575Y237257D01*
X530479Y237282D01*
X530384Y237310D01*
X530290Y237342D01*
X530197Y237377D01*
X530105Y237416D01*
X530015Y237459D01*
X529927Y237504D01*
X529840Y237554D01*
X529756Y237606D01*
X529673Y237662D01*
X529593Y237720D01*
X529515Y237782D01*
X529440Y237847D01*
X529367Y237915D01*
X529297Y237985D01*
X529229Y238058D01*
X529164Y238133D01*
X529102Y238211D01*
X529044Y238291D01*
X528988Y238374D01*
X528936Y238458D01*
X528886Y238545D01*
X528841Y238633D01*
X528798Y238723D01*
X528759Y238815D01*
X528724Y238908D01*
X528692Y239002D01*
X528664Y239097D01*
X528639Y239193D01*
X528618Y239291D01*
X528601Y239389D01*
X528588Y239487D01*
X528579Y239586D01*
X528573Y239686D01*
X528571Y239785D01*
X528571Y246276D01*
X528573Y246375D01*
X528579Y246475D01*
X528588Y246574D01*
X528601Y246672D01*
X528618Y246770D01*
X528639Y246868D01*
X528664Y246964D01*
X528692Y247059D01*
X528724Y247153D01*
X528759Y247246D01*
X528798Y247338D01*
X528841Y247428D01*
X528886Y247516D01*
X528936Y247603D01*
X528988Y247687D01*
X529044Y247770D01*
X529102Y247850D01*
X529164Y247928D01*
X529229Y248003D01*
X529297Y248076D01*
X529367Y248146D01*
X529440Y248214D01*
X529515Y248279D01*
X529593Y248341D01*
X529673Y248399D01*
X529756Y248455D01*
X529840Y248507D01*
X529927Y248557D01*
X530015Y248602D01*
X530105Y248645D01*
X530197Y248684D01*
X530289Y248719D01*
X530384Y248751D01*
X530479Y248779D01*
X530575Y248804D01*
X530673Y248825D01*
X530771Y248842D01*
X530869Y248855D01*
X530968Y248864D01*
X531068Y248870D01*
X531167Y248872D01*
X531167Y248873D02*
X533763Y248873D01*
X538129Y237189D02*
X542023Y237189D01*
X542122Y237191D01*
X542222Y237197D01*
X542321Y237206D01*
X542419Y237219D01*
X542517Y237236D01*
X542615Y237257D01*
X542711Y237282D01*
X542806Y237310D01*
X542900Y237342D01*
X542993Y237377D01*
X543085Y237416D01*
X543175Y237459D01*
X543263Y237504D01*
X543350Y237554D01*
X543434Y237606D01*
X543517Y237662D01*
X543597Y237720D01*
X543675Y237782D01*
X543750Y237847D01*
X543823Y237915D01*
X543893Y237985D01*
X543961Y238058D01*
X544026Y238133D01*
X544088Y238211D01*
X544146Y238291D01*
X544202Y238374D01*
X544254Y238458D01*
X544304Y238545D01*
X544349Y238633D01*
X544392Y238723D01*
X544431Y238815D01*
X544466Y238908D01*
X544498Y239002D01*
X544526Y239097D01*
X544551Y239193D01*
X544572Y239291D01*
X544589Y239389D01*
X544602Y239487D01*
X544611Y239586D01*
X544617Y239686D01*
X544619Y239785D01*
X544620Y239785D02*
X544620Y241084D01*
X544619Y241084D02*
X544617Y241183D01*
X544611Y241283D01*
X544602Y241382D01*
X544589Y241480D01*
X544572Y241578D01*
X544551Y241676D01*
X544526Y241772D01*
X544498Y241867D01*
X544466Y241961D01*
X544431Y242054D01*
X544392Y242146D01*
X544349Y242236D01*
X544304Y242324D01*
X544254Y242411D01*
X544202Y242495D01*
X544146Y242578D01*
X544088Y242658D01*
X544026Y242736D01*
X543961Y242811D01*
X543893Y242884D01*
X543823Y242954D01*
X543750Y243022D01*
X543675Y243087D01*
X543597Y243149D01*
X543517Y243207D01*
X543434Y243263D01*
X543350Y243315D01*
X543263Y243365D01*
X543175Y243410D01*
X543085Y243453D01*
X542993Y243492D01*
X542900Y243527D01*
X542806Y243559D01*
X542711Y243587D01*
X542615Y243612D01*
X542517Y243633D01*
X542419Y243650D01*
X542321Y243663D01*
X542222Y243672D01*
X542122Y243678D01*
X542023Y243680D01*
X538129Y243680D01*
X538129Y248873D01*
X544620Y248873D01*
X342679Y46605D02*
X340082Y46605D01*
X340082Y46606D02*
X339983Y46608D01*
X339883Y46614D01*
X339784Y46623D01*
X339686Y46636D01*
X339588Y46653D01*
X339490Y46674D01*
X339394Y46699D01*
X339299Y46727D01*
X339205Y46759D01*
X339112Y46794D01*
X339020Y46833D01*
X338930Y46876D01*
X338842Y46921D01*
X338755Y46971D01*
X338671Y47023D01*
X338588Y47079D01*
X338508Y47137D01*
X338430Y47199D01*
X338355Y47264D01*
X338282Y47332D01*
X338212Y47402D01*
X338144Y47475D01*
X338079Y47550D01*
X338017Y47628D01*
X337959Y47708D01*
X337903Y47791D01*
X337851Y47875D01*
X337801Y47962D01*
X337756Y48050D01*
X337713Y48140D01*
X337674Y48232D01*
X337639Y48325D01*
X337607Y48419D01*
X337579Y48514D01*
X337554Y48610D01*
X337533Y48708D01*
X337516Y48806D01*
X337503Y48904D01*
X337494Y49003D01*
X337488Y49103D01*
X337486Y49202D01*
X337486Y55693D01*
X337488Y55792D01*
X337494Y55892D01*
X337503Y55991D01*
X337516Y56089D01*
X337533Y56187D01*
X337554Y56285D01*
X337579Y56381D01*
X337607Y56476D01*
X337639Y56570D01*
X337674Y56663D01*
X337713Y56755D01*
X337756Y56845D01*
X337801Y56933D01*
X337851Y57020D01*
X337903Y57104D01*
X337959Y57187D01*
X338017Y57267D01*
X338079Y57345D01*
X338144Y57420D01*
X338212Y57493D01*
X338282Y57563D01*
X338355Y57631D01*
X338430Y57696D01*
X338508Y57758D01*
X338588Y57816D01*
X338671Y57872D01*
X338755Y57924D01*
X338842Y57974D01*
X338930Y58019D01*
X339020Y58062D01*
X339112Y58101D01*
X339204Y58136D01*
X339299Y58168D01*
X339394Y58196D01*
X339490Y58221D01*
X339588Y58242D01*
X339686Y58259D01*
X339784Y58272D01*
X339883Y58281D01*
X339983Y58287D01*
X340082Y58289D01*
X342679Y58289D01*
X347044Y53096D02*
X350939Y53096D01*
X351038Y53094D01*
X351138Y53088D01*
X351237Y53079D01*
X351335Y53066D01*
X351433Y53049D01*
X351531Y53028D01*
X351627Y53003D01*
X351722Y52975D01*
X351816Y52943D01*
X351909Y52908D01*
X352001Y52869D01*
X352091Y52826D01*
X352179Y52781D01*
X352266Y52731D01*
X352350Y52679D01*
X352433Y52623D01*
X352513Y52565D01*
X352591Y52503D01*
X352666Y52438D01*
X352739Y52370D01*
X352809Y52300D01*
X352877Y52227D01*
X352942Y52152D01*
X353004Y52074D01*
X353062Y51994D01*
X353118Y51911D01*
X353170Y51827D01*
X353220Y51740D01*
X353265Y51652D01*
X353308Y51562D01*
X353347Y51470D01*
X353382Y51377D01*
X353414Y51283D01*
X353442Y51188D01*
X353467Y51092D01*
X353488Y50994D01*
X353505Y50896D01*
X353518Y50798D01*
X353527Y50699D01*
X353533Y50599D01*
X353535Y50500D01*
X353535Y49851D01*
X353533Y49738D01*
X353527Y49625D01*
X353517Y49512D01*
X353503Y49399D01*
X353486Y49287D01*
X353464Y49176D01*
X353439Y49066D01*
X353409Y48956D01*
X353376Y48848D01*
X353339Y48741D01*
X353299Y48635D01*
X353254Y48531D01*
X353206Y48428D01*
X353155Y48327D01*
X353100Y48228D01*
X353042Y48131D01*
X352980Y48036D01*
X352915Y47943D01*
X352847Y47853D01*
X352776Y47765D01*
X352701Y47679D01*
X352624Y47596D01*
X352544Y47516D01*
X352461Y47439D01*
X352375Y47364D01*
X352287Y47293D01*
X352197Y47225D01*
X352104Y47160D01*
X352009Y47098D01*
X351912Y47040D01*
X351813Y46985D01*
X351712Y46934D01*
X351609Y46886D01*
X351505Y46841D01*
X351399Y46801D01*
X351292Y46764D01*
X351184Y46731D01*
X351074Y46701D01*
X350964Y46676D01*
X350853Y46654D01*
X350741Y46637D01*
X350628Y46623D01*
X350515Y46613D01*
X350402Y46607D01*
X350289Y46605D01*
X350176Y46607D01*
X350063Y46613D01*
X349950Y46623D01*
X349837Y46637D01*
X349725Y46654D01*
X349614Y46676D01*
X349504Y46701D01*
X349394Y46731D01*
X349286Y46764D01*
X349179Y46801D01*
X349073Y46841D01*
X348969Y46886D01*
X348866Y46934D01*
X348765Y46985D01*
X348666Y47040D01*
X348569Y47098D01*
X348474Y47160D01*
X348381Y47225D01*
X348291Y47293D01*
X348203Y47364D01*
X348117Y47439D01*
X348034Y47516D01*
X347954Y47596D01*
X347877Y47679D01*
X347802Y47765D01*
X347731Y47853D01*
X347663Y47943D01*
X347598Y48036D01*
X347536Y48131D01*
X347478Y48228D01*
X347423Y48327D01*
X347372Y48428D01*
X347324Y48531D01*
X347279Y48635D01*
X347239Y48741D01*
X347202Y48848D01*
X347169Y48956D01*
X347139Y49066D01*
X347114Y49176D01*
X347092Y49287D01*
X347075Y49399D01*
X347061Y49512D01*
X347051Y49625D01*
X347045Y49738D01*
X347043Y49851D01*
X347044Y49851D02*
X347044Y53096D01*
X347046Y53239D01*
X347052Y53382D01*
X347062Y53525D01*
X347076Y53667D01*
X347093Y53809D01*
X347115Y53951D01*
X347140Y54092D01*
X347170Y54232D01*
X347203Y54371D01*
X347240Y54509D01*
X347281Y54646D01*
X347325Y54782D01*
X347374Y54917D01*
X347426Y55050D01*
X347481Y55182D01*
X347541Y55312D01*
X347604Y55441D01*
X347670Y55568D01*
X347740Y55692D01*
X347813Y55815D01*
X347890Y55936D01*
X347970Y56055D01*
X348053Y56171D01*
X348139Y56286D01*
X348228Y56397D01*
X348321Y56507D01*
X348416Y56613D01*
X348515Y56717D01*
X348616Y56818D01*
X348720Y56917D01*
X348826Y57012D01*
X348936Y57105D01*
X349047Y57194D01*
X349162Y57280D01*
X349278Y57363D01*
X349397Y57443D01*
X349518Y57520D01*
X349640Y57593D01*
X349765Y57663D01*
X349892Y57729D01*
X350021Y57792D01*
X350151Y57852D01*
X350283Y57907D01*
X350416Y57959D01*
X350551Y58008D01*
X350687Y58052D01*
X350824Y58093D01*
X350962Y58130D01*
X351101Y58163D01*
X351241Y58193D01*
X351382Y58218D01*
X351524Y58240D01*
X351666Y58257D01*
X351808Y58271D01*
X351951Y58281D01*
X352094Y58287D01*
X352237Y58289D01*
X365845Y383321D02*
X365845Y395005D01*
X369091Y395005D01*
X369204Y395003D01*
X369317Y394997D01*
X369430Y394987D01*
X369543Y394973D01*
X369655Y394956D01*
X369766Y394934D01*
X369876Y394909D01*
X369986Y394879D01*
X370094Y394846D01*
X370201Y394809D01*
X370307Y394769D01*
X370411Y394724D01*
X370514Y394676D01*
X370615Y394625D01*
X370714Y394570D01*
X370811Y394512D01*
X370906Y394450D01*
X370999Y394385D01*
X371089Y394317D01*
X371177Y394246D01*
X371263Y394171D01*
X371346Y394094D01*
X371426Y394014D01*
X371503Y393931D01*
X371578Y393845D01*
X371649Y393757D01*
X371717Y393667D01*
X371782Y393574D01*
X371844Y393479D01*
X371902Y393382D01*
X371957Y393283D01*
X372008Y393182D01*
X372056Y393079D01*
X372101Y392975D01*
X372141Y392869D01*
X372178Y392762D01*
X372211Y392654D01*
X372241Y392544D01*
X372266Y392434D01*
X372288Y392323D01*
X372305Y392211D01*
X372319Y392098D01*
X372329Y391985D01*
X372335Y391872D01*
X372337Y391759D01*
X372335Y391646D01*
X372329Y391533D01*
X372319Y391420D01*
X372305Y391307D01*
X372288Y391195D01*
X372266Y391084D01*
X372241Y390974D01*
X372211Y390864D01*
X372178Y390756D01*
X372141Y390649D01*
X372101Y390543D01*
X372056Y390439D01*
X372008Y390336D01*
X371957Y390235D01*
X371902Y390136D01*
X371844Y390039D01*
X371782Y389944D01*
X371717Y389851D01*
X371649Y389761D01*
X371578Y389673D01*
X371503Y389587D01*
X371426Y389504D01*
X371346Y389424D01*
X371263Y389347D01*
X371177Y389272D01*
X371089Y389201D01*
X370999Y389133D01*
X370906Y389068D01*
X370811Y389006D01*
X370714Y388948D01*
X370615Y388893D01*
X370514Y388842D01*
X370411Y388794D01*
X370307Y388749D01*
X370201Y388709D01*
X370094Y388672D01*
X369986Y388639D01*
X369876Y388609D01*
X369766Y388584D01*
X369655Y388562D01*
X369543Y388545D01*
X369430Y388531D01*
X369317Y388521D01*
X369204Y388515D01*
X369091Y388513D01*
X369091Y388514D02*
X365845Y388514D01*
X369740Y388514D02*
X372336Y383321D01*
X377201Y392409D02*
X380447Y395005D01*
X380447Y383321D01*
X383692Y383321D02*
X377201Y383321D01*
X384623Y416875D02*
X396307Y416875D01*
X384623Y416875D02*
X384623Y420120D01*
X384625Y420233D01*
X384631Y420346D01*
X384641Y420459D01*
X384655Y420572D01*
X384672Y420684D01*
X384694Y420795D01*
X384719Y420905D01*
X384749Y421015D01*
X384782Y421123D01*
X384819Y421230D01*
X384859Y421336D01*
X384904Y421440D01*
X384952Y421543D01*
X385003Y421644D01*
X385058Y421743D01*
X385116Y421840D01*
X385178Y421935D01*
X385243Y422028D01*
X385311Y422118D01*
X385382Y422206D01*
X385457Y422292D01*
X385534Y422375D01*
X385614Y422455D01*
X385697Y422532D01*
X385783Y422607D01*
X385871Y422678D01*
X385961Y422746D01*
X386054Y422811D01*
X386149Y422873D01*
X386246Y422931D01*
X386345Y422986D01*
X386446Y423037D01*
X386549Y423085D01*
X386653Y423130D01*
X386759Y423170D01*
X386866Y423207D01*
X386974Y423240D01*
X387084Y423270D01*
X387194Y423295D01*
X387305Y423317D01*
X387417Y423334D01*
X387530Y423348D01*
X387643Y423358D01*
X387756Y423364D01*
X387869Y423366D01*
X387982Y423364D01*
X388095Y423358D01*
X388208Y423348D01*
X388321Y423334D01*
X388433Y423317D01*
X388544Y423295D01*
X388654Y423270D01*
X388764Y423240D01*
X388872Y423207D01*
X388979Y423170D01*
X389085Y423130D01*
X389189Y423085D01*
X389292Y423037D01*
X389393Y422986D01*
X389492Y422931D01*
X389589Y422873D01*
X389684Y422811D01*
X389777Y422746D01*
X389867Y422678D01*
X389955Y422607D01*
X390041Y422532D01*
X390124Y422455D01*
X390204Y422375D01*
X390281Y422292D01*
X390356Y422206D01*
X390427Y422118D01*
X390495Y422028D01*
X390560Y421935D01*
X390622Y421840D01*
X390680Y421743D01*
X390735Y421644D01*
X390786Y421543D01*
X390834Y421440D01*
X390879Y421336D01*
X390919Y421230D01*
X390956Y421123D01*
X390989Y421015D01*
X391019Y420905D01*
X391044Y420795D01*
X391066Y420684D01*
X391083Y420572D01*
X391097Y420459D01*
X391107Y420346D01*
X391113Y420233D01*
X391115Y420120D01*
X391114Y420120D02*
X391114Y416875D01*
X391114Y420770D02*
X396307Y423366D01*
X387544Y434722D02*
X387437Y434720D01*
X387331Y434714D01*
X387225Y434704D01*
X387119Y434691D01*
X387013Y434673D01*
X386909Y434652D01*
X386805Y434627D01*
X386702Y434598D01*
X386601Y434566D01*
X386501Y434529D01*
X386402Y434489D01*
X386304Y434446D01*
X386208Y434399D01*
X386114Y434348D01*
X386022Y434294D01*
X385932Y434237D01*
X385844Y434177D01*
X385759Y434113D01*
X385676Y434046D01*
X385595Y433976D01*
X385517Y433904D01*
X385441Y433828D01*
X385369Y433750D01*
X385299Y433669D01*
X385232Y433586D01*
X385168Y433501D01*
X385108Y433413D01*
X385051Y433323D01*
X384997Y433231D01*
X384946Y433137D01*
X384899Y433041D01*
X384856Y432943D01*
X384816Y432844D01*
X384779Y432744D01*
X384747Y432643D01*
X384718Y432540D01*
X384693Y432436D01*
X384672Y432332D01*
X384654Y432226D01*
X384641Y432120D01*
X384631Y432014D01*
X384625Y431908D01*
X384623Y431801D01*
X384625Y431680D01*
X384631Y431559D01*
X384641Y431439D01*
X384654Y431318D01*
X384672Y431199D01*
X384693Y431079D01*
X384718Y430961D01*
X384747Y430844D01*
X384780Y430727D01*
X384816Y430612D01*
X384857Y430498D01*
X384900Y430385D01*
X384948Y430273D01*
X384999Y430164D01*
X385054Y430056D01*
X385112Y429949D01*
X385173Y429845D01*
X385238Y429743D01*
X385306Y429643D01*
X385377Y429545D01*
X385451Y429449D01*
X385528Y429356D01*
X385609Y429266D01*
X385692Y429178D01*
X385778Y429093D01*
X385867Y429010D01*
X385958Y428931D01*
X386052Y428854D01*
X386148Y428781D01*
X386246Y428711D01*
X386347Y428644D01*
X386450Y428580D01*
X386555Y428520D01*
X386662Y428462D01*
X386770Y428409D01*
X386880Y428359D01*
X386992Y428313D01*
X387105Y428270D01*
X387220Y428231D01*
X389816Y433748D02*
X389738Y433827D01*
X389658Y433903D01*
X389575Y433976D01*
X389489Y434046D01*
X389402Y434113D01*
X389311Y434177D01*
X389219Y434237D01*
X389125Y434295D01*
X389028Y434349D01*
X388930Y434399D01*
X388830Y434446D01*
X388729Y434490D01*
X388626Y434530D01*
X388521Y434566D01*
X388416Y434598D01*
X388309Y434627D01*
X388202Y434652D01*
X388093Y434674D01*
X387984Y434691D01*
X387875Y434705D01*
X387765Y434714D01*
X387654Y434720D01*
X387544Y434722D01*
X389816Y433749D02*
X396307Y428231D01*
X396307Y434722D01*
X419595Y416499D02*
X431279Y416499D01*
X419595Y416499D02*
X419595Y419745D01*
X419597Y419858D01*
X419603Y419971D01*
X419613Y420084D01*
X419627Y420197D01*
X419644Y420309D01*
X419666Y420420D01*
X419691Y420530D01*
X419721Y420640D01*
X419754Y420748D01*
X419791Y420855D01*
X419831Y420961D01*
X419876Y421065D01*
X419924Y421168D01*
X419975Y421269D01*
X420030Y421368D01*
X420088Y421465D01*
X420150Y421560D01*
X420215Y421653D01*
X420283Y421743D01*
X420354Y421831D01*
X420429Y421917D01*
X420506Y422000D01*
X420586Y422080D01*
X420669Y422157D01*
X420755Y422232D01*
X420843Y422303D01*
X420933Y422371D01*
X421026Y422436D01*
X421121Y422498D01*
X421218Y422556D01*
X421317Y422611D01*
X421418Y422662D01*
X421521Y422710D01*
X421625Y422755D01*
X421731Y422795D01*
X421838Y422832D01*
X421946Y422865D01*
X422056Y422895D01*
X422166Y422920D01*
X422277Y422942D01*
X422389Y422959D01*
X422502Y422973D01*
X422615Y422983D01*
X422728Y422989D01*
X422841Y422991D01*
X422954Y422989D01*
X423067Y422983D01*
X423180Y422973D01*
X423293Y422959D01*
X423405Y422942D01*
X423516Y422920D01*
X423626Y422895D01*
X423736Y422865D01*
X423844Y422832D01*
X423951Y422795D01*
X424057Y422755D01*
X424161Y422710D01*
X424264Y422662D01*
X424365Y422611D01*
X424464Y422556D01*
X424561Y422498D01*
X424656Y422436D01*
X424749Y422371D01*
X424839Y422303D01*
X424927Y422232D01*
X425013Y422157D01*
X425096Y422080D01*
X425176Y422000D01*
X425253Y421917D01*
X425328Y421831D01*
X425399Y421743D01*
X425467Y421653D01*
X425532Y421560D01*
X425594Y421465D01*
X425652Y421368D01*
X425707Y421269D01*
X425758Y421168D01*
X425806Y421065D01*
X425851Y420961D01*
X425891Y420855D01*
X425928Y420748D01*
X425961Y420640D01*
X425991Y420530D01*
X426016Y420420D01*
X426038Y420309D01*
X426055Y420197D01*
X426069Y420084D01*
X426079Y419971D01*
X426085Y419858D01*
X426087Y419745D01*
X426086Y419745D02*
X426086Y416499D01*
X426086Y420394D02*
X431279Y422990D01*
X431279Y427856D02*
X431279Y431101D01*
X431280Y431101D02*
X431278Y431214D01*
X431272Y431327D01*
X431262Y431440D01*
X431248Y431553D01*
X431231Y431665D01*
X431209Y431776D01*
X431184Y431886D01*
X431154Y431996D01*
X431121Y432104D01*
X431084Y432211D01*
X431044Y432317D01*
X430999Y432421D01*
X430951Y432524D01*
X430900Y432625D01*
X430845Y432724D01*
X430787Y432821D01*
X430725Y432916D01*
X430660Y433009D01*
X430592Y433099D01*
X430521Y433187D01*
X430446Y433273D01*
X430369Y433356D01*
X430289Y433436D01*
X430206Y433513D01*
X430120Y433588D01*
X430032Y433659D01*
X429942Y433727D01*
X429849Y433792D01*
X429754Y433854D01*
X429657Y433912D01*
X429558Y433967D01*
X429457Y434018D01*
X429354Y434066D01*
X429250Y434111D01*
X429144Y434151D01*
X429037Y434188D01*
X428929Y434221D01*
X428819Y434251D01*
X428709Y434276D01*
X428598Y434298D01*
X428486Y434315D01*
X428373Y434329D01*
X428260Y434339D01*
X428147Y434345D01*
X428034Y434347D01*
X427921Y434345D01*
X427808Y434339D01*
X427695Y434329D01*
X427582Y434315D01*
X427470Y434298D01*
X427359Y434276D01*
X427249Y434251D01*
X427139Y434221D01*
X427031Y434188D01*
X426924Y434151D01*
X426818Y434111D01*
X426714Y434066D01*
X426611Y434018D01*
X426510Y433967D01*
X426411Y433912D01*
X426314Y433854D01*
X426219Y433792D01*
X426126Y433727D01*
X426036Y433659D01*
X425948Y433588D01*
X425862Y433513D01*
X425779Y433436D01*
X425699Y433356D01*
X425622Y433273D01*
X425547Y433187D01*
X425476Y433099D01*
X425408Y433009D01*
X425343Y432916D01*
X425281Y432821D01*
X425223Y432724D01*
X425168Y432625D01*
X425117Y432524D01*
X425069Y432421D01*
X425024Y432317D01*
X424984Y432211D01*
X424947Y432104D01*
X424914Y431996D01*
X424884Y431886D01*
X424859Y431776D01*
X424837Y431665D01*
X424820Y431553D01*
X424806Y431440D01*
X424796Y431327D01*
X424790Y431214D01*
X424788Y431101D01*
X419595Y431750D02*
X419595Y427856D01*
X419596Y431750D02*
X419598Y431851D01*
X419604Y431951D01*
X419614Y432051D01*
X419627Y432151D01*
X419645Y432250D01*
X419666Y432349D01*
X419691Y432446D01*
X419720Y432543D01*
X419753Y432638D01*
X419789Y432732D01*
X419829Y432824D01*
X419872Y432915D01*
X419919Y433004D01*
X419969Y433091D01*
X420023Y433177D01*
X420080Y433260D01*
X420140Y433340D01*
X420203Y433419D01*
X420270Y433495D01*
X420339Y433568D01*
X420411Y433638D01*
X420485Y433706D01*
X420562Y433771D01*
X420642Y433832D01*
X420724Y433891D01*
X420808Y433946D01*
X420894Y433998D01*
X420982Y434047D01*
X421072Y434092D01*
X421164Y434134D01*
X421257Y434172D01*
X421352Y434206D01*
X421447Y434237D01*
X421544Y434264D01*
X421642Y434287D01*
X421741Y434307D01*
X421841Y434322D01*
X421941Y434334D01*
X422041Y434342D01*
X422142Y434346D01*
X422242Y434346D01*
X422343Y434342D01*
X422443Y434334D01*
X422543Y434322D01*
X422643Y434307D01*
X422742Y434287D01*
X422840Y434264D01*
X422937Y434237D01*
X423032Y434206D01*
X423127Y434172D01*
X423220Y434134D01*
X423312Y434092D01*
X423402Y434047D01*
X423490Y433998D01*
X423576Y433946D01*
X423660Y433891D01*
X423742Y433832D01*
X423822Y433771D01*
X423899Y433706D01*
X423973Y433638D01*
X424045Y433568D01*
X424114Y433495D01*
X424181Y433419D01*
X424244Y433340D01*
X424304Y433260D01*
X424361Y433177D01*
X424415Y433091D01*
X424465Y433004D01*
X424512Y432915D01*
X424555Y432824D01*
X424595Y432732D01*
X424631Y432638D01*
X424664Y432543D01*
X424693Y432446D01*
X424718Y432349D01*
X424739Y432250D01*
X424757Y432151D01*
X424770Y432051D01*
X424780Y431951D01*
X424786Y431851D01*
X424788Y431750D01*
X424788Y429154D01*
X434190Y356859D02*
X445874Y356859D01*
X434190Y356859D02*
X434190Y360104D01*
X434192Y360217D01*
X434198Y360330D01*
X434208Y360443D01*
X434222Y360556D01*
X434239Y360668D01*
X434261Y360779D01*
X434286Y360889D01*
X434316Y360999D01*
X434349Y361107D01*
X434386Y361214D01*
X434426Y361320D01*
X434471Y361424D01*
X434519Y361527D01*
X434570Y361628D01*
X434625Y361727D01*
X434683Y361824D01*
X434745Y361919D01*
X434810Y362012D01*
X434878Y362102D01*
X434949Y362190D01*
X435024Y362276D01*
X435101Y362359D01*
X435181Y362439D01*
X435264Y362516D01*
X435350Y362591D01*
X435438Y362662D01*
X435528Y362730D01*
X435621Y362795D01*
X435716Y362857D01*
X435813Y362915D01*
X435912Y362970D01*
X436013Y363021D01*
X436116Y363069D01*
X436220Y363114D01*
X436326Y363154D01*
X436433Y363191D01*
X436541Y363224D01*
X436651Y363254D01*
X436761Y363279D01*
X436872Y363301D01*
X436984Y363318D01*
X437097Y363332D01*
X437210Y363342D01*
X437323Y363348D01*
X437436Y363350D01*
X437549Y363348D01*
X437662Y363342D01*
X437775Y363332D01*
X437888Y363318D01*
X438000Y363301D01*
X438111Y363279D01*
X438221Y363254D01*
X438331Y363224D01*
X438439Y363191D01*
X438546Y363154D01*
X438652Y363114D01*
X438756Y363069D01*
X438859Y363021D01*
X438960Y362970D01*
X439059Y362915D01*
X439156Y362857D01*
X439251Y362795D01*
X439344Y362730D01*
X439434Y362662D01*
X439522Y362591D01*
X439608Y362516D01*
X439691Y362439D01*
X439771Y362359D01*
X439848Y362276D01*
X439923Y362190D01*
X439994Y362102D01*
X440062Y362012D01*
X440127Y361919D01*
X440189Y361824D01*
X440247Y361727D01*
X440302Y361628D01*
X440353Y361527D01*
X440401Y361424D01*
X440446Y361320D01*
X440486Y361214D01*
X440523Y361107D01*
X440556Y360999D01*
X440586Y360889D01*
X440611Y360779D01*
X440633Y360668D01*
X440650Y360556D01*
X440664Y360443D01*
X440674Y360330D01*
X440680Y360217D01*
X440682Y360104D01*
X440681Y360104D02*
X440681Y356859D01*
X440681Y360753D02*
X445874Y363350D01*
X443278Y368215D02*
X434190Y370811D01*
X443278Y368215D02*
X443278Y374706D01*
X440681Y372759D02*
X445874Y372759D01*
X448261Y363247D02*
X436577Y363247D01*
X436577Y366493D01*
X436579Y366606D01*
X436585Y366719D01*
X436595Y366832D01*
X436609Y366945D01*
X436626Y367057D01*
X436648Y367168D01*
X436673Y367278D01*
X436703Y367388D01*
X436736Y367496D01*
X436773Y367603D01*
X436813Y367709D01*
X436858Y367813D01*
X436906Y367916D01*
X436957Y368017D01*
X437012Y368116D01*
X437070Y368213D01*
X437132Y368308D01*
X437197Y368401D01*
X437265Y368491D01*
X437336Y368579D01*
X437411Y368665D01*
X437488Y368748D01*
X437568Y368828D01*
X437651Y368905D01*
X437737Y368980D01*
X437825Y369051D01*
X437915Y369119D01*
X438008Y369184D01*
X438103Y369246D01*
X438200Y369304D01*
X438299Y369359D01*
X438400Y369410D01*
X438503Y369458D01*
X438607Y369503D01*
X438713Y369543D01*
X438820Y369580D01*
X438928Y369613D01*
X439038Y369643D01*
X439148Y369668D01*
X439259Y369690D01*
X439371Y369707D01*
X439484Y369721D01*
X439597Y369731D01*
X439710Y369737D01*
X439823Y369739D01*
X439936Y369737D01*
X440049Y369731D01*
X440162Y369721D01*
X440275Y369707D01*
X440387Y369690D01*
X440498Y369668D01*
X440608Y369643D01*
X440718Y369613D01*
X440826Y369580D01*
X440933Y369543D01*
X441039Y369503D01*
X441143Y369458D01*
X441246Y369410D01*
X441347Y369359D01*
X441446Y369304D01*
X441543Y369246D01*
X441638Y369184D01*
X441731Y369119D01*
X441821Y369051D01*
X441909Y368980D01*
X441995Y368905D01*
X442078Y368828D01*
X442158Y368748D01*
X442235Y368665D01*
X442310Y368579D01*
X442381Y368491D01*
X442449Y368401D01*
X442514Y368308D01*
X442576Y368213D01*
X442634Y368116D01*
X442689Y368017D01*
X442740Y367916D01*
X442788Y367813D01*
X442833Y367709D01*
X442873Y367603D01*
X442910Y367496D01*
X442943Y367388D01*
X442973Y367278D01*
X442998Y367168D01*
X443020Y367057D01*
X443037Y366945D01*
X443051Y366832D01*
X443061Y366719D01*
X443067Y366606D01*
X443069Y366493D01*
X443068Y366493D02*
X443068Y363247D01*
X443068Y367142D02*
X448261Y369738D01*
X448261Y374603D02*
X448261Y378498D01*
X448259Y378597D01*
X448253Y378697D01*
X448244Y378796D01*
X448231Y378894D01*
X448214Y378992D01*
X448193Y379090D01*
X448168Y379186D01*
X448140Y379281D01*
X448108Y379375D01*
X448073Y379468D01*
X448034Y379560D01*
X447991Y379650D01*
X447946Y379738D01*
X447896Y379825D01*
X447844Y379909D01*
X447788Y379992D01*
X447730Y380072D01*
X447668Y380150D01*
X447603Y380225D01*
X447535Y380298D01*
X447465Y380368D01*
X447392Y380436D01*
X447317Y380501D01*
X447239Y380563D01*
X447159Y380621D01*
X447076Y380677D01*
X446992Y380729D01*
X446905Y380779D01*
X446817Y380824D01*
X446727Y380867D01*
X446635Y380906D01*
X446542Y380941D01*
X446448Y380973D01*
X446353Y381001D01*
X446257Y381026D01*
X446159Y381047D01*
X446061Y381064D01*
X445963Y381077D01*
X445864Y381086D01*
X445764Y381092D01*
X445665Y381094D01*
X444366Y381094D01*
X444267Y381092D01*
X444167Y381086D01*
X444068Y381077D01*
X443970Y381064D01*
X443872Y381047D01*
X443774Y381026D01*
X443678Y381001D01*
X443583Y380973D01*
X443489Y380941D01*
X443396Y380906D01*
X443304Y380867D01*
X443214Y380824D01*
X443126Y380779D01*
X443039Y380729D01*
X442955Y380677D01*
X442872Y380621D01*
X442792Y380563D01*
X442714Y380501D01*
X442639Y380436D01*
X442566Y380368D01*
X442496Y380298D01*
X442428Y380225D01*
X442363Y380150D01*
X442301Y380072D01*
X442243Y379992D01*
X442187Y379909D01*
X442135Y379825D01*
X442085Y379738D01*
X442040Y379650D01*
X441997Y379560D01*
X441958Y379468D01*
X441923Y379375D01*
X441891Y379281D01*
X441863Y379186D01*
X441838Y379090D01*
X441817Y378992D01*
X441800Y378894D01*
X441787Y378796D01*
X441778Y378697D01*
X441772Y378597D01*
X441770Y378498D01*
X441770Y374603D01*
X436577Y374603D01*
X436577Y381094D01*
X451099Y421534D02*
X462783Y421534D01*
X451099Y421534D02*
X451099Y424779D01*
X451098Y424779D02*
X451100Y424892D01*
X451106Y425005D01*
X451116Y425118D01*
X451130Y425231D01*
X451147Y425343D01*
X451169Y425454D01*
X451194Y425564D01*
X451224Y425674D01*
X451257Y425782D01*
X451294Y425889D01*
X451334Y425995D01*
X451379Y426099D01*
X451427Y426202D01*
X451478Y426303D01*
X451533Y426402D01*
X451591Y426499D01*
X451653Y426594D01*
X451718Y426687D01*
X451786Y426777D01*
X451857Y426865D01*
X451932Y426951D01*
X452009Y427034D01*
X452089Y427114D01*
X452172Y427191D01*
X452258Y427266D01*
X452346Y427337D01*
X452436Y427405D01*
X452529Y427470D01*
X452624Y427532D01*
X452721Y427590D01*
X452820Y427645D01*
X452921Y427696D01*
X453024Y427744D01*
X453128Y427789D01*
X453234Y427829D01*
X453341Y427866D01*
X453449Y427899D01*
X453559Y427929D01*
X453669Y427954D01*
X453780Y427976D01*
X453892Y427993D01*
X454005Y428007D01*
X454118Y428017D01*
X454231Y428023D01*
X454344Y428025D01*
X454457Y428023D01*
X454570Y428017D01*
X454683Y428007D01*
X454796Y427993D01*
X454908Y427976D01*
X455019Y427954D01*
X455129Y427929D01*
X455239Y427899D01*
X455347Y427866D01*
X455454Y427829D01*
X455560Y427789D01*
X455664Y427744D01*
X455767Y427696D01*
X455868Y427645D01*
X455967Y427590D01*
X456064Y427532D01*
X456159Y427470D01*
X456252Y427405D01*
X456342Y427337D01*
X456430Y427266D01*
X456516Y427191D01*
X456599Y427114D01*
X456679Y427034D01*
X456756Y426951D01*
X456831Y426865D01*
X456902Y426777D01*
X456970Y426687D01*
X457035Y426594D01*
X457097Y426499D01*
X457155Y426402D01*
X457210Y426303D01*
X457261Y426202D01*
X457309Y426099D01*
X457354Y425995D01*
X457394Y425889D01*
X457431Y425782D01*
X457464Y425674D01*
X457494Y425564D01*
X457519Y425454D01*
X457541Y425343D01*
X457558Y425231D01*
X457572Y425118D01*
X457582Y425005D01*
X457588Y424892D01*
X457590Y424779D01*
X457590Y421534D01*
X457590Y425428D02*
X462783Y428025D01*
X456292Y432890D02*
X456292Y436785D01*
X456294Y436884D01*
X456300Y436984D01*
X456309Y437083D01*
X456322Y437181D01*
X456339Y437279D01*
X456360Y437377D01*
X456385Y437473D01*
X456413Y437568D01*
X456445Y437662D01*
X456480Y437755D01*
X456519Y437847D01*
X456562Y437937D01*
X456607Y438025D01*
X456657Y438112D01*
X456709Y438196D01*
X456765Y438279D01*
X456823Y438359D01*
X456885Y438437D01*
X456950Y438512D01*
X457018Y438585D01*
X457088Y438655D01*
X457161Y438723D01*
X457236Y438788D01*
X457314Y438850D01*
X457394Y438908D01*
X457477Y438964D01*
X457561Y439016D01*
X457648Y439066D01*
X457736Y439111D01*
X457826Y439154D01*
X457918Y439193D01*
X458011Y439228D01*
X458105Y439260D01*
X458200Y439288D01*
X458296Y439313D01*
X458394Y439334D01*
X458492Y439351D01*
X458590Y439364D01*
X458689Y439373D01*
X458789Y439379D01*
X458888Y439381D01*
X459537Y439381D01*
X459537Y439382D02*
X459650Y439380D01*
X459763Y439374D01*
X459876Y439364D01*
X459989Y439350D01*
X460101Y439333D01*
X460212Y439311D01*
X460322Y439286D01*
X460432Y439256D01*
X460540Y439223D01*
X460647Y439186D01*
X460753Y439146D01*
X460857Y439101D01*
X460960Y439053D01*
X461061Y439002D01*
X461160Y438947D01*
X461257Y438889D01*
X461352Y438827D01*
X461445Y438762D01*
X461535Y438694D01*
X461623Y438623D01*
X461709Y438548D01*
X461792Y438471D01*
X461872Y438391D01*
X461949Y438308D01*
X462024Y438222D01*
X462095Y438134D01*
X462163Y438044D01*
X462228Y437951D01*
X462290Y437856D01*
X462348Y437759D01*
X462403Y437660D01*
X462454Y437559D01*
X462502Y437456D01*
X462547Y437352D01*
X462587Y437246D01*
X462624Y437139D01*
X462657Y437031D01*
X462687Y436921D01*
X462712Y436811D01*
X462734Y436700D01*
X462751Y436588D01*
X462765Y436475D01*
X462775Y436362D01*
X462781Y436249D01*
X462783Y436136D01*
X462781Y436023D01*
X462775Y435910D01*
X462765Y435797D01*
X462751Y435684D01*
X462734Y435572D01*
X462712Y435461D01*
X462687Y435351D01*
X462657Y435241D01*
X462624Y435133D01*
X462587Y435026D01*
X462547Y434920D01*
X462502Y434816D01*
X462454Y434713D01*
X462403Y434612D01*
X462348Y434513D01*
X462290Y434416D01*
X462228Y434321D01*
X462163Y434228D01*
X462095Y434138D01*
X462024Y434050D01*
X461949Y433964D01*
X461872Y433881D01*
X461792Y433801D01*
X461709Y433724D01*
X461623Y433649D01*
X461535Y433578D01*
X461445Y433510D01*
X461352Y433445D01*
X461257Y433383D01*
X461160Y433325D01*
X461061Y433270D01*
X460960Y433219D01*
X460857Y433171D01*
X460753Y433126D01*
X460647Y433086D01*
X460540Y433049D01*
X460432Y433016D01*
X460322Y432986D01*
X460212Y432961D01*
X460101Y432939D01*
X459989Y432922D01*
X459876Y432908D01*
X459763Y432898D01*
X459650Y432892D01*
X459537Y432890D01*
X456292Y432890D01*
X456149Y432892D01*
X456006Y432898D01*
X455863Y432908D01*
X455721Y432922D01*
X455579Y432939D01*
X455437Y432961D01*
X455296Y432986D01*
X455156Y433016D01*
X455017Y433049D01*
X454879Y433086D01*
X454742Y433127D01*
X454606Y433171D01*
X454471Y433220D01*
X454338Y433272D01*
X454206Y433327D01*
X454076Y433387D01*
X453947Y433450D01*
X453820Y433516D01*
X453696Y433586D01*
X453573Y433659D01*
X453452Y433736D01*
X453333Y433815D01*
X453217Y433899D01*
X453102Y433985D01*
X452991Y434074D01*
X452882Y434167D01*
X452775Y434262D01*
X452671Y434361D01*
X452570Y434462D01*
X452471Y434566D01*
X452376Y434672D01*
X452283Y434782D01*
X452194Y434893D01*
X452108Y435007D01*
X452025Y435124D01*
X451945Y435243D01*
X451868Y435364D01*
X451795Y435486D01*
X451725Y435611D01*
X451659Y435738D01*
X451596Y435867D01*
X451536Y435997D01*
X451481Y436129D01*
X451429Y436262D01*
X451380Y436397D01*
X451336Y436533D01*
X451295Y436670D01*
X451258Y436808D01*
X451225Y436947D01*
X451195Y437087D01*
X451170Y437228D01*
X451148Y437370D01*
X451131Y437512D01*
X451117Y437654D01*
X451107Y437797D01*
X451101Y437940D01*
X451099Y438083D01*
X452746Y478947D02*
X464430Y478947D01*
X452746Y478947D02*
X452746Y482192D01*
X452748Y482305D01*
X452754Y482418D01*
X452764Y482531D01*
X452778Y482644D01*
X452795Y482756D01*
X452817Y482867D01*
X452842Y482977D01*
X452872Y483087D01*
X452905Y483195D01*
X452942Y483302D01*
X452982Y483408D01*
X453027Y483512D01*
X453075Y483615D01*
X453126Y483716D01*
X453181Y483815D01*
X453239Y483912D01*
X453301Y484007D01*
X453366Y484100D01*
X453434Y484190D01*
X453505Y484278D01*
X453580Y484364D01*
X453657Y484447D01*
X453737Y484527D01*
X453820Y484604D01*
X453906Y484679D01*
X453994Y484750D01*
X454084Y484818D01*
X454177Y484883D01*
X454272Y484945D01*
X454369Y485003D01*
X454468Y485058D01*
X454569Y485109D01*
X454672Y485157D01*
X454776Y485202D01*
X454882Y485242D01*
X454989Y485279D01*
X455097Y485312D01*
X455207Y485342D01*
X455317Y485367D01*
X455428Y485389D01*
X455540Y485406D01*
X455653Y485420D01*
X455766Y485430D01*
X455879Y485436D01*
X455992Y485438D01*
X456105Y485436D01*
X456218Y485430D01*
X456331Y485420D01*
X456444Y485406D01*
X456556Y485389D01*
X456667Y485367D01*
X456777Y485342D01*
X456887Y485312D01*
X456995Y485279D01*
X457102Y485242D01*
X457208Y485202D01*
X457312Y485157D01*
X457415Y485109D01*
X457516Y485058D01*
X457615Y485003D01*
X457712Y484945D01*
X457807Y484883D01*
X457900Y484818D01*
X457990Y484750D01*
X458078Y484679D01*
X458164Y484604D01*
X458247Y484527D01*
X458327Y484447D01*
X458404Y484364D01*
X458479Y484278D01*
X458550Y484190D01*
X458618Y484100D01*
X458683Y484007D01*
X458745Y483912D01*
X458803Y483815D01*
X458858Y483716D01*
X458909Y483615D01*
X458957Y483512D01*
X459002Y483408D01*
X459042Y483302D01*
X459079Y483195D01*
X459112Y483087D01*
X459142Y482977D01*
X459167Y482867D01*
X459189Y482756D01*
X459206Y482644D01*
X459220Y482531D01*
X459230Y482418D01*
X459236Y482305D01*
X459238Y482192D01*
X459237Y482192D02*
X459237Y478947D01*
X459237Y482841D02*
X464430Y485438D01*
X454044Y490303D02*
X452746Y490303D01*
X452746Y496794D01*
X464430Y493549D01*
X435216Y330548D02*
X423532Y330548D01*
X423532Y333794D01*
X423534Y333907D01*
X423540Y334020D01*
X423550Y334133D01*
X423564Y334246D01*
X423581Y334358D01*
X423603Y334469D01*
X423628Y334579D01*
X423658Y334689D01*
X423691Y334797D01*
X423728Y334904D01*
X423768Y335010D01*
X423813Y335114D01*
X423861Y335217D01*
X423912Y335318D01*
X423967Y335417D01*
X424025Y335514D01*
X424087Y335609D01*
X424152Y335702D01*
X424220Y335792D01*
X424291Y335880D01*
X424366Y335966D01*
X424443Y336049D01*
X424523Y336129D01*
X424606Y336206D01*
X424692Y336281D01*
X424780Y336352D01*
X424870Y336420D01*
X424963Y336485D01*
X425058Y336547D01*
X425155Y336605D01*
X425254Y336660D01*
X425355Y336711D01*
X425458Y336759D01*
X425562Y336804D01*
X425668Y336844D01*
X425775Y336881D01*
X425883Y336914D01*
X425993Y336944D01*
X426103Y336969D01*
X426214Y336991D01*
X426326Y337008D01*
X426439Y337022D01*
X426552Y337032D01*
X426665Y337038D01*
X426778Y337040D01*
X426891Y337038D01*
X427004Y337032D01*
X427117Y337022D01*
X427230Y337008D01*
X427342Y336991D01*
X427453Y336969D01*
X427563Y336944D01*
X427673Y336914D01*
X427781Y336881D01*
X427888Y336844D01*
X427994Y336804D01*
X428098Y336759D01*
X428201Y336711D01*
X428302Y336660D01*
X428401Y336605D01*
X428498Y336547D01*
X428593Y336485D01*
X428686Y336420D01*
X428776Y336352D01*
X428864Y336281D01*
X428950Y336206D01*
X429033Y336129D01*
X429113Y336049D01*
X429190Y335966D01*
X429265Y335880D01*
X429336Y335792D01*
X429404Y335702D01*
X429469Y335609D01*
X429531Y335514D01*
X429589Y335417D01*
X429644Y335318D01*
X429695Y335217D01*
X429743Y335114D01*
X429788Y335010D01*
X429828Y334904D01*
X429865Y334797D01*
X429898Y334689D01*
X429928Y334579D01*
X429953Y334469D01*
X429975Y334358D01*
X429992Y334246D01*
X430006Y334133D01*
X430016Y334020D01*
X430022Y333907D01*
X430024Y333794D01*
X430023Y333794D02*
X430023Y330548D01*
X430023Y334443D02*
X435216Y337039D01*
X431970Y341904D02*
X431857Y341906D01*
X431744Y341912D01*
X431631Y341922D01*
X431518Y341936D01*
X431406Y341953D01*
X431295Y341975D01*
X431185Y342000D01*
X431075Y342030D01*
X430967Y342063D01*
X430860Y342100D01*
X430754Y342140D01*
X430650Y342185D01*
X430547Y342233D01*
X430446Y342284D01*
X430347Y342339D01*
X430250Y342397D01*
X430155Y342459D01*
X430062Y342524D01*
X429972Y342592D01*
X429884Y342663D01*
X429798Y342738D01*
X429715Y342815D01*
X429635Y342895D01*
X429558Y342978D01*
X429483Y343064D01*
X429412Y343152D01*
X429344Y343242D01*
X429279Y343335D01*
X429217Y343430D01*
X429159Y343527D01*
X429104Y343626D01*
X429053Y343727D01*
X429005Y343830D01*
X428960Y343934D01*
X428920Y344040D01*
X428883Y344147D01*
X428850Y344255D01*
X428820Y344365D01*
X428795Y344475D01*
X428773Y344586D01*
X428756Y344698D01*
X428742Y344811D01*
X428732Y344924D01*
X428726Y345037D01*
X428724Y345150D01*
X428726Y345263D01*
X428732Y345376D01*
X428742Y345489D01*
X428756Y345602D01*
X428773Y345714D01*
X428795Y345825D01*
X428820Y345935D01*
X428850Y346045D01*
X428883Y346153D01*
X428920Y346260D01*
X428960Y346366D01*
X429005Y346470D01*
X429053Y346573D01*
X429104Y346674D01*
X429159Y346773D01*
X429217Y346870D01*
X429279Y346965D01*
X429344Y347058D01*
X429412Y347148D01*
X429483Y347236D01*
X429558Y347322D01*
X429635Y347405D01*
X429715Y347485D01*
X429798Y347562D01*
X429884Y347637D01*
X429972Y347708D01*
X430062Y347776D01*
X430155Y347841D01*
X430250Y347903D01*
X430347Y347961D01*
X430446Y348016D01*
X430547Y348067D01*
X430650Y348115D01*
X430754Y348160D01*
X430860Y348200D01*
X430967Y348237D01*
X431075Y348270D01*
X431185Y348300D01*
X431295Y348325D01*
X431406Y348347D01*
X431518Y348364D01*
X431631Y348378D01*
X431744Y348388D01*
X431857Y348394D01*
X431970Y348396D01*
X432083Y348394D01*
X432196Y348388D01*
X432309Y348378D01*
X432422Y348364D01*
X432534Y348347D01*
X432645Y348325D01*
X432755Y348300D01*
X432865Y348270D01*
X432973Y348237D01*
X433080Y348200D01*
X433186Y348160D01*
X433290Y348115D01*
X433393Y348067D01*
X433494Y348016D01*
X433593Y347961D01*
X433690Y347903D01*
X433785Y347841D01*
X433878Y347776D01*
X433968Y347708D01*
X434056Y347637D01*
X434142Y347562D01*
X434225Y347485D01*
X434305Y347405D01*
X434382Y347322D01*
X434457Y347236D01*
X434528Y347148D01*
X434596Y347058D01*
X434661Y346965D01*
X434723Y346870D01*
X434781Y346773D01*
X434836Y346674D01*
X434887Y346573D01*
X434935Y346470D01*
X434980Y346366D01*
X435020Y346260D01*
X435057Y346153D01*
X435090Y346045D01*
X435120Y345935D01*
X435145Y345825D01*
X435167Y345714D01*
X435184Y345602D01*
X435198Y345489D01*
X435208Y345376D01*
X435214Y345263D01*
X435216Y345150D01*
X435214Y345037D01*
X435208Y344924D01*
X435198Y344811D01*
X435184Y344698D01*
X435167Y344586D01*
X435145Y344475D01*
X435120Y344365D01*
X435090Y344255D01*
X435057Y344147D01*
X435020Y344040D01*
X434980Y343934D01*
X434935Y343830D01*
X434887Y343727D01*
X434836Y343626D01*
X434781Y343527D01*
X434723Y343430D01*
X434661Y343335D01*
X434596Y343242D01*
X434528Y343152D01*
X434457Y343064D01*
X434382Y342978D01*
X434305Y342895D01*
X434225Y342815D01*
X434142Y342738D01*
X434056Y342663D01*
X433968Y342592D01*
X433878Y342524D01*
X433785Y342459D01*
X433690Y342397D01*
X433593Y342339D01*
X433494Y342284D01*
X433393Y342233D01*
X433290Y342185D01*
X433186Y342140D01*
X433080Y342100D01*
X432973Y342063D01*
X432865Y342030D01*
X432755Y342000D01*
X432645Y341975D01*
X432534Y341953D01*
X432422Y341936D01*
X432309Y341922D01*
X432196Y341912D01*
X432083Y341906D01*
X431970Y341904D01*
X426128Y342554D02*
X426027Y342556D01*
X425927Y342562D01*
X425827Y342572D01*
X425727Y342585D01*
X425628Y342603D01*
X425529Y342624D01*
X425432Y342649D01*
X425335Y342678D01*
X425240Y342711D01*
X425146Y342747D01*
X425054Y342787D01*
X424963Y342830D01*
X424874Y342877D01*
X424787Y342927D01*
X424701Y342981D01*
X424618Y343038D01*
X424538Y343098D01*
X424459Y343161D01*
X424383Y343228D01*
X424310Y343297D01*
X424240Y343369D01*
X424172Y343443D01*
X424107Y343520D01*
X424046Y343600D01*
X423987Y343682D01*
X423932Y343766D01*
X423880Y343852D01*
X423831Y343940D01*
X423786Y344030D01*
X423744Y344122D01*
X423706Y344215D01*
X423672Y344310D01*
X423641Y344405D01*
X423614Y344502D01*
X423591Y344600D01*
X423571Y344699D01*
X423556Y344799D01*
X423544Y344899D01*
X423536Y344999D01*
X423532Y345100D01*
X423532Y345200D01*
X423536Y345301D01*
X423544Y345401D01*
X423556Y345501D01*
X423571Y345601D01*
X423591Y345700D01*
X423614Y345798D01*
X423641Y345895D01*
X423672Y345990D01*
X423706Y346085D01*
X423744Y346178D01*
X423786Y346270D01*
X423831Y346360D01*
X423880Y346448D01*
X423932Y346534D01*
X423987Y346618D01*
X424046Y346700D01*
X424107Y346780D01*
X424172Y346857D01*
X424240Y346931D01*
X424310Y347003D01*
X424383Y347072D01*
X424459Y347139D01*
X424538Y347202D01*
X424618Y347262D01*
X424701Y347319D01*
X424787Y347373D01*
X424874Y347423D01*
X424963Y347470D01*
X425054Y347513D01*
X425146Y347553D01*
X425240Y347589D01*
X425335Y347622D01*
X425432Y347651D01*
X425529Y347676D01*
X425628Y347697D01*
X425727Y347715D01*
X425827Y347728D01*
X425927Y347738D01*
X426027Y347744D01*
X426128Y347746D01*
X426229Y347744D01*
X426329Y347738D01*
X426429Y347728D01*
X426529Y347715D01*
X426628Y347697D01*
X426727Y347676D01*
X426824Y347651D01*
X426921Y347622D01*
X427016Y347589D01*
X427110Y347553D01*
X427202Y347513D01*
X427293Y347470D01*
X427382Y347423D01*
X427469Y347373D01*
X427555Y347319D01*
X427638Y347262D01*
X427718Y347202D01*
X427797Y347139D01*
X427873Y347072D01*
X427946Y347003D01*
X428016Y346931D01*
X428084Y346857D01*
X428149Y346780D01*
X428210Y346700D01*
X428269Y346618D01*
X428324Y346534D01*
X428376Y346448D01*
X428425Y346360D01*
X428470Y346270D01*
X428512Y346178D01*
X428550Y346085D01*
X428584Y345990D01*
X428615Y345895D01*
X428642Y345798D01*
X428665Y345700D01*
X428685Y345601D01*
X428700Y345501D01*
X428712Y345401D01*
X428720Y345301D01*
X428724Y345200D01*
X428724Y345100D01*
X428720Y344999D01*
X428712Y344899D01*
X428700Y344799D01*
X428685Y344699D01*
X428665Y344600D01*
X428642Y344502D01*
X428615Y344405D01*
X428584Y344310D01*
X428550Y344215D01*
X428512Y344122D01*
X428470Y344030D01*
X428425Y343940D01*
X428376Y343852D01*
X428324Y343766D01*
X428269Y343682D01*
X428210Y343600D01*
X428149Y343520D01*
X428084Y343443D01*
X428016Y343369D01*
X427946Y343297D01*
X427873Y343228D01*
X427797Y343161D01*
X427718Y343098D01*
X427638Y343038D01*
X427555Y342981D01*
X427469Y342927D01*
X427382Y342877D01*
X427293Y342830D01*
X427202Y342787D01*
X427110Y342747D01*
X427016Y342711D01*
X426921Y342678D01*
X426824Y342649D01*
X426727Y342624D01*
X426628Y342603D01*
X426529Y342585D01*
X426429Y342572D01*
X426329Y342562D01*
X426229Y342556D01*
X426128Y342554D01*
X374343Y420445D02*
X362659Y420445D01*
X362659Y423691D01*
X362658Y423691D02*
X362660Y423804D01*
X362666Y423917D01*
X362676Y424030D01*
X362690Y424143D01*
X362707Y424255D01*
X362729Y424366D01*
X362754Y424476D01*
X362784Y424586D01*
X362817Y424694D01*
X362854Y424801D01*
X362894Y424907D01*
X362939Y425011D01*
X362987Y425114D01*
X363038Y425215D01*
X363093Y425314D01*
X363151Y425411D01*
X363213Y425506D01*
X363278Y425599D01*
X363346Y425689D01*
X363417Y425777D01*
X363492Y425863D01*
X363569Y425946D01*
X363649Y426026D01*
X363732Y426103D01*
X363818Y426178D01*
X363906Y426249D01*
X363996Y426317D01*
X364089Y426382D01*
X364184Y426444D01*
X364281Y426502D01*
X364380Y426557D01*
X364481Y426608D01*
X364584Y426656D01*
X364688Y426701D01*
X364794Y426741D01*
X364901Y426778D01*
X365009Y426811D01*
X365119Y426841D01*
X365229Y426866D01*
X365340Y426888D01*
X365452Y426905D01*
X365565Y426919D01*
X365678Y426929D01*
X365791Y426935D01*
X365904Y426937D01*
X366017Y426935D01*
X366130Y426929D01*
X366243Y426919D01*
X366356Y426905D01*
X366468Y426888D01*
X366579Y426866D01*
X366689Y426841D01*
X366799Y426811D01*
X366907Y426778D01*
X367014Y426741D01*
X367120Y426701D01*
X367224Y426656D01*
X367327Y426608D01*
X367428Y426557D01*
X367527Y426502D01*
X367624Y426444D01*
X367719Y426382D01*
X367812Y426317D01*
X367902Y426249D01*
X367990Y426178D01*
X368076Y426103D01*
X368159Y426026D01*
X368239Y425946D01*
X368316Y425863D01*
X368391Y425777D01*
X368462Y425689D01*
X368530Y425599D01*
X368595Y425506D01*
X368657Y425411D01*
X368715Y425314D01*
X368770Y425215D01*
X368821Y425114D01*
X368869Y425011D01*
X368914Y424907D01*
X368954Y424801D01*
X368991Y424694D01*
X369024Y424586D01*
X369054Y424476D01*
X369079Y424366D01*
X369101Y424255D01*
X369118Y424143D01*
X369132Y424030D01*
X369142Y423917D01*
X369148Y423804D01*
X369150Y423691D01*
X369150Y420445D01*
X369150Y424340D02*
X374343Y426936D01*
X369150Y434398D02*
X369150Y438292D01*
X369150Y434398D02*
X369148Y434299D01*
X369142Y434199D01*
X369133Y434100D01*
X369120Y434002D01*
X369103Y433904D01*
X369082Y433806D01*
X369057Y433710D01*
X369029Y433615D01*
X368997Y433521D01*
X368962Y433428D01*
X368923Y433336D01*
X368880Y433246D01*
X368835Y433158D01*
X368785Y433071D01*
X368733Y432987D01*
X368677Y432904D01*
X368619Y432824D01*
X368557Y432746D01*
X368492Y432671D01*
X368424Y432598D01*
X368354Y432528D01*
X368281Y432460D01*
X368206Y432395D01*
X368128Y432333D01*
X368048Y432275D01*
X367965Y432219D01*
X367881Y432167D01*
X367794Y432117D01*
X367706Y432072D01*
X367616Y432029D01*
X367524Y431990D01*
X367431Y431955D01*
X367337Y431923D01*
X367242Y431895D01*
X367146Y431870D01*
X367048Y431849D01*
X366950Y431832D01*
X366852Y431819D01*
X366753Y431810D01*
X366653Y431804D01*
X366554Y431802D01*
X366554Y431801D02*
X365904Y431801D01*
X365791Y431803D01*
X365678Y431809D01*
X365565Y431819D01*
X365452Y431833D01*
X365340Y431850D01*
X365229Y431872D01*
X365119Y431897D01*
X365009Y431927D01*
X364901Y431960D01*
X364794Y431997D01*
X364688Y432037D01*
X364584Y432082D01*
X364481Y432130D01*
X364380Y432181D01*
X364281Y432236D01*
X364184Y432294D01*
X364089Y432356D01*
X363996Y432421D01*
X363906Y432489D01*
X363818Y432560D01*
X363732Y432635D01*
X363649Y432712D01*
X363569Y432792D01*
X363492Y432875D01*
X363417Y432961D01*
X363346Y433049D01*
X363278Y433139D01*
X363213Y433232D01*
X363151Y433327D01*
X363093Y433424D01*
X363038Y433523D01*
X362987Y433624D01*
X362939Y433727D01*
X362894Y433831D01*
X362854Y433937D01*
X362817Y434044D01*
X362784Y434152D01*
X362754Y434262D01*
X362729Y434372D01*
X362707Y434483D01*
X362690Y434595D01*
X362676Y434708D01*
X362666Y434821D01*
X362660Y434934D01*
X362658Y435047D01*
X362660Y435160D01*
X362666Y435273D01*
X362676Y435386D01*
X362690Y435499D01*
X362707Y435611D01*
X362729Y435722D01*
X362754Y435832D01*
X362784Y435942D01*
X362817Y436050D01*
X362854Y436157D01*
X362894Y436263D01*
X362939Y436367D01*
X362987Y436470D01*
X363038Y436571D01*
X363093Y436670D01*
X363151Y436767D01*
X363213Y436862D01*
X363278Y436955D01*
X363346Y437045D01*
X363417Y437133D01*
X363492Y437219D01*
X363569Y437302D01*
X363649Y437382D01*
X363732Y437459D01*
X363818Y437534D01*
X363906Y437605D01*
X363996Y437673D01*
X364089Y437738D01*
X364184Y437800D01*
X364281Y437858D01*
X364380Y437913D01*
X364481Y437964D01*
X364584Y438012D01*
X364688Y438057D01*
X364794Y438097D01*
X364901Y438134D01*
X365009Y438167D01*
X365119Y438197D01*
X365229Y438222D01*
X365340Y438244D01*
X365452Y438261D01*
X365565Y438275D01*
X365678Y438285D01*
X365791Y438291D01*
X365904Y438293D01*
X365904Y438292D02*
X369150Y438292D01*
X369150Y438293D02*
X369293Y438291D01*
X369436Y438285D01*
X369579Y438275D01*
X369721Y438261D01*
X369863Y438244D01*
X370005Y438222D01*
X370146Y438197D01*
X370286Y438167D01*
X370425Y438134D01*
X370563Y438097D01*
X370700Y438056D01*
X370836Y438012D01*
X370971Y437963D01*
X371104Y437911D01*
X371236Y437856D01*
X371366Y437796D01*
X371495Y437733D01*
X371622Y437667D01*
X371747Y437597D01*
X371869Y437524D01*
X371990Y437447D01*
X372109Y437367D01*
X372225Y437284D01*
X372340Y437198D01*
X372451Y437109D01*
X372561Y437016D01*
X372667Y436921D01*
X372771Y436822D01*
X372872Y436721D01*
X372971Y436617D01*
X373066Y436511D01*
X373159Y436401D01*
X373248Y436290D01*
X373334Y436175D01*
X373417Y436059D01*
X373497Y435940D01*
X373574Y435819D01*
X373647Y435697D01*
X373717Y435572D01*
X373783Y435445D01*
X373846Y435316D01*
X373906Y435186D01*
X373961Y435054D01*
X374013Y434921D01*
X374062Y434786D01*
X374106Y434650D01*
X374147Y434513D01*
X374184Y434375D01*
X374217Y434236D01*
X374247Y434096D01*
X374272Y433955D01*
X374294Y433813D01*
X374311Y433671D01*
X374325Y433529D01*
X374335Y433386D01*
X374341Y433243D01*
X374343Y433100D01*
X382480Y481657D02*
X394164Y481657D01*
X382480Y481657D02*
X382480Y484903D01*
X382482Y485016D01*
X382488Y485129D01*
X382498Y485242D01*
X382512Y485355D01*
X382529Y485467D01*
X382551Y485578D01*
X382576Y485688D01*
X382606Y485798D01*
X382639Y485906D01*
X382676Y486013D01*
X382716Y486119D01*
X382761Y486223D01*
X382809Y486326D01*
X382860Y486427D01*
X382915Y486526D01*
X382973Y486623D01*
X383035Y486718D01*
X383100Y486811D01*
X383168Y486901D01*
X383239Y486989D01*
X383314Y487075D01*
X383391Y487158D01*
X383471Y487238D01*
X383554Y487315D01*
X383640Y487390D01*
X383728Y487461D01*
X383818Y487529D01*
X383911Y487594D01*
X384006Y487656D01*
X384103Y487714D01*
X384202Y487769D01*
X384303Y487820D01*
X384406Y487868D01*
X384510Y487913D01*
X384616Y487953D01*
X384723Y487990D01*
X384831Y488023D01*
X384941Y488053D01*
X385051Y488078D01*
X385162Y488100D01*
X385274Y488117D01*
X385387Y488131D01*
X385500Y488141D01*
X385613Y488147D01*
X385726Y488149D01*
X385839Y488147D01*
X385952Y488141D01*
X386065Y488131D01*
X386178Y488117D01*
X386290Y488100D01*
X386401Y488078D01*
X386511Y488053D01*
X386621Y488023D01*
X386729Y487990D01*
X386836Y487953D01*
X386942Y487913D01*
X387046Y487868D01*
X387149Y487820D01*
X387250Y487769D01*
X387349Y487714D01*
X387446Y487656D01*
X387541Y487594D01*
X387634Y487529D01*
X387724Y487461D01*
X387812Y487390D01*
X387898Y487315D01*
X387981Y487238D01*
X388061Y487158D01*
X388138Y487075D01*
X388213Y486989D01*
X388284Y486901D01*
X388352Y486811D01*
X388417Y486718D01*
X388479Y486623D01*
X388537Y486526D01*
X388592Y486427D01*
X388643Y486326D01*
X388691Y486223D01*
X388736Y486119D01*
X388776Y486013D01*
X388813Y485906D01*
X388846Y485798D01*
X388876Y485688D01*
X388901Y485578D01*
X388923Y485467D01*
X388940Y485355D01*
X388954Y485242D01*
X388964Y485129D01*
X388970Y485016D01*
X388972Y484903D01*
X388971Y484903D02*
X388971Y481657D01*
X388971Y485552D02*
X394164Y488148D01*
X385077Y493014D02*
X382480Y496259D01*
X394164Y496259D01*
X394164Y493014D02*
X394164Y499505D01*
X388322Y504443D02*
X388092Y504446D01*
X387862Y504454D01*
X387633Y504468D01*
X387404Y504487D01*
X387175Y504512D01*
X386947Y504542D01*
X386720Y504577D01*
X386494Y504618D01*
X386269Y504664D01*
X386045Y504716D01*
X385822Y504773D01*
X385601Y504835D01*
X385381Y504903D01*
X385163Y504976D01*
X384947Y505054D01*
X384733Y505137D01*
X384521Y505225D01*
X384310Y505318D01*
X384103Y505417D01*
X384013Y505450D01*
X383924Y505486D01*
X383836Y505526D01*
X383751Y505570D01*
X383667Y505617D01*
X383585Y505667D01*
X383505Y505721D01*
X383428Y505777D01*
X383352Y505837D01*
X383279Y505900D01*
X383209Y505965D01*
X383141Y506034D01*
X383077Y506105D01*
X383015Y506178D01*
X382956Y506254D01*
X382900Y506332D01*
X382847Y506413D01*
X382798Y506495D01*
X382752Y506579D01*
X382709Y506666D01*
X382670Y506753D01*
X382634Y506843D01*
X382602Y506933D01*
X382574Y507025D01*
X382549Y507118D01*
X382528Y507212D01*
X382511Y507306D01*
X382497Y507401D01*
X382488Y507497D01*
X382482Y507593D01*
X382480Y507689D01*
X382482Y507785D01*
X382488Y507881D01*
X382497Y507977D01*
X382511Y508072D01*
X382528Y508166D01*
X382549Y508260D01*
X382574Y508353D01*
X382602Y508445D01*
X382634Y508535D01*
X382670Y508625D01*
X382709Y508713D01*
X382752Y508799D01*
X382798Y508883D01*
X382847Y508965D01*
X382900Y509046D01*
X382956Y509124D01*
X383015Y509200D01*
X383077Y509273D01*
X383141Y509344D01*
X383209Y509413D01*
X383279Y509478D01*
X383352Y509541D01*
X383428Y509601D01*
X383505Y509657D01*
X383585Y509711D01*
X383667Y509761D01*
X383751Y509808D01*
X383836Y509852D01*
X383924Y509892D01*
X384013Y509928D01*
X384103Y509961D01*
X384310Y510060D01*
X384521Y510153D01*
X384733Y510241D01*
X384947Y510324D01*
X385163Y510402D01*
X385381Y510475D01*
X385601Y510543D01*
X385822Y510605D01*
X386045Y510662D01*
X386269Y510714D01*
X386494Y510760D01*
X386720Y510801D01*
X386947Y510836D01*
X387175Y510866D01*
X387404Y510891D01*
X387633Y510910D01*
X387862Y510924D01*
X388092Y510932D01*
X388322Y510935D01*
X388322Y504443D02*
X388552Y504446D01*
X388782Y504454D01*
X389011Y504468D01*
X389240Y504487D01*
X389469Y504512D01*
X389697Y504542D01*
X389924Y504577D01*
X390150Y504618D01*
X390375Y504664D01*
X390599Y504716D01*
X390822Y504773D01*
X391043Y504835D01*
X391263Y504903D01*
X391481Y504976D01*
X391697Y505054D01*
X391911Y505137D01*
X392123Y505225D01*
X392334Y505318D01*
X392541Y505417D01*
X392542Y505417D02*
X392632Y505450D01*
X392721Y505486D01*
X392809Y505527D01*
X392894Y505570D01*
X392978Y505617D01*
X393060Y505667D01*
X393140Y505721D01*
X393217Y505777D01*
X393293Y505837D01*
X393366Y505900D01*
X393436Y505965D01*
X393504Y506034D01*
X393568Y506105D01*
X393630Y506178D01*
X393689Y506254D01*
X393745Y506332D01*
X393798Y506413D01*
X393847Y506495D01*
X393893Y506579D01*
X393936Y506666D01*
X393975Y506753D01*
X394011Y506843D01*
X394043Y506933D01*
X394071Y507025D01*
X394096Y507118D01*
X394117Y507212D01*
X394134Y507306D01*
X394148Y507401D01*
X394157Y507497D01*
X394163Y507593D01*
X394165Y507689D01*
X392541Y509961D02*
X392334Y510060D01*
X392123Y510153D01*
X391911Y510241D01*
X391697Y510324D01*
X391481Y510402D01*
X391263Y510475D01*
X391043Y510543D01*
X390822Y510605D01*
X390599Y510662D01*
X390375Y510714D01*
X390150Y510760D01*
X389924Y510801D01*
X389697Y510836D01*
X389469Y510866D01*
X389240Y510891D01*
X389011Y510910D01*
X388782Y510924D01*
X388552Y510932D01*
X388322Y510935D01*
X392542Y509961D02*
X392632Y509928D01*
X392721Y509892D01*
X392809Y509852D01*
X392894Y509808D01*
X392978Y509761D01*
X393060Y509711D01*
X393140Y509657D01*
X393217Y509601D01*
X393293Y509541D01*
X393366Y509478D01*
X393436Y509413D01*
X393504Y509344D01*
X393568Y509273D01*
X393630Y509200D01*
X393689Y509124D01*
X393745Y509046D01*
X393798Y508965D01*
X393847Y508883D01*
X393893Y508799D01*
X393936Y508712D01*
X393975Y508625D01*
X394011Y508535D01*
X394043Y508445D01*
X394071Y508353D01*
X394096Y508260D01*
X394117Y508166D01*
X394134Y508072D01*
X394148Y507977D01*
X394157Y507881D01*
X394163Y507785D01*
X394165Y507689D01*
X391568Y505093D02*
X385077Y510286D01*
X406628Y291456D02*
X418312Y291456D01*
X406628Y291456D02*
X406628Y294702D01*
X406627Y294702D02*
X406629Y294815D01*
X406635Y294928D01*
X406645Y295041D01*
X406659Y295154D01*
X406676Y295266D01*
X406698Y295377D01*
X406723Y295487D01*
X406753Y295597D01*
X406786Y295705D01*
X406823Y295812D01*
X406863Y295918D01*
X406908Y296022D01*
X406956Y296125D01*
X407007Y296226D01*
X407062Y296325D01*
X407120Y296422D01*
X407182Y296517D01*
X407247Y296610D01*
X407315Y296700D01*
X407386Y296788D01*
X407461Y296874D01*
X407538Y296957D01*
X407618Y297037D01*
X407701Y297114D01*
X407787Y297189D01*
X407875Y297260D01*
X407965Y297328D01*
X408058Y297393D01*
X408153Y297455D01*
X408250Y297513D01*
X408349Y297568D01*
X408450Y297619D01*
X408553Y297667D01*
X408657Y297712D01*
X408763Y297752D01*
X408870Y297789D01*
X408978Y297822D01*
X409088Y297852D01*
X409198Y297877D01*
X409309Y297899D01*
X409421Y297916D01*
X409534Y297930D01*
X409647Y297940D01*
X409760Y297946D01*
X409873Y297948D01*
X409986Y297946D01*
X410099Y297940D01*
X410212Y297930D01*
X410325Y297916D01*
X410437Y297899D01*
X410548Y297877D01*
X410658Y297852D01*
X410768Y297822D01*
X410876Y297789D01*
X410983Y297752D01*
X411089Y297712D01*
X411193Y297667D01*
X411296Y297619D01*
X411397Y297568D01*
X411496Y297513D01*
X411593Y297455D01*
X411688Y297393D01*
X411781Y297328D01*
X411871Y297260D01*
X411959Y297189D01*
X412045Y297114D01*
X412128Y297037D01*
X412208Y296957D01*
X412285Y296874D01*
X412360Y296788D01*
X412431Y296700D01*
X412499Y296610D01*
X412564Y296517D01*
X412626Y296422D01*
X412684Y296325D01*
X412739Y296226D01*
X412790Y296125D01*
X412838Y296022D01*
X412883Y295918D01*
X412923Y295812D01*
X412960Y295705D01*
X412993Y295597D01*
X413023Y295487D01*
X413048Y295377D01*
X413070Y295266D01*
X413087Y295154D01*
X413101Y295041D01*
X413111Y294928D01*
X413117Y294815D01*
X413119Y294702D01*
X413119Y291456D01*
X413119Y295351D02*
X418312Y297948D01*
X409224Y302813D02*
X406628Y306058D01*
X418312Y306058D01*
X418312Y302813D02*
X418312Y309304D01*
X409224Y314243D02*
X406628Y317488D01*
X418312Y317488D01*
X418312Y314243D02*
X418312Y320734D01*
X400334Y318500D02*
X388650Y318500D01*
X388650Y321745D01*
X388649Y321745D02*
X388651Y321858D01*
X388657Y321971D01*
X388667Y322084D01*
X388681Y322197D01*
X388698Y322309D01*
X388720Y322420D01*
X388745Y322530D01*
X388775Y322640D01*
X388808Y322748D01*
X388845Y322855D01*
X388885Y322961D01*
X388930Y323065D01*
X388978Y323168D01*
X389029Y323269D01*
X389084Y323368D01*
X389142Y323465D01*
X389204Y323560D01*
X389269Y323653D01*
X389337Y323743D01*
X389408Y323831D01*
X389483Y323917D01*
X389560Y324000D01*
X389640Y324080D01*
X389723Y324157D01*
X389809Y324232D01*
X389897Y324303D01*
X389987Y324371D01*
X390080Y324436D01*
X390175Y324498D01*
X390272Y324556D01*
X390371Y324611D01*
X390472Y324662D01*
X390575Y324710D01*
X390679Y324755D01*
X390785Y324795D01*
X390892Y324832D01*
X391000Y324865D01*
X391110Y324895D01*
X391220Y324920D01*
X391331Y324942D01*
X391443Y324959D01*
X391556Y324973D01*
X391669Y324983D01*
X391782Y324989D01*
X391895Y324991D01*
X392008Y324989D01*
X392121Y324983D01*
X392234Y324973D01*
X392347Y324959D01*
X392459Y324942D01*
X392570Y324920D01*
X392680Y324895D01*
X392790Y324865D01*
X392898Y324832D01*
X393005Y324795D01*
X393111Y324755D01*
X393215Y324710D01*
X393318Y324662D01*
X393419Y324611D01*
X393518Y324556D01*
X393615Y324498D01*
X393710Y324436D01*
X393803Y324371D01*
X393893Y324303D01*
X393981Y324232D01*
X394067Y324157D01*
X394150Y324080D01*
X394230Y324000D01*
X394307Y323917D01*
X394382Y323831D01*
X394453Y323743D01*
X394521Y323653D01*
X394586Y323560D01*
X394648Y323465D01*
X394706Y323368D01*
X394761Y323269D01*
X394812Y323168D01*
X394860Y323065D01*
X394905Y322961D01*
X394945Y322855D01*
X394982Y322748D01*
X395015Y322640D01*
X395045Y322530D01*
X395070Y322420D01*
X395092Y322309D01*
X395109Y322197D01*
X395123Y322084D01*
X395133Y321971D01*
X395139Y321858D01*
X395141Y321745D01*
X395141Y318500D01*
X395141Y322394D02*
X400334Y324991D01*
X391246Y329856D02*
X388650Y333101D01*
X400334Y333101D01*
X400334Y329856D02*
X400334Y336347D01*
X391571Y347777D02*
X391464Y347775D01*
X391358Y347769D01*
X391252Y347759D01*
X391146Y347746D01*
X391040Y347728D01*
X390936Y347707D01*
X390832Y347682D01*
X390729Y347653D01*
X390628Y347621D01*
X390528Y347584D01*
X390429Y347544D01*
X390331Y347501D01*
X390235Y347454D01*
X390141Y347403D01*
X390049Y347349D01*
X389959Y347292D01*
X389871Y347232D01*
X389786Y347168D01*
X389703Y347101D01*
X389622Y347031D01*
X389544Y346959D01*
X389468Y346883D01*
X389396Y346805D01*
X389326Y346724D01*
X389259Y346641D01*
X389195Y346556D01*
X389135Y346468D01*
X389078Y346378D01*
X389024Y346286D01*
X388973Y346192D01*
X388926Y346096D01*
X388883Y345998D01*
X388843Y345899D01*
X388806Y345799D01*
X388774Y345698D01*
X388745Y345595D01*
X388720Y345491D01*
X388699Y345387D01*
X388681Y345281D01*
X388668Y345175D01*
X388658Y345069D01*
X388652Y344963D01*
X388650Y344856D01*
X388649Y344856D02*
X388651Y344735D01*
X388657Y344614D01*
X388667Y344494D01*
X388680Y344373D01*
X388698Y344254D01*
X388719Y344134D01*
X388744Y344016D01*
X388773Y343899D01*
X388806Y343782D01*
X388842Y343667D01*
X388883Y343553D01*
X388926Y343440D01*
X388974Y343328D01*
X389025Y343219D01*
X389080Y343111D01*
X389138Y343004D01*
X389199Y342900D01*
X389264Y342798D01*
X389332Y342698D01*
X389403Y342600D01*
X389477Y342504D01*
X389554Y342411D01*
X389635Y342321D01*
X389718Y342233D01*
X389804Y342148D01*
X389893Y342065D01*
X389984Y341986D01*
X390078Y341909D01*
X390174Y341836D01*
X390272Y341766D01*
X390373Y341699D01*
X390476Y341635D01*
X390581Y341575D01*
X390688Y341517D01*
X390796Y341464D01*
X390906Y341414D01*
X391018Y341368D01*
X391131Y341325D01*
X391246Y341286D01*
X393843Y346803D02*
X393765Y346882D01*
X393685Y346958D01*
X393602Y347031D01*
X393516Y347101D01*
X393429Y347168D01*
X393338Y347232D01*
X393246Y347292D01*
X393152Y347350D01*
X393055Y347404D01*
X392957Y347454D01*
X392857Y347501D01*
X392756Y347545D01*
X392653Y347585D01*
X392548Y347621D01*
X392443Y347653D01*
X392336Y347682D01*
X392229Y347707D01*
X392120Y347729D01*
X392011Y347746D01*
X391902Y347760D01*
X391792Y347769D01*
X391681Y347775D01*
X391571Y347777D01*
X393842Y346803D02*
X400334Y341286D01*
X400334Y347777D01*
X337837Y116086D02*
X337837Y104402D01*
X337837Y116086D02*
X341083Y116086D01*
X341083Y116087D02*
X341196Y116085D01*
X341309Y116079D01*
X341422Y116069D01*
X341535Y116055D01*
X341647Y116038D01*
X341758Y116016D01*
X341868Y115991D01*
X341978Y115961D01*
X342086Y115928D01*
X342193Y115891D01*
X342299Y115851D01*
X342403Y115806D01*
X342506Y115758D01*
X342607Y115707D01*
X342706Y115652D01*
X342803Y115594D01*
X342898Y115532D01*
X342991Y115467D01*
X343081Y115399D01*
X343169Y115328D01*
X343255Y115253D01*
X343338Y115176D01*
X343418Y115096D01*
X343495Y115013D01*
X343570Y114927D01*
X343641Y114839D01*
X343709Y114749D01*
X343774Y114656D01*
X343836Y114561D01*
X343894Y114464D01*
X343949Y114365D01*
X344000Y114264D01*
X344048Y114161D01*
X344093Y114057D01*
X344133Y113951D01*
X344170Y113844D01*
X344203Y113736D01*
X344233Y113626D01*
X344258Y113516D01*
X344280Y113405D01*
X344297Y113293D01*
X344311Y113180D01*
X344321Y113067D01*
X344327Y112954D01*
X344329Y112841D01*
X344327Y112728D01*
X344321Y112615D01*
X344311Y112502D01*
X344297Y112389D01*
X344280Y112277D01*
X344258Y112166D01*
X344233Y112056D01*
X344203Y111946D01*
X344170Y111838D01*
X344133Y111731D01*
X344093Y111625D01*
X344048Y111521D01*
X344000Y111418D01*
X343949Y111317D01*
X343894Y111218D01*
X343836Y111121D01*
X343774Y111026D01*
X343709Y110933D01*
X343641Y110843D01*
X343570Y110755D01*
X343495Y110669D01*
X343418Y110586D01*
X343338Y110506D01*
X343255Y110429D01*
X343169Y110354D01*
X343081Y110283D01*
X342991Y110215D01*
X342898Y110150D01*
X342803Y110088D01*
X342706Y110030D01*
X342607Y109975D01*
X342506Y109924D01*
X342403Y109876D01*
X342299Y109831D01*
X342193Y109791D01*
X342086Y109754D01*
X341978Y109721D01*
X341868Y109691D01*
X341758Y109666D01*
X341647Y109644D01*
X341535Y109627D01*
X341422Y109613D01*
X341309Y109603D01*
X341196Y109597D01*
X341083Y109595D01*
X337837Y109595D01*
X341732Y109595D02*
X344329Y104402D01*
X349194Y113490D02*
X352439Y116086D01*
X352439Y104402D01*
X349194Y104402D02*
X355685Y104402D01*
X360624Y104402D02*
X363869Y104402D01*
X363982Y104404D01*
X364095Y104410D01*
X364208Y104420D01*
X364321Y104434D01*
X364433Y104451D01*
X364544Y104473D01*
X364654Y104498D01*
X364764Y104528D01*
X364872Y104561D01*
X364979Y104598D01*
X365085Y104638D01*
X365189Y104683D01*
X365292Y104731D01*
X365393Y104782D01*
X365492Y104837D01*
X365589Y104895D01*
X365684Y104957D01*
X365777Y105022D01*
X365867Y105090D01*
X365955Y105161D01*
X366041Y105236D01*
X366124Y105313D01*
X366204Y105393D01*
X366281Y105476D01*
X366356Y105562D01*
X366427Y105650D01*
X366495Y105740D01*
X366560Y105833D01*
X366622Y105928D01*
X366680Y106025D01*
X366735Y106124D01*
X366786Y106225D01*
X366834Y106328D01*
X366879Y106432D01*
X366919Y106538D01*
X366956Y106645D01*
X366989Y106753D01*
X367019Y106863D01*
X367044Y106973D01*
X367066Y107084D01*
X367083Y107196D01*
X367097Y107309D01*
X367107Y107422D01*
X367113Y107535D01*
X367115Y107648D01*
X367113Y107761D01*
X367107Y107874D01*
X367097Y107987D01*
X367083Y108100D01*
X367066Y108212D01*
X367044Y108323D01*
X367019Y108433D01*
X366989Y108543D01*
X366956Y108651D01*
X366919Y108758D01*
X366879Y108864D01*
X366834Y108968D01*
X366786Y109071D01*
X366735Y109172D01*
X366680Y109271D01*
X366622Y109368D01*
X366560Y109463D01*
X366495Y109556D01*
X366427Y109646D01*
X366356Y109734D01*
X366281Y109820D01*
X366204Y109903D01*
X366124Y109983D01*
X366041Y110060D01*
X365955Y110135D01*
X365867Y110206D01*
X365777Y110274D01*
X365684Y110339D01*
X365589Y110401D01*
X365492Y110459D01*
X365393Y110514D01*
X365292Y110565D01*
X365189Y110613D01*
X365085Y110658D01*
X364979Y110698D01*
X364872Y110735D01*
X364764Y110768D01*
X364654Y110798D01*
X364544Y110823D01*
X364433Y110845D01*
X364321Y110862D01*
X364208Y110876D01*
X364095Y110886D01*
X363982Y110892D01*
X363869Y110894D01*
X364518Y116086D02*
X360624Y116086D01*
X364518Y116086D02*
X364619Y116084D01*
X364719Y116078D01*
X364819Y116068D01*
X364919Y116055D01*
X365018Y116037D01*
X365117Y116016D01*
X365214Y115991D01*
X365311Y115962D01*
X365406Y115929D01*
X365500Y115893D01*
X365592Y115853D01*
X365683Y115810D01*
X365772Y115763D01*
X365859Y115713D01*
X365945Y115659D01*
X366028Y115602D01*
X366108Y115542D01*
X366187Y115479D01*
X366263Y115412D01*
X366336Y115343D01*
X366406Y115271D01*
X366474Y115197D01*
X366539Y115120D01*
X366600Y115040D01*
X366659Y114958D01*
X366714Y114874D01*
X366766Y114788D01*
X366815Y114700D01*
X366860Y114610D01*
X366902Y114518D01*
X366940Y114425D01*
X366974Y114330D01*
X367005Y114235D01*
X367032Y114138D01*
X367055Y114040D01*
X367075Y113941D01*
X367090Y113841D01*
X367102Y113741D01*
X367110Y113641D01*
X367114Y113540D01*
X367114Y113440D01*
X367110Y113339D01*
X367102Y113239D01*
X367090Y113139D01*
X367075Y113039D01*
X367055Y112940D01*
X367032Y112842D01*
X367005Y112745D01*
X366974Y112650D01*
X366940Y112555D01*
X366902Y112462D01*
X366860Y112370D01*
X366815Y112280D01*
X366766Y112192D01*
X366714Y112106D01*
X366659Y112022D01*
X366600Y111940D01*
X366539Y111860D01*
X366474Y111783D01*
X366406Y111709D01*
X366336Y111637D01*
X366263Y111568D01*
X366187Y111501D01*
X366108Y111438D01*
X366028Y111378D01*
X365945Y111321D01*
X365859Y111267D01*
X365772Y111217D01*
X365683Y111170D01*
X365592Y111127D01*
X365500Y111087D01*
X365406Y111051D01*
X365311Y111018D01*
X365214Y110989D01*
X365117Y110964D01*
X365018Y110943D01*
X364919Y110925D01*
X364819Y110912D01*
X364719Y110902D01*
X364619Y110896D01*
X364518Y110894D01*
X364518Y110893D02*
X361922Y110893D01*
X385408Y184851D02*
X397092Y184851D01*
X385408Y184851D02*
X385408Y188096D01*
X385410Y188209D01*
X385416Y188322D01*
X385426Y188435D01*
X385440Y188548D01*
X385457Y188660D01*
X385479Y188771D01*
X385504Y188881D01*
X385534Y188991D01*
X385567Y189099D01*
X385604Y189206D01*
X385644Y189312D01*
X385689Y189416D01*
X385737Y189519D01*
X385788Y189620D01*
X385843Y189719D01*
X385901Y189816D01*
X385963Y189911D01*
X386028Y190004D01*
X386096Y190094D01*
X386167Y190182D01*
X386242Y190268D01*
X386319Y190351D01*
X386399Y190431D01*
X386482Y190508D01*
X386568Y190583D01*
X386656Y190654D01*
X386746Y190722D01*
X386839Y190787D01*
X386934Y190849D01*
X387031Y190907D01*
X387130Y190962D01*
X387231Y191013D01*
X387334Y191061D01*
X387438Y191106D01*
X387544Y191146D01*
X387651Y191183D01*
X387759Y191216D01*
X387869Y191246D01*
X387979Y191271D01*
X388090Y191293D01*
X388202Y191310D01*
X388315Y191324D01*
X388428Y191334D01*
X388541Y191340D01*
X388654Y191342D01*
X388767Y191340D01*
X388880Y191334D01*
X388993Y191324D01*
X389106Y191310D01*
X389218Y191293D01*
X389329Y191271D01*
X389439Y191246D01*
X389549Y191216D01*
X389657Y191183D01*
X389764Y191146D01*
X389870Y191106D01*
X389974Y191061D01*
X390077Y191013D01*
X390178Y190962D01*
X390277Y190907D01*
X390374Y190849D01*
X390469Y190787D01*
X390562Y190722D01*
X390652Y190654D01*
X390740Y190583D01*
X390826Y190508D01*
X390909Y190431D01*
X390989Y190351D01*
X391066Y190268D01*
X391141Y190182D01*
X391212Y190094D01*
X391280Y190004D01*
X391345Y189911D01*
X391407Y189816D01*
X391465Y189719D01*
X391520Y189620D01*
X391571Y189519D01*
X391619Y189416D01*
X391664Y189312D01*
X391704Y189206D01*
X391741Y189099D01*
X391774Y188991D01*
X391804Y188881D01*
X391829Y188771D01*
X391851Y188660D01*
X391868Y188548D01*
X391882Y188435D01*
X391892Y188322D01*
X391898Y188209D01*
X391900Y188096D01*
X391900Y184851D01*
X391900Y188746D02*
X397092Y191342D01*
X388005Y196207D02*
X385408Y199453D01*
X397092Y199453D01*
X397092Y202698D02*
X397092Y196207D01*
X394496Y207637D02*
X385408Y210234D01*
X394496Y207637D02*
X394496Y214128D01*
X391900Y212181D02*
X397092Y212181D01*
X423248Y116141D02*
X434932Y116141D01*
X423248Y116141D02*
X423248Y119386D01*
X423247Y119386D02*
X423249Y119499D01*
X423255Y119612D01*
X423265Y119725D01*
X423279Y119838D01*
X423296Y119950D01*
X423318Y120061D01*
X423343Y120171D01*
X423373Y120281D01*
X423406Y120389D01*
X423443Y120496D01*
X423483Y120602D01*
X423528Y120706D01*
X423576Y120809D01*
X423627Y120910D01*
X423682Y121009D01*
X423740Y121106D01*
X423802Y121201D01*
X423867Y121294D01*
X423935Y121384D01*
X424006Y121472D01*
X424081Y121558D01*
X424158Y121641D01*
X424238Y121721D01*
X424321Y121798D01*
X424407Y121873D01*
X424495Y121944D01*
X424585Y122012D01*
X424678Y122077D01*
X424773Y122139D01*
X424870Y122197D01*
X424969Y122252D01*
X425070Y122303D01*
X425173Y122351D01*
X425277Y122396D01*
X425383Y122436D01*
X425490Y122473D01*
X425598Y122506D01*
X425708Y122536D01*
X425818Y122561D01*
X425929Y122583D01*
X426041Y122600D01*
X426154Y122614D01*
X426267Y122624D01*
X426380Y122630D01*
X426493Y122632D01*
X426606Y122630D01*
X426719Y122624D01*
X426832Y122614D01*
X426945Y122600D01*
X427057Y122583D01*
X427168Y122561D01*
X427278Y122536D01*
X427388Y122506D01*
X427496Y122473D01*
X427603Y122436D01*
X427709Y122396D01*
X427813Y122351D01*
X427916Y122303D01*
X428017Y122252D01*
X428116Y122197D01*
X428213Y122139D01*
X428308Y122077D01*
X428401Y122012D01*
X428491Y121944D01*
X428579Y121873D01*
X428665Y121798D01*
X428748Y121721D01*
X428828Y121641D01*
X428905Y121558D01*
X428980Y121472D01*
X429051Y121384D01*
X429119Y121294D01*
X429184Y121201D01*
X429246Y121106D01*
X429304Y121009D01*
X429359Y120910D01*
X429410Y120809D01*
X429458Y120706D01*
X429503Y120602D01*
X429543Y120496D01*
X429580Y120389D01*
X429613Y120281D01*
X429643Y120171D01*
X429668Y120061D01*
X429690Y119950D01*
X429707Y119838D01*
X429721Y119725D01*
X429731Y119612D01*
X429737Y119499D01*
X429739Y119386D01*
X429739Y116141D01*
X429739Y120036D02*
X434932Y122632D01*
X425844Y127497D02*
X423248Y130743D01*
X434932Y130743D01*
X434932Y133988D02*
X434932Y127497D01*
X434932Y138927D02*
X434932Y142822D01*
X434931Y142822D02*
X434929Y142921D01*
X434923Y143021D01*
X434914Y143120D01*
X434901Y143218D01*
X434884Y143316D01*
X434863Y143414D01*
X434838Y143510D01*
X434810Y143605D01*
X434778Y143699D01*
X434743Y143792D01*
X434704Y143884D01*
X434661Y143974D01*
X434616Y144062D01*
X434566Y144149D01*
X434514Y144233D01*
X434458Y144316D01*
X434400Y144396D01*
X434338Y144474D01*
X434273Y144549D01*
X434205Y144622D01*
X434135Y144692D01*
X434062Y144760D01*
X433987Y144825D01*
X433909Y144887D01*
X433829Y144945D01*
X433746Y145001D01*
X433662Y145053D01*
X433575Y145103D01*
X433487Y145148D01*
X433397Y145191D01*
X433305Y145230D01*
X433212Y145265D01*
X433118Y145297D01*
X433023Y145325D01*
X432927Y145350D01*
X432829Y145371D01*
X432731Y145388D01*
X432633Y145401D01*
X432534Y145410D01*
X432434Y145416D01*
X432335Y145418D01*
X431037Y145418D01*
X430938Y145416D01*
X430838Y145410D01*
X430739Y145401D01*
X430641Y145388D01*
X430543Y145371D01*
X430445Y145350D01*
X430349Y145325D01*
X430254Y145297D01*
X430160Y145265D01*
X430067Y145230D01*
X429975Y145191D01*
X429885Y145148D01*
X429797Y145103D01*
X429710Y145053D01*
X429626Y145001D01*
X429543Y144945D01*
X429463Y144887D01*
X429385Y144825D01*
X429310Y144760D01*
X429237Y144692D01*
X429167Y144622D01*
X429099Y144549D01*
X429034Y144474D01*
X428972Y144396D01*
X428914Y144316D01*
X428858Y144233D01*
X428806Y144149D01*
X428756Y144062D01*
X428711Y143974D01*
X428668Y143884D01*
X428629Y143792D01*
X428594Y143699D01*
X428562Y143605D01*
X428534Y143510D01*
X428509Y143414D01*
X428488Y143316D01*
X428471Y143218D01*
X428458Y143120D01*
X428449Y143021D01*
X428443Y142921D01*
X428441Y142822D01*
X428441Y138927D01*
X423248Y138927D01*
X423248Y145418D01*
X406781Y68458D02*
X395097Y68458D01*
X395097Y71703D01*
X395096Y71703D02*
X395098Y71816D01*
X395104Y71929D01*
X395114Y72042D01*
X395128Y72155D01*
X395145Y72267D01*
X395167Y72378D01*
X395192Y72488D01*
X395222Y72598D01*
X395255Y72706D01*
X395292Y72813D01*
X395332Y72919D01*
X395377Y73023D01*
X395425Y73126D01*
X395476Y73227D01*
X395531Y73326D01*
X395589Y73423D01*
X395651Y73518D01*
X395716Y73611D01*
X395784Y73701D01*
X395855Y73789D01*
X395930Y73875D01*
X396007Y73958D01*
X396087Y74038D01*
X396170Y74115D01*
X396256Y74190D01*
X396344Y74261D01*
X396434Y74329D01*
X396527Y74394D01*
X396622Y74456D01*
X396719Y74514D01*
X396818Y74569D01*
X396919Y74620D01*
X397022Y74668D01*
X397126Y74713D01*
X397232Y74753D01*
X397339Y74790D01*
X397447Y74823D01*
X397557Y74853D01*
X397667Y74878D01*
X397778Y74900D01*
X397890Y74917D01*
X398003Y74931D01*
X398116Y74941D01*
X398229Y74947D01*
X398342Y74949D01*
X398455Y74947D01*
X398568Y74941D01*
X398681Y74931D01*
X398794Y74917D01*
X398906Y74900D01*
X399017Y74878D01*
X399127Y74853D01*
X399237Y74823D01*
X399345Y74790D01*
X399452Y74753D01*
X399558Y74713D01*
X399662Y74668D01*
X399765Y74620D01*
X399866Y74569D01*
X399965Y74514D01*
X400062Y74456D01*
X400157Y74394D01*
X400250Y74329D01*
X400340Y74261D01*
X400428Y74190D01*
X400514Y74115D01*
X400597Y74038D01*
X400677Y73958D01*
X400754Y73875D01*
X400829Y73789D01*
X400900Y73701D01*
X400968Y73611D01*
X401033Y73518D01*
X401095Y73423D01*
X401153Y73326D01*
X401208Y73227D01*
X401259Y73126D01*
X401307Y73023D01*
X401352Y72919D01*
X401392Y72813D01*
X401429Y72706D01*
X401462Y72598D01*
X401492Y72488D01*
X401517Y72378D01*
X401539Y72267D01*
X401556Y72155D01*
X401570Y72042D01*
X401580Y71929D01*
X401586Y71816D01*
X401588Y71703D01*
X401588Y68458D01*
X401588Y72352D02*
X406781Y74949D01*
X397693Y79814D02*
X395097Y83059D01*
X406781Y83059D01*
X406781Y79814D02*
X406781Y86305D01*
X400290Y91244D02*
X400290Y95139D01*
X400292Y95238D01*
X400298Y95338D01*
X400307Y95437D01*
X400320Y95535D01*
X400337Y95633D01*
X400358Y95731D01*
X400383Y95827D01*
X400411Y95922D01*
X400443Y96016D01*
X400478Y96109D01*
X400517Y96201D01*
X400560Y96291D01*
X400605Y96379D01*
X400655Y96466D01*
X400707Y96550D01*
X400763Y96633D01*
X400821Y96713D01*
X400883Y96791D01*
X400948Y96866D01*
X401016Y96939D01*
X401086Y97009D01*
X401159Y97077D01*
X401234Y97142D01*
X401312Y97204D01*
X401392Y97262D01*
X401475Y97318D01*
X401559Y97370D01*
X401646Y97420D01*
X401734Y97465D01*
X401824Y97508D01*
X401916Y97547D01*
X402009Y97582D01*
X402103Y97614D01*
X402198Y97642D01*
X402294Y97667D01*
X402392Y97688D01*
X402490Y97705D01*
X402588Y97718D01*
X402687Y97727D01*
X402787Y97733D01*
X402886Y97735D01*
X403535Y97735D01*
X403648Y97733D01*
X403761Y97727D01*
X403874Y97717D01*
X403987Y97703D01*
X404099Y97686D01*
X404210Y97664D01*
X404320Y97639D01*
X404430Y97609D01*
X404538Y97576D01*
X404645Y97539D01*
X404751Y97499D01*
X404855Y97454D01*
X404958Y97406D01*
X405059Y97355D01*
X405158Y97300D01*
X405255Y97242D01*
X405350Y97180D01*
X405443Y97115D01*
X405533Y97047D01*
X405621Y96976D01*
X405707Y96901D01*
X405790Y96824D01*
X405870Y96744D01*
X405947Y96661D01*
X406022Y96575D01*
X406093Y96487D01*
X406161Y96397D01*
X406226Y96304D01*
X406288Y96209D01*
X406346Y96112D01*
X406401Y96013D01*
X406452Y95912D01*
X406500Y95809D01*
X406545Y95705D01*
X406585Y95599D01*
X406622Y95492D01*
X406655Y95384D01*
X406685Y95274D01*
X406710Y95164D01*
X406732Y95053D01*
X406749Y94941D01*
X406763Y94828D01*
X406773Y94715D01*
X406779Y94602D01*
X406781Y94489D01*
X406779Y94376D01*
X406773Y94263D01*
X406763Y94150D01*
X406749Y94037D01*
X406732Y93925D01*
X406710Y93814D01*
X406685Y93704D01*
X406655Y93594D01*
X406622Y93486D01*
X406585Y93379D01*
X406545Y93273D01*
X406500Y93169D01*
X406452Y93066D01*
X406401Y92965D01*
X406346Y92866D01*
X406288Y92769D01*
X406226Y92674D01*
X406161Y92581D01*
X406093Y92491D01*
X406022Y92403D01*
X405947Y92317D01*
X405870Y92234D01*
X405790Y92154D01*
X405707Y92077D01*
X405621Y92002D01*
X405533Y91931D01*
X405443Y91863D01*
X405350Y91798D01*
X405255Y91736D01*
X405158Y91678D01*
X405059Y91623D01*
X404958Y91572D01*
X404855Y91524D01*
X404751Y91479D01*
X404645Y91439D01*
X404538Y91402D01*
X404430Y91369D01*
X404320Y91339D01*
X404210Y91314D01*
X404099Y91292D01*
X403987Y91275D01*
X403874Y91261D01*
X403761Y91251D01*
X403648Y91245D01*
X403535Y91243D01*
X403535Y91244D02*
X400290Y91244D01*
X400147Y91246D01*
X400004Y91252D01*
X399861Y91262D01*
X399719Y91276D01*
X399577Y91293D01*
X399435Y91315D01*
X399294Y91340D01*
X399154Y91370D01*
X399015Y91403D01*
X398877Y91440D01*
X398740Y91481D01*
X398604Y91525D01*
X398469Y91574D01*
X398336Y91626D01*
X398204Y91681D01*
X398074Y91741D01*
X397945Y91804D01*
X397818Y91870D01*
X397694Y91940D01*
X397571Y92013D01*
X397450Y92090D01*
X397331Y92169D01*
X397215Y92253D01*
X397100Y92339D01*
X396989Y92428D01*
X396880Y92521D01*
X396773Y92616D01*
X396669Y92715D01*
X396568Y92816D01*
X396469Y92920D01*
X396374Y93026D01*
X396281Y93136D01*
X396192Y93247D01*
X396106Y93361D01*
X396023Y93478D01*
X395943Y93597D01*
X395866Y93718D01*
X395793Y93840D01*
X395723Y93965D01*
X395657Y94092D01*
X395594Y94221D01*
X395534Y94351D01*
X395479Y94483D01*
X395427Y94616D01*
X395378Y94751D01*
X395334Y94887D01*
X395293Y95024D01*
X395256Y95162D01*
X395223Y95301D01*
X395193Y95441D01*
X395168Y95582D01*
X395146Y95724D01*
X395129Y95866D01*
X395115Y96008D01*
X395105Y96151D01*
X395099Y96294D01*
X395097Y96437D01*
X451153Y32161D02*
X462837Y32161D01*
X451153Y32161D02*
X451153Y35406D01*
X451152Y35406D02*
X451154Y35519D01*
X451160Y35632D01*
X451170Y35745D01*
X451184Y35858D01*
X451201Y35970D01*
X451223Y36081D01*
X451248Y36191D01*
X451278Y36301D01*
X451311Y36409D01*
X451348Y36516D01*
X451388Y36622D01*
X451433Y36726D01*
X451481Y36829D01*
X451532Y36930D01*
X451587Y37029D01*
X451645Y37126D01*
X451707Y37221D01*
X451772Y37314D01*
X451840Y37404D01*
X451911Y37492D01*
X451986Y37578D01*
X452063Y37661D01*
X452143Y37741D01*
X452226Y37818D01*
X452312Y37893D01*
X452400Y37964D01*
X452490Y38032D01*
X452583Y38097D01*
X452678Y38159D01*
X452775Y38217D01*
X452874Y38272D01*
X452975Y38323D01*
X453078Y38371D01*
X453182Y38416D01*
X453288Y38456D01*
X453395Y38493D01*
X453503Y38526D01*
X453613Y38556D01*
X453723Y38581D01*
X453834Y38603D01*
X453946Y38620D01*
X454059Y38634D01*
X454172Y38644D01*
X454285Y38650D01*
X454398Y38652D01*
X454511Y38650D01*
X454624Y38644D01*
X454737Y38634D01*
X454850Y38620D01*
X454962Y38603D01*
X455073Y38581D01*
X455183Y38556D01*
X455293Y38526D01*
X455401Y38493D01*
X455508Y38456D01*
X455614Y38416D01*
X455718Y38371D01*
X455821Y38323D01*
X455922Y38272D01*
X456021Y38217D01*
X456118Y38159D01*
X456213Y38097D01*
X456306Y38032D01*
X456396Y37964D01*
X456484Y37893D01*
X456570Y37818D01*
X456653Y37741D01*
X456733Y37661D01*
X456810Y37578D01*
X456885Y37492D01*
X456956Y37404D01*
X457024Y37314D01*
X457089Y37221D01*
X457151Y37126D01*
X457209Y37029D01*
X457264Y36930D01*
X457315Y36829D01*
X457363Y36726D01*
X457408Y36622D01*
X457448Y36516D01*
X457485Y36409D01*
X457518Y36301D01*
X457548Y36191D01*
X457573Y36081D01*
X457595Y35970D01*
X457612Y35858D01*
X457626Y35745D01*
X457636Y35632D01*
X457642Y35519D01*
X457644Y35406D01*
X457644Y32161D01*
X457644Y36056D02*
X462837Y38652D01*
X453749Y43517D02*
X451153Y46763D01*
X462837Y46763D01*
X462837Y50008D02*
X462837Y43517D01*
X452451Y54947D02*
X451153Y54947D01*
X451153Y61438D01*
X462837Y58193D01*
X466553Y116634D02*
X454869Y116634D01*
X454869Y119880D01*
X454868Y119880D02*
X454870Y119993D01*
X454876Y120106D01*
X454886Y120219D01*
X454900Y120332D01*
X454917Y120444D01*
X454939Y120555D01*
X454964Y120665D01*
X454994Y120775D01*
X455027Y120883D01*
X455064Y120990D01*
X455104Y121096D01*
X455149Y121200D01*
X455197Y121303D01*
X455248Y121404D01*
X455303Y121503D01*
X455361Y121600D01*
X455423Y121695D01*
X455488Y121788D01*
X455556Y121878D01*
X455627Y121966D01*
X455702Y122052D01*
X455779Y122135D01*
X455859Y122215D01*
X455942Y122292D01*
X456028Y122367D01*
X456116Y122438D01*
X456206Y122506D01*
X456299Y122571D01*
X456394Y122633D01*
X456491Y122691D01*
X456590Y122746D01*
X456691Y122797D01*
X456794Y122845D01*
X456898Y122890D01*
X457004Y122930D01*
X457111Y122967D01*
X457219Y123000D01*
X457329Y123030D01*
X457439Y123055D01*
X457550Y123077D01*
X457662Y123094D01*
X457775Y123108D01*
X457888Y123118D01*
X458001Y123124D01*
X458114Y123126D01*
X458227Y123124D01*
X458340Y123118D01*
X458453Y123108D01*
X458566Y123094D01*
X458678Y123077D01*
X458789Y123055D01*
X458899Y123030D01*
X459009Y123000D01*
X459117Y122967D01*
X459224Y122930D01*
X459330Y122890D01*
X459434Y122845D01*
X459537Y122797D01*
X459638Y122746D01*
X459737Y122691D01*
X459834Y122633D01*
X459929Y122571D01*
X460022Y122506D01*
X460112Y122438D01*
X460200Y122367D01*
X460286Y122292D01*
X460369Y122215D01*
X460449Y122135D01*
X460526Y122052D01*
X460601Y121966D01*
X460672Y121878D01*
X460740Y121788D01*
X460805Y121695D01*
X460867Y121600D01*
X460925Y121503D01*
X460980Y121404D01*
X461031Y121303D01*
X461079Y121200D01*
X461124Y121096D01*
X461164Y120990D01*
X461201Y120883D01*
X461234Y120775D01*
X461264Y120665D01*
X461289Y120555D01*
X461311Y120444D01*
X461328Y120332D01*
X461342Y120219D01*
X461352Y120106D01*
X461358Y119993D01*
X461360Y119880D01*
X461360Y116634D01*
X461360Y120529D02*
X466553Y123125D01*
X457465Y127991D02*
X454869Y131236D01*
X466553Y131236D01*
X466553Y127991D02*
X466553Y134482D01*
X463307Y139420D02*
X463194Y139422D01*
X463081Y139428D01*
X462968Y139438D01*
X462855Y139452D01*
X462743Y139469D01*
X462632Y139491D01*
X462522Y139516D01*
X462412Y139546D01*
X462304Y139579D01*
X462197Y139616D01*
X462091Y139656D01*
X461987Y139701D01*
X461884Y139749D01*
X461783Y139800D01*
X461684Y139855D01*
X461587Y139913D01*
X461492Y139975D01*
X461399Y140040D01*
X461309Y140108D01*
X461221Y140179D01*
X461135Y140254D01*
X461052Y140331D01*
X460972Y140411D01*
X460895Y140494D01*
X460820Y140580D01*
X460749Y140668D01*
X460681Y140758D01*
X460616Y140851D01*
X460554Y140946D01*
X460496Y141043D01*
X460441Y141142D01*
X460390Y141243D01*
X460342Y141346D01*
X460297Y141450D01*
X460257Y141556D01*
X460220Y141663D01*
X460187Y141771D01*
X460157Y141881D01*
X460132Y141991D01*
X460110Y142102D01*
X460093Y142214D01*
X460079Y142327D01*
X460069Y142440D01*
X460063Y142553D01*
X460061Y142666D01*
X460063Y142779D01*
X460069Y142892D01*
X460079Y143005D01*
X460093Y143118D01*
X460110Y143230D01*
X460132Y143341D01*
X460157Y143451D01*
X460187Y143561D01*
X460220Y143669D01*
X460257Y143776D01*
X460297Y143882D01*
X460342Y143986D01*
X460390Y144089D01*
X460441Y144190D01*
X460496Y144289D01*
X460554Y144386D01*
X460616Y144481D01*
X460681Y144574D01*
X460749Y144664D01*
X460820Y144752D01*
X460895Y144838D01*
X460972Y144921D01*
X461052Y145001D01*
X461135Y145078D01*
X461221Y145153D01*
X461309Y145224D01*
X461399Y145292D01*
X461492Y145357D01*
X461587Y145419D01*
X461684Y145477D01*
X461783Y145532D01*
X461884Y145583D01*
X461987Y145631D01*
X462091Y145676D01*
X462197Y145716D01*
X462304Y145753D01*
X462412Y145786D01*
X462522Y145816D01*
X462632Y145841D01*
X462743Y145863D01*
X462855Y145880D01*
X462968Y145894D01*
X463081Y145904D01*
X463194Y145910D01*
X463307Y145912D01*
X463420Y145910D01*
X463533Y145904D01*
X463646Y145894D01*
X463759Y145880D01*
X463871Y145863D01*
X463982Y145841D01*
X464092Y145816D01*
X464202Y145786D01*
X464310Y145753D01*
X464417Y145716D01*
X464523Y145676D01*
X464627Y145631D01*
X464730Y145583D01*
X464831Y145532D01*
X464930Y145477D01*
X465027Y145419D01*
X465122Y145357D01*
X465215Y145292D01*
X465305Y145224D01*
X465393Y145153D01*
X465479Y145078D01*
X465562Y145001D01*
X465642Y144921D01*
X465719Y144838D01*
X465794Y144752D01*
X465865Y144664D01*
X465933Y144574D01*
X465998Y144481D01*
X466060Y144386D01*
X466118Y144289D01*
X466173Y144190D01*
X466224Y144089D01*
X466272Y143986D01*
X466317Y143882D01*
X466357Y143776D01*
X466394Y143669D01*
X466427Y143561D01*
X466457Y143451D01*
X466482Y143341D01*
X466504Y143230D01*
X466521Y143118D01*
X466535Y143005D01*
X466545Y142892D01*
X466551Y142779D01*
X466553Y142666D01*
X466551Y142553D01*
X466545Y142440D01*
X466535Y142327D01*
X466521Y142214D01*
X466504Y142102D01*
X466482Y141991D01*
X466457Y141881D01*
X466427Y141771D01*
X466394Y141663D01*
X466357Y141556D01*
X466317Y141450D01*
X466272Y141346D01*
X466224Y141243D01*
X466173Y141142D01*
X466118Y141043D01*
X466060Y140946D01*
X465998Y140851D01*
X465933Y140758D01*
X465865Y140668D01*
X465794Y140580D01*
X465719Y140494D01*
X465642Y140411D01*
X465562Y140331D01*
X465479Y140254D01*
X465393Y140179D01*
X465305Y140108D01*
X465215Y140040D01*
X465122Y139975D01*
X465027Y139913D01*
X464930Y139855D01*
X464831Y139800D01*
X464730Y139749D01*
X464627Y139701D01*
X464523Y139656D01*
X464417Y139616D01*
X464310Y139579D01*
X464202Y139546D01*
X464092Y139516D01*
X463982Y139491D01*
X463871Y139469D01*
X463759Y139452D01*
X463646Y139438D01*
X463533Y139428D01*
X463420Y139422D01*
X463307Y139420D01*
X457465Y140070D02*
X457364Y140072D01*
X457264Y140078D01*
X457164Y140088D01*
X457064Y140101D01*
X456965Y140119D01*
X456866Y140140D01*
X456769Y140165D01*
X456672Y140194D01*
X456577Y140227D01*
X456483Y140263D01*
X456391Y140303D01*
X456300Y140346D01*
X456211Y140393D01*
X456124Y140443D01*
X456038Y140497D01*
X455955Y140554D01*
X455875Y140614D01*
X455796Y140677D01*
X455720Y140744D01*
X455647Y140813D01*
X455577Y140885D01*
X455509Y140959D01*
X455444Y141036D01*
X455383Y141116D01*
X455324Y141198D01*
X455269Y141282D01*
X455217Y141368D01*
X455168Y141456D01*
X455123Y141546D01*
X455081Y141638D01*
X455043Y141731D01*
X455009Y141826D01*
X454978Y141921D01*
X454951Y142018D01*
X454928Y142116D01*
X454908Y142215D01*
X454893Y142315D01*
X454881Y142415D01*
X454873Y142515D01*
X454869Y142616D01*
X454869Y142716D01*
X454873Y142817D01*
X454881Y142917D01*
X454893Y143017D01*
X454908Y143117D01*
X454928Y143216D01*
X454951Y143314D01*
X454978Y143411D01*
X455009Y143506D01*
X455043Y143601D01*
X455081Y143694D01*
X455123Y143786D01*
X455168Y143876D01*
X455217Y143964D01*
X455269Y144050D01*
X455324Y144134D01*
X455383Y144216D01*
X455444Y144296D01*
X455509Y144373D01*
X455577Y144447D01*
X455647Y144519D01*
X455720Y144588D01*
X455796Y144655D01*
X455875Y144718D01*
X455955Y144778D01*
X456038Y144835D01*
X456124Y144889D01*
X456211Y144939D01*
X456300Y144986D01*
X456391Y145029D01*
X456483Y145069D01*
X456577Y145105D01*
X456672Y145138D01*
X456769Y145167D01*
X456866Y145192D01*
X456965Y145213D01*
X457064Y145231D01*
X457164Y145244D01*
X457264Y145254D01*
X457364Y145260D01*
X457465Y145262D01*
X457566Y145260D01*
X457666Y145254D01*
X457766Y145244D01*
X457866Y145231D01*
X457965Y145213D01*
X458064Y145192D01*
X458161Y145167D01*
X458258Y145138D01*
X458353Y145105D01*
X458447Y145069D01*
X458539Y145029D01*
X458630Y144986D01*
X458719Y144939D01*
X458806Y144889D01*
X458892Y144835D01*
X458975Y144778D01*
X459055Y144718D01*
X459134Y144655D01*
X459210Y144588D01*
X459283Y144519D01*
X459353Y144447D01*
X459421Y144373D01*
X459486Y144296D01*
X459547Y144216D01*
X459606Y144134D01*
X459661Y144050D01*
X459713Y143964D01*
X459762Y143876D01*
X459807Y143786D01*
X459849Y143694D01*
X459887Y143601D01*
X459921Y143506D01*
X459952Y143411D01*
X459979Y143314D01*
X460002Y143216D01*
X460022Y143117D01*
X460037Y143017D01*
X460049Y142917D01*
X460057Y142817D01*
X460061Y142716D01*
X460061Y142616D01*
X460057Y142515D01*
X460049Y142415D01*
X460037Y142315D01*
X460022Y142215D01*
X460002Y142116D01*
X459979Y142018D01*
X459952Y141921D01*
X459921Y141826D01*
X459887Y141731D01*
X459849Y141638D01*
X459807Y141546D01*
X459762Y141456D01*
X459713Y141368D01*
X459661Y141282D01*
X459606Y141198D01*
X459547Y141116D01*
X459486Y141036D01*
X459421Y140959D01*
X459353Y140885D01*
X459283Y140813D01*
X459210Y140744D01*
X459134Y140677D01*
X459055Y140614D01*
X458975Y140554D01*
X458892Y140497D01*
X458806Y140443D01*
X458719Y140393D01*
X458630Y140346D01*
X458539Y140303D01*
X458447Y140263D01*
X458353Y140227D01*
X458258Y140194D01*
X458161Y140165D01*
X458064Y140140D01*
X457965Y140119D01*
X457866Y140101D01*
X457766Y140088D01*
X457666Y140078D01*
X457566Y140072D01*
X457465Y140070D01*
X456261Y182770D02*
X467945Y182770D01*
X456261Y182770D02*
X456261Y186015D01*
X456263Y186128D01*
X456269Y186241D01*
X456279Y186354D01*
X456293Y186467D01*
X456310Y186579D01*
X456332Y186690D01*
X456357Y186800D01*
X456387Y186910D01*
X456420Y187018D01*
X456457Y187125D01*
X456497Y187231D01*
X456542Y187335D01*
X456590Y187438D01*
X456641Y187539D01*
X456696Y187638D01*
X456754Y187735D01*
X456816Y187830D01*
X456881Y187923D01*
X456949Y188013D01*
X457020Y188101D01*
X457095Y188187D01*
X457172Y188270D01*
X457252Y188350D01*
X457335Y188427D01*
X457421Y188502D01*
X457509Y188573D01*
X457599Y188641D01*
X457692Y188706D01*
X457787Y188768D01*
X457884Y188826D01*
X457983Y188881D01*
X458084Y188932D01*
X458187Y188980D01*
X458291Y189025D01*
X458397Y189065D01*
X458504Y189102D01*
X458612Y189135D01*
X458722Y189165D01*
X458832Y189190D01*
X458943Y189212D01*
X459055Y189229D01*
X459168Y189243D01*
X459281Y189253D01*
X459394Y189259D01*
X459507Y189261D01*
X459620Y189259D01*
X459733Y189253D01*
X459846Y189243D01*
X459959Y189229D01*
X460071Y189212D01*
X460182Y189190D01*
X460292Y189165D01*
X460402Y189135D01*
X460510Y189102D01*
X460617Y189065D01*
X460723Y189025D01*
X460827Y188980D01*
X460930Y188932D01*
X461031Y188881D01*
X461130Y188826D01*
X461227Y188768D01*
X461322Y188706D01*
X461415Y188641D01*
X461505Y188573D01*
X461593Y188502D01*
X461679Y188427D01*
X461762Y188350D01*
X461842Y188270D01*
X461919Y188187D01*
X461994Y188101D01*
X462065Y188013D01*
X462133Y187923D01*
X462198Y187830D01*
X462260Y187735D01*
X462318Y187638D01*
X462373Y187539D01*
X462424Y187438D01*
X462472Y187335D01*
X462517Y187231D01*
X462557Y187125D01*
X462594Y187018D01*
X462627Y186910D01*
X462657Y186800D01*
X462682Y186690D01*
X462704Y186579D01*
X462721Y186467D01*
X462735Y186354D01*
X462745Y186241D01*
X462751Y186128D01*
X462753Y186015D01*
X462752Y186015D02*
X462752Y182770D01*
X462752Y186664D02*
X467945Y189261D01*
X458858Y194126D02*
X456261Y197372D01*
X467945Y197372D01*
X467945Y200617D02*
X467945Y194126D01*
X462752Y208153D02*
X462752Y212047D01*
X462752Y208153D02*
X462750Y208054D01*
X462744Y207954D01*
X462735Y207855D01*
X462722Y207757D01*
X462705Y207659D01*
X462684Y207561D01*
X462659Y207465D01*
X462631Y207370D01*
X462599Y207276D01*
X462564Y207183D01*
X462525Y207091D01*
X462482Y207001D01*
X462437Y206913D01*
X462387Y206826D01*
X462335Y206742D01*
X462279Y206659D01*
X462221Y206579D01*
X462159Y206501D01*
X462094Y206426D01*
X462026Y206353D01*
X461956Y206283D01*
X461883Y206215D01*
X461808Y206150D01*
X461730Y206088D01*
X461650Y206030D01*
X461567Y205974D01*
X461483Y205922D01*
X461396Y205872D01*
X461308Y205827D01*
X461218Y205784D01*
X461126Y205745D01*
X461033Y205710D01*
X460939Y205678D01*
X460844Y205650D01*
X460748Y205625D01*
X460650Y205604D01*
X460552Y205587D01*
X460454Y205574D01*
X460355Y205565D01*
X460255Y205559D01*
X460156Y205557D01*
X460156Y205556D02*
X459507Y205556D01*
X459394Y205558D01*
X459281Y205564D01*
X459168Y205574D01*
X459055Y205588D01*
X458943Y205605D01*
X458832Y205627D01*
X458722Y205652D01*
X458612Y205682D01*
X458504Y205715D01*
X458397Y205752D01*
X458291Y205792D01*
X458187Y205837D01*
X458084Y205885D01*
X457983Y205936D01*
X457884Y205991D01*
X457787Y206049D01*
X457692Y206111D01*
X457599Y206176D01*
X457509Y206244D01*
X457421Y206315D01*
X457335Y206390D01*
X457252Y206467D01*
X457172Y206547D01*
X457095Y206630D01*
X457020Y206716D01*
X456949Y206804D01*
X456881Y206894D01*
X456816Y206987D01*
X456754Y207082D01*
X456696Y207179D01*
X456641Y207278D01*
X456590Y207379D01*
X456542Y207482D01*
X456497Y207586D01*
X456457Y207692D01*
X456420Y207799D01*
X456387Y207907D01*
X456357Y208017D01*
X456332Y208127D01*
X456310Y208238D01*
X456293Y208350D01*
X456279Y208463D01*
X456269Y208576D01*
X456263Y208689D01*
X456261Y208802D01*
X456263Y208915D01*
X456269Y209028D01*
X456279Y209141D01*
X456293Y209254D01*
X456310Y209366D01*
X456332Y209477D01*
X456357Y209587D01*
X456387Y209697D01*
X456420Y209805D01*
X456457Y209912D01*
X456497Y210018D01*
X456542Y210122D01*
X456590Y210225D01*
X456641Y210326D01*
X456696Y210425D01*
X456754Y210522D01*
X456816Y210617D01*
X456881Y210710D01*
X456949Y210800D01*
X457020Y210888D01*
X457095Y210974D01*
X457172Y211057D01*
X457252Y211137D01*
X457335Y211214D01*
X457421Y211289D01*
X457509Y211360D01*
X457599Y211428D01*
X457692Y211493D01*
X457787Y211555D01*
X457884Y211613D01*
X457983Y211668D01*
X458084Y211719D01*
X458187Y211767D01*
X458291Y211812D01*
X458397Y211852D01*
X458504Y211889D01*
X458612Y211922D01*
X458722Y211952D01*
X458832Y211977D01*
X458943Y211999D01*
X459055Y212016D01*
X459168Y212030D01*
X459281Y212040D01*
X459394Y212046D01*
X459507Y212048D01*
X459507Y212047D02*
X462752Y212047D01*
X462895Y212045D01*
X463038Y212039D01*
X463181Y212029D01*
X463323Y212015D01*
X463465Y211998D01*
X463607Y211976D01*
X463748Y211951D01*
X463888Y211921D01*
X464027Y211888D01*
X464165Y211851D01*
X464302Y211810D01*
X464438Y211766D01*
X464573Y211717D01*
X464706Y211665D01*
X464838Y211610D01*
X464968Y211550D01*
X465097Y211487D01*
X465224Y211421D01*
X465349Y211351D01*
X465471Y211278D01*
X465592Y211201D01*
X465711Y211121D01*
X465827Y211038D01*
X465942Y210952D01*
X466053Y210863D01*
X466163Y210770D01*
X466269Y210675D01*
X466373Y210576D01*
X466474Y210475D01*
X466573Y210371D01*
X466668Y210265D01*
X466761Y210155D01*
X466850Y210044D01*
X466936Y209929D01*
X467019Y209813D01*
X467099Y209694D01*
X467176Y209573D01*
X467249Y209451D01*
X467319Y209326D01*
X467385Y209199D01*
X467448Y209070D01*
X467508Y208940D01*
X467563Y208808D01*
X467615Y208675D01*
X467664Y208540D01*
X467708Y208404D01*
X467749Y208267D01*
X467786Y208129D01*
X467819Y207990D01*
X467849Y207850D01*
X467874Y207709D01*
X467896Y207567D01*
X467913Y207425D01*
X467927Y207283D01*
X467937Y207140D01*
X467943Y206997D01*
X467945Y206854D01*
X441580Y1854D02*
X429896Y1854D01*
X429896Y5100D01*
X429898Y5213D01*
X429904Y5326D01*
X429914Y5439D01*
X429928Y5552D01*
X429945Y5664D01*
X429967Y5775D01*
X429992Y5885D01*
X430022Y5995D01*
X430055Y6103D01*
X430092Y6210D01*
X430132Y6316D01*
X430177Y6420D01*
X430225Y6523D01*
X430276Y6624D01*
X430331Y6723D01*
X430389Y6820D01*
X430451Y6915D01*
X430516Y7008D01*
X430584Y7098D01*
X430655Y7186D01*
X430730Y7272D01*
X430807Y7355D01*
X430887Y7435D01*
X430970Y7512D01*
X431056Y7587D01*
X431144Y7658D01*
X431234Y7726D01*
X431327Y7791D01*
X431422Y7853D01*
X431519Y7911D01*
X431618Y7966D01*
X431719Y8017D01*
X431822Y8065D01*
X431926Y8110D01*
X432032Y8150D01*
X432139Y8187D01*
X432247Y8220D01*
X432357Y8250D01*
X432467Y8275D01*
X432578Y8297D01*
X432690Y8314D01*
X432803Y8328D01*
X432916Y8338D01*
X433029Y8344D01*
X433142Y8346D01*
X433255Y8344D01*
X433368Y8338D01*
X433481Y8328D01*
X433594Y8314D01*
X433706Y8297D01*
X433817Y8275D01*
X433927Y8250D01*
X434037Y8220D01*
X434145Y8187D01*
X434252Y8150D01*
X434358Y8110D01*
X434462Y8065D01*
X434565Y8017D01*
X434666Y7966D01*
X434765Y7911D01*
X434862Y7853D01*
X434957Y7791D01*
X435050Y7726D01*
X435140Y7658D01*
X435228Y7587D01*
X435314Y7512D01*
X435397Y7435D01*
X435477Y7355D01*
X435554Y7272D01*
X435629Y7186D01*
X435700Y7098D01*
X435768Y7008D01*
X435833Y6915D01*
X435895Y6820D01*
X435953Y6723D01*
X436008Y6624D01*
X436059Y6523D01*
X436107Y6420D01*
X436152Y6316D01*
X436192Y6210D01*
X436229Y6103D01*
X436262Y5995D01*
X436292Y5885D01*
X436317Y5775D01*
X436339Y5664D01*
X436356Y5552D01*
X436370Y5439D01*
X436380Y5326D01*
X436386Y5213D01*
X436388Y5100D01*
X436387Y5100D02*
X436387Y1854D01*
X436387Y5749D02*
X441580Y8346D01*
X432817Y19702D02*
X432710Y19700D01*
X432604Y19694D01*
X432498Y19684D01*
X432392Y19671D01*
X432286Y19653D01*
X432182Y19632D01*
X432078Y19607D01*
X431975Y19578D01*
X431874Y19546D01*
X431774Y19509D01*
X431675Y19469D01*
X431577Y19426D01*
X431481Y19379D01*
X431387Y19328D01*
X431295Y19274D01*
X431205Y19217D01*
X431117Y19157D01*
X431032Y19093D01*
X430949Y19026D01*
X430868Y18956D01*
X430790Y18884D01*
X430714Y18808D01*
X430642Y18730D01*
X430572Y18649D01*
X430505Y18566D01*
X430441Y18481D01*
X430381Y18393D01*
X430324Y18303D01*
X430270Y18211D01*
X430219Y18117D01*
X430172Y18021D01*
X430129Y17923D01*
X430089Y17824D01*
X430052Y17724D01*
X430020Y17623D01*
X429991Y17520D01*
X429966Y17416D01*
X429945Y17312D01*
X429927Y17206D01*
X429914Y17100D01*
X429904Y16994D01*
X429898Y16888D01*
X429896Y16781D01*
X429898Y16660D01*
X429904Y16539D01*
X429914Y16419D01*
X429927Y16298D01*
X429945Y16179D01*
X429966Y16059D01*
X429991Y15941D01*
X430020Y15824D01*
X430053Y15707D01*
X430089Y15592D01*
X430130Y15478D01*
X430173Y15365D01*
X430221Y15253D01*
X430272Y15144D01*
X430327Y15036D01*
X430385Y14929D01*
X430446Y14825D01*
X430511Y14723D01*
X430579Y14623D01*
X430650Y14525D01*
X430724Y14429D01*
X430801Y14336D01*
X430882Y14246D01*
X430965Y14158D01*
X431051Y14073D01*
X431140Y13990D01*
X431231Y13911D01*
X431325Y13834D01*
X431421Y13761D01*
X431519Y13691D01*
X431620Y13624D01*
X431723Y13560D01*
X431828Y13500D01*
X431935Y13442D01*
X432043Y13389D01*
X432153Y13339D01*
X432265Y13293D01*
X432378Y13250D01*
X432493Y13211D01*
X435089Y18727D02*
X435011Y18806D01*
X434931Y18882D01*
X434848Y18955D01*
X434762Y19025D01*
X434675Y19092D01*
X434584Y19156D01*
X434492Y19216D01*
X434398Y19274D01*
X434301Y19328D01*
X434203Y19378D01*
X434103Y19425D01*
X434002Y19469D01*
X433899Y19509D01*
X433794Y19545D01*
X433689Y19577D01*
X433582Y19606D01*
X433475Y19631D01*
X433366Y19653D01*
X433257Y19670D01*
X433148Y19684D01*
X433038Y19693D01*
X432927Y19699D01*
X432817Y19701D01*
X435089Y18728D02*
X441580Y13211D01*
X441580Y19702D01*
X435738Y24640D02*
X435508Y24643D01*
X435278Y24651D01*
X435049Y24665D01*
X434820Y24684D01*
X434591Y24709D01*
X434363Y24739D01*
X434136Y24774D01*
X433910Y24815D01*
X433685Y24861D01*
X433461Y24913D01*
X433238Y24970D01*
X433017Y25032D01*
X432797Y25100D01*
X432579Y25173D01*
X432363Y25251D01*
X432149Y25334D01*
X431937Y25422D01*
X431726Y25515D01*
X431519Y25614D01*
X431429Y25647D01*
X431340Y25683D01*
X431252Y25723D01*
X431167Y25767D01*
X431083Y25814D01*
X431001Y25864D01*
X430921Y25918D01*
X430844Y25974D01*
X430768Y26034D01*
X430695Y26097D01*
X430625Y26162D01*
X430557Y26231D01*
X430493Y26302D01*
X430431Y26375D01*
X430372Y26451D01*
X430316Y26529D01*
X430263Y26610D01*
X430214Y26692D01*
X430168Y26776D01*
X430125Y26863D01*
X430086Y26950D01*
X430050Y27040D01*
X430018Y27130D01*
X429990Y27222D01*
X429965Y27315D01*
X429944Y27409D01*
X429927Y27503D01*
X429913Y27598D01*
X429904Y27694D01*
X429898Y27790D01*
X429896Y27886D01*
X429898Y27982D01*
X429904Y28078D01*
X429913Y28174D01*
X429927Y28269D01*
X429944Y28363D01*
X429965Y28457D01*
X429990Y28550D01*
X430018Y28642D01*
X430050Y28732D01*
X430086Y28822D01*
X430125Y28910D01*
X430168Y28996D01*
X430214Y29080D01*
X430263Y29162D01*
X430316Y29243D01*
X430372Y29321D01*
X430431Y29397D01*
X430493Y29470D01*
X430557Y29541D01*
X430625Y29610D01*
X430695Y29675D01*
X430768Y29738D01*
X430844Y29798D01*
X430921Y29854D01*
X431001Y29908D01*
X431083Y29958D01*
X431167Y30005D01*
X431252Y30049D01*
X431340Y30089D01*
X431429Y30125D01*
X431519Y30158D01*
X431726Y30257D01*
X431937Y30350D01*
X432149Y30438D01*
X432363Y30521D01*
X432579Y30599D01*
X432797Y30672D01*
X433017Y30740D01*
X433238Y30802D01*
X433461Y30859D01*
X433685Y30911D01*
X433910Y30957D01*
X434136Y30998D01*
X434363Y31033D01*
X434591Y31063D01*
X434820Y31088D01*
X435049Y31107D01*
X435278Y31121D01*
X435508Y31129D01*
X435738Y31132D01*
X435738Y24640D02*
X435968Y24643D01*
X436198Y24651D01*
X436427Y24665D01*
X436656Y24684D01*
X436885Y24709D01*
X437113Y24739D01*
X437340Y24774D01*
X437566Y24815D01*
X437791Y24861D01*
X438015Y24913D01*
X438238Y24970D01*
X438459Y25032D01*
X438679Y25100D01*
X438897Y25173D01*
X439113Y25251D01*
X439327Y25334D01*
X439539Y25422D01*
X439750Y25515D01*
X439957Y25614D01*
X440047Y25647D01*
X440136Y25683D01*
X440224Y25724D01*
X440309Y25767D01*
X440393Y25814D01*
X440475Y25864D01*
X440555Y25918D01*
X440632Y25974D01*
X440708Y26034D01*
X440781Y26097D01*
X440851Y26162D01*
X440919Y26231D01*
X440983Y26302D01*
X441045Y26375D01*
X441104Y26451D01*
X441160Y26529D01*
X441213Y26610D01*
X441262Y26692D01*
X441308Y26776D01*
X441351Y26863D01*
X441390Y26950D01*
X441426Y27040D01*
X441458Y27130D01*
X441486Y27222D01*
X441511Y27315D01*
X441532Y27409D01*
X441549Y27503D01*
X441563Y27598D01*
X441572Y27694D01*
X441578Y27790D01*
X441580Y27886D01*
X439957Y30158D02*
X439750Y30257D01*
X439539Y30350D01*
X439327Y30438D01*
X439113Y30521D01*
X438897Y30599D01*
X438679Y30672D01*
X438459Y30740D01*
X438238Y30802D01*
X438015Y30859D01*
X437791Y30911D01*
X437566Y30957D01*
X437340Y30998D01*
X437113Y31033D01*
X436885Y31063D01*
X436656Y31088D01*
X436427Y31107D01*
X436198Y31121D01*
X435968Y31129D01*
X435738Y31132D01*
X439957Y30158D02*
X440047Y30125D01*
X440136Y30089D01*
X440224Y30049D01*
X440309Y30005D01*
X440393Y29958D01*
X440475Y29908D01*
X440555Y29854D01*
X440632Y29798D01*
X440708Y29738D01*
X440781Y29675D01*
X440851Y29610D01*
X440919Y29541D01*
X440983Y29470D01*
X441045Y29397D01*
X441104Y29321D01*
X441160Y29243D01*
X441213Y29162D01*
X441262Y29080D01*
X441308Y28996D01*
X441351Y28909D01*
X441390Y28822D01*
X441426Y28732D01*
X441458Y28642D01*
X441486Y28550D01*
X441511Y28457D01*
X441532Y28363D01*
X441549Y28269D01*
X441563Y28174D01*
X441572Y28078D01*
X441578Y27982D01*
X441580Y27886D01*
X438984Y25290D02*
X432493Y30483D01*
X381559Y184331D02*
X369875Y184331D01*
X369875Y187576D01*
X369877Y187689D01*
X369883Y187802D01*
X369893Y187915D01*
X369907Y188028D01*
X369924Y188140D01*
X369946Y188251D01*
X369971Y188361D01*
X370001Y188471D01*
X370034Y188579D01*
X370071Y188686D01*
X370111Y188792D01*
X370156Y188896D01*
X370204Y188999D01*
X370255Y189100D01*
X370310Y189199D01*
X370368Y189296D01*
X370430Y189391D01*
X370495Y189484D01*
X370563Y189574D01*
X370634Y189662D01*
X370709Y189748D01*
X370786Y189831D01*
X370866Y189911D01*
X370949Y189988D01*
X371035Y190063D01*
X371123Y190134D01*
X371213Y190202D01*
X371306Y190267D01*
X371401Y190329D01*
X371498Y190387D01*
X371597Y190442D01*
X371698Y190493D01*
X371801Y190541D01*
X371905Y190586D01*
X372011Y190626D01*
X372118Y190663D01*
X372226Y190696D01*
X372336Y190726D01*
X372446Y190751D01*
X372557Y190773D01*
X372669Y190790D01*
X372782Y190804D01*
X372895Y190814D01*
X373008Y190820D01*
X373121Y190822D01*
X373234Y190820D01*
X373347Y190814D01*
X373460Y190804D01*
X373573Y190790D01*
X373685Y190773D01*
X373796Y190751D01*
X373906Y190726D01*
X374016Y190696D01*
X374124Y190663D01*
X374231Y190626D01*
X374337Y190586D01*
X374441Y190541D01*
X374544Y190493D01*
X374645Y190442D01*
X374744Y190387D01*
X374841Y190329D01*
X374936Y190267D01*
X375029Y190202D01*
X375119Y190134D01*
X375207Y190063D01*
X375293Y189988D01*
X375376Y189911D01*
X375456Y189831D01*
X375533Y189748D01*
X375608Y189662D01*
X375679Y189574D01*
X375747Y189484D01*
X375812Y189391D01*
X375874Y189296D01*
X375932Y189199D01*
X375987Y189100D01*
X376038Y188999D01*
X376086Y188896D01*
X376131Y188792D01*
X376171Y188686D01*
X376208Y188579D01*
X376241Y188471D01*
X376271Y188361D01*
X376296Y188251D01*
X376318Y188140D01*
X376335Y188028D01*
X376349Y187915D01*
X376359Y187802D01*
X376365Y187689D01*
X376367Y187576D01*
X376366Y187576D02*
X376366Y184331D01*
X376366Y188225D02*
X381559Y190822D01*
X372796Y202178D02*
X372689Y202176D01*
X372583Y202170D01*
X372477Y202160D01*
X372371Y202147D01*
X372265Y202129D01*
X372161Y202108D01*
X372057Y202083D01*
X371954Y202054D01*
X371853Y202022D01*
X371753Y201985D01*
X371654Y201945D01*
X371556Y201902D01*
X371460Y201855D01*
X371366Y201804D01*
X371274Y201750D01*
X371184Y201693D01*
X371096Y201633D01*
X371011Y201569D01*
X370928Y201502D01*
X370847Y201432D01*
X370769Y201360D01*
X370693Y201284D01*
X370621Y201206D01*
X370551Y201125D01*
X370484Y201042D01*
X370420Y200957D01*
X370360Y200869D01*
X370303Y200779D01*
X370249Y200687D01*
X370198Y200593D01*
X370151Y200497D01*
X370108Y200399D01*
X370068Y200300D01*
X370031Y200200D01*
X369999Y200099D01*
X369970Y199996D01*
X369945Y199892D01*
X369924Y199788D01*
X369906Y199682D01*
X369893Y199576D01*
X369883Y199470D01*
X369877Y199364D01*
X369875Y199257D01*
X369877Y199136D01*
X369883Y199015D01*
X369893Y198895D01*
X369906Y198774D01*
X369924Y198655D01*
X369945Y198535D01*
X369970Y198417D01*
X369999Y198300D01*
X370032Y198183D01*
X370068Y198068D01*
X370109Y197954D01*
X370152Y197841D01*
X370200Y197729D01*
X370251Y197620D01*
X370306Y197512D01*
X370364Y197405D01*
X370425Y197301D01*
X370490Y197199D01*
X370558Y197099D01*
X370629Y197001D01*
X370703Y196905D01*
X370780Y196812D01*
X370861Y196722D01*
X370944Y196634D01*
X371030Y196549D01*
X371119Y196466D01*
X371210Y196387D01*
X371304Y196310D01*
X371400Y196237D01*
X371498Y196167D01*
X371599Y196100D01*
X371702Y196036D01*
X371807Y195976D01*
X371914Y195918D01*
X372022Y195865D01*
X372132Y195815D01*
X372244Y195769D01*
X372357Y195726D01*
X372472Y195687D01*
X375068Y201204D02*
X374990Y201283D01*
X374910Y201359D01*
X374827Y201432D01*
X374741Y201502D01*
X374654Y201569D01*
X374563Y201633D01*
X374471Y201693D01*
X374377Y201751D01*
X374280Y201805D01*
X374182Y201855D01*
X374082Y201902D01*
X373981Y201946D01*
X373878Y201986D01*
X373773Y202022D01*
X373668Y202054D01*
X373561Y202083D01*
X373454Y202108D01*
X373345Y202130D01*
X373236Y202147D01*
X373127Y202161D01*
X373017Y202170D01*
X372906Y202176D01*
X372796Y202178D01*
X375068Y201204D02*
X381559Y195687D01*
X381559Y202178D01*
X372471Y207117D02*
X369875Y210362D01*
X381559Y210362D01*
X381559Y207117D02*
X381559Y213608D01*
X406683Y218001D02*
X418367Y218001D01*
X406683Y218001D02*
X406683Y221246D01*
X406685Y221359D01*
X406691Y221472D01*
X406701Y221585D01*
X406715Y221698D01*
X406732Y221810D01*
X406754Y221921D01*
X406779Y222031D01*
X406809Y222141D01*
X406842Y222249D01*
X406879Y222356D01*
X406919Y222462D01*
X406964Y222566D01*
X407012Y222669D01*
X407063Y222770D01*
X407118Y222869D01*
X407176Y222966D01*
X407238Y223061D01*
X407303Y223154D01*
X407371Y223244D01*
X407442Y223332D01*
X407517Y223418D01*
X407594Y223501D01*
X407674Y223581D01*
X407757Y223658D01*
X407843Y223733D01*
X407931Y223804D01*
X408021Y223872D01*
X408114Y223937D01*
X408209Y223999D01*
X408306Y224057D01*
X408405Y224112D01*
X408506Y224163D01*
X408609Y224211D01*
X408713Y224256D01*
X408819Y224296D01*
X408926Y224333D01*
X409034Y224366D01*
X409144Y224396D01*
X409254Y224421D01*
X409365Y224443D01*
X409477Y224460D01*
X409590Y224474D01*
X409703Y224484D01*
X409816Y224490D01*
X409929Y224492D01*
X410042Y224490D01*
X410155Y224484D01*
X410268Y224474D01*
X410381Y224460D01*
X410493Y224443D01*
X410604Y224421D01*
X410714Y224396D01*
X410824Y224366D01*
X410932Y224333D01*
X411039Y224296D01*
X411145Y224256D01*
X411249Y224211D01*
X411352Y224163D01*
X411453Y224112D01*
X411552Y224057D01*
X411649Y223999D01*
X411744Y223937D01*
X411837Y223872D01*
X411927Y223804D01*
X412015Y223733D01*
X412101Y223658D01*
X412184Y223581D01*
X412264Y223501D01*
X412341Y223418D01*
X412416Y223332D01*
X412487Y223244D01*
X412555Y223154D01*
X412620Y223061D01*
X412682Y222966D01*
X412740Y222869D01*
X412795Y222770D01*
X412846Y222669D01*
X412894Y222566D01*
X412939Y222462D01*
X412979Y222356D01*
X413016Y222249D01*
X413049Y222141D01*
X413079Y222031D01*
X413104Y221921D01*
X413126Y221810D01*
X413143Y221698D01*
X413157Y221585D01*
X413167Y221472D01*
X413173Y221359D01*
X413175Y221246D01*
X413174Y221246D02*
X413174Y218001D01*
X413174Y221895D02*
X418367Y224492D01*
X409604Y235848D02*
X409497Y235846D01*
X409391Y235840D01*
X409285Y235830D01*
X409179Y235817D01*
X409073Y235799D01*
X408969Y235778D01*
X408865Y235753D01*
X408762Y235724D01*
X408661Y235692D01*
X408561Y235655D01*
X408462Y235615D01*
X408364Y235572D01*
X408268Y235525D01*
X408174Y235474D01*
X408082Y235420D01*
X407992Y235363D01*
X407904Y235303D01*
X407819Y235239D01*
X407736Y235172D01*
X407655Y235102D01*
X407577Y235030D01*
X407501Y234954D01*
X407429Y234876D01*
X407359Y234795D01*
X407292Y234712D01*
X407228Y234627D01*
X407168Y234539D01*
X407111Y234449D01*
X407057Y234357D01*
X407006Y234263D01*
X406959Y234167D01*
X406916Y234069D01*
X406876Y233970D01*
X406839Y233870D01*
X406807Y233769D01*
X406778Y233666D01*
X406753Y233562D01*
X406732Y233458D01*
X406714Y233352D01*
X406701Y233246D01*
X406691Y233140D01*
X406685Y233034D01*
X406683Y232927D01*
X406685Y232806D01*
X406691Y232685D01*
X406701Y232565D01*
X406714Y232444D01*
X406732Y232325D01*
X406753Y232205D01*
X406778Y232087D01*
X406807Y231970D01*
X406840Y231853D01*
X406876Y231738D01*
X406917Y231624D01*
X406960Y231511D01*
X407008Y231399D01*
X407059Y231290D01*
X407114Y231182D01*
X407172Y231075D01*
X407233Y230971D01*
X407298Y230869D01*
X407366Y230769D01*
X407437Y230671D01*
X407511Y230575D01*
X407588Y230482D01*
X407669Y230392D01*
X407752Y230304D01*
X407838Y230219D01*
X407927Y230136D01*
X408018Y230057D01*
X408112Y229980D01*
X408208Y229907D01*
X408306Y229837D01*
X408407Y229770D01*
X408510Y229706D01*
X408615Y229646D01*
X408722Y229588D01*
X408830Y229535D01*
X408940Y229485D01*
X409052Y229439D01*
X409165Y229396D01*
X409280Y229357D01*
X411876Y234874D02*
X411798Y234953D01*
X411718Y235029D01*
X411635Y235102D01*
X411549Y235172D01*
X411462Y235239D01*
X411371Y235303D01*
X411279Y235363D01*
X411185Y235421D01*
X411088Y235475D01*
X410990Y235525D01*
X410890Y235572D01*
X410789Y235616D01*
X410686Y235656D01*
X410581Y235692D01*
X410476Y235724D01*
X410369Y235753D01*
X410262Y235778D01*
X410153Y235800D01*
X410044Y235817D01*
X409935Y235831D01*
X409825Y235840D01*
X409714Y235846D01*
X409604Y235848D01*
X411876Y234875D02*
X418367Y229357D01*
X418367Y235848D01*
X409604Y247278D02*
X409497Y247276D01*
X409391Y247270D01*
X409285Y247260D01*
X409179Y247247D01*
X409073Y247229D01*
X408969Y247208D01*
X408865Y247183D01*
X408762Y247154D01*
X408661Y247122D01*
X408561Y247085D01*
X408462Y247045D01*
X408364Y247002D01*
X408268Y246955D01*
X408174Y246904D01*
X408082Y246850D01*
X407992Y246793D01*
X407904Y246733D01*
X407819Y246669D01*
X407736Y246602D01*
X407655Y246532D01*
X407577Y246460D01*
X407501Y246384D01*
X407429Y246306D01*
X407359Y246225D01*
X407292Y246142D01*
X407228Y246057D01*
X407168Y245969D01*
X407111Y245879D01*
X407057Y245787D01*
X407006Y245693D01*
X406959Y245597D01*
X406916Y245499D01*
X406876Y245400D01*
X406839Y245300D01*
X406807Y245199D01*
X406778Y245096D01*
X406753Y244992D01*
X406732Y244888D01*
X406714Y244782D01*
X406701Y244676D01*
X406691Y244570D01*
X406685Y244464D01*
X406683Y244357D01*
X406685Y244236D01*
X406691Y244115D01*
X406701Y243995D01*
X406714Y243874D01*
X406732Y243755D01*
X406753Y243635D01*
X406778Y243517D01*
X406807Y243400D01*
X406840Y243283D01*
X406876Y243168D01*
X406917Y243054D01*
X406960Y242941D01*
X407008Y242829D01*
X407059Y242720D01*
X407114Y242612D01*
X407172Y242505D01*
X407233Y242401D01*
X407298Y242299D01*
X407366Y242199D01*
X407437Y242101D01*
X407511Y242005D01*
X407588Y241912D01*
X407669Y241822D01*
X407752Y241734D01*
X407838Y241649D01*
X407927Y241566D01*
X408018Y241487D01*
X408112Y241410D01*
X408208Y241337D01*
X408306Y241267D01*
X408407Y241200D01*
X408510Y241136D01*
X408615Y241076D01*
X408722Y241018D01*
X408830Y240965D01*
X408940Y240915D01*
X409052Y240869D01*
X409165Y240826D01*
X409280Y240787D01*
X411876Y246304D02*
X411798Y246383D01*
X411718Y246459D01*
X411635Y246532D01*
X411549Y246602D01*
X411462Y246669D01*
X411371Y246733D01*
X411279Y246793D01*
X411185Y246851D01*
X411088Y246905D01*
X410990Y246955D01*
X410890Y247002D01*
X410789Y247046D01*
X410686Y247086D01*
X410581Y247122D01*
X410476Y247154D01*
X410369Y247183D01*
X410262Y247208D01*
X410153Y247230D01*
X410044Y247247D01*
X409935Y247261D01*
X409825Y247270D01*
X409714Y247276D01*
X409604Y247278D01*
X411876Y246305D02*
X418367Y240787D01*
X418367Y247278D01*
X388654Y30184D02*
X376970Y30184D01*
X376970Y33430D01*
X376972Y33543D01*
X376978Y33656D01*
X376988Y33769D01*
X377002Y33882D01*
X377019Y33994D01*
X377041Y34105D01*
X377066Y34215D01*
X377096Y34325D01*
X377129Y34433D01*
X377166Y34540D01*
X377206Y34646D01*
X377251Y34750D01*
X377299Y34853D01*
X377350Y34954D01*
X377405Y35053D01*
X377463Y35150D01*
X377525Y35245D01*
X377590Y35338D01*
X377658Y35428D01*
X377729Y35516D01*
X377804Y35602D01*
X377881Y35685D01*
X377961Y35765D01*
X378044Y35842D01*
X378130Y35917D01*
X378218Y35988D01*
X378308Y36056D01*
X378401Y36121D01*
X378496Y36183D01*
X378593Y36241D01*
X378692Y36296D01*
X378793Y36347D01*
X378896Y36395D01*
X379000Y36440D01*
X379106Y36480D01*
X379213Y36517D01*
X379321Y36550D01*
X379431Y36580D01*
X379541Y36605D01*
X379652Y36627D01*
X379764Y36644D01*
X379877Y36658D01*
X379990Y36668D01*
X380103Y36674D01*
X380216Y36676D01*
X380329Y36674D01*
X380442Y36668D01*
X380555Y36658D01*
X380668Y36644D01*
X380780Y36627D01*
X380891Y36605D01*
X381001Y36580D01*
X381111Y36550D01*
X381219Y36517D01*
X381326Y36480D01*
X381432Y36440D01*
X381536Y36395D01*
X381639Y36347D01*
X381740Y36296D01*
X381839Y36241D01*
X381936Y36183D01*
X382031Y36121D01*
X382124Y36056D01*
X382214Y35988D01*
X382302Y35917D01*
X382388Y35842D01*
X382471Y35765D01*
X382551Y35685D01*
X382628Y35602D01*
X382703Y35516D01*
X382774Y35428D01*
X382842Y35338D01*
X382907Y35245D01*
X382969Y35150D01*
X383027Y35053D01*
X383082Y34954D01*
X383133Y34853D01*
X383181Y34750D01*
X383226Y34646D01*
X383266Y34540D01*
X383303Y34433D01*
X383336Y34325D01*
X383366Y34215D01*
X383391Y34105D01*
X383413Y33994D01*
X383430Y33882D01*
X383444Y33769D01*
X383454Y33656D01*
X383460Y33543D01*
X383462Y33430D01*
X383462Y30184D01*
X383462Y34079D02*
X388654Y36676D01*
X379891Y48032D02*
X379784Y48030D01*
X379678Y48024D01*
X379572Y48014D01*
X379466Y48001D01*
X379360Y47983D01*
X379256Y47962D01*
X379152Y47937D01*
X379049Y47908D01*
X378948Y47876D01*
X378848Y47839D01*
X378749Y47799D01*
X378651Y47756D01*
X378555Y47709D01*
X378461Y47658D01*
X378369Y47604D01*
X378279Y47547D01*
X378191Y47487D01*
X378106Y47423D01*
X378023Y47356D01*
X377942Y47286D01*
X377864Y47214D01*
X377788Y47138D01*
X377716Y47060D01*
X377646Y46979D01*
X377579Y46896D01*
X377515Y46811D01*
X377455Y46723D01*
X377398Y46633D01*
X377344Y46541D01*
X377293Y46447D01*
X377246Y46351D01*
X377203Y46253D01*
X377163Y46154D01*
X377126Y46054D01*
X377094Y45953D01*
X377065Y45850D01*
X377040Y45746D01*
X377019Y45642D01*
X377001Y45536D01*
X376988Y45430D01*
X376978Y45324D01*
X376972Y45218D01*
X376970Y45111D01*
X376972Y44990D01*
X376978Y44869D01*
X376988Y44749D01*
X377001Y44628D01*
X377019Y44509D01*
X377040Y44389D01*
X377065Y44271D01*
X377094Y44154D01*
X377127Y44037D01*
X377163Y43922D01*
X377204Y43808D01*
X377247Y43695D01*
X377295Y43583D01*
X377346Y43474D01*
X377401Y43366D01*
X377459Y43259D01*
X377520Y43155D01*
X377585Y43053D01*
X377653Y42953D01*
X377724Y42855D01*
X377798Y42759D01*
X377875Y42666D01*
X377956Y42576D01*
X378039Y42488D01*
X378125Y42403D01*
X378214Y42320D01*
X378305Y42241D01*
X378399Y42164D01*
X378495Y42091D01*
X378593Y42021D01*
X378694Y41954D01*
X378797Y41890D01*
X378902Y41830D01*
X379009Y41772D01*
X379117Y41719D01*
X379227Y41669D01*
X379339Y41623D01*
X379452Y41580D01*
X379567Y41541D01*
X382163Y47058D02*
X382085Y47137D01*
X382005Y47213D01*
X381922Y47286D01*
X381836Y47356D01*
X381749Y47423D01*
X381658Y47487D01*
X381566Y47547D01*
X381472Y47605D01*
X381375Y47659D01*
X381277Y47709D01*
X381177Y47756D01*
X381076Y47800D01*
X380973Y47840D01*
X380868Y47876D01*
X380763Y47908D01*
X380656Y47937D01*
X380549Y47962D01*
X380440Y47984D01*
X380331Y48001D01*
X380222Y48015D01*
X380112Y48024D01*
X380001Y48030D01*
X379891Y48032D01*
X382163Y47058D02*
X388654Y41541D01*
X388654Y48032D01*
X388654Y52971D02*
X388654Y56216D01*
X388655Y56216D02*
X388653Y56329D01*
X388647Y56442D01*
X388637Y56555D01*
X388623Y56668D01*
X388606Y56780D01*
X388584Y56891D01*
X388559Y57001D01*
X388529Y57111D01*
X388496Y57219D01*
X388459Y57326D01*
X388419Y57432D01*
X388374Y57536D01*
X388326Y57639D01*
X388275Y57740D01*
X388220Y57839D01*
X388162Y57936D01*
X388100Y58031D01*
X388035Y58124D01*
X387967Y58214D01*
X387896Y58302D01*
X387821Y58388D01*
X387744Y58471D01*
X387664Y58551D01*
X387581Y58628D01*
X387495Y58703D01*
X387407Y58774D01*
X387317Y58842D01*
X387224Y58907D01*
X387129Y58969D01*
X387032Y59027D01*
X386933Y59082D01*
X386832Y59133D01*
X386729Y59181D01*
X386625Y59226D01*
X386519Y59266D01*
X386412Y59303D01*
X386304Y59336D01*
X386194Y59366D01*
X386084Y59391D01*
X385973Y59413D01*
X385861Y59430D01*
X385748Y59444D01*
X385635Y59454D01*
X385522Y59460D01*
X385409Y59462D01*
X385296Y59460D01*
X385183Y59454D01*
X385070Y59444D01*
X384957Y59430D01*
X384845Y59413D01*
X384734Y59391D01*
X384624Y59366D01*
X384514Y59336D01*
X384406Y59303D01*
X384299Y59266D01*
X384193Y59226D01*
X384089Y59181D01*
X383986Y59133D01*
X383885Y59082D01*
X383786Y59027D01*
X383689Y58969D01*
X383594Y58907D01*
X383501Y58842D01*
X383411Y58774D01*
X383323Y58703D01*
X383237Y58628D01*
X383154Y58551D01*
X383074Y58471D01*
X382997Y58388D01*
X382922Y58302D01*
X382851Y58214D01*
X382783Y58124D01*
X382718Y58031D01*
X382656Y57936D01*
X382598Y57839D01*
X382543Y57740D01*
X382492Y57639D01*
X382444Y57536D01*
X382399Y57432D01*
X382359Y57326D01*
X382322Y57219D01*
X382289Y57111D01*
X382259Y57001D01*
X382234Y56891D01*
X382212Y56780D01*
X382195Y56668D01*
X382181Y56555D01*
X382171Y56442D01*
X382165Y56329D01*
X382163Y56216D01*
X376970Y56865D02*
X376970Y52971D01*
X376971Y56865D02*
X376973Y56966D01*
X376979Y57066D01*
X376989Y57166D01*
X377002Y57266D01*
X377020Y57365D01*
X377041Y57464D01*
X377066Y57561D01*
X377095Y57658D01*
X377128Y57753D01*
X377164Y57847D01*
X377204Y57939D01*
X377247Y58030D01*
X377294Y58119D01*
X377344Y58206D01*
X377398Y58292D01*
X377455Y58375D01*
X377515Y58455D01*
X377578Y58534D01*
X377645Y58610D01*
X377714Y58683D01*
X377786Y58753D01*
X377860Y58821D01*
X377937Y58886D01*
X378017Y58947D01*
X378099Y59006D01*
X378183Y59061D01*
X378269Y59113D01*
X378357Y59162D01*
X378447Y59207D01*
X378539Y59249D01*
X378632Y59287D01*
X378727Y59321D01*
X378822Y59352D01*
X378919Y59379D01*
X379017Y59402D01*
X379116Y59422D01*
X379216Y59437D01*
X379316Y59449D01*
X379416Y59457D01*
X379517Y59461D01*
X379617Y59461D01*
X379718Y59457D01*
X379818Y59449D01*
X379918Y59437D01*
X380018Y59422D01*
X380117Y59402D01*
X380215Y59379D01*
X380312Y59352D01*
X380407Y59321D01*
X380502Y59287D01*
X380595Y59249D01*
X380687Y59207D01*
X380777Y59162D01*
X380865Y59113D01*
X380951Y59061D01*
X381035Y59006D01*
X381117Y58947D01*
X381197Y58886D01*
X381274Y58821D01*
X381348Y58753D01*
X381420Y58683D01*
X381489Y58610D01*
X381556Y58534D01*
X381619Y58455D01*
X381679Y58375D01*
X381736Y58292D01*
X381790Y58206D01*
X381840Y58119D01*
X381887Y58030D01*
X381930Y57939D01*
X381970Y57847D01*
X382006Y57753D01*
X382039Y57658D01*
X382068Y57561D01*
X382093Y57464D01*
X382114Y57365D01*
X382132Y57266D01*
X382145Y57166D01*
X382155Y57066D01*
X382161Y56966D01*
X382163Y56865D01*
X382163Y54269D01*
X376579Y97471D02*
X388263Y97471D01*
X376579Y97471D02*
X376579Y100716D01*
X376581Y100829D01*
X376587Y100942D01*
X376597Y101055D01*
X376611Y101168D01*
X376628Y101280D01*
X376650Y101391D01*
X376675Y101501D01*
X376705Y101611D01*
X376738Y101719D01*
X376775Y101826D01*
X376815Y101932D01*
X376860Y102036D01*
X376908Y102139D01*
X376959Y102240D01*
X377014Y102339D01*
X377072Y102436D01*
X377134Y102531D01*
X377199Y102624D01*
X377267Y102714D01*
X377338Y102802D01*
X377413Y102888D01*
X377490Y102971D01*
X377570Y103051D01*
X377653Y103128D01*
X377739Y103203D01*
X377827Y103274D01*
X377917Y103342D01*
X378010Y103407D01*
X378105Y103469D01*
X378202Y103527D01*
X378301Y103582D01*
X378402Y103633D01*
X378505Y103681D01*
X378609Y103726D01*
X378715Y103766D01*
X378822Y103803D01*
X378930Y103836D01*
X379040Y103866D01*
X379150Y103891D01*
X379261Y103913D01*
X379373Y103930D01*
X379486Y103944D01*
X379599Y103954D01*
X379712Y103960D01*
X379825Y103962D01*
X379938Y103960D01*
X380051Y103954D01*
X380164Y103944D01*
X380277Y103930D01*
X380389Y103913D01*
X380500Y103891D01*
X380610Y103866D01*
X380720Y103836D01*
X380828Y103803D01*
X380935Y103766D01*
X381041Y103726D01*
X381145Y103681D01*
X381248Y103633D01*
X381349Y103582D01*
X381448Y103527D01*
X381545Y103469D01*
X381640Y103407D01*
X381733Y103342D01*
X381823Y103274D01*
X381911Y103203D01*
X381997Y103128D01*
X382080Y103051D01*
X382160Y102971D01*
X382237Y102888D01*
X382312Y102802D01*
X382383Y102714D01*
X382451Y102624D01*
X382516Y102531D01*
X382578Y102436D01*
X382636Y102339D01*
X382691Y102240D01*
X382742Y102139D01*
X382790Y102036D01*
X382835Y101932D01*
X382875Y101826D01*
X382912Y101719D01*
X382945Y101611D01*
X382975Y101501D01*
X383000Y101391D01*
X383022Y101280D01*
X383039Y101168D01*
X383053Y101055D01*
X383063Y100942D01*
X383069Y100829D01*
X383071Y100716D01*
X383070Y100716D02*
X383070Y97471D01*
X383070Y101365D02*
X388263Y103962D01*
X379500Y115318D02*
X379393Y115316D01*
X379287Y115310D01*
X379181Y115300D01*
X379075Y115287D01*
X378969Y115269D01*
X378865Y115248D01*
X378761Y115223D01*
X378658Y115194D01*
X378557Y115162D01*
X378457Y115125D01*
X378358Y115085D01*
X378260Y115042D01*
X378164Y114995D01*
X378070Y114944D01*
X377978Y114890D01*
X377888Y114833D01*
X377800Y114773D01*
X377715Y114709D01*
X377632Y114642D01*
X377551Y114572D01*
X377473Y114500D01*
X377397Y114424D01*
X377325Y114346D01*
X377255Y114265D01*
X377188Y114182D01*
X377124Y114097D01*
X377064Y114009D01*
X377007Y113919D01*
X376953Y113827D01*
X376902Y113733D01*
X376855Y113637D01*
X376812Y113539D01*
X376772Y113440D01*
X376735Y113340D01*
X376703Y113239D01*
X376674Y113136D01*
X376649Y113032D01*
X376628Y112928D01*
X376610Y112822D01*
X376597Y112716D01*
X376587Y112610D01*
X376581Y112504D01*
X376579Y112397D01*
X376581Y112276D01*
X376587Y112155D01*
X376597Y112035D01*
X376610Y111914D01*
X376628Y111795D01*
X376649Y111675D01*
X376674Y111557D01*
X376703Y111440D01*
X376736Y111323D01*
X376772Y111208D01*
X376813Y111094D01*
X376856Y110981D01*
X376904Y110869D01*
X376955Y110760D01*
X377010Y110652D01*
X377068Y110545D01*
X377129Y110441D01*
X377194Y110339D01*
X377262Y110239D01*
X377333Y110141D01*
X377407Y110045D01*
X377484Y109952D01*
X377565Y109862D01*
X377648Y109774D01*
X377734Y109689D01*
X377823Y109606D01*
X377914Y109527D01*
X378008Y109450D01*
X378104Y109377D01*
X378202Y109307D01*
X378303Y109240D01*
X378406Y109176D01*
X378511Y109116D01*
X378618Y109058D01*
X378726Y109005D01*
X378836Y108955D01*
X378948Y108909D01*
X379061Y108866D01*
X379176Y108827D01*
X381772Y114344D02*
X381694Y114423D01*
X381614Y114499D01*
X381531Y114572D01*
X381445Y114642D01*
X381358Y114709D01*
X381267Y114773D01*
X381175Y114833D01*
X381081Y114891D01*
X380984Y114945D01*
X380886Y114995D01*
X380786Y115042D01*
X380685Y115086D01*
X380582Y115126D01*
X380477Y115162D01*
X380372Y115194D01*
X380265Y115223D01*
X380158Y115248D01*
X380049Y115270D01*
X379940Y115287D01*
X379831Y115301D01*
X379721Y115310D01*
X379610Y115316D01*
X379500Y115318D01*
X381772Y114344D02*
X388263Y108827D01*
X388263Y115318D01*
X385667Y120257D02*
X376579Y122853D01*
X385667Y120257D02*
X385667Y126748D01*
X383070Y124801D02*
X388263Y124801D01*
D11*
X491084Y477799D02*
X491084Y486799D01*
X651084Y486799D01*
X651084Y477799D01*
X491084Y323799D02*
X491084Y314799D01*
X651084Y314799D01*
X651084Y323799D01*
D12*
X476084Y481799D02*
X476086Y481862D01*
X476092Y481924D01*
X476102Y481986D01*
X476115Y482048D01*
X476133Y482108D01*
X476154Y482167D01*
X476179Y482225D01*
X476208Y482281D01*
X476240Y482335D01*
X476275Y482387D01*
X476313Y482436D01*
X476355Y482484D01*
X476399Y482528D01*
X476447Y482570D01*
X476496Y482608D01*
X476548Y482643D01*
X476602Y482675D01*
X476658Y482704D01*
X476716Y482729D01*
X476775Y482750D01*
X476835Y482768D01*
X476897Y482781D01*
X476959Y482791D01*
X477021Y482797D01*
X477084Y482799D01*
X477147Y482797D01*
X477209Y482791D01*
X477271Y482781D01*
X477333Y482768D01*
X477393Y482750D01*
X477452Y482729D01*
X477510Y482704D01*
X477566Y482675D01*
X477620Y482643D01*
X477672Y482608D01*
X477721Y482570D01*
X477769Y482528D01*
X477813Y482484D01*
X477855Y482436D01*
X477893Y482387D01*
X477928Y482335D01*
X477960Y482281D01*
X477989Y482225D01*
X478014Y482167D01*
X478035Y482108D01*
X478053Y482048D01*
X478066Y481986D01*
X478076Y481924D01*
X478082Y481862D01*
X478084Y481799D01*
X478082Y481736D01*
X478076Y481674D01*
X478066Y481612D01*
X478053Y481550D01*
X478035Y481490D01*
X478014Y481431D01*
X477989Y481373D01*
X477960Y481317D01*
X477928Y481263D01*
X477893Y481211D01*
X477855Y481162D01*
X477813Y481114D01*
X477769Y481070D01*
X477721Y481028D01*
X477672Y480990D01*
X477620Y480955D01*
X477566Y480923D01*
X477510Y480894D01*
X477452Y480869D01*
X477393Y480848D01*
X477333Y480830D01*
X477271Y480817D01*
X477209Y480807D01*
X477147Y480801D01*
X477084Y480799D01*
X477021Y480801D01*
X476959Y480807D01*
X476897Y480817D01*
X476835Y480830D01*
X476775Y480848D01*
X476716Y480869D01*
X476658Y480894D01*
X476602Y480923D01*
X476548Y480955D01*
X476496Y480990D01*
X476447Y481028D01*
X476399Y481070D01*
X476355Y481114D01*
X476313Y481162D01*
X476275Y481211D01*
X476240Y481263D01*
X476208Y481317D01*
X476179Y481373D01*
X476154Y481431D01*
X476133Y481490D01*
X476115Y481550D01*
X476102Y481612D01*
X476092Y481674D01*
X476086Y481736D01*
X476084Y481799D01*
D13*
X489924Y502286D02*
X489924Y514049D01*
X489924Y502286D02*
X489926Y502153D01*
X489932Y502020D01*
X489942Y501888D01*
X489955Y501756D01*
X489973Y501624D01*
X489994Y501493D01*
X490019Y501363D01*
X490048Y501233D01*
X490081Y501104D01*
X490118Y500977D01*
X490158Y500850D01*
X490202Y500725D01*
X490250Y500601D01*
X490301Y500478D01*
X490356Y500357D01*
X490414Y500238D01*
X490476Y500121D01*
X490541Y500005D01*
X490610Y499891D01*
X490682Y499780D01*
X490757Y499670D01*
X490835Y499563D01*
X490917Y499458D01*
X491001Y499355D01*
X491089Y499256D01*
X491179Y499158D01*
X491273Y499064D01*
X491369Y498972D01*
X491467Y498883D01*
X491568Y498797D01*
X491672Y498714D01*
X491778Y498634D01*
X491886Y498557D01*
X491997Y498483D01*
X492110Y498413D01*
X492224Y498346D01*
X492341Y498283D01*
X492460Y498222D01*
X492580Y498166D01*
X492701Y498113D01*
X492825Y498063D01*
X492949Y498017D01*
X493075Y497975D01*
X493202Y497937D01*
X493331Y497902D01*
X493460Y497871D01*
X493590Y497844D01*
X493721Y497821D01*
X493852Y497801D01*
X493984Y497786D01*
X494116Y497774D01*
X494249Y497766D01*
X494382Y497762D01*
X494514Y497762D01*
X494647Y497766D01*
X494780Y497774D01*
X494912Y497786D01*
X495044Y497801D01*
X495175Y497821D01*
X495306Y497844D01*
X495436Y497871D01*
X495565Y497902D01*
X495694Y497937D01*
X495821Y497975D01*
X495947Y498017D01*
X496071Y498063D01*
X496195Y498113D01*
X496316Y498166D01*
X496436Y498222D01*
X496555Y498283D01*
X496672Y498346D01*
X496786Y498413D01*
X496899Y498483D01*
X497010Y498557D01*
X497118Y498634D01*
X497224Y498714D01*
X497328Y498797D01*
X497429Y498883D01*
X497527Y498972D01*
X497623Y499064D01*
X497717Y499158D01*
X497807Y499256D01*
X497895Y499355D01*
X497979Y499458D01*
X498061Y499563D01*
X498139Y499670D01*
X498214Y499780D01*
X498286Y499891D01*
X498355Y500005D01*
X498420Y500121D01*
X498482Y500238D01*
X498540Y500357D01*
X498595Y500478D01*
X498646Y500601D01*
X498694Y500725D01*
X498738Y500850D01*
X498778Y500977D01*
X498815Y501104D01*
X498848Y501233D01*
X498877Y501363D01*
X498902Y501493D01*
X498923Y501624D01*
X498941Y501756D01*
X498954Y501888D01*
X498964Y502020D01*
X498970Y502153D01*
X498972Y502286D01*
X498973Y502286D02*
X498973Y514049D01*
X506101Y510430D02*
X510625Y514049D01*
X510625Y497761D01*
X506101Y497761D02*
X515149Y497761D01*
D11*
X492257Y201847D02*
X492257Y192847D01*
X492257Y201847D02*
X652257Y201847D01*
X652257Y192847D01*
X492257Y38847D02*
X492257Y29847D01*
X652257Y29847D01*
X652257Y38847D01*
D12*
X477257Y196847D02*
X477259Y196910D01*
X477265Y196972D01*
X477275Y197034D01*
X477288Y197096D01*
X477306Y197156D01*
X477327Y197215D01*
X477352Y197273D01*
X477381Y197329D01*
X477413Y197383D01*
X477448Y197435D01*
X477486Y197484D01*
X477528Y197532D01*
X477572Y197576D01*
X477620Y197618D01*
X477669Y197656D01*
X477721Y197691D01*
X477775Y197723D01*
X477831Y197752D01*
X477889Y197777D01*
X477948Y197798D01*
X478008Y197816D01*
X478070Y197829D01*
X478132Y197839D01*
X478194Y197845D01*
X478257Y197847D01*
X478320Y197845D01*
X478382Y197839D01*
X478444Y197829D01*
X478506Y197816D01*
X478566Y197798D01*
X478625Y197777D01*
X478683Y197752D01*
X478739Y197723D01*
X478793Y197691D01*
X478845Y197656D01*
X478894Y197618D01*
X478942Y197576D01*
X478986Y197532D01*
X479028Y197484D01*
X479066Y197435D01*
X479101Y197383D01*
X479133Y197329D01*
X479162Y197273D01*
X479187Y197215D01*
X479208Y197156D01*
X479226Y197096D01*
X479239Y197034D01*
X479249Y196972D01*
X479255Y196910D01*
X479257Y196847D01*
X479255Y196784D01*
X479249Y196722D01*
X479239Y196660D01*
X479226Y196598D01*
X479208Y196538D01*
X479187Y196479D01*
X479162Y196421D01*
X479133Y196365D01*
X479101Y196311D01*
X479066Y196259D01*
X479028Y196210D01*
X478986Y196162D01*
X478942Y196118D01*
X478894Y196076D01*
X478845Y196038D01*
X478793Y196003D01*
X478739Y195971D01*
X478683Y195942D01*
X478625Y195917D01*
X478566Y195896D01*
X478506Y195878D01*
X478444Y195865D01*
X478382Y195855D01*
X478320Y195849D01*
X478257Y195847D01*
X478194Y195849D01*
X478132Y195855D01*
X478070Y195865D01*
X478008Y195878D01*
X477948Y195896D01*
X477889Y195917D01*
X477831Y195942D01*
X477775Y195971D01*
X477721Y196003D01*
X477669Y196038D01*
X477620Y196076D01*
X477572Y196118D01*
X477528Y196162D01*
X477486Y196210D01*
X477448Y196259D01*
X477413Y196311D01*
X477381Y196365D01*
X477352Y196421D01*
X477327Y196479D01*
X477306Y196538D01*
X477288Y196598D01*
X477275Y196660D01*
X477265Y196722D01*
X477259Y196784D01*
X477257Y196847D01*
D13*
X487255Y212170D02*
X487255Y223934D01*
X487256Y212170D02*
X487258Y212037D01*
X487264Y211904D01*
X487274Y211772D01*
X487287Y211640D01*
X487305Y211508D01*
X487326Y211377D01*
X487351Y211247D01*
X487380Y211117D01*
X487413Y210988D01*
X487450Y210861D01*
X487490Y210734D01*
X487534Y210609D01*
X487582Y210485D01*
X487633Y210362D01*
X487688Y210241D01*
X487746Y210122D01*
X487808Y210005D01*
X487873Y209889D01*
X487942Y209775D01*
X488014Y209664D01*
X488089Y209554D01*
X488167Y209447D01*
X488249Y209342D01*
X488333Y209239D01*
X488421Y209140D01*
X488511Y209042D01*
X488605Y208948D01*
X488701Y208856D01*
X488799Y208767D01*
X488900Y208681D01*
X489004Y208598D01*
X489110Y208518D01*
X489218Y208441D01*
X489329Y208367D01*
X489442Y208297D01*
X489556Y208230D01*
X489673Y208167D01*
X489792Y208106D01*
X489912Y208050D01*
X490033Y207997D01*
X490157Y207947D01*
X490281Y207901D01*
X490407Y207859D01*
X490534Y207821D01*
X490663Y207786D01*
X490792Y207755D01*
X490922Y207728D01*
X491053Y207705D01*
X491184Y207685D01*
X491316Y207670D01*
X491448Y207658D01*
X491581Y207650D01*
X491714Y207646D01*
X491846Y207646D01*
X491979Y207650D01*
X492112Y207658D01*
X492244Y207670D01*
X492376Y207685D01*
X492507Y207705D01*
X492638Y207728D01*
X492768Y207755D01*
X492897Y207786D01*
X493026Y207821D01*
X493153Y207859D01*
X493279Y207901D01*
X493403Y207947D01*
X493527Y207997D01*
X493648Y208050D01*
X493768Y208106D01*
X493887Y208167D01*
X494004Y208230D01*
X494118Y208297D01*
X494231Y208367D01*
X494342Y208441D01*
X494450Y208518D01*
X494556Y208598D01*
X494660Y208681D01*
X494761Y208767D01*
X494859Y208856D01*
X494955Y208948D01*
X495049Y209042D01*
X495139Y209140D01*
X495227Y209239D01*
X495311Y209342D01*
X495393Y209447D01*
X495471Y209554D01*
X495546Y209664D01*
X495618Y209775D01*
X495687Y209889D01*
X495752Y210005D01*
X495814Y210122D01*
X495872Y210241D01*
X495927Y210362D01*
X495978Y210485D01*
X496026Y210609D01*
X496070Y210734D01*
X496110Y210861D01*
X496147Y210988D01*
X496180Y211117D01*
X496209Y211247D01*
X496234Y211377D01*
X496255Y211508D01*
X496273Y211640D01*
X496286Y211772D01*
X496296Y211904D01*
X496302Y212037D01*
X496304Y212170D01*
X496304Y223934D01*
X508409Y223934D02*
X508534Y223932D01*
X508660Y223926D01*
X508785Y223917D01*
X508909Y223903D01*
X509034Y223886D01*
X509157Y223865D01*
X509280Y223840D01*
X509402Y223811D01*
X509523Y223779D01*
X509643Y223742D01*
X509762Y223703D01*
X509880Y223659D01*
X509996Y223612D01*
X510111Y223561D01*
X510224Y223507D01*
X510335Y223449D01*
X510445Y223388D01*
X510553Y223324D01*
X510658Y223256D01*
X510762Y223186D01*
X510863Y223112D01*
X510962Y223034D01*
X511058Y222954D01*
X511152Y222871D01*
X511244Y222785D01*
X511332Y222697D01*
X511418Y222605D01*
X511501Y222511D01*
X511581Y222415D01*
X511659Y222316D01*
X511733Y222215D01*
X511803Y222111D01*
X511871Y222006D01*
X511935Y221898D01*
X511996Y221788D01*
X512054Y221677D01*
X512108Y221564D01*
X512159Y221449D01*
X512206Y221333D01*
X512250Y221215D01*
X512289Y221096D01*
X512326Y220976D01*
X512358Y220855D01*
X512387Y220733D01*
X512412Y220610D01*
X512433Y220487D01*
X512450Y220362D01*
X512464Y220238D01*
X512473Y220113D01*
X512479Y219987D01*
X512481Y219862D01*
X508409Y223934D02*
X508266Y223932D01*
X508123Y223926D01*
X507980Y223916D01*
X507838Y223903D01*
X507696Y223885D01*
X507555Y223864D01*
X507414Y223839D01*
X507274Y223809D01*
X507135Y223776D01*
X506997Y223740D01*
X506859Y223699D01*
X506723Y223655D01*
X506589Y223607D01*
X506455Y223555D01*
X506323Y223500D01*
X506193Y223441D01*
X506064Y223379D01*
X505937Y223313D01*
X505812Y223244D01*
X505689Y223171D01*
X505568Y223095D01*
X505449Y223016D01*
X505332Y222933D01*
X505218Y222848D01*
X505106Y222759D01*
X504996Y222667D01*
X504889Y222572D01*
X504784Y222475D01*
X504683Y222374D01*
X504584Y222271D01*
X504488Y222165D01*
X504394Y222057D01*
X504304Y221946D01*
X504217Y221832D01*
X504133Y221716D01*
X504052Y221598D01*
X503975Y221478D01*
X503901Y221356D01*
X503830Y221232D01*
X503762Y221106D01*
X503699Y220978D01*
X503638Y220848D01*
X503581Y220717D01*
X503528Y220584D01*
X503478Y220450D01*
X503432Y220315D01*
X511124Y216695D02*
X511217Y216786D01*
X511308Y216881D01*
X511396Y216978D01*
X511481Y217078D01*
X511563Y217181D01*
X511642Y217286D01*
X511717Y217393D01*
X511790Y217502D01*
X511859Y217614D01*
X511925Y217727D01*
X511987Y217843D01*
X512046Y217960D01*
X512101Y218079D01*
X512153Y218199D01*
X512201Y218322D01*
X512245Y218445D01*
X512286Y218570D01*
X512323Y218696D01*
X512356Y218823D01*
X512385Y218950D01*
X512410Y219079D01*
X512432Y219209D01*
X512450Y219339D01*
X512463Y219469D01*
X512473Y219600D01*
X512479Y219731D01*
X512481Y219862D01*
X511124Y216695D02*
X503432Y207646D01*
X512481Y207646D01*
D11*
X184023Y131572D02*
X184023Y396748D01*
X245237Y396748D01*
X245237Y131572D01*
X184023Y131572D01*
D10*
X169456Y137615D02*
X166858Y140862D01*
X178547Y140862D01*
X178547Y137615D02*
X178547Y144109D01*
X250739Y141096D02*
X250741Y141203D01*
X250747Y141310D01*
X250757Y141416D01*
X250770Y141522D01*
X250788Y141627D01*
X250809Y141732D01*
X250834Y141836D01*
X250863Y141939D01*
X250896Y142040D01*
X250932Y142141D01*
X250972Y142240D01*
X251016Y142338D01*
X251063Y142433D01*
X251113Y142528D01*
X251167Y142620D01*
X251225Y142710D01*
X251285Y142798D01*
X251349Y142884D01*
X251416Y142967D01*
X251486Y143048D01*
X251558Y143126D01*
X251634Y143202D01*
X251712Y143274D01*
X251793Y143344D01*
X251876Y143411D01*
X251962Y143475D01*
X252050Y143535D01*
X252140Y143593D01*
X252232Y143647D01*
X252327Y143697D01*
X252422Y143744D01*
X252520Y143788D01*
X252619Y143828D01*
X252720Y143864D01*
X252821Y143897D01*
X252924Y143926D01*
X253028Y143951D01*
X253133Y143972D01*
X253238Y143990D01*
X253344Y144003D01*
X253450Y144013D01*
X253557Y144019D01*
X253664Y144021D01*
X250740Y141096D02*
X250742Y140975D01*
X250748Y140854D01*
X250758Y140733D01*
X250771Y140613D01*
X250789Y140493D01*
X250810Y140374D01*
X250835Y140255D01*
X250864Y140138D01*
X250897Y140021D01*
X250934Y139905D01*
X250974Y139791D01*
X251018Y139678D01*
X251065Y139567D01*
X251116Y139457D01*
X251171Y139349D01*
X251229Y139243D01*
X251290Y139138D01*
X251355Y139036D01*
X251423Y138936D01*
X251495Y138838D01*
X251569Y138742D01*
X251646Y138649D01*
X251727Y138558D01*
X251810Y138470D01*
X251896Y138385D01*
X251985Y138302D01*
X252076Y138223D01*
X252170Y138146D01*
X252266Y138073D01*
X252365Y138002D01*
X252466Y137935D01*
X252569Y137871D01*
X252674Y137811D01*
X252781Y137754D01*
X252889Y137700D01*
X253000Y137650D01*
X253112Y137604D01*
X253225Y137561D01*
X253340Y137522D01*
X255938Y143045D02*
X255861Y143124D01*
X255780Y143200D01*
X255697Y143273D01*
X255612Y143343D01*
X255524Y143410D01*
X255434Y143474D01*
X255341Y143535D01*
X255247Y143592D01*
X255150Y143646D01*
X255052Y143697D01*
X254952Y143744D01*
X254850Y143787D01*
X254747Y143827D01*
X254643Y143864D01*
X254537Y143896D01*
X254430Y143925D01*
X254323Y143950D01*
X254214Y143971D01*
X254105Y143989D01*
X253995Y144002D01*
X253885Y144012D01*
X253775Y144018D01*
X253664Y144020D01*
X255939Y143045D02*
X262438Y137521D01*
X262438Y144020D01*
X169680Y261438D02*
X160587Y261438D01*
X169680Y261438D02*
X169780Y261436D01*
X169879Y261430D01*
X169978Y261421D01*
X170077Y261408D01*
X170175Y261390D01*
X170272Y261370D01*
X170368Y261345D01*
X170464Y261317D01*
X170558Y261285D01*
X170651Y261250D01*
X170743Y261211D01*
X170833Y261168D01*
X170921Y261122D01*
X171008Y261073D01*
X171092Y261021D01*
X171175Y260965D01*
X171255Y260906D01*
X171333Y260844D01*
X171409Y260780D01*
X171482Y260712D01*
X171552Y260642D01*
X171620Y260569D01*
X171684Y260493D01*
X171746Y260415D01*
X171805Y260335D01*
X171861Y260252D01*
X171913Y260168D01*
X171962Y260081D01*
X172008Y259993D01*
X172051Y259903D01*
X172090Y259811D01*
X172125Y259718D01*
X172157Y259624D01*
X172185Y259528D01*
X172210Y259432D01*
X172230Y259335D01*
X172248Y259237D01*
X172261Y259138D01*
X172270Y259039D01*
X172276Y258940D01*
X172278Y258840D01*
X172278Y257541D01*
X172278Y266713D02*
X172278Y270610D01*
X172276Y270710D01*
X172270Y270809D01*
X172261Y270908D01*
X172248Y271007D01*
X172230Y271105D01*
X172210Y271202D01*
X172185Y271298D01*
X172157Y271394D01*
X172125Y271488D01*
X172090Y271581D01*
X172051Y271673D01*
X172008Y271763D01*
X171962Y271851D01*
X171913Y271938D01*
X171861Y272022D01*
X171805Y272105D01*
X171746Y272185D01*
X171684Y272263D01*
X171620Y272339D01*
X171552Y272412D01*
X171482Y272482D01*
X171409Y272550D01*
X171333Y272614D01*
X171255Y272676D01*
X171175Y272735D01*
X171092Y272791D01*
X171008Y272843D01*
X170921Y272892D01*
X170833Y272938D01*
X170743Y272981D01*
X170651Y273020D01*
X170558Y273055D01*
X170464Y273087D01*
X170368Y273115D01*
X170272Y273140D01*
X170175Y273160D01*
X170077Y273178D01*
X169978Y273191D01*
X169879Y273200D01*
X169780Y273206D01*
X169680Y273208D01*
X168381Y273208D01*
X168281Y273206D01*
X168182Y273200D01*
X168083Y273191D01*
X167984Y273178D01*
X167886Y273160D01*
X167789Y273140D01*
X167693Y273115D01*
X167597Y273087D01*
X167503Y273055D01*
X167410Y273020D01*
X167318Y272981D01*
X167228Y272938D01*
X167140Y272892D01*
X167053Y272843D01*
X166969Y272791D01*
X166886Y272735D01*
X166806Y272676D01*
X166728Y272614D01*
X166652Y272550D01*
X166579Y272482D01*
X166509Y272412D01*
X166441Y272339D01*
X166377Y272263D01*
X166315Y272185D01*
X166256Y272105D01*
X166200Y272022D01*
X166148Y271938D01*
X166099Y271851D01*
X166053Y271763D01*
X166010Y271673D01*
X165971Y271581D01*
X165936Y271488D01*
X165904Y271394D01*
X165876Y271298D01*
X165851Y271202D01*
X165831Y271105D01*
X165813Y271007D01*
X165800Y270908D01*
X165791Y270809D01*
X165785Y270710D01*
X165783Y270610D01*
X165783Y266713D01*
X160587Y266713D01*
X160587Y273208D01*
X529927Y214985D02*
X532524Y214985D01*
X529927Y214985D02*
X529828Y214987D01*
X529728Y214993D01*
X529629Y215002D01*
X529531Y215015D01*
X529433Y215032D01*
X529335Y215053D01*
X529239Y215078D01*
X529144Y215106D01*
X529050Y215138D01*
X528957Y215173D01*
X528865Y215212D01*
X528775Y215255D01*
X528687Y215300D01*
X528600Y215350D01*
X528516Y215402D01*
X528433Y215458D01*
X528353Y215516D01*
X528275Y215578D01*
X528200Y215643D01*
X528127Y215711D01*
X528057Y215781D01*
X527989Y215854D01*
X527924Y215929D01*
X527862Y216007D01*
X527804Y216087D01*
X527748Y216170D01*
X527696Y216254D01*
X527646Y216341D01*
X527601Y216429D01*
X527558Y216519D01*
X527519Y216611D01*
X527484Y216704D01*
X527452Y216798D01*
X527424Y216893D01*
X527399Y216989D01*
X527378Y217087D01*
X527361Y217185D01*
X527348Y217283D01*
X527339Y217382D01*
X527333Y217482D01*
X527331Y217581D01*
X527331Y224072D01*
X527333Y224171D01*
X527339Y224271D01*
X527348Y224370D01*
X527361Y224468D01*
X527378Y224566D01*
X527399Y224664D01*
X527424Y224760D01*
X527452Y224855D01*
X527484Y224949D01*
X527519Y225042D01*
X527558Y225134D01*
X527601Y225224D01*
X527646Y225312D01*
X527696Y225399D01*
X527748Y225483D01*
X527804Y225566D01*
X527862Y225646D01*
X527924Y225724D01*
X527989Y225799D01*
X528057Y225872D01*
X528127Y225942D01*
X528200Y226010D01*
X528275Y226075D01*
X528353Y226137D01*
X528433Y226195D01*
X528516Y226251D01*
X528600Y226303D01*
X528687Y226353D01*
X528775Y226398D01*
X528865Y226441D01*
X528957Y226480D01*
X529049Y226515D01*
X529144Y226547D01*
X529239Y226575D01*
X529335Y226600D01*
X529433Y226621D01*
X529531Y226638D01*
X529629Y226651D01*
X529728Y226660D01*
X529828Y226666D01*
X529927Y226668D01*
X529927Y226669D02*
X532524Y226669D01*
X536889Y224072D02*
X540135Y226669D01*
X540135Y214985D01*
X543380Y214985D02*
X536889Y214985D01*
X603092Y270681D02*
X605688Y270681D01*
X603092Y270681D02*
X602993Y270683D01*
X602893Y270689D01*
X602794Y270698D01*
X602696Y270711D01*
X602598Y270728D01*
X602500Y270749D01*
X602404Y270774D01*
X602309Y270802D01*
X602215Y270834D01*
X602122Y270869D01*
X602030Y270908D01*
X601940Y270951D01*
X601852Y270996D01*
X601765Y271046D01*
X601681Y271098D01*
X601598Y271154D01*
X601518Y271212D01*
X601440Y271274D01*
X601365Y271339D01*
X601292Y271407D01*
X601222Y271477D01*
X601154Y271550D01*
X601089Y271625D01*
X601027Y271703D01*
X600969Y271783D01*
X600913Y271866D01*
X600861Y271950D01*
X600811Y272037D01*
X600766Y272125D01*
X600723Y272215D01*
X600684Y272307D01*
X600649Y272400D01*
X600617Y272494D01*
X600589Y272589D01*
X600564Y272685D01*
X600543Y272783D01*
X600526Y272881D01*
X600513Y272979D01*
X600504Y273078D01*
X600498Y273178D01*
X600496Y273277D01*
X600495Y273277D02*
X600495Y279768D01*
X600496Y279768D02*
X600498Y279867D01*
X600504Y279967D01*
X600513Y280066D01*
X600526Y280164D01*
X600543Y280262D01*
X600564Y280360D01*
X600589Y280456D01*
X600617Y280551D01*
X600649Y280645D01*
X600684Y280738D01*
X600723Y280830D01*
X600766Y280920D01*
X600811Y281008D01*
X600861Y281095D01*
X600913Y281179D01*
X600969Y281262D01*
X601027Y281342D01*
X601089Y281420D01*
X601154Y281495D01*
X601222Y281568D01*
X601292Y281638D01*
X601365Y281706D01*
X601440Y281771D01*
X601518Y281833D01*
X601598Y281891D01*
X601681Y281947D01*
X601765Y281999D01*
X601852Y282049D01*
X601940Y282094D01*
X602030Y282137D01*
X602122Y282176D01*
X602214Y282211D01*
X602309Y282243D01*
X602404Y282271D01*
X602500Y282296D01*
X602598Y282317D01*
X602696Y282334D01*
X602794Y282347D01*
X602893Y282356D01*
X602993Y282362D01*
X603092Y282364D01*
X603092Y282365D02*
X605688Y282365D01*
X613623Y282365D02*
X613730Y282363D01*
X613836Y282357D01*
X613942Y282347D01*
X614048Y282334D01*
X614154Y282316D01*
X614258Y282295D01*
X614362Y282270D01*
X614465Y282241D01*
X614566Y282209D01*
X614666Y282172D01*
X614765Y282132D01*
X614863Y282089D01*
X614959Y282042D01*
X615053Y281991D01*
X615145Y281937D01*
X615235Y281880D01*
X615323Y281820D01*
X615408Y281756D01*
X615491Y281689D01*
X615572Y281619D01*
X615650Y281547D01*
X615726Y281471D01*
X615798Y281393D01*
X615868Y281312D01*
X615935Y281229D01*
X615999Y281144D01*
X616059Y281056D01*
X616116Y280966D01*
X616170Y280874D01*
X616221Y280780D01*
X616268Y280684D01*
X616311Y280586D01*
X616351Y280487D01*
X616388Y280387D01*
X616420Y280286D01*
X616449Y280183D01*
X616474Y280079D01*
X616495Y279975D01*
X616513Y279869D01*
X616526Y279763D01*
X616536Y279657D01*
X616542Y279551D01*
X616544Y279444D01*
X613623Y282365D02*
X613502Y282363D01*
X613381Y282357D01*
X613261Y282347D01*
X613140Y282334D01*
X613021Y282316D01*
X612901Y282295D01*
X612783Y282270D01*
X612666Y282241D01*
X612549Y282208D01*
X612434Y282172D01*
X612320Y282131D01*
X612207Y282088D01*
X612095Y282040D01*
X611986Y281989D01*
X611878Y281934D01*
X611771Y281876D01*
X611667Y281815D01*
X611565Y281750D01*
X611465Y281682D01*
X611367Y281611D01*
X611271Y281537D01*
X611178Y281460D01*
X611088Y281379D01*
X611000Y281296D01*
X610915Y281210D01*
X610832Y281121D01*
X610753Y281030D01*
X610676Y280936D01*
X610603Y280840D01*
X610533Y280742D01*
X610466Y280641D01*
X610402Y280538D01*
X610342Y280433D01*
X610285Y280326D01*
X610231Y280218D01*
X610181Y280108D01*
X610135Y279996D01*
X610092Y279883D01*
X610053Y279768D01*
X615571Y277172D02*
X615650Y277249D01*
X615726Y277330D01*
X615799Y277413D01*
X615869Y277498D01*
X615936Y277586D01*
X616000Y277676D01*
X616060Y277768D01*
X616117Y277863D01*
X616171Y277959D01*
X616222Y278057D01*
X616269Y278157D01*
X616313Y278259D01*
X616353Y278362D01*
X616389Y278466D01*
X616421Y278572D01*
X616450Y278678D01*
X616475Y278786D01*
X616497Y278894D01*
X616514Y279004D01*
X616528Y279113D01*
X616537Y279223D01*
X616543Y279334D01*
X616545Y279444D01*
X615571Y277172D02*
X610053Y270681D01*
X616544Y270681D01*
D11*
X807593Y326898D02*
X807593Y214122D01*
X807593Y326898D02*
X868807Y326898D01*
X868807Y214122D01*
X807593Y214122D01*
D14*
X796776Y224958D02*
X795193Y226937D01*
X802319Y226937D01*
X802319Y224958D02*
X802319Y228917D01*
X871475Y227216D02*
X871477Y227298D01*
X871483Y227380D01*
X871492Y227462D01*
X871505Y227543D01*
X871522Y227623D01*
X871543Y227703D01*
X871567Y227781D01*
X871595Y227858D01*
X871627Y227934D01*
X871661Y228009D01*
X871700Y228081D01*
X871741Y228152D01*
X871786Y228221D01*
X871834Y228288D01*
X871885Y228352D01*
X871939Y228414D01*
X871996Y228473D01*
X872055Y228530D01*
X872117Y228584D01*
X872182Y228635D01*
X872248Y228683D01*
X872317Y228728D01*
X872388Y228769D01*
X872460Y228808D01*
X872535Y228843D01*
X872611Y228874D01*
X872688Y228902D01*
X872766Y228926D01*
X872846Y228947D01*
X872926Y228964D01*
X873007Y228977D01*
X873089Y228986D01*
X873171Y228992D01*
X873253Y228994D01*
X871475Y227216D02*
X871477Y227123D01*
X871483Y227031D01*
X871492Y226939D01*
X871505Y226847D01*
X871522Y226756D01*
X871542Y226666D01*
X871566Y226576D01*
X871594Y226488D01*
X871626Y226401D01*
X871660Y226315D01*
X871699Y226230D01*
X871740Y226148D01*
X871785Y226067D01*
X871834Y225987D01*
X871885Y225910D01*
X871939Y225835D01*
X871997Y225763D01*
X872057Y225692D01*
X872121Y225625D01*
X872186Y225560D01*
X872255Y225497D01*
X872326Y225438D01*
X872399Y225381D01*
X872475Y225327D01*
X872552Y225277D01*
X872632Y225229D01*
X872714Y225185D01*
X872797Y225145D01*
X872882Y225107D01*
X872968Y225073D01*
X873055Y225043D01*
X874636Y228401D02*
X874575Y228462D01*
X874512Y228520D01*
X874446Y228575D01*
X874378Y228628D01*
X874307Y228677D01*
X874235Y228722D01*
X874160Y228765D01*
X874084Y228804D01*
X874005Y228840D01*
X873926Y228872D01*
X873845Y228900D01*
X873762Y228925D01*
X873679Y228946D01*
X873595Y228963D01*
X873510Y228977D01*
X873425Y228986D01*
X873339Y228992D01*
X873253Y228994D01*
X874636Y228401D02*
X878587Y225043D01*
X878587Y228994D01*
X793143Y259904D02*
X787600Y259904D01*
X793143Y259904D02*
X793221Y259902D01*
X793298Y259896D01*
X793375Y259887D01*
X793452Y259874D01*
X793528Y259857D01*
X793603Y259836D01*
X793677Y259811D01*
X793749Y259783D01*
X793820Y259752D01*
X793890Y259717D01*
X793957Y259679D01*
X794023Y259637D01*
X794087Y259592D01*
X794148Y259544D01*
X794207Y259494D01*
X794263Y259440D01*
X794317Y259384D01*
X794367Y259325D01*
X794415Y259264D01*
X794460Y259200D01*
X794502Y259134D01*
X794540Y259067D01*
X794575Y258997D01*
X794606Y258926D01*
X794634Y258854D01*
X794659Y258780D01*
X794680Y258705D01*
X794697Y258629D01*
X794710Y258552D01*
X794719Y258475D01*
X794725Y258398D01*
X794727Y258320D01*
X794726Y258320D02*
X794726Y257529D01*
X787599Y265197D02*
X787601Y265279D01*
X787607Y265361D01*
X787616Y265443D01*
X787629Y265524D01*
X787646Y265605D01*
X787667Y265685D01*
X787691Y265763D01*
X787719Y265841D01*
X787751Y265917D01*
X787786Y265991D01*
X787824Y266064D01*
X787866Y266135D01*
X787911Y266204D01*
X787959Y266271D01*
X788010Y266335D01*
X788064Y266398D01*
X788121Y266457D01*
X788180Y266514D01*
X788243Y266568D01*
X788307Y266619D01*
X788374Y266667D01*
X788443Y266712D01*
X788514Y266754D01*
X788587Y266792D01*
X788661Y266827D01*
X788737Y266859D01*
X788815Y266887D01*
X788893Y266911D01*
X788973Y266932D01*
X789054Y266949D01*
X789135Y266962D01*
X789217Y266971D01*
X789299Y266977D01*
X789381Y266979D01*
X787600Y265197D02*
X787602Y265104D01*
X787608Y265012D01*
X787617Y264919D01*
X787630Y264827D01*
X787647Y264736D01*
X787667Y264645D01*
X787692Y264556D01*
X787719Y264467D01*
X787751Y264380D01*
X787786Y264294D01*
X787824Y264209D01*
X787866Y264126D01*
X787911Y264045D01*
X787959Y263966D01*
X788011Y263888D01*
X788066Y263813D01*
X788123Y263741D01*
X788184Y263670D01*
X788247Y263602D01*
X788313Y263537D01*
X788382Y263474D01*
X788453Y263415D01*
X788526Y263358D01*
X788602Y263304D01*
X788680Y263253D01*
X788760Y263206D01*
X788841Y263162D01*
X788925Y263121D01*
X789010Y263084D01*
X789096Y263050D01*
X789184Y263019D01*
X790767Y266385D02*
X790706Y266446D01*
X790643Y266504D01*
X790577Y266559D01*
X790508Y266612D01*
X790438Y266661D01*
X790365Y266707D01*
X790290Y266749D01*
X790213Y266789D01*
X790135Y266824D01*
X790055Y266856D01*
X789974Y266885D01*
X789891Y266910D01*
X789808Y266931D01*
X789724Y266948D01*
X789639Y266962D01*
X789553Y266971D01*
X789467Y266977D01*
X789381Y266979D01*
X790767Y266385D02*
X794726Y263019D01*
X794726Y266979D01*
M02*
