G04 EAGLE Gerber RS-274X export*
G75*
%MOMM*%
%FSLAX34Y34*%
%LPD*%
%INSolderpaste Top*%
%IPPOS*%
%AMOC8*
5,1,8,0,0,1.08239X$1,22.5*%
G01*
%ADD10R,1.300000X1.500000*%
%ADD11R,1.000000X1.100000*%
%ADD12R,1.100000X1.000000*%
%ADD13R,3.320800X6.514481*%
%ADD14R,3.320181X3.941169*%
%ADD15R,3.319519X3.938809*%
%ADD16R,1.300000X0.665000*%
%ADD17R,1.676400X0.736600*%


D10*
X564659Y297546D03*
X583659Y297546D03*
X376433Y352497D03*
X357433Y352497D03*
X562730Y241334D03*
X581730Y241334D03*
X359627Y70948D03*
X340627Y70948D03*
D11*
X363187Y376463D03*
X380187Y376463D03*
D12*
X390538Y446901D03*
X390538Y463901D03*
X424961Y447624D03*
X424961Y464624D03*
X427332Y377364D03*
X427332Y360364D03*
X455119Y360589D03*
X455119Y377589D03*
X456319Y464561D03*
X456319Y447561D03*
X440398Y497255D03*
X440398Y480255D03*
X442074Y327890D03*
X442074Y344890D03*
X368977Y463747D03*
X368977Y446747D03*
X406641Y495740D03*
X406641Y478740D03*
X412268Y328349D03*
X412268Y345349D03*
X398682Y359512D03*
X398682Y376512D03*
D11*
X345885Y92051D03*
X362885Y92051D03*
D12*
X398231Y156569D03*
X398231Y173569D03*
X429436Y155808D03*
X429436Y172808D03*
X419532Y90780D03*
X419532Y73780D03*
X453499Y74272D03*
X453499Y91272D03*
X458077Y172592D03*
X458077Y155592D03*
X443455Y206469D03*
X443455Y189469D03*
X436360Y42043D03*
X436360Y59043D03*
X376286Y173712D03*
X376286Y156712D03*
X412824Y208450D03*
X412824Y191450D03*
X401826Y40710D03*
X401826Y57710D03*
X383043Y72016D03*
X383043Y89016D03*
D13*
X540582Y400798D03*
D14*
X601585Y359144D03*
D15*
X601588Y442456D03*
D16*
X480084Y400799D03*
X662084Y400799D03*
X480084Y410799D03*
X480084Y420799D03*
X480084Y430799D03*
X480084Y440799D03*
X480084Y450799D03*
X480084Y460799D03*
X480084Y470799D03*
X480084Y390799D03*
X480084Y380799D03*
X480084Y370799D03*
X480084Y360799D03*
X480084Y350799D03*
X480084Y340799D03*
X480084Y330799D03*
X662084Y410799D03*
X662084Y420799D03*
X662084Y430799D03*
X662084Y440799D03*
X662084Y450799D03*
X662084Y460799D03*
X662084Y470799D03*
X662084Y390799D03*
X662084Y380799D03*
X662084Y370799D03*
X662084Y360799D03*
X662084Y350799D03*
X662084Y340799D03*
X662084Y330799D03*
D13*
X541755Y115846D03*
D14*
X602758Y74192D03*
D15*
X602761Y157504D03*
D16*
X481257Y115847D03*
X663257Y115847D03*
X481257Y125847D03*
X481257Y135847D03*
X481257Y145847D03*
X481257Y155847D03*
X481257Y165847D03*
X481257Y175847D03*
X481257Y185847D03*
X481257Y105847D03*
X481257Y95847D03*
X481257Y85847D03*
X481257Y75847D03*
X481257Y65847D03*
X481257Y55847D03*
X481257Y45847D03*
X663257Y125847D03*
X663257Y135847D03*
X663257Y145847D03*
X663257Y155847D03*
X663257Y165847D03*
X663257Y175847D03*
X663257Y185847D03*
X663257Y105847D03*
X663257Y95847D03*
X663257Y85847D03*
X663257Y75847D03*
X663257Y65847D03*
X663257Y55847D03*
X663257Y45847D03*
D17*
X196215Y143510D03*
X233045Y143510D03*
X196215Y156210D03*
X233045Y156210D03*
X196215Y168910D03*
X233045Y168910D03*
X196215Y181610D03*
X233045Y181610D03*
X196215Y194310D03*
X233045Y194310D03*
X196215Y207010D03*
X233045Y207010D03*
X196215Y219710D03*
X233045Y219710D03*
X196215Y232410D03*
X233045Y232410D03*
X196215Y245110D03*
X233045Y245110D03*
X196215Y257810D03*
X233045Y257810D03*
X196215Y270510D03*
X233045Y270510D03*
X196215Y283210D03*
X233045Y283210D03*
X196215Y295910D03*
X233045Y295910D03*
X196215Y308610D03*
X233045Y308610D03*
X196215Y321310D03*
X233045Y321310D03*
X196215Y334010D03*
X233045Y334010D03*
X196215Y346710D03*
X233045Y346710D03*
X196215Y359410D03*
X233045Y359410D03*
X196215Y372110D03*
X233045Y372110D03*
X196215Y384810D03*
X233045Y384810D03*
D10*
X562903Y219884D03*
X581903Y219884D03*
X564430Y275422D03*
X583430Y275422D03*
D17*
X819785Y226060D03*
X856615Y226060D03*
X819785Y238760D03*
X856615Y238760D03*
X819785Y251460D03*
X856615Y251460D03*
X819785Y264160D03*
X856615Y264160D03*
X819785Y276860D03*
X856615Y276860D03*
X819785Y289560D03*
X856615Y289560D03*
X819785Y302260D03*
X856615Y302260D03*
X819785Y314960D03*
X856615Y314960D03*
M02*
