M48
;GenerationSoftware,Autodesk,EAGLE,9.6.2*%
;CreationDate,2021-10-03T14:12:18Z*%
FMAT,2
ICI,OFF
METRIC,TZ,000.000
T2C0.350
T1C1.020
%
G90
M71
T1
X83820Y30861
X83820Y23241
T2
X41108Y14019
X45007Y32946
X52073Y32277
X52387Y30403
X39150Y14165
X38255Y32415
X51607Y44751
X50371Y26296
X50803Y34198
X51662Y7100
X52430Y19862
X83063Y31823
X63201Y32786
X82653Y29831
X54360Y26538
X83156Y26416
X41715Y28886
X60208Y22347
X55604Y33461
X55960Y41053
X37122Y44297
X45873Y36395
X46232Y26650
X69302Y40125
X71748Y44270
X34507Y40334
X43123Y13954
X80524Y22631
X80548Y23894
X80721Y25089
X37628Y45720
X54664Y5041
X71788Y43309
X69454Y38964
X56876Y41003
X56647Y33514
X60169Y21485
X43012Y23686
X42990Y24596
X47149Y26589
X42691Y28892
X44275Y36371
X55529Y5033
X83493Y25159
X83033Y24172
X83173Y21962
X61864Y31729
X83342Y28950
X60589Y30655
X83307Y27679
X25044Y8643
X32618Y17200
X34543Y2654
X42130Y2981
X63083Y29364
X83113Y40328
X35949Y48916
X42724Y48776
X30866Y41015
X34842Y20774
X82149Y17109
X72594Y8845
X61956Y49097
X30584Y45422
X43934Y28344
X43906Y27234
X31221Y32649
X45632Y21324
X46960Y21279
X58396Y19129
X59825Y19124
X33435Y33576
X33366Y35794
X44472Y42553
X45941Y42503
X41155Y44978
X41017Y43696
X41331Y42792
X41331Y41460
X45935Y47924
X45904Y49903
X59394Y40533
X58306Y38272
X58754Y35385
X59007Y33989
X76538Y38443
X47263Y12141
X47263Y4010
X62998Y4177
X62663Y10872
X69379Y21907
X72384Y21943
X56693Y47500
X55335Y47554
X54140Y47518
X52832Y47585
X40105Y37184
X34410Y37191
X36362Y39462
X37298Y19758
X36936Y22684
X70389Y21965
X62634Y40319
X33583Y42229
X34165Y43219
X55690Y19880
X44167Y30569
X36150Y13962
X40164Y11392
X38142Y11291
X42192Y11312
X65369Y16924
X87048Y31478
X86959Y30220
X86959Y28887
X86836Y27694
X86998Y26454
X87007Y25133
X87096Y23911
X86926Y22608
X58098Y4499
X57997Y3031
X57282Y5500
X52832Y5489
X52876Y38361
X51608Y38381
X53958Y38587
X56916Y38166
X55979Y37070
X72024Y41099
X71972Y42173
X62655Y39002
X69373Y19553
X70369Y19597
X72380Y19535
X77743Y23844
X77723Y25399
X64464Y16931
X44122Y29525
X49186Y29800
X49162Y28807
X77138Y34287
X77138Y33060
X84586Y21967
X84530Y24250
X84603Y25144
X84442Y26436
X84510Y27678
X84507Y28905
X85048Y29851
X84582Y31817
X34909Y27779
X35093Y26847
X60931Y34402
X51855Y25433
X22306Y15712
X25106Y15677
X21005Y38456
X20903Y37198
X21024Y35915
X20778Y34660
X20959Y33391
X20882Y32149
X20998Y30764
X20947Y29547
X20985Y28292
X20959Y26946
X21011Y25833
X20985Y24461
X21063Y23270
X20882Y21976
X20959Y20630
X20839Y19380
X20908Y18223
X20804Y16929
X20752Y15634
X20675Y14366
X22280Y14314
X49663Y31692
X18251Y37229
X18101Y35851
X18236Y34608
X18176Y33305
X18116Y32122
X18071Y30759
X18099Y29598
X18011Y28199
X18016Y27051
X17933Y25720
X18002Y24491
X17872Y23201
X17976Y21944
X17950Y20645
X17932Y19406
X17872Y18141
X17837Y16911
X17802Y15620
X17978Y14430
X25122Y14352
X22255Y29586
X25127Y29535
X22177Y28240
X25205Y28272
X22229Y32149
X25117Y32155
X22203Y18145
X25117Y18110
X18278Y38395
X25192Y27021
X22229Y25704
X25209Y25713
X22280Y33314
X25169Y33371
X22203Y19465
X25157Y19319
X22358Y24565
X25140Y24500
X22203Y23141
X25123Y23261
X22177Y21873
X25131Y21927
X22280Y20682
X25183Y20680
X22255Y30855
X25117Y30887
X22134Y36002
X25189Y35870
X22229Y34660
X25158Y34650
X22229Y16825
X25085Y16862
X22123Y37197
X25189Y37143
X22164Y38465
X25295Y38471
X40082Y28496
X22177Y27075
M30